<svg width="18" height="18" viewBox="0 0 18 18" fill="none" xmlns="http://www.w3.org/2000/svg">
<g clip-path="url(#clip0)">
<path d="M2.68506 15.897H13.3793L12.8686 14.2432C12.9443 14.3092 17.2501 18 17.2501 18V1.85625C17.1991 0.85275 16.3351 0 15.2641 0L2.68881 0.00225C1.61856 0.00225 0.750065 0.8565 0.750065 1.86V14.04C0.750065 15.0982 1.61706 15.897 2.68506 15.897ZM10.5961 4.26225L10.5713 4.27125L10.5803 4.26225H10.5961ZM4.87282 5.214C6.24756 4.2135 7.52182 4.2615 7.52182 4.2615L7.62457 4.36275C5.94232 4.764 5.17956 5.5155 5.17956 5.5155C5.25757 5.499 8.65431 3.53925 12.7703 5.565C12.7703 5.565 12.0061 4.86225 10.4273 4.41225L10.5668 4.275C10.7851 4.27575 11.9401 4.31625 13.1761 5.22C13.1761 5.22 14.5591 7.5825 14.5591 10.485C14.5133 10.4295 13.7011 11.7345 11.6108 11.7795C11.6108 11.7795 11.2568 11.379 11.0048 11.0295C12.2273 10.6785 12.6848 9.9765 12.6848 9.9765C10.3051 11.475 8.21931 11.241 5.72406 10.2285C5.70081 10.2285 5.69031 10.218 5.67832 10.206V10.2015C5.66632 10.1903 5.65582 10.179 5.63257 10.179H5.58756C5.43456 10.0785 5.33256 10.029 5.33256 10.029C5.33256 10.029 5.78932 10.731 6.96307 11.082C6.65482 11.4338 6.34956 11.8335 6.34956 11.8335C4.26006 11.784 3.49806 10.479 3.49806 10.479C3.49806 7.572 4.87282 5.214 4.87282 5.214Z" fill="#5C6BC0"/>
<path d="M10.731 9.57827C11.2643 9.57827 11.6985 9.12827 11.6985 8.57327C11.6985 8.02202 11.2665 7.57202 10.731 7.57202V7.57427C10.2 7.57427 9.76503 8.02277 9.76353 8.57777C9.76353 9.12827 10.1978 9.57827 10.731 9.57827Z" fill="#5C6BC0"/>
<path d="M7.26755 9.57827C7.8008 9.57827 8.23505 9.12827 8.23505 8.57327C8.23505 8.02202 7.8038 7.57202 7.27055 7.57202L7.26755 7.57427C6.73431 7.57427 6.30006 8.02277 6.30006 8.57777C6.30006 9.12827 6.73431 9.57827 7.26755 9.57827Z" fill="#5C6BC0"/>
</g>
<defs>
<clipPath id="clip0">
<rect width="18" height="18" fill="white"/>
</clipPath>
</defs>
</svg>
