<svg width="18" height="18" viewBox="0 0 18 18" fill="none" xmlns="http://www.w3.org/2000/svg">
<g clip-path="url(#clip0)">
<path d="M1.12499 1.22472C-0.289507 2.69397 -6.96629e-06 4.25472 -6.96629e-06 8.99622C-6.96629e-06 12.9337 -0.687007 16.881 2.90849 17.8102C4.03124 18.099 13.9792 18.099 15.1005 17.8087C16.5975 17.4225 17.8155 16.2082 17.982 14.091C18.0052 13.7955 18.0052 4.20222 17.9812 3.90072C17.8042 1.64547 16.416 0.345724 14.5867 0.0824737C14.1675 0.0217238 14.0835 0.00372376 11.9325 -2.62428e-05C4.30274 0.00372376 2.63024 -0.336026 1.12499 1.22472Z" fill="url(#paint0_linear)"/>
<path d="M8.99851 2.35419C6.27526 2.35419 3.68926 2.11194 2.70151 4.64694C2.29351 5.69394 2.35276 7.05369 2.35276 9.00069C2.35276 10.7092 2.29801 12.3149 2.70151 13.3537C3.68701 15.8902 6.29401 15.6472 8.99701 15.6472C11.6048 15.6472 14.2935 15.9187 15.2933 13.3537C15.702 12.2962 15.642 10.9567 15.642 9.00069C15.642 6.40419 15.7853 4.72794 14.526 3.46944C13.251 2.19444 11.5268 2.35419 8.99551 2.35419H8.99851ZM8.40301 3.55194C14.0835 3.54294 14.8065 2.91144 14.4075 11.6842C14.2658 14.7869 11.9033 14.4464 8.99926 14.4464C3.70426 14.4464 3.55201 14.2949 3.55201 8.99769C3.55201 3.63894 3.97201 3.55494 8.40301 3.55044V3.55194ZM12.546 4.65519C12.1058 4.65519 11.7488 5.01219 11.7488 5.45244C11.7488 5.89269 12.1058 6.24969 12.546 6.24969C12.9863 6.24969 13.3433 5.89269 13.3433 5.45244C13.3433 5.01219 12.9863 4.65519 12.546 4.65519ZM8.99851 5.58744C7.11376 5.58744 5.58601 7.11594 5.58601 9.00069C5.58601 10.8854 7.11376 12.4132 8.99851 12.4132C10.8833 12.4132 12.4103 10.8854 12.4103 9.00069C12.4103 7.11594 10.8833 5.58744 8.99851 5.58744ZM8.99851 6.78519C11.9273 6.78519 11.931 11.2162 8.99851 11.2162C6.07051 11.2162 6.06601 6.78519 8.99851 6.78519Z" fill="white"/>
</g>
<defs>
<linearGradient id="paint0_linear" x1="1.15951" y1="16.8503" x2="17.8886" y2="2.37145" gradientUnits="userSpaceOnUse">
<stop stop-color="#FFDD55"/>
<stop offset="0.5" stop-color="#FF543E"/>
<stop offset="1" stop-color="#C837AB"/>
</linearGradient>
<clipPath id="clip0">
<rect width="18" height="18" fill="white"/>
</clipPath>
</defs>
</svg>
