<svg width="18" height="18" viewBox="0 0 18 18" fill="none" xmlns="http://www.w3.org/2000/svg">
<path d="M17.4819 10.9108C17.6112 10.3242 17.6798 9.71793 17.6798 9.09421C17.6798 4.42 13.8374 0.629892 9.09625 0.629892C8.59627 0.629892 8.10581 0.672643 7.62888 0.753635C6.86184 0.276705 5.95407 0 4.98112 0C2.23094 0 0.00265121 2.19789 0.00265121 4.90984C0.00265121 5.81532 0.252916 6.66342 0.686538 7.3929C0.572372 7.94235 0.512755 8.51152 0.512755 9.09421C0.512755 13.7701 4.35519 17.419 9.09575 17.419C9.63285 17.419 10.1582 17.3701 10.6671 17.2773C11.3685 17.6485 12.1693 18 13.0208 18C15.7705 18 17.9988 15.8027 17.9988 13.0907C17.9988 12.3084 17.8126 11.5677 17.4819 10.9108Z" fill="#00AFF0"/>
<path d="M13.0106 12.5491C12.6793 13.0198 12.1945 13.3899 11.5562 13.6559C10.9179 13.9241 10.162 14.0569 9.28746 14.0569C8.23858 14.0569 7.37356 13.8747 6.69134 13.5097C6.20879 13.2476 5.8157 12.8966 5.51311 12.4591C5.21163 12.0215 5.06039 11.5952 5.06039 11.1807C5.06039 10.9411 5.15096 10.7353 5.33203 10.5648C5.51311 10.3921 5.74428 10.3073 6.02383 10.3073C6.25105 10.3073 6.44392 10.3731 6.60028 10.5075C6.75776 10.6408 6.89219 10.8382 7.0024 11.1008C7.13794 11.413 7.28361 11.6734 7.44164 11.882C7.598 12.0906 7.8196 12.2638 8.10415 12.3994C8.38988 12.5338 8.765 12.6024 9.2284 12.6024C9.8662 12.6024 10.3847 12.4663 10.784 12.1924C11.1822 11.9196 11.3824 11.5771 11.3824 11.1682C11.3824 10.8442 11.2744 10.5793 11.0596 10.3786C10.8441 10.1761 10.5663 10.0214 10.2255 9.91516C9.88523 9.80773 9.42967 9.69412 8.85828 9.57433C8.09507 9.41068 7.4556 9.21719 6.94161 8.99787C6.42699 8.77683 6.01759 8.47708 5.71611 8.09745C5.41352 7.71616 5.26278 7.24374 5.26278 6.67964C5.26278 6.14087 5.42192 5.66338 5.74138 5.24552C6.06028 4.82709 6.5209 4.50597 7.12602 4.28097C7.73002 4.05603 8.44097 3.94409 9.257 3.94409C9.90938 3.94409 10.474 4.01891 10.9504 4.1668C11.4268 4.31643 11.8211 4.51437 12.1348 4.7613C12.4492 5.00822 12.6792 5.26689 12.8238 5.53853C12.9689 5.8085 13.0414 6.07508 13.0414 6.33152C13.0414 6.56714 12.9514 6.78089 12.7703 6.96932C12.5893 7.1583 12.3632 7.25331 12.0926 7.25331C11.8457 7.25331 11.6585 7.19592 11.5302 7.08293C11.4019 6.96932 11.2631 6.78374 11.114 6.52556C10.92 6.15662 10.6888 5.86867 10.4178 5.66227C10.1467 5.45531 9.71249 5.35184 9.11293 5.35184C8.55785 5.35184 8.10903 5.46322 7.7682 5.68871C7.42737 5.91254 7.25643 6.18362 7.25643 6.49912C7.25643 6.69372 7.31549 6.86355 7.43077 7.00583C7.54605 7.14922 7.70581 7.27018 7.90992 7.37199C8.11181 7.47436 8.31766 7.55424 8.52517 7.61323C8.73269 7.67118 9.07636 7.75495 9.55551 7.86634C10.1539 7.99515 10.6966 8.13798 11.1826 8.29323C11.668 8.44903 12.0819 8.63857 12.4227 8.85955C12.763 9.08226 13.0296 9.36459 13.2202 9.70542C13.4109 10.0451 13.507 10.4618 13.507 10.9557C13.5072 11.5463 13.3408 12.0778 13.0106 12.5491Z" fill="white"/>
</svg>
