<svg width="18" height="18" viewBox="0 0 18 18" fill="none" xmlns="http://www.w3.org/2000/svg">
<path d="M9 18C13.9706 18 18 13.9706 18 9C18 4.02944 13.9706 0 9 0C4.02944 0 0 4.02944 0 9C0 13.9706 4.02944 18 9 18Z" fill="#039BE5"/>
<path d="M4.11826 8.80503L12.7958 5.45928C13.1985 5.31378 13.5503 5.55753 13.4198 6.16653L13.4205 6.16578L11.943 13.1265C11.8335 13.62 11.5403 13.74 11.13 13.5075L8.88001 11.8493L7.79476 12.8948C7.67476 13.0148 7.57351 13.116 7.34101 13.116L7.50076 10.8263L11.6708 7.05903C11.8523 6.89928 11.6303 6.80928 11.391 6.96828L6.23776 10.2128L4.01626 9.51978C3.53401 9.36678 3.52351 9.03753 4.11826 8.80503Z" fill="white"/>
</svg>
