<svg width="18" height="18" viewBox="0 0 18 18" fill="none" xmlns="http://www.w3.org/2000/svg">
<g clip-path="url(#clip0)">
<path d="M9.00092 17.9998C13.9714 17.9998 18.0008 13.9704 18.0008 8.99992C18.0008 4.0294 13.9714 0 9.00092 0C4.0304 0 0.000999451 4.0294 0.000999451 8.99992C0.000999451 13.9704 4.0304 17.9998 9.00092 17.9998Z" fill="#55ACEE"/>
<path d="M14.5129 6.4679C14.1272 6.63892 13.7123 6.7546 13.2772 6.80625C13.7214 6.5401 14.0624 6.11896 14.2233 5.61633C13.8076 5.86291 13.347 6.0418 12.8572 6.13822C12.4648 5.72029 11.9057 5.45911 11.2866 5.45911C10.0987 5.45911 9.13533 6.4225 9.13533 7.61034C9.13533 7.77895 9.15442 7.94308 9.19132 8.10062C7.40346 8.01094 5.81823 7.15455 4.75713 5.85265C4.572 6.1703 4.46579 6.5401 4.46579 6.93428C4.46579 7.68045 4.84585 8.33918 5.42277 8.72486C5.0703 8.71379 4.73836 8.61705 4.44846 8.4555C4.4483 8.46464 4.4483 8.47379 4.4483 8.48277C4.4483 9.5251 5.19014 10.3945 6.17407 10.592C5.99375 10.6414 5.80331 10.6675 5.60742 10.6675C5.46849 10.6675 5.33389 10.6542 5.20265 10.6292C5.47635 11.4837 6.27065 12.1056 7.21223 12.1231C6.47584 12.7002 5.54839 13.044 4.54023 13.044C4.36696 13.044 4.1953 13.0339 4.02733 13.0139C4.97885 13.6245 6.1099 13.9805 7.32469 13.9805C11.2816 13.9805 13.4455 10.7025 13.4455 7.85949C13.4455 7.76628 13.4434 7.67339 13.4392 7.5813C13.8599 7.27809 14.2246 6.89931 14.5129 6.4679Z" fill="#F1F2F2"/>
</g>
<defs>
<clipPath id="clip0">
<rect width="18" height="18" fill="white"/>
</clipPath>
</defs>
</svg>
