<svg width="18" height="18" viewBox="0 0 18 18" fill="none" xmlns="http://www.w3.org/2000/svg">
<g clip-path="url(#clip0)">
<path d="M8.99521 0.00525335C4.02759 0.00630741 0.00137648 4.03424 0.00243054 9.00186C0.0027819 10.722 0.4964 12.4059 1.42468 13.8541L0.0252686 17.4849C-0.0492537 17.678 0.0468769 17.895 0.239981 17.9695C0.283163 17.9862 0.329015 17.9947 0.375288 17.9946C0.418224 17.9949 0.460843 17.9875 0.501214 17.9729L4.24901 16.6349C8.46568 19.2611 14.0129 17.9718 16.6391 13.7551C19.2653 9.53835 17.9759 3.99113 13.7592 1.36496C12.3298 0.474698 10.6792 0.00360198 8.99521 0.00525335Z" fill="#4CAF50"/>
<path d="M13.2833 10.5367C13.2833 10.5367 12.3652 10.087 11.7902 9.78719C11.1396 9.45214 10.3751 10.0795 10.0153 10.4363C9.45534 10.2212 8.94391 9.89656 8.51093 9.48137C8.09567 9.04846 7.77102 8.53703 7.55599 7.97701C7.91279 7.61648 8.53865 6.85267 8.20511 6.20207C7.90903 5.62641 7.45557 4.70895 7.45557 4.70822C7.39194 4.58194 7.26268 4.50222 7.12126 4.50208H6.37171C5.28012 4.69061 4.48645 5.64306 4.49783 6.75074C4.49783 7.92754 5.90624 10.1882 6.85595 11.1386C7.80566 12.0891 10.0663 13.4968 11.2438 13.4968C12.3515 13.5081 13.304 12.7144 13.4925 11.6229V10.8733C13.4926 10.7304 13.4115 10.5999 13.2833 10.5367Z" fill="#FAFAFA"/>
</g>
<defs>
<clipPath id="clip0">
<rect width="18" height="18" fill="white"/>
</clipPath>
</defs>
</svg>
