<svg width="98" height="100" viewBox="0 0 98 100" fill="none" xmlns="http://www.w3.org/2000/svg"><g clip-path="url(#clip0)" filter="url(#filter0_d)"><path d="M17.997 42.525l27.807-16.032 27.808 16.032.019-.011v21.42L45.804 80 17.978 63.935V42.514l.02.011z" fill="#ED7064"/><path d="M17.978 63.934L45.804 80V58.58L17.978 42.513v21.42z" fill="#C40041"/><path d="M45.804 58.58l27.827-16.066v21.42L45.804 80V58.58z" fill="#F43834"/><path d="M16.503 34.277l29.301-16.894 29.302 16.894.02-.012v7.411L45.804 58.605 16.483 41.676v-7.411l.02.012z" fill="#FF8A5C"/><path d="M16.483 41.676l29.321 16.929v-7.411l-29.321-16.93v7.412z" fill="#F43834"/><path d="M45.804 51.194l29.322-16.93v7.412L45.804 58.605v-7.411z" fill="#FF5331"/><path d="M34.007 73.19l-7.284-4.207v-28.83L55.99 23.255l7.281 4.198L34.007 44.35v28.84z" fill="#FF812C"/><path d="M57.748 73.103l7.284-4.206v-28.83L35.765 23.169l-7.281 4.198 29.264 16.896v28.84z" fill="#FF9F2C"/><path d="M57.748 44.263l7.284-4.196-29.267-16.898-7.281 4.198 29.264 16.896z" fill="#FFD800"/><path d="M34.007 44.349l-7.284-4.196L55.99 23.255l7.281 4.198L34.007 44.35z" fill="#FFD800"/><path d="M76.082 39.221l-1.69-4.148 7.125-2.265L48.26 26.81l-5.431 6.414 33.254 5.997z" fill="#F0C419"/><path d="M45.524 60.698l-3.454-2.851-4.289 6.124 4.2-33.532 7.743-3.27-4.2 33.529z" fill="#F0C419"/><path d="M48.314 29.879a2.36 2.36 0 01-.403-2.23c1.265-3.816 4.85-13.59 10.823-15.4 5.582-1.692 12.607 5.558 8.156 12.442-3.545 5.481-11.95 7.097-15.227 7.528a2.363 2.363 0 01-2.148-.855l-1.2-1.485z" fill="#FFD800"/><path d="M62.93 20.11c2.631-1.439 4.018.202 3.12 2.857-.9 2.655-5.496 5.186-8.225 6.521-2.73 1.335-6.478 1.817-6.478 1.817s8.954-9.755 11.584-11.194z" fill="#DCA700"/><path d="M39.38 29.503a5.496 5.496 0 012.989-1.182 4.53 4.53 0 003.404-1.965 5.498 5.498 0 012.519-1.997c2.276-.906 4.946-.14 6.405 1.828a5.498 5.498 0 01-4.055 8.776 4.177 4.177 0 00-3.254 1.879 5.498 5.498 0 01-9.627-.877c-.976-2.248-.304-4.943 1.62-6.462z" fill="#FFE252"/><path d="M41.455 32.748a2.36 2.36 0 00-1.976-1.107c-4.021-.045-14.43.165-18.085 5.224-3.416 4.727 1.154 13.73 9.112 11.76 6.336-1.569 10.598-8.99 12.072-11.949a2.362 2.362 0 00-.11-2.31l-1.013-1.618z" fill="#FFD800"/><path d="M27.463 43.391c-2.217 2.02-1.117 3.864 1.686 3.878 2.803.015 6.691-3.508 8.842-5.655 2.151-2.147 3.826-5.534 3.826-5.534s-12.137 5.292-14.354 7.311z" fill="#DCA700"/></g><defs><clipPath id="clip0"><path fill="#fff" transform="translate(15 12)" d="M0 0h68v68H0z"/></clipPath><filter id="filter0_d" x="-1" y="0" width="100" height="100" filterUnits="userSpaceOnUse" color-interpolation-filters="sRGB"><feFlood flood-opacity="0" result="BackgroundImageFix"/><feColorMatrix in="SourceAlpha" values="0 0 0 0 0 0 0 0 0 0 0 0 0 0 0 0 0 0 127 0"/><feOffset dy="4"/><feGaussianBlur stdDeviation="8"/><feColorMatrix values="0 0 0 0 0 0 0 0 0 0 0 0 0 0 0 0 0 0 0.21 0"/><feBlend in2="BackgroundImageFix" result="effect1_dropShadow"/><feBlend in="SourceGraphic" in2="effect1_dropShadow" result="shape"/></filter></defs></svg>