<svg width="62" height="70" viewBox="0 0 62 70" fill="none" xmlns="http://www.w3.org/2000/svg"><g clip-path="url(#clip0)" filter="url(#filter0_d)"><path d="M35.59 46.3h-9.18v10.283h9.18V46.3z" fill="#FDCC9B"/><path d="M26.41 47.51s3.862 2.46 9.18 1.89v-3.1h-9.18v1.21zM13.17 35.466c2.474 0 4.48-2.289 4.48-5.112 0-2.822-2.006-5.11-4.48-5.11-2.474 0-4.48 2.288-4.48 5.11 0 2.823 2.006 5.112 4.48 5.112zm35.66 0c2.474 0 4.48-2.289 4.48-5.112 0-2.822-2.006-5.11-4.48-5.11-2.474 0-4.48 2.288-4.48 5.11 0 2.823 2.006 5.112 4.48 5.112z" fill="#FCBC85"/><path d="M48.812 20.591c0-7.528-5.509-13.037-17.812-13.037S13.188 13.063 13.188 20.59c0 7.53-1.285 27.361 17.812 27.361s17.812-19.832 17.812-27.36z" fill="#FDCC9B"/><path d="M22.324 31.242c1.065 0 1.928-.945 1.928-2.112 0-1.166-.863-2.111-1.928-2.111s-1.928.945-1.928 2.111c0 1.167.863 2.112 1.928 2.112z" fill="#3B2519"/><path d="M21.484 28.775a.577.577 0 100-1.154.577.577 0 000 1.154z" fill="#fff"/><path d="M19.24 23.897c.912.456 2.376-1.55 5.727.195.61.318.975-2.72-2.617-2.72-3.11 0-3.661 2.25-3.11 2.525z" fill="#51362A"/><path d="M39.914 31.242c1.065 0 1.928-.945 1.928-2.112 0-1.166-.863-2.111-1.928-2.111s-1.928.945-1.928 2.111c0 1.167.863 2.112 1.928 2.112z" fill="#3B2519"/><path d="M39.073 28.775a.577.577 0 100-1.153.577.577 0 000 1.153z" fill="#fff"/><path d="M42.76 23.897c-.911.456-2.375-1.55-5.727.195-.61.318-.975-2.72 2.617-2.72 3.11 0 3.66 2.25 3.11 2.525z" fill="#51362A"/><path d="M31 36.558c-1.905 0-3.053-1.423-3.053-.735 0 .69.551 1.998 3.053 1.998s3.053-1.309 3.053-1.998c0-.688-1.148.735-3.053.735zm0 6.332c-.659 0-1.056-.493-1.056-.255 0 .239.19.691 1.056.691.866 0 1.056-.452 1.056-.69 0-.239-.397.253-1.056.253z" fill="#FCBC85"/><path d="M31 41.135c-3.02 0-4.84-1.23-4.84-.918 0 .312.874 1.538 4.84 1.538 3.966 0 4.84-1.226 4.84-1.538-.001-.312-1.82.918-4.84.918z" fill="#F7945E"/><path d="M31 50.431V62H8.69c0-4.683 11.75-11.57 22.31-11.57zm0 0V62h22.31c0-4.683-11.75-11.57-22.31-11.57z" fill="#F7941E"/><path d="M31 50.431c-2.246 0-4.545.314-6.774.85.015.02 2.472 3.19 6.774 3.19 3.984 0 6.632-2.715 7.016-3.133-2.304-.572-4.689-.907-7.016-.907z" fill="#F36C21"/><path d="M26.41 50.832s1.342 1.665 4.59 1.665c3.248 0 4.59-1.665 4.59-1.665s-4.762-1.734-9.18 0z" fill="#FDCC9B"/><path d="M45.644 5.947s-6.61-8.4-20.35-5.233c-13.74 3.167-14.769 11.43-14.356 19.47.414 8.04 1.515 12.756 2.819 12.174 1.303-.584.625-5.89.762-7.115.138-1.225 1.377-6.763 9.734-5.937 8.356.826 15.397-2.204 15.397-2.204s2.835 3.583 4.7 4.27c3.728 1.372 2.505 10.517 3.966 10.517 1.46 0 8.621-21.122-2.672-25.942z" fill="#51362A"/></g><defs><clipPath id="clip0"><path fill="#fff" d="M0 0h62v62H0z"/></clipPath><filter id="filter0_d" x="-4" y="0" width="70" height="70" filterUnits="userSpaceOnUse" color-interpolation-filters="sRGB"><feFlood flood-opacity="0" result="BackgroundImageFix"/><feColorMatrix in="SourceAlpha" values="0 0 0 0 0 0 0 0 0 0 0 0 0 0 0 0 0 0 127 0"/><feOffset dy="4"/><feGaussianBlur stdDeviation="2"/><feColorMatrix values="0 0 0 0 0 0 0 0 0 0 0 0 0 0 0 0 0 0 0.25 0"/><feBlend in2="BackgroundImageFix" result="effect1_dropShadow"/><feBlend in="SourceGraphic" in2="effect1_dropShadow" result="shape"/></filter></defs></svg>