<svg width="178" height="95" viewBox="0 0 178 95" fill="none" xmlns="http://www.w3.org/2000/svg"><path stroke="url(#paint0_linear)" stroke-width="2" stroke-linecap="round" stroke-dasharray="2 5" d="M49.492 40.32L24.32 51.508"/><path stroke="url(#paint1_linear)" stroke-width="2" stroke-linecap="round" stroke-dasharray="2 5" d="M85 40v16"/><path stroke="url(#paint2_linear)" stroke-width="2" stroke-linecap="round" stroke-dasharray="2 5" d="M125.342 38.553l20.211 10.105"/><g clip-path="url(#clip0)" fill="#FF9800"><path d="M101.499 29.45H71.532a.517.517 0 01-.516-.517V8.267c0-.286.231-.517.516-.517H101.5c.285 0 .517.23.517.517v20.666a.517.517 0 01-.517.517zm-29.45-1.033h28.933V8.783H72.049v19.634z"/><path d="M98.4 8.783H74.631a.517.517 0 01-.516-.516v-3.1c0-.286.231-.517.516-.517H98.4c.285 0 .517.23.517.517v3.1a.516.516 0 01-.517.516zM75.15 7.75h22.732V5.683H75.15V7.75z"/><path d="M95.299 5.683H77.732a.517.517 0 01-.517-.516v-3.1c0-.286.232-.517.517-.517h17.567c.285 0 .516.231.516.517v3.1a.516.516 0 01-.516.516zM78.249 4.65h16.533V2.583H78.249V4.65zm5.696 18.632c-.18 0-.36-.047-.525-.142a1.025 1.025 0 01-.521-.896v-7.772c0-.374.195-.709.52-.897a1.06 1.06 0 011.055.002l6.691 3.886c.324.188.517.523.517.895s-.193.706-.517.894l-6.691 3.886a1.05 1.05 0 01-.529.144zm.01-8.812l-.023 7.773v.002l6.714-3.887-6.692-3.888z"/></g><path d="M16.652 88.707a49.475 49.475 0 00-5.144 2.44 1.164 1.164 0 00-.597 1.005v.574a1.152 1.152 0 01-1.149 1.149h1.723a1.152 1.152 0 001.148-1.149v-.574c.004-.418.232-.801.597-1.005a49.474 49.474 0 015.144-2.44h-1.722z" fill="#CAD9FC"/><path d="M20.67 86.882v.103a.685.685 0 01-.005.109 1.714 1.714 0 01-1.717 1.613H6.318a1.722 1.722 0 01-1.723-1.722v-2.297c0 .952.77 1.723 1.722 1.723h12.631a1.67 1.67 0 00.844-.224c.205.325.515.57.879.695z" fill="#A4C2F7"/><path d="M19.793 86.187a1.67 1.67 0 01-.845.224h-.71c.193.215.438.377.71.47v.104a.697.697 0 01-.005.109 1.714 1.714 0 01-1.717 1.613h1.723a1.714 1.714 0 001.716-1.613.697.697 0 00.006-.11v-.102a1.679 1.679 0 01-.878-.695z" fill="#7FACFA"/><path d="M23.994 71.421a1.722 1.722 0 00-2.239-.965l-.254.102c.35.188.622.493.77.86a1.726 1.726 0 01-.964 2.24l-.627.26v.71l2.347-.97a1.726 1.726 0 00.967-2.237zm-1.026 5.229h-1.723a1.722 1.722 0 110 3.445h1.723a1.722 1.722 0 000-3.445zm-.574 3.445h-1.149a1.74 1.74 0 00-.287.029 1.716 1.716 0 01-.014 3.387c.1.019.2.029.301.029h1.149a1.722 1.722 0 000-3.445zm-.557 3.445h-.592a1.713 1.713 0 00-.565.102 1.713 1.713 0 010 3.241c.18.068.372.103.565.102h.592a1.722 1.722 0 100-3.445z" fill="#CAD9FC"/><path d="M22.393 86.881v.005l.007-.003-.007-.002zM4.595 62.297v9.908a1.63 1.63 0 011.722.26V62.296c0-.95.771-1.722 1.723-1.722H6.317c-.951 0-1.722.771-1.722 1.723z" fill="#fff"/><path d="M4.02 62.297h1.15v4.593H4.02v-4.593z" fill="#fff"/><path d="M4.606 65.167a.574.574 0 11-.005-1.148h.005a.574.574 0 010 1.148z" fill="#428DFF"/><path d="M18.948 60H6.318a2.297 2.297 0 00-2.297 2.297.574.574 0 001.148 0c0-.635.514-1.149 1.148-1.149h.794l.83 1.662c.194.39.592.636 1.028.635h7.328c.435.001.834-.245 1.027-.635l.831-1.662h.793c.635 0 1.149.514 1.149 1.149v14.098a2.272 2.272 0 00-.355 3.7 2.276 2.276 0 00-.005 3.45 2.219 2.219 0 00-.71 2.282c-.027 0-.052.01-.079.01H6.318a1.148 1.148 0 01-1.149-1.149v-4.516a12.67 12.67 0 001.145-4.67h.003c0-1.752-.541-2.74-1.148-3.297V66.89a.574.574 0 10-1.148 0v4.68a2.315 2.315 0 00-.514-.087h-.101a1.71 1.71 0 00-1.691 1.516 15.759 15.759 0 01-.46 2.346 9.518 9.518 0 01-.468 1.225 6.286 6.286 0 00-.668 2.399c-.016.494.004 1.018.023 1.525.018.47.037.956.026 1.404-.008.303-.034.77-.062 1.297-.063 1.148-.14 2.576-.09 3.258a4.572 4.572 0 001.028 2.838c.182.26.396.565.644.968.1.162.207.326.316.491a3.98 3.98 0 01.868 2.004v.04a1.722 1.722 0 001.723 1.655h6.89c.95 0 1.722-.771 1.722-1.723v-.574a.592.592 0 01.308-.507 48.618 48.618 0 014.974-2.364h.46a2.29 2.29 0 002.221-1.73c.026 0 .05.008.075.008h.591a2.285 2.285 0 001.738-3.782 2.266 2.266 0 00.562-3.438 2.29 2.29 0 00-1.168-4.263h-1.723V75.02l1.996-.825a2.298 2.298 0 10-1.697-4.271l-.299.118v-7.744A2.297 2.297 0 0018.948 60zm-2.65 2.297h-7.33l-.573-1.149h8.476l-.574 1.149zm4.558 20.597a1.133 1.133 0 01-.76-1.076 1.15 1.15 0 011.15-1.149h1.147a1.148 1.148 0 110 2.297h-1.148c-.133 0-.265-.024-.389-.072zm-7.908 7.75a1.742 1.742 0 00-.89 1.508v.574a.574.574 0 01-.573.575h-6.89a.574.574 0 01-.574-.575v-.023a4.96 4.96 0 00-1.055-2.584c-.102-.155-.204-.31-.297-.46-.263-.426-.489-.746-.682-1.023a3.502 3.502 0 01-.823-2.265c-.045-.609.03-1.996.09-3.11.03-.54.058-1.02.064-1.33.012-.485-.007-.99-.026-1.478-.02-.51-.038-.99-.022-1.444a5.23 5.23 0 01.569-1.98c.205-.444.38-.902.521-1.37.228-.83.393-1.674.493-2.527a.562.562 0 01.553-.5h.093c.173.004 1.67.128 1.67 2.87a.198.198 0 00.007.082c.038.662-.677 4.204-1.412 4.571a.57.57 0 00.257 1.083v5.747a2.297 2.297 0 002.296 2.296h9.308c-.85.397-1.802.87-2.677 1.366v-.003zm6-2.51H6.318a1.148 1.148 0 01-1.149-1.15v-.318c.348.206.744.317 1.148.319h12.631a2.27 2.27 0 00.67-.104c.135.133.286.249.449.344-.111.53-.578.909-1.119.908zm2.889-1.723h-.592a1.148 1.148 0 110-2.297h.591a1.148 1.148 0 010 2.297zm2.279-8.038c0 .634-.514 1.148-1.148 1.148h-1.723a1.148 1.148 0 110-2.297h1.723c.634 0 1.148.514 1.148 1.149zm-2.149-7.383a1.15 1.15 0 01.844 2.14l-1.566.65v-2.503l.722-.287z" fill="url(#paint3_linear)"/><path d="M7.465 71.483v8.038c0 .634.514 1.148 1.149 1.148h8.038c.634 0 1.148-.514 1.148-1.148v-8.038c0-.634-.514-1.148-1.148-1.148h-.32c.207-.348.317-.744.32-1.149a2.287 2.287 0 00-4.02-1.503 2.285 2.285 0 00-3.7 2.652h-.318c-.635 0-1.149.514-1.149 1.148zm3.445 0h1.149v3.445H8.614v-3.445h2.296zm-2.296 4.593h3.444v3.445H8.614v-3.445zm4.593 3.445v-3.445h3.445v3.445h-3.445zm3.445-4.593h-3.445v-3.445h3.445v3.445zm-2.297-6.89a1.148 1.148 0 110 2.297h-1.148v-1.149c0-.634.514-1.148 1.148-1.148zm-4.593 1.148a1.148 1.148 0 112.296 0v1.149H10.91a1.148 1.148 0 01-1.148-1.149z" fill="url(#paint4_linear)"/><path d="M79.474 89.514h3.894a.12.12 0 01.12.12v.655a.775.775 0 01-.775.775h-2.585a.775.775 0 01-.775-.775v-.655a.12.12 0 01.12-.12z" fill="#fff"/><path d="M81.971 89.287l.594-.657c.694-.93.968-2.11.756-3.25h-1.277a3.109 3.109 0 01-1.188 3.25l-.933.658a.124.124 0 00.064.226h2.025c-.074 0-.102-.16-.04-.227z" fill="#fff"/><path d="M98.733 61.091H97.37c.946.054 1.67.862 1.621 1.808v18.346h1.55V62.9c0-.998-.81-1.808-1.808-1.808z" fill="#A4C2F7"/><path d="M73.74 61.091h-1.364c-.998 0-1.808.81-1.808 1.808v18.346h1.55V62.9a1.722 1.722 0 011.622-1.808zm-1.621 22.481v-2.327h-1.55v2.327a1.808 1.808 0 001.807 1.807h1.364a1.722 1.722 0 01-1.621-1.807z" fill="#fff"/><path d="M98.991 81.245v2.327a1.722 1.722 0 01-1.62 1.807h1.362a1.809 1.809 0 001.808-1.807v-2.327h-1.55z" fill="#A4C2F7"/><path d="M76.807 78.145h-1.51a1.054 1.054 0 01-1.054-1.054v-1.51c0-.582.472-1.053 1.053-1.054h1.511c.582 0 1.053.472 1.054 1.053v1.511c0 .582-.472 1.053-1.054 1.054zm-1.51-2.584l-.02 1.53 1.53.02a.02.02 0 00.02-.02v-1.51l-1.53-.02z" fill="url(#paint5_linear)"/><path d="M91.123 90.03H79.987a.631.631 0 01-.603-.446.64.64 0 01.245-.72l.93-.657a2.595 2.595 0 00.982-2.708l-.15-.636h8.337l-.16.642a2.593 2.593 0 00.985 2.704l.932.656a.641.641 0 01-.362 1.166zm-10.897-.323l-.005.003.005-.003zm1.004-.71h8.65a3.622 3.622 0 01-1.41-3.1h-5.83a3.622 3.622 0 01-1.41 3.1z" fill="url(#paint6_linear)"/><path d="M81.401 78.145h-1.51a1.054 1.054 0 01-1.054-1.054v-1.51c0-.582.472-1.053 1.053-1.054h1.511c.582 0 1.053.472 1.053 1.053v1.511c0 .582-.471 1.053-1.053 1.054zm-1.51-2.584l-.02 1.53 1.53.02a.02.02 0 00.02-.02v-1.51l-1.53-.02z" fill="url(#paint7_linear)"/><path d="M86.052 78.145h-1.511a1.054 1.054 0 01-1.053-1.054v-1.51c0-.582.472-1.053 1.053-1.054h1.511c.581 0 1.053.472 1.053 1.053v1.511c0 .582-.472 1.053-1.053 1.054zm-1.511-2.584l-.02 1.53 1.531.02a.02.02 0 00.02-.02v-1.51l-1.531-.02z" fill="url(#paint8_linear)"/><path d="M90.703 78.145h-1.511a1.054 1.054 0 01-1.053-1.054v-1.51c0-.582.471-1.053 1.053-1.054h1.51c.582 0 1.053.472 1.054 1.053v1.511c0 .582-.472 1.053-1.053 1.054zm-1.511-2.584l-.02 1.53 1.53.02a.02.02 0 00.02-.02v-1.51l-1.53-.02z" fill="url(#paint9_linear)"/><path d="M95.354 78.145h-1.51a1.054 1.054 0 01-1.054-1.054v-1.51c0-.582.472-1.053 1.053-1.054h1.511c.582 0 1.053.472 1.053 1.053v1.511c0 .582-.471 1.053-1.053 1.054zm-1.51-2.584l-.02 1.53 1.53.02a.02.02 0 00.02-.02v-1.51l-1.53-.02z" fill="url(#paint10_linear)"/><path d="M91.756 71.427a.514.514 0 01-.365-.152l-1.55-1.55a.517.517 0 01.73-.73l1.55 1.55a.517.517 0 01-.365.882z" fill="url(#paint11_linear)"/><path d="M89.69 70.91a.517.517 0 01-.518-.517v-1.55a.517.517 0 011.034 0v1.55a.517.517 0 01-.517.517z" fill="url(#paint12_linear)"/><path d="M91.24 69.36h-1.55a.517.517 0 010-1.034h1.55a.517.517 0 110 1.034z" fill="url(#paint13_linear)"/><path d="M90.414 91.58h-9.718a1.86 1.86 0 01-1.86-1.858.727.727 0 01.726-.725h11.986c.4 0 .725.325.725.725a1.86 1.86 0 01-1.859 1.859zM79.93 90.03a.827.827 0 00.766.517h9.718c.337 0 .64-.204.766-.516H79.93z" fill="url(#paint14_linear)"/><path d="M101.058 81.762H70.052V70.393a.517.517 0 011.033 0v10.335h28.94v-1.55a.516.516 0 111.033 0v2.584z" fill="url(#paint15_linear)"/><path d="M100.541 75.044a.516.516 0 01-.516-.517V62.9a1.293 1.293 0 00-1.291-1.291H72.376a1.29 1.29 0 00-1.29 1.291v3.36a.517.517 0 01-1.034 0V62.9a2.327 2.327 0 012.324-2.325h26.358a2.327 2.327 0 012.324 2.325v11.628a.517.517 0 01-.517.517z" fill="url(#paint16_linear)"/><path d="M70.569 68.843a.517.517 0 100-1.034.517.517 0 000 1.034z" fill="url(#paint17_linear)"/><path d="M100.542 77.628a.517.517 0 01-.517-.517v-.517a.517.517 0 111.033 0v.517a.516.516 0 01-.516.517z" fill="url(#paint18_linear)"/><path d="M98.734 85.896H72.376a2.327 2.327 0 01-2.324-2.325v-2.843h31.006v2.843a2.327 2.327 0 01-2.325 2.325zm-27.649-4.134v1.81c.001.712.579 1.29 1.291 1.29h26.358c.712 0 1.29-.578 1.291-1.29v-1.81h-28.94z" fill="url(#paint19_linear)"/><path d="M177.529 68.38a.471.471 0 00-.471.471V80.5c0 .7-.569 1.27-1.268 1.27h-3.277a9.067 9.067 0 00-.698-.944h3.831a.47.47 0 00.471-.471V62.932a.47.47 0 00-.471-.47h-21.355a.471.471 0 000 .941h20.884v16.48h-4.309c-.949-.782-1.994-1.203-2.983-1.201h-4.921a.471.471 0 000 .942h2.267l-.923 2.616h-4.779l-.924-2.616h2.155a.471.471 0 000-.942h-4.807c-.988 0-2.027.422-2.972 1.2h-4.309V63.404h3.405a.471.471 0 000-.942h-3.876a.47.47 0 00-.471.471v17.422c0 .26.211.47.471.47h3.831a8.92 8.92 0 00-.697.946h-3.278a1.27 1.27 0 01-1.268-1.27V62.785c0-.7.569-1.27 1.268-1.27h27.723c.699 0 1.267.57 1.267 1.27v3.888a.471.471 0 00.942 0v-3.888c0-1.22-.991-2.212-2.209-2.212h-27.723c-1.219 0-2.21.993-2.21 2.212V80.5c0 1.22.991 2.213 2.21 2.213h2.741a10.88 10.88 0 00-.615 1.505c-.918 2.844-.588 5.718.84 7.321a3.5 3.5 0 001.545 1.027c1.949.63 4.219-.593 5.749-3.058a2.906 2.906 0 003.057-.703.77.77 0 01.551-.241.77.77 0 01.55.241 2.904 2.904 0 003.057.703c1.262 2.034 3.028 3.222 4.701 3.222.355 0 .707-.053 1.048-.164a3.5 3.5 0 001.545-1.027c1.428-1.603 1.758-4.477.84-7.32a10.633 10.633 0 00-.615-1.506h2.741c1.219 0 2.21-.993 2.21-2.213V68.851a.471.471 0 00-.471-.47zm-5.408 22.532a2.57 2.57 0 01-1.132.757c-1.58.511-3.577-.72-4.857-2.995a.47.47 0 00-.639-.181 1.953 1.953 0 01-2.346-.347 1.704 1.704 0 00-1.224-.525c-.459 0-.894.186-1.225.525a1.954 1.954 0 01-2.346.347.471.471 0 00-.639.18c-1.28 2.276-3.277 3.507-4.857 2.996a2.567 2.567 0 01-1.131-.757c-1.192-1.338-1.452-3.912-.647-6.406.913-2.831 2.961-4.882 4.874-4.882h1.652l1.146 3.244a.47.47 0 00.444.314h5.445a.47.47 0 00.444-.314l1.145-3.244h1.667c1.911 0 3.959 2.05 4.873 4.882.804 2.494.544 5.068-.647 6.406z" fill="url(#paint20_linear)"/><path d="M160.216 85.046a1.603 1.603 0 00-1.16-.433 1.605 1.605 0 00-1.126.515c-.607.654-.57 1.68.082 2.287a1.604 1.604 0 001.16.433 1.605 1.605 0 001.126-.515 1.622 1.622 0 00-.082-2.287zm-.608 1.646a.671.671 0 01-.954.034.678.678 0 01.461-1.172.68.68 0 01.493 1.138z" fill="url(#paint21_linear)"/><path d="M165.82 85.046a1.602 1.602 0 00-1.16-.433 1.608 1.608 0 00-1.126.515c-.607.654-.57 1.68.082 2.287a1.606 1.606 0 001.16.433 1.62 1.62 0 001.044-2.802zm-.608 1.646a.67.67 0 01-.953.034.678.678 0 01.46-1.172.678.678 0 01.493 1.138z" fill="url(#paint22_linear)"/><path d="M156.812 82.869h-.94v-.942a.471.471 0 00-.942 0v.942h-.94a.47.47 0 100 .942h.94v.942a.471.471 0 00.942 0v-.942h.94a.47.47 0 100-.942z" fill="url(#paint23_linear)"/><path d="M155.354 66.115a4.902 4.902 0 00-4.894 4.9c0 2.7 2.196 4.898 4.894 4.898a4.915 4.915 0 003.932-1.983.47.47 0 00-.045-.613l-2.432-2.435 2.317-2.32a.472.472 0 00.033-.629 4.875 4.875 0 00-3.805-1.818zm.456 4.434a.472.472 0 000 .665l2.464 2.467a3.912 3.912 0 01-2.92 1.29 3.96 3.96 0 01-3.952-3.957 3.96 3.96 0 013.952-3.957 3.93 3.93 0 012.79 1.155l-2.334 2.337z" fill="url(#paint24_linear)"/><path d="M173.006 71.323a.474.474 0 00.111-.375l-.288-2.025a3.28 3.28 0 00-3.231-2.808 3.28 3.28 0 00-3.231 2.808l-.288 2.025a.474.474 0 00.467.537h1.341l-.299 2.11a2.03 2.03 0 104.02 0l-.3-2.11h1.342c.137 0 .266-.06.356-.162zm-2.587 3.274a1.088 1.088 0 01-1.898-.87l.318-2.242h1.518l.318 2.243a1.09 1.09 0 01-.256.869zm-3.331-4.054l.211-1.488a2.335 2.335 0 012.299-1.998c1.149 0 2.137.859 2.299 1.998l.211 1.488h-5.02z" fill="url(#paint25_linear)"/><path d="M159.332 71.443a.47.47 0 100-.94.47.47 0 000 .94z" fill="url(#paint26_linear)"/><path d="M161.016 71.442a.47.47 0 100-.94.47.47 0 000 .94z" fill="url(#paint27_linear)"/><path d="M162.738 71.443a.47.47 0 100-.941.47.47 0 000 .941z" fill="url(#paint28_linear)"/><path d="M164.514 71.442a.47.47 0 100-.94.47.47 0 000 .94z" fill="url(#paint29_linear)"/><path d="M155.108 69.176a.47.47 0 100-.94.47.47 0 000 .94z" fill="url(#paint30_linear)"/><path d="M167.02 83.81a.47.47 0 100-.94.47.47 0 000 .94z" fill="url(#paint31_linear)"/><path d="M169.843 83.81a.47.47 0 100-.941.47.47 0 000 .94z" fill="url(#paint32_linear)"/><path d="M168.432 82.397a.47.47 0 100-.942.47.47 0 000 .942z" fill="url(#paint33_linear)"/><path d="M168.432 85.223a.47.47 0 100-.941.47.47 0 000 .941z" fill="url(#paint34_linear)"/><defs><linearGradient id="paint0_linear" x1="36.5" y1="45" x2="36.094" y2="44.086" gradientUnits="userSpaceOnUse"><stop stop-color="#8C9CEF"/><stop offset="1" stop-color="#6C7DFF"/></linearGradient><linearGradient id="paint1_linear" x1="84" y1="48" x2="83" y2="48" gradientUnits="userSpaceOnUse"><stop stop-color="#8C9CEF"/><stop offset="1" stop-color="#6C7DFF"/></linearGradient><linearGradient id="paint2_linear" x1="135" y1="44.5" x2="134.553" y2="45.394" gradientUnits="userSpaceOnUse"><stop stop-color="#8C9CEF"/><stop offset="1" stop-color="#6C7DFF"/></linearGradient><linearGradient id="paint3_linear" x1="12.632" y1="60" x2="12.632" y2="94.449" gradientUnits="userSpaceOnUse"><stop stop-color="#8C9CEF"/><stop offset="1" stop-color="#6C7DFF"/></linearGradient><linearGradient id="paint4_linear" x1="12.633" y1="66.886" x2="12.633" y2="80.669" gradientUnits="userSpaceOnUse"><stop stop-color="#8C9CEF"/><stop offset="1" stop-color="#6C7DFF"/></linearGradient><linearGradient id="paint5_linear" x1="76.052" y1="74.527" x2="76.052" y2="78.145" gradientUnits="userSpaceOnUse"><stop stop-color="#8C9CEF"/><stop offset="1" stop-color="#6C7DFF"/></linearGradient><linearGradient id="paint6_linear" x1="85.555" y1="84.863" x2="85.555" y2="90.031" gradientUnits="userSpaceOnUse"><stop stop-color="#8C9CEF"/><stop offset="1" stop-color="#6C7DFF"/></linearGradient><linearGradient id="paint7_linear" x1="80.646" y1="74.527" x2="80.646" y2="78.145" gradientUnits="userSpaceOnUse"><stop stop-color="#8C9CEF"/><stop offset="1" stop-color="#6C7DFF"/></linearGradient><linearGradient id="paint8_linear" x1="85.296" y1="74.527" x2="85.296" y2="78.145" gradientUnits="userSpaceOnUse"><stop stop-color="#8C9CEF"/><stop offset="1" stop-color="#6C7DFF"/></linearGradient><linearGradient id="paint9_linear" x1="89.947" y1="74.527" x2="89.947" y2="78.145" gradientUnits="userSpaceOnUse"><stop stop-color="#8C9CEF"/><stop offset="1" stop-color="#6C7DFF"/></linearGradient><linearGradient id="paint10_linear" x1="94.599" y1="74.527" x2="94.599" y2="78.145" gradientUnits="userSpaceOnUse"><stop stop-color="#8C9CEF"/><stop offset="1" stop-color="#6C7DFF"/></linearGradient><linearGradient id="paint11_linear" x1="90.983" y1="68.846" x2="90.983" y2="71.427" gradientUnits="userSpaceOnUse"><stop stop-color="#8C9CEF"/><stop offset="1" stop-color="#6C7DFF"/></linearGradient><linearGradient id="paint12_linear" x1="89.689" y1="68.326" x2="89.689" y2="70.91" gradientUnits="userSpaceOnUse"><stop stop-color="#8C9CEF"/><stop offset="1" stop-color="#6C7DFF"/></linearGradient><linearGradient id="paint13_linear" x1="90.464" y1="68.326" x2="90.464" y2="69.36" gradientUnits="userSpaceOnUse"><stop stop-color="#8C9CEF"/><stop offset="1" stop-color="#6C7DFF"/></linearGradient><linearGradient id="paint14_linear" x1="85.555" y1="88.997" x2="85.555" y2="91.581" gradientUnits="userSpaceOnUse"><stop stop-color="#8C9CEF"/><stop offset="1" stop-color="#6C7DFF"/></linearGradient><linearGradient id="paint15_linear" x1="85.555" y1="69.876" x2="85.555" y2="81.762" gradientUnits="userSpaceOnUse"><stop stop-color="#8C9CEF"/><stop offset="1" stop-color="#6C7DFF"/></linearGradient><linearGradient id="paint16_linear" x1="85.555" y1="60.574" x2="85.555" y2="75.044" gradientUnits="userSpaceOnUse"><stop stop-color="#8C9CEF"/><stop offset="1" stop-color="#6C7DFF"/></linearGradient><linearGradient id="paint17_linear" x1="70.569" y1="67.809" x2="70.569" y2="68.843" gradientUnits="userSpaceOnUse"><stop stop-color="#8C9CEF"/><stop offset="1" stop-color="#6C7DFF"/></linearGradient><linearGradient id="paint18_linear" x1="100.542" y1="76.078" x2="100.542" y2="77.628" gradientUnits="userSpaceOnUse"><stop stop-color="#8C9CEF"/><stop offset="1" stop-color="#6C7DFF"/></linearGradient><linearGradient id="paint19_linear" x1="85.555" y1="80.728" x2="85.555" y2="85.896" gradientUnits="userSpaceOnUse"><stop stop-color="#8C9CEF"/><stop offset="1" stop-color="#6C7DFF"/></linearGradient><linearGradient id="paint20_linear" x1="161.923" y1="60.574" x2="161.923" y2="92.729" gradientUnits="userSpaceOnUse"><stop stop-color="#8C9CEF"/><stop offset="1" stop-color="#6C7DFF"/></linearGradient><linearGradient id="paint21_linear" x1="159.114" y1="84.612" x2="159.114" y2="87.85" gradientUnits="userSpaceOnUse"><stop stop-color="#8C9CEF"/><stop offset="1" stop-color="#6C7DFF"/></linearGradient><linearGradient id="paint22_linear" x1="164.718" y1="84.612" x2="164.718" y2="87.85" gradientUnits="userSpaceOnUse"><stop stop-color="#8C9CEF"/><stop offset="1" stop-color="#6C7DFF"/></linearGradient><linearGradient id="paint23_linear" x1="155.401" y1="81.455" x2="155.401" y2="85.224" gradientUnits="userSpaceOnUse"><stop stop-color="#8C9CEF"/><stop offset="1" stop-color="#6C7DFF"/></linearGradient><linearGradient id="paint24_linear" x1="154.92" y1="66.115" x2="154.92" y2="75.913" gradientUnits="userSpaceOnUse"><stop stop-color="#8C9CEF"/><stop offset="1" stop-color="#6C7DFF"/></linearGradient><linearGradient id="paint25_linear" x1="169.598" y1="66.115" x2="169.598" y2="75.913" gradientUnits="userSpaceOnUse"><stop stop-color="#8C9CEF"/><stop offset="1" stop-color="#6C7DFF"/></linearGradient><linearGradient id="paint26_linear" x1="159.332" y1="70.503" x2="159.332" y2="71.443" gradientUnits="userSpaceOnUse"><stop stop-color="#8C9CEF"/><stop offset="1" stop-color="#6C7DFF"/></linearGradient><linearGradient id="paint27_linear" x1="161.016" y1="70.502" x2="161.016" y2="71.442" gradientUnits="userSpaceOnUse"><stop stop-color="#8C9CEF"/><stop offset="1" stop-color="#6C7DFF"/></linearGradient><linearGradient id="paint28_linear" x1="162.738" y1="70.503" x2="162.738" y2="71.443" gradientUnits="userSpaceOnUse"><stop stop-color="#8C9CEF"/><stop offset="1" stop-color="#6C7DFF"/></linearGradient><linearGradient id="paint29_linear" x1="164.514" y1="70.502" x2="164.514" y2="71.442" gradientUnits="userSpaceOnUse"><stop stop-color="#8C9CEF"/><stop offset="1" stop-color="#6C7DFF"/></linearGradient><linearGradient id="paint30_linear" x1="155.108" y1="68.236" x2="155.108" y2="69.176" gradientUnits="userSpaceOnUse"><stop stop-color="#8C9CEF"/><stop offset="1" stop-color="#6C7DFF"/></linearGradient><linearGradient id="paint31_linear" x1="167.02" y1="82.87" x2="167.02" y2="83.81" gradientUnits="userSpaceOnUse"><stop stop-color="#8C9CEF"/><stop offset="1" stop-color="#6C7DFF"/></linearGradient><linearGradient id="paint32_linear" x1="169.843" y1="82.87" x2="169.843" y2="83.81" gradientUnits="userSpaceOnUse"><stop stop-color="#8C9CEF"/><stop offset="1" stop-color="#6C7DFF"/></linearGradient><linearGradient id="paint33_linear" x1="168.432" y1="81.456" x2="168.432" y2="82.397" gradientUnits="userSpaceOnUse"><stop stop-color="#8C9CEF"/><stop offset="1" stop-color="#6C7DFF"/></linearGradient><linearGradient id="paint34_linear" x1="168.432" y1="84.283" x2="168.432" y2="85.223" gradientUnits="userSpaceOnUse"><stop stop-color="#8C9CEF"/><stop offset="1" stop-color="#6C7DFF"/></linearGradient><clipPath id="clip0"><path fill="#fff" d="M71 0h31v31H71z"/></clipPath></defs></svg>