<svg width="1920" height="740" viewBox="0 0 1920 740" fill="none" xmlns="http://www.w3.org/2000/svg">
<path d="M0 0.106689C0 0.106689 70.4828 120.046 301.5 219.5C584.738 341.436 869.5 440.5 1261.5 440.5C1653.5 440.5 1920 0 1920 0V740H0V0.106689Z" fill="url(#paint0_linear)" fill-opacity="0.95"/>
<g opacity="0.1">
<path d="M1735 687C1739.41 689.56 1743.17 693.15 1748 695.07C1751.84 696.76 1756.13 697.93 1757.09 702.94C1748.66 698.027 1740.23 693.11 1731.78 688.19C1729.5 686.85 1727.25 685.44 1724.99 684.07C1716.99 678.82 1708.11 674.92 1700.09 669.62C1691.83 663 1682.09 658.9 1672.98 653.75C1649.79 640.61 1626.05 628.46 1601.98 616.98C1570.27 601.83 1538.46 586.86 1505.61 574.26C1500.5 572.26 1495.02 571.33 1490.13 568.74C1474.87 562.48 1459.29 557.13 1443.7 551.74C1396.58 535.609 1348.44 522.598 1299.61 512.79C1270.85 507.01 1241.88 502.637 1212.69 499.67C1194.01 497.77 1175.25 496.07 1156.41 496.31C1149.91 496.4 1143.5 495.09 1136.97 495.31C1108.97 496.06 1081.11 496.98 1053.28 500.08C1010.87 504.769 969.049 513.816 928.49 527.08C884.42 541.53 842.94 561.5 803.55 585.92C763.29 610.92 720.78 631 675.49 645.09C646.4 654.273 616.442 660.439 586.09 663.49C570.68 664.99 555.26 666.43 539.78 666.3C497.1 666.041 454.675 659.707 413.78 647.49C355.98 630.16 303.44 602.56 255.25 566.49C238.386 553.73 222.244 540.042 206.9 525.49C175.25 495.77 147.73 462.74 125.27 425.61C112.2 404.02 101.41 381.31 95.7501 356.48C95.0537 353.909 94.7158 351.254 94.7501 348.59C94.5301 347.02 95.4501 345.59 95.2301 344C94.9001 337.24 94.3501 330.41 96.1801 323.81C97.11 320.46 96.3901 315.92 101.4 314.64C102.67 314.32 102.12 312.64 102.18 311.54C102.36 308.29 101.45 304.94 102.96 301.79C105.96 306.64 104.33 311.87 104.24 316.97C99.24 328.14 99.95 339.65 102.05 351.3C105.28 369.21 112.23 385.76 120.41 401.85C136.52 433.55 157.26 462.01 180.91 488.46C217.27 529.384 259.718 564.462 306.76 592.46C357.12 622.33 410.9 643.1 468.76 653.23C500.11 658.71 531.76 660 563.36 658.35C622.91 655.24 679.63 640.11 733.82 615.21C758.302 603.839 782.079 591.006 805.02 576.78C843.821 552.948 885.285 533.75 928.56 519.58C963.717 508.042 999.87 499.81 1036.56 494.99C1057.49 492.22 1078.56 490.18 1099.68 489.32C1119.01 488.54 1138.33 488.27 1157.61 488.84C1180.7 489.54 1203.75 491.54 1226.75 494.25C1259.36 498.1 1291.67 503.64 1323.75 510.63C1354.68 517.37 1385.19 525.77 1415.44 535.13C1438.5 542.28 1461.28 550.23 1483.91 558.63C1485.14 559.152 1486.42 559.521 1487.74 559.73C1504.61 564.95 1520.87 571.73 1536.91 579.09C1558.85 589.09 1580.76 599.23 1602.22 610.24C1638.32 628.77 1674.08 647.95 1708.4 669.71C1717.26 675.39 1726 681.45 1735 687Z" fill="url(#paint1_linear)"/>
<path d="M1701 669C1707.5 674.09 1715.22 677.12 1722.12 681.53C1723.22 682.23 1724.56 682.62 1724.98 684.06C1716.31 680.59 1708.53 675.41 1700.34 671.01C1665.61 652.34 1630.13 635.25 1594.03 619.39C1549.29 599.743 1503.56 582.43 1457.03 567.52C1418.17 555.046 1378.7 544.595 1338.76 536.21C1320.45 532.38 1302.03 528.97 1283.54 526.21C1265.68 523.603 1247.75 521.45 1229.76 519.75C1197.33 516.564 1164.74 515.338 1132.16 516.08C1113.43 516.55 1094.73 517.88 1076.05 519.73C1040.58 523.261 1005.46 529.706 971.05 539C942.684 546.765 914.926 556.602 888 568.43C851.54 584.26 817.95 605.03 784.73 626.65C750.362 648.921 713.543 667.158 675 681C647.992 690.71 620.163 697.96 591.85 702.66C578.33 704.94 564.62 706.33 550.85 707.28C536.36 708.28 521.9 708.22 507.44 707.94C472.3 707.27 437.82 701.72 403.96 692.41C371.071 683.337 339.239 670.797 309 655C276.261 637.969 245.336 617.658 216.7 594.38C197.819 579.093 180.017 562.52 163.42 544.78C135.52 514.88 110.86 482.55 93.6799 445.14C85.1799 426.58 78.5499 407.47 79.9999 386.53C80.3317 382.559 81.2065 378.653 82.5999 374.92C82.9999 373.78 83.7299 372.75 85.1999 373.24C85.4895 373.29 85.7638 373.406 86.0016 373.578C86.2394 373.751 86.4344 373.976 86.5716 374.236C86.7087 374.496 86.7844 374.783 86.7928 375.077C86.8012 375.371 86.7421 375.663 86.6199 375.93C80.1099 396.35 86.3299 415.34 93.6899 433.98C104.69 461.9 121.32 486.52 139.59 510.13C153.794 528.383 169.341 545.55 186.1 561.49C217.025 591.206 251.365 617.151 288.4 638.78C320.118 657.397 353.839 672.369 388.92 683.41C413.6 691.156 438.899 696.767 464.54 700.18C487.928 703.323 511.532 704.564 535.12 703.89C551.686 703.31 568.204 701.764 584.59 699.26C614.302 694.845 643.516 687.558 671.82 677.5C711.647 663.333 749.642 644.467 785 621.3C813.85 602.44 843.12 584.4 874.42 569.83C905.026 555.624 936.762 543.993 969.3 535.06C989.918 529.402 1010.81 524.802 1031.9 521.28C1048.9 518.42 1066.03 516.66 1083.17 514.85C1115.68 511.41 1148.29 511.47 1180.87 512.26C1197.4 512.66 1213.96 513.97 1230.48 515.67C1248.12 517.49 1265.72 519.49 1283.25 522.07C1300.94 524.68 1318.53 527.9 1336.06 531.45C1385.4 541.45 1433.75 555.05 1481.48 570.97C1483.07 571.41 1484.68 571.764 1486.3 572.03C1488.98 570.66 1491.52 571.8 1493.96 572.67C1522.52 582.85 1550.31 594.92 1578.06 607.07C1603.69 618.29 1628.99 630.2 1653.75 643.2C1669.66 651.54 1685.48 660 1701 669Z" fill="url(#paint2_linear)"/>
<path d="M1701 669C1692.72 666.31 1685.59 661.31 1678 657.23C1654.17 644.337 1629.98 632.197 1605.43 620.81C1578.2 608.16 1550.69 596.08 1522.78 585C1510.78 580.24 1498.99 574.83 1486.3 572C1478.3 567.76 1469.58 565.6 1461.14 562.71C1415.28 546.997 1368.49 534.155 1321.03 524.26C1294.56 518.74 1267.9 514.407 1241.03 511.26C1223.74 509.26 1206.39 507.55 1188.95 506.69C1168.33 505.69 1147.73 504.52 1127.1 505.14C1097.39 505.964 1067.76 508.481 1038.34 512.68C972.427 522.065 908.547 542.401 849.34 572.85C826.66 584.51 805.5 598.66 783.69 611.76C737.69 639.4 688.92 660.76 636.64 673.48C612.153 679.582 587.177 683.514 562 685.23C543.892 686.451 525.729 686.638 507.6 685.79C461.933 683.387 416.915 673.918 374.15 657.72C337.833 644.076 303.192 626.331 270.9 604.83C245.43 587.846 221.411 568.78 199.09 547.83C170.74 521.36 145.56 492.28 124.35 459.83C109 436.39 96 411.72 89.6 384.09C86.89 372.34 85.78 360.54 89.18 348.63C90.13 345.28 91.76 343.75 95.18 344.02C96.44 345.19 95.96 346.69 95.96 348.1C91.89 357.01 92.96 366.4 93.96 375.59C95.59 390.85 101.4 404.92 107.89 418.68C123.37 451.5 144.31 480.68 168.15 507.85C199.326 543.301 235.115 574.412 274.56 600.35C327 635 383.66 659.68 445.35 672.28C464.309 675.996 483.484 678.511 502.76 679.81C514.43 680.68 526.06 680.57 537.76 680.59C568.76 680.59 599.21 676.39 629.32 669.46C690.75 655.33 747 629 799.81 595.09C838.531 570.192 880.059 549.958 923.53 534.81C962.27 521.307 1002.27 511.726 1042.92 506.21C1064.01 503.34 1085.2 501.3 1106.54 500.38C1122.7 499.68 1138.84 499.67 1154.99 499.71C1172.45 499.71 1189.88 501.14 1207.31 502.39C1232.25 504.18 1256.96 507.77 1281.66 511.49C1317.66 516.91 1352.99 525.17 1388.1 534.49C1418.31 542.49 1447.9 552.6 1477.38 562.96C1482.07 564.6 1486.66 566.51 1491.38 567.96C1508.78 573.66 1525.7 580.62 1542.46 587.96C1554.62 593.29 1566.78 598.62 1578.74 604.38C1600.31 614.76 1621.88 625.16 1643.16 636.13C1661.16 645.4 1678.71 655.44 1696.4 665.26C1698.08 666.24 1700.11 667 1701 669Z" fill="url(#paint3_linear)"/>
<path d="M103 318.08C103 312.66 102.973 307.237 102.92 301.81C102.78 297.11 104.21 292.76 105.78 288.42C106.53 286.33 107.67 285.42 109.83 286.67C111.83 287.88 112.2 289.67 111.54 291.75C108.77 294.64 108.72 298.34 108.43 301.99C107.04 319.37 111.29 335.73 117.43 351.74C131.52 388.6 153.11 420.95 177.92 451.27C208.813 488.921 244.705 522.175 284.6 550.11C305.56 564.947 327.624 578.159 350.6 589.63C392.35 610.39 436.21 624.92 482.31 632.25C509.66 636.6 537.25 638.82 564.93 637.51C604.409 635.718 643.505 628.951 681.29 617.37C713.26 607.415 744.258 594.572 773.9 579C790.16 570.54 805.77 560.9 821.81 552C848.175 537.327 875.657 524.757 904 514.41C939.247 501.566 975.643 492.126 1012.69 486.22C1032.09 483.15 1051.59 480.95 1071.2 479.39C1097.49 477.29 1123.79 477.25 1150.07 477.8C1174.85 478.31 1199.55 480.8 1224.16 483.9C1265.47 489.255 1306.4 497.231 1346.7 507.78C1392.31 519.659 1437.15 534.276 1481 551.55C1483.14 552.477 1485.35 553.21 1487.62 553.74C1503.5 559.67 1519.37 565.63 1534.7 572.93C1559.96 584.93 1584.96 597.453 1609.7 610.5C1634.7 623.7 1659.14 637.97 1683.22 652.82C1691.84 658.14 1700.37 663.62 1708.95 669C1718.04 674.36 1726.73 680.376 1734.95 687C1727.74 684.63 1722.23 679.34 1715.74 675.69C1701.88 667.9 1688.63 659.04 1674.87 651.05C1647.73 635.27 1620.12 620.29 1591.87 606.61C1564.87 593.54 1538 580.11 1510.07 569.04C1502.93 566.21 1495.68 563.68 1488.48 561.04C1467.59 553.33 1446.76 545.49 1425.6 538.55C1378.07 522.98 1330.02 509.39 1280.83 500.12C1250.37 494.37 1219.73 490.01 1188.83 487.22C1159.31 484.535 1129.65 483.657 1100.02 484.59C1081.1 485.197 1062.2 486.677 1043.31 489.03C1015.84 492.298 988.611 497.308 961.78 504.03C908.64 517.58 858.31 537.96 811.23 566.17C771.62 589.9 730.12 609.47 686.01 623.3C658.176 632.026 629.584 638.116 600.61 641.49C578.116 644.206 555.442 645.142 532.8 644.29C505.328 643.21 478.018 639.551 451.23 633.36C401.62 621.79 355.23 602.47 311.67 576.2C283.137 558.973 256.25 539.156 231.35 517C191.81 481.9 157.73 442.3 131.1 396.53C119 375.73 108.89 354 103.67 330.3C102.79 326.3 101.31 322.26 103 318.08Z" fill="url(#paint4_linear)"/>
<path d="M1709 669C1702.58 666.59 1697.19 662.35 1691.41 658.84C1670.98 646.41 1650.41 634.16 1629.41 622.69C1607.67 610.82 1585.78 599.21 1563.53 588.34C1545.79 579.67 1528.29 570.43 1509.77 563.51C1502.61 560.83 1495.77 557.41 1488.51 555.02C1463.73 545.38 1438.9 535.87 1413.7 527.37C1368.7 512.19 1323.02 499.15 1276.38 489.84C1247.65 483.991 1218.64 479.592 1189.47 476.66C1169.28 474.66 1149.02 473.34 1128.68 473.22C1115.37 473.13 1102.06 473.15 1088.79 473.5C1065.16 474.286 1041.6 476.396 1018.21 479.82C966.987 487.064 916.957 501.097 869.44 521.55C848.507 530.672 828.111 540.979 808.35 552.42C758.48 580.78 705.88 602.21 649.51 613.7C625.343 618.549 600.836 621.511 576.21 622.56C528.27 624.77 481.49 618.56 435.58 605.25C395.17 593.59 357.24 576.18 321.21 554.52C292.815 537.344 266.059 517.594 241.28 495.52C217.082 474.068 194.93 450.413 175.11 424.86C156.54 400.97 140.11 375.77 127.11 348.35C119.49 332.17 113.11 315.57 110.17 297.8C109.86 295.85 109.26 293.8 110.84 292.1C111.3 290.1 109.96 288.5 109.7 286.66C110.05 279.37 109.18 271.94 111.7 264.88C112.79 261.82 112.54 258.04 116.55 256.39C117.96 255.82 116.75 253.65 116.98 252.22C117.31 250.12 116.65 247.88 117.86 245.9C117.86 251.233 117.86 256.6 117.86 262C113.18 277.25 115.31 292.32 119.27 307.27C126.27 333.63 138.36 357.7 152.7 380.7C169.491 407.36 188.817 432.336 210.41 455.28C244.543 491.887 283.58 523.591 326.41 549.49C357.952 568.567 391.596 583.929 426.67 595.27C456.89 605.12 487.99 610.83 519.51 614.48C533.251 615.918 547.066 616.519 560.88 616.28C591.206 616.045 621.429 612.694 651.07 606.28C694.84 596.86 736.46 581.46 776.49 561.63C798 551 818.14 538.25 839.52 527.71C887.247 504.128 937.978 487.191 990.3 477.37C1016.49 472.531 1042.95 469.229 1069.53 467.48C1085.3 466.38 1101.12 465.4 1116.86 465.86C1139.45 466.52 1162.04 467.12 1184.61 469.26C1231.05 473.728 1277.09 481.663 1322.34 493C1366.8 503.985 1410.48 517.923 1453.09 534.72C1467.3 540.34 1481.35 546.37 1495.57 551.99C1513.64 559.4 1531.57 566.99 1549.01 575.99C1592.31 598.22 1635.01 621.45 1676.22 647.49C1686.32 653.88 1696.68 659.86 1706.5 666.7C1707.46 667.36 1708.54 667.82 1709 669Z" fill="url(#paint5_linear)"/>
<path d="M1733 682H1735C1741.83 687.68 1748.79 693.21 1755.42 699.12C1757.64 701.12 1758.99 700.75 1760.71 698.98C1760.3 700.98 1760.16 703.34 1757.07 702.98C1755.07 699.23 1750.48 698.35 1747.98 695.11C1744.75 690.9 1740.09 688.39 1736.06 685.11C1734.91 684.16 1733.65 683.4 1733 682Z" fill="url(#paint6_linear)"/>
<path fill-rule="evenodd" clip-rule="evenodd" d="M118.307 242.889C118.214 243.898 118.12 244.908 118 245.91C117.6 248.142 117.534 250.405 117.468 252.665C117.385 255.489 117.303 258.306 116.57 261.05C117.52 276.56 122.38 291.12 127.84 305.45C138.36 333.07 153.17 358.31 170 382.45C196.89 421.1 228.82 455.15 264.73 485.54C291.448 508.181 320.408 528.034 351.16 544.79C383.48 562.38 417.2 576.59 452.79 586.11C481.34 593.75 510.29 598.91 539.88 600.59C565.643 602.201 591.495 601.669 617.17 599C643.533 596.087 669.602 590.952 695.1 583.65C733.9 572.528 771.349 557.141 806.76 537.77C837.84 520.86 869.65 505.64 903.19 494.18C940.887 481.266 979.77 472.115 1019.27 466.86C1039.43 464.18 1059.64 462.21 1079.9 461.54C1115.53 460.207 1151.2 461.544 1186.63 465.54C1224.55 469.862 1262.16 476.508 1299.26 485.44C1349.26 497.748 1398.37 513.41 1446.26 532.32C1462.37 538.61 1478.5 544.96 1494.06 552.61C1498.01 554.507 1502.07 556.134 1506.14 557.759C1509.01 558.908 1511.88 560.057 1514.71 561.3C1529.46 567.81 1543.91 574.98 1558.3 582.3C1589.45 598.17 1620.1 614.92 1650.04 632.92C1652.94 634.664 1655.84 636.401 1658.74 638.139C1675.53 648.189 1692.32 658.242 1708.34 669.53C1717.19 675.39 1725.97 681.35 1734.47 687.7C1735.74 688.491 1736.94 689.405 1738.13 690.319C1741.07 692.559 1744.01 694.798 1747.97 695.21C1748.75 693.305 1747.58 692.431 1746.44 691.578C1746.17 691.378 1745.91 691.18 1745.67 690.97C1743.59 689.118 1741.37 687.454 1739.15 685.79C1737.34 684.427 1735.52 683.064 1733.78 681.6C1733.41 681.297 1733.01 681.023 1732.6 680.78C1728.29 678.015 1724.2 674.94 1720.1 671.864C1717.94 670.245 1715.79 668.625 1713.6 667.05C1672.49 637.48 1629.69 610.58 1585.78 585.38C1582.46 583.471 1579.09 581.624 1575.73 579.777C1570.63 576.979 1565.54 574.181 1560.58 571.17C1548.42 563.632 1535.72 557.014 1522.58 551.37C1518.95 550.98 1515.9 549.283 1512.86 547.589C1511.45 546.805 1510.04 546.022 1508.58 545.37C1508.17 545.128 1507.74 544.908 1507.31 544.71C1503.51 542.964 1499.69 541.282 1495.86 539.6C1489.43 536.773 1483 533.945 1476.69 530.81C1448.22 518.11 1419.29 506.64 1389.89 496.4C1331.25 475.95 1271.48 459.95 1209.89 450.95C1182.68 446.98 1155.39 443.71 1127.95 442.86C1105.35 442.16 1082.68 442.04 1060.02 443.38C1040.9 444.52 1021.82 446.17 1002.9 449C941.65 458.18 882.93 475.7 827.58 503.78C790.24 522.7 752.67 540.94 712.38 553C670.409 565.683 626.906 572.593 583.07 573.54C565.58 573.89 548.15 572.57 530.75 570.74C495.59 566.972 461.043 558.801 427.92 546.42C389.935 532.264 353.86 513.433 320.53 490.36C295.435 473.018 271.827 453.618 249.95 432.36C226.233 409.399 204.799 384.191 185.95 357.09C165.28 327.41 147.52 296.21 136.87 261.41C131.16 242.73 127.86 223.82 133.41 204.41C133.41 204.15 133.415 203.889 133.42 203.627C133.455 201.848 133.489 200.07 131.92 198.71C129.969 198.828 129.521 200.245 129.094 201.6C128.981 201.959 128.869 202.315 128.73 202.64C126.019 209.302 124.706 216.45 124.87 223.64C124.87 223.91 124.882 224.206 124.894 224.513C124.939 225.683 124.991 226.992 124.42 227.46C119.355 231.609 118.832 237.24 118.307 242.889ZM125.427 236.586C125.286 235.765 125.144 234.94 125 234.11C121.44 241.81 120.67 254.3 122.45 265.49C126.99 293.69 138.37 319.31 152.3 343.87C183.57 399.02 224.83 445.72 273.83 485.67C345.57 544.23 426.42 582.17 519.05 593.23C560.613 598.129 602.67 596.913 643.88 589.62C702.63 579.41 757.7 558.68 809.7 529.81C892.91 483.61 982.34 460.27 1077.07 456.27C1104.53 455.175 1132.04 455.656 1159.45 457.71C1204.74 461.137 1249.7 468.099 1293.91 478.53C1361.35 494.23 1426.43 516.88 1489.91 544.3C1490.24 544.443 1490.56 544.635 1490.89 544.83C1491.98 545.481 1493.17 546.185 1494.91 545.37C1494.34 545.084 1493.81 544.811 1493.3 544.551C1492.36 544.066 1491.5 543.627 1490.63 543.23C1436.48 518.69 1381.01 497.71 1323.78 481.49C1256.27 462.36 1187.58 450.44 1117.37 448.26C1079.25 447.1 1041.1 449.305 1003.37 454.85C942.98 463.67 885.28 481.17 830.74 508.55C829.343 509.251 827.947 509.952 826.55 510.654C798.506 524.739 770.506 538.801 740.91 549.47C674.56 573.4 606.44 583.96 535.91 577.15C485.946 572.409 437.178 559.066 391.76 537.71C299.92 494.59 226.71 429.84 171.02 345.23C153.48 318.59 139.1 290.3 130.22 259.47C128.098 252.108 126.799 244.557 125.427 236.586Z" fill="url(#paint7_linear)"/>
<path d="M1476.89 532.12L1477.89 531.12C1488.17 535.59 1498.58 539.78 1508.01 545.99C1497.3 542.17 1487.09 537.16 1476.89 532.12Z" fill="url(#paint8_linear)"/>
<path d="M1508 546C1513.24 546.7 1517.25 550.29 1522 552C1516.55 551.86 1512.33 548.76 1508 546Z" fill="url(#paint9_linear)"/>
<path d="M1506.49 551.41C1510.31 551.6 1513.28 553.8 1516.4 555.64C1512.62 555.34 1509.68 553.08 1506.49 551.41Z" fill="url(#paint10_linear)"/>
</g>
<defs>
<linearGradient id="paint0_linear" x1="960" y1="-369.5" x2="960" y2="446" gradientUnits="userSpaceOnUse">
<stop stop-color="#5C70CF"/>
<stop offset="0.955904" stop-color="#3F509F"/>
</linearGradient>
<linearGradient id="paint1_linear" x1="925.903" y1="490.685" x2="652.695" y2="763.128" gradientUnits="userSpaceOnUse">
<stop stop-color="#A9D8E2" stop-opacity="0.304851"/>
<stop offset="0.477166" stop-color="#7B98BF" stop-opacity="0.123907"/>
<stop offset="1" stop-color="#A9D8E2"/>
</linearGradient>
<linearGradient id="paint2_linear" x1="902.39" y1="533.671" x2="595.202" y2="792.162" gradientUnits="userSpaceOnUse">
<stop stop-color="#A9D8E2" stop-opacity="0.304851"/>
<stop offset="0.477166" stop-color="#7B98BF" stop-opacity="0.123907"/>
<stop offset="1" stop-color="#A9D8E2"/>
</linearGradient>
<linearGradient id="paint3_linear" x1="894.032" y1="507.45" x2="601.462" y2="763.888" gradientUnits="userSpaceOnUse">
<stop stop-color="#A9D8E2" stop-opacity="0.304851"/>
<stop offset="0.477166" stop-color="#7B98BF" stop-opacity="0.123907"/>
<stop offset="1" stop-color="#A9D8E2"/>
</linearGradient>
<linearGradient id="paint4_linear" x1="918.589" y1="474.465" x2="653.864" y2="743.076" gradientUnits="userSpaceOnUse">
<stop stop-color="#A9D8E2" stop-opacity="0.304851"/>
<stop offset="0.477166" stop-color="#7B98BF" stop-opacity="0.123907"/>
<stop offset="1" stop-color="#A9D8E2"/>
</linearGradient>
<linearGradient id="paint5_linear" x1="909.35" y1="442.644" x2="664.737" y2="710.066" gradientUnits="userSpaceOnUse">
<stop stop-color="#A9D8E2" stop-opacity="0.304851"/>
<stop offset="0.477166" stop-color="#7B98BF" stop-opacity="0.123907"/>
<stop offset="1" stop-color="#A9D8E2"/>
</linearGradient>
<linearGradient id="paint6_linear" x1="1746.86" y1="686.463" x2="1741.58" y2="702.999" gradientUnits="userSpaceOnUse">
<stop stop-color="#A9D8E2" stop-opacity="0.304851"/>
<stop offset="0.477166" stop-color="#7B98BF" stop-opacity="0.123907"/>
<stop offset="1" stop-color="#A9D8E2"/>
</linearGradient>
<linearGradient id="paint7_linear" x1="932.397" y1="423.974" x2="707.866" y2="706.313" gradientUnits="userSpaceOnUse">
<stop stop-color="#A9D8E2" stop-opacity="0.304851"/>
<stop offset="0.477166" stop-color="#7B98BF" stop-opacity="0.123907"/>
<stop offset="1" stop-color="#A9D8E2"/>
</linearGradient>
<linearGradient id="paint8_linear" x1="1492.45" y1="536.857" x2="1488.73" y2="544.203" gradientUnits="userSpaceOnUse">
<stop stop-color="#A9D8E2" stop-opacity="0.304851"/>
<stop offset="0.477166" stop-color="#7B98BF" stop-opacity="0.123907"/>
<stop offset="1" stop-color="#A9D8E2"/>
</linearGradient>
<linearGradient id="paint9_linear" x1="1515" y1="548.449" x2="1513.35" y2="551.376" gradientUnits="userSpaceOnUse">
<stop stop-color="#A9D8E2" stop-opacity="0.304851"/>
<stop offset="0.477166" stop-color="#7B98BF" stop-opacity="0.123907"/>
<stop offset="1" stop-color="#A9D8E2"/>
</linearGradient>
<linearGradient id="paint10_linear" x1="1511.45" y1="553.14" x2="1510.27" y2="555.204" gradientUnits="userSpaceOnUse">
<stop stop-color="#A9D8E2" stop-opacity="0.304851"/>
<stop offset="0.477166" stop-color="#7B98BF" stop-opacity="0.123907"/>
<stop offset="1" stop-color="#A9D8E2"/>
</linearGradient>
</defs>
</svg>
