<svg xmlns="http://www.w3.org/2000/svg" viewBox="0 0 120 120"><path d="M21.11 41.34h30.83v4H21.11zm0 8.55h30.83v4H21.11zm0 8.59h30.83v4H21.11zm-6.87-40.47c1.1 0 2-.89 2-2s-.89-2-2-2-2 .89-2 2 .9 2 2 2zm6.32 0c1.1 0 2-.89 2-2s-.89-2-2-2-2 .89-2 2 .89 2 2 2zm6.22 0c1.1 0 2-.89 2-2s-.89-2-2-2a2 2 0 100 4zm41.77 29.12h.02c.15.96.98 1.68 1.97 1.68 1.1 0 2-.9 2-2.04v-.26c.14-5.62 4.82-10.19 10.44-10.19 5.64 0 10.33 4.59 10.44 10.23v.26c0 .03 0 .05.01.11l-.01.21h.03c.15.96.99 1.68 1.97 1.68s1.81-.72 1.97-1.68h.03v-.36c0-7.97-6.48-14.45-14.45-14.45-7.97 0-14.45 6.48-14.45 14.45 0 .03 0 .07.01.1l.02.26z"/><path d="M111.33 101.89c1.28-1.23 3.02-2.92 4.04-4.6 1.08-1.79 1.6-3.77 1.6-6.04V70c0-3.88-3.15-7.04-7.02-7.04h-.01V17.21c0-6.07-4.93-11-11-11h-83.6c-6.07 0-11 4.93-11 11v55.15c0 6.07 4.93 11 11 11h47.05c1.33 3.06 2.8 6.21 4.05 8.25 1.84 3.02 6.02 7.59 8.53 9.67.77.63.91 1.37.94 1.6H73.2c-1.41 0-2.55 1.14-2.55 2.55v7.15c0 1.41 1.14 2.55 2.55 2.55h40.1c1.41 0 2.55-1.14 2.55-2.55v-7.14c0-1.41-1.14-2.55-2.55-2.55h-2.39c0-.25 0-.41.17-.69.05-.09.25-.31.25-.31zM15.34 10.21h83.6c3.86 0 7 3.14 7 7v4H8.34v-4c0-3.86 3.14-7 7-7zm0 69.15c-3.86 0-7-3.14-7-7V25.21h97.6v35.85c-1.27-1.3-3.03-2.12-4.99-2.12-1.22 0-2.37.31-3.37.87a7.01 7.01 0 00-7.64-2.57V47c0-3.88-3.15-7.04-7.02-7.04-3.87 0-7.02 3.16-7.02 7.04v25.52c-.01.81-.07 1.51-.15 2.05l-4.36-6.19-.19-.27c-1.37-1.97-3.27-2.72-3.27-2.72-.82-.33-1.71-.51-2.63-.51-3.4 0-6.24 2.43-6.88 5.65 0 0-.45 1.79.29 3.81.03.07.11.28.11.28.3.77.99 2.57 1.88 4.75H15.34zm96.44 27.59v4.1H74.72v-4.1h37.06zm-3.65-7.53c-1.12 1.09-1.21 2.97-1.22 3.43v.04h-27c0-.41-.12-2.81-2.39-4.69-2.27-1.88-6.13-6.15-7.66-8.66-.94-1.54-2.04-3.81-3.1-6.17-.6-1.34-1.19-2.71-1.72-4-1.24-2.98-2.23-5.54-2.5-6.24a.488.488 0 01-.03-.07c-.03-.09-.05-.13-.05-.13h.01c-.11-.31-.18-.65-.18-1 0-1.68 1.35-3.04 3.02-3.04.98 0 1.85.48 2.4 1.22h.01l.08.11c.01.01.02.02.02.03l6.09 8.66 1.7 2.41s.04-.02.09-.06c.01-.01.01-.01.03-.02.04-.03.09-.06.16-.1.03-.02.05-.04.08-.06.08-.05.17-.12.27-.19.01-.01.03-.02.04-.03.16-.12.34-.27.53-.44.02-.02.04-.04.06-.05.13-.12.26-.25.4-.39.06-.06.11-.12.17-.18.12-.13.24-.27.36-.41l.01-.01c.09-.11.19-.22.28-.34.33-.43.66-.93.96-1.5.74-1.4.85-3.92.86-4.95V47c0-1.68 1.35-3.04 3.02-3.04s3.02 1.36 3.02 3.04v23.5c0 .82.67 1.49 1.49 1.49s1.49-.67 1.49-1.49V64c0-1.68 1.35-3.04 3.02-3.04s3.02 1.36 3.02 3.04v7.43c0 .82.67 1.49 1.49 1.49s1.49-.67 1.49-1.49v-5.44c0-1.68 1.35-3.04 3.02-3.04s3.02 1.36 3.02 3.04v7.43h.01v.02c0 .82.67 1.49 1.49 1.49s1.49-.67 1.49-1.49c0-.06-.01-.12-.02-.18V70c0-.21.02-.41.06-.61.02-.1.06-.19.09-.28.03-.1.05-.19.09-.28.06-.14.13-.26.21-.39.02-.04.04-.09.07-.13.1-.15.22-.29.34-.42.01-.01.01-.02.02-.03a2.96 2.96 0 012.12-.89h.01c1.67 0 3.02 1.36 3.02 3.04v21.26c0 1.78-.46 3.03-1.03 3.97-.87 1.39-2.78 3.15-3.83 4.18z"/></svg>