<svg xmlns="http://www.w3.org/2000/svg" viewBox="0 0 120 120"><path d="M100.6 103.85v.05a2 2 0 104 0v-.05h.01V37.87h-.01v-.03a2 2 0 10-4 0v66.01zM68.8 33.19c.25.83 1.01 1.45 1.92 1.45a2 2 0 002-2c0-.19-.03-.37-.08-.54h.01L65.43 6.73h-.01c-.23-.86-1-1.5-1.93-1.5-1.11 0-2.01.9-2.01 2.01 0 .23.05.44.11.64l7.21 25.31zM41.14 20.45L58.2 40.3a2 2 0 001.46.64 2 2 0 002-2c0-.47-.17-.89-.44-1.24l-.15-.17-.01-.01-16.9-19.67c-.37-.43-.91-.7-1.51-.7-1.11 0-2.01.9-2.01 2.01.02.49.2.94.5 1.29zm-8.36 77.47c7.07 0 13.3-4.39 15.88-10.7.16-.39.53-.65.95-.65h10.4v-.02c3.83-.03 6.95-3.15 6.95-6.99 0-3.84-3.11-6.97-6.95-6.99v-.01H39.12a2 2 0 100 4h20.84c1.65 0 3 1.34 3 3 0 1.65-1.34 3-3 3v.02H48c-1.21 0-2.25.81-2.61 1.97-.18.59-.43 1.28-.8 2.01-2.17 4.39-6.71 7.37-11.82 7.37h-8.9a2 2 0 100 4h8.91z"/><path d="M112.01 33.31c-.02-.04-.04-.09-.06-.13-.11-.22-.24-.43-.37-.64-.04-.07-.08-.14-.13-.21-.12-.19-.25-.37-.39-.55-.06-.08-.12-.17-.19-.25-.13-.16-.27-.32-.41-.48l-.24-.27c-.14-.14-.28-.28-.42-.41-.1-.09-.19-.18-.29-.26-.14-.12-.29-.24-.44-.36-.11-.09-.22-.17-.34-.25-.15-.11-.3-.21-.45-.31-.13-.08-.26-.16-.39-.23-.15-.09-.3-.17-.45-.25-.14-.07-.29-.14-.44-.21-.15-.07-.3-.14-.46-.2l-.48-.18c-.15-.05-.3-.11-.45-.15-.18-.05-.36-.1-.54-.14-.14-.03-.29-.07-.43-.1-.21-.04-.42-.07-.64-.1-.13-.02-.25-.04-.37-.05-.33-.03-.67-.05-1.01-.05h-.06c-.34 0-.68.02-1.01.05-.13.01-.25.04-.37.05-.21.03-.43.06-.64.1-.15.03-.29.07-.43.1-.18.04-.37.09-.54.14l-.45.15c-.16.06-.33.11-.48.18-.15.06-.3.13-.46.2-.15.07-.29.14-.44.21-.15.08-.3.17-.45.25-.13.08-.26.15-.39.23-.15.1-.3.2-.45.31l-.34.25c-.15.12-.29.24-.44.36l-.29.26c-.14.14-.28.27-.42.41l-.24.27c-.14.16-.28.31-.41.48-.06.08-.12.17-.19.25-.13.18-.27.36-.39.55-.05.07-.09.14-.13.21-.13.21-.25.42-.37.64-.02.04-.04.09-.06.13-.73 1.43-1.15 3.04-1.15 4.76v2.63a2 2 0 004 0h.01v-2.63a6.56 6.56 0 016.55-6.55 6.56 6.56 0 016.55 6.55v65.77c0 .13-.01.25-.02.37-.09 1.5-.68 2.87-1.61 3.94l-.02.02c-.13.14-.26.28-.39.41l-.05.05c-.13.12-.26.24-.4.35l-.09.06c-.13.1-.27.2-.4.29-.04.03-.08.05-.12.08-.13.08-.26.16-.4.23-.05.03-.11.05-.17.08-.13.06-.26.13-.39.18-.07.03-.14.05-.22.08-.12.05-.24.09-.37.13-.09.03-.18.05-.27.07-.11.03-.23.06-.35.09-.11.02-.23.04-.34.05-.1.01-.19.03-.29.04-.2.02-.4.03-.6.03h-.12c-.2 0-.4-.01-.6-.03-.1-.01-.2-.03-.29-.04-.11-.02-.23-.03-.34-.05-.12-.02-.23-.06-.35-.09a2.68 2.68 0 01-.27-.07c-.13-.04-.25-.09-.37-.13-.07-.03-.15-.05-.22-.08-.13-.05-.26-.12-.39-.18-.06-.03-.11-.05-.17-.08-.14-.07-.27-.15-.4-.23-.04-.03-.08-.05-.12-.08-.14-.09-.27-.19-.4-.29l-.09-.06c-.14-.11-.27-.23-.4-.35l-.05-.05c-.14-.13-.27-.27-.39-.41l-.02-.02a6.572 6.572 0 01-1.61-3.94c-.01-.12-.02-.25-.02-.37v-2.87a2 2 0 10-4 0v2.86c0 .94.13 1.84.37 2.71.03.11.05.23.09.34.05.17.12.34.18.51.05.13.09.27.15.4l.21.48c.06.13.12.26.19.39.08.15.16.3.25.45.07.13.15.25.23.38.09.14.18.28.28.42l.27.36c.1.13.2.26.31.39.1.12.21.24.32.35.11.11.21.23.32.34.13.13.27.25.41.38.15.13.3.26.46.39.18.14.37.28.56.42.11.08.23.15.35.22.16.1.31.2.47.29.12.07.25.13.38.2.16.08.32.16.49.24.13.06.26.11.39.16.17.07.34.13.52.19.13.04.27.09.4.13l.56.15.39.09c.21.04.43.07.64.1.11.01.23.03.34.05.33.03.66.05 1 .05h.02c.34 0 .67-.02 1-.05.12-.01.23-.03.34-.05.22-.03.43-.06.64-.1l.39-.09c.19-.04.38-.09.56-.15.14-.04.27-.08.4-.13.18-.06.35-.12.52-.19.13-.05.26-.11.39-.16.17-.07.33-.15.49-.24.13-.06.25-.13.38-.2.16-.09.32-.19.47-.29.12-.07.23-.14.35-.22.19-.13.37-.27.56-.42.16-.12.31-.25.46-.39a7.374 7.374 0 00.73-.72c.11-.12.22-.23.32-.35.11-.13.21-.25.31-.39l.27-.36c.1-.14.19-.28.28-.42.08-.12.16-.25.23-.38.09-.15.17-.3.25-.45.07-.13.13-.26.19-.39.07-.16.15-.32.21-.48.05-.13.1-.27.15-.4.06-.17.13-.34.18-.51l.09-.34c.23-.87.36-1.77.36-2.71V38.06c.08-1.71-.34-3.32-1.07-4.75z"/><path d="M86.1 74.99c2.95-.01 5.26-.74 6.88-2.16 1.63-1.43 2.45-3.48 2.45-6.1 0-2.5-.86-4.51-2.55-5.98-1.68-1.46-3.98-2.2-6.84-2.2h-7.96a1.97 1.97 0 00-1.95 1.97v11.15H74c-.89.03-1.6.76-1.6 1.66 0 .9.71 1.62 1.6 1.66V75h2.13v1.96h-2.09c-.91.02-1.63.75-1.63 1.66 0 .91.73 1.64 1.63 1.66h2.1v3.07c.04 1.05.9 1.9 1.96 1.9s1.92-.85 1.96-1.9h.01v-3.07h4.39c.91-.01 1.65-.75 1.65-1.66 0-.92-.74-1.66-1.66-1.66h-4.37V75h6.02zm-6.03-13.11h6.08c1.64.01 2.96.47 3.91 1.37.95.89 1.43 2.07 1.43 3.52 0 1.6-.46 2.83-1.38 3.65-.92.83-2.29 1.25-4.08 1.25h-5.97v-9.79zm3.35-29.05c1.01 0 1.84-.76 1.97-1.74h.01l2.31-17.13a2.01 2.01 0 00-1.96-2.45c-1.02 0-1.85.76-1.98 1.74h-.01l-2.33 17.3h.01c-.01.09-.03.18-.03.27.01 1.12.9 2.01 2.01 2.01zm-50.44 8.71l17.03 8.31c.24.11.51.17.8.17a2 2 0 002-2c0-.76-.43-1.41-1.05-1.75l-.05-.02c-.06-.03-.11-.06-.17-.08L34.8 37.98c-.28-.15-.6-.25-.95-.25-1.11 0-2.01.9-2.01 2.01 0 .79.47 1.47 1.14 1.8zm30.37 53.64c-.5 0-.95.19-1.3.49h-.02c-.02.02-.04.03-.05.05-.72.62-.85.72-1.1.92-5.52 4.26-12.13 6.51-19.12 6.51h-7.99c-.93 0-1.83.38-2.48 1.05l-5.41 5.57c-.38.36-.62.87-.62 1.44a2 2 0 002 2c.56 0 1.07-.24 1.44-.61l4.89-5.04c.26-.26.61-.41.97-.41h7.18c7.88 0 15.34-2.54 21.57-7.34.34-.26.54-.41 1.32-1.09l.02-.02s0-.01.01-.02a1.991 1.991 0 00-1.31-3.5zM51.93 62.56c.01 0 .09.01.12.01 1.11 0 2.01-.9 2.01-2.01 0-1.08-.87-1.96-1.94-2h-.1c-.31-.02-.96-.01-.97-.01-20.1.25-37.92 11.69-46.54 29.85-.12.26-.2.55-.2.85a2 2 0 003.8.87h.01c7.95-16.78 24.41-27.35 42.96-27.57.12.01.53 0 .85.01z"/><path d="M96.25 48.41c0-.68-.37-1.31-.96-1.64l-.14-.08c-.13-.06-.25-.13-.38-.19l-.19-.09A26.643 26.643 0 0083 43.8c-12.94 0-24.05 9.34-26.54 21.77-.2 1.01-.24 1.27-.27 1.7l-.01.16a1.9 1.9 0 003.78.25l.01-.1c.08-.51.14-.9.25-1.47C62.43 55.52 71.94 47.59 83 47.59c3.66 0 7.17.83 10.43 2.48l.24.11c.22.08.44.13.67.13 1.06 0 1.91-.85 1.91-1.9zM95.17 95l-.09-.18.15.15.04-.02a1.9 1.9 0 00-.92-3.56c-.28 0-.55.06-.79.18-.01 0-.03.01-.09.04a22.92 22.92 0 01-10.48 2.5c-5.13 0-10.07-1.68-14.12-4.79-.57-.44-1.21-.99-1.21-.99-.35-.3-.79-.47-1.24-.47a1.9 1.9 0 00-1.9 1.9c0 .55.24 1.08.67 1.44.55.51.62.54 1.2 1 4.74 3.7 10.56 5.72 16.61 5.72 4.23 0 8.29-.96 12.05-2.85.05-.03.08-.05.12-.07z"/></svg>