<svg xmlns="http://www.w3.org/2000/svg" viewBox="0 0 120 120"><path d="M45.25 39.96h30.83v4H45.25zm0 8.56h30.83v4H45.25zm27.36 35.66H49.56c-2.35 0-4.26 1.91-4.26 4.26v13.05c0 2.35 1.91 4.26 4.26 4.26h23.05c2.35 0 4.26-1.91 4.26-4.26V88.44c0-2.35-1.91-4.26-4.26-4.26zm.26 17.31c0 .14-.12.26-.26.26H49.56c-.14 0-.26-.12-.26-.26V88.44c0-.14.12-.26.26-.26h23.05c.14 0 .26.12.26.26v13.05zm36.74-17.31H86.56c-2.35 0-4.26 1.91-4.26 4.26v13.05c0 2.35 1.91 4.26 4.26 4.26h23.05c2.35 0 4.26-1.91 4.26-4.26V88.44c0-2.35-1.91-4.26-4.26-4.26zm.26 17.31c0 .14-.12.26-.26.26H86.56c-.14 0-.26-.12-.26-.26V88.44c0-.14.12-.26.26-.26h23.05c.14 0 .26.12.26.26v13.05zM35.58 84.18H12.54c-2.35 0-4.26 1.91-4.26 4.26v13.05c0 2.35 1.91 4.26 4.26 4.26h23.05c2.35 0 4.26-1.91 4.26-4.26V88.44a4.279 4.279 0 00-4.27-4.26zm.26 17.31c0 .14-.12.26-.26.26H12.54c-.14 0-.26-.12-.26-.26V88.44c0-.14.12-.26.26-.26h23.05c.14 0 .26.12.26.26v13.05zm48.93-25.86c-.52 0-1.04.19-1.43.58a2.004 2.004 0 001.41 3.42h7.05c.52 0 1.04-.19 1.43-.58.38-.38.58-.88.58-1.38v-7.1a2.004 2.004 0 00-4.01.01v2.22l-7.79-7.79L82 65c-.78-.78-2.05-.78-2.83 0-.78.78-.78 2.05 0 2.83l7.81 7.81-2.21-.01zM40.64 64.97l-.01.01-7.79 7.79v-2.22a2.004 2.004 0 00-4.01-.01v7.1c.01.5.2 1 .58 1.38.39.39.91.59 1.43.58h7.05a2.004 2.004 0 001.41-3.42 1.97 1.97 0 00-1.43-.58h-2.24l7.81-7.81c.78-.78.78-2.05 0-2.83-.75-.77-2.02-.77-2.8.01zm25.45 6.15c-.55 0-1.05.22-1.41.59l-1.57 1.57v-6.86a2 2 0 10-4 0v6.88l-1.58-1.58c-.36-.37-.87-.6-1.42-.6a2 2 0 00-1.42 3.41l4.99 4.99c.36.37.87.6 1.42.6.54 0 1.03-.22 1.39-.57l5.02-5.02c.36-.36.59-.86.59-1.41-.01-1.1-.91-2-2.01-2zM39.15 27.48h6.9c1.75 0 3.17-1.42 3.17-3.17v-7.13c0-1.75-1.42-3.17-3.17-3.17h-6.9c-1.75 0-3.17 1.42-3.17 3.17v7.13c0 1.75 1.42 3.17 3.17 3.17zm.83-9.46h5.23v5.46h-5.23v-5.46zm17.08 9.46h6.9c1.75 0 3.17-1.42 3.17-3.17v-7.13c0-1.75-1.42-3.17-3.17-3.17h-6.9c-1.75 0-3.17 1.42-3.17 3.17v7.13c0 1.75 1.42 3.17 3.17 3.17zm.83-9.46h5.23v5.46h-5.23v-5.46zm17.13 9.46h6.9c1.75 0 3.17-1.42 3.17-3.17v-7.13c0-1.75-1.42-3.17-3.17-3.17h-6.9c-1.75 0-3.17 1.42-3.17 3.17v7.13c0 1.75 1.42 3.17 3.17 3.17zm.83-9.46h5.23v5.46h-5.23v-5.46z"/><path d="M49.11 61.3h22.8c8.22 0 14.89-6.67 14.89-14.89v-.29c0-8.22-6.67-14.89-14.89-14.89h-22.8c-8.22 0-14.89 6.67-14.89 14.89v.28c0 8.23 6.67 14.9 14.89 14.9zm.14-26.14h22.59c6.13 0 11.1 4.97 11.1 11.1s-4.97 11.1-11.1 11.1H49.25c-6.13 0-11.1-4.97-11.1-11.1-.01-6.12 4.97-11.1 11.1-11.1zM13.59 48.22h.48v.01h10.36l-1.57 1.57c-.36.36-.59.86-.59 1.41a2 2 0 002 2c.55 0 1.05-.22 1.41-.59l5.02-5.02c.35-.36.57-.85.57-1.39 0-.56-.23-1.06-.6-1.42l-4.99-4.99a2 2 0 00-3.41 1.42c0 .56.23 1.06.6 1.42l1.58 1.58H13.59c-1.01 0-1.84-.82-1.84-1.84V24.33c0-1.01.82-1.84 1.84-1.84h15.59c1.1-.01 1.98-.9 1.98-2s-.89-1.99-1.98-2H13.59c-3.22 0-5.84 2.62-5.84 5.84v18.05c0 3.22 2.62 5.84 5.84 5.84zm76.88-.61l5.02 5.02c.36.36.86.59 1.41.59a2 2 0 002-2c0-.55-.22-1.05-.59-1.41l-1.57-1.57h10.36v-.01h.48c3.22 0 5.84-2.62 5.84-5.84V24.34c0-3.22-2.62-5.84-5.84-5.84H91.94c-1.09.01-1.97.9-1.97 2a2 2 0 001.97 2h15.64c1.01 0 1.84.82 1.84 1.84v18.05c0 1.01-.82 1.84-1.84 1.84H96.72l1.58-1.58c.37-.36.6-.87.6-1.42a2 2 0 00-3.41-1.42L90.5 44.8c-.37.36-.6.87-.6 1.42 0 .54.22 1.03.57 1.39z"/></svg>