<svg xmlns="http://www.w3.org/2000/svg" viewBox="0 0 190 180"><path d="M112.19 88.55c-.38 2.21-.01 4.08 1.11 5.55.5.65.31 1.2.16 1.64-.04.13-.09.26-.11.39l5.94-1.11.62-2.06-1.63-2.41v-.07c-.1-2.26.57-4.03 2.08-5.54-.72-.14-1.38-.38-2.01-.61-1.04-.38-1.93-.71-2.89-.51l-.11.02-2.58-1.89-1.6.41c-1.16 1.14-1.35 1.47-1.59 2.77l2.64 3.3-.03.12zm3.57-2.77l2.45 1.27v3.11l-.08.08c-.05.05-.1.11-.15.18-.14.17-.29.36-.52.42-.93.22-1.87.42-2.86.62l-1.28.27-.84-4.65 3.28-1.3zM135.1 108c-1.13-.95-2.17-.48-3.18-.02-.57.26-1.16.53-1.79.55-.09-.19-.2-.37-.31-.57-.3-.54-.61-1.1-.73-1.67-.14-.65-.1-1.35-.07-2.03.01-.29.03-.58.03-.85v-.08l-.04-.07c-.52-.77-1.3-1.04-2.05-1.3-.77-.26-1.5-.51-1.9-1.3.32-.16.65-.32.98-.48.97-.47 1.97-.96 2.95-1.5.92-.5 1.79-1.04 2.8-1.66.45-.28.92-.56 1.42-.87h2.14l.08-.08c.69-.76 1.59-1.07 2.68-.93.81.11 1.52-.1 2.26-.32.59-.18 1.2-.36 1.93-.41l5.28 3.77-.76.49-1.59-.54-2.26 2.33c-.4.07-.75-.13-1.12-.34-.52-.3-1.12-.63-1.86-.16-.43.28-1 .4-1.6.52-.3.06-.61.13-.92.22l-.19.05v3.47l-1.5.87v2.21l-.68.7zm-18.98-18.56h-1.37v-1.43l1.37-.07v1.5zm4.96-16.37c.79.49 1.66.76 2.5 1.02.8.25 1.55.48 2.2.89.07.1.07.14.07.14-.01.02-.08.07-.12.1-.1.08-.23.17-.28.33-.02.06-.04.12-.06.19-.07.22-.13.46-.25.56-1.52 1.36-2.6 3.08-3.3 5.27l-.04.12.59.84-.89 1.05-6.49-2.06-1.24-1.24h-3.15l-1.85-2.45-4.15-.46-2.21-3.78 1.4-1 1.15-3.71c1.41 1.13 3.03 1.48 4.6 1.83.92.2 1.78.39 2.62.72.99.39 2.16.03 3.1-.96h1.43l1.9 2.57h.13c.27 0 .55-.03.83-.06.58-.06 1.17-.13 1.51.09zm15.78 39.46l-1.1-.57v-2.38l1.46-1v-1.96l.54-.54c.68-.42 1.32-.2 2.05.05.48.16.98.33 1.52.33h.03l.9 3.02c-.22.12-.46.23-.72.35-1 .45-2.22 1.01-2.26 2.71h-2.42zm6.91-4.28c-.64-1.9-1.31-3.86-3.93-3.86-.16 0-.32.01-.49.02l-.69-1.36 1.58-1.24 2.13.5v2.14l1.16 1.16 2.75-1.69 3.67 1.2.76 3.98-1.91-1.19-4.73 1.21c-.11-.28-.21-.58-.3-.87zm-32.18-12.38l-1.68 3.31c-.39.12-.75.32-1.1.52-.74.42-1.44.82-2.37.47-.05-.05-.11-.11-.18-.17-.09-.08-.29-.26-.3-.33-.05-1.07-.56-1.97-1.06-2.84-.58-1.01-1.13-1.97-1.02-3.19l2.08-1.44 2.66 1 1.89-.97c.08.17.17.35.26.52.29.58.59 1.18.79 1.78.11.34.07.76.04 1.07 0 .1-.01.19-.01.27zm7.18 19.88c.61-1.42.56-2.86.52-4.26-.03-.84-.05-1.64.06-2.43l.4-.4c2.53.82 4.1 2.86 5.61 5.05l.15.22 1.13-.81c.05.03.1.05.16.08.27.14.57.3.91.41 1.56.48 2.31 1.4 2.36 2.88.03.76.02 1.5.01 2.29 0 .31-.01.62-.01.94l-2.06 1.47c-.56-.2-1.14-.34-1.71-.48-1.18-.29-2.29-.56-3.21-1.32-1.03-.85-2.04-1.71-3.09-2.59l-1.23-1.05zm11.62 7.09c-.15-.09-.29-.18-.44-.27l2.26-2.26-.7-5.03h2.32l1.14-1.78c.07.07.14.13.2.19.24.22.43.4.56.6.13.2.22.43.31.68.04.12.08.23.13.34l.05.11 3.29.97 1.1 1.36h1.09l1.45 2.26-1.65 1.66c-.17-.08-.36-.17-.56-.26-.63-.28-1.34-.6-1.9-1.08-.96-.81-2.24-.84-2.89-.4-.47.32-.93.33-1.46.33-.41.01-.84.01-1.31.17l-.18.06v3.4c-1.14-.01-1.99-.54-2.81-1.05zm-12.23-17.92h-2.37l-.79-.97h-1.83l-2.51-3.15c.08-.07.18-.15.27-.22.4-.32.81-.65.91-1.1.27-1.2 1.21-1.4 2.13-1.6.16-.04.32-.07.48-.11 1.2-.31 2.44-.43 3.75-.54.5-.04 1.01-.09 1.51-.15l3.48 4.69-3.8 3.8-1.23-.65zM99.08 93.83l2.58.37.54 1.17c.5 1.07 1.01 2.18 1.52 3.3.39.86-.01 1.55-.44 2.29-.12.21-.24.41-.34.62-.14.3-.43.55-.76.83-.14.13-.29.26-.44.4h-1.57l-1.11-3.16-2.85-3.55 2.87-2.27zm-2.41 24.54c.01-.12.01-.22 0-.3v-.18c.27-.34.55-.67.83-1.01.51-.61 1.04-1.23 1.5-1.9.4-.6.59-1.36.74-2.09.14-.66.22-1.31.3-2.01.04-.3.07-.6.12-.91l.02-.13-.32-.32 2.68-2.07c.79.39 1.21 1.09 1.64 1.83.23.4.48.81.78 1.17.06.07.12.19.17.3.11.22.23.46.47.56 1.36.52 1.97 1.65 2.62 2.85l.33.6c.19.33.48.59.75.85.18.16.35.32.49.49.46.56.9 1.12 1.41 1.77.17.22.36.46.54.7l-.69.57c-1.26-1.11-2.66-2.02-4.56-.85-.14.09-.43.05-.64.02-.11-.02-.21-.03-.29-.03h-.11l-.08.08c-.28.3-.53.61-.78.91-.52.64-1 1.24-1.6 1.51l-.28.13c-.8.38-1.72.81-2.57.44-.68-.3-1.33-.69-2-1.1-.28-.17-.56-.35-.85-.51l-.62-1.37zm-2.58-21.61c3.52 3.52 3.68 3.81 4.21 7.08l.01.08 2.44 2.36c-.46.65-.9 1.27-1.9 1.17a13.8 13.8 0 01-.39-.38c-.82-.8-1.67-1.63-3.11-1.74-.41-.03-.85-.39-1.28-.74-.2-.16-.41-.33-.62-.48-.03-.02-.07-.07-.12-.12a.853.853 0 00-.28-.25c-.29-.15-.59-.29-.89-.42-.35-.16-.69-.32-1.02-.49 0 0-.06-.05-.11-.25-.13-.45-.37-.91-.6-1.36-.44-.86-.86-1.67-.52-2.36.39-.79.9-1.18 1.6-1.73.18-.14.36-.28.56-.44.28-.22.72-.15 1.23-.05.25.06.52.11.79.12zm80.65 28.09l-3-1.9.63-2.54h2.09l1.91-2.57 2.62.57 1.14-2.29 3.04-1.86 1.18-3.86-.9-2.74c.31-.32.63-.63.94-.95.77-.78 1.56-1.58 2.36-2.34 1.1-1.04 2.3-2.31 2.65-4.22.1-.56.31-1.1.61-1.66v30.02c-.46-.28-.95-.5-1.56-.5-.05 0-.11 0-.17.01-1-.95-1.84-.43-2.59.02-.38.23-.77.47-1.2.55-.89-.58-1.93-.97-2.93-1.35-1.61-.61-3.28-1.23-4.49-2.69l-.08-.1-.13.01c-.17.01-.34-.01-.53-.02-.5-.05-1.11-.11-1.59.41zm-80.29-14.61c-.41-.71-1.16-1.05-1.89-1.38-.7-.32-1.43-.65-1.82-1.29-.09-.15-.21-.3-.32-.46-.33-.44-.67-.9-.58-1.43.04-.22.23-.38.53-.61.13-.1.27-.21.41-.34l.76.37c.78.38 1.54.76 2.29 1.15.14.07.27.17.41.28.19.15.39.3.63.39l.05.02c2.17.83 2.19.84 3.42 2.9l-.53 4.09-2.5 2.5c-.06-.69-.07-1.35-.09-2-.02-1.51-.05-2.95-.77-4.19zm5.88-21.55c.41-.79.91-1.76.13-2.77.56-.22.93.12 1.59.81l.25.27 5.38-.67 2.33 1.9.35 1.33-.89 1.54-4.13-.48-.07.04c-.06.03-.14.08-.24.13-.33.17-.82.42-1.25.77-1.43 1.14-2.49 1.3-3.67.55a.746.746 0 00-.38-.1c-.09 0-.19.01-.28.02-.03 0-.05.01-.08.01-.32-.8.01-1.44.39-2.17.11-.21.22-.42.31-.63.07-.18.17-.37.26-.55zm37.84-24.95l-1.57 4.61.11.11c.56.56 1.1 1.11 1.64 1.66 1.32 1.34 2.56 2.61 3.9 3.82.83.76 1.91 1.45 3.3 2.12.92.45 1.39.98 1.61 1.83l.05.19h3.08l1.88 2.34 1.84-.64 1.76 2.19v1.19l-3.12 1.55.58 2.63c-.4.07-.81.07-1.21.07-.76 0-1.55 0-2.24.5l-.51-.12c-1.42-.34-2.89-.68-3.64-1.96-1.08-1.85-2.64-3.05-4.17-4.07l-.08-.06-.1.02c-.76.13-1.55.09-2.38.06-1.55-.07-3.15-.14-4.67.86-.04-.2-.07-.4-.11-.59-.14-.74-.27-1.44-.44-2.15-.17-.7-.4-1.4-.61-2.07-.1-.3-.19-.61-.29-.92l-.06-.18h-2.94l-2.17-2.19c.16-1.51-.93-1.93-1.81-2.28-.18-.07-.36-.14-.52-.22l-1.88-2.32c.19-.66.79-.95 1.43-1.25.32-.16.66-.32.94-.54.17-.13.34-.25.52-.37.7-.5 1.43-1.01 1.67-1.75.65-1.99 2.24-2.83 3.95-3.74.13-.07.23-.17.34-.31.04-.04.08-.09.14-.15l4.94.68.84 1.45zm-20.04 43.25l-1.56 1.57.11.17c.67 1.02.62 2.09.56 3.22-.03.66-.07 1.35.06 2.03l-4.79 2.34c-.83-.54-1.24-1.17-1.68-1.93-.33-.56-.84-1.01-1.38-1.48l-.55-.49 1.04-.68.03-.09c.15-.55.13-1.14.1-1.77-.04-.93-.08-1.88.5-2.74l1.79-1.2h1.7l.99.93.07.01c.54.11 1.03-.08 1.45-.24.66-.24 1.07-.4 1.56.35zm47.05 22.29c-.4 1.04-.01 1.85.34 2.57.1.22.21.44.29.66.39 1.07 1.08 1.72 2.2 2.08l5.02.72-.76 1.32c-.02.01-.03.01-.05.02-.62-.58-1.24-.49-1.95-.16-.95.43-1.63 1.14-2.28 1.83-.38.39-.77.8-1.2 1.14l-.08.06-.02.09c-.6 3.2-2.06 5.62-4.48 7.4l-2.07-1.01-2.88.62c.02-.06.05-.12.07-.18.12-.3.2-.5.3-.67.48-.81.12-1.44-.3-1.96l1.25-3.62-2.81-1.02c.26-2.32-.77-4.42-2.04-6.7-.01-.06-.02-.16-.03-.26-.15-2.3.03-4.18 1.44-5.89.52-.63.79-1.44 1.07-2.29.12-.35.24-.71.38-1.07l3.7-1.25v-2.33l2.54-.75 1.38 1.71h1.73c4.61 4.8 5.6 5.26 7.38 6.09.43.2.91.43 1.51.74l-.62 1.84h-2.88l-2.76-2.01-3.38 2.21-.01.07zm-43.49-22.08c1.1-1.58 2.14-3.08 3.91-3.82l1.86.6v3.25l1.63 3.06.08.04c1.17.51 2.05.08 2.89-.34.46-.23.89-.44 1.38-.52l.76.67c0 .06.01.12.01.17.01.1.01.2 0 .24-.27.64-.56 1.28-.86 1.95l-.27.6c-1.79.23-3.34-.56-4.84-1.33-.5-.26-1.03-.52-1.55-.75l-.15-.07-.6.54-.06-.08c-1.19-1.57-2.41-3.19-4.35-3.97l.16-.24zm44.35-24.25l4.81-5.57-2-2.23h-3.01l-1.83 1.89c-.12-.19-.06-.47.1-.95.1-.29.21-.58.36-.95.07-.16.14-.34.21-.53l2.32-.81v-6.42l-.81-1.56.35-.35c.36.2.73.38 1.08.56 1.51.76 2.93 1.47 3.57 3.01l.05.12 6.13 1.34.1-.12c1.8-2.14 1.85-2.71.4-5.85l1.95-3.75h9.93c.08.06.16.11.23.17v33.28c-.14.29-.28.57-.41.86-.65.4-1.34.11-2.06-.21-.27-.12-.55-.24-.83-.32l-.45-.13c-1.96-.56-2.89-.82-3.99-.82-.87 0-1.85.17-3.54.49-1.18.23-2.32-.24-3.42-.7l-.2-.08a8.08 8.08 0 01-.46-.2l-.19-.08-1.36-2.47h-5.47v2.37l-.51.51-6.42-1.12-1.36 1.56-.81-2.9c.14-.18.3-.36.46-.55.47-.56 1.01-1.18 1.35-1.91.31-.67.42-1.41.53-2.2.04-.31.09-.62.15-.93.48-.22.96-.05 1.51.15.66.24 1.42.52 2.29.12l1.23-1.31v-1.41zm-15.9 40.25v-1.38l-2.29-1.58-2.13.63-2.65-4.6-.16.01c-1.33.11-2.33-.89-3.33-2.01l-.07-.08-.14-.01 1.93-.11v-2c.27-.1.54-.21.81-.31 2.29-.89 4.46-1.73 6.66-1.75l2.25 1.14 1.83 6.21.25-.08c.33-.1.65-.09 1-.07.53.03 1.13.06 1.74-.38.36-.26.89-.35 1.39-.44.18-.03.36-.07.54-.1.26.48.01.8-.43 1.3-.41.47-.92 1.05-.43 1.83l.03.05 1.34.82c-.04.03-.07.07-.11.1-.2.19-.38.36-.56.44-.56.23-1.13.4-1.73.59-.25.08-.5.15-.75.23l-.15.05-.03.15c-.37 1.99-.97 3.39-1.99 4.64l-2.82-3.29zm31.45-17.04l-.14.1.04.17c.07.33.05.68.03 1.05-.04.68-.09 1.45.44 2.26.28.43.35 1.42-.25 2.07-.22.24-.24.58-.26.95-.01.1-.01.21-.03.32-.18.05-.36.1-.55.15-.61.16-1.23.32-1.74.68-.51.37-.89.91-1.29 1.49-.14.2-.29.41-.44.63 0 0-.01 0-.01-.01-.19-.11-.43-.25-.7-.3-.31-.06-.62-.04-.97-.03-.16.01-.34.01-.54.01h-.15l-1.39 2.45-3.38.8v2.22l-.61.61-2.04-2.62-.07-.02c-.42-.14-.81-.24-1.18-.34-.72-.19-1.34-.35-1.79-.68-.47-.35-.82-.91-1.19-1.51-.13-.21-.27-.43-.41-.65.96-.62 1.93-1.26 2.33-2.49.33-1.02.73-2.19 1.28-3.27.5-.99.51-2.01.51-2.91 0-.21 0-.41.01-.6l2.13-2.97-.44-2.02 3.71-3.64-2.82-3.33v-2.6l1.62-.13c.06.06.12.13.19.2.24.25.52.54.6.85.38 1.48 1.57 2.06 2.76 2.53 1.72.68 3.32.82 4.75.44 2.26-.6 4.41-.5 6.58.31.5.19 1 .4 1.49.61.17.07.34.15.52.22-.7 4.42-3.58 6.94-6.6 9zm-47.21-14.25c.07.33.87 1.11 1.35 1.54-.11.06-.23.11-.34.17-.89.47-1.53.81-2.45-.34l-.2-.25-1.83 2.18c-.19-.23-.38-.46-.57-.68-1.46-1.78-2.85-3.46-4.83-4.53v-1.98h1.88l2.91 1.5h2.96l1.12 2.39zm-12.47-5.39l2.04-3.29-.03-.1c-.6-2.46 1.02-3.94 2.73-5.52.18-.16.35-.33.53-.49.48.23.84.62 1.26 1.06.33.35.68.72 1.12 1.04l.1.07 1.5-.44.46.46c0 .2-.01.41-.01.62-.02.59-.03 1.2.04 1.8.06.52.23 1.01.4 1.48.05.14.1.28.14.42-.25.21-.49.42-.73.63-.63.55-1.22 1.06-1.88 1.46-.59.35-1.26.76-2.12.73-.28-.01-.56-.03-.85-.05-1.22-.08-2.48-.16-3.7.5-.09.04-.43-.12-.65-.23-.11-.04-.22-.1-.35-.15zm14.37 4.7c-.59-1.27-1.47-2.2-2.41-3.19l-.51-.54h-2.89c.58-.91.79-1.02 2.64-1.96.35-.18.69-.38 1.03-.58.78-.46 1.52-.89 2.31-1.06.94-.19 1.96-.15 2.95-.1.42.02.84.04 1.25.04 1.28.72 2.22 1.41 2.88 2.6.96 1.72 2.67 2.89 5.09 3.5.7.17 1.47.02 2.22-.13.22-.04.44-.09.67-.12l-.47 2.84-1.86-.28-3.62 1.78-3.47-2.12-1.45.7c-.99.47-1.92.58-2.69.3-.71-.26-1.28-.83-1.67-1.68zm-15.31 4.69l1.14-3.21-1.71-1.7v-3.56c.46.08.76.39 1.11.76.27.29.56.58.95.81l.06.03h1.18l-.48 1.58.17.1c2.54 1.55 4.72 3.06 5.72 5.68l-5.57 2.47-2.57-2.96zm39.91 19.23l-.13.14.73 1.32-1.39 1.14h-.44l.36-2.5-.07-.09c-.73-.86-1.38-1.25-2.53-.71l-.1.05c-1.09.51-2.21 1.05-3.62.53-.18-.22-.08-.43.19-.87.24-.39.53-.87.32-1.41l2.05-1.75.67-2.38h1.33l.07-.05c.98-.68 1.56-1.65 2.13-2.58.21-.35.43-.72.67-1.06 1.03-.16 1.87.32 2.76.83.54.31 1.09.62 1.7.82-.17.61-.3 1.22-.42 1.81-.25 1.22-.49 2.38-1.1 3.44l-.19.33c-.56.99-1.09 1.93-2.24 2.3-.21.07-.35.24-.51.43-.08.07-.15.16-.24.26zm-2.13-28.73c-.48 1.48-1.28 2.81-2.46 4.07l-.1.11.04.14c.17.55.31 1.13.45 1.69.36 1.42.72 2.89 1.54 4.28l.14.24 3.33-2.31c1.35.03 2.86.35 4.33.66.57.12 1.14.24 1.7.35l2.11 2.13-3.5 3.5.23.18c.59.46.54.97.5 1.56-.02.24-.04.49-.01.74l-1 1.06c-1.57-.91-3.43-1.84-5.4-2l-.14-.01-3.13 4.16h-1.96l-.8 2.81-1.74 1.74-1.74-8-.16-.04c-.54-.12-1.07-.31-1.58-.48-.93-.31-1.87-.63-2.86-.63-.65 0-1.31.14-2 .5l-.6-.65.65-1.51 3.74-.65.06-.06c.07-.07.16-.14.26-.22.43-.33 1.09-.84.93-1.89l-.01-.1-2.45-2.04c1.65-1.22 3.07-1.61 5.81-1.62h.26v-.84c0-.46 0-.91-.01-1.37-.01-.44.1-.78.4-1.21.57-.81.95-1.73 1.32-2.62.23-.54.46-1.1.73-1.62l.09-.17-.4-.4 2.75-1.54c.82.33 1.03.99.68 2.06zm-49.84 15.43l2.16 2.21v.77l-2.59 1.9v3.25l-.44.44c-1.59-.5-2.29-1.81-2.9-2.97-.07-.14-.14-.27-.21-.39l-.03-.05-3.08-2.09c1.06-.42 1.66-1.21 2.19-1.92.33-.44.65-.85 1.04-1.16 1.05.45 1.22.43 3.86.01zM89.6 168.07v-1.17l4.87-3.09 1.55.76-1.21.79-.95 1.92c-1.27.71-2.59.96-4.26.79zm.09-3.43l-.67.43.62-3.09c1.09-.1 2.32-.06 3.52.01-.02.05-.04.1-.06.14-.09.21-.16.37-.25.43-1.01.69-2.05 1.37-3.16 2.08zm8.27-6.42l2.13 2.07c-1.31.76-1.41 2.22-1.36 3.29.02.42.07.85.11 1.26.11 1.02.23 2.07-.09 3-.2.59-.69 1.05-1.2 1.54-.55.52-1.12 1.06-1.37 1.8-.41 1.21-.19 2.53.03 3.81.23 1.36.45 2.65-.03 3.8-.13.32-.33.4-.43.45l-.05.03c-.84.44-2.08.99-3.05.6-.77-.31-.71-1.65-.6-2.63.18-1.57-.23-2.82-1.25-3.83-.89-.89-.89-2.04-.79-3.16l.59-.59h3.65l.08-.08c.42-.43.69-.96.95-1.47.47-.92.91-1.78 2.15-2.06.21-.05.36-.15.46-.32.22-.37.06-.93-.09-1.47-.08-.3-.17-.61-.17-.83v-.17l-.16-.07c-1.25-.51-2.16-1.5-2.85-3.08.47-.26.89-.6 1.3-.92.74-.58 1.36-1.08 2.04-.97zm-11.34 3.2c.23.01.46.02.69.02v2.43c-2.1.08-2.89-.31-3.84-1.92.94-.6 2.02-.57 3.15-.53zm-3.72-7.32l-2.97 1.29c-.35-.77-.83-1.43-1.29-2.07-.69-.96-1.35-1.87-1.54-3.04.04-.01.08-.02.12-.04.23-.07.46-.14.67-.25.17-.08.31-.21.47-.35.02-.02.04-.03.05-.05l1.35 1.93 2.44-.9.46.98-.39.73.63 1.77zm22.58 1l-2.08 1.86.55 1.72-1.91.83c-.37-.43-.78-.82-1.17-1.19-.79-.74-1.53-1.45-1.93-2.44-.24-.61-.5-1.21-.76-1.81-.69-1.63-1.4-3.31-1.88-5.02-.15-.52-.38-1-.6-1.46-.23-.49-.46-.95-.58-1.44.42-.31.73-.17 1.29.15.17.09.34.19.52.27l.15.07 1.85-1.68h2.57l1.95-3.99-1.48-.54 3.41-.38c.01.01.01.03.02.04.18.44.43 1.03 1 1.26.3.12.65.13 1.05.01v5.33l1.91.9-.76.5v2.64c-.52.59-1.13.71-1.78.84-.72.14-1.47.29-1.93 1.15l-.05.09.64 2.29zm-22.18.64l5.6 3.09-1.15 1.03c-.48.1-1.02.07-1.58.04-.89-.05-1.9-.11-2.92.38l-1.62-3.8 1.67-.74zm97.15-16.69l2.75 1.12-.94 1.16c-.56-.17-1.13-.46-1.73-.76-1.4-.72-2.86-1.46-4.36-.68-.49.25-1.18.7-1.46 1.68-.16.54.18 1.21.54 1.93.56 1.11.88 1.87.21 2.3-.64.41-1.29.14-1.98-.15-.7-.29-1.49-.63-2.1.09-.45.52-.64 1.19-.82 1.84-.15.54-.31 1.1-.62 1.58-.44-.45-.26-.8.01-1.33.1-.19.19-.38.27-.59l.04-.12-.07-.11c-.63-.92-1.6-1.13-2.55-1.35-.35-.08-.7-.16-1.04-.27.13-.68.45-1.3.79-1.94.32-.61.65-1.23.82-1.94.35-1.44 1.46-2.54 2.97-2.97.68.63 1.42.26 2.01-.04.24-.12.49-.25.73-.31l.13-.03.05-.12c.12-.31.27-.62.43-.94.54-1.1 1.1-2.23.61-3.76l-.06-.18h-.19c-.2 0-.4-.01-.62-.02-.51-.02-1.05-.04-1.58.04-.86.13-1.71-.06-2.6-.26-.68-.15-1.39-.31-2.18-.36l-.94-2.27 1.42-.74c1.94 1.44 4.32 1.92 7.08 1.42l.14-.03 1.34-3.45c1.7.28 3.21 1.03 4.8 1.83.55.27 1.11.56 1.68.82v3.07l-2.99 3.93v1.91zm-11.49 14.16c.7.71 1.49 1.51 1.36 2.43-.09.58-.71 1.14-1.36 1.22-.51.06-.98-.32-1.48-.72-.49-.4-.99-.81-1.62-.89-.06-.01-.11-.01-.17-.01-.44 0-.86.21-1.27.41-.51.25-.99.49-1.43.29-.77-.35-.94-1.5-.98-1.98-.07-.83-.14-1.77-.71-2.5-.28-.36-.78-.62-1.52-.8-.4-.1-.83-.02-1.28.06-.54.09-1.11.19-1.57-.04-.41-.2-.64-.69-.88-1.21-.28-.61-.57-1.24-1.21-1.46-.7-.25-1.32.04-1.87.29-.27.12-.53.24-.77.29-.29.06-.52.16-.75.26-.37.17-.72.32-1.32.28-.34-.02-.44-.4-.56-1.21-.11-.69-.22-1.48-.82-1.85-.3-.19-.66-.1-.98-.02-.26.06-.5.12-.63.03-.06-.04-.07-.09-.08-.23-.01-.05-.01-.1-.02-.14l-.24-1.2c-.15-.78-.3-1.58-.51-2.36-.23-.87-.91-1.28-1.56-1.67-.49-.3-.96-.59-1.24-1.06-.16-.27-.08-.64 0-1.02s.16-.77.02-1.12c-.43-1.03-1.41-.87-2.28-.73-.37.06-.76.12-1.11.1-.4-.02-.86-.23-.93-.54-.03-.13.06-.22.26-.38.04-.03.08-.06.11-.09 1.59-1.39 3.42-2.52 5.18-3.61.47-.29.94-.58 1.4-.87 1.29-.82 2.3-1.64 2.98-3 .23-.46.63-.84 1.04-1.25.13-.12.26-.25.38-.38.84.85 1.18 1.73 1.13 2.82-.09 1.6.3 3.24 1.18 5.04.24.49.39 1.01.54 1.55.19.68.39 1.39.8 2.05.14.22-.04.78-.23 1.36-.12.37-.25.78-.35 1.22l-.05.24 2.7.73-1.01 1.57.03.11c.56 2.31.56 2.31-.07 3.71l-.11.26.27.09c.09.03.18.06.27.08.18.05.35.1.49.18.12.07.23.17.36.3.07.07.15.14.23.21l.1.09.13-.04c.3-.09.65-.05 1.02-.02.64.06 1.36.13 2-.44l2.66 2.02 2.24-2.63 2.7.58c.01.03.01.07.02.1.02.09.06.25.04.29-1.14 2.06-.14 3.6.85 4.7.13.16.3.33.48.51zm-89.74-11.76l-.01-.06-.03-.05c-.35-.56-.95-.7-1.53-.85-.64-.16-1.21-.3-1.47-.95l.57.28c.1.05.21.11.31.16.26.14.52.29.82.35.31.06.62.05.97.04.09 0 .19-.01.29-.01l.65 3.94-1.38-.36-.09-.27.01.24-.2-.05-.88 1.44-.12-1.2c1.12-.51 2.23-1.07 2.09-2.65zM190 142.46c-.09.03-.33.02-.4-.02-.59-.41-1.21-.49-1.8-.49-.23 0-.45.01-.67.03-.47.03-.92.05-1.29-.06-.4-.12-.69-.3-.98-.48l-.15-.09.85-.9v-1.38l-3.42-1.32 3.4-4.38v-3.06c1.16-1.15 2.38-.76 4.25-.01l.2.2v11.96zm-54.6-10.39c.29.64.59 1.29.9 1.96l-1 .31c-.35.18-.8.29-1.27.41-.45.11-.97.24-1.48.45-.36.14-.77.13-1.2.11-.61-.03-1.31-.05-2 .39-.32.21-.8.18-1.31.16-.58-.03-1.19-.05-1.65.27-.46.33-.54.95-.61 1.49-.09.7-.16 1-.51 1.04-.41.05-.57-.4-.73-.99-.04-.13-.07-.24-.1-.34-.53-1.43-1.02-2.86-1.44-4.13-.14-.43-.28-.83-.41-1.21l-.02-.06-4.21-3.73v-4.27l-5.09-1.95c-.45-1.47.08-2.76.73-3.93.41-.75 1.19-1 2.02-1.27.41-.13.83-.27 1.22-.47.16.16.33.32.5.48.46.44.93.89 1.33 1.37 1.84 2.18 4.22 3.66 7.06 4.42 1.16.31 2.09.96 3.09 1.65l.19.13c.15.1.29.23.45.35.43.36.87.72 1.33.68 1.06-.1 1.35.52 1.71 1.3l.12.26c.8 1.67 1.57 3.35 2.38 5.12zm4.53 1.52h-2.03c-.47-.89-.81-1.84-1.17-2.84-.59-1.64-1.19-3.34-2.41-4.8l.81-.56v-3.49h3.5l3.14 2.25 2.41-2.41 1.31 1.23.47-.1c.27-.06.56-.12.83-.2.25-.07.5-.16.85-.28.14-.05.3-.11.49-.17.02.03.04.06.07.09.14.2.3.43.36.66.18.72.32 1.45.45 2.14.04.22.08.44.12.65-.4.5-.82.94-1.23 1.37-.59.61-1.15 1.19-1.61 1.92-.38.6-1.19 1.01-1.97 1.4-.24.12-.48.24-.7.36-.17.09-.34.18-.5.27-1.16.63-2.38 1.28-3.19 2.51zm-18.57.87c-.52.27-1.1.49-1.67.71-1.3.49-2.64.99-3.34 2.2-.23.39-.13.82-.05 1.17.05.22.1.43.04.54-.26.55-.51.86-.75.93-.3.08-.69-.19-1.18-.53l-.06-.04c-.36-.25-.73-.49-1.12-.74l-.65-.43-.1.02c-.59.1-1.21.07-1.86.03-1.14-.06-2.31-.12-3.49.49l-1.26-1.9-2.16 1.91h-3.33l-1.11-1.15c-.05-.58.12-1.15.3-1.75.04-.13.08-.26.12-.4.15-.53-.05-1.09-.27-1.75-.06-.19-.13-.38-.19-.57 2.03.07 4.1-.33 4.69-3.19l.02-.09-.94-1.93 2.05-1.37-.68-4.05c.26-.33.57-.63.87-.92.55-.52 1.11-1.07 1.4-1.84h2.29c.36.42.76.81 1.15 1.18.69.66 1.4 1.34 1.85 2.24.25.49.87.74 1.48.97.16.06.33.13.47.2.56.25 1.12.47 1.73.69l.63.24c-.02.33-.02.65-.01.97.02.92.03 1.72-.63 2.49l-.18.22.24.16c.37.25.74.49 1.11.73.82.53 1.59 1.02 2.29 1.61.99.85 1.94 1.73 2.3 2.95zm-6.57 15.85c1.02 2.11 1.21 3.7.58 4.75-.16.27-.54.3-.93.33-.43.04-.93.08-1.19.47-.28.4-.16.86-.06 1.23.07.25.13.5.05.64-.34.58-.82.45-1.83 0-.53-.23-1.07-.47-1.6-.47-.09 0-.18.01-.27.02-.82.14-1.67.11-2.58.07l-1-.03c.05-.51.36-.8.73-1.17.28-.27.59-.58.8-1.01l.04-.09-.41-1.44 2.19-.7 1.56-1.42-.2-.19c-.75-.73-.81-1.42-.18-2.3.34-.49.58-1.03.86-1.66.13-.29.26-.6.42-.92l.18-.37h-2.97c.93-1.88.51-3.64.1-5.35a2.68 2.68 0 00-.07-.27h3.58l.33.33c-.03.36-.06.7-.09 1.04-.07.81-.13 1.58-.23 2.33-.05.38-.18.79-.31 1.18-.24.73-.49 1.49-.26 2.23.23.73.85 1.14 1.46 1.54.54.37 1.04.7 1.3 1.23zm52.88-98.44c.33.73.66 1.48 1.28 2.1l.09.09 1.58-.28 3.54 6.4h3.58c.34.62.05 1.07-.27 1.58-.12.19-.24.38-.33.59-.07.17-.15.34-.23.51-.51 1.09-1.04 2.21-.14 3.62.18.29.13.8.07 1.3-.02.16-.04.32-.05.48l-4.08-.51c-1.53-1.78-3.8-3-6.02-4.06l-.12-.05-2.72 1.41.15.24c1.28 1.99 1.75 4.16 1.47 6.8l-1.91.82-1.76 4.21 1.52 1.07-.48.49h2.29l1.35-1.41h2.18l.04.17c-.27.28-.54.56-.82.84-.68.7-1.37 1.43-2.12 2.06-.64.54-.86 1.24-1.07 1.93-.17.53-.32 1.03-.66 1.41-.77.36-1.49.13-2.24-.11-.48-.16-.98-.31-1.49-.31-.12 0-.24.01-.36.03l-1.01-1.01h-1.51c-.33-1.45-1.11-2.69-2.51-4.01l-.07-.07h-2.51l-.83-2.26-2.89.62a14.806 14.806 0 00-5.03-3.57c-.09-.87-.78-1.23-1.38-1.55-.36-.19-.71-.37-.94-.64-.55-.64-1.17-1.23-1.76-1.8l-.69-.66c-.15-1.48.36-2.75.95-4.03.26-.56.43-.89.93-1.05.78-.24 1.05-.81 1.22-1.4.15-.52.4-1 .67-1.51.25-.48.51-.98.68-1.51.11-.36.45-1.59.02-2.4-.78-1.44-.25-2.41.92-3.59.06-.06.12-.12.18-.19.44-.47.82-.88 1.88-.53l1.76 1.92h.11c1.21.05 1.83-.68 2.37-1.33.35-.42.69-.82 1.17-1.02l.24-.1-.09-.24c-.68-1.72-1.09-3.17.23-4.64.15.76.14 1.48.13 2.17-.01.56-.02 1.13.05 1.72l.01.08 4.33 4.47.18-.11c1.19-.72 1.64-1.82 2.08-2.88.32-.79.66-1.6 1.3-2.26.16-.04.33-.08.51-.13.54-.14 1.21-.31 1.87-.38.93-.1 1.87-.03 2.78.03l.15.01c1.3.35 1.73 1.31 2.23 2.43zm-57.03 6.06l-1.18-5.29a10 10 0 00.58-.33c.39-.24.73-.46 1.08-.43.97.02 1.93.5 2.58 1.28.27.33.37.88.48 1.52.07.38.14.82.27 1.27l.05.1c1.01 1.2 2.53 1.14 4.14 1.07l.85-.03h.15l1.93-3.58-.21-.13c-.25-.15-.46-.35-.67-.57-.34-.34-.7-.7-1.31-.9-.21-.07-.41-.13-.6-.18-1.06-.31-1.65-.48-1.55-2.11.04-.67.51-1.35 1.18-1.7.24-.13.66-.09 1.14-.04.25.03.53.06.83.06 1.7 2.88 3.07 6.05 4.53 9.4l.41.95 4.73-.6 1.52 2.14-5.02 4.1v.12c-.04 1.68-1.01 2.14-2.14 2.66-.34.16-.68.32-1 .52l-2.37-5.44h-1.7l-.07-1.24-1.96-1.78-.12.02c-.27.04-.56.1-.84.16-.63.13-1.28.27-1.85.16-.56-.11-1.08-.46-1.69-.87-.3-.2-.6-.4-.94-.6l-.1-.06-1.13.35zm-13.45 6.23c-.06-.14-.06-.38 0-.59.97-3.41 2.27-5.54 3.97-6.49.16-.09.31-.12.46-.12.18 0 .36.04.53.09.23.06.45.11.66.05 1.06-.29 1.63-1.18 2.18-2.05.59-.92 1.14-1.79 2.25-2 .99.9 1.13 2.16 1.28 3.49.06.56.13 1.14.26 1.71l-1.97 1.23.51 3.36c-.24.27-.49.57-.75.88-.73.88-1.56 1.87-2.48 2.77-.81.8-1.11 1.78-1.4 2.72-.06.2-.12.41-.19.6-.3.89-.6 1.62-1.45 2.23-.72-.48-1.13-1.11-1.44-2.2-.39-1.34-1-2.63-1.59-3.87-.28-.59-.57-1.21-.83-1.81zm8.85 2.72l2.98-2.95v-3.57l2.9-.7 1.14 1.06h4.02l.87 2.55h1.76c.2.76.56 1.43.9 2.07.34.65.67 1.27.85 1.97l.06.21c.22.81.36 1.35-.1 2.02-.14.2-.11.45-.08.68.01.08.02.15.02.22v.14l1.38.88c-.67-.41-1.39-.49-2.06-.49-.19 0-.38.01-.56.01h-.1l-3.46-3.08-3.51 1.47-6.08-1.57-.93-.92zm10.22-11.77v-.83c.44.23.86.31 1.25.22.45-.09.86-.38 1.24-.89l.31.65c0 .02 0 .05-.01.07-.02.19-.04.52-.29.68-.64.43-1.9.54-2.5.1zm6.82-5.94c-.16-.41-.31-.82-.48-1.24 1.84-.26 10.12-1.51 10.6-2.14.56-.73.92-1.71.94-2.57.01-.53.15-1.01.29-1.52.1-.34.2-.69.25-1.06.09-.59.35-.89.85-1 1.8-.4 2.68-1.95 3.18-3.08.66-1.48 1.63-2.56 3.25-3.6l.28-.18c1.15-.73 2.33-1.49 2.93-2.95.16-.39.54-.72.95-1.06.14-.12.28-.24.41-.36l2.15 1.57-.75 2.06 2.6 2c.14.42.12.89.1 1.39-.03.8-.07 1.7.57 2.54-2.5 1.93-4.73 4.36-6.62 7.22l-.06.09 1.03 5.07h-1.63l-.55.55c-.31.31-.59.6-.89.88-.81.77-1.19 1.73-1.12 2.85.01.12 0 .25 0 .37 0 .13-.01.26 0 .4.09 1.66.04 3.59-.98 5.35-.14.24-.11.54-.08.8 0 .03.01.06.01.09l-.99.41-2.48-1.85h-2.61l-4.45-5.17-2.53 1.62c-1.13-.64-1.58-1.69-2.06-2.81-.2-.47-.41-.96-.68-1.4-.56-1.01-.98-2.11-1.43-3.27zm-46.11 93.15l-1.25.39-.04.04c-.12.12-.21.2-.28.26-.12.11-.21.19-.22.33-.02.22.01.45.03.68.04.37.09.72-.11.94-.02.02-.13.01-.19.01-.16-.01-.37-.02-.55.12-.89.66-.23 1.59.26 2.26.45.62.73 1.05.52 1.33-.13.18-.61.11-.96-.08-.86-.45-.79-1.69-.63-3.02.33-2.84-2.72-9.55-3.01-9.85-.79-.84-1.58-2.57-.77-3.63.25-.33.81-.12 1.01-.02.32.17.44.66.56 1.18.16.69.35 1.47 1.12 1.66.76.19 1.27-.35 1.77-.87.35-.37.71-.75 1.16-.87.28-.08.7.02 1.13.13.75.18 1.69.41 2.51-.17.51-.36.55-1.03.59-1.67.04-.58.08-1.13.44-1.32.53-.27 1.21.11 1.62.52.17.17.21.47.25.77.03.26.06.5.18.68.36.55.91.58 1.39.61.61.04 1.05.06 1.28.92-.02.18.01.38.03.62.07.59.15 1.33-.42 1.98l-.12.14 2.14 3.67c-.33.82-.89.82-1.6.82-.19 0-.37 0-.55.01l-.1.01-.07.08c-1.46 1.63-1.74 3.2-.86 4.8l-2 3.28h-.59l-1.76-1.37-1.24.31c.02-.3.21-.54.5-.87.18-.21.39-.45.54-.75l.16.47.17.01c1.21.07 1.27.05 2.15-.63l.1-.08v-.13c0-.33-.01-.66-.02-.99-.02-.74-.04-1.5.03-2.24.15-1.68-.4-3.16-1.52-4.07l-4.86-1.64-.84 1.26v.08c.04 2.07 1.48 3.08 2.92 3.9zm73.69-112.99l-3.23-2.66c.05-.17.08-.34.11-.5.07-.39.14-.72.39-.92.51-.4 1.19-.38 1.9-.36.39.01.79.02 1.16-.04 1.7-.29 2.05-1.65 2.11-2.43.02-.29.03-.6.04-.91.04-1.35.08-2.74 1.11-3.49.06-.04.24-.01.38.02.22.04.46.08.69 0 3.22-1.14 3.22-1.14 6.5-.55l.18.03c.67.12 1.35.1 2.2.06.19-.01.4-.01.61-.02l-1.72 1.24.04.17c.74 3.33 2.18 6.27 3.2 8.2.35 1.2.49 2.42.63 3.6.2 1.7.39 3.3 1.13 4.85-.08.77-.04 1.54 0 2.29.07 1.24.13 2.42-.32 3.59-.2.5-.21 1.06-.22 1.6 0 .19-.01.38-.02.57-1.36.68-2.82.65-4.11.62-.25-.01-.48-.01-.71-.01h-.26c-3.29-.91-4.37-3.3-5.52-5.82l-.18-.4c-.7-1.54-1.17-3.22-1.5-5.46-.1-.66-.24-1.3-.39-1.98-.07-.31-.14-.62-.2-.95l-.04-.21h-2.08l-.07.05c-.32.24-.61.55-.88.86-.38.41-.77.84-1.26 1.1-.44-.41-.28-.7-.01-1.15.15-.26.3-.52.33-.83l.01-.16zm24.61 29.36l-3.08-6.01c.16-.1.33-.19.52-.29.54-.29 1.16-.61 1.48-1.25.25-.5.14-1.07.03-1.62-.1-.51-.21-1.04-.02-1.5.83-2.05 1.98-4.15 4.7-5.55.56-.29 1.04-.16 1.45.39.8 1.07.88 3.24.16 3.99-.13.13-.47.12-.92-.02-1.74-.55-3.25-.37-4.02.49-.86.96-.78 2.59.22 4.87.99 2.24 2.1 3.21 3.32 2.88.94-.25 1.47-1.07 1.93-1.79.34-.53.66-1.03 1.09-1.21 2.04-.84 5.08-1.95 7.87-2.39v9.17c-.05-.04-.1-.07-.15-.11l-.07-.05h-14.51zm-85.28 101.6l1.22-1.82-.12-.15c-.63-.77-1.47-1.14-2.29-1.49-.51-.22-.99-.43-1.41-.72-.77-.54-1.51-1.15-2.28-1.79-.29-.24-.59-.49-.9-.73l1.44-1.75-.18-.17c-1-.95-1.89-2.04-1.6-3.55l1.01-1.01-.02-.13c-.04-.3-.03-.61-.02-.94.03-.76.06-1.61-.54-2.43.38-.55.96-.71 1.62-.9.4-.11.8-.22 1.19-.43l1.82 1.68h.96l1.02 1.02h1.59c1.28 1.78 1.98 3.84 2.67 5.83.58 1.7 1.19 3.46 2.15 5.05-.61.96-1.5 1.46-2.45 1.98-.77.42-1.56.86-2.22 1.57l-.06.06-.09.81h-2.51zm3-17.37c.15.24.31.47.49.75-.02-.01-.05-.01-.07-.02-.98-.25-1.78-.45-2.29-1.35l1.2-.48.17.28c.17.3.33.56.5.82zm-24.27-12.87a.69.69 0 01-.32.53c-.47.32-1.34.35-1.87.19-.48-.14-.7-.67-.92-1.24-.23-.57-.47-1.16-1.02-1.44a2.22 2.22 0 00-1.01-.22c-.33 0-.66.05-.99.1-.27.04-.54.08-.81.09l-.98-1.59h-.14c-.37 0-.74 0-1.13.01-.82.01-1.67.02-2.55-.01-.42-.01-.7-.13-.85-.35-.21-.3-.12-.74-.08-.83.3-.84 1.08-1.33 1.9-1.86.42-.27.86-.55 1.24-.88l.15-.14-.1-.18c-.28-.51-.69-.96-1.09-1.4-.81-.89-1.28-1.47-.96-2.08.08-.08.5-.09.6-.01.59.46 1.23.46 1.79.46.31 0 .6 0 .87.07.28.08.45.32.63.59.24.34.56.81 1.18.6.32-.1.48-.46.64-.8.13-.28.28-.59.46-.56.05.06 0 .35-.03.51-.06.36-.13.78.13 1.05.15.16.36.15.52.14.06 0 .16-.01.19.01 1.42 1.32.94 2.06.27 3.09-.55.84-1.17 1.79-.76 3.19.08.28.47.43 1.6.84 1.31.46 3.51 1.25 3.44 2.12zm25.94-45.76c-.2-1.46.22-2.83.67-4.28.19-.61.39-1.25.53-1.88.4-1.79 1.82-3.12 3.4-4.43 1.6.54 2.31 1.87 3.12 3.39.25.46.5.94.8 1.42l.06.06c.84.7 1.98.67 3.18.64.32-.01.64-.02.97-.01l1.65 1.84c.23 1.48-.8 2.48-1.89 3.53-.1.09-.19.19-.29.28h-4.41l-1.14-1.15-.14.03c-.33.08-.68.15-1.04.23-.89.2-1.81.4-2.74.65l-.06.02c-1.01.28-1.87.52-2.67-.34zm-6.96 3.89c-.07-.59.34-1.05.82-1.58.2-.22.41-.46.59-.71.02.02.05.03.07.05.23.16.46.32.73.42.28.1.56.23.86.36.81.37 1.65.75 2.41.57.38-.09.79-.11 1.2-.13.68-.04 1.39-.08 1.95-.43.49-.3.95-.3 1.43-.29.28 0 .57.01.86-.05.34 1.29-.04 2.28-.7 3.35-.35.56-.51 1.2-.7 1.94-.08.33-.17.67-.28 1.03l-2.34 2.34h-1.46c.02-.24.05-.48.09-.71.1-.66.2-1.35-.14-1.91-.35-.58-.99-.74-1.65-.9-.25-.06-.52.02-.82.1-.5.14-.85.22-1.13-.04-.1-.09-.07-.29-.02-.6.06-.34.13-.76-.06-1.16-.15-.32-.47-.51-.82-.72-.42-.24-.83-.48-.89-.93zm-4 39.34c.27-.27 2.12-.75 2.75-.49.44.19.75.65 1.07 1.14.36.54.74 1.11 1.35 1.37.34.14.75.25 1.25-.01.8-.42 1.32-1.26 1.87-2.16l.15-.24c.52-.84 1.36-1.18 2.32-1.58.51-.21 1.03-.42 1.58-.73.7-.39.91-1.1 1.11-1.79.07-.25.15-.51.25-.75.45.13.89.31 1.33.49 1.1.45 2.23.92 3.5.61l.54.54v2.02l-1.55 1.55.61 3.02-1.26.98-3.29.65.59 6.03c.07.62.42 1.09.75 1.55.37.5.72.98.73 1.65.01.43.5.74 1.06 1.11l.42.27c-.38.22-.77.19-1.21.17-.32-.02-.65-.04-.99.05l-.07.02-1.33 1.42H95.6c-.08-.19-.17-.39-.25-.58-.67-1.56-1.36-3.17-2.59-4.42l-.08-.08h-.11c-.06 0-.11 0-.16-.01-.11-.01-.24-.02-.35.07-.3.23-.59.47-.9.71l-.24.19h-2.94l-.08-1.34-1.49-2.39c.23-1.2.42-2.25.1-3.26l-.04-.14c-.28-.89-.45-1.43-1.46-1.84-.1-.04-.53-.2-1.19-.27.33-.16.75-.17 1.16-.19.62-.02 1.27-.04 1.52-.64.1-.23.1-.45.02-.65-.18-.44-.75-.67-1.35-.91-.69-.28-1.41-.57-1.47-1.14z" fill="#e6edf3"/></svg>