<svg xmlns="http://www.w3.org/2000/svg" viewBox="0 0 190 180"><path d="M190 21.85v14.44c-.59-.15-1.19-.31-1.79-.5-8.49-2.61-14.46-7.71-13.33-11.39 1.03-3.34 7.57-4.35 15.12-2.55zm-16.63 5.23c-.13-.39-.22-.77-.27-1.16-.73-.06-2.29-.17-4.54-.2-.49.24-.97.53-1.44.87 2.03-.46 3.75.33 5.37.64.32-.06.61-.1.88-.15zm15.08 29.48c.27.82.84.82 1.55.36v-3.66c-1.42.13-4.45-.84-3.81.9.71 1.91 1.4-.2 2.26 2.4zm-11.26-22.51c.29.5.75.78 1.25.75.38-.44.7-.81.98-1.12-.86-.55-1.65-1.12-2.36-1.71-.45.2-1.12.5-1.97.9.32 1.1 1.62.34 2.1 1.18zm7.86 14.56c.21.25.46.51.81.71 1.4.78 3.1.56 4.14 1.3V38.03c-.68-.16-1.35-.33-2.03-.54-.48 1.85-1.49 5.77-2.92 11.12zm-9.8-14.9c-.43 0-1.13-.09-1.72-.1-.01 0-.01.01-.02.01-.51.25-1.07.53-1.67.84-.14.07-.28.14-.43.22-.26.13-.53.28-.8.42-.14.08-.29.15-.44.23a87.613 87.613 0 00-1.27.69c-.36.19-.72.39-1.09.6-.04.02-.07.04-.11.06-4.94 2.75-11.37 6.72-18.52 12.05 3.3 2.96 7.26 5.5 11.62 7.67 6.03-7.8 11.4-14.27 14.98-18.49.1-.26.19-.53.3-.78l-1.8-1.8c.2-.62 1.14-.78.97-1.62zm-10.09 75.67c-.79 2.41-1.54 4.74-2.26 7.03-.71-.02-1.77-.19-2.51-.16-.89-4.16-8.51-3-7.83-7.14.33-1.99 2.73-4.33 1.03-6.14-2.29-2.44-6.7-.53-9.8-2.13-.81-.42-2.05-.26-3.04-.06-2.45.48-4.62-.16-6.73-1.04.5-.94 1.04-1.89 1.58-2.84.29.13.58.3.85.54 2.52-.55 3.14-3.28 5.09-4.69 1.63.94 3.27 1.83 4.92 2.65h.01c.82.41 1.64.81 2.47 1.19.01 0 .01.01.02.01.83.38 1.66.75 2.49 1.11.06.54.13 1.09.19 1.66.89.65.93-.68 1.47-.67.33.01.64.04.96.08 4.43 1.75 8.86 3.11 13.16 4.17-.68 2.18-1.37 4.32-2.07 6.43zm-4.62-5.37c-3.23.01-2.08-2.33-3.41-2.16-.69.09-1.72.59-1.53 1.53.37 1.76 3.13 1.27 3.4 3.24.07.54.86.28 1.34.27.82-.87 1.3-2.88.2-2.88zm18.83-.98c.19-1.56-.34-2.7-1.89-3.32-1.92-.39-3.22 1.61-5.05 1.08.32.45.62.85.9 1.24 2.07.4 4.08.73 6.04 1zm-.51-49.73c-2.52-1.11-2.24 2.98-3.86 3.88-.87.68-2.49-.48-2.82.74-.27.99-.66 2.36.16 3.15.3.29.79.32 1.2.39.8.12 1.99.74 2.71 0 1.89-1.94-.31-2.98 2.55-6.03.7-.74 1.05-1.7.06-2.13zm-66.34 4.25c-.05.05-.11.1-.16.15.9 2.76 2.21 5.68 4.03 8.7.29.45.58.91.87 1.38.98 1.5 2.08 3.03 3.34 4.57 8.55-9.74 17.33-17.58 25.35-23.74-1.61-1.62-3-3.36-4.13-5.25-.74-1.25-1.31-2.47-1.76-3.66-8.95 4.18-18.58 9.94-27.54 17.85zm61.73 10.81c.01-.22.45-.41.69-.62 1.04-.59 1.2.99 2.06.85.16-.24.39-.44.62-.63.18-.64.36-1.28.53-1.91-1.01-2.08-2.92-2.01-4.83-2.56-1.33-.38-2.56.75-3.21 1.66-.67.94.91 3.07-.4 3.58-1.58.61-3.41 2.38-4.68 1.07-1.69-1.73 1.61-7.1 0-7.74-2.59-1.03-3.48 1.71-5.05 1.25-.89-1.14.77-1.61.55-2.65l-.37-.03c-3.09 4.05-6.3 8.41-9.51 12.95 1.79 1.57 3.38-.56 5.16-1.13 1.15-.37 2.88.39 4.05-.78 1.2-1.2-1.93-4.44 0-5.32 2.14-.97 3.1-2.35 3.74-.48.63 1.84-3.21.71-1.94 5.45 1.08 4.03 7.39 1.63 10.79 1.56 2.18-1.03 1.72-2.85 1.8-4.52zm-6.35 32.48l.21-.68c.36-2.42-.51-5.1-2.4-6.11-2.15-1.15-3.05-2.75-3.81-4.63-.32-.8-1.15-2.21-2.13-1.06-4.89 5.78 3.26 6.59 5.07 9.7.49.85-.18 1.39-.59 1.81 1.23.36 2.45.67 3.65.97zm13.08-.03c2.78.1 5.06-1.82 7.81-2.2.41-.06.81-.05 1.21 0v-5.28c-1.39-.98-1.13-3.45-2.89-3.9-.6-.15-1.49-.57-2.26 0-2.27 1.66-3.1 4.65-4.41 7.05-.25 1.16 1.34 1.27 1 2.32.39.8-1.62.95-.46 2.01zm7.98 25.56c.34.54.69 1.07 1.04 1.6v-3.73c-.46.08-.92.22-1.34.22v.01c.12.63-.12 1.23.3 1.9zm-5.64-79.28c1.32-4.95 2.25-8.55 2.68-10.24-1.74-.62-3.32-1.34-4.76-2.11v.01c-2.23 2.54-9.64 11.1-18.53 22.57.01 0 .01.01.02.01 3.66-2.59 7.13-3.27 9.56-8.2 1.3-2.64 4.12-1.44 5.52-2.2 1.99-1.09 3.51-1.09 5.51.16zm-27.6-10.86c-1.95 2.33-3.22 2.18-4.25 2.76-2.75 1.54-3.34-2.21-9.53-.18-.03.01-.07.03-.1.04.44 1.12 1.01 2.27 1.76 3.44.38.59.8 1.17 1.23 1.74.96.08 1.68-.86 2.63-1.14 1.24 1.49 3.12 1.13 4.73 1.13 5.49-3.86 10.43-6.86 14.44-9.09.01-.01.03-.02.04-.02.47-.26.93-.52 1.38-.76.04-.02.09-.05.13-.07.42-.23.84-.45 1.23-.66.06-.03.11-.06.17-.09.38-.2.76-.4 1.11-.58l.18-.09c.35-.18.69-.35 1.02-.52.03-.02.06-.03.1-.05 1.43-.72 2.6-1.26 3.44-1.65.01 0 .01-.01.02-.01-.21-.23-.4-.47-.58-.7-1.35-.04-2.61-.19-4.14.62-2.91 1.54-6.29 2-9.14 3.99-1.62 1.12-4.55.31-5.87 1.89zm32.94 88.24c.01-.94.04-1.7-.03-2.44-.02-.22-.34-.54-.67-.65-.37-.12-.92-.14-1.38.66 1.72.05.5 1.86 2.09 2.69v-.24c-.01-.01-.01-.02-.01-.02zm1.34 52.86c-.86.42-1.83.75-2.93.95-.77.14-3.29-1.19-4.03 0-.31.5.43 1.07 1.1 1.21 3.07.65 3.76.87 5.86-.46v-1.7zm-60.16-81.08c-1.74-1.39-3.35-4.14-1.77-6.7.64-1.04 2.31-1.48 2.83-2.69.19-.45.3-1.03 0-1.41a80.82 80.82 0 01-8.46-7.88c-.09-.09-.17-.19-.26-.28-.53-.58-1.05-1.19-1.58-1.79-.09.11-.18.21-.27.31-7.84 9.22-13.06 17.94-16.47 25.87 1.98 2.49 4.1 4.82 6.31 7.03.77.6 2.09.77 3.04.34 1.15-.52 1.31-3.02 2.51-3.1 4.58-.29 4.59-3.15 6.81-4.5 2.18-1.33 4.45-2.42 5.55-3.18 1.92-1.33 2.57-.01 3.3.31.26.11.51.23.76.34.41-.77.86-1.56 1.3-2.34-1.18.02-2.58.48-3.6-.33zm30.9 2.57c-.51-1.95-2.38-2.73-3.4-4.1-1.17-1.58-1.18-7.44-3.05-5.35-3.24 3.62-4.33-.34-6.83-.05-1.33.15-2.4 1.22-2.02 3.12 2.19 1.15 4.4 2.2 6.62 3.15 1.17-.74-.22-2.39 1.09-3.08.49.03 1.04-.13 1.38.44.3 1.14.08 2.2-.8 3.34 2.34.93 4.68 1.78 7.01 2.53zm-36.36 49.42c-1.44-.14-1.94-2.89-4.64-2.13-.05.85-.09 1.67-.11 2.47 6.86 4.46 14.34 8.02 22.17 10.78.25-2.09 1.05-3.44-1.12-4.08-2.17-.64-5 .53-5.77-1.56-.89-2.44-.85-3.82-2.45-4.5-2.69-1.16-5.29-.71-8.08-.98zm18.37-72.23c.5-.01.58.99 1.19 1.11.87.17 1.78-.45 2.43-1.04.57-.51.86-1.25 1.29-1.87-3.29-.99-3.89-1.83-3.13-3.89.3-1.63 2.33-.9 2.77-1.92.38-.87.84-2.4-.65-2.75-1.87-.44-1.36 2.53-2.78 3.1-1.6.64-2.85 1.2-4.63 1.05-.37-2.8.3-5.44 2.74-6.4 1.6-.63 3.55 0 5.33 0 .35-3.11.51-4.71 2.88-3.68 1.79.78-.82 3.52-.13 4.85.87 1.66-.29 3.51.83 5.09 2.91-4.05 5.8-7.91 8.57-11.53-4.58-2.28-8.71-4.95-12.07-8.04a177.069 177.069 0 00-25.46 23.85c3 3.48 6.22 6.59 9.59 9.34 1.49 0 3.16-.97 4.34 0 1.56 1.28 1.39 3.58 3.38 2.54.75-.39 1.27-1.14 1.85-1.86.7-.87 2.06-1.71 1.84-2.8-.12-.6-1.2-.77-.67-1.56.8-1.18-1.53-1.41-.8-2.31.57-.56.78-1.27 1.29-1.28zm-.03-47.48c-.45.19-.92.38-1.39.54-.23.81-.41 1.65-.51 2.52.96 0 1.89.15 2.56 0 1.74-.38 1.98-2.11 3.5-2.08.58.01.68-.97.2-1.87-1.41.26-2.87.56-4.36.89zM91.06 73.26a81.837 81.837 0 00-3.89 21.68c1.05-4.58 2.62-9.36 4.92-14.19-.4-1.83-.76-5.26-1.03-7.49zm19-16.27c-1.51-5.4-1.62-10.23-1.17-14.14-7.22 7.84-12.97 17.05-16.74 27.23.33 2.38 1.02 5.45 1.44 7.72 3.75-7 9.06-14.06 16.47-20.81zm3.31-9.87c-.61-.64-1.57-.33-1.86-1.22-.45-1.39.9-3.32-.4-4.71.04-.2.07-.4.11-.59 1.56-.88 3.11-1.71 4.65-2.49.91.98.12 3.31.91 3.69.78.39 1.93.46 3.27 0 .06-.02.57-.26.79-.65 2.18-3.84 6.49-5.25 9.45-8.22 1.1-1.11 3.01-1.62 5.76-1.46-.36-.34-.68-.66-.99-.95 1.23-.36 2.44-.71 3.64-1.02.22.01.44-.01.65-.03-.16.69-.29 1.39-.36 2.11h-.27c-1.82 3.83-9.32 4.18-7.82 8.74.15.44.64.72.99 1.1l-.09.15c-6.69 3.69-13.54 8.26-20.07 13.93-.15-.59-.29-1.18-.41-1.75v-.02c-.12-.58-.22-1.14-.31-1.7.26-.88.33-1.82.51-2.73.06-.32.97.06 1.5-.27.73-.45.8-1.44.35-1.91zm1.59-.56c.93-1.81 2.4-1.48 1.25-3.31-1.58-.92-2.34.38-2.84 1.3-.41.75 0 1.71 0 2.57.37.36 1.12.35 1.59-.56zm-20.7 34.49c1.44 6.19 3.93 12.73 8.1 18.63 1.73-3.82 3.89-7.82 6.55-11.98.05-.08.1-.15.14-.23.62-.96 1.26-1.93 1.94-2.9l.26-.38c.66-.96 1.35-1.92 2.07-2.89.1-.14.2-.27.31-.41.73-.98 1.49-1.96 2.28-2.96.09-.11.17-.22.26-.32.83-1.04 1.69-2.08 2.58-3.14.16-.19.32-.36.47-.55-.02-.02-.03-.04-.05-.06-4.21-5.12-6.84-10.08-8.43-14.7-7.63 7.12-12.91 14.57-16.48 21.89zm7.14 20.8c-4.2-5.61-6.85-11.83-8.5-17.84-3.41 7.96-4.89 15.67-5.3 22.54 1.58 5.7 4.16 12.03 8.27 18.48.32-6.41 1.78-14.25 5.53-23.18zm16.1 45.3c.05-1.05.12-2.15.22-3.28-1.68-1.93-3.64-3.66-5.06-5.21-.87-.94-1.92-2.04-2.13-3.21-.67-3.73-3.12-6.62-4.38-10.04-.33-.8 1.95-1.22.25-2.4-.62-.43-.5-1.82.29-2.71 2.5-2.82 2.8-6.15 2.45-9.71a86.482 86.482 0 01-6.17-6.77c-3.76 9.49-4.94 17.77-4.98 24.31l.56.8c5.31 7.22 11.75 13.24 18.95 18.22zm29.9 21.62c-2.62-4.02-6.08-6.65-9.85-8.68-6.51-2.53-12.5-5.53-17.96-8.99 0 .47 0 .93.01 1.39.14 6.75 1.17 11.19 1.65 12.92a82.188 82.188 0 0029.03 13.37c-2.4-2.98-3.16-7.19-2.88-10.01zm-51.59-40.14c-1.88-2.69-5.11-9-6.86-12.48a81.553 81.553 0 007.7 20.99c-.44-2.29-.79-5.15-.84-8.51zm21.61 21.06c-7.54-5.08-14-11.09-19.35-17.99.33 5.67 1.46 9.64 2.08 11.42a83.235 83.235 0 0018.46 20.3c-.61-2.92-1.28-7.56-1.19-13.73zm57.2-30.47c-.35-.24-.45-.71-.36-1.63-2.33-.09-4.27-2.02-6.86-1.27-.67.93-.37 2.46-2.08 2.68.03.03-.35-.15-.36-.34-.01-.48-.09-.98-.15-1.46.73-2.33 1.5-4.72 2.31-7.18.6-1.81 1.19-3.65 1.78-5.51 1.51 1.02 1.61 3.16 2.73 3.46 1.15 0 1.27-.16 1.75-1.88H178c2.23 2.3 4.48 3.84 7.56 2.33.36-.17.49-.44.75-.21 1.27 1.19 2.49 1.1 3.68.61v9.87c-.78.68-1.63 1.16-2.44 1.23-4.57.37-8.67-.28-12.93-.7zm4.42-8.07c-1.19-.96-1.84-1.48-2.73-2.2-1.29-.17-2.57.33-3.14 2.08.46 1.83 1.79 2.22 3.39 2.1.69-.55 1.33-1.06 2.48-1.98zm-32.31-85.54c-.91-.74-1.91-1.29-2.99-1.73-.44.69-.86 1.41-1.23 2.16.27.09.54.18.82.26 1.15-.25 2.29-.49 3.4-.69zm26.54-1.74c.1-.3.22-.59.37-.86-1.75-.45-5.52-1.32-10.82-1.99-.09.38 0 .85.1 1.23.19.67-.54.93-.71 1.53 5.72-.28 9.67-.03 11.06.09zm1.92-2.58c.21-.16.43-.31.67-.45-1.9-1.01-5.32-2.71-10.04-4.53-1.01.04-2.02.09-3.02.17.28.67.98 1.89 1.25 2.62 6.29.85 10.29 1.95 11.14 2.19zm5.05-1.84c-1.22-.83-2.81-1.85-4.77-3-1.47-.11-2.95-.18-4.44-.21 3.87 1.7 6.38 3.09 7.28 3.61.61-.18 1.25-.31 1.93-.4zm9.76.66v-1.29c-3.21-.82-6.49-1.47-9.84-1.9 1.57 1.02 2.72 1.84 3.41 2.35 1.98.03 4.15.32 6.43.84zm-31.07-1.57c.86-.81 2.38-1.53 2.71-1.96-1.01.1-2 .22-3 .35-.4.32-.59.82-.35 1.55l.64.06zm-28.99 8.79c-.53.15-1.25.06-1.89.09-.49.29-.99.56-1.47.86.8.14 2.52 1.31 3.36-.95zm3.42 1.55c1.49-.46 2.95-.87 4.39-1.25-.23-.21-.63-.41-.57-.7.14-.67.88-1.09 1.38-1.38.66-.38 1.46-.16 2.17-.02.37-.79.77-1.55 1.21-2.27-.82-.23-1.67-.42-2.56-.59-.65.35-1.5.25-2.64.34a80.587 80.587 0 00-7.33 3.64c.72.18 2.36.76 2.53.91.45.41.91.84 1.42 1.32zm47.89 33.71c-.09.31-.17.63-.26.94.85.21 1.69.41 2.54.6-.03-.65.08-1.08-.41-1.38-.61-.08-1.26-.3-1.87-.16zm-31.63-39.96c1.22.28 1.81-1.19 2.77-1.27.99-.08 1.99-.02 2.99-.02-.15-.38-.37-.72-.64-1.04-2.6-.14-5.4-.2-8.38-.15.77.82 2.03 2.19 3.26 2.48zm7.64 1.51c.13-.1.27-.18.4-.29l-1.45-1.45c-1.86 1.71-4.74.65-6.94 2.76 2.85-.46 5.53-.79 7.99-1.02z" fill="#e6edf3"/></svg>