<svg xmlns="http://www.w3.org/2000/svg" viewBox="0 0 190 180"><radialGradient id="a" cx="190" cy="7690.466" r="152.526" gradientTransform="matrix(1 0 0 .5191 0 -3895.771)" gradientUnits="userSpaceOnUse"><stop offset="0" stop-color="#e6edf3"/><stop offset=".594" stop-color="#e8eef4"/><stop offset=".808" stop-color="#eff3f7"/><stop offset=".96" stop-color="#fafcfd"/><stop offset="1" stop-color="#fff"/></radialGradient><path d="M190 152.55c-.77-5.39-1.47-10.83-1.64-13.82-.07-1.2.05-2.95.18-4.81.18-2.59.36-5.27.07-7.02-.24-1.49-1.27-4.03-1.89-5.47a100.8 100.8 0 003.28-2.04v-1.93c-.26.18-.54.36-.83.55l-5.11-8.29c2.16 1.85 4.51 3.77 5.95 4.94v-2.09c-2.01-1.64-4.89-4.03-7.01-5.93l7.01 2.26v-1.7l-6.6-2.13c2.18-.77 5.01-1.93 6.6-3.22v-11c-1.26-1.66-3.22-3.4-4.61-3.94-.51-.2-1.43-.17-2.22-.08.01-.29.01-.59.02-.86.01-.38.04-.8.06-1.26.15-2.91.33-6.78-.52-9.28l.14-.11 7.13-5.25v-2.8l-11.79.99 1.44-8.17-.1-.09c3.36-2.08 7.99-4.51 10.45-5.77V52.4c-2.24 1.14-7.81 4.02-11.66 6.44-2.05-2-5.43-5.47-6.25-7.09-.34-.68-.85-2.32-1.29-6.27-.1-.89-.04-2.23.03-3.64.09-1.89.16-3.8-.09-5.25.19-.15.38-.31.58-.48.45-.38 1.01-.86 1.3-.95 1.02-.28 3.32.05 4.7.25l.83.12c.34.04.76.11 1.22.19L190 52.05v-2.97l-8.44-12.97c2.84.54 6.34 1.29 8.44 1.75V36.2c-3.23-.7-9.12-1.96-11.64-2.28l-.81-.11c-1.7-.25-4.02-.58-5.36-.21-.65.18-1.27.71-1.93 1.28a.12.12 0 00-.05.05c-1.09-2.25-3.69-5.73-4.78-7.14.69-4.7 1.56-9.36 1.57-9.44l-1.59-.3c-.06.33-.98 5.24-1.66 10.06l-.07.06c.01.02.04.05.05.07-.37 2.6-.67 5.16-.73 6.96-1.09-.14-2.4-.32-3.77-.52-2.57-.37-5.36-.77-7.72-.97-.27-6.76-.16-16.39-.16-16.52l-1.62-.02c-.01.51-.12 9.72.15 16.43-.44-.02-.87-.03-1.25-.02-1.41.03-3.52.42-5.57.8-1.32.25-2.58.48-3.46.58-1.77.2-4.29.13-6.97.07-.9-.02-1.83-.04-2.76-.05-.07-.08-.14-.18-.21-.25-.32-.37-.82-.67-1.36-.99-.38-.23-1.02-.61-1.14-.82-1.6-2.75-1.95-12.38-1.96-15.86h-1.62c0 .53.03 12.98 2.18 16.67.29.5.87.89 1.47 1.25-3.55.04-6.92.35-9.1 1.45-2.3 1.17-4.82 3.97-7.13 7.01-5.96-4.78-12.45-9.81-18.19-14.26l-4.96-3.85c-3.05-2.37-12.18-6.1-15.69-7.49 1.73-2.05 3.16-3.74 3.16-3.74l-1.24-1.04s-6.38 7.56-8.52 10.07c-1.53 1.8-3.74 4.1-6.07 6.54C54 35.4 47.77 41.9 45.32 46.79c-1.32 2.62-2.34 7.19-2.99 11.06l-3.7.03v.04c-1.43-.42-2.3-.68-2.35-.69l-.46 1.55c.08.02 2.5.74 6.09 1.78-.13.98-.23 1.85-.3 2.53-.22 2.35.02 5.45.38 8.83-1.91 2.45-2.5 5.18-2.5 5.18s.99-1.62 2.72-3.13c.03.29.06.59.1.88.66 5.92 1.34 12.04.36 15.72-.95 3.56-8.05 12.79-8.12 12.88l1.28.99c.3-.39 7.37-9.59 8.4-13.45 1.06-3.97.36-10.25-.31-16.31-.07-.62-.14-1.23-.2-1.84 1.24-.79 2.72-1.38 4.38-1.42 7.62-.19 11.64 4.55 15.04 6.91 1.74 1.2 5.8 2.79 7.04 4.67.91 1.38 1.66 3.48 2.4 5.8-3.28 1.55-6.97 3.61-10.16 5.4-1.85 1.04-3.53 1.98-4.87 2.67-5.23 2.71-20.85 11.11-21.01 11.19l.77 1.42c.08-.04 4.08-2.19 8.7-4.66.99 1.97 4.01 7.98 7.1 14.33-7.73 2.39-14.57 4.47-14.7 4.51l.47 1.55c.13-.04 7.11-2.16 14.94-4.59 2.7 5.55 5.33 11.13 6.62 14.28.51 1.25 1.04 3.11 1.59 5.08.8 2.84 1.63 5.75 2.63 7.76-5.64 6.33-9.9 11.51-10.3 11.99l1.25 1.03c.1-.12 4.29-5.2 9.92-11.55 1.02 1.49 2.58 3.31 4.41 5.26l-13.96 13.28 1.12 1.17 13.96-13.28c6.15 6.37 14.54 13.67 16.77 15.59-3.57 4.32-6.37 7.69-6.44 7.77l1.24 1.03c.11-.13 7.95-9.56 14.2-17.21l6.92 6.98-7.68 7.58 1.14 1.15 7.68-7.58 2.97 3c-.25.3-.42.5-.47.57l1.25 1.03c.01-.02.15-.18.37-.45l.5.5 1.15-1.14-.6-.61c2.22-2.63 6.78-7.94 11.51-12.97l-1.45 17.87 1.61.13 1.61-19.86c1.66-1.72 3.31-3.35 4.86-4.78 4.43 3.15 11.43 6.51 15.25 7.46.7.17 1.99.35 3.25.35.64 0 1.28-.05 1.83-.17-.14.63-.29 1.2-.47 1.66-1.21 3-7.07 11.11-7.13 11.19l1.31.95c.24-.34 6.04-8.36 7.32-11.53.34-.86.58-1.96.79-3.18.8-.71 1.55-1.76 2.33-2.85.47-.66.97-1.37 1.47-1.95l-.81 19.7 1.62.07.86-20.99c.71-.18 1.58-.17 2.53-.07-.02.13-.05.25-.06.37-1.98 13.58 2.93 21.06 2.93 21.06s-1.72-14.87.74-20.69c1.39.39 2.83.86 4.2 1.31 2.31.76 4.49 1.48 6.14 1.69 3.67.47 12.78.72 17.07.82.22 1.47.44 2.85.62 4.05v-10.94zm-12.77-12.1c.92-1.7 3.49-3.4 5.31-5.55l2.7 3.39-2.29 7.56-4.98 3.09c.29-3.43-1.8-6.53-.74-8.49zm-13.91-.14c.06 1.62.17 4.64-.68 4.93-1.55.53-3.65.64-5.95.59 1.41-2.34 4.27-7.45 4.48-10.53.23-3.34-1.85-9.17-3.32-12.38 3.06-.38 5.88-1.02 7.49-1.74.13-.06.27-.14.41-.2.24 1.5.58 3.84.52 4.75-.1 1.59-.84 4.07-1.55 6.46-.6 2.02-1.17 3.94-1.37 5.35-.11.72-.07 1.71-.03 2.77zm-67.16 5.78c2.49 1.72 5.95 2.61 9.57 2.84-1.17 1.57-2.29 3.04-3.23 4.26-1.76-.14-3.4-.42-4.42-.94-2.48-1.27-6.45-6.19-7.72-9.07-1.51-3.44-1.93-14.55-1.99-16.44.4-.29.79-.56 1.17-.8 1.81-1.17 4.33-1.41 5.77-1.44-.94.95-1.7 1.86-2.08 2.65-3.74 7.8-1.15 16.13 2.93 18.94zm2.41-3.1c-5.25-4.54-3.99-11.38-2.15-14.42.36-.59.92-1.17 1.58-1.74.52.89 1.02 1.69 1.45 2.33.77 1.13 2.72 3.87 4.17 4.86.8.54 2.12.9 3.4 1.25.84.23 1.71.46 2.21.71 1.2.58 2.77 1.43 4.37 2.37-.98 1.31-2.12 2.85-3.34 4.48-.56.76-1.14 1.54-1.73 2.32-4.1.15-8.06-.51-9.96-2.16zM85.21 99.54c-2.06-.05-3.89-.48-4.59-1.64-1.61-2.67-2.88-5.94-4.09-9.07.5-.19.99-.36 1.43-.48 1.54-.45 4.14-.57 6.65-.69.12-.01.23-.01.35-.02-.35 1.3-.6 2.51-.64 3.51-.07 2.1.29 5.26.89 8.39zm-.67-13.5c-.32.01-.64.03-.96.05-3.33-5.53-6.69-12.22-6.35-13.39.29-.79 2.43-1.71 3.86-2.11 1.11.2 2.24.39 3.35.59 1.42.25 2.84.49 4.24.74-.12.86-.19 1.81-.26 2.74-.08 1.07-.15 2.09-.29 2.76-.27 1.32-.9 3.17-1.56 5.13-.39 1.15-.78 2.32-1.13 3.44-.3.02-.59.04-.9.05zm25.39-8.96c4.11 1.2 8.3 2.47 11.41 3.41-.03 1.37-.24 3.7-.63 4.73-.35.91-1.82 2.94-2.83 4.26-2.38-1.64-6.43-2.71-10.1-1.83-.84-2.01-1.61-4.37-1.37-5.19.07-.25.89-.78 1.32-1.06.84-.54 1.64-1.06 1.92-1.8.26-.67.32-1.57.28-2.52zM162.2 60.9c.02.33.04.65.05.96-2.24-.55-4.35-.95-5.86-1.09-.46-.04-1.07-.09-1.76-.12-.01-.03-.02-.05-.03-.08.33-1.32 1.08-4.25 1.58-6.13 1.24.5 2.45.93 3.39 1.05.59.07 1.7-.04 2.59-.16-.01.04-.02.08-.02.12-.17 1.38-.05 3.45.06 5.45zm-43.71 45.93c.62-1.3 1.21-3.3 1.6-5.48 1.38-.5 3.05-1.29 4.2-1.87.03.34.07.66.11.95.51 3.46 1.21 7.17 2.6 9.25-3.39 2.28-17.41 11.81-21.63 16.42-.78.85-2.09 3.07-2.88 4.47a38.98 38.98 0 01-1.7-2.31c-.44-.64-.96-1.49-1.5-2.42 2.08-1.49 4.62-2.86 5.97-3.97 3.82-3.16 10.17-8.68 13.23-15.04zm-2.82-6.69c-3.26-.31-7.85-1.33-10.33-1.91 3.25-2.01 7.16-4.38 10.3-5.73.88 1.76.65 4.78.03 7.64zm8.52-2.43c-1.01.52-2.52 1.26-3.82 1.8.37-3.1.27-6.27-.74-8.18 1.33-.18 2.98-.29 4.77-.34-.2 2.39-.27 4.75-.21 6.72zm-17.63 29.48c4.12-4.51 18.57-14.31 21.52-16.3 1.24 1.22 2.68 2.43 4.26 3.62-.31 1.4-.65 2.69-1.09 3.46-1.06 1.84-3.75 4.32-6.12 6.51-1.55 1.42-3 2.77-3.95 3.87-1.29 1.5-3.31 4.24-4.93 6.43-.62.85-1.19 1.62-1.64 2.21-.01.02-.03.04-.04.05-1.7-1.01-3.38-1.92-4.64-2.53-.63-.31-1.54-.55-2.5-.81-1.1-.3-2.34-.63-2.91-1.02-.27-.18-.58-.47-.92-.82.82-1.44 2.25-3.89 2.96-4.67zm22.19-17.9c-1.66-1.69-2.45-7.07-2.75-9.1-.31-2.11-.28-5.65.03-9.24 4.57-.06 9.54.16 11.82.28-.01.81-.13 1.81-.25 2.87-.28 2.45-.58 4.98.17 6.56.19.4.52.74.92 1.07-1.76 2.13-4.02 5.05-4.89 7.04-.44 1.01-.76 2.46-1.08 4.01-1.48-1.15-2.83-2.33-3.97-3.49zm20.51-39.44c1.25 0 3.18.79 4.9 1.49 1.39.57 2.7 1.1 3.74 1.28.81.14 1.89.11 3.05.06-1 2.58-2.86 6.52-3.5 7.86-2.32.01-6.12 2.01-7.83 3l-.24-.4-.02.03c-1.34-2.06-4.36-6.65-6.05-8.87.28-.56.56-1.06.82-1.33 1.02-1.1 3.54-2.93 4.81-3.1.1-.02.21-.02.32-.02zm-1.69-7.51c1.33-.1 2.7-.16 4.04-.16.63 0 1.25.01 1.85.03.48 1.69 1 5.49 1.27 7.6-1.84-.75-3.74-1.52-5.27-1.58-.27-.99-.86-3.1-1.89-5.89zM147 95.8c-.66-.24-1.34-.5-1.96-.75-.05-.3-.09-.62-.06-.76.38-1.71 2.81-5.73 4.31-8.07.28.58.47 1.07.46 1.26-.06.54-.74 1.45-1.33 2.26-.74 1.01-1.44 1.96-1.59 2.87-.15.88-.05 1.99.17 3.19zm1.38-11.16c-1.03 1.58-4.46 6.92-4.99 9.29-.02.11-.04.22-.04.34-.3-.16-.56-.31-.74-.45-.62-.48-2.01-2.55-2.73-3.74l-.22-.36-.32-.02c-.14-.66-.39-1.42-.65-2.21-.44-1.35-.94-2.88-.81-3.7.18-1.13 1.49-2.94 2.55-4.39.58-.8 1.13-1.56 1.49-2.18.18-.32.39-.77.61-1.25 1.9 2.6 4.92 7.23 5.85 8.67zm-4.78 12.1c-.16.41-1.02 1.08-1.65 1.56-.51.39-.99.77-1.3 1.12-.23.26-.55.63-.93 1.07-.23-.19-.41-.37-.49-.54-.55-1.15-.27-3.55-.03-5.67.08-.68.15-1.33.2-1.95.68 1.01 1.58 2.27 2.21 2.76.44.34 1.15.72 1.96 1.08.04.25.06.47.03.57zm-9.36 16.65c.31-1.51.64-3.07 1.04-3.98.72-1.65 2.7-4.31 4.74-6.76.25.14.49.29.75.43.89.5 1.97 1.12 2.31 1.65-.46 1.75-.94 4.23-1.68 5.39-1.04 1.6-4.06 3.68-5.27 5.07-.67-.45-1.35-.89-1.99-1.35.04-.15.07-.3.1-.45zm7.33-11.72c-.16-.09-.33-.18-.49-.28.26-.3.52-.61.78-.89.22-.24.66-.59 1.09-.92.9-.7 1.83-1.42 2.16-2.25.06-.15.09-.31.11-.48.58.23 1.15.43 1.7.63-1.59 1.74-2.58 3.77-3.26 5.52-.59-.47-1.32-.89-2.09-1.33zm4.5 3.8c.41-1.32 1.1-2.98 2.21-4.49.19.71.35 1.36.43 1.87.06.32.14.72.23 1.14-1.11 1.09-2.29 2.32-3.34 3.45.16-.75.32-1.46.47-1.97zm2.6-9.58c-.24-1.18-.38-2.27-.25-3.02.09-.53.73-1.4 1.3-2.17.78-1.06 1.52-2.06 1.63-3.03.09-.72-.45-1.88-.91-2.73 2.38-1.36 5.98-3.06 7.33-2.77 1.72.37 5 3.86 5.4 5.74.25 1.19-.3 4.01-.78 6-1.12-.23-2.36-.41-3.77-.51-4.48-.32-7.66.79-9.95 2.49zm9.67 1.01c.14.02.28.02.43.05 3.61.57 6.1 1.63 7.87 2.94-.57.47-1.11.81-1.55.92-.64.14-1.99-.51-3.07-1.04-1.29-.63-2.51-1.22-3.54-1.17-.06 0-.13.02-.19.03l.05-1.73zm5.64-2.6c.33-1.39.75-3.36.85-4.96 1.47.61 3.37 1.47 3.97 1.96.7.58 1.45 1.39 2.22 2.35-.14.32-.26.67-.38 1.05-.11.38-.25.85-.37 1.03-.28.42-.63.9-1 1.38-1.26-1.14-2.94-2.13-5.29-2.81zm3.9 6.67c1.27 1.28 2.02 2.72 2.5 4.12.73 2.12 1.69 5.17 2.75 8.14-.68.7-1.39 1.38-2.1 2.02-.63-.8-1.33-1.77-1.49-2.16-.33-.79-.48-2.22-.63-3.61-.14-1.3-.27-2.52-.55-3.39-.3-.94-1.35-2.95-1.95-4.07.49-.28.99-.64 1.47-1.05zm5.87 13.93a52.02 52.02 0 001.6 3.84c-.54-.15-1-.3-1.21-.42-.41-.23-1.31-1.11-2.04-1.86.56-.5 1.11-1.02 1.65-1.56zm-1.36-13.56c-.54-1.03-1.16-2.07-1.99-3.06.7-.88 1.17-1.58 1.22-1.66.25-.37.4-.89.56-1.44.97 1.33 1.95 2.8 2.92 4.25 1.51 2.26 2.95 4.4 4.24 5.89-.87 1.57-2.21 3.41-3.79 5.26-.95-3.34-1.92-6.89-3.16-9.24zm4.06-2.8c-.18-.26-.35-.53-.53-.79 1.22.71 2.51 1.36 3.33 1.54.45.1 1.06.14 1.71.16-.2 1.59-.49 3.05-.88 4.23-1.11-1.37-2.34-3.21-3.63-5.14zm3.14-.83c-1.05-.23-3.49-1.7-5.06-2.71 1.82-.21 4.89-.57 6.84-.76-.05 1.2-.13 2.42-.24 3.6-.6-.01-1.15-.05-1.54-.13zm-6.42-4.18c.27-.22.59-.46.89-.67 1.02-.74 2.06-1.51 2.38-2.44.72-2.1-.86-6.35-1.04-6.83-.13-.35-.4-.7-.68-1.07-.08-.11-.19-.25-.28-.38l6.93-5.61c.55 2.25.39 5.69.27 8.1-.02.46-.04.89-.06 1.28-.03.88-.05 1.93-.07 3.1-.02 1.1-.04 2.33-.08 3.6-2.51.23-7.05.77-8.26.92zm1.74-3.64c-.15.45-1.11 1.15-1.8 1.66-.38.27-.74.54-1.06.81-.76-.92-1.5-1.73-2.23-2.32-1.07-.87-4.31-2.18-5.06-2.48-.11-.53-.4-1.15-.79-1.81l9.07-2.81c.12.18.26.36.39.54.17.22.4.53.46.67.76 2 1.38 4.69 1.02 5.74zm-2.21-9.44c-.05.33-.09.64-.11.94L163 84.36c-.34-.43-.7-.84-1.09-1.24 1.06-.78 3.82-2.86 4.62-4.05.69-1.03 1.13-2.76 1.55-4.44.03-.11.06-.22.08-.32 1.92 1.43 3.99 3.5 4.6 4.97.08.17 0 .8-.06 1.17zm-4.96-9.96c-.19.36-.36.8-.52 1.28-.24-.13-.48-.26-.69-.35-.86-.36-2.06-.43-3.34-.42.37-1.71.65-4.43.74-5.93.02-.33.02-.7.02-1.09 2.45.68 4.88 1.5 6.64 2.3-1.17 1.52-2.22 3.04-2.85 4.21zm-1.84 2.42c.26.11.55.26.86.43-.08.29-.15.59-.23.89-.39 1.54-.79 3.14-1.33 3.93-.64.95-3.35 3.01-4.49 3.83-.55-.45-1.11-.82-1.64-1.08.83-1.73 2.75-5.83 3.64-8.31 1.26-.01 2.49.02 3.19.31zm-3.6-7.94c-.09 1.64-.42 4.61-.8 6.07-.07 0-.13 0-.19.01-1.23.05-2.4.1-3.14-.03-.48-.08-1.07-.28-1.73-.52-.19-1.6-.73-5.88-1.29-8.2.38.02.75.05 1.09.09 1.52.14 3.74.58 6.07 1.17.01.52.02 1.01-.01 1.41zm-8.74-6.87c-.11-.25-.22-.49-.33-.74-.65-1.46-1.36-3.09-1.93-4.64.25.07.5.14.72.2l.55.15c.55.15 1.3.45 2.11.78-.33 1.18-.76 2.84-1.12 4.25zm-1.8-.09c.41.92.79 1.79 1.11 2.58-1.78-.04-3.86-.01-5.89.17-.78-1.99-1.74-4.22-2.93-6.6-.38-.77-.49-1.38-.29-1.72.37-.64 1.84-.7 2.36-.73.8-.03 2.06.21 3.31.51.61 1.89 1.49 3.91 2.33 5.79zm-3.91 10.49c-1.79.65-3.99 2.39-4.91 3.37-.25.28-.5.66-.74 1.08-1.41-1.67-3.24-3.7-5.25-5.83 1.43-1.47 2.87-2.68 4.25-3.41 1.08-.58 2.78-.96 4.7-1.2 1.04 2.77 1.66 4.92 1.95 5.99zm-6.44 6.03c-.07.16-.15.32-.22.48-.25.55-.48 1.05-.68 1.41-.3.54-.83 1.26-1.39 2.03-1.22 1.68-2.6 3.58-2.84 5.09-.19 1.21.35 2.86.87 4.46.19.58.36 1.13.49 1.61-2.39-.12-7.06-.32-11.46-.27.36-3.33.94-6.53 1.71-8.48 1.33-3.42 4.5-8.62 7.96-12.54 2.18 2.31 4.14 4.49 5.56 6.21zm-15.02 5.73c-.01.02-.02.05-.02.07-.55-.17-1.8-.55-3.48-1.06-.08-.71-.22-1.5-.38-2.32-.29-1.58-.62-3.38-.43-4.36.57-2.83 5.03-9.61 6.47-11.76 2.01 1.99 4.16 4.17 6.19 6.31-3.65 4.08-6.93 9.47-8.35 13.12zm-4.18 5.53c.44-1.16.66-3.35.72-4.82 1.4.43 2.43.74 2.93.9-.58 2.06-1.02 4.74-1.31 7.5-1.76.05-3.42.15-4.81.32.95-1.28 2.11-2.95 2.47-3.9zm-14.07-6.77c-.1.25-.85.74-1.29 1.02-.66.42-1.33.86-1.72 1.41-.9.05-2.82.17-3.63.34-1.53.31-3.71 1.12-5.83 1.9-.18-1.52-.5-4.31-.45-5.42.08-1.63.78-3.64 1.26-4.86.49.11.95.21 1.38.31 2.35.56 6.25 1.66 10.41 2.87.09.98.08 1.89-.13 2.43zm-6.95-6.11l2.34-4.76c.38.83 1.21 1.68 2.1 2.57.74.75 1.58 1.6 1.82 2.18.2.49.4 1.18.55 1.93-2.48-.72-4.84-1.39-6.81-1.92zm-1.59-.42c-.49-.13-.95-.24-1.36-.34-2.02-.49-4.72-1.01-7.64-1.53.03-.1.06-.2.1-.29.98-2.31 4.18-6.55 6.24-7.9.38-.25 1.32-.39 2.14-.51 1.22-.18 2.36-.34 3.08-.92.06-.05.12-.11.18-.17.1 1.42.28 3.34.55 4.94l-3.29 6.72zm-5.49 11.77c-1.56.57-3.06 1.08-4.14 1.31-.74.16-1.72.25-2.79.33.3-.95.62-1.9.93-2.83.68-2.01 1.32-3.9 1.61-5.32.16-.78.24-1.84.32-2.97.06-.85.13-1.76.24-2.58 1.63.3 3.19.59 4.6.87-.52 1.34-1.19 3.37-1.27 5.12-.07 1.34.32 4.65.5 6.07zM89.22 69.7c-.08.19-.14.42-.2.64-1.42-.25-2.86-.5-4.3-.75-4.74-.82-9.65-1.68-12.82-2.42-3.16-.74-8.53-2.2-14.15-3.79 2.51-1.88 8.33-6.11 10.93-6.87 2.61-.76 8.47-.52 11.15.02 3.33.67 11.72 4.65 14.52 6.01-2.07 2.03-4.28 5.16-5.13 7.16zm-3.27 21.52c.02-.44.09-.94.19-1.48 1.65.7 3.07 1.56 3.18 1.95-.1.44-1.57 1.36-3.3 2.12-.07-.98-.1-1.86-.07-2.59zm4.99.48c-.01-1.5-2.51-2.79-4.43-3.56.05-.19.1-.38.16-.58 1.38-.08 2.65-.19 3.63-.39 1.53-.32 3.71-1.13 5.82-1.91 2.1-.78 4.26-1.58 5.7-1.87.55-.11 1.93-.22 2.94-.28.09 1.51.84 3.58 1.45 5.05-.32.13-.63.29-.94.46-3.66 2.04-9.26 8.67-13.19 9.96-1.22.4-3.22.81-5.23.94a57.43 57.43 0 01-.65-4.01c2.01-.83 4.75-2.23 4.74-3.81zm1.02 10.54c4.34-1.48 10.72-8.76 14.87-10.71 1.65-.78 5.69-1.18 7.62-.26-3.5 1.59-7.69 4.18-10.98 6.22-1.09.68-2.08 1.29-2.9 1.78-1.28.76-2.98 1.94-4.79 3.19-2.49 1.72-5.05 3.49-6.85 4.43-.43-1.03-.86-2.35-1.24-3.82 1.67-.17 3.22-.47 4.27-.83zm4.73 1.55c1.78-1.23 3.47-2.4 4.7-3.13.59-.35 1.29-.78 2.02-1.23 1.26.32 7.48 1.84 11.88 2.3-.43 1.6-.94 3.05-1.38 4.07-1.81 4.16-8.57 10.28-12.01 13.1-1.09.89-2.8 2.21-4.43 3.62-.8-1.54-1.52-3.03-1.94-4.09-.14-.35-.28-.98-.41-1.59-.18-.83-.37-1.69-.64-2.25-.53-1.11-1.62-2.42-2.77-3.8-.71-.86-1.42-1.72-1.97-2.5 1.88-1 4.45-2.77 6.95-4.5zm14.87 40.01c1.25-1.68 2.43-3.27 3.43-4.61 1.71 1.06 3.33 2.19 4.48 3.18-2.03 1.38-5.34 2.29-8.81 2.64.31-.41.61-.81.9-1.21zm4.4-5.9c.45-.59.99-1.33 1.6-2.15 1.61-2.17 3.61-4.88 4.86-6.34.88-1.03 2.31-2.34 3.82-3.73 2.58-2.38 5.25-4.83 6.43-6.9.46-.81.81-1.96 1.11-3.22.44.31.91.6 1.37.91-4.32 6.05-6.97 16.59-14.43 24.84-1.21-1.07-2.94-2.28-4.76-3.41zm22.42-19.41c2.52 1.47 5.14 2.79 7.73 3.84l.16.46-21.11 25.66c-.32-.59-.64-1.22-.96-1.85-.49-.97-.96-1.9-1.44-2.72 13.06-13.62 11.62-19.6 15.62-25.39zm1-1.29c1.31-1.51 3.95-3.81 4.93-5.41.16-.27.31-.63.45-1.01 1.15-1.28 2.91-3.21 4.59-4.91.26 1.29.49 2.66.4 3.47-.12 1.1-.9 2.78-1.66 4.41-.71 1.53-1.38 2.98-1.6 4.12-.14.74-.18 1.73-.18 2.78-2.33-.96-4.67-2.14-6.93-3.45zm8.39 9.9l6.49 18.64c-.91-.05-1.83-.11-2.74-.18-2.75-.19-5.34-.35-7.46-.19.96-4.19 3.03-13.52 3.71-18.27zm.3-8.91c.18-.95.85-2.37 1.49-3.75.75-1.61 1.5-3.26 1.72-4.58.24.73.44 1.38.54 1.82.15.63.2 1.62.26 2.68.09 1.61.19 3.28.64 4.34.31.73 1.03 1.48 1.79 2.27.2.2.39.41.57.61-2.74.18-5.39.11-7.17-.33 0-1.19.02-2.32.16-3.06zm2.24-15.61c-.14-.84-.44-1.92-.75-3.07 1.66-1.6 3.98-2.76 7.16-2.72l-.08 2.21c-1.81.62-3.84 1.79-4.79 2.44-.43.3-.95.73-1.52 1.24 0-.03-.01-.07-.02-.1zm6.9 22.96c1.31 3.27 2.49 7.37 2.34 9.65-.13 1.91-1.59 5.11-3.21 8.02l.87-17.67zm7.47-5.83c-1.63.73-4.37 1.32-7.26 1.66l.8-21.1c.11-.02.24-.05.34-.05.65 0 1.75.52 2.75 1.01 1.25.61 2.44 1.19 3.5 1.22.63 1.16 1.75 3.3 2.02 4.14.23.7.36 1.9.48 3.06.16 1.5.33 3.05.74 4.06.27.66 1.18 1.86 1.77 2.6-1.79 1.48-3.57 2.7-5.14 3.4zm6.2-2.19c.71.74 1.8 1.83 2.46 2.21.63.36 2.06.72 3.02.94.53.91 1.07 1.68 1.58 2.37-1.53-.2-3.49-.78-4.49-1.26-.86-.41-2.82-2.14-3.94-3.17.45-.35.91-.71 1.37-1.09zm5.21-5.1c.89-1 1.74-2.01 2.48-3 1.36 2.43 4.62 8.29 6.08 11.34-1.04.59-2.06 1.12-2.97 1.53-1.28-1.62-2.73-3-3.67-4.76-.71-1.29-1.33-3.11-1.92-5.11zm10.66 26.46c.07 1.16.21 2.66.4 4.37l-2.12 1.32 1.72-5.69zm.26-11.72c.25 1.57.08 4.16-.09 6.65-.09 1.36-.18 2.66-.19 3.77l-3.21-4.03c.53-.88.89-1.84.93-2.9.14-3.11-.68-5.26-1.82-7.02.86-.4 1.76-.87 2.67-1.38.77 1.77 1.54 3.81 1.71 4.91zm.79-8.28c-.57.36-1.16.72-1.76 1.07-1.69-3.51-5.44-10.19-6.44-11.98.27-.4.52-.79.75-1.17l7.45 12.08zm-4.67-29.85c0-.2.01-.38.01-.57.78-.09 1.47-.12 1.67-.05 1.44.56 4.08 3.21 4.71 4.72.21.51.37 1.23.47 2-1.42-1.12-3.18-2.38-4.27-2.7-.65-.19-1.55-.11-2.66.02.03-1.19.05-2.34.07-3.42zm-.13 5.05c.06-.01.12-.01.19-.02.63-.08 1.67-.2 2.07-.08.92.27 2.93 1.76 4.55 3.09-2 .29-4.78.64-7.04.75.11-1.23.18-2.49.23-3.74zm7 4.6c-.09.55-.22 1.02-.42 1.33-.8 1.28-4.77 2.91-7.88 3.93.41-1.3.7-2.85.9-4.5 2.5-.1 5.51-.49 7.4-.76zm-1.27-29.69l-6.71 4.94c-.82-1.3-2.13-2.73-3.59-4.07l10.3-.87zm-7.98 5.97l-6.38 5.21c.07-.55.08-1.08-.1-1.52-.78-1.87-3.35-4.42-5.64-6.02.17-.54.34-1.03.53-1.37.62-1.15 1.7-2.7 2.89-4.23 2.77 1.63 7.11 5.24 8.7 7.93zm-2.93-13.85l-1.26 7.15c-1.23-1-2.46-1.87-3.5-2.5 1.2-1.45 2.41-2.78 3.31-3.56.38-.33.88-.7 1.45-1.09zm-8.6-19.35c-.07 1.48-.14 2.88-.02 3.91.38 3.36.87 5.66 1.46 6.82.95 1.88 4.41 5.4 6.31 7.27-.65.44-1.21.86-1.64 1.22-1.03.89-2.39 2.38-3.71 4.01-2-.95-4.87-1.92-7.73-2.69-.02-.48-.05-.97-.08-1.48-.11-1.93-.22-3.93-.07-5.16.13-1.08.67-2.71 1.18-4.3.66-2.01 1.34-4.1 1.4-5.58.06-1.41-.43-3.42-.91-5.37-.29-1.17-.57-2.37-.72-3.35.13.02.26.04.4.07 1.44.25 3.06.53 4.14.29.14 1.23.06 2.86-.01 4.34zm-4.1-11.7c1.38 1.87 3.09 4.32 3.73 5.79-.78.16-2.32-.11-3.46-.32-.27-.05-.53-.09-.78-.13.04-1.37.24-3.28.51-5.34zm-8.32 5.9c.74.11 1.48.21 2.2.32 1.49.21 2.89.42 4.05.55.12 1.13.45 2.51.8 3.96.45 1.84.91 3.74.86 4.92-.05 1.26-.7 3.23-1.32 5.14-.32.99-.63 1.93-.86 2.8-1.01.15-2.3.3-2.76.24-.78-.09-1.95-.53-3.12-1 .11-.31.24-.64.38-1.01.47-1.2 1-2.56 1.04-3.54.03-.99-.4-2.33-.82-3.63-.25-.79-.49-1.53-.57-2.03-.2-1.27-.02-4.76.12-6.72zm-3.73 7.68c.17-.95-.27-2.19-.7-3.39-.22-.63-.45-1.27-.5-1.67-.11-.84-.2-1.96-.28-3.25 1.12.1 2.35.25 3.6.41-.12 1.65-.36 5.61-.11 7.2.1.63.36 1.43.63 2.28.36 1.11.76 2.37.74 3.08-.02.69-.52 1.97-.93 3-.14.35-.26.68-.38.99-.8-.32-1.55-.61-2.15-.78l-.54-.15c-.53-.15-1.13-.31-1.75-.48-.33-1.19-.5-2.28-.39-3.13.05-.38.71-1.13 1.19-1.67.74-.83 1.42-1.61 1.57-2.44zm-20.46-7c2.72.07 5.3.13 7.18-.08.94-.1 2.22-.34 3.58-.6 1.88-.35 4.02-.75 5.3-.78.39-.01.83 0 1.29.02.08 1.41.17 2.65.3 3.58.08.57.32 1.26.58 2 .32.91.72 2.04.63 2.58-.07.38-.68 1.07-1.18 1.63-.75.85-1.47 1.66-1.58 2.53-.12.86 0 1.86.23 2.93-1.08-.23-2.14-.39-2.94-.35-.85.04-2.83.13-3.65 1.52-.5.85-.42 1.95.24 3.26 1.08 2.16 1.97 4.21 2.71 6.06-.9.12-1.75.29-2.54.49-.54-1.73-1.81-5.73-2.49-7.28-1.68-3.84-5.62-12.5-9.14-17.55.5.02.99.03 1.48.04zm-13.71 1.22c2.25-1.15 6.19-1.32 10.21-1.28 3.68 4.81 8.29 15.05 9.68 18.23.64 1.46 1.9 5.43 2.43 7.12-.28.11-.54.23-.78.36-1.5.8-3.07 2.1-4.6 3.66-3.86-4.06-8.14-8.3-11.09-10.99-3.27-2.99-7.66-6.65-12.47-10.52 2.2-2.9 4.56-5.53 6.62-6.58zm-7.58 7.87c4.76 3.84 9.11 7.46 12.34 10.42 1.08.99 2.35 2.2 3.71 3.52-1.28 1.89-6.22 9.32-6.88 12.59-.26 1.29.09 3.16.42 4.97.1.53.19 1.04.27 1.51-3.2-.97-7.39-2.23-11.44-3.41-.2-1.23-.51-2.37-.79-3.05-.36-.87-1.24-1.76-2.17-2.7-.76-.77-1.55-1.57-1.8-2.13-.69-1.58-1.06-6.79-1.14-8.66h-.05c.47-.9.89-1.93 1.3-2.94.48-1.18.93-2.29 1.37-2.95l.88-1.33c1.11-1.67 2.49-3.77 3.98-5.84zm-64.53 1.75c2.35-4.67 8.75-11.36 13.9-16.73 2.35-2.45 4.57-4.77 6.13-6.61.92-1.08 2.62-3.09 4.26-5.03 2.94 1.16 12.78 5.12 15.8 7.46l4.96 3.85c5.76 4.46 12.26 9.5 18.22 14.28-1.54 2.12-2.94 4.26-4.07 5.96l-.87 1.33c-.53.79-1.01 1.98-1.52 3.24-.72 1.77-1.54 3.78-2.44 4.5-.37.3-1.44.45-2.3.58-1.09.16-2.12.31-2.8.76-.13.08-.26.2-.39.3-1.92-.94-11.65-5.67-15.53-6.44-1.17-.23-2.88-.41-4.68-.49l-4.18-11.89-1.53.54 3.98 11.32c-2.08-.01-4.13.14-5.51.55-1.29.38-3.21 1.47-5.17 2.72L44 57.81c.66-3.84 1.65-8.06 2.79-10.33zM60.6 59.31c-2.23 1.55-4.16 3.01-4.81 3.51-4.2-1.19-8.41-2.4-11.83-3.4l16.64-.11zm11.63 20.51c-1.36-1.75-5.2-3.2-6.86-4.37-3.1-2.18-6.2-6.13-13.28-7.34-1.63-.28-5.05.15-6.54.86-.78.37-1.45.84-2.06 1.36-.26-2.75-.41-5.24-.24-7.14.06-.66.15-1.42.25-2.22 8.6 2.5 22.13 6.37 28.02 7.75 1.76.41 4.03.85 6.5 1.31-1.02.52-2 1.22-2.32 2.1-.77 2.11 3.65 10.01 6.05 14.05-1.63.11-3.13.28-4.24.6-.49.14-1.02.32-1.57.53-1.17-2.98-2.32-5.71-3.71-7.49zM58.32 98.27c1.36-.7 3.09-1.67 4.92-2.7 3.1-1.74 6.69-3.74 9.86-5.26 1.41 4.56 2.9 9.54 5.5 11.54 1.48 1.14 4.51 1.46 7.43 1.34.44 1.68.92 3.21 1.42 4.39-2.99 1.32-7.5 2.87-11.11 4.09-.92-.79-2.94-2.41-4.12-2.53-1.02-.12-2.52.53-3.44 1.16-1.95-1.23-6.46-4.22-7.62-5.68-.83-1.04-2.15-4.41-2.84-6.35-.01 0 0 0 0 0zm16.22 14.01l-2.05.69c-1.15.39-2.64.88-4.34 1.43.42-1.11.91-2.21 1.24-2.53.55-.52 2.08-1.16 2.67-1.11.41.03 1.46.71 2.48 1.52zm-27.08-8.26c3.41-1.82 6.96-3.71 9.4-4.99.66 1.8 2.01 5.33 3.03 6.6 1.39 1.75 6.21 4.88 7.79 5.89-.63 1.08-1.2 2.68-1.47 3.5-3.47 1.11-7.56 2.39-11.52 3.62-3.15-6.48-6.24-12.65-7.23-14.62zm16.16 35.49c-.57-2.02-1.11-3.92-1.65-5.25-1.28-3.13-3.88-8.64-6.55-14.15 6.77-2.1 13.88-4.34 17.6-5.61l2.26-.76c3.86-1.29 9.46-3.17 12.99-4.74.61.91 1.41 1.88 2.2 2.83 1.04 1.25 2.11 2.53 2.56 3.46.19.4.37 1.19.52 1.9.15.7.3 1.36.49 1.84.41 1.03 1.06 2.41 1.81 3.86-1.45-.02-4.75.13-7.17 1.7-6.22 4.02-15.47 13.64-22.8 21.8-.84-1.88-1.59-4.5-2.26-6.88zm24.34.89l-5.68 5.37-7.02-7.08c4.04-4.16 8.09-8.04 11.53-10.75.11 2.65.42 8.36 1.17 12.46zm-21.28 7.52c2.34-2.61 4.88-5.38 7.46-8.07l5.42 5.47-8.41 7.99c-1.92-2.04-3.51-3.91-4.47-5.39zm22.21 22.03c-2.22-1.92-10.58-9.21-16.62-15.46l8.43-8.01 15.02 15.16c-2.21 2.7-4.62 5.63-6.83 8.31zm7.86-9.57l-13.33-13.46 4.94-4.67c.16.61.33 1.16.52 1.59 1.23 2.8 5.42 8.3 8.46 9.86.99.51 2.41.82 3.98 1.01-1.16 1.46-2.77 3.45-4.57 5.67zm1.14 1.15c2.07-2.54 3.9-4.81 5.1-6.34.08-.1.17-.22.25-.33 2.36.13 4.81.05 6.56-.05 2.49-.15 8.22-1.47 11.39-2.23l-16.26 16.06-7.04-7.11zm23.91-3.25c-5.19 5.4-10.37 11.43-12.87 14.39l-2.86-2.89 16.09-15.89-.36 4.39zm1.18-7.81c-.1.03-9.97 2.54-13.27 2.73-1.2.07-3.2.15-5.25.1.98-1.28 2.09-2.76 3.24-4.3 5.56 0 11.12-1.49 13.88-3.94.4.71.8 1.5 1.2 2.28.42.82.84 1.65 1.27 2.42l-.6.59-.47.12zm.59 6l.35-4.32.99-.98c.32.46.65.87.99 1.19.3.28.65.57 1.01.87-1.08 1-2.2 2.09-3.34 3.24zm4.55-4.34c-.41-.32-.8-.64-1.12-.94-.32-.3-.64-.73-.97-1.24l20.31-24.68c-.01.22-.02.42-.04.6-.48 4.32-3 15.59-3.93 19.71-2.63.47-7.47 1.68-9.8 3.09-1.27.77-2.79 1.98-4.45 3.46zm21.06 5.61c-.1.77-.2 1.55-.31 2.3-.06.04-.13.08-.19.11-.97.42-3.59.26-4.82-.04-3.93-.98-10.34-4.16-14.41-7 1.48-1.31 2.84-2.37 3.96-3.06 1.85-1.13 6.18-2.32 9.01-2.84l1.16.27c.01-.05.05-.22.11-.47 2.06-.23 4.81-.04 7.72.16.72.05 1.44.1 2.16.14-.19.2-.38.39-.57.59-.93.96-1.9 1.95-2.32 2.82-.81 1.67-1.16 4.39-1.5 7.02zm5.07-3.89c-1.03.7-1.94 1.97-2.88 3.3-.19.27-.39.54-.59.82v-.03c.32-2.5.65-5.08 1.35-6.51.31-.64 1.22-1.57 2.03-2.4.1-.11.2-.21.3-.31l-.21 5.13zm.51-11.6l-6.74-19.33c1.24.25 2.72.37 4.32.37 1.09 0 2.23-.06 3.36-.15l-.94 19.11zm.93-22.4c-.6-.62-1.27-1.33-1.47-1.79-.34-.8-.43-2.39-.51-3.8-.06-1.12-.12-2.18-.3-2.95-.37-1.58-1.74-5.26-2.41-7.04.68-.63 1.3-1.16 1.78-1.49.94-.64 2.46-1.48 3.8-2.03l-.73 19.26c-.06-.05-.11-.11-.16-.16zm17.66 37.24c-.31-.03-.59-.06-.84-.09-1.5-.19-3.61-.89-5.84-1.63-1.29-.43-2.59-.85-3.86-1.21.11-.12.22-.24.34-.34 2.02-1.67 7.79.53 11.12.14l-.92 3.13zm.71-7.15c-1.71 1.83-7.12.08-9.55-.13-3.25-.28-4.9 1.61-5.68 3.47-1.06-.14-2.06-.17-2.94-.03l.24-5.81c2.66.08 5.14-.03 7.02-.67 1.99-.68 1.88-3.78 1.78-6.52-.04-.98-.07-1.91.01-2.48.18-1.29.74-3.15 1.32-5.12.74-2.48 1.5-5.04 1.61-6.82.08-1.32-.44-4.53-.63-5.67.3-.19.61-.38.92-.59.86.81 3.34 3.08 4.58 3.67 1.4.67 4.27 1.49 6.16 1.49.1 0 .18-.01.27-.02 1.13 1.57 1.86 2.94 1.61 5.09-.45 3.94-5.23 5.49-6.65 9.23-.98 2.58 1.82 8.9-.07 10.91zm.94 7.28l1.22-4.15c.52-.62.91-1.24 1.18-1.86l9.96-6.19c.1.8.2 1.64.31 2.49l-11.25 9.8c-.5-.02-.97-.05-1.42-.09zm3.74.22l9.19-8c.07.55.15 1.11.23 1.67l-5.76 6.48c-1.23-.04-2.47-.09-3.66-.15zm5.76.22l3.96-4.46c.22 1.56.45 3.11.67 4.58-1.26-.02-2.88-.06-4.63-.12z" fill="url(#a)"/></svg>