<svg width="44" height="44" viewBox="0 0 44 44" fill="none" xmlns="http://www.w3.org/2000/svg">
<g clip-path="url(#clip0)">
<path d="M26.8575 28.2304L23.2891 21.672V16.7393C23.2891 16.0274 22.7119 15.4502 22 15.4502C21.2881 15.4502 20.7109 16.0274 20.7109 16.7393V21.9999C20.7109 22.2151 20.7648 22.4269 20.8677 22.616L24.593 29.4626C24.8268 29.8922 25.2694 30.1358 25.7264 30.1358C25.9346 30.1358 26.1456 30.0853 26.3413 29.9788C26.9667 29.6386 27.1978 28.8558 26.8575 28.2304Z" fill="#33363B"/>
<path d="M37.5564 6.44359C33.4011 2.28843 27.8764 0 22 0C16.1236 0 10.5989 2.28843 6.44359 6.44359C2.28843 10.5989 0 16.1236 0 22C0 27.8764 2.28843 33.4011 6.44359 37.5564C10.5989 41.7116 16.1236 44 22 44C27.8764 44 33.4011 41.7116 37.5564 37.5564C41.7116 33.4011 44 27.8764 44 22C44 16.1236 41.7116 10.5989 37.5564 6.44359ZM22 41.4219C11.2907 41.4219 2.57812 32.7093 2.57812 22C2.57812 11.2907 11.2907 2.57812 22 2.57812C32.7093 2.57812 41.4219 11.2907 41.4219 22C41.4219 32.7093 32.7093 41.4219 22 41.4219Z" fill="#33363B"/>
<path d="M22 5.07776C12.669 5.07776 5.0777 12.669 5.0777 22.0001C5.0777 31.3311 12.669 38.9224 22 38.9224C31.331 38.9224 38.9223 31.3311 38.9223 22.0001C38.9223 12.669 31.331 5.07776 22 5.07776ZM22 36.3442C14.0906 36.3442 7.65582 29.9095 7.65582 22.0001C7.65582 14.0906 14.0906 7.65588 22 7.65588C29.9094 7.65588 36.3442 14.0906 36.3442 22.0001C36.3442 29.9095 29.9094 36.3442 22 36.3442Z" fill="#33363B"/>
<path d="M22 8.56274C21.2881 8.56274 20.7109 9.1399 20.7109 9.85181V12.4222C20.7109 13.1342 21.2881 13.7113 22 13.7113C22.7119 13.7113 23.2891 13.1341 23.2891 12.4222V9.85181C23.2891 9.1399 22.7119 8.56274 22 8.56274Z" fill="#33363B"/>
<path d="M34.143 20.7109H31.6342C30.9223 20.7109 30.3451 21.2881 30.3451 22C30.3451 22.7119 30.9223 23.2891 31.6342 23.2891H34.143C34.8549 23.2891 35.432 22.7119 35.432 22C35.432 21.2881 34.8549 20.7109 34.143 20.7109Z" fill="#33363B"/>
<path d="M22 30.3494C21.2881 30.3494 20.7109 30.9265 20.7109 31.6384V34.1483C20.7109 34.8602 21.2881 35.4374 22 35.4374C22.7119 35.4374 23.2891 34.8602 23.2891 34.1483V31.6384C23.2891 30.9265 22.7119 30.3494 22 30.3494Z" fill="#33363B"/>
<path d="M12.3659 20.7109H9.85703C9.14512 20.7109 8.56796 21.2881 8.56796 22C8.56796 22.7119 9.14512 23.2891 9.85703 23.2891H12.3658C13.0778 23.2891 13.6549 22.7119 13.6549 22C13.6549 21.2881 13.0778 20.7109 12.3659 20.7109Z" fill="#33363B"/>
<path d="M31.4977 12.4982C30.9942 11.995 30.1779 11.995 29.6747 12.4986L28.3284 13.8455C27.8251 14.349 27.8253 15.1651 28.3288 15.6684C28.5804 15.9201 28.9102 16.0458 29.2401 16.0458C29.5701 16.0458 29.9001 15.9199 30.1517 15.668L31.498 14.3212C32.0013 13.8177 32.0012 13.0015 31.4977 12.4982Z" fill="#33363B"/>
<path d="M31.4979 29.6789L30.1517 28.332C29.6485 27.8284 28.8322 27.8284 28.3287 28.3316C27.8252 28.835 27.825 29.6511 28.3284 30.1546L29.6747 31.5014C29.9264 31.7533 30.2564 31.8792 30.5863 31.8792C30.9161 31.8792 31.2459 31.7534 31.4976 31.5018C32.0011 30.9985 32.0012 30.1824 31.4979 29.6789Z" fill="#33363B"/>
<path d="M15.6712 28.3315C15.1677 27.8281 14.3515 27.8284 13.8483 28.3319L12.502 29.6787C11.9987 30.1822 11.9989 30.9984 12.5024 31.5017C12.7541 31.7532 13.0839 31.879 13.4137 31.879C13.7437 31.879 14.0737 31.7532 14.3253 31.5013L15.6716 30.1545C16.1749 29.6509 16.1747 28.8348 15.6712 28.3315Z" fill="#33363B"/>
<path d="M15.6715 13.8455L14.3253 12.4986C13.8221 11.995 13.0058 11.995 12.5023 12.4982C11.9988 13.0016 11.9986 13.8177 12.5019 14.3212L13.8482 15.6681C14.0999 15.9199 14.4299 16.0458 14.7599 16.0458C15.0897 16.0458 15.4195 15.92 15.6711 15.6685C16.1746 15.1651 16.1748 14.349 15.6715 13.8455Z" fill="#33363B"/>
</g>
<defs>
<clipPath id="clip0">
<rect width="44" height="44" fill="white"/>
</clipPath>
</defs>
</svg>
