<svg width="20" height="20" viewBox="0 0 20 20" fill="none" xmlns="http://www.w3.org/2000/svg">
<circle cx="10" cy="10" r="10" fill="#FF0000"/>
<g clip-path="url(#clip0)">
<path fill-rule="evenodd" clip-rule="evenodd" d="M10.9508 9.99953L13.8031 7.14723C14.0656 6.88468 14.0656 6.45899 13.8031 6.19647C13.5405 5.93391 13.1149 5.93391 12.8523 6.19647L9.99999 9.0488L7.14766 6.19643C6.8851 5.93387 6.45945 5.93387 6.19689 6.19643C5.93437 6.45899 5.93437 6.88468 6.19689 7.1472L9.04922 9.99949L6.19689 12.8518C5.93437 13.1144 5.93437 13.5401 6.19689 13.8026C6.45945 14.0652 6.8851 14.0652 7.14766 13.8026L9.99999 10.9503L12.8523 13.8026C13.1148 14.0652 13.5405 14.0652 13.8031 13.8026C14.0656 13.54 14.0656 13.1144 13.8031 12.8518L10.9508 9.99953Z" fill="white"/>
</g>
<defs>
<clipPath id="clip0">
<rect width="8" height="8" fill="white" transform="translate(6 6)"/>
</clipPath>
</defs>
</svg>
