<svg width="44" height="44" viewBox="0 0 44 44" fill="none" xmlns="http://www.w3.org/2000/svg">
<g clip-path="url(#clip0)">
<path d="M43.8139 17.7232L36.2463 5.2037C35.9114 4.64967 35.2175 4.4301 34.6246 4.69031L29.9995 6.72222L22.8675 4.60988C22.5364 4.51174 22.1798 4.55067 21.8775 4.71781L13.6652 9.25978L8.93311 6.23023C8.64033 6.0428 8.2842 5.98144 7.94569 6.06042C7.6071 6.13922 7.31474 6.35149 7.13487 6.649L0.186051 18.1448C-0.176004 18.7438 0.00601203 19.5222 0.596059 19.8985L3.52 21.7632L2.929 22.5517C1.7355 24.1443 2.06018 26.4111 3.65277 27.6046C4.28398 28.0776 5.03482 28.3263 5.80972 28.3263C5.87898 28.3263 5.9485 28.3229 6.01811 28.3188C6.20391 29.1178 6.66015 29.8582 7.36639 30.3874C8.01418 30.8729 8.77327 31.1072 9.52643 31.1072C9.59432 31.1072 9.66212 31.1052 9.72984 31.1014C9.92131 31.9287 10.3925 32.6552 11.08 33.1704C11.7112 33.6434 12.4621 33.8921 13.2369 33.8921C13.3062 33.8921 13.3757 33.8887 13.4453 33.8847C13.6311 34.6836 14.0874 35.424 14.7936 35.9533C15.4414 36.4387 16.2005 36.673 16.9537 36.673C18.0524 36.673 19.1384 36.1743 19.8464 35.2295L19.9628 35.074L25.1179 38.7434C25.782 39.216 26.549 39.4434 27.3096 39.4434C28.4879 39.4433 29.6503 38.8976 30.3873 37.8739C30.7066 37.4304 30.9158 36.9412 31.0197 36.4388C32.424 36.7072 33.9244 36.1674 34.8104 34.9368C35.2853 34.277 35.5142 33.5128 35.515 32.7544C36.5309 32.6322 37.4945 32.1033 38.1359 31.2123C38.527 30.669 38.7513 30.0544 38.8187 29.4309C40.0273 29.4583 41.2317 28.9127 41.9876 27.8625C42.5764 27.0446 42.81 26.0473 42.6455 25.0544C42.4808 24.0597 41.9366 23.189 41.1133 22.603L39.8625 21.7127L43.399 19.4801C43.9926 19.1052 44.1772 18.324 43.8139 17.7232ZM6.64254 25.3346C6.47736 25.555 6.23622 25.6979 5.96363 25.737C5.69061 25.7759 5.41939 25.7066 5.19896 25.5414C4.74383 25.2004 4.65111 24.5529 4.99211 24.0978L6.68241 21.8421C7.02341 21.3871 7.67104 21.2943 8.12608 21.6353C8.58111 21.9763 8.67393 22.6239 8.33293 23.079L6.64254 25.3346ZM10.3562 28.1175C10.0151 28.5724 9.36744 28.6653 8.91249 28.3243C8.45745 27.9832 8.36472 27.3356 8.70564 26.8807L10.396 24.6251C10.3962 24.6248 10.3964 24.6246 10.3965 24.6244L11.5857 23.0376C11.7508 22.8172 11.992 22.6743 12.2646 22.6352C12.5375 22.5962 12.8088 22.6656 13.0292 22.8308C13.4843 23.1718 13.5771 23.8194 13.2361 24.2744L10.3562 28.1175ZM14.0698 30.9003C13.9046 31.1207 13.6634 31.2636 13.3908 31.3028C13.1183 31.3418 12.8465 31.2725 12.6261 31.1072C12.4057 30.9421 12.2628 30.7008 12.2237 30.4283C12.1846 30.1557 12.2541 29.884 12.4193 29.6636L15.2992 25.8205C15.2993 25.8205 15.2993 25.8204 15.2994 25.8203L15.824 25.1202C15.9892 24.8998 16.2304 24.7569 16.503 24.7178C16.5526 24.7107 16.6022 24.7071 16.6514 24.7071C16.8728 24.7071 17.0873 24.7782 17.2677 24.9133C17.4881 25.0785 17.631 25.3197 17.6701 25.5923C17.7092 25.8649 17.6397 26.1365 17.4745 26.357L14.0698 30.9003ZM19.4735 31.4278L17.7832 33.6834C17.4422 34.1383 16.7946 34.2312 16.3396 33.8902C15.8846 33.5492 15.7918 32.9015 16.1328 32.4465L17.8231 30.1909C17.9883 29.9705 18.2294 29.8276 18.5021 29.7885C18.7746 29.7495 19.0463 29.819 19.2667 29.9841C19.7217 30.3251 19.8145 30.9727 19.4735 31.4278ZM40.1018 25.4758C40.1534 25.7867 40.08 26.0995 39.895 26.3563C39.5085 26.8933 38.7539 27.0168 38.2131 26.6317L37.2797 25.9673C37.2795 25.9672 37.2793 25.9672 37.2792 25.967L37.2791 25.9669L32.0753 22.2674C31.4951 21.8549 30.6903 21.9908 30.2778 22.5711C29.8653 23.1513 30.0012 23.9561 30.5815 24.3686L35.7754 28.0612C36.301 28.4433 36.4213 29.181 36.0432 29.7062C35.6567 30.2431 34.9022 30.3666 34.3613 29.9815L33.9532 29.6912C33.9531 29.6911 33.953 29.6911 33.953 29.691C33.9528 29.6909 33.9527 29.6908 33.9525 29.6906L29.9341 26.8338C29.3538 26.4213 28.5491 26.5572 28.1365 27.1375C27.724 27.7178 27.86 28.5226 28.4402 28.9351L32.4492 31.7852C32.9754 32.1671 33.0958 32.9051 32.7176 33.4306C32.3311 33.9675 31.5766 34.091 31.0356 33.706L29.6061 32.6885C29.6059 32.6883 29.6057 32.6881 29.6055 32.6881L27.4416 31.1497C26.8613 30.7373 26.0565 30.8731 25.644 31.4534C25.2315 32.0336 25.3675 32.8385 25.9477 33.251L28.074 34.7626C28.563 35.1572 28.6609 35.859 28.2946 36.3679C27.908 36.9047 27.1536 37.0283 26.6125 36.6433L21.509 33.0106L21.5363 32.9741C22.7298 31.3816 22.405 29.1149 20.8124 27.9214C20.5117 27.696 20.187 27.525 19.85 27.4062C20.1984 26.7407 20.3303 25.9853 20.2217 25.2271C20.085 24.2728 19.5847 23.4288 18.8133 22.8506C18.0417 22.2724 17.0913 22.0294 16.1369 22.166C15.9993 22.1857 15.8644 22.2139 15.732 22.2484C15.4919 21.6793 15.1038 21.1643 14.5749 20.768C13.8034 20.1897 12.8529 19.9465 11.8986 20.0834C11.421 20.1518 10.9711 20.3113 10.5683 20.5502C10.3389 20.1816 10.0396 19.8481 9.67175 19.5725C8.28729 18.535 6.39383 18.6454 5.13846 19.738L3.04304 18.4017L8.65657 9.11498L11.0993 10.6789L9.48337 11.5726C9.10001 11.7847 8.85053 12.1769 8.82114 12.614C8.75935 13.5309 8.94626 14.4502 9.36168 15.2727C10.6434 17.8106 13.7608 18.8392 16.3104 17.5656L22.2945 14.5771L25.3284 14.6217L36.8067 22.7027C36.8068 22.7028 36.8069 22.7029 36.807 22.703L39.6176 24.7036C39.8782 24.8888 40.0501 25.1631 40.1018 25.4758ZM37.5881 20.0998L26.4877 12.2844C26.2758 12.1353 26.0238 12.0534 25.7646 12.0496L22.0188 11.9945C22.0125 11.9944 22.0062 11.9944 21.9998 11.9944C21.8 11.9944 21.6028 12.0409 21.4239 12.1303L15.1589 15.2591C13.8751 15.9001 12.3069 15.385 11.6632 14.1104C11.5557 13.8975 11.4788 13.6717 11.4341 13.44L22.6527 7.23544L29.7196 9.32853C30.0117 9.41507 30.3251 9.39531 30.6041 9.27276L34.6252 7.50631L40.9534 17.9752L37.5881 20.0998Z" fill="#33363B"/>
</g>
<defs>
<clipPath id="clip0">
<rect width="44" height="44" fill="white"/>
</clipPath>
</defs>
</svg>
