<svg width="44" height="40" viewBox="0 0 44 40" fill="none" xmlns="http://www.w3.org/2000/svg">
<path d="M44 17.398C44 15.0409 42.0355 13.1234 39.6206 13.1234H22.8141L24.7152 8.1362C24.735 8.0842 24.7515 8.03084 24.7644 7.9767C25.47 5.0244 24.4579 3.1691 23.4846 2.1326C22.294 0.864682 20.6016 0.276955 19.6528 0.441697C19.2763 0.50701 18.9482 0.736033 18.757 1.06681L10.649 15.0986H1.28906C0.577156 15.0986 0 15.6757 0 16.3877V38.2964C0 39.0083 0.577156 39.5855 1.28906 39.5855H11.393H34.1924C36.6072 39.5855 38.5718 37.6679 38.5718 35.3109C38.5718 34.5493 38.3665 33.8335 38.0075 33.2135C39.4995 32.5314 40.5355 31.0516 40.5355 29.34C40.5355 28.5103 40.2921 27.735 39.8712 27.0787C41.1878 26.3407 42.0765 24.9543 42.0765 23.369C42.0765 22.6014 41.8681 21.8804 41.5036 21.257C42.9787 20.5685 44 19.0976 44 17.398ZM10.1039 37.0074H2.57812V17.6768H10.1039V37.0074ZM39.6206 19.0944H37.697C36.9851 19.0944 36.4079 19.6716 36.4079 20.3835C36.4079 21.0954 36.9851 21.6726 37.697 21.6726C38.6903 21.6726 39.4982 22.4335 39.4982 23.369C39.4982 24.3045 38.6903 25.0655 37.697 25.0655H36.1561C35.4441 25.0655 34.867 25.6426 34.867 26.3545C34.867 27.0664 35.4441 27.6436 36.1561 27.6436C37.1493 27.6436 37.9573 28.4046 37.9573 29.34C37.9573 30.2754 37.1493 31.0364 36.1561 31.0364H34.1923C33.4804 31.0364 32.9032 31.6135 32.9032 32.3255C32.9032 33.0374 33.4804 33.6145 34.1923 33.6145C35.1856 33.6145 35.9935 34.3755 35.9935 35.3109C35.9935 36.2463 35.1856 37.0073 34.1923 37.0073H12.6821V16.7334L20.5318 3.1483C20.9141 3.31373 21.416 3.62216 21.8043 4.13263C22.4122 4.93185 22.5705 5.99704 22.2751 7.29942L19.7386 13.9534C19.5876 14.3496 19.6411 14.7947 19.8817 15.144C20.1223 15.4931 20.5192 15.7016 20.9432 15.7016H39.6206C40.6139 15.7016 41.4219 16.4626 41.4219 17.3981C41.4219 18.3334 40.6139 19.0944 39.6206 19.0944Z" fill="#33363B"/>
</svg>
