<svg width="30" height="31" viewBox="0 0 30 31" fill="none" xmlns="http://www.w3.org/2000/svg">
<path fill-rule="evenodd" clip-rule="evenodd" d="M12 24C15.6518 24 18.9227 22.3688 21.1236 19.7952C22.917 17.6982 24 14.9756 24 12C24 5.37258 18.6274 0 12 0C5.37258 0 0 5.37258 0 12C0 18.6274 5.37258 24 12 24ZM12 21C16.9706 21 21 16.9706 21 12C21 7.02944 16.9706 3 12 3C7.02944 3 3 7.02944 3 12C3 16.9706 7.02944 21 12 21Z" fill="white"/>
<path d="M27.3536 30.2678L29.4749 28.1464L21.1236 19.7952L18.9173 21.8068L27.3536 30.2678Z" fill="white"/>
</svg>
