<svg width="75" height="75" viewBox="0 0 75 75" fill="none" xmlns="http://www.w3.org/2000/svg"><circle cx="37.5" cy="37.5" r="37.5" fill="#61C448" fill-opacity=".1"/><path d="M48.313 15h-22.5A2.817 2.817 0 0023 17.813v39.374A2.815 2.815 0 0025.813 60h22.5a2.814 2.814 0 002.812-2.813V17.813c0-1.55-1.26-2.813-2.813-2.813z" fill="#455A64"/><path d="M48.313 20.625h-22.5v30.938h22.5V20.625z" fill="#D5EBF9"/><circle cx="49.5" cy="37.5" r="7.5" fill="#61C448"/><path d="M52.789 35.746l-4.227 4.226a.095.095 0 01-.134 0l-2.4-2.4a.095.095 0 010-.134l.583-.584a.095.095 0 01.135 0l1.75 1.75 3.575-3.576a.095.095 0 01.135 0l.583.583a.095.095 0 010 .135z" fill="#fff" stroke="#fff"/></svg>