<svg width="104" height="64" viewBox="0 0 104 64" fill="none" xmlns="http://www.w3.org/2000/svg"><g clip-path="url(#clip0)" fill-rule="evenodd" clip-rule="evenodd" fill="#fff"><path d="M86.767 15.407l-4.16 4.149H76.07l-3.566 3.555v-3.555h-5.35V2.37h19.614v13.037zM64.778 0l-1.189 4.741v21.333h5.35v2.963h2.97l2.973-2.963h4.754l9.508-9.48V0H64.778z"/><path d="M73.692 14.223h2.378V7.11h-2.378v7.113zm6.537 0h2.377V7.11H80.23v7.113zm21.396 27.259l-4.16-4.147h-7.727V32H83.2v24.296h6.538V43.852h5.348v12.445h6.539V41.482zm-20.8-4.147H70.72l-4.16 4.147v10.666l4.16 4.149h10.103v-6.518h-7.727v-5.927h7.727v-6.517zm-16.642 0h-5.347V32h-6.539v20.147l4.16 4.149h7.726v-6.518h-5.347v-5.927h5.347v-6.517zM49.92 32h-6.537v2.964h6.537V32zm0 5.334h-6.537v18.962h6.537V37.335zm-8.914 0H34.47v12.444h-2.377V37.335h-6.537v12.444h-2.377V37.335H16.64v18.962h20.207l4.16-4.15V37.336zm-26.743 0H8.915V32H2.378v20.147l4.16 4.149h7.725v-6.518H8.915v-5.927h5.348v-6.517zM104 40.297v17.777L95.086 64h-5.942v-2.964L84.984 64h-5.348v-2.964L76.666 64h-9.51l-2.973-2.964L63.588 64H55.27l-3.402-2.964-.19 2.964h-9.43l-.334-2.964L39.362 64H24.96l-2.972-1.185V64h-7.725l-8.915-5.335L0 53.335V29.63h11.292l5.348 5.334h24.366V29.63h20.206v5.334h5.349v2.962l2.972-2.962h5.942l5.35-5.334h11.29v5.334h6.538L104 40.296z"/></g><defs><clipPath id="clip0"><path fill="#fff" d="M0 0h104v64H0z"/></clipPath></defs></svg>