<svg width="15" height="15" viewBox="0 0 15 15" fill="none" xmlns="http://www.w3.org/2000/svg"><g clip-path="url(#clip0)" fill="#fff"><path d="M.391 7.154L7.396.15a.474.474 0 01.69 0l.752.752a.475.475 0 010 .691L2.931 7.5l5.907 5.907a.475.475 0 010 .691l-.752.752a.475.475 0 01-.69 0L.39 7.846a.475.475 0 010-.692z"/><path d="M6.012 7.5c0-.13.05-.245.15-.346L13.168.15a.474.474 0 01.691 0l.751.752a.474.474 0 010 .691L8.703 7.5l5.906 5.907a.474.474 0 010 .691l-.751.752a.475.475 0 01-.691 0L6.163 7.846a.474.474 0 01-.15-.346z"/></g><defs><clipPath id="clip0"><path transform="matrix(-1 0 0 1 15 0)" fill="#fff" d="M0 0h15v15H0z"/></clipPath></defs></svg>