<svg xmlns="http://www.w3.org/2000/svg" width="512" height="512" viewBox="0 0 40.113 40.113"><g fill="#3242b8"><path d="M36.877 9.479L20.807.201a1.5 1.5 0 0 0-1.5 0L3.236 9.479a1.5 1.5 0 0 0-.75 1.299v18.56a1.5 1.5 0 0 0 .75 1.299l16.07 9.277c.232.134.49.199.75.199s.518-.065.75-.199l16.07-9.277a1.5 1.5 0 0 0 .75-1.299v-18.56a1.491 1.491 0 0 0-.749-1.299zm-2.25 18.99l-14.57 8.411-14.57-8.411V11.644l14.57-8.412 14.57 8.412v16.825z"/><path d="M11.661 10.897l7.702 4.428a.86.86 0 0 0 .13.063l1.311.759a1.255 1.255 0 0 0 1.25 0c.385-.224.622-.637.622-1.081V7.562l-2.618-1.514-8.397 4.849zm12.779 8.912a1.24 1.24 0 0 0 1.248-.003l6.5-3.772v-2.979l-8.373-4.833V18.73c0 .444.238.856.625 1.079zm-1.391 5.017l6.482 3.77 2.654-1.533v-9.708l-7.75 4.5c-.051.026-.094.061-.139.094l-1.248.723a1.246 1.246 0 0 0-.623 1.079c.001.44.239.853.624 1.075zm-4.986-.851a1.248 1.248 0 0 0-.625 1.082v7.495l2.617 1.513 8.336-4.812-9.078-5.272a1.232 1.232 0 0 0-1.25-.006zm-2.386-3.739a1.24 1.24 0 0 0-1.244-.004l-6.508 3.703v3.125l8.373 4.832V21.316a1.253 1.253 0 0 0-.621-1.08zm1.332-4.948l-6.492-3.732-2.592 1.496v9.569l9.08-5.168a1.246 1.246 0 0 0 .004-2.165z"/></g></svg>