<svg xmlns="http://www.w3.org/2000/svg"><symbol id="to-top" viewBox="0 0 512 512"><path d="M256 0C114.51 0 0 114.497 0 256c0 141.49 114.497 256 256 256 141.49 0 256-114.497 256-256C512 114.51 397.503 0 256 0zm89.96 359.701l-89.961-44.539-89.961 44.539c-14.238 7.05-29.589-7.589-23.202-22.151l97.533-222.322c5.967-13.6 25.303-13.571 31.258 0L369.16 337.55c6.448 14.697-9.102 29.132-23.2 22.151z" fill="#3443BF"/></symbol><symbol id="mechanic" viewBox="0 0 360.855 360.855"><g fill="#3242B8"><path d="M180.428 197.204c24.125 0 80.846-29.034 80.846-98.603 0-9.704-.236-19.078-1.036-27.935-1.313-17.431-4.883-32.879-13.772-44.718C235.064 9.837 215.116 0 180.428 0c-34.682 0-54.629 9.833-66.031 25.939-8.895 11.842-12.467 27.294-13.779 44.731-.799 8.856-1.035 18.229-1.035 27.932-.001 69.568 56.72 98.602 80.845 98.602zm26.389-161.081c-2.354 5.951-3.534 8.927-5.89 14.877-15.209-4.297-25.791-4.297-41 0-2.355-5.95-3.535-8.926-5.891-14.877 19.021-5.758 33.763-5.757 52.781 0zm-95.208 47.394c.932 2.037 4.889 9.87 11.014 10.604 7.041.845 18.728-24.935 57.805-24.998 39.076.063 50.764 25.843 57.805 24.998 6.125-.735 10.082-8.567 11.014-10.604.189 4.992.259 10.046.259 15.085 0 34.005-15.015 55.075-27.612 66.762-15.871 14.727-33.493 20.072-41.465 20.072s-25.594-5.345-41.465-20.072c-12.598-11.687-27.612-32.757-27.612-66.762-.001-5.039.068-10.093.257-15.085z"/><path d="M330.52 298.327c-4.128-25.664-12.624-58.724-29.668-70.472-11.64-8.026-52.248-29.721-69.589-38.985l-.293-.156a5.666 5.666 0 0 0-6.169.541c-9.084 7.131-19.034 11.937-29.574 14.284a5.664 5.664 0 0 0-4.066 3.521l-10.733 28.291-10.734-28.291a5.662 5.662 0 0 0-4.066-3.521c-10.539-2.347-20.489-7.153-29.572-14.284a5.668 5.668 0 0 0-6.171-.541c-17.134 9.156-58.239 31.294-69.829 39.107-19.621 13.217-28.199 61.052-29.72 70.507a5.69 5.69 0 0 0 .253 2.793c.416 1.174 6.905 17.982 39.357 31.496a16.123 16.123 0 0 1 7.166-5.152 16.079 16.079 0 0 1-8.437-6.911c-2.88-4.846-2.987-10.927-.286-15.858a47.464 47.464 0 0 1 41.604-24.729c16.138 0 30.767 8.019 39.454 21.053h61.926a47.482 47.482 0 0 1 5.838-7.109c8.95-8.976 20.857-13.928 33.529-13.946h.02c17.336 0 33.29 9.424 41.639 24.602 2.706 4.926 2.615 10.995-.248 15.857a16.085 16.085 0 0 1-8.414 6.931 16.098 16.098 0 0 1 7.268 5.224c32.369-13.507 38.848-30.284 39.264-31.456a5.706 5.706 0 0 0 .251-2.796z"/><path d="M278.414 340.434h-.004l-29.836.041c-.529-1.256-1.545-4.744-1.555-13.065-.014-8.322.99-11.816 1.518-13.075l29.828-.044a2.014 2.014 0 0 0 1.763-2.987 33.48 33.48 0 0 0-29.369-17.342c-8.934.013-17.326 3.505-23.633 9.831a33.31 33.31 0 0 0-7.383 11.225h-78.668c-4.939-12.315-16.992-21.053-31.082-21.053a33.46 33.46 0 0 0-29.318 17.441 2.012 2.012 0 0 0 1.767 2.978h.002l29.836-.047c.531 1.256 1.545 4.744 1.555 13.068.014 8.323-.99 11.815-1.518 13.072l-29.828.045a2.02 2.02 0 0 0-1.732.99 2.016 2.016 0 0 0-.029 1.996 33.465 33.465 0 0 0 29.318 17.346h.049c8.936-.014 17.326-3.506 23.635-9.833a33.321 33.321 0 0 0 7.381-11.228h78.666c4.94 12.319 16.984 21.056 31.039 21.058h.047c12.215-.017 23.451-6.703 29.318-17.438a2.014 2.014 0 0 0-1.767-2.979z"/></g></symbol><symbol id="wrench" viewBox="0 0 382.168 382.168"><g fill="#3242B8"><path d="M314.209 240.87c3.609-8.377 3.902-15.961.89-22.586-1.171-2.585-2.867-4.996-5.021-7.149-3.621-3.62-7.871-5.886-10.941-7.184 2.357-8.145 1.752-15.261-1.791-21.177-.971-1.628-2.192-3.151-3.588-4.578-9.479-9.699-16.645-7.21-16.645-7.21s3.873-15.466-7.336-26.43-21.867-6.279-31.115 3.119l-46.609 46.589c-6.584-2.472-16.945-8.701-27.615-7.477-19.006 2.183-23.959 14.89-26.639 25.527-6.066 24.031-4.262 59.861-11.127 73.705-8.443 17.023-24.977 31.318-24.977 31.318l64.83 64.83c26.396-26.395 51.791-33.232 70.74-41.16 42.943-17.965 64.021-39.473 74.744-51.023 22.235-23.949 5.327-44.737 2.2-49.114zM155.305 50.727l41.797-11.415a67.423 67.423 0 0 0-8.838-14.771A67.25 67.25 0 0 0 148.007.089a4.999 4.999 0 0 0-4.641 1.553 5.006 5.006 0 0 0-1.094 4.77l13.033 44.315z"/><path d="M146.761 136.573l34.324 43.611 45.855-42.509-31.209-39.653c5.265-10.702 7.806-22.612 7.373-34.651a5 5 0 0 0-6.362-4.631L111.73 82.823l-24.598-65a5 5 0 0 0-8.287-1.69c-24.76 25.841-26.75 66.521-4.629 94.628 13.779 17.507 34.479 27.549 56.785 27.55a72.12 72.12 0 0 0 15.76-1.738z"/></g></symbol><symbol id="delivery" viewBox="0 0 612 612"><g fill="#3242B8"><path d="M504.9 395.756c-28.684 0-52.02 23.342-52.02 52.02 0 28.684 23.336 52.02 52.02 52.02 28.678 0 52.02-23.336 52.02-52.02 0-28.678-23.342-52.02-52.02-52.02zm0 67.32c-8.439 0-15.3-6.861-15.3-15.3s6.861-15.3 15.3-15.3 15.3 6.861 15.3 15.3-6.861 15.3-15.3 15.3z"/><path d="M499.918 179.518H410.04c-6.763 0-12.24 5.484-12.24 12.24v238.68c0 6.756 5.477 12.24 12.24 12.24h12.981c6.059 0 11.426-4.364 12.209-10.373 4.804-36.806 34.162-59.633 69.676-59.633s64.872 22.828 69.676 59.633c.783 6.01 6.144 10.373 12.209 10.373h12.968c6.756 0 12.24-5.484 12.24-12.24v-119.34c0-2.876-1.01-5.655-2.852-7.852l-99.842-119.34a12.246 12.246 0 0 0-9.387-4.388zm-77.638 97.92v-61.2c0-6.756 5.477-12.24 12.24-12.24h53.917c3.629 0 7.075 1.616 9.4 4.406l50.998 61.2c6.64 7.974.973 20.074-9.406 20.074H434.52c-6.763 0-12.24-5.477-12.24-12.24zM12.24 442.684h31.341c6.059 0 11.426-4.364 12.209-10.373 4.804-36.806 34.162-59.633 69.676-59.633s64.872 22.828 69.676 59.633c.783 6.01 6.144 10.373 12.209 10.373H361.08c6.757 0 12.24-5.484 12.24-12.24v-306c0-6.756-5.484-12.24-12.24-12.24H12.24c-6.763 0-12.24 5.484-12.24 12.24v306c0 6.757 5.477 12.24 12.24 12.24z"/><path d="M125.46 395.756c-28.684 0-52.02 23.342-52.02 52.02 0 28.684 23.336 52.02 52.02 52.02 28.678 0 52.02-23.336 52.02-52.02 0-28.678-23.342-52.02-52.02-52.02zm0 67.32c-8.439 0-15.3-6.861-15.3-15.3s6.861-15.3 15.3-15.3 15.3 6.861 15.3 15.3-6.861 15.3-15.3 15.3z"/></g></symbol><symbol id="cogs" viewBox="0 0 418.879 418.879"><path d="M188.634 234.066a106.422 106.422 0 0 0 22.767-19.127l23.942 13.826 21.8-37.76-23.894-13.796a105.139 105.139 0 0 0 5.16-29.311l27.183-4.793-7.574-42.938-27.178 4.793a105.7 105.7 0 0 0-14.906-25.744l17.766-21.17-33.4-28.024-17.751 21.152a104.949 104.949 0 0 0-27.954-10.203V13.385h-43.6v27.586a104.962 104.962 0 0 0-27.956 10.203l-17.75-21.152-33.4 28.025 17.764 21.17a105.747 105.747 0 0 0-14.905 25.744L7.57 100.168 0 143.106l27.179 4.793a105.166 105.166 0 0 0 5.161 29.313L8.444 191.007l21.801 37.759 23.943-13.822a106.42 106.42 0 0 0 22.766 19.125l-9.451 25.963 40.972 14.91 9.438-25.928c4.864.688 9.831 1.053 14.882 1.053s10.019-.363 14.883-1.053l9.437 25.93 40.97-14.914-9.451-25.964zm-55.841-34.001c-30.702 0-55.68-24.977-55.68-55.68 0-30.701 24.978-55.68 55.68-55.68s55.68 24.979 55.68 55.68c0 30.703-24.977 55.68-55.68 55.68zm243.248 66.742l-18.795 6.08a75.683 75.683 0 0 0-13.115-16.779l10.504-16.764-26.447-16.57-10.498 16.75a74.99 74.99 0 0 0-20.826-4.471l-2.725-19.559-30.912 4.309 2.725 19.559a75.108 75.108 0 0 0-18.812 9.996l-14.672-13.244-20.912 23.168 14.684 13.259a75.667 75.667 0 0 0-8.02 19.726l-19.744-.714-1.129 31.188 19.743.716a75.277 75.277 0 0 0 6.558 20.271l-15.578 12.143 19.185 24.615 15.609-12.164a76.371 76.371 0 0 0 18.031 11.311l-4.138 19.344 30.522 6.52 4.133-19.314c3.516.01 7.072-.229 10.652-.727a76.217 76.217 0 0 0 10.447-2.215l9.256 17.451 27.574-14.623-9.266-17.471a76.307 76.307 0 0 0 14.252-15.812l18.338 7.436 11.727-28.924-18.303-7.422a75.589 75.589 0 0 0 .764-21.293l18.799-6.084-9.611-29.692zm-78.912 83.199c-21.771 3.031-41.949-12.209-44.98-33.977-3.037-21.769 12.207-41.949 33.977-44.979 21.768-3.036 41.941 12.207 44.98 33.978 3.029 21.767-12.21 41.941-33.977 44.978zm121.017-191.359l.732-24.629-15.586-.463a59.753 59.753 0 0 0-5.285-15.971l12.24-9.67-15.271-19.33-12.238 9.666a59.705 59.705 0 0 0-14.318-8.816l3.164-15.291-24.123-4.996-3.17 15.281a59.165 59.165 0 0 0-16.641 2.412l-7.391-13.727-21.695 11.684 7.391 13.729a59.377 59.377 0 0 0-11.176 12.566l-14.496-5.77-9.111 22.893 14.508 5.779a59.69 59.69 0 0 0-.514 16.799l-14.809 4.898 7.732 23.395 14.809-4.896a59.42 59.42 0 0 0 10.426 13.201l-8.191 13.268 20.963 12.946 8.209-13.292a60.239 60.239 0 0 0 16.453 3.414l2.252 15.453 24.383-3.561-2.246-15.434a59.551 59.551 0 0 0 7.684-3.463 59.632 59.632 0 0 0 7.123-4.51l11.648 10.371 16.387-18.398-11.656-10.383a60.324 60.324 0 0 0 6.203-15.619l15.61.464zm-58.71 13.197c-15.281 8.227-34.404 2.492-42.627-12.783-8.23-15.277-2.494-34.404 12.787-42.627 15.273-8.229 34.395-2.49 42.625 12.787 8.222 15.278 2.49 34.395-12.785 42.623z" fill="#3242B8"/></symbol><symbol id="phone-header" viewBox="0 0 365.449 365.449"><path d="M281.507 10.85C274.279 3.614 265.71 0 255.813 0H109.637c-9.9 0-18.464 3.617-25.697 10.85-7.233 7.229-10.85 15.796-10.85 25.693v292.361c0 9.896 3.617 18.462 10.85 25.693 7.233 7.234 15.797 10.852 25.697 10.852h146.176c9.896 0 18.466-3.621 25.693-10.852 7.234-7.231 10.852-15.797 10.852-25.693V36.543c0-9.897-3.613-18.46-10.851-25.693zM159.885 36.543h45.685c3.046 0 4.565 1.523 4.565 4.569 0 3.045-1.52 4.57-4.565 4.57h-45.685c-3.045 0-4.568-1.525-4.568-4.57-.001-3.046 1.522-4.569 4.568-4.569zm38.976 308.493c-4.476 4.469-9.852 6.707-16.135 6.707-6.28 0-11.656-2.238-16.13-6.707-4.474-4.477-6.711-9.856-6.711-16.132 0-6.283 2.24-11.66 6.711-16.133 4.471-4.469 9.851-6.714 16.13-6.714 6.284 0 11.66 2.245 16.135 6.714 4.473 4.473 6.708 9.85 6.708 16.133s-2.238 11.656-6.708 16.132zm66.093-61.811c0 2.471-.903 4.62-2.714 6.424-1.813 1.807-3.949 2.707-6.42 2.707H109.637c-2.474 0-4.615-.903-6.423-2.707s-2.712-3.953-2.712-6.424V82.229c0-2.474.903-4.617 2.712-6.423 1.809-1.805 3.949-2.714 6.423-2.714h146.176c2.478 0 4.616.905 6.427 2.714 1.811 1.807 2.71 3.949 2.71 6.423v200.995h.004z" fill="#FFF"/></symbol><symbol id="email-header" viewBox="0 0 511.626 511.626"><g fill="#FFF"><path d="M49.106 178.729c6.472 4.567 25.981 18.131 58.528 40.685 32.548 22.554 57.482 39.92 74.803 52.099 1.903 1.335 5.946 4.237 12.131 8.71 6.186 4.476 11.326 8.093 15.416 10.852 4.093 2.758 9.041 5.852 14.849 9.277 5.806 3.422 11.279 5.996 16.418 7.7 5.14 1.718 9.898 2.569 14.275 2.569h.575c4.377 0 9.137-.852 14.277-2.569 5.137-1.704 10.615-4.281 16.416-7.7 5.804-3.429 10.752-6.52 14.845-9.277 4.093-2.759 9.229-6.376 15.417-10.852 6.184-4.477 10.232-7.375 12.135-8.71 17.508-12.179 62.051-43.11 133.615-92.79 13.894-9.703 25.502-21.411 34.827-35.116 9.332-13.699 13.993-28.07 13.993-43.105 0-12.564-4.523-23.319-13.565-32.264-9.041-8.947-19.749-13.418-32.117-13.418H45.679c-14.655 0-25.933 4.948-33.832 14.844C3.949 79.562 0 91.934 0 106.779c0 11.991 5.236 24.985 15.703 38.974 10.466 13.99 21.604 24.983 33.403 32.976z"/><path d="M483.072 209.275c-62.424 42.251-109.824 75.087-142.177 98.501-10.849 7.991-19.65 14.229-26.409 18.699-6.759 4.473-15.748 9.041-26.98 13.702-11.228 4.668-21.692 6.995-31.401 6.995h-.578c-9.707 0-20.177-2.327-31.405-6.995-11.228-4.661-20.223-9.229-26.98-13.702-6.755-4.47-15.559-10.708-26.407-18.699-25.697-18.842-72.995-51.68-141.896-98.501C17.987 202.047 8.375 193.762 0 184.437v226.685c0 12.57 4.471 23.319 13.418 32.265 8.945 8.949 19.701 13.422 32.264 13.422h420.266c12.56 0 23.315-4.473 32.261-13.422 8.949-8.949 13.418-19.694 13.418-32.265V184.437c-8.186 9.132-17.7 17.417-28.555 24.838z"/></g></symbol><symbol id="exchange" viewBox="0 0 490.054 490.054"><path d="M469.577 101.961h-393.6l74.9-65.8c8.3-8.3 9.4-20.9 2.1-29.2-7.3-8.3-20.8-9.4-29.1-2.1l-116.5 102.4c-8.7 8.7-9.2 22 0 31.3l116.5 103.3c12.3 10.2 25 3.1 29.1-1 7.3-8.3 6.2-21.9-2.1-29.2l-77.3-67.8h394.9c11.3 0 21.5-9.4 21.5-20.9.1-11.6-9.1-21-20.4-21zm12.2 248.4l-116.5-103.3c-8.3-7.3-21.8-6.3-29.1 2.1-7.3 8.3-6.2 21.9 2.1 29.2l76.1 66.8h-394c-11.2 0-20.3 9.4-20.3 20.9s9.1 20.9 20.3 20.9h393.9l-76.1 66.8c-8.3 8.3-9.4 20.9-2.1 29.2 11.9 12.6 25 5.2 29.1 2.1l116.5-103.3c10-10 9.9-21.5.1-31.4z" fill="#3242B8"/></symbol><symbol id="sales" viewBox="0 0 443.615 443.615"><path d="M209.949 100.813C209.949 45.232 164.725 0 109.144 0 53.562 0 8.346 45.232 8.346 100.813c0 55.566 45.216 100.782 100.798 100.782 55.581.001 100.805-45.215 100.805-100.782zm-151.53 0c0-27.986 22.754-50.74 50.725-50.74 27.969 0 50.732 22.754 50.732 50.74 0 27.954-22.763 50.709-50.732 50.709-27.971 0-50.725-22.754-50.725-50.709zM334.473 242.02c-55.583 0-100.799 45.216-100.799 100.782 0 55.582 45.216 100.814 100.799 100.814 55.581 0 100.797-45.231 100.797-100.814 0-55.567-45.216-100.782-100.797-100.782zm0 151.522c-27.971 0-50.726-22.755-50.726-50.74 0-27.954 22.755-50.709 50.726-50.709 27.969 0 50.724 22.755 50.724 50.709-.001 27.985-22.756 50.74-50.724 50.74zm3.104-380.617c-13.081-7.254-29.616-2.574-36.91 10.515L94.896 392.923c-7.294 13.089-2.59 29.616 10.505 36.919a27.164 27.164 0 0 0 13.179 3.423c9.527 0 18.77-5.02 23.733-13.936l205.77-369.484c7.293-13.09 2.592-29.617-10.506-36.92z" fill="#3242B8"/></symbol><symbol id="clock" viewBox="0 0 299.998 299.998"><path d="M149.997 0C67.157 0 .001 67.158.001 149.995s67.156 150.003 149.995 150.003 150-67.163 150-150.003S232.836 0 149.997 0zm10.358 168.337c-.008.394-.067.788-.122 1.183-.039.296-.057.599-.124.89-.067.303-.182.602-.28.905-.117.366-.226.731-.379 1.076-.029.06-.039.124-.065.184-.226.482-.488.934-.775 1.362-.018.026-.042.052-.06.078-.327.48-.7.916-1.092 1.325-.109.112-.22.213-.335.319-.345.329-.708.63-1.094.905-.119.086-.233.176-.358.259-.495.324-1.014.609-1.554.843-.117.052-.239.083-.358.13a10.425 10.425 0 0 1-1.909.542c-.612.112-1.232.189-1.86.189-.127 0-.257-.039-.384-.044-.602-.023-1.198-.07-1.771-.192-.179-.039-.355-.117-.534-.166a10.53 10.53 0 0 1-1.554-.529c-.057-.029-.117-.034-.174-.06l-57.515-27.129c-5.182-2.443-7.402-8.626-4.959-13.808 2.443-5.179 8.626-7.402 13.808-4.959l42.716 20.144V62.249c0-5.729 4.645-10.374 10.374-10.374s10.374 4.645 10.374 10.374V168.15h.002c0 .062-.018.124-.018.187z" fill="#4959CF"/></symbol><symbol id="marker" viewBox="0 0 299.997 299.997"><g fill="#4959CF"><circle cx="150.437" cy="110.572" r="24.149"/><path d="M149.996 0C67.157 0 .001 67.158.001 149.997c0 82.837 67.156 150 149.995 150s150-67.163 150-150C299.996 67.158 232.835 0 149.996 0zm-.311 68.678c.106 0 .21-.005.314-.01.104.005.207.01.314.01 25.274.399 45.834 21.288 45.834 46.568 0 30.908-33.024 62.205-46.148 73.419-.877-.75-1.849-1.595-2.889-2.521-.018-.016-.034-.029-.049-.044-14.524-12.906-43.209-42.045-43.209-70.854-.001-25.28 20.561-46.168 45.833-46.568zm.965 163.572c-27.663 0-55.669-7.936-55.669-23.098 0-10.641 13.79-17.717 31.569-20.995a219.685 219.685 0 0 0 9.55 9.049c-19.366 2.163-30.744 8.294-30.744 11.943 0 4.484 17.195 12.724 45.294 12.724 28.099 0 45.297-8.24 45.297-12.724 0-3.724-11.858-10.009-31.927-12.052a220.98 220.98 0 0 0 9.627-9.142c18.313 3.188 32.674 10.335 32.674 21.197 0 15.162-28.006 23.098-55.671 23.098z"/></g></symbol><symbol id="phone" viewBox="0 0 300 300"><g fill="#4959CF"><circle cx="150.001" cy="226.085" r="11.718"/><path d="M182.691 68.248h-65.382c-3.665 0-6.647 2.843-6.647 6.331v123.592c0 3.491 2.98 6.331 6.647 6.331h65.382c3.665 0 6.647-2.843 6.647-6.331V74.579c-.002-3.491-2.982-6.331-6.647-6.331z"/><path d="M149.996 0C67.157 0 .001 67.161.001 149.997S67.157 300 149.996 300s150.003-67.163 150.003-150.003S232.835 0 149.996 0zm58.358 224.021c0 11.458-9.29 20.749-20.749 20.749h-75.214c-11.458 0-20.749-9.29-20.749-20.749V75.323c0-11.458 9.29-20.749 20.749-20.749h75.214c11.458 0 20.749 9.29 20.749 20.749v148.698z"/></g></symbol><symbol id="email" viewBox="0 0 299.997 299.997"><path d="M149.996 0C67.157 0 .001 67.158.001 149.997c0 82.837 67.156 150 149.995 150s150-67.163 150-150C299.996 67.158 232.835 0 149.996 0zm.003 52.686l88.763 55.35H61.236l88.763-55.35zm89.869 143.737h-.009c0 8.878-7.195 16.072-16.072 16.072H76.211c-8.878 0-16.072-7.195-16.072-16.072v-84.865c0-.939.096-1.852.252-2.749l84.808 52.883c.104.065.215.109.322.169.112.062.226.122.34.179a8.903 8.903 0 0 0 1.847.721c.065.018.13.026.195.041a9.148 9.148 0 0 0 2.093.265h.015c.7 0 1.401-.099 2.093-.265.065-.016.13-.023.195-.041a8.99 8.99 0 0 0 1.847-.721 9.19 9.19 0 0 0 .34-.179c.106-.06.218-.104.322-.169l84.808-52.883c.156.897.252 1.808.252 2.749v84.865z" fill="#4959CF"/></symbol></svg>