<svg width="302" height="76" viewBox="0 0 302 76" fill="none" xmlns="http://www.w3.org/2000/svg"><path d="M108.495 18.614l-.275 1.831h-5.678l-.733 4.213h5.678l-.275 1.832h-5.769l-.733 4.213h5.678l-.275 1.831h-7.418l2.473-13.828h7.327v-.092zm9.982 0h1.832l-1.74 9.708c-.367 1.099-1.008 2.014-1.832 2.839-1.099.915-2.29 1.373-3.572 1.373s-2.289-.458-3.113-1.373c-.733-.916-1.008-2.015-.825-3.297l1.649-9.25h1.831l-1.648 9.25c-.183.824 0 1.465.458 2.014.458.55 1.099.825 1.923.825a3.28 3.28 0 002.198-.825c.641-.55 1.099-1.282 1.191-2.014l1.648-9.25zm5.861 1.831l-1.007 5.77h1.648a3.28 3.28 0 002.198-.824c.641-.55 1.099-1.282 1.191-2.106.183-.825 0-1.466-.458-2.015-.458-.55-1.099-.825-1.923-.825h-1.649zm.275 7.602h-1.648l-.825 4.396h-1.831l2.472-13.83h3.938c1.099.184 1.924.642 2.565 1.375.732.915 1.007 2.014.824 3.297-.183 1.282-.916 2.38-1.923 3.296-.733.642-1.282 1.008-1.649 1.1l2.198 4.762h-2.198l-1.923-4.396zm15.294-9.616c1.923 0 3.48.732 4.671 2.106 1.099 1.374 1.557 3.022 1.19 5.037-.366 1.923-1.373 3.663-2.93 5.037-1.649 1.374-3.389 2.107-5.404 2.107-1.923 0-3.48-.733-4.67-2.107-1.099-1.374-1.557-3.022-1.191-5.037.367-1.923 1.374-3.663 2.931-5.037 1.648-1.374 3.388-2.106 5.403-2.106zm-.366 1.831c-1.465 0-2.839.55-4.03 1.557-1.19 1.008-1.923 2.29-2.198 3.755-.274 1.465 0 2.747.916 3.755.824 1.007 2.015 1.557 3.48 1.557 1.466 0 2.839-.55 4.03-1.557 1.19-1.008 1.923-2.29 2.198-3.755.275-1.465 0-2.747-.916-3.755-.824-1.099-2.015-1.557-3.48-1.557zm9.891 7.785l-.824 4.396h-1.832l2.473-13.83h3.938c1.099.184 1.923.642 2.564 1.375.733.915 1.007 2.014.824 3.297-.183 1.282-.916 2.38-1.923 3.296-1.099.916-2.29 1.374-3.572 1.374h-1.648v.092zm1.374-7.602l-1.008 5.77h1.649c.824 0 1.556-.275 2.198-.824.641-.55 1.098-1.282 1.19-2.106.183-.825 0-1.466-.458-2.015-.458-.55-1.099-.825-1.923-.825h-1.648zm15.843-1.831l-.275 1.831h-5.678l-.732 4.213h5.678l-.275 1.832h-5.678l-.733 4.213h5.678l-.274 1.831h-7.419l2.473-13.828h7.235v-.092zm6.96 7.143l-.641-3.205-1.74 3.205h2.381zm.55-7.143l2.564 13.829H174.8l-.916-4.854h-3.663l-2.656 4.854h-1.923l7.509-13.83h1.008zm6.777 0h1.648l3.938 9.89 1.741-9.89h1.831l-2.473 13.829h-1.556l-4.03-9.983-1.74 9.983h-1.832l2.473-13.83zm-78.029 25.002l1.282.55c-.457.458-.732.824-.915.916-.916.732-1.924 1.099-2.931 1.099-1.099 0-1.923-.367-2.564-1.1-.641-.732-.825-1.648-.641-2.747.183-1.099.732-2.015 1.648-2.747.916-.733 1.923-1.1 2.931-1.1 1.099 0 1.923.367 2.564 1.1.092.183.366.458.55.915l-1.557.55c-.184-.183-.275-.366-.275-.458a1.956 1.956 0 00-1.557-.733c-.641 0-1.282.275-1.832.733-.55.458-.915 1.099-1.007 1.74-.092.641 0 1.282.366 1.74.367.458.916.733 1.557.733.641 0 1.282-.275 1.832-.733.183-.091.275-.275.549-.458zm4.488-8.517h1.465l-.824 4.67c.549-.732 1.19-1.098 1.923-1.098.733 0 1.282.275 1.649.824.366.55.458 1.19.366 2.015l-.824 4.579h-1.374l.824-4.487a1.27 1.27 0 00-.183-1.008c-.183-.275-.549-.458-1.007-.458-.55 0-1.099.275-1.557.916l-.916 5.037h-1.465l1.923-10.99zm12.455 7.785l.183-1.008c0-.458-.183-.824-.458-1.19a1.956 1.956 0 00-1.557-.733c-.641 0-1.282.275-1.831.733-.55.458-.916 1.007-1.008 1.74-.091.64 0 1.282.367 1.74.366.458.915.732 1.556.732.642 0 1.283-.274 1.832-.732.458-.458.733-.916.916-1.282zm.641-3.389l.092-.458h1.465l-1.282 7.052H119.3l.184-.916c-.825.733-1.649 1.1-2.565 1.1-1.099 0-1.923-.367-2.564-1.1-.641-.733-.824-1.648-.641-2.747.183-1.1.733-2.015 1.648-2.748.916-.732 1.924-1.099 2.931-1.099.916-.183 1.649.183 2.198.916zm3.572-.55h1.373l-.091.642c.366-.733 1.007-1.008 1.74-1.008.733 0 1.099.367 1.099 1.19.366-.823 1.007-1.19 2.015-1.19 1.007 0 1.373.641 1.19 1.832l-1.007 5.586h-1.465l.915-4.945c.092-.733-.091-1.007-.641-1.007a.832.832 0 00-.641.274c-.183.183-.366.733-.549 1.649l-.733 4.121h-1.374l.916-4.945c.092-.733-.091-1.008-.641-1.008a.83.83 0 00-.641.275c-.183.183-.275.55-.458 1.099l-.824 4.579h-1.374l1.191-7.143zm10.623 2.84l-.183 1.099c0 .458.183.824.458 1.19.366.458.916.733 1.557.733.641 0 1.282-.275 1.832-.733.549-.458.915-1.007 1.007-1.74.092-.641 0-1.282-.366-1.74a1.957 1.957 0 00-1.557-.733c-.641 0-1.282.275-1.832.733-.458.366-.824.733-.916 1.19zm-.641 3.388l-.549 3.206h-1.374l1.648-9.433h1.374l-.091.64c.824-.824 1.648-1.19 2.564-1.19 1.099 0 1.923.366 2.564 1.099s.824 1.649.641 2.748c-.183 1.099-.732 2.014-1.648 2.747-.916.733-1.832 1.099-2.931 1.099-.916.092-1.648-.275-2.198-.916zm10.624-6.227l-1.282 7.051h-1.374l1.282-7.051h1.374zm-.183-2.84c.274 0 .457.092.641.275.183.184.183.458.183.733-.092.275-.183.55-.458.733-.183.183-.458.274-.733.274a.83.83 0 01-.641-.274c-.183-.184-.183-.458-.183-.733.092-.275.183-.55.458-.733.183-.183.458-.274.733-.274zm5.952 2.29c1.099 0 1.924.366 2.565 1.099s.824 1.649.641 2.748c-.183 1.099-.733 2.014-1.649 2.747-.916.733-1.923 1.099-2.93 1.099-1.099 0-1.924-.366-2.565-1.099s-.824-1.648-.641-2.748c.183-1.098.733-2.014 1.649-2.747.824-.733 1.831-1.099 2.93-1.099zm-.274 1.465c-.641 0-1.283.275-1.832.733-.549.458-.916 1.099-1.007 1.74-.092.641 0 1.282.366 1.74.366.458.916.733 1.557.733.641 0 1.282-.275 1.831-.733.55-.458.916-1.007 1.008-1.74.091-.641 0-1.282-.366-1.74a1.957 1.957 0 00-1.557-.733zm6.777 1.008l-.916 5.128h-1.465l1.282-7.051h1.465l-.183.824c.458-.824 1.099-1.19 2.015-1.19.732 0 1.282.274 1.648.824.366.549.458 1.19.366 2.014l-.824 4.58h-1.374l.825-4.488c.091-.366 0-.733-.275-1.008-.275-.274-.55-.457-1.007-.457a1.69 1.69 0 00-1.099.457c-.275.092-.367.275-.458.367zm7.052 3.205c0 .183 0 .367.091.458.183.183.366.275.55.275a.832.832 0 00.641-.275c.183-.183.274-.366.366-.641 0-.275 0-.458-.183-.55-.092-.091-.275-.274-.641-.549-.458-.275-.824-.55-.916-.733-.275-.366-.458-.824-.366-1.373.091-.55.366-1.008.824-1.374.458-.366.916-.55 1.465-.55.55 0 .916.184 1.191.55.183.275.274.55.366.824l-1.465.366c0-.091 0-.183-.092-.183-.091-.091-.183-.091-.275-.091-.183 0-.274.091-.366.183-.092.091-.183.183-.183.366 0 .092 0 .275.091.367.092.091.275.183.55.458.549.274.916.549 1.099.824.366.458.458 1.007.366 1.557-.091.64-.458 1.19-.916 1.648-.549.458-1.099.641-1.74.641s-1.099-.183-1.465-.64c-.275-.276-.366-.642-.366-1.1l1.374-.458zm6.41-8.975h1.466l-.825 4.67c.55-.732 1.191-1.098 1.924-1.098.732 0 1.282.275 1.648.824.366.55.458 1.19.366 2.015l-.824 4.579h-1.374l.825-4.487c.091-.367 0-.733-.184-1.008-.183-.275-.549-.458-1.007-.458-.549 0-1.099.275-1.557.916l-.916 5.037h-1.465l1.923-10.99zm8.517 3.847l-1.282 7.051h-1.373l1.282-7.051h1.373zm-.183-2.84a.83.83 0 01.641.275c.183.184.183.458.183.733-.091.275-.183.55-.457.733-.275.183-.458.274-.733.274a.83.83 0 01-.641-.274c-.183-.184-.183-.458-.183-.733.091-.275.183-.55.458-.733.183-.183.457-.274.732-.274zm3.297 5.679l-.183 1.099c0 .458.183.824.458 1.19.366.458.916.733 1.557.733.641 0 1.282-.275 1.831-.733.55-.458.916-1.007 1.008-1.74.091-.641 0-1.282-.366-1.74a1.957 1.957 0 00-1.557-.733c-.641 0-1.283.275-1.832.733-.458.366-.824.733-.916 1.19zm-.641 3.388l-.549 3.206h-1.374l1.648-9.433h1.374l-.091.64c.824-.824 1.648-1.19 2.564-1.19 1.099 0 1.923.366 2.564 1.099s.824 1.649.641 2.748c-.183 1.099-.732 2.014-1.648 2.747-.916.733-1.924 1.099-2.931 1.099-.916.092-1.648-.275-2.198-.916z" fill="#0073CC"/><path d="M189.362 51.859l-.824 4.67h1.282c.641 0 1.19-.183 1.74-.64.549-.458.824-1.008 1.007-1.649.092-.641 0-1.19-.366-1.648-.366-.458-.916-.642-1.557-.642h-1.282v-.091zm.275 6.044h-1.283l-.641 3.48h-1.465l1.923-10.99h3.114c.824.092 1.557.459 2.015 1.1.641.732.824 1.648.641 2.655-.183 1.008-.733 1.924-1.557 2.656-.549.55-1.007.825-1.282.825l1.74 3.754h-1.74l-1.465-3.48zm7.326 3.664c-.916 0-1.557-.275-2.015-.825-.458-.55-.641-1.19-.458-2.014l.733-4.305h1.465l-.732 4.213c-.092.366 0 .733.275 1.007.274.275.549.458 1.007.458a1.69 1.69 0 001.099-.458c.366-.274.549-.64.641-1.099l.733-4.212h1.465l-.733 4.304c-.183.824-.549 1.465-1.19 2.015-.733.64-1.466.916-2.29.916zm6.136-2.107c0 .183 0 .367.092.458.183.183.366.275.549.275a.83.83 0 00.641-.275c.183-.183.275-.366.367-.641 0-.275 0-.458-.184-.641a5.373 5.373 0 00-.641-.55c-.457-.274-.824-.55-1.007-.732-.275-.367-.458-.825-.366-1.374.091-.55.366-1.007.824-1.374.458-.366.916-.55 1.465-.55.55 0 .916.184 1.191.55.183.275.366.55.366.825l-1.465.366c0-.092 0-.183-.092-.183-.091-.092-.183-.092-.275-.092-.183 0-.274.092-.366.183-.091.092-.183.184-.183.367 0 .091 0 .274.092.366.091.091.274.183.549.458.55.275.916.641 1.099.824.366.458.458 1.008.366 1.649-.091.64-.457 1.19-.915 1.648-.55.458-1.099.641-1.74.641-.642 0-1.1-.183-1.466-.641-.275-.275-.366-.733-.366-1.19l1.465-.367zm5.587 0c0 .183 0 .367.091.458.183.183.367.275.55.275a.83.83 0 00.641-.275c.183-.183.275-.366.366-.641 0-.275 0-.458-.183-.641-.092-.092-.275-.275-.641-.55-.458-.274-.824-.55-1.007-.732-.275-.367-.458-.825-.367-1.374.092-.55.367-1.007.824-1.374.458-.366.916-.55 1.466-.55.549 0 .916.184 1.19.55.183.275.367.55.367.825l-1.466.366c0-.092 0-.183-.091-.183-.092-.092-.183-.092-.275-.092-.183 0-.275.092-.366.183-.092.092-.184.184-.184.367 0 .091 0 .274.092.366.092.091.275.183.55.458.549.275.915.641 1.099.824.366.458.457 1.008.366 1.649-.092.64-.458 1.19-.916 1.648-.549.458-1.099.641-1.74.641s-1.099-.183-1.465-.641c-.275-.275-.367-.733-.367-1.19l1.466-.367zm7.326-5.128l-1.282 7.051h-1.465l1.282-7.051h1.465zm-.274-2.931c.274 0 .457.092.641.275.183.183.183.458.183.732-.092.275-.183.55-.458.733-.275.183-.458.275-.733.275a.83.83 0 01-.641-.275c-.183-.183-.183-.458-.183-.733.091-.274.183-.55.458-.732.275-.183.458-.275.733-.275zm7.418 6.777l.183-1.007c0-.458-.183-.825-.458-1.191-.366-.458-.916-.733-1.649-.733-.641 0-1.282.275-1.831.733-.55.458-.916 1.099-1.008 1.74-.091.641 0 1.282.367 1.74.366.458.916.733 1.648.733.641 0 1.282-.275 1.832-.733.458-.366.732-.824.916-1.282zm.641-3.297l.091-.458h1.466l-1.283 7.052h-1.465l.183-.916c-.824.733-1.648 1.1-2.564 1.1-1.099 0-1.923-.367-2.564-1.191-.641-.733-.825-1.649-.641-2.748.183-1.099.732-2.015 1.648-2.747.916-.733 1.923-1.19 2.931-1.19.824 0 1.557.365 2.198 1.098zm-121.531-4.854l-.274 1.465h-4.488l-.64 3.389h4.487l-.275 1.465h-4.488l-.55 3.389h4.488l-.274 1.465h-5.953l1.923-10.99h6.044v-.183zm5.587 3.938l-2.29 2.381 1.832 4.762h-1.74l-1.282-3.571-.092.091-.641 3.48h-1.465l1.74-9.707h1.465l-.732 4.03 1.373-1.374h1.832v-.092zm7.601 3.938l.183-1.008c0-.457-.183-.824-.457-1.19-.367-.458-.916-.733-1.649-.733-.641 0-1.282.275-1.832.733-.549.458-.915 1.099-1.007 1.74-.092.641 0 1.282.366 1.74.367.458.916.733 1.649.733.641 0 1.282-.275 1.831-.733.458-.458.733-.824.916-1.282zm.55-3.389l.091-.458h1.466l-1.282 7.052h-1.466l.183-.915c-.824.732-1.648 1.099-2.564 1.099-1.099 0-1.923-.367-2.564-1.191-.641-.733-.824-1.649-.641-2.748.183-1.099.732-2.014 1.648-2.747.916-.733 1.923-1.19 2.931-1.19.916 0 1.648.366 2.198 1.098zm4.487-.55l.458-2.655h1.466l-.458 2.656h1.282l-.275 1.465h-1.374l-1.007 5.678h-1.465l1.007-5.678h-1.282l.275-1.465h1.373zm5.495 5.496c.183.183.641.275 1.282.275s1.282-.275 1.832-.733l.458-.458 1.374.55c-.458.457-.733.824-.916.915-.916.733-1.923 1.19-3.022 1.19-1.099 0-1.924-.365-2.565-1.19-.641-.732-.824-1.648-.641-2.747.183-1.1.733-2.015 1.649-2.748.916-.732 1.923-1.19 2.93-1.19.916 0 1.649.275 2.29.824l.275.275c0 .091.183.183.274.458l-.824.732-4.396 3.847zm3.206-4.396c-.184-.092-.458-.183-1.008-.183-.641 0-1.282.275-1.831.732-.55.458-.916 1.1-1.008 1.74-.091.55-.091.916 0 1.1l3.847-3.39zm5.494-.092c.642-.732 1.374-1.099 2.198-1.099l-.274 1.466c-.55 0-1.008.183-1.374.458-.549.458-.916 1.007-1.007 1.648l-.642 3.663h-1.465l1.282-7.051h1.466l-.184.915zm5.037-1.007l-1.282 7.052h-1.465l1.282-7.052h1.465zm-.183-2.84a.83.83 0 01.641.276c.184.183.184.457.184.732-.092.275-.184.55-.458.733-.275.183-.458.275-.733.275a.83.83 0 01-.641-.275c-.183-.183-.183-.458-.183-.733.091-.275.183-.55.458-.732.274-.184.458-.275.732-.275zm3.48 4.763l-.915 5.22h-1.466l1.282-7.051h1.466l-.183.824c.457-.825 1.099-1.19 2.014-1.19.733 0 1.283.274 1.649.823.366.55.458 1.191.366 2.015l-.824 4.58h-1.465l.824-4.58c.092-.366 0-.733-.275-1.007-.275-.275-.549-.458-1.007-.458-.367 0-.824.183-1.099.458l-.367.366zm7.693.916l-.183 1.099c0 .458.183.824.458 1.19.366.458.916.733 1.649.733.641 0 1.282-.275 1.831-.733.55-.457.916-1.099 1.008-1.74.091-.64 0-1.282-.458-1.74-.367-.457-.916-.732-1.649-.732-.641 0-1.282.275-1.831.732-.367.367-.642.733-.825 1.19zm-.549 3.389l-.183.915h-1.466l1.924-10.99h1.465l-.733 4.396c.824-.732 1.649-1.099 2.565-1.099 1.099 0 1.923.367 2.564 1.191.641.733.824 1.648.641 2.747-.183 1.1-.733 2.015-1.649 2.748-.915.733-1.923 1.19-2.93 1.19-.916 0-1.649-.366-2.198-1.098zm10.99 1.007c-.916 0-1.557-.275-2.015-.824-.458-.55-.641-1.19-.458-2.015l.733-4.304h1.465l-.733 4.212c-.091.367 0 .733.275 1.008.275.274.55.458 1.007.458a1.69 1.69 0 001.099-.458c.367-.275.55-.641.642-1.1l.732-4.212h1.465l-.732 4.304c-.183.825-.55 1.466-1.191 2.015-.641.641-1.373.916-2.289.916zm7.509-6.228c.642-.732 1.374-1.099 2.198-1.099l-.274 1.466c-.55 0-1.008.183-1.374.458-.55.458-.916 1.007-1.007 1.648l-.642 3.663h-1.465l1.282-7.051h1.466l-.184.915zm9.159 1.832c0-.458-.184-.824-.458-1.19-.367-.458-.916-.733-1.649-.733-.641 0-1.282.275-1.831.732-.55.458-.916 1.1-1.008 1.74-.091.642 0 1.283.367 1.74.366.458.915.733 1.648.733.733 0 1.282-.275 1.832-.733.458-.366.732-.732.824-1.19l.275-1.1zm.458-2.29l.091-.458h1.465l-.915 5.312c-.275 1.374-.825 2.473-1.649 3.206-.916.64-1.832 1.007-2.931 1.007s-1.923-.366-2.564-1.007c-.091-.184-.366-.458-.549-.916l1.465-.55c.183.184.275.367.275.458.366.458.916.733 1.648.733 1.099 0 2.015-.733 2.748-2.198-.641.824-1.466 1.282-2.565 1.282s-1.923-.366-2.564-1.099-.824-1.648-.641-2.747c.183-1.1.733-2.015 1.649-2.748.915-.733 1.923-1.19 2.93-1.19.824-.184 1.557.183 2.107.915z" fill="#ED1C24"/><path d="M231.215 61.383c.549-1.649 1.19-2.656 1.923-3.206.733-.549 1.465-.915 2.015-1.282a9.27 9.27 0 001.465-1.19c.458-.458.733-.916.824-1.374.092-.55 0-.916-.274-1.282-.275-.366-.733-.55-1.191-.55-.458 0-1.007.184-1.374.55-.366.275-.641.824-.824 1.557l-1.19-.458c.274-.916.732-1.557 1.282-2.015.732-.641 1.557-.916 2.381-.916.916 0 1.557.275 2.106.916.55.641.641 1.374.55 2.29-.183.824-.55 1.648-1.282 2.29-.458.365-.916.823-1.557 1.19-.55.366-1.191.824-1.923 1.282-.642.366-1.008.733-1.1 1.007h4.763l-.275 1.282h-6.319v-.091zm14.745-6.502c.091-.642 0-1.191-.367-1.557-.366-.458-.824-.641-1.465-.641-.641 0-1.191.183-1.74.64-.55.459-.824 1.008-.916 1.558l-.549 3.113c-.092.641 0 1.19.366 1.557.366.458.824.641 1.465.641.641 0 1.191-.183 1.74-.64.55-.459.824-1.008.916-1.558l.55-3.113zm.824 3.113c-.183 1.008-.641 1.832-1.466 2.565-.824.732-1.74 1.007-2.747 1.007s-1.74-.366-2.381-1.007c-.55-.733-.733-1.557-.641-2.565l.549-3.113c.184-1.008.641-1.832 1.466-2.565.824-.732 1.74-1.007 2.747-1.007 1.008 0 1.74.366 2.381 1.007.55.733.733 1.557.641 2.565l-.549 3.113zm.824 3.389c.55-1.649 1.191-2.656 1.923-3.206.733-.549 1.466-.915 2.015-1.282a9.224 9.224 0 001.465-1.19c.458-.458.733-.916.825-1.374.091-.55 0-.916-.275-1.282s-.733-.55-1.191-.55c-.458 0-1.007.184-1.373.55-.367.275-.641.824-.825 1.557l-1.19-.458c.275-.916.732-1.557 1.282-2.015.733-.641 1.557-.916 2.381-.916.916 0 1.557.275 2.106.916.55.641.642 1.374.55 2.29-.183.824-.55 1.648-1.282 2.29-.458.365-.916.823-1.557 1.19-.55.366-1.191.824-1.923 1.282-.641.366-1.008.733-1.099 1.007h4.762l-.275 1.282h-6.319v-.091zm14.836-6.502c.092-.642 0-1.191-.366-1.557-.366-.458-.824-.641-1.465-.641-.641 0-1.191.183-1.74.64-.55.459-.825 1.008-.916 1.558l-.55 3.113c-.091.641 0 1.19.367 1.557.366.458.824.641 1.465.641.641 0 1.191-.183 1.74-.64.549-.459.824-1.008.916-1.558l.549-3.113zm.733 3.113c-.183 1.008-.641 1.832-1.465 2.565-.825.732-1.74 1.007-2.748 1.007-1.007 0-1.74-.366-2.381-1.007-.549-.733-.733-1.557-.641-2.565l.55-3.113c.183-1.008.641-1.832 1.465-2.565.824-.732 1.74-1.007 2.747-1.007 1.008 0 1.74.366 2.381 1.007.55.733.733 1.557.641 2.565l-.549 3.113z" fill="#0073CC"/><path d="M202.274 28.963c.916-3.114 5.037-1.099 5.586 2.107 5.037-2.015 5.037-5.679 2.565-7.785-4.305-3.572-13.555-1.282-15.386 5.037-1.466 5.312 1.465 6.136 5.312 7.784.732.367 3.571.733 2.747 2.565-1.099 2.38-4.854 1.282-6.411-2.015-2.472-.183-5.037 2.381-4.579 4.67 1.008 5.862 12.364 6.411 16.851.367 1.557-2.106 2.29-5.678.916-7.51-1.923-2.472-8.242-2.839-7.601-5.22zm28.299 15.203c-.184-1.466 0-2.198.274-4.305.916-5.495 1.924-10.898.916-14.561-1.923-5.404-10.165-3.938-14.561-1.19-1.74 6.593-3.481 9.25-5.77 16.576-1.649 5.311 2.473 6.777 7.235 4.212.092-.64.641-2.839.916-3.388h3.022s-.641 2.198.183 3.388c1.557 2.107 6.045 1.466 7.785-.732zm-9.617-7.418c.733-2.015 1.649-6.32 1.924-7.235.183-.184 1.465-.092 1.648.091.092 1.74-.641 5.037-.916 7.052h-2.656v.092zm40.754-10.899c.458-5.495-8.059-6.136-10.623.641-1.374 3.755-3.297 8.61-3.938 10.258 0-1.74 1.099-10.074.641-12.456-.916-4.212-8.609-2.38-11.173-1.373-.275 3.48-.183 3.663-3.48 18.225-.641 2.839.366 4.67 2.747 4.67 2.198 0 4.213-1.557 4.763-4.304.458-2.198 1.465-10.257 1.831-13.463.641 2.93-.641 12.455-.549 15.111.091 1.19.549 2.748 3.205 2.748 1.557 0 3.572-.916 4.396-3.572 1.007-3.48 4.213-12.913 4.854-14.287-1.191 5.861-2.931 11.54-3.114 13.92-.275 1.375-.275 3.847 2.931 3.847 1.74 0 3.48-.733 4.213-1.74.457-4.854 2.93-14.378 3.296-18.225zm13.921 7.418c1.74-.458 4.03-1.648 4.762-5.128 1.557-7.51-10.44-7.876-15.569-4.213l-3.022 14.195c-.366 1.557-.549 2.198-.824 3.755-.641 3.389 2.106 4.03 5.22 4.03h3.205c4.122 0 9.159-1.74 10.258-6.502.915-4.671-1.649-5.953-4.03-6.137zm-5.861 2.198c3.663-1.19 2.656 5.953-1.099 5.037.091-.64.916-4.304 1.099-5.037zm1.648-8.425c3.206-1.282 3.022 4.487-.916 4.213l.916-4.213zm10.624 7.052c-2.381 10.99 3.205 11.814 7.143 11.814 3.663 0 9.891-1.008 12.272-11.814 1.923-9.25-1.465-12.455-6.96-12.455-5.861 0-10.532 3.571-12.455 12.455zm11.081-6.32c.458 0 2.106-.64.733 6.045-.916 4.304-2.107 6.777-3.48 6.777-1.099 0-1.832-1.007-.458-6.777 1.099-5.22 2.564-6.044 3.205-6.044z" fill="#ED1C24"/><path fill-rule="evenodd" clip-rule="evenodd" d="M26.13 60.38c4.135 1.561 7.49 1.405 8.348.937.157-.078.234-.156.234-.312-.078-.546-1.794-1.405-4.29-3.199-3.356-2.34-8.115-6.554-11.314-12.951-2.028-4.136-2.965-8.427-3.277-12.172-.156-2.184-.156-4.135.079-5.851.39-3.355 1.092-5.54 1.014-6.008 0-.156-.078-.156-.234 0-9.987 15.136-5.852 34.017 9.44 39.557z" fill="#5BCBF5"/><path fill-rule="evenodd" clip-rule="evenodd" d="M14.582 34.166a25.212 25.212 0 001.482 5.461c2.341 5.618 5.462 8.27 6.32 7.724.234-.156.312-.624.156-1.404-.234-1.717-1.326-4.915-2.184-9.44-.078-.469-.156-1.015-.234-1.56-1.015-6.477-.937-15.059 3.276-21.925.313-.468.625-.936.937-1.326-2.653 1.638-5.072 3.823-6.788 6.632-3.277 4.993-3.745 10.922-2.965 15.838z" fill="#0064B1"/><path fill-rule="evenodd" clip-rule="evenodd" d="M15.83 13.724C18.327 9.2 25.27 5.766 32.76 5.22c12.406-.858 22.783 3.823 24.5 2.653.701-.547-.079-1.95-2.107-3.433C52.11 2.255 46.336-.086 38.768.383 21.994 1.397 16.142 12.008 15.83 13.724z" fill="#ED1C24"/><path fill-rule="evenodd" clip-rule="evenodd" d="M34.71 15.05c.157-.467 1.171-.545 2.342-.233 1.482.39 2.964 1.014 4.447 1.794 2.575 2.185-.39 2.263-2.107 1.56-2.887-.702-4.525-2.028-4.681-2.886v-.234z" fill="#5BCBF5"/><path fill-rule="evenodd" clip-rule="evenodd" d="M5.688 23.945c-1.015 2.34-1.95 5.383-2.263 8.738-.78 7.958 1.873 14.044 2.73 14.122a.168.168 0 00.157-.156c.39-1.015-.624-6.788.156-14.122.858-8.27 3.667-14.2 2.809-14.122-.546.078-2.185 2.185-3.59 5.54z" fill="#ED1C24"/><path fill-rule="evenodd" clip-rule="evenodd" d="M40.096 60.225c.078 1.248 3.823 2.965 11.547-1.404-2.809.546-3.59 1.014-6.632.936-1.638 0-3.199-.546-3.98-.312-.39.156-.935.39-.935.78zm9.44-38.309c-.546.39-.78.625-1.17 1.17-.313.235-.625.547-1.015.859-1.014.858-2.262 1.872-3.51 2.965-1.015.702-2.42 2.497-2.966 3.51a2.574 2.574 0 00-.312 1.64c.078.39.312.701.624.857 1.093.703 3.277 1.093 5.774 2.887 6.476 4.447 10.923 13.81 6.944 21.456-.156.312-.312.624-.468.858 5.93-1.794 11.39-5.071 14.824-7.178 1.638-1.014 2.184 3.511 3.199-1.404 1.716-8.504 1.794-22.002-7.568-30.116-2.107-1.795-4.682-2.965-6.866-2.809-1.717.078-3.121.936-3.901 1.873a2.37 2.37 0 00-.39.546c-.234.078-.39.234-.703.39-.39.39-.78.78-1.092 1.17-.546.39-.936.858-1.404 1.326z" fill="#5BCBF5"/><path fill-rule="evenodd" clip-rule="evenodd" d="M29.641 72.708c.312 1.483 9.05 4.37 19.661-.468.937-.468 1.95-.936 2.887-1.56-11.235 2.262-20.207.702-22.158 1.482-.312.234-.468.39-.39.546z" fill="#0064B1"/><path fill-rule="evenodd" clip-rule="evenodd" d="M30.889 75.205c.156 0-22.704-6.71-28.088-33.705-1.014-5.15-.546-8.27-.39-9.207.078-.624-.156-.156-.312.078-7.568 17.633 6.086 40.727 28.79 42.834z" fill="#0064B1"/><path fill-rule="evenodd" clip-rule="evenodd" d="M50.004 65.92c2.262-1.014 3.355-2.262 3.433-2.886 0-.234-.078-.39-.39-.312-.78.156-2.653 1.56-5.306 2.887-1.248.624-2.73 1.248-4.291 1.638-1.56.078-3.12-.078-4.525-.156-2.73-.312-4.837-.78-5.462-.624-.156 0-.156.078-.234.078-.078.312 1.56 1.014 3.98 1.248 1.56.156 3.432.156 5.383-.312.234-.078.546-.156.78-.234 1.248-.078 2.497-.156 3.745-.468 1.248-.156 2.107-.468 2.887-.858zm-2.029-52.195c.078.234 2.262.702 4.993 1.794 3.043 1.17 5.461 2.653 5.695 2.419v-.078c-.156-.468-2.106-2.107-4.915-3.2-2.887-1.247-5.54-1.247-5.773-.935zm17.243 54.458c2.029-1.405 5.072-4.76 7.022-9.207 3.2-7.334 2.419-14.044 3.511-14.824.468-.312 1.17.468 1.639 2.029.702 2.34.936 6.32-.937 10.845-2.574 6.163-8.582 9.83-11.547 11.39.156-.077.234-.155.312-.233z" fill="#ED1C24"/><path fill-rule="evenodd" clip-rule="evenodd" d="M44.23 32.605c1.482 1.015 3.667 2.497 5.93 4.994 2.574 2.73 5.149 6.71 6.709 11.625.234.624.39 1.248.546 1.872 1.092 4.682 1.014 9.597-.312 13.732-1.248 3.979-3.667 7.178-6.32 9.284a30.556 30.556 0 006.944-2.886c11.001-6.944 17.087-19.818 13.498-32.691-2.107-7.568-7.334-13.888-13.888-16.072-1.326-1.717-3.12-3.511-5.383-5.15-5.852-4.057-11.938-3.9-12.406-3.433 0 0-.078.078 0 .078.078.468 5.072 1.249 10.455 4.994 1.327.936 2.575 1.95 3.745 2.886a5.638 5.638 0 00-3.277 1.795c-1.248 1.482-1.56 1.716-4.993 3.667-.936.468-1.873 1.014-2.653 1.716-2.028 1.717 0 2.653 1.405 3.59z" fill="#0064B1"/><path fill-rule="evenodd" clip-rule="evenodd" d="M60.224 22.853c.078-1.482-1.014-3.667-3.277-5.071-2.34-1.483-5.15-1.717-7.1-.937-6.086 2.497 8.738 11.86 10.377 6.008z" fill="#ED1C24"/><path fill-rule="evenodd" clip-rule="evenodd" d="M63.502 51.252c4.916-9.675-5.071-14.668-6.631-17.789-1.17-2.419.156-4.603.78-5.852 1.014-1.95 4.447-3.12 8.738 0 1.404 1.015 2.887 2.653 4.057 4.682.624 1.17 1.249 2.418 1.639 3.823.546 2.106.468 4.837-.312 7.178-1.249 3.9-4.994 7.1-8.27 7.958zM25.895 12.944a61.12 61.12 0 01.234-1.483c.312-1.404.624-2.184.546-2.34 0-.078-.468.39-.468.39-.858.936-3.277 2.965-5.227 6.788-16.62 31.675 22 55.003 39.868 35.577-1.872-.156-5.617-.936-7.568-1.56-4.213-1.249-8.27-3.511-11.781-6.242-6.944-5.383-12.717-13.342-14.902-21.612-.78-3.043-1.092-6.398-.702-9.518z" fill="#ED1C24"/><path fill-rule="evenodd" clip-rule="evenodd" d="M19.42 9.511c2.184-1.404 6.163-3.433 11.624-4.135 9.05-1.092 16.853 1.326 18.101.468.468-.312-.234-1.17-1.794-1.95-2.34-1.17-6.71-2.341-12.25-1.717-7.567.858-13.419 5.228-16.072 7.412.156 0 .312 0 .39-.078z" fill="#0064B1"/></svg>