<svg opacity=".5" width="287" height="94" viewBox="0 0 287 94" fill="none" xmlns="http://www.w3.org/2000/svg"><g style="mix-blend-mode:overlay" opacity=".1" fill="#fff"><path d="M26.44 7.69l11.44 19.83-11.44 19.829-20.338 35.21 20.338 35.209 11.44 19.83-11.44 19.829-20.338 35.21 20.338 35.21 11.44 19.829-11.44 19.829-4.449 7.691h3.686l15.89-27.52-28.283-48.97-3.495-6.069 3.495-6.07 28.282-48.969-28.282-48.97-3.495-6.07 3.495-6.069 28.282-48.97L25.677 0h-3.686l4.45 7.69z"/><path d="M22.467 14.554l7.468 12.966-7.468 12.965L0 79.38v6.355l22.467 38.896 7.468 12.966-7.468 12.965L0 189.459v6.356l22.467 38.896 7.468 12.965-7.468 12.965-8.421 14.555h3.686l15.89-27.52-24.31-42.074-7.469-12.965 7.468-12.965 24.31-42.074-24.31-42.074-7.468-12.965 7.468-12.966 24.31-42.073L17.732 0h-3.686l8.421 14.554z"/><path d="M5.34 172.808l20.338-35.21-20.338-35.21-5.339-9.247v6.355l18.495 32.032 3.495 6.07-3.495 6.069L.001 175.699v6.356l5.339-9.247zM18.496 21.45l3.495 6.07-3.495 6.07L.001 65.62v6.356l5.339-9.248 20.338-35.21L9.788 0H6.104l12.393 21.45z"/><path d="M14.046 27.52L0 51.86v6.356l1.367-2.383L17.732 27.52 1.844 0H0v3.178L14.046 27.52z"/><path d="M0 24.342v6.355l1.844-3.177L0 24.342z"/><path d="M.002 10.582v6.356l6.1 10.582-6.1 10.582v6.355L9.789 27.52.002 10.582zM74.106 35.21l11.44 19.83-11.44 19.828-20.338 35.21 20.338 35.21 11.44 19.829-11.44 19.83-20.338 35.209 20.338 35.21 11.44 19.83h3.686l-28.282-48.97-3.495-6.07 3.495-6.069 28.282-48.97-28.282-48.969-3.495-6.07 3.495-6.069 28.282-48.97L60.95 6.07 57.455 0h-3.687l20.338 35.21z"/><path d="M70.134 42.074l7.468 12.965-7.468 12.965-24.31 42.074 24.31 42.074 7.468 12.965-7.468 12.966-24.31 42.073 24.31 42.074 7.468 12.966h3.686l-24.31-42.074-7.468-12.966 7.468-12.965 24.31-42.074-24.31-42.073-7.468-12.966 7.468-12.965 24.31-42.074-24.31-42.074L49.51 0h-3.686l24.31 42.074z"/><path d="M66.162 48.97l3.495 6.07-3.495 6.069-28.282 48.969 28.282 48.97 3.495 6.069-3.495 6.07-28.282 48.969 28.282 48.97 3.495 6.07h3.687l-20.338-35.21-11.44-19.83 11.44-19.829 20.338-35.21-20.338-35.209-11.44-19.83 11.44-19.83L73.344 55.04 53.006 19.83 41.566 0H37.88l28.282 48.97z"/><path d="M30.412.794L45.856 27.52 30.412 54.245 14.078 82.559l16.334 28.314 15.444 26.725-15.444 26.725-16.334 28.314 16.334 28.314 15.444 26.725-15.444 26.725-.445.795h3.655l2.129-3.687 2.129 3.687h3.654l-3.972-6.864 2.13-3.718 6.1 10.582h3.655l-7.944-13.76 2.129-3.718 10.073 17.478h3.655L45.443 254.54l2.13-3.686 14.045 24.342h3.654L48.94 246.882l-15.444-26.726 15.444-26.725 16.333-28.314-16.333-28.314-15.444-26.725L48.94 83.353 65.272 55.04 48.94 26.725 33.622 0h-3.655l.445.794zM31.78 216.98l-14.046-24.342 18.018-31.206 2.129 3.686-3.527 6.07-12.362 21.45 11.917 20.655-2.13 3.687zm3.972-6.864l-10.074-17.478 11.472-19.861 4.417-7.69-3.972-6.833 2.13-3.718 6.1 10.582-7.5 12.966-8.388 14.554 7.944 13.76-2.13 3.718zm3.972-6.896l-6.101-10.582 7.5-12.965 8.389-14.555-7.945-13.759 2.13-3.718 10.073 17.477-11.472 19.861-4.417 7.691 3.972 6.864-2.129 3.686zm21.99-38.102l-18.018 31.206-2.129-3.686 3.528-6.07 12.361-21.45-11.917-20.655 2.13-3.686 14.045 24.341zM31.78 106.9L17.733 82.559 35.75 51.353l2.129 3.686-3.527 6.07-12.362 21.45 11.917 20.655-2.13 3.686zm3.972-6.864L25.677 82.559l11.472-19.83 4.417-7.69-3.972-6.864 2.13-3.718 6.1 10.582-7.5 12.965-8.388 14.555 7.944 13.76-2.13 3.717zm3.972-6.895l-6.101-10.582 7.468-12.966 8.389-14.554-7.945-13.76 2.13-3.718L53.737 55.04 42.265 74.87l-4.417 7.69 3.972 6.864-2.097 3.718zm21.99-38.102L43.695 86.245l-2.129-3.686 3.528-6.07 12.361-21.45-11.917-20.655 2.13-3.687L61.713 55.04zM121.773 7.69l11.44 19.83-11.44 19.829-20.338 35.21 20.338 35.209 11.44 19.83-11.44 19.829-20.338 35.21 20.338 35.21 11.44 19.829-11.44 19.829-4.449 7.691h3.687l15.888-27.52-28.282-48.97-3.495-6.069 3.495-6.07 28.282-48.969-28.282-48.97-3.495-6.07 3.495-6.069 28.282-48.97L121.011 0h-3.687l4.449 7.69z"/><path d="M117.801 14.554l7.468 12.966-7.468 12.965-24.31 42.074 24.31 42.073 7.468 12.966-7.468 12.965-24.31 42.074 24.31 42.074 7.468 12.965-7.468 12.965-8.421 14.555h3.686l15.889-27.52-24.31-42.074-7.468-12.965 7.468-12.965 24.31-42.074-24.31-42.074-7.468-12.965 7.468-12.966 24.31-42.073L113.066 0h-3.686l8.421 14.554z"/><path d="M113.829 21.45l3.496 6.07-3.496 6.07-28.282 48.969 28.282 48.969 3.496 6.07-3.496 6.069-28.282 48.97 28.282 48.969 3.496 6.07-3.496 6.07-12.393 21.45h3.686l15.889-27.52-20.338-35.21-11.44-19.829 11.44-19.829 20.338-35.21-20.338-35.21-11.44-19.83 11.44-19.829 20.338-35.21L105.122 0h-3.686l12.393 21.45z"/><path d="M78.08 28.314l15.443 26.725L78.08 81.764l-16.334 28.314 16.334 28.314 15.444 26.725-15.444 26.725-16.334 28.314L78.08 248.47l15.444 26.726h3.654l15.889-27.52-16.333-28.314-15.444-26.725 15.444-26.725 16.333-28.314-16.333-28.314L81.29 82.559l15.444-26.725 16.333-28.314L97.177 0h-3.654l15.889 27.52-14.046 24.34-2.129-3.686 11.917-20.655L92.792 6.07 89.233 0H85.58l4.417 7.69 11.472 19.83-10.074 17.477-2.13-3.718 7.945-13.76-8.389-14.554L81.289 0h-3.655l8.39 14.554 7.5 12.966-6.102 10.582-2.13-3.718 3.973-6.864-4.417-7.69L73.344 0H69.69l12.36 21.45 3.528 6.07-2.13 3.718L65.4 0h-3.654L78.08 28.314zm31.3 219.362l-14.046 24.342-2.129-3.686 11.917-20.656-12.362-21.45-3.527-6.07 2.13-3.686 18.017 31.206zm-19.86-34.384l-3.973 6.864 4.417 7.691 11.472 19.861-10.074 17.478-2.129-3.718 7.944-13.76-8.389-14.554-7.5-12.966 6.102-10.614 2.13 3.718zm-3.973-6.895l-7.945 13.759 8.39 14.555 7.5 12.965-6.102 10.582-2.13-3.718 3.973-6.864-4.417-7.69-11.472-19.83 10.074-17.477 2.129 3.718zm-3.972-6.896l-11.917 20.655 12.361 21.45 3.528 6.07-2.13 3.686L65.4 220.156l14.045-24.341 2.13 3.686zm27.805-61.903L95.334 161.94l-2.129-3.687 11.917-20.655-12.362-21.45-3.527-6.07 2.13-3.686 18.017 31.206zm-19.86-34.384l-3.973 6.864 4.417 7.69 11.472 19.862-10.074 17.477-2.129-3.718 7.944-13.759-8.389-14.555-7.5-12.965 6.102-10.614 2.13 3.718zm-3.973-6.895l-7.945 13.759 8.39 14.554 7.5 12.966-6.102 10.582-2.13-3.718 3.973-6.864-4.417-7.69-11.472-19.83L83.418 92.6l2.129 3.719zm-3.972-6.896l-11.917 20.655 12.361 21.45 3.528 6.07-2.13 3.686L65.4 110.078l14.045-24.342 2.13 3.687zM169.44 35.21l11.44 19.83-11.44 19.828-20.338 35.21 20.338 35.21 11.44 19.829-11.44 19.83-20.338 35.209 20.338 35.21 11.44 19.83h3.686l-28.282-48.97-3.495-6.07 3.495-6.069 28.282-48.97-28.282-48.969-3.495-6.07 3.495-6.069 28.282-48.97-28.282-48.97L152.789 0h-3.687l20.338 35.21z"/><path d="M165.468 42.074l7.468 12.965-7.468 12.965-24.31 42.074 24.31 42.074 7.468 12.965-7.468 12.966-24.31 42.073 24.31 42.074 7.468 12.966h3.686l-24.31-42.074-7.468-12.966 7.468-12.965 24.31-42.074-24.31-42.073-7.468-12.966 7.468-12.965 24.31-42.074-24.31-42.074L144.844 0h-3.686l24.31 42.074z"/><path d="M161.496 48.97l3.496 6.07-3.496 6.069-28.282 48.969 28.282 48.97 3.496 6.069-3.496 6.07-28.282 48.969 28.282 48.97 3.496 6.07h3.686l-20.338-35.21-11.44-19.83 11.44-19.829 20.338-35.21-20.338-35.209-11.44-19.83 11.44-19.83 20.338-35.209-20.338-35.21L136.9 0h-3.686l28.282 48.97z"/><path d="M125.745.794l15.444 26.726-15.444 26.725-16.334 28.314 16.334 28.314 15.444 26.725-15.444 26.725-16.334 28.314 16.334 28.314 15.444 26.725-15.444 26.725-.445.795h3.655l2.129-3.687 2.129 3.687h3.654l-3.972-6.864 2.129-3.718 6.102 10.582h3.654l-7.944-13.76 2.129-3.718 10.073 17.478h3.655l-11.917-20.656 2.129-3.686 14.046 24.342h3.654l-16.333-28.314-15.444-26.726 15.444-26.725 16.333-28.314-16.333-28.314-15.444-26.725 15.444-26.725 16.333-28.314-16.333-28.314L128.955 0H125.3l.445.794zm1.367 216.185l-14.046-24.342 18.018-31.206 2.129 3.686-3.527 6.07-12.362 21.45 11.917 20.655-2.129 3.687zm3.972-6.864l-10.074-17.478 11.472-19.861 4.417-7.69-3.972-6.833 2.129-3.718 6.101 10.582-7.499 12.966-8.389 14.554 7.944 13.76-2.129 3.718zm3.972-6.896l-6.101-10.582 7.499-12.965 8.39-14.555-7.945-13.759 2.129-3.718 10.074 17.477-11.472 19.861-4.417 7.691 3.972 6.864-2.129 3.686zm21.99-38.102l-18.018 31.206-2.129-3.686 3.528-6.07 12.361-21.45-11.917-20.655 2.13-3.686 14.045 24.341zM127.112 106.9l-14.046-24.341 18.018-31.206 2.129 3.686-3.527 6.07-12.362 21.45 11.917 20.655-2.129 3.686zm3.972-6.864L121.01 82.559l11.472-19.83 4.417-7.69-3.972-6.864 2.129-3.718 6.101 10.582-7.499 12.965-8.389 14.555 7.944 13.76-2.129 3.717zm3.972-6.895l-6.101-10.582 7.468-12.966 8.389-14.554-7.945-13.76 2.13-3.718L149.07 55.04l-11.472 19.83-4.417 7.69 3.972 6.864-2.097 3.718zm21.99-38.102l-18.018 31.206-2.129-3.686 3.528-6.07 12.361-21.45-11.917-20.655 2.13-3.687 14.045 24.342zm60.06-47.349l11.44 19.83-11.44 19.829-20.338 35.21 20.338 35.209 11.44 19.83-11.44 19.829-20.338 35.21 20.338 35.21 11.44 19.829-11.44 19.829-4.449 7.691h3.687l15.888-27.52-28.282-48.97-3.495-6.069 3.495-6.07 28.282-48.969-28.282-48.97-3.495-6.07 3.495-6.069 28.282-48.97L216.344 0h-3.687l4.449 7.69z"/><path d="M213.134 14.554l7.468 12.966-7.468 12.965-24.31 42.074 24.31 42.073 7.468 12.966-7.468 12.965-24.31 42.074 24.31 42.074 7.468 12.965-7.468 12.965-8.421 14.555h3.686l15.889-27.52-24.31-42.074-7.468-12.965 7.468-12.965 24.31-42.074-24.31-42.074-7.468-12.965 7.468-12.966 24.31-42.073L208.399 0h-3.686l8.421 14.554z"/><path d="M209.162 21.45l3.496 6.07-3.496 6.07-28.282 48.969 28.282 48.969 3.496 6.07-3.496 6.069-28.282 48.97 28.282 48.969 3.496 6.07-3.496 6.07-12.393 21.45h3.686l15.889-27.52-20.338-35.21-11.44-19.829 11.44-19.829 20.338-35.21-20.338-35.21-11.44-19.83 11.44-19.829 20.338-35.21L200.455 0h-3.686l12.393 21.45z"/><path d="M173.412 28.314l15.444 26.725-15.444 26.725-16.334 28.314 16.334 28.314 15.444 26.725-15.444 26.725-16.334 28.314 16.334 28.314 15.444 26.726h3.655l15.888-27.52-16.333-28.314-15.444-26.725 15.444-26.725 16.333-28.314-16.333-28.314-15.444-26.725 15.444-26.725 16.333-28.314L192.511 0h-3.655l15.889 27.52-14.046 24.341-2.129-3.686 11.917-20.655-12.362-21.45L184.566 0h-3.654l4.417 7.69 11.472 19.83-10.074 17.477-2.129-3.718 7.944-13.76-8.389-14.554L176.622 0h-3.655l8.39 14.554 7.499 12.966-6.101 10.582-2.129-3.718 3.972-6.864-4.417-7.69L168.677 0h-3.654l12.361 21.45 3.528 6.07-2.129 3.718L160.733 0h-3.655l16.334 28.314zm31.301 219.362l-14.046 24.342-2.129-3.686 11.917-20.656-12.362-21.45-3.527-6.07 2.129-3.686 18.018 31.206zm-19.861-34.384l-3.972 6.864 4.417 7.691 11.472 19.861-10.074 17.478-2.129-3.718 7.945-13.76-8.39-14.554-7.499-12.966 6.101-10.614 2.129 3.718zm-3.972-6.895l-7.945 13.759 8.39 14.555 7.499 12.965-6.101 10.582-2.129-3.718 3.972-6.864-4.417-7.69-11.472-19.83 10.074-17.477 2.129 3.718zm-3.972-6.896l-11.917 20.655 12.362 21.45 3.527 6.07-2.129 3.686-18.018-31.206 14.046-24.341 2.129 3.686zm27.805-61.903l-14.046 24.342-2.129-3.687 11.917-20.655-12.362-21.45-3.527-6.07 2.129-3.686 18.018 31.206zm-19.861-34.384l-3.972 6.864 4.417 7.69 11.472 19.862-10.074 17.477-2.129-3.718 7.945-13.759-8.39-14.555-7.499-12.965 6.101-10.614 2.129 3.718zm-3.972-6.895l-7.945 13.759 8.39 14.554 7.499 12.966-6.101 10.582-2.129-3.718 3.972-6.864-4.417-7.69-11.472-19.83L178.751 92.6l2.129 3.719zm-3.972-6.896l-11.917 20.655 12.362 21.45 3.527 6.07-2.129 3.686-18.018-31.206 14.046-24.342 2.129 3.687zm87.865-54.213l11.44 19.83-11.44 19.828-20.338 35.21 20.338 35.21 11.44 19.829-11.44 19.83-20.338 35.209 20.338 35.21 11.44 19.83h3.686l-28.282-48.97-3.495-6.07 3.495-6.069 28.282-48.97-28.282-48.969-3.495-6.07 3.495-6.069 28.282-48.97-28.282-48.97L248.122 0h-3.687l20.338 35.21z"/><path d="M260.801 42.074l7.468 12.965-7.468 12.965-24.31 42.074 24.31 42.074 7.468 12.965-7.468 12.966-24.31 42.073 24.31 42.074 7.468 12.966h3.686l-24.31-42.074-7.468-12.966 7.468-12.965 24.31-42.074-24.31-42.073-7.468-12.966 7.468-12.965 24.31-42.074-24.31-42.074L240.177 0h-3.686l24.31 42.074z"/><path d="M256.829 48.97l3.496 6.07-3.496 6.069-28.282 48.969 28.282 48.97 3.496 6.069-3.496 6.07-28.282 48.969 28.282 48.97 3.496 6.07h3.686l-20.338-35.21-11.44-19.83 11.44-19.829 20.338-35.21-20.338-35.209-11.44-19.83 11.44-19.83 20.338-35.209-20.338-35.21L232.233 0h-3.686l28.282 48.97z"/><path d="M221.079.794l15.444 26.726-15.444 26.725-16.334 28.314 16.334 28.314 15.444 26.725-15.444 26.725-16.334 28.314 16.334 28.314 15.444 26.725-15.444 26.725-.445.795h3.655l2.129-3.687 2.129 3.687h3.654l-3.972-6.864 2.129-3.718 6.102 10.582h3.654l-7.944-13.76 2.129-3.718 10.073 17.478h3.655L236.11 254.54l2.129-3.686 14.046 24.342h3.781l-16.333-28.314-15.444-26.726 15.444-26.725 16.333-28.314-16.333-28.314-15.444-26.725 15.444-26.725 16.333-28.314-16.333-28.314L224.289 0h-3.655l.445.794zm1.367 216.185L208.4 192.637l18.018-31.206 2.129 3.686-3.527 6.07-12.362 21.45 11.917 20.655-2.129 3.687zm3.972-6.864l-10.074-17.478 11.472-19.861 4.417-7.69-3.972-6.833 2.129-3.718 6.101 10.582-7.499 12.966-8.39 14.554 7.945 13.76-2.129 3.718zm3.972-6.896l-6.101-10.582 7.499-12.965 8.39-14.555-7.945-13.759 2.129-3.718 10.074 17.477-11.472 19.861-4.417 7.691 3.972 6.864-2.129 3.686zm21.99-38.102l-18.018 31.206-2.129-3.686 3.527-6.07 12.362-21.45-11.917-20.655 2.129-3.686 14.046 24.341zM222.446 106.9L208.4 82.559l18.018-31.206 2.129 3.686-3.527 6.07-12.362 21.45 11.917 20.655-2.129 3.686zm3.972-6.864l-10.074-17.477 11.472-19.83 4.417-7.69-3.972-6.864 2.129-3.718 6.101 10.582-7.499 12.965-8.39 14.555 7.945 13.76-2.129 3.717zm3.972-6.895l-6.101-10.582 7.467-12.966 8.39-14.554-7.945-13.76 2.129-3.718 10.074 17.478-11.472 19.83-4.417 7.69 3.972 6.864-2.097 3.718zm21.99-38.102l-18.018 31.206-2.129-3.686 3.527-6.07 12.362-21.45-11.917-20.655 2.129-3.687L252.38 55.04zm33.621 30.697v-6.355l-1.843 3.178 1.843 3.177z"/><path d="M286.001 99.496v-6.355L279.9 82.559l6.101-10.582V65.62l-9.788 16.938 9.788 16.937zm0-99.496h-1.843l1.843 3.178V0z"/><path d="M268.746 28.314L284.19 55.04l-15.444 26.725-16.334 28.314 16.334 28.314 15.444 26.725-15.444 26.726-16.334 28.314 16.334 28.314 15.412 26.725h1.843v-3.178l-2.129-3.686 2.129-3.718v-6.356l-3.972 6.864-2.129-3.718 6.101-10.55v-6.356l-6.578-11.376-7.5-12.965 6.134-10.582 2.129 3.718-3.973 6.864 4.449 7.69 5.339 9.247v-6.355l-2.606-4.513-3.527-6.069 2.129-3.687 4.004 6.864v-6.355l-14.046-24.342 14.046-24.342v-6.355l-2.129-3.687 2.129-3.718v-6.355l-3.972 6.896-2.129-3.718 6.101-10.582v-6.356l-6.578-11.376-7.5-12.966 6.134-10.582 2.129 3.718-3.973 6.864 4.418 7.691 5.37 9.247v-6.356l-2.606-4.512-3.527-6.07 2.129-3.686 4.004 6.864v-6.355L271.955 82.56l14.046-24.342v-6.355l-2.129-3.687 2.129-3.718v-6.355l-3.972 6.864-2.129-3.718 6.101-10.55v-6.356l-6.578-11.376L271.955 0h-3.654l8.389 14.554 7.468 12.966-6.101 10.582-2.13-3.718 3.973-6.864-4.449-7.69L264.011 0h-3.655l12.362 21.45 3.527 6.07-2.129 3.718L256.066 0h-3.654l16.334 28.314zm7.467 178.083l-7.944 13.76 8.389 14.554 7.5 12.965-6.101 10.582-2.13-3.718 3.973-6.864-4.417-7.69-11.472-19.829 10.073-17.478 2.129 3.718zm-3.972-6.896l-11.916 20.656 12.361 21.45 3.527 6.069-2.129 3.686-18.018-31.205 14.046-24.342 2.129 3.686zm3.972-103.182l-7.944 13.759 8.389 14.555 7.5 12.965-6.101 10.582-2.13-3.718 3.973-6.864-4.417-7.69-11.472-19.83 10.073-17.477 2.129 3.718zm-3.972-6.896l-11.916 20.655 12.361 21.45 3.527 6.07-2.129 3.686-18.018-31.206 14.046-24.341 2.129 3.686zm8.421-81.764l5.339 9.279v-6.356l-2.606-4.512L279.9 0h-3.687l4.449 7.69v-.03z"/></g></svg>