<svg opacity=".1" width="321" height="308" viewBox="0 0 321 308" fill="none" xmlns="http://www.w3.org/2000/svg"><path d="M29.676 9.378l12.84 22.256-12.84 22.256L6.849 93.409l22.827 39.518 12.84 22.256-12.84 22.256-22.827 39.519 22.827 39.518 12.84 22.256-12.84 22.256-4.993 8.632h4.137l17.833-30.888L14.91 223.77l-3.923-6.812 3.923-6.813 31.743-54.962-31.743-54.962-3.923-6.813 3.923-6.812 31.743-54.962L28.82.747h-4.137l4.993 8.63z" fill="#D3E6F1"/><path d="M25.216 17.082l8.382 14.552-8.382 14.552L0 89.842v7.133l25.216 43.656 8.382 14.552-8.382 14.552L0 213.391v7.133l25.216 43.656 8.382 14.552-8.382 14.552-9.451 16.336h4.137l17.833-30.888L10.45 231.51l-8.38-14.552 8.381-14.552 27.285-47.223-27.285-47.222L2.07 93.409l8.381-14.553 27.285-47.222L19.902.747h-4.137l9.451 16.335z" fill="#D3E6F1"/><path d="M5.992 194.702l22.826-39.519-22.826-39.519L0 105.285v7.134l20.758 35.952 3.923 6.812-3.923 6.812L0 197.947v7.134l5.992-10.379zm14.765-169.88l3.923 6.812-3.923 6.812L-.001 74.398v7.133L5.99 71.152l22.826-39.518L10.984.747H6.847l13.91 24.075zM5.992 239.214L0 228.835v7.133l20.758 35.952 3.923 6.813-3.923 6.812-13.91 24.075h4.137l17.833-30.887-22.826-39.519z" fill="#D3E6F1"/><path d="M0 151.617v7.133l2.07-3.567L0 151.617zm-.001 108.105v7.134l6.848 11.877L0 290.61v7.133l10.985-19.01L0 259.722zM15.765 31.634L0 58.954v7.134l1.534-2.675 18.368-31.78L2.07.748H0v3.566l15.765 27.32z" fill="#D3E6F1"/><path d="M0 28.067v7.134l2.07-3.567L0 28.067z" fill="#D3E6F1"/><path d="M-.001 12.624v7.133l6.848 11.877L0 43.511v7.133l10.985-19.01L0 12.624zm1.535 234.33L0 244.279v7.133l15.765 27.321L0 306.053v3.567h2.07l17.833-30.887-18.368-31.779zM-.001 136.173v7.133l6.848 11.877L0 167.06v7.134l10.985-19.011L0 136.173z" fill="#D3E6F1"/><path d="M1.534 186.962l18.368-31.779-18.368-31.779L0 120.729v7.133l15.765 27.321L0 182.504v7.133l1.534-2.675zM0 275.166v7.133l2.07-3.567L0 275.166zM83.175 40.265l12.84 22.256-12.84 22.256-22.827 39.519 22.827 39.518 12.84 22.256-12.84 22.256-22.827 39.519 22.827 39.519 12.84 22.256h4.137l-31.743-54.963-3.923-6.812 3.923-6.812 31.743-54.963-31.743-54.962-3.923-6.812 3.923-6.812 31.743-54.963L68.409 7.56 64.486.747h-4.138l22.827 39.518z" fill="#D3E6F1"/><path d="M78.715 47.97l8.382 14.551-8.382 14.552-27.285 47.223 27.285 47.222 8.382 14.552-8.382 14.552-27.285 47.223 27.285 47.223 8.382 14.552h4.137L63.95 262.397l-8.381-14.552 8.381-14.552 27.285-47.223-27.285-47.222-8.381-14.552 8.381-14.552 27.285-47.223L63.95 15.3 55.568.747H51.43l27.285 47.222z" fill="#D3E6F1"/><path d="M74.259 55.709l3.923 6.812-3.923 6.813-31.744 54.962 31.744 54.962 3.923 6.812-3.923 6.813-31.744 54.962 31.744 54.962 3.923 6.813h4.137l-22.826-39.519-12.84-22.256 12.84-22.256 22.826-39.519-22.826-39.518-12.84-22.256 12.84-22.256 22.826-39.519-22.826-39.518L46.653.747h-4.138L74.26 55.709z" fill="#D3E6F1"/><path d="M34.133 1.638l17.334 29.996-17.334 29.995L15.8 93.41l18.332 31.779 17.334 29.995-17.334 29.996L15.8 216.958l18.332 31.779 17.334 29.995-17.334 29.996-.499.892h4.102l2.39-4.138 2.39 4.138h4.1l-4.458-7.704 2.39-4.173 6.848 11.877h4.102l-8.917-15.444 2.39-4.173 11.306 19.617h4.102l-13.375-23.184 2.39-4.137 15.764 27.321h4.102l-18.333-31.779-17.334-29.996 17.334-29.996L73.26 186.07l-18.333-31.778-17.334-29.996L54.926 94.3 73.26 62.521 54.926 30.742 37.735.747h-4.102l.5.891zm1.533 242.64l-15.764-27.32 20.222-35.025 2.39 4.137-3.959 6.813-13.874 24.075 13.375 23.183-2.39 4.137zm4.458-7.704l-11.306-19.616 12.876-22.292 4.957-8.631-4.458-7.669 2.39-4.173 6.848 11.877-8.418 14.552-9.416 16.336 8.917 15.443-2.39 4.173zm4.459-7.739l-6.848-11.877 8.417-14.552 9.416-16.336-8.917-15.443 2.39-4.173 11.306 19.616-12.875 22.292-4.958 8.631 4.458 7.704-2.39 4.138zm24.681-42.765l-20.223 35.025-2.39-4.137 3.96-6.813 13.874-24.075-13.375-23.183 2.39-4.137 15.764 27.32zm-33.598-65.341l-15.764-27.32 20.222-35.025 2.39 4.137-3.959 6.813-13.874 24.075 13.375 23.183-2.39 4.137zm4.459-7.704L28.817 93.408l12.876-22.255 4.957-8.632-4.458-7.704 2.39-4.173 6.848 11.877-8.418 14.552-9.416 16.336 8.917 15.443-2.39 4.173zm4.458-7.739l-6.848-11.877 8.381-14.553 9.416-16.335-8.916-15.443 2.39-4.173L60.311 62.52 47.436 84.777l-4.958 8.632 4.459 7.704-2.354 4.173zm24.681-42.765L49.041 97.546l-2.39-4.138 3.96-6.812 13.874-24.075L51.11 39.338 53.5 35.2l15.764 27.32zm67.41-53.143l12.84 22.256-12.84 22.256-22.827 39.519 22.827 39.518 12.84 22.256-12.84 22.256-22.827 39.519 22.827 39.518 12.84 22.256-12.84 22.256-4.993 8.632h4.137l17.833-30.888-31.743-54.962-3.923-6.812 3.923-6.813 31.743-54.962-31.743-54.962-3.923-6.813 3.923-6.812 31.743-54.962L135.818.747h-4.137l4.993 8.63z" fill="#D3E6F1"/><path d="M132.217 17.082l8.382 14.552-8.382 14.552-27.285 47.223 27.285 47.222 8.382 14.552-8.382 14.552-27.285 47.223 27.285 47.222 8.382 14.552-8.382 14.552-9.451 16.336h4.137l17.833-30.888-27.285-47.222-8.381-14.552 8.381-14.552 27.285-47.223-27.285-47.222-8.381-14.552 8.381-14.553 27.285-47.222L126.903.747h-4.137l9.451 16.335z" fill="#D3E6F1"/><path d="M127.758 24.822l3.923 6.812-3.923 6.812L96.014 93.41l31.744 54.962 3.923 6.812-3.923 6.812-31.744 54.963 31.744 54.962 3.923 6.812-3.923 6.813-13.91 24.075h4.137l17.833-30.888-22.826-39.518-12.84-22.256 12.84-22.256 22.826-39.519-22.826-39.518-12.84-22.257 12.84-22.255 22.826-39.52L117.985.748h-4.137l13.91 24.075z" fill="#D3E6F1"/><path d="M87.632 32.526l17.334 29.995-17.334 29.996L69.3 124.296l18.332 31.779 17.334 29.995-17.334 29.996L69.3 247.845l18.332 31.779 17.334 29.996h4.102l17.833-30.888-18.332-31.779-17.334-29.995 17.334-29.996 18.332-31.779-18.332-31.779-17.334-29.995 17.334-29.996 18.332-31.78L109.068.748h-4.102L122.8 31.634l-15.765 27.32-2.39-4.137 13.375-23.183-13.874-24.075-3.995-6.812H96.05l4.957 8.63 12.876 22.257-11.306 19.617-2.39-4.173 8.917-15.444-9.416-16.335L91.235.747h-4.102l9.416 16.335 8.417 14.552-6.848 11.877-2.39-4.173 4.459-7.704-4.958-8.631L82.32.747h-4.103l13.875 24.075 3.959 6.812-2.39 4.173L73.401.747H69.3l18.332 31.779zm35.132 246.206l-15.765 27.321-2.389-4.137 13.375-23.184-13.875-24.075-3.959-6.812 2.39-4.137 20.223 35.024zm-22.292-38.591l-4.458 7.704 4.958 8.631 12.875 22.292-11.306 19.617-2.39-4.173 8.917-15.444-9.416-16.335-8.417-14.552 6.848-11.913 2.389 4.173zm-4.458-7.74l-8.917 15.444 9.416 16.335 8.418 14.552-6.848 11.877-2.39-4.173 4.458-7.704-4.957-8.631-12.876-22.256 11.306-19.617 2.39 4.173zm-4.458-7.739L78.18 247.845l13.874 24.075 3.959 6.812-2.39 4.138L73.4 247.845l15.765-27.321 2.39 4.138zm31.208-69.479l-15.765 27.321-2.389-4.138 13.375-23.183-13.875-24.075-3.959-6.812 2.39-4.137 20.223 35.024zm-22.292-38.591l-4.458 7.704 4.958 8.631 12.875 22.292-11.306 19.616-2.39-4.173 8.917-15.443-9.416-16.336-8.417-14.551 6.848-11.913 2.389 4.173zm-4.458-7.74l-8.917 15.444 9.416 16.335 8.418 14.552-6.848 11.877-2.39-4.173 4.458-7.704-4.957-8.631-12.876-22.256 11.306-19.617 2.39 4.173zm-4.458-7.739L78.18 124.296l13.874 24.075 3.96 6.812-2.39 4.137L73.4 124.296l15.765-27.32 2.39 4.137zm98.618-60.848l12.84 22.256-12.84 22.256-22.827 39.519 22.827 39.518 12.84 22.256-12.84 22.256-22.827 39.519 22.827 39.519 12.84 22.256h4.137l-31.743-54.963-3.923-6.812 3.923-6.812 31.743-54.963-31.743-54.962-3.923-6.812 3.923-6.812 31.743-54.963L175.408 7.56 171.485.747h-4.138l22.827 39.518z" fill="#D3E6F1"/><path d="M185.717 47.97l8.382 14.551-8.382 14.552-27.285 47.223 27.285 47.222 8.382 14.552-8.382 14.552-27.285 47.223 27.285 47.223 8.382 14.552h4.137l-27.285-47.223-8.381-14.552 8.381-14.552 27.285-47.223-27.285-47.222-8.381-14.552 8.381-14.552 27.285-47.223L170.951 15.3 162.57.747h-4.138l27.285 47.222z" fill="#D3E6F1"/><path d="M181.258 55.709l3.923 6.812-3.923 6.813-31.744 54.962 31.744 54.962 3.923 6.812-3.923 6.813-31.744 54.962 31.744 54.962 3.923 6.813h4.137l-22.826-39.519-12.84-22.256 12.84-22.256 22.826-39.519-22.826-39.518-12.84-22.256 12.84-22.256 22.826-39.519-22.826-39.518L153.652.747h-4.138l31.744 54.962z" fill="#D3E6F1"/><path d="M141.133 1.638l17.334 29.996-17.334 29.995-18.332 31.78 18.332 31.779 17.334 29.995-17.334 29.996-18.332 31.779 18.332 31.779 17.334 29.995-17.334 29.996-.499.892h4.102l2.389-4.138 2.39 4.138h4.102l-4.459-7.704 2.39-4.173 6.848 11.877h4.102l-8.917-15.444 2.39-4.173 11.306 19.617h4.102l-13.375-23.184 2.389-4.137 15.765 27.321h4.102l-18.333-31.779-17.334-29.996 17.334-29.996 18.333-31.779-18.333-31.778-17.334-29.996L161.927 94.3l18.333-31.779-18.333-31.779L144.736.747h-4.102l.499.891zm1.534 242.64l-15.765-27.32 20.223-35.025 2.39 4.137-3.959 6.813-13.874 24.075 13.375 23.183-2.39 4.137zm4.458-7.704l-11.306-19.616 12.876-22.292 4.957-8.631-4.458-7.669 2.39-4.173 6.848 11.877-8.418 14.552-9.416 16.336 8.917 15.443-2.39 4.173zm4.459-7.739l-6.848-11.877 8.417-14.552 9.416-16.336-8.917-15.443 2.39-4.173 11.306 19.616-12.875 22.292-4.958 8.631 4.458 7.704-2.389 4.138zm24.681-42.765l-20.223 35.025-2.39-4.137 3.959-6.813 13.875-24.075-13.375-23.183 2.389-4.137 15.765 27.32zm-33.598-65.341l-15.765-27.32 20.223-35.025 2.39 4.137-3.959 6.813-13.874 24.075 13.375 23.183-2.39 4.137zm4.458-7.704l-11.306-19.617 12.876-22.255 4.957-8.632-4.458-7.704 2.39-4.173 6.848 11.877-8.418 14.552-9.416 16.336 8.917 15.443-2.39 4.173zm4.459-7.739l-6.848-11.877 8.381-14.553 9.416-16.335-8.916-15.443 2.389-4.173 11.307 19.616-12.876 22.256-4.958 8.632 4.459 7.704-2.354 4.173zm24.681-42.765l-20.223 35.025-2.39-4.138 3.959-6.812 13.875-24.075-13.375-23.183L160.5 35.2l15.765 27.32zm67.41-53.143l12.84 22.256-12.84 22.256-22.827 39.519 22.827 39.518 12.84 22.256-12.84 22.256-22.827 39.519 22.827 39.518 12.84 22.256-12.84 22.256-4.993 8.632h4.137l17.833-30.888-31.743-54.962-3.923-6.812 3.923-6.813 31.743-54.962-31.743-54.962-3.923-6.813 3.923-6.812 31.743-54.962L242.819.747h-4.137l4.993 8.63z" fill="#D3E6F1"/><path d="M239.215 17.082l8.382 14.552-8.382 14.552-27.285 47.223 27.285 47.222 8.382 14.552-8.382 14.552-27.285 47.223 27.285 47.222 8.382 14.552-8.382 14.552-9.451 16.336h4.137l17.833-30.888-27.285-47.222-8.381-14.552 8.381-14.552 27.285-47.223-27.285-47.222-8.381-14.552 8.381-14.553 27.285-47.222L233.901.747h-4.137l9.451 16.335z" fill="#D3E6F1"/><path d="M234.759 24.822l3.923 6.812-3.923 6.812-31.744 54.963 31.744 54.962 3.923 6.812-3.923 6.812-31.744 54.963 31.744 54.962 3.923 6.812-3.923 6.813-13.91 24.075h4.137l17.833-30.888-22.826-39.518-12.84-22.256 12.84-22.256 22.826-39.519-22.826-39.518-12.84-22.257 12.84-22.255 22.826-39.52L224.986.748h-4.137l13.91 24.075z" fill="#D3E6F1"/><path d="M194.632 32.526l17.334 29.995-17.334 29.996-18.332 31.779 18.332 31.779 17.334 29.995-17.334 29.996-18.332 31.779 18.332 31.779 17.334 29.996h4.102l17.833-30.888-18.332-31.779-17.334-29.995 17.334-29.996 18.332-31.779-18.332-31.779-17.334-29.995 17.334-29.996 18.332-31.78L216.068.748h-4.102L229.8 31.634l-15.765 27.32-2.39-4.137 13.375-23.183-13.874-24.075-3.995-6.812h-4.101l4.957 8.63 12.876 22.257-11.306 19.617-2.39-4.173 8.917-15.444-9.416-16.335L198.235.747h-4.102l9.416 16.335 8.417 14.552-6.848 11.877-2.389-4.173 4.458-7.704-4.958-8.631L189.318.747h-4.102l13.875 24.075 3.959 6.812-2.39 4.173L180.401.747H176.3l18.332 31.779zm35.132 246.206l-15.765 27.321-2.389-4.137 13.375-23.184-13.875-24.075-3.959-6.812 2.39-4.137 20.223 35.024zm-22.292-38.591l-4.458 7.704 4.958 8.631 12.875 22.292-11.306 19.617-2.39-4.173 8.917-15.444-9.416-16.335-8.417-14.552 6.848-11.913 2.389 4.173zm-4.458-7.74l-8.917 15.444 9.416 16.335 8.418 14.552-6.848 11.877-2.39-4.173 4.458-7.704-4.957-8.631-12.876-22.256 11.306-19.617 2.39 4.173zm-4.458-7.739l-13.375 23.183 13.874 24.075 3.959 6.812-2.39 4.138-20.223-35.025 15.765-27.321 2.39 4.138zm31.208-69.479l-15.765 27.321-2.389-4.138 13.375-23.183-13.875-24.075-3.959-6.812 2.39-4.137 20.223 35.024zm-22.292-38.591l-4.458 7.704 4.958 8.631 12.875 22.292-11.306 19.616-2.39-4.173 8.917-15.443-9.416-16.336-8.417-14.551 6.848-11.913 2.389 4.173zm-4.458-7.74l-8.917 15.444 9.416 16.335 8.418 14.552-6.848 11.877-2.39-4.173 4.458-7.704-4.957-8.631-12.876-22.256 11.306-19.617 2.39 4.173zm-4.458-7.739l-13.375 23.183 13.874 24.075 3.959 6.812-2.39 4.137-20.223-35.024 15.765-27.32 2.39 4.137zm98.619-60.848l12.84 22.256-12.84 22.256-22.827 39.519 22.827 39.518 12.84 22.256-12.84 22.256-22.827 39.519 22.827 39.519 12.84 22.256h4.137l-31.743-54.963-3.923-6.812 3.923-6.812 31.743-54.963-31.743-54.962-3.923-6.812 3.923-6.812 31.743-54.963L282.409 7.56 278.486.747h-4.138l22.827 39.518z" fill="#D3E6F1"/><path d="M292.715 47.97l8.382 14.551-8.382 14.552-27.285 47.223 27.285 47.222 8.382 14.552-8.382 14.552-27.285 47.223 27.285 47.223 8.382 14.552h4.137l-27.285-47.223-8.381-14.552 8.381-14.552 27.285-47.223-27.285-47.222-8.381-14.552 8.381-14.552 27.285-47.223L277.949 15.3 269.568.747h-4.138l27.285 47.222z" fill="#D3E6F1"/><path d="M288.259 55.709l3.923 6.812-3.923 6.813-31.744 54.962 31.744 54.962 3.923 6.812-3.923 6.813-31.744 54.962 31.744 54.962 3.923 6.813h4.137l-22.826-39.519-12.84-22.256 12.84-22.256 22.826-39.519-22.826-39.518-12.84-22.256 12.84-22.256 22.826-39.519-22.826-39.518L260.653.747h-4.138l31.744 54.962z" fill="#D3E6F1"/><path d="M248.132 1.638l17.334 29.996-17.334 29.995L229.8 93.41l18.332 31.779 17.334 29.995-17.334 29.996-18.332 31.779 18.332 31.779 17.334 29.995-17.334 29.996-.499.892h4.102l2.389-4.138 2.39 4.138h4.102l-4.459-7.704 2.39-4.173 6.848 11.877h4.102l-8.917-15.444 2.39-4.173 11.306 19.617h4.102l-13.375-23.184 2.389-4.137 15.765 27.321h4.244l-18.332-31.779-17.334-29.996 17.334-29.996 18.332-31.779-18.332-31.778-17.334-29.996L269.069 94.3l18.332-31.779-18.332-31.779L251.735.747h-4.102l.499.891zm1.534 242.64l-15.765-27.32 20.223-35.025 2.39 4.137-3.959 6.813-13.874 24.075 13.375 23.183-2.39 4.137zm4.458-7.704l-11.306-19.616 12.876-22.292 4.957-8.631-4.458-7.669 2.39-4.173 6.848 11.877-8.418 14.552-9.416 16.336 8.917 15.443-2.39 4.173zm4.459-7.739l-6.848-11.877 8.417-14.552 9.416-16.336-8.917-15.443 2.39-4.173 11.306 19.616-12.875 22.292-4.958 8.631 4.458 7.704-2.389 4.138zm24.681-42.765l-20.223 35.025-2.39-4.137 3.959-6.813 13.875-24.075-13.375-23.183 2.389-4.137 15.765 27.32zm-33.598-65.341l-15.765-27.32 20.223-35.025 2.39 4.137-3.959 6.813-13.874 24.075 13.375 23.183-2.39 4.137zm4.458-7.704l-11.306-19.617 12.876-22.255 4.957-8.632-4.458-7.704 2.39-4.173 6.848 11.877-8.418 14.552-9.416 16.336 8.917 15.443-2.39 4.173zm4.459-7.739l-6.848-11.877 8.381-14.553 9.416-16.335-8.916-15.443 2.389-4.173 11.307 19.616-12.876 22.256-4.958 8.632 4.459 7.704-2.354 4.173zm24.681-42.765l-20.223 35.025-2.39-4.138 3.959-6.812 13.875-24.075-13.375-23.183 2.389-4.137 15.765 27.32zm37.737 34.454v-7.133l-2.069 3.567 2.069 3.566zm0 123.549v-7.133l-2.069 3.567 2.069 3.566z" fill="#D3E6F1"/><path d="M321.001 112.419v-7.133l-6.848-11.877 6.848-11.878v-7.133l-10.985 19.01 10.985 19.011zm0 123.549v-7.133l-6.848-11.877 6.848-11.877v-7.134l-10.985 19.011 10.985 19.01zM321 .747h-2.069L321 4.313V.747z" fill="#D3E6F1"/><path d="M301.633 32.526l17.334 29.995-17.334 29.996-18.333 31.779 18.333 31.779 17.334 29.996-17.334 29.995-18.333 31.779 18.333 31.779 17.298 29.996H321v-3.567l-2.39-4.137 2.39-4.173v-7.133l-4.458 7.704-2.39-4.173L321 282.299v-7.133l-7.383-12.769-8.417-14.552 6.883-11.877 2.39 4.173-4.458 7.704 4.993 8.632L321 266.856v-7.134l-2.925-5.064-3.959-6.813 2.39-4.137 4.494 7.704v-7.133l-15.765-27.321L321 189.637v-7.133l-2.39-4.137 2.39-4.173v-7.134l-4.458 7.74-2.39-4.173L321 158.75v-7.133l-7.383-12.769-8.417-14.552 6.883-11.877 2.39 4.173-4.458 7.704 4.957 8.631L321 143.306v-7.133l-2.925-5.065-3.959-6.812 2.39-4.137 4.494 7.704v-7.134l-15.765-27.32L321 66.088v-7.133l-2.39-4.138 2.39-4.173v-7.133l-4.458 7.704-2.39-4.173L321 35.201v-7.134L313.617 15.3 305.235.747h-4.101l9.416 16.335 8.381 14.552-6.848 11.877-2.389-4.173 4.458-7.704-4.993-8.631L296.319.747h-4.102l13.874 24.075 3.959 6.812-2.389 4.173L287.402.747H283.3l18.333 31.779zm8.382 199.876l-8.917 15.443 9.416 16.336 8.417 14.552-6.848 11.877-2.389-4.173 4.458-7.704-4.958-8.632-12.875-22.256 11.306-19.616 2.39 4.173zm-4.459-7.74l-13.375 23.183 13.875 24.075 3.959 6.813-2.39 4.137-20.223-35.025 15.765-27.32 2.389 4.137zm4.459-115.81l-8.917 15.444 9.416 16.335 8.417 14.552-6.848 11.877-2.389-4.173 4.458-7.704-4.958-8.631-12.875-22.256 11.306-19.617 2.39 4.173zm-4.459-7.739l-13.375 23.183 13.875 24.075 3.959 6.812-2.39 4.138-20.223-35.025 15.765-27.32 2.389 4.137zm9.452-91.771L321 19.757v-7.133l-2.925-5.065-3.923-6.812h-4.137l4.993 8.631v-.036z" fill="#D3E6F1"/></svg>