<svg width="218" height="48" viewBox="0 0 218 48" fill="none" xmlns="http://www.w3.org/2000/svg"><path d="M14.863.192l-.288 1.918H8.63l-.767 4.41h5.945l-.288 1.918H7.48l-.768 4.411h5.945l-.287 1.918H4.603L7.192.287h7.67V.193zm10.451 0h1.918L25.41 10.356c-.383 1.15-1.054 2.11-1.917 2.973-1.151.958-2.398 1.438-3.74 1.438-1.343 0-2.397-.48-3.26-1.438-.767-.96-1.055-2.11-.863-3.452L17.356.192h1.917l-1.726 9.685c-.191.863 0 1.534.48 2.11.48.574 1.15.862 2.014.862.863 0 1.63-.288 2.301-.863.671-.575 1.15-1.342 1.247-2.11L25.314.193zm6.137 1.918l-1.054 6.04h1.726c.863 0 1.63-.287 2.3-.862.672-.576 1.152-1.343 1.247-2.206.192-.863 0-1.534-.479-2.11-.48-.575-1.15-.862-2.014-.862h-1.726zm.288 7.958h-1.726l-.863 4.603h-1.918l2.59-14.48h4.122c1.151.193 2.014.672 2.685 1.44.768.958 1.055 2.109.863 3.451-.191 1.343-.959 2.493-2.013 3.452-.767.671-1.343 1.055-1.726 1.15l2.301 4.987h-2.301l-2.014-4.603zM47.752 0c2.014 0 3.644.767 4.89 2.205 1.151 1.439 1.63 3.165 1.247 5.274-.383 2.014-1.438 3.836-3.068 5.274-1.726 1.439-3.548 2.206-5.657 2.206-2.014 0-3.644-.767-4.89-2.206-1.151-1.438-1.63-3.164-1.247-5.274.383-2.013 1.438-3.835 3.068-5.274C43.821.767 45.643 0 47.752 0zm-.383 1.918c-1.534 0-2.973.575-4.22 1.63-1.246 1.055-2.013 2.397-2.3 3.931-.288 1.535 0 2.877.958 3.932.863 1.055 2.11 1.63 3.644 1.63 1.534 0 2.973-.575 4.22-1.63 1.246-1.055 2.013-2.397 2.3-3.932.288-1.534 0-2.876-.958-3.931-.863-1.15-2.11-1.63-3.644-1.63zm10.356 8.15l-.863 4.603h-1.918l2.59-14.48h4.122c1.151.193 2.014.672 2.685 1.44.767.958 1.055 2.109.863 3.451-.191 1.343-.959 2.493-2.013 3.452-1.151.959-2.398 1.438-3.74 1.438h-1.726v.096zm1.438-7.958L58.11 8.15h1.725c.863 0 1.63-.287 2.302-.862.671-.576 1.15-1.343 1.246-2.206.192-.863 0-1.534-.48-2.11-.479-.575-1.15-.862-2.013-.862h-1.726zM75.752.192l-.288 1.918H69.52l-.767 4.41h5.945l-.288 1.918h-5.945l-.767 4.411h5.945l-.287 1.918h-7.767L68.177.287h7.575V.193zm7.288 7.48l-.672-3.357-1.822 3.356h2.493zm.575-7.48L86.3 14.67h-2.014l-.959-5.082h-3.835L76.71 14.67h-2.014L82.56.191h1.055zm7.096 0h1.726l4.123 10.356L98.382.192h1.918L97.71 14.67h-1.63L91.861 4.219 90.04 14.671h-1.917L90.71.191zM9.014 26.37l1.342.575c-.48.48-.767.863-.959.959-.959.767-2.013 1.15-3.068 1.15-1.15 0-2.014-.383-2.685-1.15-.671-.767-.863-1.726-.671-2.877.192-1.15.767-2.11 1.726-2.876C5.658 21.384 6.712 21 7.767 21c1.15 0 2.014.384 2.685 1.15.096.192.384.48.575.96l-1.63.575c-.191-.192-.287-.384-.287-.48a2.048 2.048 0 00-1.63-.767c-.672 0-1.343.288-1.918.767-.575.48-.959 1.151-1.055 1.822-.096.671 0 1.343.384 1.822.383.48.958.767 1.63.767.67 0 1.342-.287 1.917-.767.192-.096.288-.288.576-.48zm4.698-8.918h1.535l-.863 4.89c.575-.767 1.246-1.15 2.013-1.15.767 0 1.343.287 1.726.863.384.575.48 1.246.384 2.11l-.863 4.794h-1.438l.863-4.699c.095-.383 0-.767-.192-1.055-.192-.287-.576-.48-1.055-.48-.575 0-1.15.289-1.63.96l-.96 5.274H11.7l2.013-11.507zm13.041 8.15l.192-1.054c0-.48-.192-.863-.48-1.247a2.048 2.048 0 00-1.63-.767c-.67 0-1.342.288-1.917.767-.576.48-.96 1.055-1.055 1.822-.096.671 0 1.343.384 1.822.383.48.958.767 1.63.767.67 0 1.342-.288 1.917-.767.48-.48.767-.959.96-1.342zm.671-3.547l.096-.48h1.535l-1.343 7.384h-1.534l.192-.96c-.863.768-1.726 1.152-2.685 1.152-1.15 0-2.014-.384-2.685-1.151-.671-.767-.863-1.726-.671-2.877.191-1.15.767-2.11 1.726-2.877.959-.767 2.013-1.15 3.068-1.15.96-.192 1.726.192 2.301.959zm3.74-.576h1.438l-.095.672c.383-.767 1.054-1.055 1.822-1.055.767 0 1.15.383 1.15 1.246.384-.863 1.055-1.246 2.11-1.246s1.438.671 1.246 1.918l-1.055 5.849h-1.534l.96-5.178c.095-.767-.097-1.055-.672-1.055a.868.868 0 00-.671.288c-.192.192-.384.767-.576 1.726l-.767 4.315h-1.438l.959-5.178c.096-.767-.096-1.055-.671-1.055-.288 0-.48.096-.672.288-.191.191-.287.575-.48 1.15l-.862 4.795h-1.438l1.246-7.48zm11.123 2.973l-.192 1.15c0 .48.192.864.48 1.247.383.48.959.767 1.63.767.671 0 1.342-.287 1.918-.767.575-.48.959-1.055 1.055-1.822.096-.671 0-1.342-.384-1.822a2.048 2.048 0 00-1.63-.767c-.671 0-1.343.288-1.918.767-.48.384-.863.768-.959 1.247zM41.616 28l-.575 3.356h-1.439l1.726-9.877h1.439l-.096.672c.863-.863 1.726-1.247 2.685-1.247 1.15 0 2.013.384 2.684 1.15.672.768.864 1.727.672 2.877-.192 1.151-.767 2.11-1.726 2.877-.96.767-1.918 1.15-3.069 1.15-.959.097-1.726-.287-2.301-.958zm11.123-6.52l-1.342 7.383h-1.439l1.343-7.384h1.438zm-.192-2.973c.288 0 .48.096.672.287.191.192.191.48.191.768-.095.287-.191.575-.48.767-.19.191-.479.287-.766.287a.87.87 0 01-.671-.287c-.192-.192-.192-.48-.192-.767.096-.288.192-.576.48-.768.191-.191.479-.287.766-.287zm6.233 2.397c1.15 0 2.014.384 2.685 1.15.671.768.863 1.727.671 2.877-.192 1.151-.767 2.11-1.726 2.877-.959.767-2.013 1.15-3.068 1.15-1.15 0-2.014-.383-2.685-1.15-.671-.767-.863-1.726-.671-2.877.191-1.15.767-2.11 1.726-2.876.863-.767 1.917-1.15 3.068-1.15zm-.288 1.534c-.67 0-1.342.288-1.917.767-.576.48-.96 1.151-1.055 1.822-.096.671 0 1.343.383 1.822.384.48.96.767 1.63.767.672 0 1.343-.287 1.918-.767.576-.48.96-1.055 1.055-1.822.096-.671 0-1.342-.383-1.822a2.048 2.048 0 00-1.63-.767zm7.096 1.055l-.959 5.37h-1.534l1.343-7.384h1.534l-.192.863c.48-.863 1.15-1.246 2.11-1.246.767 0 1.342.288 1.725.863.384.575.48 1.246.384 2.11l-.863 4.794h-1.438l.863-4.699c.096-.383 0-.767-.288-1.055-.288-.287-.575-.479-1.055-.479a1.77 1.77 0 00-1.15.48c-.288.095-.384.287-.48.383zm7.384 3.356c0 .192 0 .384.096.48.191.191.383.287.575.287.287 0 .48-.096.671-.287.192-.192.288-.384.384-.672 0-.287 0-.48-.192-.575a5.744 5.744 0 00-.671-.575c-.48-.288-.863-.576-.96-.767-.287-.384-.479-.863-.383-1.439.096-.575.384-1.054.863-1.438.48-.384.96-.575 1.534-.575.576 0 .96.191 1.247.575.192.288.288.575.383.863l-1.534.384c0-.096 0-.192-.096-.192-.096-.096-.191-.096-.287-.096-.192 0-.288.096-.384.192-.096.096-.192.191-.192.383 0 .096 0 .288.096.384.096.096.288.192.576.48.575.287.959.575 1.15.862.384.48.48 1.055.384 1.63-.096.671-.48 1.247-.959 1.726-.575.48-1.15.672-1.822.672-.671 0-1.15-.192-1.534-.672-.288-.287-.384-.671-.384-1.15l1.439-.48zm6.712-9.397h1.534l-.863 4.89c.575-.767 1.247-1.15 2.014-1.15.767 0 1.342.287 1.726.863.383.575.48 1.246.383 2.11l-.863 4.794h-1.438l.863-4.699c.096-.383 0-.767-.192-1.055-.192-.287-.575-.48-1.055-.48-.575 0-1.15.289-1.63.96l-.959 5.274H77.67l2.014-11.507zm8.918 4.027l-1.343 7.384h-1.438l1.342-7.384h1.439zm-.192-2.972c.287 0 .48.096.67.287.193.192.193.48.193.768-.096.287-.192.575-.48.767-.287.191-.48.287-.767.287a.872.872 0 01-.671-.287c-.192-.192-.192-.48-.192-.767.096-.288.192-.576.48-.768.191-.191.48-.287.767-.287zm3.452 5.945l-.192 1.15c0 .48.192.864.48 1.247.383.48.958.767 1.63.767.67 0 1.342-.287 1.917-.767.576-.48.96-1.055 1.055-1.822.096-.671 0-1.342-.383-1.822a2.048 2.048 0 00-1.63-.767c-.672 0-1.343.288-1.918.767-.48.384-.863.768-.96 1.247zM91.19 28l-.576 3.356h-1.438l1.726-9.877h1.438l-.096.672c.863-.863 1.726-1.247 2.685-1.247 1.15 0 2.014.384 2.685 1.15.671.768.863 1.727.671 2.877-.192 1.151-.767 2.11-1.726 2.877-.959.767-2.013 1.15-3.068 1.15-.959.097-1.726-.287-2.302-.958z" fill="#0073CC"/><path d="M99.533 35l-.863 4.89h1.342c.671 0 1.247-.192 1.822-.671.575-.48.863-1.055 1.055-1.726.096-.672 0-1.247-.384-1.726-.383-.48-.959-.672-1.63-.672h-1.342V35zm.287 6.328h-1.342l-.671 3.644h-1.535l2.014-11.507h3.26c.863.096 1.63.48 2.11 1.151.671.767.863 1.726.671 2.78-.192 1.056-.767 2.014-1.63 2.782-.575.575-1.055.863-1.342.863l1.821 3.931h-1.821l-1.535-3.644zm7.671 3.836c-.958 0-1.63-.288-2.109-.863-.48-.576-.671-1.247-.48-2.11l.768-4.507h1.534l-.767 4.411c-.096.384 0 .767.287 1.055.288.288.576.48 1.055.48a1.77 1.77 0 001.151-.48c.383-.288.575-.671.671-1.15l.767-4.411h1.534l-.767 4.506c-.192.863-.575 1.535-1.246 2.11-.767.671-1.535.959-2.398.959zm6.425-2.206c0 .192 0 .384.096.48.192.192.383.287.575.287.288 0 .48-.095.671-.287.192-.192.288-.384.384-.671 0-.288 0-.48-.192-.672-.096-.096-.287-.287-.671-.575-.479-.288-.863-.575-1.055-.767-.287-.384-.479-.863-.383-1.438.096-.576.383-1.055.863-1.439.479-.383.959-.575 1.534-.575.575 0 .959.192 1.246.575.192.288.384.576.384.863l-1.534.384c0-.096 0-.192-.096-.192-.096-.096-.192-.096-.288-.096-.192 0-.287.096-.383.192-.096.096-.192.192-.192.383 0 .096 0 .288.096.384.096.096.287.192.575.48.575.287.959.67 1.151.862.383.48.479 1.055.383 1.726-.095.672-.479 1.247-.958 1.726-.576.48-1.151.672-1.822.672-.672 0-1.151-.192-1.535-.672-.287-.287-.383-.767-.383-1.246l1.534-.384zm5.849 0c0 .192 0 .384.096.48.192.192.384.287.576.287a.87.87 0 00.671-.287c.191-.192.287-.384.383-.671 0-.288 0-.48-.192-.672a5.614 5.614 0 00-.671-.575c-.479-.288-.863-.575-1.055-.767-.287-.384-.479-.863-.383-1.438.096-.576.383-1.055.863-1.439.479-.383.959-.575 1.534-.575.575 0 .959.192 1.247.575.191.288.383.576.383.863l-1.534.384c0-.096 0-.192-.096-.192-.096-.096-.192-.096-.288-.096-.191 0-.287.096-.383.192-.096.096-.192.192-.192.383 0 .096 0 .288.096.384.096.096.288.192.575.48.576.287.959.67 1.151.862.384.48.479 1.055.384 1.726-.096.672-.48 1.247-.959 1.726-.576.48-1.151.672-1.822.672s-1.151-.192-1.534-.672c-.288-.287-.384-.767-.384-1.246l1.534-.384zm7.671-5.37l-1.342 7.384h-1.534l1.342-7.383h1.534zm-.287-3.068c.287 0 .479.096.671.288.192.192.192.48.192.767-.096.288-.192.575-.48.767-.287.192-.479.288-.767.288-.288 0-.479-.096-.671-.288-.192-.192-.192-.48-.192-.767.096-.288.192-.575.48-.767.287-.192.479-.288.767-.288zm7.767 7.096l.191-1.055c0-.48-.191-.863-.479-1.246-.384-.48-.959-.768-1.726-.768-.671 0-1.342.288-1.918.768-.575.479-.959 1.15-1.055 1.821-.095.672 0 1.343.384 1.822.384.48.959.767 1.726.767.671 0 1.342-.287 1.918-.767.479-.383.767-.863.959-1.342zm.671-3.452l.096-.48h1.534l-1.342 7.384h-1.535l.192-.959c-.863.767-1.726 1.15-2.685 1.15-1.15 0-2.013-.383-2.685-1.246-.671-.767-.863-1.726-.671-2.877.192-1.15.767-2.11 1.726-2.876.959-.767 2.014-1.247 3.069-1.247.863 0 1.63.384 2.301 1.15zM8.342 33.082l-.287 1.534H3.356l-.671 3.548h4.698l-.287 1.534H2.397l-.575 3.548H6.52l-.287 1.534H0l2.014-11.507h6.328v-.191zm5.85 4.123l-2.398 2.493 1.918 4.986H11.89l-1.342-3.74-.096.096-.671 3.644H8.246l1.822-10.164h1.534l-.767 4.22 1.439-1.44h1.918v-.095zm7.958 4.123l.192-1.055c0-.48-.192-.863-.48-1.246-.383-.48-.958-.767-1.725-.767-.672 0-1.343.287-1.918.767-.576.48-.96 1.15-1.055 1.822-.096.67 0 1.342.384 1.822.383.479.959.767 1.726.767.67 0 1.342-.288 1.917-.768.48-.479.768-.862.96-1.342zm.576-3.548l.096-.48h1.534l-1.343 7.384H21.48l.192-.959c-.863.767-1.726 1.151-2.685 1.151-1.15 0-2.014-.384-2.685-1.247-.671-.767-.863-1.726-.671-2.876.192-1.15.767-2.11 1.726-2.877.959-.767 2.013-1.246 3.068-1.246.96 0 1.726.383 2.302 1.15zm4.698-.575l.48-2.78h1.534l-.48 2.78h1.343l-.288 1.534h-1.438l-1.055 5.945h-1.534l1.055-5.945h-1.343l.288-1.534h1.438zm5.754 5.753c.191.192.67.288 1.342.288.671 0 1.342-.288 1.918-.767l.48-.48 1.438.576c-.48.48-.768.863-.96.959-.958.767-2.013 1.246-3.164 1.246-1.15 0-2.013-.383-2.685-1.246-.67-.767-.863-1.726-.67-2.877.191-1.15.766-2.11 1.725-2.877.96-.767 2.014-1.246 3.069-1.246.959 0 1.726.287 2.397.863l.288.287c0 .096.191.192.287.48l-.863.767-4.602 4.027zm3.356-4.602c-.192-.096-.48-.192-1.055-.192-.671 0-1.343.288-1.918.767-.575.48-.959 1.15-1.055 1.822-.096.575-.096.959 0 1.15l4.028-3.547zm5.753-.096c.671-.767 1.438-1.151 2.301-1.151l-.287 1.534c-.576 0-1.055.192-1.439.48-.575.48-.959 1.055-1.055 1.726l-.67 3.835h-1.535l1.343-7.383h1.534l-.192.959zm5.274-1.055l-1.343 7.383h-1.534l1.343-7.383h1.534zm-.192-2.973c.288 0 .48.096.671.288.192.192.192.48.192.767-.096.288-.192.575-.48.767-.287.192-.479.288-.767.288-.287 0-.479-.096-.67-.288-.192-.192-.192-.48-.192-.767.095-.288.191-.575.479-.767.288-.192.48-.288.767-.288zm3.644 4.987l-.96 5.465H48.52l1.342-7.383h1.534l-.191.863c.479-.863 1.15-1.247 2.11-1.247.766 0 1.342.288 1.725.863.384.576.48 1.247.384 2.11l-.863 4.794h-1.535l.863-4.794c.096-.384 0-.767-.287-1.055-.288-.288-.575-.48-1.055-.48-.383 0-.863.192-1.15.48l-.384.384zm8.055.959l-.192 1.15c0 .48.191.863.48 1.247.383.48.958.767 1.725.767.671 0 1.343-.288 1.918-.767.575-.48.959-1.151 1.055-1.822.096-.672 0-1.343-.48-1.822-.383-.48-.959-.767-1.726-.767-.671 0-1.342.288-1.917.767-.384.384-.672.767-.863 1.247zm-.576 3.547l-.192.96h-1.534l2.014-11.507h1.534l-.767 4.602c.863-.767 1.726-1.15 2.685-1.15 1.15 0 2.014.383 2.685 1.246.67.767.863 1.726.67 2.877-.19 1.15-.766 2.11-1.725 2.876-.959.768-2.014 1.247-3.069 1.247-.959 0-1.725-.383-2.3-1.15zM70 44.78c-.96 0-1.63-.288-2.11-.863s-.671-1.246-.48-2.11l.768-4.506h1.534l-.767 4.41c-.096.384 0 .768.288 1.056.287.287.575.479 1.054.479a1.77 1.77 0 001.151-.48c.384-.287.576-.67.671-1.15l.767-4.411h1.535l-.767 4.507c-.192.863-.576 1.534-1.247 2.11-.671.67-1.438.958-2.397.958zm7.863-6.52c.67-.767 1.438-1.151 2.301-1.151l-.288 1.534c-.575 0-1.055.192-1.438.48-.575.48-.959 1.055-1.055 1.726l-.671 3.835h-1.534l1.342-7.383h1.534l-.191.959zm9.589 1.918c0-.48-.192-.863-.48-1.247-.383-.48-.959-.767-1.726-.767-.671 0-1.342.288-1.918.767-.575.48-.959 1.15-1.055 1.822-.095.671 0 1.342.384 1.822s.959.767 1.726.767 1.343-.288 1.918-.767c.48-.384.767-.767.863-1.247l.288-1.15zm.479-2.398l.096-.48h1.534l-.959 5.562c-.287 1.439-.863 2.59-1.726 3.356-.959.672-1.918 1.055-3.068 1.055-1.15 0-2.014-.383-2.685-1.055-.096-.191-.384-.479-.575-.958l1.534-.576c.191.192.287.384.287.48.384.48.96.767 1.727.767 1.15 0 2.109-.767 2.876-2.302-.671.863-1.534 1.343-2.685 1.343-1.15 0-2.014-.384-2.685-1.15-.67-.768-.863-1.727-.67-2.877.19-1.151.766-2.11 1.725-2.877.959-.767 2.014-1.247 3.069-1.247.863-.191 1.63.192 2.205.96z" fill="#ED1C24"/><path d="M143.354 44.972c.575-1.726 1.246-2.78 2.013-3.356.767-.576 1.534-.96 2.11-1.343a9.68 9.68 0 001.534-1.246c.479-.48.767-.96.863-1.439.096-.575 0-.958-.288-1.342-.287-.384-.767-.575-1.246-.575-.48 0-1.055.191-1.439.575-.383.288-.671.863-.863 1.63l-1.246-.48c.288-.958.767-1.63 1.342-2.109.767-.671 1.63-.959 2.493-.959.959 0 1.631.288 2.206.96.575.67.671 1.438.575 2.396-.192.863-.575 1.726-1.342 2.398-.48.383-.959.863-1.63 1.246-.576.384-1.247.863-2.014 1.342-.671.384-1.055.768-1.151 1.055h4.987l-.288 1.343h-6.616v-.096zm15.438-6.808c.096-.671 0-1.247-.384-1.63-.383-.48-.863-.672-1.534-.672s-1.247.192-1.822.672c-.575.48-.863 1.055-.959 1.63l-.575 3.26c-.096.671 0 1.246.383 1.63.384.48.863.671 1.535.671.671 0 1.246-.192 1.821-.67.576-.48.863-1.056.959-1.631l.576-3.26zm.863 3.26c-.192 1.055-.672 1.918-1.535 2.685-.863.767-1.821 1.055-2.876 1.055s-1.822-.384-2.493-1.055c-.576-.767-.767-1.63-.672-2.685l.576-3.26c.192-1.055.671-1.918 1.534-2.685.863-.767 1.822-1.055 2.877-1.055 1.054 0 1.822.384 2.493 1.055.575.767.767 1.63.671 2.685l-.575 3.26zm.863 3.548c.575-1.726 1.246-2.78 2.013-3.356.767-.576 1.535-.96 2.11-1.343a9.68 9.68 0 001.534-1.246c.48-.48.767-.96.863-1.439.096-.575 0-.958-.288-1.342-.287-.384-.767-.575-1.246-.575-.48 0-1.055.191-1.438.575-.384.288-.672.863-.863 1.63l-1.247-.48c.288-.958.767-1.63 1.342-2.109.768-.671 1.631-.959 2.494-.959.958 0 1.63.288 2.205.96.575.67.671 1.438.575 2.396-.191.863-.575 1.726-1.342 2.398-.48.383-.959.863-1.63 1.246-.576.384-1.247.863-2.014 1.342-.671.384-1.055.768-1.151 1.055h4.987l-.288 1.343h-6.616v-.096zm15.534-6.808c.096-.671 0-1.247-.384-1.63-.383-.48-.863-.672-1.534-.672s-1.247.192-1.822.672c-.575.48-.863 1.055-.959 1.63l-.575 3.26c-.096.671 0 1.246.383 1.63.384.48.863.671 1.535.671.671 0 1.246-.192 1.821-.67.576-.48.863-1.056.959-1.631l.576-3.26zm.767 3.26c-.192 1.055-.671 1.918-1.534 2.685-.863.767-1.822 1.055-2.877 1.055-1.055 0-1.822-.384-2.493-1.055-.576-.767-.767-1.63-.672-2.685l.576-3.26c.192-1.055.671-1.918 1.534-2.685.863-.767 1.822-1.055 2.877-1.055 1.055 0 1.822.384 2.493 1.055.575.767.767 1.63.671 2.685l-.575 3.26z" fill="#0073CC"/><path d="M113.053 11.027c.959-3.26 5.274-1.15 5.849 2.206 5.274-2.11 5.274-5.945 2.685-8.15-4.507-3.74-14.191-1.343-16.109 5.273-1.534 5.562 1.534 6.425 5.561 8.15.768.384 3.74.768 2.877 2.686-1.151 2.493-5.082 1.342-6.712-2.11-2.589-.192-5.274 2.493-4.794 4.89 1.054 6.137 12.945 6.712 17.643.384 1.63-2.206 2.397-5.945.959-7.863-2.014-2.589-8.63-2.973-7.959-5.466zm29.63 15.918c-.192-1.534 0-2.302.288-4.507.958-5.753 2.013-11.41.958-15.246-2.013-5.658-10.643-4.123-15.246-1.247-1.822 6.904-3.644 9.685-6.041 17.356-1.726 5.562 2.589 7.096 7.575 4.41.096-.67.671-2.972.959-3.547h3.165s-.672 2.301.191 3.548c1.63 2.205 6.329 1.534 8.151-.767zm-10.069-7.767c.768-2.11 1.726-6.617 2.014-7.575.192-.192 1.534-.096 1.726.095.096 1.822-.671 5.274-.959 7.384h-2.781v.096zm42.671-11.41c.479-5.754-8.438-6.425-11.123.67-1.438 3.932-3.452 9.014-4.123 10.74 0-1.822 1.15-10.548.671-13.041-.959-4.41-9.014-2.493-11.699-1.438-.287 3.643-.191 3.835-3.643 19.081-.672 2.973.383 4.89 2.876 4.89 2.302 0 4.411-1.63 4.987-4.506.479-2.301 1.534-10.74 1.917-14.096.672 3.069-.671 13.041-.575 15.822.096 1.247.575 2.877 3.356 2.877 1.63 0 3.74-.96 4.603-3.74 1.054-3.644 4.411-13.52 5.082-14.959-1.247 6.137-3.069 12.082-3.26 14.575-.288 1.439-.288 4.028 3.068 4.028 1.822 0 3.644-.767 4.411-1.822.479-5.082 3.068-15.055 3.452-19.082zm14.575 7.766c1.822-.48 4.219-1.726 4.986-5.37 1.63-7.863-10.931-8.246-16.301-4.41l-3.164 14.862c-.384 1.63-.576 2.302-.863 3.932-.671 3.548 2.205 4.219 5.466 4.219h3.356c4.315 0 9.588-1.822 10.739-6.808.959-4.89-1.726-6.233-4.219-6.425zm-6.137 2.301c3.836-1.246 2.781 6.233-1.151 5.274.096-.67.959-4.507 1.151-5.274zm1.726-8.821c3.356-1.343 3.164 4.698-.959 4.41l.959-4.41zm11.123 7.383c-2.493 11.507 3.356 12.37 7.48 12.37 3.835 0 10.356-1.055 12.849-12.37 2.013-9.685-1.534-13.04-7.288-13.04-6.137 0-11.027 3.739-13.041 13.04zm11.603-6.616c.479 0 2.205-.671.767 6.328-.959 4.507-2.205 7.096-3.644 7.096-1.15 0-1.918-1.055-.479-7.096 1.15-5.465 2.685-6.328 3.356-6.328z" fill="#ED1C24"/></svg>