<svg width="304" height="1441" viewBox="0 0 304 1441" fill="none" xmlns="http://www.w3.org/2000/svg"><mask id="a" maskUnits="userSpaceOnUse" x="0" y="0" width="304" height="1441"><path fill="#014980" d="M.496 0h303v1440.45h-303z"/></mask><g mask="url(#a)"><g filter="url(#filter0_f)" fill-rule="evenodd" clip-rule="evenodd"><path d="M136.297 117.143c21.492 8.11 38.929 7.299 43.389 4.866.811-.405 1.217-.811 1.217-1.622-.406-2.839-9.327-7.299-22.303-16.626-17.437-12.164-42.172-34.062-58.798-67.313C89.26 14.957 84.393-7.346 82.772-26.81c-.812-11.354-.812-21.491.405-30.412 2.027-17.437 5.677-28.79 5.271-31.224 0-.81-.405-.81-1.216 0C35.328-9.779 56.819 88.352 136.297 117.143z" fill="#5BCBF5"/><path d="M76.286-19.105C77.908-8.562 80.746 1.17 83.991 9.28c12.165 29.197 28.385 42.983 32.845 40.145 1.217-.811 1.622-3.244.811-7.3-1.216-8.92-6.893-25.546-11.354-49.065-.405-2.433-.811-5.271-1.216-8.11-5.272-33.656-4.866-78.261 17.031-113.945 1.622-2.433 3.244-4.866 4.866-6.894-13.787 8.516-26.358 19.869-35.279 34.468-17.03 25.952-19.464 56.77-15.409 82.316z" fill="#0064B1"/><path d="M30.063-72.226c-5.271 12.165-10.137 27.98-11.76 45.416-4.054 41.361 9.733 72.99 14.193 73.396.406 0 .811-.406.811-.811 2.028-5.272-3.244-35.279.811-73.396 4.46-42.983 19.059-73.801 14.598-73.396-2.838.406-11.354 11.354-18.653 28.79z" fill="#ED1C24"/><path d="M208.883 116.332c.405 6.488 19.869 15.409 60.014-7.299-14.598 2.839-18.653 5.272-34.468 4.866-8.515 0-16.625-2.838-20.68-1.622-2.028.811-4.866 2.028-4.866 4.055zm49.066-199.1c-2.839 2.028-4.055 3.244-6.083 6.082-1.622 1.217-3.244 2.839-5.271 4.46-5.272 4.461-11.76 9.733-18.248 15.41-5.271 3.65-12.57 12.976-15.409 18.247-1.622 2.839-2.027 6.083-1.622 8.516.406 2.028 1.622 3.65 3.244 4.46 5.677 3.65 17.031 5.678 30.007 15.004 33.657 23.114 56.77 71.774 36.09 111.513-.811 1.622-1.622 3.244-2.433 4.46 30.818-9.326 59.203-26.357 77.045-37.306 8.515-5.271 11.354 18.248 16.625-7.299 8.921-44.2 9.327-114.351-39.333-156.523-10.949-9.327-24.33-15.409-35.684-14.598-8.921.406-16.22 4.866-20.275 9.732-.811.81-1.622 2.027-2.028 2.838-1.216.406-2.027 1.217-3.649 2.028-2.028 2.027-4.055 4.055-5.677 6.082-2.839 2.028-4.866 4.461-7.299 6.894z" fill="#5BCBF5"/><path d="M154.549 181.212c1.622 7.705 47.038 22.708 102.186-2.433 4.866-2.433 10.137-4.866 15.003-8.11-58.392 11.76-105.024 3.65-115.162 7.705-1.622 1.216-2.433 2.027-2.027 2.838z" fill="#0064B1"/><path d="M161.035 194.189c.811 0-118-34.873-145.98-175.177C9.784-7.75 12.217-23.97 13.028-28.837c.405-3.244-.811-.81-1.622.406-39.334 91.643 31.629 211.671 149.629 222.62z" fill="#0064B1"/><path d="M260.38 145.934c11.76-5.271 17.437-11.759 17.842-15.003 0-1.217-.405-2.028-2.027-1.622-4.055.811-13.787 8.11-27.574 15.003-6.488 3.244-14.193 6.488-22.303 8.516-8.11.405-16.22-.406-23.519-.811-14.192-1.622-25.141-4.055-28.385-3.244-.811 0-.811.405-1.217.405-.405 1.622 8.111 5.272 20.681 6.488 8.11.811 17.842.811 27.98-1.622 1.216-.405 2.838-.811 4.055-1.216 6.488-.406 12.976-.811 19.464-2.433 6.488-.811 10.948-2.433 15.003-4.461z" fill="#ED1C24"/><path d="M230.377-27.215c7.705 5.272 19.059 12.976 30.818 25.952 13.382 14.193 26.764 34.873 34.874 60.42 1.216 3.244 2.027 6.487 2.838 9.731 5.677 24.33 5.272 49.877-1.622 71.369-6.488 20.68-19.059 37.306-32.846 48.254 11.76-3.244 23.925-8.11 36.09-15.003 57.176-36.09 88.805-102.997 70.152-169.905-10.949-39.334-38.117-72.179-72.179-83.533-6.894-8.921-16.221-18.248-27.98-26.763-30.413-21.086-62.042-20.275-64.475-17.842 0 0-.405.405 0 .405.406 2.433 26.358 6.488 54.337 25.952 6.894 4.867 13.382 10.138 19.465 15.004-7.299 1.216-12.976 4.866-17.031 9.327-6.488 7.704-8.111 8.92-25.953 19.058-4.866 2.433-9.732 5.271-13.787 8.92-10.543 8.922 0 13.788 7.299 18.654z" fill="#0064B1"/><path d="M330.532 69.7c25.546-50.282-26.358-76.234-34.468-92.454-6.082-12.57.811-23.925 4.055-30.413 5.272-10.137 23.114-16.22 45.416 0 7.299 5.272 15.004 13.787 21.086 24.33 3.244 6.083 6.488 12.57 8.516 19.87 2.838 10.948 2.433 25.14-1.622 37.306-6.488 20.275-25.952 36.9-42.983 41.36zM135.085-129.4c.405-2.839.811-5.272 1.216-7.705 1.622-7.299 3.244-11.354 2.839-12.165 0-.405-2.433 2.028-2.433 2.028-4.461 4.866-17.031 15.409-27.169 35.278C23.167 52.67 223.89 173.914 316.749 72.945c-9.732-.811-29.196-4.866-39.333-8.11-21.897-6.488-42.983-18.248-61.231-32.44-36.089-27.98-66.097-69.341-77.451-112.324-4.055-15.815-5.677-33.251-3.649-49.471z" fill="#ED1C24"/></g><g opacity=".5" filter="url(#filter1_f)" fill-rule="evenodd" clip-rule="evenodd"><path d="M275.044 1031.05c43.449 16.4 78.7 14.76 87.717 9.84 1.64-.82 2.459-1.64 2.459-3.28-.819-5.74-18.855-14.76-45.088-33.61-35.251-24.597-85.258-68.866-118.869-136.088-21.315-43.449-31.152-88.537-34.431-127.887-1.64-22.954-1.64-43.449.82-61.484 4.099-35.251 11.477-58.205 10.657-63.124 0-1.64-.82-1.64-2.459 0-104.933 159.039-61.485 357.428 99.194 415.633z" fill="#5BCBF5"/><path d="M153.721 755.602c3.279 21.315 9.017 40.99 15.575 57.385 24.594 59.025 57.386 86.898 66.404 81.159 2.459-1.639 3.279-6.558 1.639-14.756-2.459-18.035-13.937-51.646-22.954-99.194-.82-4.919-1.64-10.657-2.459-16.396-10.658-68.042-9.838-158.219 34.431-230.361 3.279-4.918 6.558-9.837 9.837-13.936-27.873 17.216-53.286 40.169-71.321 69.682-34.432 52.466-39.35 114.771-31.152 166.417z" fill="#0064B1"/><path d="M166.832 540.818c26.233-47.548 99.195-83.619 177.894-89.357 130.347-9.018 239.379 40.17 257.414 27.873 7.378-5.739-.82-20.495-22.134-36.071-31.972-22.954-92.636-47.548-172.156-42.629-176.254 10.657-237.739 122.149-241.018 140.184zM60.27 648.208c-10.657 24.594-20.494 56.566-23.773 91.817-8.198 83.618 19.675 147.561 28.692 148.381.82 0 1.64-.819 1.64-1.639 4.098-10.657-6.559-71.322 1.639-148.382 9.018-86.898 38.53-149.201 29.513-148.382-5.739.82-22.955 22.954-37.71 58.205z" fill="#ED1C24"/><path d="M325.053 1186.81c1.64 0-238.558-70.5-295.123-354.148-10.658-54.106-5.739-86.897-4.1-96.734.82-6.559-1.639-1.64-3.278.819-79.52 185.272 63.943 427.933 302.501 450.063z" fill="#0064B1"/><path d="M272.591 532.621c.82-5.739 1.639-10.657 2.459-15.576 3.279-14.756 6.558-22.954 5.739-24.594 0-.82-4.919 4.099-4.919 4.099-9.018 9.838-34.431 31.152-54.926 71.322-174.615 332.834 231.18 577.948 418.912 373.823-19.675-1.639-59.025-9.837-79.52-16.396-44.268-13.116-86.897-36.89-123.788-65.583-72.961-56.565-133.625-140.183-156.579-227.081-8.198-31.971-11.477-67.222-7.378-100.014z" fill="#ED1C24"/><path d="M204.544 496.549c22.954-14.756 64.763-36.07 122.148-43.448 95.096-11.477 177.075 13.936 190.191 4.918 4.919-3.279-2.459-12.296-18.855-20.494-24.593-12.297-70.502-24.594-128.707-18.036-79.519 9.018-141.003 54.926-168.876 77.88 1.64 0 3.279 0 4.099-.82z" fill="#0064B1"/></g><g opacity=".2" filter="url(#filter2_f)"><path fill-rule="evenodd" clip-rule="evenodd" d="M254.006 1612.62c39.982-72.47 151.181-127.44 271.126-136.19 198.659-13.74 364.834 61.22 392.321 42.48 11.245-8.74-1.25-31.23-33.735-54.97-48.728-34.99-141.185-72.47-262.38-64.97-268.627 16.24-362.334 186.16-367.332 213.65z" fill="#ED1C24"/></g></g><defs><filter id="filter0_f" x="-149.504" y="-345" width="704.897" height="689.189" filterUnits="userSpaceOnUse" color-interpolation-filters="sRGB"><feFlood flood-opacity="0" result="BackgroundImageFix"/><feBlend in="SourceGraphic" in2="BackgroundImageFix" result="shape"/><feGaussianBlur stdDeviation="75" result="effect1_foregroundBlur"/></filter><filter id="filter1_f" x="-209.504" y="190" width="1238.57" height="1206.81" filterUnits="userSpaceOnUse" color-interpolation-filters="sRGB"><feFlood flood-opacity="0" result="BackgroundImageFix"/><feBlend in="SourceGraphic" in2="BackgroundImageFix" result="shape"/><feGaussianBlur stdDeviation="105" result="effect1_foregroundBlur"/></filter><filter id="filter2_f" x="-149.504" y="1248" width="1547.57" height="1499.17" filterUnits="userSpaceOnUse" color-interpolation-filters="sRGB"><feFlood flood-opacity="0" result="BackgroundImageFix"/><feBlend in="SourceGraphic" in2="BackgroundImageFix" result="shape"/><feGaussianBlur stdDeviation="75" result="effect1_foregroundBlur"/></filter></defs></svg>