<svg width="303" height="7028" viewBox="0 0 303 7028" fill="none" xmlns="http://www.w3.org/2000/svg"><mask id="a" maskUnits="userSpaceOnUse" x="0" y="0" width="303" height="7028"><path fill="#014980" d="M0 0h303v7028H0z"/></mask><g mask="url(#a)" fill-rule="evenodd" clip-rule="evenodd"><g filter="url(#filter0_f)"><path d="M6.387 116.332c.405 6.488 19.87 15.409 60.014-7.299-14.598 2.839-18.653 5.272-34.468 4.866-8.515 0-16.626-2.838-20.68-1.622-2.028.811-4.866 2.028-4.866 4.055zm49.066-199.1c-2.839 2.028-4.055 3.244-6.083 6.082-1.622 1.217-3.244 2.839-5.271 4.46-5.272 4.461-11.76 9.733-18.248 15.41-5.271 3.65-12.57 12.976-15.409 18.247-1.622 2.839-2.027 6.083-1.622 8.516.406 2.028 1.622 3.65 3.244 4.46 5.677 3.65 17.031 5.678 30.007 15.004 33.657 23.114 56.77 71.774 36.09 111.513-.811 1.622-1.622 3.244-2.433 4.46 30.818-9.326 59.203-26.357 77.045-37.306 8.515-5.271 11.354 18.248 16.625-7.299 8.921-44.2 9.327-114.351-39.333-156.523-10.949-9.327-24.33-15.409-35.684-14.598-8.921.406-16.22 4.866-20.275 9.732-.811.81-1.622 2.027-2.028 2.838-1.216.406-2.027 1.217-3.65 2.028-2.027 2.027-4.054 4.055-5.676 6.082-2.839 2.028-4.866 4.461-7.3 6.894z" fill="#5BCBF5"/><path d="M-47.947 181.212c1.622 7.705 47.038 22.708 102.186-2.433 4.866-2.433 10.137-4.866 15.003-8.11-58.392 11.76-105.024 3.65-115.162 7.705-1.622 1.216-2.433 2.027-2.027 2.838z" fill="#0064B1"/><path d="M57.884 145.934c11.76-5.271 17.437-11.759 17.842-15.003 0-1.217-.405-2.028-2.027-1.622-4.055.811-13.787 8.11-27.574 15.003-6.488 3.244-14.193 6.488-22.303 8.516-8.11.405-16.22-.406-23.519-.811-14.192-1.622-25.14-4.055-28.385-3.244-.81 0-.811.405-1.217.405-.405 1.622 8.11 5.272 20.681 6.488 8.11.811 17.842.811 27.98-1.622 1.216-.405 2.838-.811 4.055-1.216 6.487-.406 12.976-.811 19.464-2.433 6.488-.811 10.948-2.433 15.003-4.461zm79.074 11.759c10.543-7.299 26.357-24.735 36.495-47.849 16.625-38.117 12.57-72.99 18.247-77.045 2.433-1.622 6.083 2.433 8.516 10.543 3.65 12.165 4.866 32.846-4.866 56.365-13.382 32.034-44.605 51.093-60.014 59.203.811-.406 1.216-.811 1.622-1.217z" fill="#ED1C24"/><path d="M27.881-27.215C35.586-21.943 46.94-14.239 58.7-1.263 72.081 12.93 85.463 33.61 93.573 59.157c1.216 3.244 2.027 6.487 2.838 9.731 5.677 24.33 5.272 49.877-1.622 71.369-6.488 20.68-19.059 37.306-32.846 48.254 11.76-3.244 23.925-8.11 36.09-15.003 57.176-36.09 88.805-102.997 70.152-169.905-10.949-39.334-38.118-72.179-72.18-83.533-6.893-8.921-16.22-18.248-27.98-26.763-30.412-21.086-62.04-20.275-64.474-17.842 0 0-.405.405 0 .405.406 2.433 26.358 6.488 54.337 25.952C64.782-93.31 71.27-88.04 77.353-83.174c-7.3 1.216-12.977 4.866-17.032 9.327-6.488 7.704-8.11 8.92-25.952 19.058-4.866 2.433-9.732 5.271-13.787 8.92-10.543 8.922 0 13.788 7.3 18.654z" fill="#0064B1"/><path d="M128.036 69.7c25.546-50.282-26.358-76.234-34.468-92.454-6.082-12.57.811-23.925 4.055-30.413 5.272-10.137 23.113-16.22 45.416 0 7.299 5.272 15.004 13.787 21.086 24.33 3.244 6.083 6.488 12.57 8.516 19.87 2.838 10.948 2.433 25.14-1.622 37.306-6.488 20.275-25.952 36.9-42.983 41.36zM-67.411-129.4c.405-2.839.81-5.272 1.216-7.705 1.622-7.299 3.244-11.354 2.839-12.165 0-.405-2.433 2.028-2.433 2.028-4.46 4.866-17.031 15.409-27.169 35.278C-179.329 52.67 21.394 173.914 114.253 72.945c-9.732-.811-29.196-4.866-39.334-8.11-21.896-6.488-42.983-18.248-61.23-32.44-36.09-27.98-66.097-69.341-77.45-112.324-4.056-15.815-5.678-33.251-3.65-49.471z" fill="#ED1C24"/></g><g opacity=".5" filter="url(#filter1_f)"><path d="M256.548 1031.05c43.448 16.4 78.699 14.76 87.717 9.84 1.64-.82 2.459-1.64 2.459-3.28-.819-5.74-18.855-14.76-45.088-33.61-35.251-24.597-85.258-68.866-118.869-136.088-21.315-43.449-31.152-88.537-34.432-127.887-1.639-22.954-1.639-43.449.821-61.484 4.099-35.251 11.477-58.205 10.657-63.124 0-1.64-.82-1.64-2.46 0C52.42 774.456 95.869 972.845 256.548 1031.05z" fill="#5BCBF5"/><path d="M135.225 755.602c3.279 21.315 9.017 40.99 15.575 57.385 24.594 59.025 57.386 86.898 66.403 81.159 2.46-1.639 3.28-6.558 1.64-14.756-2.459-18.035-13.937-51.646-22.954-99.194-.82-4.919-1.64-10.657-2.46-16.396-10.657-68.042-9.837-158.219 34.432-230.361 3.279-4.918 6.558-9.837 9.837-13.936-27.873 17.216-53.286 40.169-71.321 69.682-34.432 52.466-39.35 114.771-31.152 166.417z" fill="#0064B1"/><path d="M148.336 540.818c26.233-47.548 99.194-83.619 177.894-89.357 130.347-9.018 239.379 40.17 257.414 27.873 7.378-5.739-.82-20.495-22.134-36.071-31.972-22.954-92.637-47.548-172.156-42.629-176.255 10.657-237.739 122.149-241.018 140.184zM41.774 648.208C31.117 672.802 21.28 704.774 18 740.025c-8.197 83.618 19.675 147.561 28.693 148.381.82 0 1.64-.819 1.64-1.639 4.098-10.657-6.559-71.322 1.639-148.382 9.018-86.898 38.53-149.201 29.513-148.382-5.739.82-22.955 22.954-37.711 58.205z" fill="#ED1C24"/><path d="M293.441 1160.58c3.279 15.57 95.096 45.91 206.587-4.92 9.838-4.92 20.495-9.84 30.332-16.4-118.049 23.78-212.325 7.38-232.82 15.58-3.279 2.46-4.918 4.1-4.099 5.74z" fill="#0064B1"/><path d="M306.557 1186.81c1.64 0-238.558-70.5-295.124-354.148-10.657-54.106-5.738-86.897-4.098-96.734.82-6.559-1.64-1.64-3.28.819C-75.463 922.019 68 1164.68 306.558 1186.81z" fill="#0064B1"/><path d="M254.095 532.621c.82-5.739 1.639-10.657 2.459-15.576 3.279-14.756 6.558-22.954 5.739-24.594 0-.82-4.919 4.099-4.919 4.099-9.018 9.838-34.431 31.152-54.926 71.322C27.833 900.706 433.628 1145.82 621.36 941.695c-19.675-1.639-59.025-9.837-79.52-16.396-44.268-13.116-86.897-36.89-123.788-65.583-72.961-56.565-133.625-140.183-156.579-227.081-8.198-31.971-11.477-67.222-7.378-100.014z" fill="#ED1C24"/><path d="M186.048 496.549c22.954-14.756 64.763-36.07 122.148-43.448 95.096-11.477 177.075 13.936 190.191 4.918 4.919-3.279-2.459-12.296-18.855-20.494-24.593-12.297-70.502-24.594-128.707-18.036-79.519 9.018-141.003 54.926-168.876 77.88 1.64 0 3.279 0 4.099-.82z" fill="#0064B1"/></g><g opacity=".5" filter="url(#filter2_f)"><path d="M68.256 3577.22c59.021 22.28 106.906 20.05 119.156 13.37 2.227-1.12 3.341-2.23 3.341-4.46-1.114-7.79-25.613-20.04-61.249-45.66-47.885-33.4-115.815-93.54-161.473-184.85-28.954-59.03-42.317-120.27-46.771-173.73-2.228-31.18-2.227-59.02 1.114-83.52 5.568-47.88 15.59-79.06 14.476-85.75 0-2.22-1.113-2.22-3.34 0-142.542 216.04-83.521 485.54 134.746 564.6z" fill="#5BCBF5"/><path d="M-96.549 3203.05c4.455 28.96 12.25 55.68 21.158 77.96 33.409 80.18 77.953 118.04 90.203 110.24 3.34-2.22 4.455-8.91 2.227-20.04-3.34-24.5-18.932-70.16-31.181-134.75-1.114-6.68-2.227-14.48-3.341-22.27-14.477-92.43-13.363-214.93 46.772-312.92 4.454-6.69 8.909-13.37 13.363-18.94-37.863 23.39-72.385 54.57-96.884 94.66-46.771 71.27-53.453 155.91-42.317 226.06z" fill="#0064B1"/><path d="M-78.738 2911.29c35.635-64.59 134.746-113.59 241.653-121.39 177.063-12.24 325.174 54.57 349.673 37.87 10.022-7.8-1.114-27.84-30.068-49-43.43-31.18-125.837-64.59-233.857-57.91-239.426 14.48-322.947 165.93-327.401 190.43z" fill="#ED1C24"/><path d="M190.748 2930.22c2.227-6.68 16.704-7.8 33.408-3.34 21.159 5.57 42.318 14.48 63.476 25.61 36.749 31.18-5.568 32.3-30.067 22.27-41.204-10.02-64.59-28.95-66.817-41.2v-3.34zM267.592 3575c1.113 17.81 54.566 42.31 164.814-20.05-40.09 7.8-51.226 14.48-94.657 13.37-23.386 0-45.658-7.8-56.794-4.46-5.568 2.23-13.363 5.57-13.363 11.14zm134.744-546.78c-7.796 5.57-11.136 8.91-16.704 16.7-4.455 3.34-8.909 7.8-14.477 12.25-14.477 12.25-32.295 26.73-50.113 42.32-14.476 10.02-34.521 35.63-42.317 50.11-4.454 7.8-5.568 16.7-4.454 23.39 1.113 5.56 4.454 10.02 8.908 12.25 15.591 10.02 46.772 15.59 82.408 41.2 92.429 63.48 155.904 197.11 99.11 306.24-2.227 4.46-4.454 8.91-6.681 12.25 84.634-25.61 162.587-72.38 211.585-102.45 23.386-14.48 31.181 50.11 45.658-20.05 24.499-121.38 25.614-314.03-108.019-429.85-30.068-25.61-66.817-42.31-97.998-40.09-24.5 1.12-44.545 13.37-55.681 26.73-2.227 2.23-4.454 5.57-5.568 7.79-3.341 1.12-5.567 3.34-10.022 5.57-5.568 5.57-11.136 11.14-15.591 16.71-7.795 5.56-13.363 12.25-20.044 18.93z" fill="#5BCBF5"/><path d="M118.374 3753.17c4.454 21.16 129.178 62.37 280.629-6.68 13.363-6.68 27.84-13.36 41.204-22.27-160.36 32.3-288.425 10.02-316.265 21.16-4.455 3.34-6.682 5.57-5.568 7.79z" fill="#0064B1"/><path d="M136.19 3788.81c2.227 0-324.06-95.77-400.899-481.08-14.477-73.5-7.795-118.04-5.568-131.4 1.114-8.91-2.227-2.23-4.454 1.11-108.02 251.68 86.861 581.3 410.921 611.37z" fill="#0064B1"/><path d="M409.018 3656.29c32.295-14.48 47.886-32.29 48.999-41.2 0-3.34-1.113-5.57-5.568-4.46-11.136 2.23-37.862 22.28-75.725 41.21-17.817 8.91-38.976 17.82-61.248 23.38-22.272 1.12-44.544-1.11-64.589-2.22-38.977-4.46-69.044-11.14-77.953-8.91-2.227 0-2.228 1.11-3.341 1.11-1.114 4.46 22.272 14.48 56.794 17.82 22.272 2.23 48.999 2.23 76.839-4.46 3.341-1.11 7.795-2.22 11.136-3.34 17.818-1.11 35.636-2.22 53.454-6.68 17.817-2.23 30.066-6.68 41.202-12.25z" fill="#ED1C24"/><path d="M326.62 3180.78c21.159 14.48 52.339 35.64 84.634 71.27 36.749 38.98 73.498 95.77 95.771 165.93 3.34 8.91 5.567 17.82 7.794 26.72 15.591 66.82 14.478 136.98-4.454 196-17.817 56.79-52.34 102.45-90.202 132.52 32.294-8.91 65.703-22.27 99.111-41.2 157.019-99.11 243.88-282.86 192.654-466.61-30.067-108.02-104.679-198.22-198.222-229.4-18.931-24.5-44.545-50.11-76.839-73.5-83.521-57.9-170.382-55.68-177.063-49 0 0-1.114 1.12 0 1.12 1.113 6.68 72.384 17.82 149.223 71.27 18.931 13.36 36.749 27.84 53.453 41.2-20.045 3.34-35.635 13.37-46.771 25.62-17.818 21.15-22.273 24.49-71.272 52.33-13.363 6.69-26.726 14.48-37.862 24.5-28.954 24.5 0 37.87 20.045 51.23z" fill="#0064B1"/><path d="M64.923 2900.15c1.113-7.79 2.227-14.47 3.34-21.16 4.455-20.04 8.91-31.18 7.796-33.4 0-1.12-6.682 5.56-6.682 5.56-12.25 13.37-46.771 42.32-74.612 96.89-237.198 452.12 314.038 785.09 569.054 507.8-26.727-2.22-80.18-13.36-108.02-22.27-60.135-17.82-118.042-50.11-168.155-89.09-99.111-76.84-181.518-190.42-212.7-308.47-11.135-43.43-15.59-91.31-10.021-135.86z" fill="#ED1C24"/><path d="M-27.51 2851.15c31.18-20.04 87.975-49 165.927-59.02 129.179-15.59 240.539 18.93 258.357 6.68 6.682-4.45-3.341-16.7-25.613-27.84-33.408-16.7-95.77-33.4-174.836-24.5-108.02 12.25-191.54 74.62-229.403 105.8 2.227 0 4.454 0 5.568-1.12z" fill="#0064B1"/></g><g opacity=".2" filter="url(#filter3_f)"><path d="M-79.566 2359.77c66.22 24.99 119.945 22.49 133.69 15 2.498-1.25 3.747-2.5 3.747-5-1.25-8.75-28.737-22.49-68.718-51.23-53.726-37.48-129.941-104.95-181.167-207.4-32.486-66.22-47.479-134.94-52.477-194.91-2.498-34.99-2.498-66.22 1.25-93.71 6.247-53.73 17.492-88.71 16.243-96.21 0-2.49-1.25-2.49-3.748 0-159.927 242.39-93.708 544.76 151.18 633.46z" fill="#5BCBF5"/><path d="M-244.49 1612.62c39.981-72.47 151.18-127.44 271.126-136.19 198.659-13.74 364.833 61.22 392.321 42.48 11.245-8.74-1.25-31.23-33.735-54.97-48.728-34.99-141.185-72.47-262.38-64.97-268.627 16.24-362.335 186.16-367.332 213.65z" fill="#ED1C24"/><path d="M57.865 1633.86c2.5-7.5 18.742-8.75 37.483-3.75 23.739 6.25 47.479 16.24 71.218 28.74 41.231 34.98-6.248 36.23-33.735 24.99-46.229-11.25-72.467-32.49-74.966-46.23v-3.75zm86.217 723.42c1.249 19.99 61.222 47.48 184.915-22.49-44.979 8.74-57.473 16.24-106.201 14.99-26.238 0-51.227-8.75-63.721-5-6.248 2.5-14.993 6.25-14.993 12.5zm151.178-613.47c-8.746 6.25-12.494 9.99-18.742 18.74-4.997 3.75-9.995 8.75-16.242 13.74-16.243 13.75-36.233 29.99-56.224 47.48-16.243 11.25-38.732 39.98-47.478 56.23-4.998 8.74-6.248 18.74-4.998 26.23 1.249 6.25 4.997 11.25 9.995 13.75 17.492 11.24 52.476 17.49 92.458 46.23 103.702 71.21 174.919 221.15 111.199 343.59-2.499 5-4.998 10-7.497 13.74 94.957-28.73 182.417-81.21 237.392-114.94 26.238-16.25 34.983 56.22 51.226-22.49 27.487-136.19 28.737-352.34-121.194-482.28-33.735-28.74-74.966-47.48-109.95-44.98-27.488 1.25-49.977 14.99-62.472 29.98-2.499 2.5-4.997 6.25-6.247 8.75-3.748 1.25-6.247 3.75-11.244 6.25-6.247 6.24-12.495 12.49-17.493 18.74-8.746 6.25-14.993 13.74-22.489 21.24z" fill="#5BCBF5"/><path d="M-23.336 2557.18c4.998 23.74 144.934 69.97 314.856-7.49 14.993-7.5 31.236-14.99 46.229-24.99-179.917 36.23-323.602 11.24-354.838 23.74-4.998 3.75-7.496 6.25-6.247 8.74z" fill="#0064B1"/><path d="M302.758 2448.49c36.233-16.25 53.726-36.24 54.975-46.23 0-3.75-1.249-6.25-6.247-5-12.494 2.5-42.481 24.99-84.961 46.23-19.991 9.99-43.73 19.99-68.719 26.24-24.988 1.25-49.977-1.25-72.466-2.5-43.73-5-77.465-12.5-87.46-10-2.5 0-2.5 1.25-3.75 1.25-1.249 5 24.99 16.24 63.722 19.99 24.989 2.5 54.974 2.5 86.21-5 3.748-1.24 8.746-2.49 12.494-3.74 19.991-1.25 39.983-2.5 59.974-7.5 19.99-2.5 33.733-7.5 46.228-13.74zm-32.481-835.87c1.25 3.75 36.234 11.24 79.964 28.73 48.728 18.75 87.46 42.48 91.208 38.74v-1.25c-2.499-7.5-33.734-33.74-78.714-51.23-46.229-19.99-88.709-19.99-92.458-14.99z" fill="#ED1C24"/><path d="M210.308 1914.98c23.739 16.24 58.723 39.98 94.956 79.96 41.232 43.73 82.463 107.45 107.452 186.17 3.748 9.99 6.246 19.99 8.745 29.98 17.492 74.97 16.243 153.68-4.997 219.9-19.991 63.72-58.724 114.95-101.204 148.68 36.233-9.99 73.716-24.98 111.199-46.22 176.17-111.2 273.625-317.36 216.151-523.51-33.734-121.2-117.446-222.4-222.398-257.39-21.24-27.48-49.977-56.22-86.211-82.46-93.707-64.97-191.162-62.47-198.659-54.97 0 0-1.249 1.25 0 1.25 1.25 7.49 81.213 19.99 167.423 79.96 21.241 14.99 41.232 31.23 59.974 46.23-22.49 3.75-39.982 14.99-52.477 28.74-19.99 23.73-24.988 27.48-79.963 58.72-14.993 7.49-29.986 16.24-42.48 27.49-32.486 27.48-.001 42.48 22.489 57.47z" fill="#0064B1"/><path d="M466.439 1758.8c1.249-23.74-16.243-58.72-52.476-81.21-37.483-23.74-82.462-27.49-113.698-14.99-97.456 39.98 139.936 189.91 166.174 96.2zm-549.744-158.67c1.25-8.75 2.498-16.25 3.748-23.74 4.998-22.49 9.995-34.99 8.746-37.49 0-1.25-7.497 6.25-7.497 6.25-13.744 14.99-52.475 47.48-83.711 108.7-266.128 507.27 352.338 880.85 638.458 569.74-29.987-2.5-89.959-14.99-121.195-24.99-67.469-19.99-132.439-56.22-188.664-99.95C55.381 2012.44-37.077 1885-72.06 1752.56c-12.495-48.73-17.492-102.46-11.245-152.43z" fill="#ED1C24"/><path d="M-187.013 1545.15c34.984-22.49 98.705-54.98 186.165-66.22 144.933-17.49 269.876 21.24 289.867 7.5 7.497-5-3.748-18.74-28.736-31.24-37.483-18.74-107.451-37.48-196.16-27.49-121.195 13.75-214.902 83.72-257.383 118.7 2.499 0 4.998 0 6.247-1.25z" fill="#0064B1"/></g></g><defs><filter id="filter0_f" x="-352" y="-345" width="704.897" height="689.189" filterUnits="userSpaceOnUse" color-interpolation-filters="sRGB"><feFlood flood-opacity="0" result="BackgroundImageFix"/><feBlend in="SourceGraphic" in2="BackgroundImageFix" result="shape"/><feGaussianBlur stdDeviation="75" result="effect1_foregroundBlur"/></filter><filter id="filter1_f" x="-228" y="190" width="1238.57" height="1206.81" filterUnits="userSpaceOnUse" color-interpolation-filters="sRGB"><feFlood flood-opacity="0" result="BackgroundImageFix"/><feBlend in="SourceGraphic" in2="BackgroundImageFix" result="shape"/><feGaussianBlur stdDeviation="105" result="effect1_foregroundBlur"/></filter><filter id="filter2_f" x="-514.691" y="2510" width="1531.95" height="1488.81" filterUnits="userSpaceOnUse" color-interpolation-filters="sRGB"><feFlood flood-opacity="0" result="BackgroundImageFix"/><feBlend in="SourceGraphic" in2="BackgroundImageFix" result="shape"/><feGaussianBlur stdDeviation="105" result="effect1_foregroundBlur"/></filter><filter id="filter3_f" x="-648" y="1248" width="1547.57" height="1499.17" filterUnits="userSpaceOnUse" color-interpolation-filters="sRGB"><feFlood flood-opacity="0" result="BackgroundImageFix"/><feBlend in="SourceGraphic" in2="BackgroundImageFix" result="shape"/><feGaussianBlur stdDeviation="75" result="effect1_foregroundBlur"/></filter></defs></svg>