<svg width="107" height="118" viewBox="0 0 107 118" fill="none" xmlns="http://www.w3.org/2000/svg"><path d="M12.07 23.963C5.445 30.59 1.814 39.394 1.814 48.653c0 19.333 15.883 35.036 35.304 34.946 9.439 0 18.333-3.631 25.048-10.348 6.626-6.626 10.256-15.34 10.256-24.69 0-9.348-3.721-18.153-10.346-24.688" stroke="#FF000A" stroke-width="3"/><path d="M63.618 44.75c.545 2.723.545 5.446.182 8.26-.908 6.716-4.447 12.707-9.983 16.792-5.536 4.175-12.252 5.9-19.15 4.992C20.691 72.797 10.89 59.908 12.795 45.93m91.664 56.367l-13.16 13.161-28.86-28.592 13.25-13.07 28.77 28.501zm-9.53 1.271L79.047 87.774m.09-7.534L68.973 90.316m.364-10.53L63.8 74.25" stroke="#FF000A" stroke-width="3"/><path d="M37.482 1.815c-13.976 0-25.23 11.165-25.23 24.962s25.14 35.037 25.14 35.037S62.62 40.574 62.62 26.777 51.367 1.815 37.48 1.815z" stroke="#FF000A" stroke-width="3"/><path d="M37.481 39.122c-6.897 0-12.524-5.537-12.524-12.345 0-6.808 5.627-12.344 12.524-12.344 6.898 0 12.524 5.537 12.524 12.344-.09 6.808-5.626 12.345-12.524 12.345z" stroke="#FF000A" stroke-width="3"/></svg>