<svg width="109" height="111" viewBox="0 0 109 111" fill="none" xmlns="http://www.w3.org/2000/svg"><path d="M92.483 105.188L62.131 49.351l19.2-19.622 19.872 66.532-8.72 8.927zM72.025 25.686L14.423 7.916l-8.72 8.927L53.412 43.71" stroke="#FF000A" stroke-width="3"/><path d="M83.763 36.972l19.536-19.876c3.019-3.116 5.702-10.864 2.599-13.98C102.796 0 95.25 2.695 92.231 5.81L29.766 69.396l-19.452-5.98-7.546 7.664 22.554 12.717 1.426 1.516L39.24 108.22l7.546-7.663-5.87-19.792 19.788-20.212M19.621 90.956l16.937-17.18m-8.051-35.373L13.75 53.478m4.193-20.548l-7.379 7.579M71.269 81.86L56.428 97.02m20.122-4.38l-7.378 7.58" stroke="#FF000A" stroke-width="3"/></svg>