<svg width="120" height="101" viewBox="0 0 120 101" fill="none" xmlns="http://www.w3.org/2000/svg"><path d="M28.8 53.88H3.877l11.077-13.795h14.03m62.308 0h13.662l11.169 13.794H92.03m22.339 37.123V54.527m-108.739 0v36.475" stroke="#FF000A" stroke-width="3"/><path d="M28.893 18.885v71.561h62.215v-71.56" stroke="#FF000A" stroke-width="3"/><path d="M116.03 90.446H3.969v8.61H116.03v-8.61zM13.2 63.692v6.017m7.661-6.017v6.017M13.2 72.672v6.017m7.661-6.017v6.017m78.277-14.997v6.017m7.569-6.017v6.017m-7.569 2.963v6.017m7.569-6.017v6.017M38.953 50.731v6.018m8.4-6.018v6.018m8.401-6.018v6.018m8.398-6.018v6.018m8.492-6.018v6.018m8.402-6.018v6.018m-42.093 4.999v5.925m8.4-5.925v5.925m8.401-5.925v5.925m8.398-5.925v5.925m8.492-5.925v5.925m8.402-5.925v5.925M38.953 29.347v6.017m8.4-6.017v6.017m8.401-6.017v6.017m8.398-6.017v6.017m8.492-6.017v6.017m8.402-6.017v6.017m-42.093 4.999v5.925m8.4-5.925v5.925m8.401-5.925v5.925m8.398-5.925v5.925m8.492-5.925v5.925m8.402-5.925v5.925M50.308 19.07H25.662V9.629h23.354m22.06-.001h23.262v9.443h-24.37M43.477 89.058V75.17h33.046v13.887" stroke="#FF000A" stroke-width="3"/><path d="M71.262 13.33c0 6.296-5.076 11.48-11.354 11.48-6.276 0-11.353-5.091-11.353-11.48C48.647 6.944 53.724 1.853 60 1.853s11.262 5.09 11.262 11.477zM60 7.406v11.757m5.816-5.832h-11.63" stroke="#FF000A" stroke-width="3"/></svg>