<svg width="117" height="90" viewBox="0 0 117 90" fill="none" xmlns="http://www.w3.org/2000/svg"><path d="M60.304 88.108c20.093 0 36.382-16.578 36.382-37.027 0-20.45-16.289-37.027-36.382-37.027-20.093 0-36.382 16.577-36.382 37.027S40.21 88.108 60.304 88.108z" stroke="#FF000A" stroke-width="3"/><path d="M85.674 51.081c0 14.234-11.375 25.766-25.368 25.766-13.993 0-25.368-11.532-25.368-25.766 0-14.324 11.374-25.856 25.368-25.856 14.083 0 25.368 11.532 25.368 25.856zm-41.891-.001c0-9.279 7.403-16.846 16.521-16.846M1.805 3.423v23.604c0 3.423 1.986 6.396 4.875 7.838v49.099c0 2.342 1.896 4.324 4.243 4.324 2.347 0 4.243-1.892 4.243-4.324v-49.73c2.257-1.531 3.791-4.234 3.791-7.207V3.423M10.38 20.36V3.423m94.522 34.144c0 6.577.632 12.793 1.806 18.108v28.469c0 2.252 1.896 4.054 4.243 4.054 2.347 0 4.243-1.802 4.243-4.054V2.973c-5.868 2.973-10.292 17.297-10.292 34.594zm2.166 16.487h9.66" stroke="#FF000A" stroke-width="3"/></svg>