<svg width="133" height="134" viewBox="0 0 133 134" fill="none" xmlns="http://www.w3.org/2000/svg"><path d="M77.374 99.864l-.304.305c-1.722 2.641-3.444 5.282-5.166 7.822-1.52 2.438-5.47 2.844-8.611.609-3.444-2.438-13.777-11.885-20.16-18.081-6.078-6.502-15.398-17.168-17.829-20.622-2.228-3.149-1.823-7.11.608-8.736 2.533-1.727 5.167-3.454 7.7-5.18l.303-.305c-6.585-8.127-12.663-16.355-17.93-24.583-3.344 2.133-6.585 4.774-9.523 7.72a42.586 42.586 0 00-3.951 4.571c-1.317 16.558 6.18 38.398 26.947 59.324 20.868 22.348 43.358 30.475 59.971 29.155 1.52-1.321 3.04-2.642 4.458-4.064 2.937-3.047 5.47-6.298 7.597-9.752-8.104-5.384-16.208-11.479-24.11-18.183z" stroke="#FF000A" stroke-width="4"/><path d="M50.327 43.08c0-6.705 5.369-12.19 11.954-12.19 6.584 0 11.953 5.485 11.953 12.19v1.625c0 7.212-15.195 12.698-20.26 20.316-5.167 7.822-4.761 13.612-4.761 13.612h24.92m23.908 2.743V29.265" stroke="#FF000A" stroke-width="4"/><path d="M106.044 66.139H76.261l21.476-35.25" stroke="#FF000A" stroke-width="4" stroke-linejoin="bevel"/><path d="M28.705 16.22c24.501-20.284 60.68-18.835 83.514 4.14 23.355 23.494 24.293 61.063 2.815 85.798" stroke="#FF000A" stroke-width="4" stroke-dasharray="4 3.94"/></svg>