<svg width="84" height="113" viewBox="0 0 84 113" fill="none" xmlns="http://www.w3.org/2000/svg"><path d="M80.874 23.73h-38.83" stroke="#FF000A" stroke-width="3" stroke-dasharray="4 4"/><path d="M68.452 39.028v28.25m0 9.388v12.778" stroke="#FF000A" stroke-width="3"/><path d="M63.327 101.004h14.94c2.172 0 3.91-1.564 3.91-3.563V5.302c0-1.912-1.738-3.564-3.91-3.564h-7.296c-1.911 2.782-5.299 4.694-9.208 4.694S54.38 4.52 52.555 1.738h-7.383c-2.172 0-3.91 1.565-3.91 3.564v20.949" stroke="#FF000A" stroke-width="3" stroke-linejoin="round"/><path d="M55.509 33.465H1.739v77.796h53.77V33.465z" stroke="#FF000A" stroke-width="3"/><path d="M41.09 65.28c0 7.127-5.82 12.864-13.03 12.864-7.21 0-13.03-5.737-13.03-12.865 0-7.127 5.82-12.864 13.03-12.864 7.21 0 13.03 5.823 13.03 12.864z" stroke="#FF000A" stroke-width="3" stroke-linecap="round" stroke-linejoin="round"/><path d="M32.316 65.28c0 7.127-1.912 12.864-4.344 12.864-2.345 0-4.343-5.737-4.343-12.865 0-7.127 1.911-12.864 4.343-12.864s4.344 5.823 4.344 12.864z" stroke="#FF000A" stroke-width="3" stroke-linecap="round" stroke-linejoin="round"/><path d="M14.682 65.28h27.884M18.85 90.052h19.546" stroke="#FF000A" stroke-width="3" stroke-linejoin="round"/></svg>