<svg width="103" height="29" viewBox="0 0 103 29" fill="none" xmlns="http://www.w3.org/2000/svg"><path fill-rule="evenodd" clip-rule="evenodd" d="M6.577 18.928c.643 0 1.186-.101 1.681-.254.445-.153.89-.305 1.286-.458.197-.102.346-.102.395-.102.1.051.149.153.248.356l.84 1.782c.099.203.149.356.099.458 0 .101-.099.203-.247.254-.742.458-1.533.814-2.275.967a12.12 12.12 0 01-2.373.254c-1.138 0-2.077-.203-2.868-.56a5.209 5.209 0 01-1.929-1.475c-.494-.61-.84-1.374-1.088-2.24C.1 17.046 0 16.079 0 15.06c0-1.068.148-2.035.445-2.9a6.574 6.574 0 011.286-2.24 5.52 5.52 0 011.978-1.424c.79-.357 1.631-.51 2.571-.51.742 0 1.434.052 2.077.204.643.102 1.236.357 1.78.662.099.05.198.102.247.153.05.05.1.101.1.152v.204c0 .102-.05.203-.1.305l-.692 1.629c-.099.254-.198.407-.247.458-.1.05-.247.05-.445-.051-.248-.102-.495-.153-.693-.204l-.593-.152c-.198-.051-.396-.051-.593-.102h-.643c-.791 0-1.434.305-1.929.967-.494.661-.741 1.577-.741 2.85 0 1.221.197 2.188.642 2.799.445.763 1.138 1.068 2.127 1.068zm17.653-4.733l-1.73 2.901-2.572 4.02c-.148.204-.247.357-.346.459-.1.102-.198.203-.346.254a.91.91 0 01-.396.102c-.148 0-.346.05-.544.05h-.89c-.593 0-.94-.152-1.137-.457-.198-.306-.247-.662-.247-1.12V8.7c0-.254.148-.407.445-.407h2.62c.198 0 .346.051.396.102.05.05.05.153.05.305v7.481h.148l1.681-2.697 2.62-4.275c.15-.203.248-.356.347-.509.099-.101.198-.203.346-.254a.91.91 0 01.396-.102h1.434c.544 0 .89.102 1.088.305.197.204.296.611.296 1.222v11.807c0 .254-.148.407-.445.407h-2.62c-.198 0-.347-.051-.396-.102-.05-.051-.05-.153-.05-.305v-7.482h-.148zm18.89-3.206c0 .306-.149.458-.396.458H39.46v10.23c0 .152 0 .254-.05.305-.049.05-.197.102-.395.102h-2.72c-.296 0-.445-.153-.445-.407v-10.23h-3.164c-.248 0-.396-.152-.396-.458V8.801c0-.203.05-.356.1-.407.048-.051.147-.051.296-.051h10.038c.148 0 .247 0 .297.05.049.052.099.205.099.408v2.188zm12.609 3.206l-1.73 2.901-2.572 4.02c-.148.204-.247.357-.346.459-.1.102-.198.203-.346.254a.91.91 0 01-.396.102c-.148 0-.346.05-.544.05h-.89c-.593 0-.94-.152-1.137-.457-.198-.306-.248-.662-.248-1.12V8.7c0-.254.149-.407.445-.407h2.621c.198 0 .346.051.396.102.05.05.05.153.05.305v7.481h.148l1.68-2.697 2.622-4.275c.148-.203.247-.356.346-.509.099-.101.198-.203.346-.254a.91.91 0 01.396-.102h1.434c.544 0 .89.102 1.088.305.197.204.296.611.296 1.222v11.807c0 .254-.148.407-.445.407h-2.62c-.198 0-.347-.051-.396-.102-.05-.051-.05-.153-.05-.305v-7.482h-.148zm15.428 4.733c.643 0 1.187-.101 1.681-.254.445-.153.89-.305 1.286-.458.198-.102.346-.102.396-.102.099.051.148.153.247.356l.84 1.782c.1.203.149.356.1.458 0 .101-.1.203-.248.254-.742.458-1.533.814-2.275.967a12.12 12.12 0 01-2.373.254c-1.137 0-2.077-.203-2.868-.56a5.209 5.209 0 01-1.929-1.475c-.494-.61-.84-1.374-1.087-2.24-.248-.865-.347-1.832-.347-2.85 0-1.068.149-2.035.445-2.9a6.573 6.573 0 011.286-2.24 5.52 5.52 0 011.978-1.424c.791-.357 1.632-.51 2.571-.51.742 0 1.434.052 2.077.204.643.102 1.237.357 1.78.662.1.05.198.102.248.153.05.05.099.101.099.152v.204c0 .102-.05.203-.1.305l-.692 1.629c-.099.254-.197.407-.247.458-.099.05-.247.05-.445-.051-.247-.102-.494-.153-.692-.204l-.594-.152c-.197-.051-.395-.051-.593-.102h-.643c-.791 0-1.434.305-1.928.967-.495.661-.742 1.577-.742 2.85 0 1.221.198 2.188.643 2.799.445.763 1.186 1.068 2.126 1.068z" fill="#fff"/><path fill-rule="evenodd" clip-rule="evenodd" d="M92.584 13.639c-.971-.76-1.478-1.182-.549-2.618 1.14-1.69 2.83-3.59 4.603-5.11.717-.59 1.013-.886.464-1.815l-2.745-2.914c-.506-.633-.506-.717-1.393-.21-2.238 1.182-4.73 3.842-6.503 6.502-3.335 5.025-2.449 9.163.254 11.865.38.38 1.097.423 1.562-.126l4.307-4.265a.63.63 0 00.127-.338c.042-.169.084-.802-.127-.971z" fill="url(#paint0_linear)"/><path fill-rule="evenodd" clip-rule="evenodd" d="M94.823 15.497c.971.76 1.393 1.773.464 3.166-1.14 1.69-3.251 3.336-5.025 4.856-.253.212-.168.634-.168.93 0 .253.084.506.422.97l2.407 3.04c.506.634.506.719 1.393.212 2.238-1.182 4.73-3.843 6.503-6.503 3.336-5.025 2.449-9.163-.254-11.865-.38-.38-1.097-.422-1.562.127l-4.391 3.8c-.042.042-.042.633-.042.76s.084.338.253.507z" fill="url(#paint1_linear)"/><path fill-rule="evenodd" clip-rule="evenodd" d="M92.5 13.555c-.972-.76-1.394-1.774-.465-3.167 1.14-1.69 2.83-3.59 4.603-5.11.717-.59.76-.802.168-1.646L94.4.592c-.55-.676-.55-.76-1.436-.254-2.238 1.182-4.73 3.842-6.503 6.503-3.335 5.025-2.449 9.162.254 11.865.38.38 1.097.422 1.562-.127l4.307-4.307c.084-.084.253-.464-.085-.717z" fill="url(#paint2_linear)"/><path fill-rule="evenodd" clip-rule="evenodd" d="M94.823 14.821c.971.76 1.394 1.774.465 3.167-1.14 1.69-2.83 3.59-4.603 5.11-.718.59-.76.802-.169 1.646l2.407 3.04c.507.634.507.718 1.393.212 2.238-1.183 4.73-3.843 6.503-6.503 3.336-5.025 2.449-9.163-.253-11.865-.38-.38-1.098-.423-1.563.126l-4.307 4.35c-.084.042-.253.464.127.717z" fill="url(#paint3_linear)"/><g opacity=".5"><path opacity=".5" d="M93.724.211c.084 0 .211.127.422.38l.043.085 2.406 3.04c.55.76.507.844-.126 1.351-1.731 1.478-3.463 3.42-4.603 5.152-.887 1.35-.718 2.533.507 3.462.084.085.126.127.169.211 0 .085-.043.169-.043.211l-4.349 4.35a.881.881 0 01-.675.337.803.803 0 01-.55-.21c-1.773-1.816-4.18-5.701-.21-11.613 1.858-2.913 4.349-5.362 6.376-6.46.295-.17.506-.296.633-.296zm0-.211c-.169 0-.38.127-.76.338-2.238 1.182-4.73 3.842-6.503 6.503-3.335 5.024-2.449 9.162.254 11.865.169.169.422.295.718.295.295 0 .59-.126.844-.422l4.307-4.307c.084-.084.253-.464-.127-.76-.97-.76-1.393-1.773-.464-3.167 1.14-1.689 2.829-3.589 4.602-5.11.718-.59.76-.801.17-1.646L94.356.55c-.252-.381-.421-.55-.632-.55z" fill="url(#paint4_linear)"/><path opacity=".5" d="M99.848 9.585c.211 0 .422.085.549.211 1.773 1.816 4.18 5.7.211 11.612-1.9 2.914-4.35 5.363-6.376 6.46-.296.17-.507.296-.633.296-.085 0-.212-.126-.423-.38l-.042-.084-2.407-3.04c-.549-.76-.507-.845.127-1.352 1.731-1.477 3.462-3.42 4.602-5.151.887-1.351.718-2.534-.506-3.463a.748.748 0 01-.17-.21c0-.085.043-.17.043-.212l4.307-4.307c.211-.253.465-.38.718-.38zm0-.211c-.296 0-.591.127-.845.422l-4.307 4.307c-.084.085-.253.465.127.76.971.76 1.394 1.774.465 3.167-1.14 1.69-2.83 3.59-4.603 5.11-.718.59-.76.802-.169 1.646l2.407 3.04c.296.338.422.55.633.55.17 0 .38-.127.76-.338 2.238-1.183 4.73-3.843 6.503-6.503 3.336-5.025 2.449-9.163-.253-11.865-.169-.212-.423-.296-.718-.296z" fill="url(#paint5_linear)"/></g><defs><linearGradient id="paint0_linear" x1="89.672" y1="23.087" x2="91.403" y2="2.615" gradientUnits="userSpaceOnUse"><stop stop-color="#13552D"/><stop offset="1" stop-color="#648F0F"/></linearGradient><linearGradient id="paint1_linear" x1="96.533" y1="20.248" x2="97.31" y2="13.337" gradientUnits="userSpaceOnUse"><stop stop-color="#B26603"/><stop offset="1" stop-color="#BB4403"/></linearGradient><linearGradient id="paint2_linear" x1="89.593" y1="22.432" x2="91.325" y2="1.96" gradientUnits="userSpaceOnUse"><stop stop-color="#409364"/><stop offset="1" stop-color="#A3CC39"/></linearGradient><linearGradient id="paint3_linear" x1="96.569" y1="19.604" x2="97.347" y2="12.693" gradientUnits="userSpaceOnUse"><stop stop-color="#EBA521"/><stop offset="1" stop-color="#F38020"/></linearGradient><linearGradient id="paint4_linear" x1="90.763" y1="19.003" x2="90.763" y2="0" gradientUnits="userSpaceOnUse"><stop stop-color="#fff" stop-opacity="0"/><stop offset=".93" stop-color="#fff" stop-opacity=".93"/><stop offset="1" stop-color="#fff"/></linearGradient><linearGradient id="paint5_linear" x1="96.544" y1="28.369" x2="96.544" y2="9.365" gradientUnits="userSpaceOnUse"><stop stop-color="#fff" stop-opacity="0"/><stop offset=".93" stop-color="#fff" stop-opacity=".93"/><stop offset="1" stop-color="#fff"/></linearGradient></defs></svg>