<svg width="52" height="52" viewBox="0 0 52 52" fill="none" xmlns="http://www.w3.org/2000/svg"><path fill-rule="evenodd" clip-rule="evenodd" d="M26 1c13.779 0 25 11.243 25 25 0 13.779-11.243 25-25 25C12.222 51 1 39.757 1 26 1 12.222 12.222 1 26 1z" fill="#1068B3" stroke="#FFF200" stroke-width="1.984" stroke-miterlimit="22.926"/><path fill-rule="evenodd" clip-rule="evenodd" d="M26 7.403c10.228 0 18.597 8.348 18.597 18.597 0 10.228-8.348 18.597-18.597 18.597C15.772 44.597 7.403 36.25 7.403 26 7.403 15.772 15.772 7.403 26 7.403z" fill="#FFF200" stroke="#fff" stroke-width=".215" stroke-miterlimit="22.926"/><path fill-rule="evenodd" clip-rule="evenodd" d="M26.36 33.058l10.756 7.862-4.163-12.765 10.63-8.03h-13.25L26.358 7.699v25.36z" fill="#ED1C24"/><path fill-rule="evenodd" clip-rule="evenodd" d="M25.727 33.058l-10.715 7.946 4.248-12.849-10.841-8.03h13.25l4.058-12.426v25.36z" fill="#1068B3"/><path fill-rule="evenodd" clip-rule="evenodd" d="M25.049 4.804l-1.458-1.078 1.838-.042L26 1.95l.613 1.733 1.817.042-1.437 1.078.486 1.733L26 5.543l-1.458.994.507-1.733zm10.82 3.043l-1.48-1.057 1.84-.084.549-1.733.655 1.733 1.796.021-1.416 1.099.507 1.733-1.479-.993-1.458 1.014.486-1.733zM16.301 45.104l.55 1.712-1.522-1.015-1.48 1.078.508-1.775-1.437-1.078 1.796-.042.592-1.712.634 1.67 1.775.042-1.416 1.12zM43.793 15.73l-1.458-1.078 1.838-.064.571-1.733.613 1.733 1.817.064-1.437 1.077.508 1.733-1.5-.993-1.46.993.508-1.733zM7.954 36.165l1.817-.021-1.437 1.162.592 1.733-1.543-1.014-1.479 1.035.507-1.712-1.458-1.099 1.796-.084.571-1.69.634 1.69zM4.572 27.29l-1.458 1.077.486-1.775-1.479-1.057 1.839-.084.591-1.691.592 1.69 1.796.022-1.373 1.12.507 1.712-1.5-1.015zm42.899 0l1.48 1.035-.529-1.754 1.458-1.1-1.838-.02-.634-1.691-.55 1.69-1.817.085 1.437 1.1-.486 1.71 1.48-1.056zM35.68 45.02l-.55 1.732 1.521-1.035 1.48 1.056-.508-1.754 1.416-1.12-1.796-.02-.613-1.691-.613 1.67-1.775.063 1.437 1.099zm-10.524 3.17l-.55 1.732 1.522-1.035 1.48 1.056-.53-1.775 1.438-1.099-1.796-.02-.613-1.691-.613 1.669-1.775.063 1.437 1.1zM16.045 7.847l1.437-1.078-1.838-.063-.57-1.733-.614 1.733-1.796.063 1.437 1.078-.507 1.733 1.48-1.014 1.478 1.014-.507-1.733zm27.516 29.438l-.57 1.712 1.542-1.015 1.48 1.078-.507-1.775 1.437-1.078-1.797-.042-.591-1.712-.634 1.67-1.776.042 1.416 1.12zM7.91 14.567l-.57-1.712-.613 1.733-1.818.021 1.458 1.12-.507 1.733 1.458-1.035 1.5.993-.485-1.712 1.394-1.099-1.817-.042z" fill="#FFF200"/></svg>