<svg width="52" height="52" viewBox="0 0 52 52" fill="none" xmlns="http://www.w3.org/2000/svg"><g opacity=".15" fill="#fff"><path d="M26 52C11.663 52 0 40.337 0 26S11.663 0 26 0s26 11.663 26 26-11.663 26-26 26zm0-48.75C13.455 3.25 3.25 13.455 3.25 26S13.455 48.75 26 48.75 48.75 38.545 48.75 26 38.545 3.25 26 3.25z"/><path d="M37.375 27.625h-22.75a1.626 1.626 0 010-3.25h22.75a1.626 1.626 0 010 3.25z"/><path d="M26 39a1.626 1.626 0 01-1.625-1.625v-22.75a1.626 1.626 0 013.25 0v22.75c0 .897-.728 1.625-1.625 1.625z"/></g></svg>