<svg width="50" height="50" viewBox="0 0 50 50" fill="none" xmlns="http://www.w3.org/2000/svg"><path opacity=".1" d="M49.999 11.957c0-.14-.03-.277-.082-.404-.02-.052-.056-.09-.084-.139-.037-.061-.064-.129-.113-.183L39.936.36a1.084 1.084 0 00-.807-.36H20.65a3.265 3.265 0 00-3.261 3.26v5.435H3.26A3.265 3.265 0 000 11.956V46.74A3.265 3.265 0 003.26 50h26.087a3.265 3.265 0 003.261-3.26v-5.435h14.13a3.265 3.265 0 003.26-3.26v-23.91L50 14.13l-.001-2.174zM30.434 46.739c0 .599-.488 1.087-1.087 1.087H3.261a1.089 1.089 0 01-1.087-1.087V11.957c0-.599.488-1.087 1.087-1.087h14.13v11.956c0 .6.487 1.087 1.087 1.087h11.956V46.74zm0-25h-10.87V10.87h.638l10.232 10.233v.636zm17.391 16.304c0 .6-.488 1.087-1.087 1.087h-14.13V22.875l.001-.049-.001-2.174v-.003a1.08 1.08 0 00-.297-.742c0-.003-.003-.003-.002-.003l-.001-.002a.002.002 0 01-.002-.002l-.015-.015-10.87-10.87a1.09 1.09 0 00-.77-.319h-1.087V3.261a1.09 1.09 0 011.087-1.087h15.217v11.957c0 .6.487 1.087 1.087 1.087h10.87v22.825zm0-25h-9.783V2.175h.603l9.18 10.2v.67z" fill="#fff"/></svg>