<svg width="50" height="50" viewBox="0 0 50 50" fill="none" xmlns="http://www.w3.org/2000/svg"><g opacity=".17" clip-path="url(#clip0)" fill="#fff"><path d="M31.897 18.115a1.17 1.17 0 00-1.171 1.171v22.131a1.171 1.171 0 002.342 0v-22.13a1.17 1.17 0 00-1.171-1.172zm-13.817 0a1.17 1.17 0 00-1.171 1.171v22.131a1.171 1.171 0 002.341 0v-22.13a1.17 1.17 0 00-1.17-1.172z"/><path d="M8.01 14.885v28.85c0 1.705.625 3.306 1.717 4.456a5.766 5.766 0 004.184 1.808h22.155a5.765 5.765 0 004.183-1.809c1.093-1.148 1.718-2.75 1.718-4.455v-28.85a4.473 4.473 0 00-1.148-8.796h-5.995V4.625A4.6 4.6 0 0030.187 0H19.789a4.6 4.6 0 00-4.637 4.625v1.464H9.157a4.474 4.474 0 00-1.148 8.796zm28.056 32.773H13.91c-2.002 0-3.56-1.72-3.56-3.923V14.988h29.274v28.747c0 2.203-1.557 3.923-3.56 3.923zM17.494 4.625a2.254 2.254 0 012.295-2.283h10.398a2.255 2.255 0 012.295 2.283v1.464H17.494V4.625zM9.157 8.43h31.662a2.108 2.108 0 110 4.215H9.157a2.108 2.108 0 110-4.215z"/><path d="M24.988 18.115a1.17 1.17 0 00-1.17 1.171v22.131a1.171 1.171 0 002.341 0v-22.13a1.17 1.17 0 00-1.17-1.172z"/></g><defs><clipPath id="clip0"><path fill="#fff" d="M0 0h50v50H0z"/></clipPath></defs></svg>