<svg xmlns="http://www.w3.org/2000/svg" viewBox="0 0 25 25"><path d="M2.87 6.23c.37-.37.99-.36 1.38.03l8.82 8.82c.39.39.4 1.01.03 1.38-.37.37-.99.36-1.38-.03L2.9 7.61c-.39-.39-.4-1-.03-1.38z"/><path d="M21.97 6.27c.37.37.35.98-.04 1.37l-8.77 8.8c-.39.39-1 .41-1.37.04-.37-.37-.35-.98.04-1.37l8.77-8.8c.39-.39 1-.41 1.37-.04z"/><path d="M20.3 4.52H4.74c-1.22 0-2.21.99-2.21 2.21v10.64c0 1.17.95 2.12 2.12 2.12h15.66c1.19 0 2.16-.97 2.16-2.16V6.68c0-1.19-.97-2.16-2.17-2.16zm-.74 13.04H5.42c-.56 0-1.01-.45-1.01-1.01V6.38h16.13v10.19c.01.55-.43.99-.98.99z"/></svg>