<svg width="20" height="20" viewBox="0 0 20 20" fill="none" xmlns="http://www.w3.org/2000/svg"><path d="M10 20c5.523 0 10-4.477 10-10S15.523 0 10 0 0 4.477 0 10s4.477 10 10 10z" fill="#FFC10E"/><path d="M10 15.254a1.087 1.087 0 100-2.174 1.087 1.087 0 000 2.174zM6.96 8.121a1.57 1.57 0 100-3.14 1.57 1.57 0 000 3.14zm5.939 0a1.57 1.57 0 100-3.14 1.57 1.57 0 000 3.14z" fill="#333"/><path d="M3.411 12.98a1.89 1.89 0 100-3.78 1.89 1.89 0 000 3.78zm13.036 0a1.89 1.89 0 100-3.78 1.89 1.89 0 000 3.78z" fill="#F0AE1D"/></svg>