<svg width="20" height="20" viewBox="0 0 20 20" fill="none" xmlns="http://www.w3.org/2000/svg"><g clip-path="url(#clip0)"><path d="M10 20c5.523 0 10-4.477 10-10S15.523 0 10 0 0 4.477 0 10s4.477 10 10 10z" fill="#FFC10E"/><path d="M3.04 10.007c.044 2.654 1.504 5.029 3.873 6.238 2.582 1.317 5.717.75 7.836-1.152.38-.34-.18-.898-.558-.558-1.95 1.749-4.73 2.125-7.064.934-2.042-1.042-3.26-3.204-3.297-5.462-.009-.509-.798-.51-.79 0zM6.96 7.34c.868 0 1.57-.353 1.57-.79 0-.435-.702-.789-1.57-.789-.867 0-1.57.354-1.57.79 0 .436.703.79 1.57.79zm5.939.782a1.57 1.57 0 100-3.142 1.57 1.57 0 000 3.142z" fill="#333"/></g><defs><clipPath id="clip0"><path fill="#fff" d="M0 0h20v20H0z"/></clipPath></defs></svg>