<svg width="20" height="20" viewBox="0 0 20 20" fill="none" xmlns="http://www.w3.org/2000/svg"><g clip-path="url(#clip0)"><path d="M10 20c5.523 0 10-4.477 10-10S15.523 0 10 0 0 4.477 0 10s4.477 10 10 10z" fill="#FFC10E"/><path d="M6.96 8.121a1.57 1.57 0 100-3.141 1.57 1.57 0 000 3.141zm5.939 0a1.57 1.57 0 100-3.141 1.57 1.57 0 000 3.141z" fill="#333"/><path d="M15.237 13.358a.586.586 0 01.334.759l-.425 1.093a.586.586 0 01-.76.334L4.762 11.8a.587.587 0 01-.334-.76l.425-1.093a.586.586 0 01.76-.334l9.625 3.745z" fill="#EFEFEF"/><path d="M14.254 9.425a.587.587 0 01.773.3l.472 1.075a.586.586 0 01-.3.773l-9.455 4.159a.587.587 0 01-.773-.301L4.5 14.357a.587.587 0 01.3-.773l9.455-4.159z" fill="#fff"/></g><defs><clipPath id="clip0"><path fill="#fff" d="M0 0h20v20H0z"/></clipPath></defs></svg>