<svg width="20" height="20" viewBox="0 0 20 20" fill="none" xmlns="http://www.w3.org/2000/svg"><g clip-path="url(#clip0)"><path d="M10 20c5.523 0 10-4.477 10-10S15.523 0 10 0 0 4.477 0 10s4.477 10 10 10z" fill="#FFC10E"/><path d="M6.962 6.89c.868 0 1.57-.664 1.57-1.482s-.702-1.48-1.57-1.48c-.867 0-1.57.662-1.57 1.48s.703 1.481 1.57 1.481zM10 18.094c2.47 0 4.47-1.984 4.47-4.432 0-2.448-2-4.433-4.47-4.433-2.468 0-4.47 1.985-4.47 4.433 0 2.448 2.002 4.432 4.47 4.432zm2.899-10.062a2.623 2.623 0 100-5.247 2.623 2.623 0 000 5.247z" fill="#333"/></g><defs><clipPath id="clip0"><path fill="#fff" d="M0 0h20v20H0z"/></clipPath></defs></svg>