<svg width="20" height="20" viewBox="0 0 20 20" fill="none" xmlns="http://www.w3.org/2000/svg"><g clip-path="url(#clip0)"><path d="M10 20c5.523 0 10-4.477 10-10S15.523 0 10 0 0 4.477 0 10s4.477 10 10 10z" fill="#FFC10E"/><path d="M9.005 6.55c-.112 2.638-3.976 2.638-4.088 0-.05-1.148.967-1.998 2.044-2.043 1.149-.05 1.998.967 2.044 2.044.022.507.811.51.79 0C9.727 4.96 8.55 3.785 6.96 3.717 5.37 3.65 4.19 5.062 4.127 6.551 4.06 8.139 5.472 9.32 6.961 9.385 8.55 9.452 9.73 8.04 9.795 6.55c.021-.51-.768-.507-.79 0zm5.921 0c-.112 2.638-3.976 2.638-4.088 0-.05-1.148.967-1.998 2.044-2.043 1.149-.05 1.998.967 2.044 2.044.022.507.811.51.79 0-.068-1.59-1.244-2.766-2.834-2.834-1.59-.067-2.77 1.345-2.834 2.834-.067 1.588 1.345 2.77 2.834 2.834 1.589.067 2.77-1.345 2.834-2.834.021-.51-.768-.507-.79 0zm-.44 6.821a6.251 6.251 0 01-9.008-.037c-.354-.367-.912.192-.558.558a7.05 7.05 0 0010.124.038c.357-.364-.201-.922-.558-.559z" fill="#333"/><path d="M4.417 6.17c-1.103.21-2.63.42-3.893.63a9.919 9.919 0 00-.243.84c1.333-.236 3.107-.473 4.346-.709.5-.095.287-.856-.21-.761zm11.018 0c-.498-.095-.71.666-.21.761 1.276.244 3.15.487 4.498.73a9.982 9.982 0 00-.241-.839c-1.293-.217-2.907-.435-4.047-.652zm-4.54-.838c.509 0 .509-.79 0-.79H8.92c-.51 0-.51.79 0 .79h1.974zM6.96 7.648a1.097 1.097 0 100-2.194 1.097 1.097 0 000 2.194zm5.939-.08a1.018 1.018 0 100-2.035 1.018 1.018 0 000 2.035z" fill="#333"/></g><defs><clipPath id="clip0"><path fill="#fff" d="M0 0h20v20H0z"/></clipPath></defs></svg>