<svg width="20" height="20" viewBox="0 0 20 20" fill="none" xmlns="http://www.w3.org/2000/svg"><g clip-path="url(#clip0)"><path d="M10 20c5.523 0 10-4.477 10-10S15.523 0 10 0 0 4.477 0 10s4.477 10 10 10z" fill="#FFC10E"/><path d="M3.435 10.007a6.565 6.565 0 0013.13 0H3.434z" fill="#fff"/><path d="M7.078 10.007v5.879c.256.127.52.237.79.33v-6.21h-.79zm4.878 0v6.268c.271-.085.535-.188.79-.306v-5.962h-.79z" fill="#CCCBCB"/><path d="M9.25 6.701c-.072-1.318-1.013-2.26-2.332-2.33-1.316-.072-2.266 1.118-2.331 2.33-.028.51.762.507.79 0 .106-1.987 2.976-1.987 3.083 0 .027.507.817.51.79 0zm5.688 0c-.071-1.319-1.013-2.26-2.332-2.331-1.316-.071-2.265 1.119-2.33 2.331-.028.51.761.506.789 0 .107-1.987 2.976-1.987 3.083 0 .027.506.817.51.79 0z" fill="#333"/></g><defs><clipPath id="clip0"><path fill="#fff" d="M0 0h20v20H0z"/></clipPath></defs></svg>