<svg width="20" height="20" viewBox="0 0 20 20" fill="none" xmlns="http://www.w3.org/2000/svg"><g clip-path="url(#clip0)"><path d="M10 20c5.523 0 10-4.477 10-10S15.523 0 10 0 0 4.477 0 10s4.477 10 10 10z" fill="#FFC10E"/><path d="M7.396 6.414a1.758 1.758 0 100-3.516 1.758 1.758 0 000 3.516zm4.91 0a1.758 1.758 0 100-3.516 1.758 1.758 0 000 3.516zm-.942 8h3.858c.51 0 .51-.79 0-.79h-3.858c-.509 0-.509.79 0 .79z" fill="#333"/></g><defs><clipPath id="clip0"><path fill="#fff" d="M0 0h20v20H0z"/></clipPath></defs></svg>