<svg width="20" height="20" viewBox="0 0 20 20" fill="none" xmlns="http://www.w3.org/2000/svg"><path d="M10 20c5.523 0 10-4.477 10-10S15.523 0 10 0 0 4.477 0 10s4.477 10 10 10z" fill="#FFC10E"/><path d="M7.686 4.64c-.596 0-1.15.291-1.483.778l-.069.088-.046-.059a1.769 1.769 0 00-1.487-.806c-1.028 0-1.774.746-1.774 1.774 0 1.517 2.748 3.754 2.948 3.915a.503.503 0 00.7 0c.2-.162 2.985-2.434 2.985-3.915 0-1.028-.746-1.774-1.774-1.774zm7.788 0c-.596 0-1.15.291-1.483.778l-.069.088-.046-.059a1.769 1.769 0 00-1.487-.806c-1.028 0-1.774.746-1.774 1.774 0 1.517 2.748 3.754 2.948 3.915a.503.503 0 00.7 0c.2-.162 2.985-2.434 2.985-3.915 0-1.028-.746-1.774-1.774-1.774z" fill="#ED3533"/><path d="M14.486 13.372a6.251 6.251 0 01-9.008-.038c-.354-.366-.912.192-.558.558a7.05 7.05 0 0010.124.038c.357-.363-.201-.922-.558-.558z" fill="#333"/></svg>