<svg width="20" height="20" viewBox="0 0 20 20" fill="none" xmlns="http://www.w3.org/2000/svg"><path d="M10 20c5.523 0 10-4.477 10-10S15.523 0 10 0 0 4.477 0 10s4.477 10 10 10z" fill="#FFC10E"/><path d="M15.052 14.943a7.05 7.05 0 00-10.132.03c-.354.365.204.924.558.558a6.252 6.252 0 019.016-.03c.356.365.914-.194.558-.558zM6.96 8.121a1.57 1.57 0 100-3.14 1.57 1.57 0 000 3.14zm5.94 0a1.57 1.57 0 100-3.14 1.57 1.57 0 000 3.14z" fill="#333"/><path d="M14.482 7.96s-1.162 1.429-1.162 2.904a1.161 1.161 0 102.323 0c0-.715-1.162-2.905-1.162-2.905z" fill="#A2D4DE"/></svg>