<svg width="20" height="20" viewBox="0 0 20 20" fill="none" xmlns="http://www.w3.org/2000/svg"><path d="M10 20c5.523 0 10-4.477 10-10S15.523 0 10 0 0 4.477 0 10s4.477 10 10 10z" fill="#FFC10E"/><path d="M15.093 14.987a7.05 7.05 0 00-10.173-.014c-.354.365.204.924.558.558a6.252 6.252 0 019.056.014c.354.368.912-.191.559-.558z" fill="#333"/><path d="M4.933 5.269a12.841 12.841 0 00-2.064 2.97c-.583 1.152-.313 2.56.85 3.24 1.062.623 2.657.302 3.24-.85.213-.42.444-.829.7-1.225.12-.187.25-.366.383-.544-.408.549.133-.128.24-.242.881-.942.936-2.414 0-3.35-.89-.89-2.468-.943-3.35 0zm12.579 3.858a13.582 13.582 0 00-2.311-3.69c-.852-.97-2.482-.867-3.35 0-.957.958-.85 2.38 0 3.35a7.5 7.5 0 01.247.288c-.17-.226-.175-.23-.014-.013.16.22.306.45.449.683.347.563.631 1.164.889 1.773.505 1.19 2.235 1.439 3.24.85 1.22-.714 1.355-2.052.85-3.24z" fill="#75CDDE"/><path d="M6.96 8.121a1.57 1.57 0 100-3.14 1.57 1.57 0 000 3.14zm5.939 0a1.57 1.57 0 100-3.14 1.57 1.57 0 000 3.14z" fill="#333"/></svg>