<svg width="20" height="20" viewBox="0 0 20 20" fill="none" xmlns="http://www.w3.org/2000/svg"><g clip-path="url(#clip0)"><path d="M10 20c5.523 0 10-4.477 10-10S15.523 0 10 0 0 4.477 0 10s4.477 10 10 10z" fill="#81C241"/><path d="M10 14.623a1.192 1.192 0 100-2.384 1.192 1.192 0 000 2.384z" fill="#5E9A42"/><path d="M6.96 8.121a1.57 1.57 0 100-3.141 1.57 1.57 0 000 3.141zm5.939 0a1.57 1.57 0 100-3.141 1.57 1.57 0 000 3.141z" fill="#333"/><path d="M8.605 11.722a3.41 3.41 0 11-6.822-.001 3.41 3.41 0 016.822 0zm9.628 0a3.41 3.41 0 11-6.822-.001 3.41 3.41 0 016.822 0z" fill="#67AF45"/></g><defs><clipPath id="clip0"><path fill="#fff" d="M0 0h20v20H0z"/></clipPath></defs></svg>