<svg width="20" height="20" viewBox="0 0 20 20" fill="none" xmlns="http://www.w3.org/2000/svg"><path d="M10 20c5.523 0 10-4.477 10-10S15.523 0 10 0 0 4.477 0 10s4.477 10 10 10z" fill="#FFC10E"/><path d="M6.96 10.332a1.57 1.57 0 100-3.14 1.57 1.57 0 000 3.14zm6.276 0a1.57 1.57 0 100-3.14 1.57 1.57 0 000 3.14zm-1.402-6.068l1.577-1.844h-.558l3.183 2.554c.393.315.955-.24.558-.558l-3.183-2.554c-.157-.126-.407-.177-.558 0l-1.577 1.844c-.329.385.227.946.558.558zm-3.03-.558L7.227 1.862c-.15-.177-.4-.126-.558 0L3.486 4.416c-.397.319.166.873.559.558L7.227 2.42H6.67l1.577 1.844c.331.388.887-.173.558-.558zM7.537 15.588l4.536 1.435c.487.154.694-.609.21-.762l-4.536-1.434c-.487-.154-.694.608-.21.761z" fill="#333"/></svg>