<svg width="20" height="20" viewBox="0 0 20 20" fill="none" xmlns="http://www.w3.org/2000/svg"><g clip-path="url(#clip0)"><path d="M10 20c5.523 0 10-4.477 10-10S15.523 0 10 0 0 4.477 0 10s4.477 10 10 10z" fill="#333"/><path d="M17.661 6.799s-4.053-3-7.843-3-7.737 3-7.737 3 8.238 5.448 15.58 0z" fill="#FFC10E"/><path d="M6.96 8.121a1.57 1.57 0 100-3.141 1.57 1.57 0 000 3.141zm5.939 0a1.57 1.57 0 100-3.141 1.57 1.57 0 000 3.141z" fill="#333"/></g><defs><clipPath id="clip0"><path fill="#fff" d="M0 0h20v20H0z"/></clipPath></defs></svg>