<svg width="42" height="42" viewBox="0 0 42 42" fill="none" xmlns="http://www.w3.org/2000/svg"><path fill-rule="evenodd" clip-rule="evenodd" d="M39.065 13.903h-.646V6.161H7.452V1H4.226A3.23 3.23 0 001 4.226v24.516a3.23 3.23 0 003.226 3.226h17.42v7.097c0 1.067.868 1.935 1.935 1.935h15.484A1.938 1.938 0 0041 39.065V15.839a1.938 1.938 0 00-1.935-1.936zM2.29 4.226c0-1.067.869-1.936 1.936-1.936H6.16v23.226H4.226a3.21 3.21 0 00-1.936.647V4.226zm1.936 26.451a1.938 1.938 0 01-1.936-1.935c0-1.067.869-1.936 1.936-1.936h3.226V7.452h29.677v6.451H23.781a7.765 7.765 0 00-7.297-5.161c-4.27 0-7.742 3.473-7.742 7.742s3.473 7.742 7.742 7.742a7.749 7.749 0 005.161-1.98v8.431H4.225zm17.42-14.838h-4.517v-5.77a6.475 6.475 0 015.398 4.15c-.53.346-.882.942-.882 1.62zm-5.807 7.064c-3.256-.325-5.807-3.08-5.807-6.42 0-3.338 2.551-6.093 5.807-6.418v12.838zm1.29-5.774h4.516v3.212a6.456 6.456 0 01-4.516 2.555V17.13zm22.58 21.936c0 .355-.29.645-.645.645H23.582a.646.646 0 01-.645-.645V15.839c0-.356.29-.646.645-.646h15.484c.355 0 .645.29.645.646v23.226zm-15.483-16.13h14.193v-6.451H24.226v6.451zm1.29-5.16H37.13v3.87H25.516v-3.87zM38.42 38.418h-3.87v-3.87h3.87v3.87zm-1.29-2.58h-1.29v1.29h1.29v-1.29zm-7.742 2.58h3.871v-3.87h-3.87v3.87zm1.29-2.58h1.29v1.29h-1.29v-1.29zm-2.58 2.58h-3.871v-3.87h3.87v3.87zm-1.29-2.58h-1.29v1.29h1.29v-1.29zm7.741-2.581h3.871v-3.871h-3.87v3.87zm1.29-2.581h1.291v1.29h-1.29v-1.29zm-2.58 2.58h-3.87v-3.87h3.87v3.87zm-1.29-2.58h-1.29v1.29h1.29v-1.29zm-7.742 2.58h3.87v-3.87h-3.87v3.87zm1.29-2.58h1.29v1.29h-1.29v-1.29zm12.903-2.58h-3.87v-3.871h3.87v3.87zm-1.29-2.58h-1.29v1.29h1.29v-1.29zm-7.742 2.58h3.871v-3.871h-3.87v3.87zm1.29-2.58h1.29v1.29h-1.29v-1.29zm-2.58 2.58h-3.871v-3.871h3.87v3.87zm-1.29-2.58h-1.29v1.29h1.29v-1.29zm0-16.775h9.032v1.29h-9.033v-1.29zm9.032 2.58H25.516v1.29H35.84v-1.29z" fill="#84A5F1"/><path d="M38.42 13.903h-.25v.25h.25v-.25zm0-7.742h.25v-.25h-.25v.25zm-30.968 0h-.25v.25h.25v-.25zm0-5.161h.25V.75h-.25V1zm14.193 30.968h.25v-.25h-.25v.25zM6.161 2.29h.25v-.25h-.25v.25zm0 23.226v.25h.25v-.25h-.25zm-3.87.647h-.25v.5l.4-.3-.15-.2zm5.16.643v.25h.25v-.25h-.25zm0-19.354v-.25h-.25v.25h.25zm29.678 0h.25v-.25h-.25v.25zm0 6.451v.25h.25v-.25h-.25zm-13.348 0l-.236.084.059.166h.177v-.25zm-2.136 8.343h.25v-.56l-.416.374.166.186zm0 8.431v.25h.25v-.25h-.25zM17.13 15.84h-.25v.25h.25v-.25zm4.516 0v.25h.25v-.25h-.25zm-4.516-5.77l.025-.25-.275-.027v.277h.25zm5.398 4.15l.136.21.168-.11-.07-.187-.234.088zm-6.688 8.684l-.025.248.275.028v-.276h-.25zm0-12.838h.25V9.79l-.275.027.025.249zm5.806 7.064h.25v-.25h-.25v.25zm-4.516 0v-.25h-.25v.25h.25zm4.516 3.212l.2.15.05-.067v-.083h-.25zm-4.516 2.555h-.25v.277l.275-.028-.025-.249zm21.29.04v.25h.25v-.25h-.25zm-14.193 0h-.25v.25h.25v-.25zm14.193-6.452h.25v-.25h-.25v.25zm-14.193 0v-.25h-.25v.25h.25zm12.903 1.29h.25v-.25h-.25v.25zm-11.613 0v-.25h-.25v.25h.25zm11.613 3.871v.25h.25v-.25h-.25zm-11.613 0h-.25v.25h.25v-.25zm9.032 16.774h-.25v.25h.25v-.25zm3.871 0v.25h.25v-.25h-.25zm-3.87-3.87v-.25h-.25v.25h.25zm3.87 0h.25v-.25h-.25v.25zm-2.58 1.29v-.25h-.25v.25h.25zm1.29 0h.25v-.25h-.25v.25zm-1.29 1.29h-.25v.25h.25v-.25zm1.29 0v.25h.25v-.25h-.25zm-3.871 1.29v.25h.25v-.25h-.25zm-3.87 0h-.25v.25h.25v-.25zm3.87-3.87h.25v-.25h-.25v.25zm-3.87 0v-.25h-.25v.25h.25zm2.58 1.29h.25v-.25h-.25v.25zm-1.29 0v-.25h-.25v.25h.25zm1.29 1.29v.25h.25v-.25h-.25zm-1.29 0h-.25v.25h.25v-.25zm-6.452 1.29h-.25v.25h.25v-.25zm3.87 0v.25h.25v-.25h-.25zm-3.87-3.87v-.25h-.25v.25h.25zm3.87 0h.25v-.25h-.25v.25zm-2.58 1.29v-.25h-.25v.25h.25zm1.29 0h.25v-.25h-.25v.25zm-1.29 1.29h-.25v.25h.25v-.25zm1.29 0v.25h.25v-.25h-.25zm11.613-3.871v.25h.25v-.25h-.25zm-3.87 0h-.25v.25h.25v-.25zm3.87-3.871h.25v-.25h-.25v.25zm-3.87 0v-.25h-.25v.25h.25zm2.58 1.29h.25v-.25h-.25v.25zm-1.29 0v-.25h-.25v.25h.25zm1.29 1.29v.25h.25v-.25h-.25zm-1.29 0h-.25v.25h.25v-.25zm-6.452 1.29h-.25v.25h.25v-.25zm3.871 0v.25h.25v-.25h-.25zm-3.87-3.87v-.25h-.25v.25h.25zm3.87 0h.25v-.25h-.25v.25zm-2.58 1.29v-.25h-.25v.25h.25zm1.29 0h.25v-.25h-.25v.25zm-1.29 1.29h-.25v.25h.25v-.25zm1.29 0v.25h.25v-.25h-.25zm-3.871 1.29v.25h.25v-.25h-.25zm-3.871 0h-.25v.25h.25v-.25zm3.87-3.87h.25v-.25h-.25v.25zm-3.87 0v-.25h-.25v.25h.25zm2.58 1.29h.25v-.25h-.25v.25zm-1.29 0v-.25h-.25v.25h.25zm1.29 1.29v.25h.25v-.25h-.25zm-1.29 0h-.25v.25h.25v-.25zm9.032-3.87h-.25v.25h.25v-.25zm3.871 0v.25h.25v-.25h-.25zm-3.87-3.871v-.25h-.25v.25h.25zm3.87 0h.25v-.25h-.25v.25zm-2.58 1.29v-.25h-.25v.25h.25zm1.29 0h.25v-.25h-.25v.25zm-1.29 1.29h-.25v.25h.25v-.25zm1.29 0v.25h.25v-.25h-.25zm-3.871 1.29v.25h.25v-.25h-.25zm-3.87 0h-.25v.25h.25v-.25zm3.87-3.87h.25v-.25h-.25v.25zm-3.87 0v-.25h-.25v.25h.25zm2.58 1.29h.25v-.25h-.25v.25zm-1.29 0v-.25h-.25v.25h.25zm1.29 1.29v.25h.25v-.25h-.25zm-1.29 0h-.25v.25h.25v-.25zm-6.452 1.29h-.25v.25h.25v-.25zm3.87 0v.25h.25v-.25h-.25zm-3.87-3.87v-.25h-.25v.25h.25zm3.87 0h.25v-.25h-.25v.25zm-2.58 1.29v-.25h-.25v.25h.25zm1.29 0h.25v-.25h-.25v.25zm-1.29 1.29h-.25v.25h.25v-.25zm1.29 0v.25h.25v-.25h-.25zM35.84 8.742h.25v-.25h-.25v.25zm-9.033 0v-.25h-.25v.25h.25zm9.033 1.29v.25h.25v-.25h-.25zm-9.033 0h-.25v.25h.25v-.25zm-1.29 1.29v-.25h-.25v.25h.25zm10.323 0h.25v-.25h-.25v.25zm-10.323 1.29h-.25v.25h.25v-.25zm10.323 0v.25h.25v-.25h-.25zm2.58 1.541h.646v-.5h-.646v.5zm-.25-7.992v7.742h.5V6.161h-.5zm-30.717.25H38.42v-.5H7.452v.5zM7.202 1v5.161h.5V1h-.5zm-2.976.25h3.226v-.5H4.226v.5zM1.25 4.226A2.98 2.98 0 014.226 1.25v-.5A3.48 3.48 0 00.75 4.226h.5zm0 24.516V4.226h-.5v24.516h.5zm2.976 2.976a2.98 2.98 0 01-2.976-2.976h-.5a3.48 3.48 0 003.476 3.476v-.5zm17.42 0H4.225v.5h17.42v-.5zm.25 7.347v-7.097h-.5v7.097h.5zm1.685 1.685a1.688 1.688 0 01-1.686-1.685h-.5c0 1.205.98 2.185 2.186 2.185v-.5zm15.484 0H23.58v.5h15.484v-.5zm1.685-1.685c0 .928-.757 1.685-1.685 1.685v.5c1.205 0 2.185-.98 2.185-2.185h-.5zm0-23.226v23.226h.5V15.839h-.5zm-1.685-1.686c.928 0 1.685.757 1.685 1.686h.5c0-1.205-.98-2.186-2.185-2.186v.5zM4.224 2.04c-1.204 0-2.185.98-2.185 2.186h.5c0-.93.757-1.686 1.686-1.686v-.5zm1.936 0H4.226v.5H6.16v-.5zm.25 23.476V2.29h-.5v23.226h.5zm-2.185.25H6.16v-.5H4.226v.5zm-1.786.596a2.963 2.963 0 011.786-.596v-.5a3.46 3.46 0 00-2.086.697l.3.4zm-.4-22.136v21.937h.5V4.226h-.5zm0 24.516c0 1.205.98 2.185 2.186 2.185v-.5a1.688 1.688 0 01-1.686-1.685h-.5zm2.186-2.186c-1.205 0-2.186.98-2.186 2.186h.5c0-.929.757-1.686 1.686-1.686v-.5zm3.226 0H4.226v.5h3.226v-.5zm-.25-19.104v19.354h.5V7.452h-.5zm29.927-.25H7.452v.5h29.677v-.5zm.25 6.701V7.452h-.5v6.451h.5zm-13.598.25h13.348v-.5H23.781v.5zm-7.297-5.161a7.515 7.515 0 017.061 4.995l.471-.167a8.015 8.015 0 00-7.532-5.328v.5zm-7.492 7.492c0-4.131 3.36-7.492 7.492-7.492v-.5c-4.407 0-7.992 3.585-7.992 7.992h.5zm7.492 7.492c-4.131 0-7.492-3.361-7.492-7.492h-.5c0 4.407 3.585 7.992 7.992 7.992v-.5zm4.994-1.916a7.499 7.499 0 01-4.994 1.916v.5a7.999 7.999 0 005.328-2.044l-.334-.372zm.417 8.617v-8.431h-.5v8.431h.5zm-17.67.25h17.42v-.5H4.225v.5zM17.13 16.09h4.516v-.5H17.13v.5zm-.25-6.02v5.77h.5v-5.77h-.5zm5.882 4.063a6.725 6.725 0 00-5.607-4.312l-.05.497a6.225 6.225 0 015.189 3.99l.468-.175zm-.866 1.707c0-.59.305-1.108.768-1.41l-.273-.419a2.181 2.181 0 00-.995 1.829h.5zm-12.113.645c0 3.469 2.65 6.33 6.032 6.667l.05-.497a6.21 6.21 0 01-5.582-6.17h-.5zm6.032-6.668c-3.382.338-6.032 3.199-6.032 6.668h.5a6.21 6.21 0 015.582-6.17l-.05-.498zm.275 13.087V10.065h-.5v12.838h.5zm5.556-6.024H17.13v.5h4.516v-.5zm.25 3.462V17.13h-.5v3.212h.5zm-4.74 2.804a6.706 6.706 0 004.69-2.654l-.4-.3a6.206 6.206 0 01-4.341 2.456l.05.498zm-.276-6.016v5.767h.5V17.13h-.5zm22.186 22.83a.896.896 0 00.895-.895h-.5a.396.396 0 01-.395.396v.5zm-15.484 0h15.484v-.5H23.58v.5zm-.895-.895c0 .494.401.896.895.896v-.5a.396.396 0 01-.395-.395h-.5zm0-23.225v23.226h.5V15.839h-.5zm.895-.896a.896.896 0 00-.895.896h.5c0-.218.177-.396.395-.396v-.5zm15.484 0H23.58v.5h15.484v-.5zm.895.896a.896.896 0 00-.895-.896v.5c.217 0 .395.178.395.396h.5zm0 23.226V15.839h-.5v23.226h.5zm-1.54-16.38H24.225v.5h14.193v-.5zm-.25-6.201v6.451h.5v-6.451h-.5zm-13.944.25H38.42v-.5H24.226v.5zm.25 6.201v-6.451h-.5v6.451h.5zm12.653-5.41H25.516v.5H37.13v-.5zm.25 4.12v-3.87h-.5v3.87h.5zm-11.863.25H37.13v-.5H25.516v.5zm-.25-4.12v3.87h.5v-3.87h-.5zm9.282 20.894h3.871v-.5h-3.87v.5zm-.25-4.12v3.87h.5v-3.87h-.5zm4.121-.25h-3.87v.5h3.87v-.5zm.25 4.12v-3.87h-.5v3.87h.5zm-2.83-2.33h1.29v-.5h-1.29v.5zm.25 1.04v-1.29h-.5v1.29h.5zm1.04-.25h-1.29v.5h1.29v-.5zm-.25-1.04v1.29h.5v-1.29h-.5zm-3.621 2.33h-3.87v.5h3.87v-.5zm-.25-3.62v3.87h.5v-3.87h-.5zm-3.62.25h3.87v-.5h-3.87v.5zm.25 3.62v-3.87h-.5v3.87h.5zm2.33-2.83h-1.29v.5h1.29v-.5zm.25 1.54v-1.29h-.5v1.29h.5zm-1.54.25h1.29v-.5h-1.29v.5zm-.25-1.54v1.29h.5v-1.29h-.5zm-6.202 2.83h3.87v-.5h-3.87v.5zm-.25-4.12v3.87h.5v-3.87h-.5zm4.12-.25h-3.87v.5h3.87v-.5zm.25 4.12v-3.87h-.5v3.87h.5zm-2.83-2.33h1.29v-.5h-1.29v.5zm.25 1.04v-1.29h-.5v1.29h.5zm1.04-.25h-1.29v.5h1.29v-.5zm-.25-1.04v1.29h.5v-1.29h-.5zm11.863-2.831h-3.87v.5h3.87v-.5zm-.25-3.621v3.87h.5v-3.87h-.5zm-3.62.25h3.87v-.5h-3.87v.5zm.25 3.62v-3.87h-.5v3.87h.5zm2.33-2.83h-1.29v.5h1.29v-.5zm.25 1.54v-1.29h-.5v1.29h.5zm-1.54.25h1.29v-.5h-1.29v.5zm-.25-1.54v1.29h.5v-1.29h-.5zm-6.202 2.83h3.871v-.5h-3.87v.5zm-.25-4.12v3.87h.5v-3.87h-.5zm4.121-.25h-3.87v.5h3.87v-.5zm.25 4.12v-3.87h-.5v3.87h.5zm-2.83-2.33h1.29v-.5h-1.29v.5zm.25 1.04v-1.29h-.5v1.29h.5zm1.04-.25h-1.29v.5h1.29v-.5zm-.25-1.04v1.29h.5v-1.29h-.5zm-3.621 2.33h-3.871v.5h3.87v-.5zm-.25-3.62v3.87h.5v-3.87h-.5zm-3.621.25h3.87v-.5h-3.87v.5zm.25 3.62v-3.87h-.5v3.87h.5zm2.33-2.83h-1.29v.5h1.29v-.5zm.25 1.54v-1.29h-.5v1.29h.5zm-1.54.25h1.29v-.5h-1.29v.5zm-.25-1.54v1.29h.5v-1.29h-.5zm9.282-2.33h3.871v-.5h-3.87v.5zm-.25-4.121v3.87h.5v-3.87h-.5zm4.121-.25h-3.87v.5h3.87v-.5zm.25 4.12v-3.87h-.5v3.87h.5zm-2.83-2.33h1.29v-.5h-1.29v.5zm.25 1.04v-1.29h-.5v1.29h.5zm1.04-.25h-1.29v.5h1.29v-.5zm-.25-1.04v1.29h.5v-1.29h-.5zm-3.621 2.33h-3.87v.5h3.87v-.5zm-.25-3.62v3.87h.5v-3.87h-.5zm-3.62.25h3.87v-.5h-3.87v.5zm.25 3.62v-3.87h-.5v3.87h.5zm2.33-2.83h-1.29v.5h1.29v-.5zm.25 1.54v-1.29h-.5v1.29h.5zm-1.54.25h1.29v-.5h-1.29v.5zm-.25-1.54v1.29h.5v-1.29h-.5zm-6.202 2.83h3.87v-.5h-3.87v.5zm-.25-4.12v3.87h.5v-3.87h-.5zm4.12-.25h-3.87v.5h3.87v-.5zm.25 4.12v-3.87h-.5v3.87h.5zm-2.83-2.33h1.29v-.5h-1.29v.5zm.25 1.04v-1.29h-.5v1.29h.5zm1.04-.25h-1.29v.5h1.29v-.5zm-.25-1.04v1.29h.5v-1.29h-.5zM35.84 8.492h-9.033v.5h9.033v-.5zm.25 1.54v-1.29h-.5v1.29h.5zm-9.283.25h9.033v-.5h-9.033v.5zm-.25-1.54v1.29h.5v-1.29h-.5zm-1.04 2.83H35.84v-.5H25.516v.5zm.25 1.04v-1.29h-.5v1.29h.5zm10.073-.25H25.516v.5H35.84v-.5zm-.25-1.04v1.29h.5v-1.29h-.5z" fill="#84A5F1"/></svg>