<svg width="42" height="42" viewBox="0 0 42 42" fill="none" xmlns="http://www.w3.org/2000/svg"><path fill-rule="evenodd" clip-rule="evenodd" d="M5.516 1h33.548c1.067 0 1.935.868 1.935 1.935v27.097a1.938 1.938 0 01-1.935 1.935H14.43a1.93 1.93 0 01-.14.305c.54.343.903.944.903 1.631v3.871A3.23 3.23 0 0111.968 41a3.23 3.23 0 01-3.226-3.226v-3.87c0-.688.362-1.288.904-1.632a1.89 1.89 0 01-.14-.305h-3.99a1.938 1.938 0 01-1.935-1.935v-3.27A10.912 10.912 0 011 19.71c0-2.685.973-5.144 2.58-7.052V2.935C3.58 1.868 4.45 1 5.517 1zm33.548 1.29H5.516a.646.646 0 00-.645.645v3.226h34.838V2.935a.646.646 0 00-.645-.645zm-17.42 17.42c0-5.337-4.34-9.678-9.676-9.678S2.29 14.373 2.29 19.71c0 5.336 4.342 9.678 9.678 9.678 5.336 0 9.677-4.342 9.677-9.678zM10.678 31.322c0 .355.29.645.645.645h1.29a.645.645 0 00.646-.645v-.729c-.424.05-.853.083-1.29.083-.438 0-.867-.033-1.29-.083v.729zm-5.806-3.267v1.976c0 .355.289.645.645.645h3.871v-.32a10.935 10.935 0 01-4.516-2.3zm7.097 11.654a1.938 1.938 0 001.935-1.936v-3.87a.646.646 0 00-.645-.646h-2.581a.646.646 0 00-.645.645v3.871c0 1.067.868 1.936 1.936 1.936zm2.58-9.033h24.516c.356 0 .645-.29.645-.645V7.452H4.871v3.91a10.912 10.912 0 017.097-2.62c6.047 0 10.967 4.92 10.967 10.967 0 5.158-3.582 9.483-8.387 10.649v.319zm5.807-10.968c0 4.625-3.763 8.387-8.387 8.387-4.625 0-8.387-3.762-8.387-8.387 0-4.624 3.762-8.387 8.387-8.387 4.624 0 8.387 3.763 8.387 8.387zm-1.29 0c0-3.912-3.185-7.096-7.097-7.096-3.913 0-7.097 3.184-7.097 7.096 0 3.913 3.184 7.097 7.097 7.097 3.912 0 7.096-3.184 7.096-7.097zM8.741 3.581h1.29v1.29h-1.29V3.58zm3.87 0h-1.29v1.29h1.29V3.58zm-6.45 0h1.29v1.29h-1.29V3.58zm32.257 16.774H24.225V8.742H38.42v11.613zm-1.29-10.323H25.515v9.032h11.612v-9.032zm-2.581 6.452h-1.29v-3.871h-1.29v3.87h-1.291v-2.58h-1.29v2.58h-2.581v1.29h9.032v-6.45h-1.29v5.16zm-9.032 5.16h-1.29v1.291h1.29v-1.29zm1.29 0h11.613v1.291H26.806v-1.29zm11.613 2.581H24.225v1.29H38.42v-1.29zm-14.194 2.581H38.42v1.29H24.225v-1.29zm-7.741-7.742h1.29v1.29h-1.29v-1.29zm-9.032 0h-1.29v1.29h1.29v-1.29zm1.29 0h1.29v1.29h-1.29v-1.29zm6.451 0h-1.29v1.29h1.29v-1.29zm-2.58 0h-1.29v1.29h1.29v-1.29z" fill="#84A5F1"/><path d="M14.43 31.967v-.25h-.176l-.06.166.236.084zm-.14.305l-.218-.124-.118.207.202.128.133-.211zm-4.644 0l.134.21.202-.127-.119-.208-.217.125zm-.14-.305l.235-.084-.06-.166h-.175v.25zM3.58 26.762h.25v-.091l-.06-.07-.19.161zm0-14.105l.19.16.06-.07v-.09h-.25zM4.87 6.16h-.25v.25h.25v-.25zm34.838 0v.25h.25v-.25h-.25zm-26.45 24.434h.25v-.28l-.28.032.03.248zm-2.58 0l.029-.248-.28-.034v.282h.25zM4.87 28.056l.162-.19-.412-.35v.54h.25zm4.516 2.62v.25h.25v-.25h-.25zm0-.318h.25v-.197l-.191-.046-.059.243zm5.161.319h-.25v.25h.25v-.25zM39.71 7.452h.25v-.25h-.25v.25zm-34.838 0v-.25h-.25v.25h.25zm0 3.91h-.25v.542l.412-.351-.162-.19zm9.677 18.996l-.059-.243-.19.046v.197h.25zM10.032 3.58h.25v-.25h-.25v.25zm-1.29 0v-.25h-.25v.25h.25zm1.29 1.29v.25h.25v-.25h-.25zm-1.29 0h-.25v.25h.25v-.25zm2.58-1.29v-.25h-.25v.25h.25zm1.29 0h.25v-.25h-.25v.25zm-1.29 1.29h-.25v.25h.25v-.25zm1.29 0v.25h.25v-.25h-.25zm-5.16-1.29h.25v-.25h-.25v.25zm-1.29 0v-.25h-.25v.25h.25zm1.29 1.29v.25h.25v-.25h-.25zm-1.29 0h-.25v.25h.25v-.25zm18.063 15.484h-.25v.25h.25v-.25zm14.194 0v.25h.25v-.25h-.25zM24.225 8.742v-.25h-.25v.25h.25zm14.194 0h.25v-.25h-.25v.25zm-12.903 1.29v-.25h-.25v.25h.25zm11.612 0h.25v-.25h-.25v.25zm-11.612 9.032h-.25v.25h.25v-.25zm11.612 0v.25h.25v-.25h-.25zm-3.87-2.58h-.25v.25h.25v-.25zm1.29 0v.25h.25v-.25h-.25zm-1.29-3.871h.25v-.25h-.25v.25zm-1.29 0v-.25h-.25v.25h.25zm0 3.87v.25h.25v-.25h-.25zm-1.291 0h-.25v.25h.25v-.25zm0-2.58h.25v-.25h-.25v.25zm-1.29 0v-.25h-.25v.25h.25zm0 2.58v.25h.25v-.25h-.25zm-2.581 0v-.25h-.25v.25h.25zm0 1.29h-.25v.25h.25v-.25zm9.032 0v.25h.25v-.25h-.25zm0-6.45h.25v-.25h-.25v.25zm-1.29 0v-.25h-.25v.25h.25zM24.225 21.644v-.25h-.25v.25h.25zm1.29 0h.25v-.25h-.25v.25zm-1.29 1.29h-.25v.25h.25v-.25zm1.29 0v.25h.25v-.25h-.25zm12.904-1.29h.25v-.25h-.25v.25zm-11.613 0v-.25h-.25v.25h.25zm11.613 1.29v.25h.25v-.25h-.25zm-11.613 0h-.25v.25h.25v-.25zm-2.58 1.29v-.25h-.25v.25h.25zm14.193 0h.25v-.25h-.25v.25zm-14.194 1.29h-.25v.25h.25v-.25zm14.194 0v.25h.25v-.25h-.25zm0 1.291h.25v-.25h-.25v.25zm-14.194 0v-.25h-.25v.25h.25zm14.194 1.29v.25h.25v-.25h-.25zm-14.194 0h-.25v.25h.25v-.25zm-6.451-9.032h.25v-.25h-.25v.25zm-1.29 0v-.25h-.25v.25h.25zm1.29 1.29v.25h.25v-.25h-.25zm-1.29 0h-.25v.25h.25v-.25zM6.16 19.065v-.25h-.25v.25h.25zm1.29 0h.25v-.25h-.25v.25zm-1.29 1.29h-.25v.25h.25v-.25zm1.29 0v.25h.25v-.25h-.25zm2.581-1.29h.25v-.25h-.25v.25zm-1.29 0v-.25h-.25v.25h.25zm1.29 1.29v.25h.25v-.25h-.25zm-1.29 0h-.25v.25h.25v-.25zm5.161-1.29v-.25h-.25v.25h.25zm1.29 0h.25v-.25h-.25v.25zm-1.29 1.29h-.25v.25h.25v-.25zm1.29 0v.25h.25v-.25h-.25zm-3.87-1.29v-.25h-.25v.25h.25zm1.29 0h.25v-.25h-.25v.25zm-1.29 1.29h-.25v.25h.25v-.25zm1.29 0v.25h.25v-.25h-.25zM39.063.75H5.517v.5h33.548v-.5zm2.186 2.185c0-1.205-.98-2.185-2.185-2.185v.5c.929 0 1.685.756 1.685 1.685h.5zm0 27.097V2.935h-.5v27.097h.5zm-2.185 2.185c1.205 0 2.185-.98 2.185-2.185h-.5c0 .929-.756 1.685-1.685 1.685v.5zm-24.634 0h24.634v-.5H14.43v.5zm.077.178a2.2 2.2 0 00.159-.344l-.471-.168a1.66 1.66 0 01-.123.265l.435.247zm.936 1.508c0-.777-.41-1.456-1.02-1.842l-.267.422c.473.3.787.824.787 1.42h.5zm0 3.871v-3.87h-.5v3.87h.5zm-3.475 3.476a3.48 3.48 0 003.475-3.476h-.5a2.98 2.98 0 01-2.975 2.976v.5zm-3.476-3.476a3.48 3.48 0 003.476 3.476v-.5a2.98 2.98 0 01-2.976-2.976h-.5zm0-3.87v3.87h.5v-3.87h-.5zm1.02-1.843a2.181 2.181 0 00-1.02 1.842h.5c0-.596.314-1.12.788-1.42l-.268-.422zm-.242-.01c.043.121.097.236.16.345l.433-.249a1.64 1.64 0 01-.122-.264l-.47.168zm-3.754.166h3.99v-.5h-3.99v.5zm-2.185-2.185c0 1.205.98 2.185 2.185 2.185v-.5a1.688 1.688 0 01-1.685-1.685h-.5zm0-3.27v3.27h.5v-3.27h-.5zM.75 19.71c0 2.747.995 5.263 2.64 7.214l.382-.322A10.661 10.661 0 011.25 19.71h-.5zm2.64-7.213A11.162 11.162 0 00.75 19.71h.5c0-2.623.95-5.026 2.522-6.891l-.383-.322zm-.06-9.56v9.72h.5v-9.72h-.5zM5.517.75c-1.205 0-2.185.98-2.185 2.185h.5c0-.929.756-1.685 1.685-1.685v-.5zm0 1.79h33.548v-.5H5.516v.5zm-.395.395c0-.217.177-.395.395-.395v-.5a.896.896 0 00-.895.895h.5zm0 3.226V2.935h-.5v3.226h.5zm34.588-.25H4.871v.5h34.838v-.5zm-.25-2.976v3.226h.5V2.935h-.5zm-.395-.395c.218 0 .395.178.395.395h.5c0-.493-.4-.895-.895-.895v.5zm-27.096 7.742c5.198 0 9.427 4.23 9.427 9.427h.5c0-5.474-4.453-9.927-9.927-9.927v.5zM2.54 19.71c0-5.198 4.23-9.427 9.428-9.427v-.5c-5.475 0-9.928 4.453-9.928 9.927h.5zm9.428 9.428c-5.198 0-9.428-4.23-9.428-9.428h-.5c0 5.474 4.453 9.928 9.928 9.928v-.5zm9.427-9.428c0 5.198-4.23 9.428-9.427 9.428v.5c5.474 0 9.927-4.454 9.927-9.928h-.5zM11.322 31.718a.396.396 0 01-.395-.395h-.5c0 .493.401.895.895.895v-.5zm1.29 0h-1.29v.5h1.29v-.5zm.396-.395a.395.395 0 01-.395.395v.5c.494 0 .895-.4.895-.895h-.5zm0-.729v.73h.5v-.73h-.5zm-1.04.333c.45 0 .889-.034 1.319-.084l-.058-.497c-.418.049-.836.08-1.261.08v.5zm-1.32-.085c.43.051.87.085 1.32.085v-.5c-.425 0-.844-.032-1.261-.081l-.06.496zm.28.48v-.728h-.5v.729h.5zm-5.807-1.29v-1.976h-.5v1.976h.5zm.395.395a.396.396 0 01-.395-.395h-.5c0 .493.4.895.895.895v-.5zm3.871 0h-3.87v.5h3.87v-.5zm-.25-.07v.32h.5v-.32h-.5zm-4.428-2.11A11.186 11.186 0 009.328 30.6l.118-.486a10.686 10.686 0 01-4.413-2.249l-.324.38zm8.944 9.527c0 .93-.756 1.686-1.685 1.686v.5c1.205 0 2.185-.98 2.185-2.186h-.5zm0-3.87v3.87h.5v-3.87h-.5zm-.395-.396c.218 0 .395.178.395.395h.5c0-.493-.4-.895-.895-.895v.5zm-.645 0h.645v-.5h-.645v.5zm-1.29 0h1.29v-.5h-1.29v.5zm-.646 0h.645v-.5h-.645v.5zm-.395.395c0-.217.177-.395.395-.395v-.5a.896.896 0 00-.895.895h.5zm0 3.871v-3.87h-.5v3.87h.5zm1.686 1.686a1.688 1.688 0 01-1.686-1.686h-.5c0 1.205.98 2.186 2.186 2.186v-.5zm27.096-9.033H14.548v.5h24.516v-.5zm.395-.395a.396.396 0 01-.395.395v.5a.896.896 0 00.895-.895h-.5zm0-22.58v22.58h.5V7.452h-.5zm-34.588.25h34.838v-.5H4.871v.5zm.25 3.66v-3.91h-.5v3.91h.5zm6.847-2.87c-2.77 0-5.301 1.013-7.26 2.68l.325.38a10.662 10.662 0 016.935-2.56v-.5zm11.217 11.217c0-6.185-5.032-11.217-11.217-11.217v.5c5.91 0 10.717 4.808 10.717 10.717h.5zm-8.578 10.892c4.913-1.192 8.578-5.616 8.578-10.892h-.5c0 5.039-3.5 9.267-8.196 10.406l.118.486zm.191.076v-.32h-.5v.32h.5zm-2.83-2.33c4.762 0 8.637-3.875 8.637-8.638h-.5c0 4.487-3.651 8.137-8.137 8.137v.5zM3.33 19.708c0 4.763 3.874 8.637 8.637 8.637v-.5c-4.487 0-8.137-3.65-8.137-8.137h-.5zm8.637-8.637c-4.763 0-8.637 3.875-8.637 8.637h.5c0-4.486 3.65-8.137 8.137-8.137v-.5zm8.637 8.637c0-4.762-3.875-8.637-8.637-8.637v.5c4.486 0 8.137 3.651 8.137 8.137h.5zm-8.637-6.846a6.855 6.855 0 016.846 6.846h.5c0-4.05-3.296-7.346-7.346-7.346v.5zM5.12 19.709a6.855 6.855 0 016.847-6.846v-.5c-4.051 0-7.347 3.296-7.347 7.346h.5zm6.847 6.847a6.855 6.855 0 01-6.847-6.847h-.5c0 4.051 3.296 7.347 7.347 7.347v-.5zm6.846-6.847a6.855 6.855 0 01-6.846 6.847v.5c4.05 0 7.346-3.296 7.346-7.347h-.5zM10.032 3.331h-1.29v.5h1.29v-.5zm.25 1.54V3.58h-.5v1.29h.5zm-1.54.25h1.29v-.5h-1.29v.5zm-.25-1.54v1.29h.5V3.58h-.5zm2.83.25h1.29v-.5h-1.29v.5zm.25 1.04V3.58h-.5v1.29h.5zm1.04-.25h-1.29v.5h1.29v-.5zm-.25-1.04v1.29h.5V3.58h-.5zm-4.91-.25h-1.29v.5h1.29v-.5zm.25 1.54V3.58h-.5v1.29h.5zm-1.54.25h1.29v-.5h-1.29v.5zm-.25-1.54v1.29h.5V3.58h-.5zm18.313 17.024H38.42v-.5H24.225v.5zm-.25-11.863v11.613h.5V8.742h-.5zm14.444-.25H24.225v.5H38.42v-.5zm.25 11.863V8.742h-.5v11.613h.5zM25.516 10.282h11.612v-.5H25.516v.5zm.25 8.782v-9.032h-.5v9.032h.5zm11.362-.25H25.516v.5h11.612v-.5zm-.25-8.782v9.032h.5v-9.032h-.5zm-3.62 6.702h1.29v-.5h-1.29v.5zm-.25-4.121v3.87h.5v-3.87h-.5zm-1.04.25h1.29v-.5h-1.29v.5zm.25 3.62v-3.87h-.5v3.87h.5zm-1.541.25h1.29v-.5h-1.29v.5zm-.25-2.83v2.58h.5v-2.58h-.5zm-1.04.25h1.29v-.5h-1.29v.5zm.25 2.33v-2.58h-.5v2.58h.5zm-2.831.25h2.58v-.5h-2.58v.5zm.25 1.04v-1.29h-.5v1.29h.5zm8.782-.25h-9.032v.5h9.032v-.5zm-.25-6.2v6.45h.5v-6.45h-.5zm-1.04.25h1.29v-.5h-1.29v.5zm.25 4.91v-5.16h-.5v5.16h.5zm-10.573 5.412h1.29v-.5h-1.29v.5zm.25 1.04v-1.29h-.5v1.29h.5zm1.04-.25h-1.29v.5h1.29v-.5zm-.25-1.04v1.29h.5v-1.29h-.5zm13.154-.25H26.806v.5h11.613v-.5zm.25 1.54v-1.29h-.5v1.29h.5zm-11.863.25h11.613v-.5H26.806v.5zm-.25-1.54v1.29h.5v-1.29h-.5zm-2.33 2.83h14.193v-.5H24.225v.5zm.25 1.04v-1.29h-.5v1.29h.5zm13.943-.25H24.225v.5H38.42v-.5zm-.25-1.04v1.29h.5v-1.29h-.5zm.25 2.331H24.225v.5H38.42v-.5zm.25 1.54v-1.29h-.5v1.29h.5zm-14.444.25H38.42v-.5H24.225v.5zm-.25-1.54v1.29h.5v-1.29h-.5zm-6.201-7.992h-1.29v.5h1.29v-.5zm.25 1.54v-1.29h-.5v1.29h.5zm-1.54.25h1.29v-.5h-1.29v.5zm-.25-1.54v1.29h.5v-1.29h-.5zm-10.073.25h1.29v-.5h-1.29v.5zm.25 1.04v-1.29h-.5v1.29h.5zm1.04-.25h-1.29v.5h1.29v-.5zm-.25-1.04v1.29h.5v-1.29h-.5zm2.831-.25h-1.29v.5h1.29v-.5zm.25 1.54v-1.29h-.5v1.29h.5zm-1.54.25h1.29v-.5h-1.29v.5zm-.25-1.54v1.29h.5v-1.29h-.5zm5.411.25h1.29v-.5h-1.29v.5zm.25 1.04v-1.29h-.5v1.29h.5zm1.04-.25h-1.29v.5h1.29v-.5zm-.25-1.04v1.29h.5v-1.29h-.5zm-3.62.25h1.29v-.5h-1.29v.5zm.25 1.04v-1.29h-.5v1.29h.5zm1.04-.25h-1.29v.5h1.29v-.5zm-.25-1.04v1.29h.5v-1.29h-.5z" fill="#84A5F1"/></svg>