<svg width="101" height="27" viewBox="0 0 101 27" fill="none" xmlns="http://www.w3.org/2000/svg"><path fill-rule="evenodd" clip-rule="evenodd" d="M1.414 21.288c.236-.236.473-.47.712-.701l-.348-.359-.697-.717-.348-.36c-.246.24-.49.48-.733.723l.354.353.707.707.353.354zm2.159-2.064c.491-.45.988-.89 1.49-1.323l-.327-.379-.652-.757-.326-.38c-.517.446-1.029.9-1.535 1.363l.337.369.675.738.338.369zm3.014-2.596c.518-.42 1.04-.83 1.567-1.23L7.85 15l-.606-.796-.303-.398c-.543.414-1.08.836-1.614 1.268l.315.388.63.777.314.389zm3.167-2.41a63.55 63.55 0 011.635-1.132l-.278-.416-.556-.83-.279-.416c-.566.38-1.128.768-1.685 1.166l.291.407.581.813.291.407zm3.306-2.215a65.47 65.47 0 011.7-1.029l-.253-.431-.505-.864-.252-.431c-.588.344-1.172.697-1.752 1.06l.266.424.53.848.266.423zm3.433-2.008c.583-.317 1.17-.626 1.76-.925l-.225-.446-.451-.892-.226-.446a67.3 67.3 0 00-1.815.953l.24.44.478.877.239.44zM20.041 8.2a65.432 65.432 0 011.816-.816l-.199-.46-.396-.918-.198-.459c-.627.271-1.25.551-1.87.842l.211.453.424.905.212.453zm3.653-1.577a66.276 66.276 0 011.86-.704l-.17-.47-.34-.94-.17-.471c-.641.232-1.28.474-1.917.726l.184.465.369.93.184.464zm3.742-1.352a65.74 65.74 0 011.898-.59l-.14-.48-.283-.959-.141-.48c-.655.193-1.307.396-1.957.609l.156.475.311.95.156.475zm3.816-1.122a65.895 65.895 0 011.932-.474l-.112-.488-.224-.974-.111-.488c-.666.153-1.33.316-1.991.489l.127.484.252.967.127.484zm3.877-.89a66 66 0 011.958-.357l-.083-.493-.164-.987-.082-.493c-.674.113-1.347.235-2.017.368l.097.49.194.981.097.49zm3.925-.655c.657-.09 1.315-.169 1.975-.238l-.053-.498-.105-.994-.052-.497c-.68.071-1.358.153-2.035.245l.067.496.135.99.068.496zm3.956-.417a66.1 66.1 0 011.986-.12l-.022-.5-.045-.998-.023-.5a70.15 70.15 0 00-2.046.123l.038.499.075.997.037.499zm3.975-.18c.663-.01 1.326-.01 1.99 0l.007-.5.015-1 .008-.5c-.684-.01-1.367-.01-2.05 0l.008.5.014 1 .008.5zm3.978.06c.663.03 1.325.07 1.986.12l.038-.499.075-.997.037-.499A68.246 68.246 0 0051.053.07l-.022.5-.045.999-.023.5zm3.968.299c.66.07 1.318.149 1.975.238l.067-.495.135-.991.068-.496A68.142 68.142 0 0055.14.377l-.053.497-.105.994-.052.498zm3.942.536c.654.109 1.306.228 1.957.357l.098-.49.194-.982.097-.49a67.93 67.93 0 00-2.017-.368l-.082.493-.165.987-.082.493zm3.903.773c.645.148 1.29.306 1.931.474l.127-.484.253-.967.127-.484a67.793 67.793 0 00-1.991-.489l-.112.488-.223.974-.112.488zm3.85 1.006a65.74 65.74 0 011.898.59l.155-.475.311-.95.156-.475a67.644 67.644 0 00-1.957-.608l-.14.48-.283.959-.14.48zm3.78 1.238c.622.225 1.242.46 1.86.704l.184-.464.368-.93.184-.465a67.501 67.501 0 00-1.917-.726l-.17.47-.34.94-.17.471zm3.697 1.465a62.53 62.53 0 011.815.816l.212-.453.424-.905.212-.453c-.62-.29-1.244-.571-1.87-.842l-.199.46-.396.918-.198.459zm3.603 1.686c.59.3 1.177.608 1.76.925l.24-.439.478-.878.24-.439a67.294 67.294 0 00-1.816-.953l-.225.446-.452.892-.225.446zm3.494 1.904c.57.334 1.137.677 1.7 1.03l.265-.424.531-.848.266-.423a67.224 67.224 0 00-1.752-1.061l-.253.431-.505.864-.252.431zm3.37 2.112c.55.368 1.095.745 1.635 1.131l.291-.407.582-.813.29-.407a67.35 67.35 0 00-1.685-1.166l-.278.415-.556.831-.279.416zm3.236 2.312c.527.4 1.049.81 1.566 1.23l.315-.389.63-.777.314-.388a67.89 67.89 0 00-1.614-1.268l-.303.398-.605.796-.303.398zm3.09 2.503c.502.432 1 .873 1.49 1.323l.338-.37.675-.737.338-.37a68.668 68.668 0 00-1.535-1.361l-.326.379-.653.757-.326.38zm-1.942 5.52l11.185 2.997-2.997-11.185-8.188 8.188z" fill="#131B21"/></svg>