<svg width="11" height="15" viewBox="0 0 11 15" fill="none" xmlns="http://www.w3.org/2000/svg"><g opacity=".5" fill="#131B21"><path d="M5.5 0C2.467 0 0 2.366 0 5.273a5.1 5.1 0 00.821 2.773l4.366 6.746c.084.13.23.208.39.208h.003a.462.462 0 00.39-.214l4.254-6.81A5.103 5.103 0 0011 5.272C11 2.366 8.533 0 5.5 0zm3.938 7.524l-3.869 6.192L1.6 7.583a4.256 4.256 0 01-.69-2.31c0-2.423 2.063-4.4 4.59-4.4 2.527 0 4.586 1.977 4.586 4.4 0 .795-.226 1.573-.648 2.251z"/><path d="M5.5 2.637c-1.516 0-2.75 1.183-2.75 2.636 0 1.445 1.214 2.637 2.75 2.637 1.555 0 2.75-1.208 2.75-2.637 0-1.453-1.234-2.636-2.75-2.636zm0 4.4c-1.016 0-1.84-.792-1.84-1.764 0-.969.83-1.763 1.84-1.763 1.01 0 1.836.794 1.836 1.763 0 .958-.804 1.764-1.836 1.764z"/></g></svg>