<svg width="17" height="25" viewBox="0 0 17 25" fill="none" xmlns="http://www.w3.org/2000/svg"><path fill-rule="evenodd" clip-rule="evenodd" d="M.645 9.155l-.347-.26A.747.747 0 01.3 7.7l.344-.257a1.407 1.407 0 00.407-1.782l-.196-.377a.747.747 0 01.52-1.078l.415-.081a1.408 1.408 0 001.143-1.431l-.013-.426a.747.747 0 01.937-.746l.41.107A1.41 1.41 0 005.919.835L6.09.444A.748.748 0 017.26.178l.323.275a1.41 1.41 0 001.833 0L9.74.178a.75.75 0 011.168.266l.174.39c.28.635.98.972 1.65.794l.412-.107a.75.75 0 01.937.746l-.014.426a1.408 1.408 0 001.144 1.43l.414.082a.747.747 0 01.521 1.078l-.196.377a1.408 1.408 0 00.407 1.782l.344.257a.747.747 0 010 1.196l-.346.26a1.408 1.408 0 00-.406 1.782l.197.378a.747.747 0 01-.52 1.078l-.415.08a1.408 1.408 0 00-1.144 1.432l.014.426a.747.747 0 01-.938.746l-.41-.108a1.41 1.41 0 00-1.651.794l-.174.39a.748.748 0 01-1.168.266l-.324-.275a1.41 1.41 0 00-1.833 0l-.323.275a.75.75 0 01-1.169-.266l-.174-.39a1.408 1.408 0 00-1.65-.794l-.411.108a.748.748 0 01-.937-.746l.013-.426a1.408 1.408 0 00-1.143-1.432l-.414-.08a.747.747 0 01-.521-1.079l.196-.378a1.408 1.408 0 00-.405-1.781zm13.546-.856A5.69 5.69 0 008.5 2.61 5.696 5.696 0 002.808 8.3 5.69 5.69 0 008.5 13.986a5.69 5.69 0 005.691-5.687zm-.666 0A5.023 5.023 0 018.5 13.32 5.03 5.03 0 013.474 8.3 5.023 5.023 0 018.5 3.277 5.023 5.023 0 0113.525 8.3zm-2.538 0a2.486 2.486 0 10-4.973.002 2.486 2.486 0 004.973-.002zm.704 7.734a.746.746 0 01.873-.42l.418.108c.114.028.23.044.348.046V25l-4.65-2.843a.353.353 0 00-.359 0L3.67 25v-9.233a1.51 1.51 0 00.347-.047l.415-.107a.747.747 0 01.875.42l.175.39c.18.409.543.707.978.805a1.402 1.402 0 001.23-.302l.325-.275c.279-.24.69-.24.97 0l.323.275a1.415 1.415 0 002.209-.502l.174-.391zm-1.37-7.734a1.82 1.82 0 11-3.641-.002 1.82 1.82 0 013.64.002z" fill="#C5C5C5"/></svg>