<svg width="16" height="17" viewBox="0 0 16 17" fill="none" xmlns="http://www.w3.org/2000/svg"><path opacity=".35" d="M9.676 10.329c.835-.835 1.253-1.838 1.253-3.008s-.418-2.169-1.253-2.997C8.848 3.489 7.85 3.07 6.68 3.07s-2.174.42-3.01 1.254c-.827.828-1.24 1.826-1.24 2.996s.414 2.173 1.242 3.008c.835.828 1.838 1.242 3.008 1.242s2.169-.414 2.997-1.242zm6.11 4.885c0 .33-.12.614-.36.854-.241.24-.526.36-.855.36-.341 0-.626-.12-.853-.36l-3.254-3.244A6.496 6.496 0 016.679 14a6.649 6.649 0 01-2.6-.522 6.855 6.855 0 01-2.134-1.423A6.856 6.856 0 01.522 9.921 6.648 6.648 0 010 7.32c0-.904.174-1.767.522-2.59a6.712 6.712 0 011.423-2.134 6.65 6.65 0 012.134-1.423 6.546 6.546 0 012.6-.531c.904 0 1.767.177 2.59.531.828.348 1.54.822 2.134 1.423a6.508 6.508 0 011.423 2.135c.354.822.531 1.685.531 2.59a6.496 6.496 0 01-1.176 3.785l3.254 3.254c.234.233.35.518.35.853z" fill="#131B21"/></svg>