<svg width="18" height="14" viewBox="0 0 18 14" fill="none" xmlns="http://www.w3.org/2000/svg"><path d="M17.5 1.656a7.255 7.255 0 01-2.061.557A3.56 3.56 0 0017.017.258a7.305 7.305 0 01-2.281.859A3.606 3.606 0 0012.116 0c-1.983 0-3.59 1.583-3.59 3.535 0 .277.03.547.092.805A10.245 10.245 0 011.22.646a3.468 3.468 0 00-.485 1.777A3.52 3.52 0 002.33 5.366a3.632 3.632 0 01-1.626-.444v.044c0 1.712 1.238 3.142 2.88 3.467-.301.08-.618.124-.946.124-.232 0-.456-.023-.676-.066a3.585 3.585 0 003.353 2.456 7.274 7.274 0 01-4.459 1.51c-.29 0-.575-.017-.856-.048A10.261 10.261 0 005.503 14c6.604 0 10.213-5.387 10.213-10.06l-.012-.457A7.111 7.111 0 0017.5 1.656z" fill="#53595D"/></svg>