<svg width="50" height="42" viewBox="0 0 50 42" fill="none" xmlns="http://www.w3.org/2000/svg"><path fill-rule="evenodd" clip-rule="evenodd" d="M21.759 5.824a.8.8 0 00-.638-.537l-3.448-.527-1.549-3.3a.8.8 0 00-1.448 0l-1.55 3.3-3.447.527a.8.8 0 00-.452 1.35l2.518 2.58-.595 3.654a.8.8 0 001.176.83L15.4 12l3.074 1.7a.8.8 0 001.177-.83l-.596-3.654 2.518-2.58a.8.8 0 00.186-.813zM17.627 8.39a.8.8 0 00-.217.688l.396 2.426-2.019-1.116a.8.8 0 00-.774 0l-2.02 1.116.397-2.426a.8.8 0 00-.217-.688L11.46 6.634l2.33-.356a.8.8 0 00.603-.451L15.4 3.683l1.006 2.144a.8.8 0 00.604.45l2.33.357-1.713 1.755zm16.688 4.277a.8.8 0 01.058 1.17l-2.518 2.582.595 3.653a.8.8 0 01-1.176.829l-3.074-1.7-3.074 1.699a.8.8 0 01-1.177-.83l.596-3.653-2.518-2.58a.8.8 0 01.452-1.35l3.448-.527 1.549-3.3a.8.8 0 011.448 0l1.55 3.3 3.447.527a.8.8 0 01.394.18zm-4.078 3.241a.8.8 0 01.19-.318l1.713-1.755-2.33-.356a.8.8 0 01-.604-.451L28.2 10.883l-1.007 2.144a.8.8 0 01-.603.45l-2.33.357 1.712 1.755a.8.8 0 01.217.688l-.395 2.426 2.019-1.116a.8.8 0 01.774 0l2.02 1.116-.397-2.426a.8.8 0 01.027-.37zM36.2 34.6h10.4A2.403 2.403 0 0149 37v1.6a2.403 2.403 0 01-2.4 2.4H26.416c-.225 0-1.245-.19-8.463-1.615-3.609-.713-7.691-1.519-8.19-1.585H7.4v.8a.8.8 0 01-.8.8H1.8a.8.8 0 01-.8-.8V21a.8.8 0 01.8-.8h4.8a.8.8 0 01.8.8v.8h6.4c1.83 0 4.51 1.262 7.968 3.75a60.634 60.634 0 014.432 3.535l7.83 2.349c.044.013.087.03.128.05.479.24 2.042 1.115 2.042 2.316v.8zM2.6 37.8h3.2v-16H2.6v16zm44.565 1.365a.801.801 0 00.235-.565V37a.801.801 0 00-.8-.8H36.062a2.404 2.404 0 01-2.262 1.6.803.803 0 01-.157-.015l-8-1.6a.8.8 0 01-.24-.09l-5.6-3.2a.8.8 0 11.794-1.39l5.487 3.136 7.782 1.556a.801.801 0 00.734-.797v-1.575c-.075-.198-.6-.617-1.1-.88l-7.93-2.379a.802.802 0 01-.305-.171C23.102 28.449 16.827 23.4 13.8 23.4H7.4v12.8h2.4c.225 0 1.245.19 8.464 1.615 3.608.713 7.69 1.519 8.19 1.585H46.6a.8.8 0 00.565-.235zm-.05-19.299a.8.8 0 01.057 1.17l-2.517 2.581.596 3.654a.8.8 0 01-1.177.829L41 26.4l-3.074 1.7a.8.8 0 01-1.177-.829l.596-3.653-2.518-2.581a.8.8 0 01.452-1.35l3.448-.527 1.549-3.3a.8.8 0 011.448 0l1.55 3.3 3.447.527a.8.8 0 01.394.18zm-4.078 3.241a.8.8 0 01.19-.318l1.713-1.755-2.33-.356a.8.8 0 01-.604-.451L41 18.083l-1.007 2.144a.8.8 0 01-.603.45l-2.33.357 1.712 1.755a.8.8 0 01.218.688l-.396 2.426 2.019-1.116a.8.8 0 01.774 0l2.02 1.116-.397-2.426a.799.799 0 01.027-.37z" fill="#84A5F1"/><path d="M21.515 5.466l-.16.191.16-.19zm.244.358l.237-.08-.237.08zm-.638-.537l-.038.247.038-.247zm-3.448-.527l-.226.106.057.121.131.02.038-.247zm-1.549-3.3l-.226.106.226-.106zm-1.448 0l.226.106-.226-.106zm-1.55 3.3l.038.247.132-.02.057-.12-.226-.107zm-3.447.527l.038.247-.038-.247zm-.394.179l-.161-.192.16.192zm-.244.358l-.237-.08.237.08zm-.021.433l-.244.055.244-.055zm.207.38l.18-.175-.18.175zm2.518 2.58l.247.04.02-.124-.088-.09-.178.175zm-.595 3.654l-.247-.04.246.04zm.328.783l.144-.204-.144.204zm.418.145l-.014.25.014-.25zm.43-.099l.12.219-.12-.219zm3.074-1.699l.12-.219-.12-.067-.121.067.121.219zm3.074 1.7l-.121.218.121-.219zm.43.098l.014.25-.014-.25zm.418-.145l.144.204-.144-.204zm.329-.783l.246-.04-.246.04zm-.596-3.654l-.18-.174-.088.09.02.125.248-.04zm2.518-2.58l.178.174-.178-.174zm.207-.38l-.244-.056.244.056zm-4.343 2.45l-.238-.075.238.075zm.19-.318l.18.175-.18-.175zm-.217.688l-.246.04.246-.04zm.396 2.426l-.12.219.45.249-.083-.508-.247.04zm-2.019-1.116l.12-.219-.12.219zm-.774 0l-.121-.219.121.219zm-2.02 1.116l-.246-.04-.083.508.45-.25-.12-.218zm.397-2.426l.246.04-.246-.04zm-.027-.37l-.239.075.239-.075zm-.19-.318l-.18.175.18-.175zM11.46 6.634l-.038-.247-.48.073.339.348.179-.174zm2.33-.356l-.038-.247.038.247zm.603-.451l.227.106-.227-.106zM15.4 3.683l.226-.106-.226-.482-.226.482.226.106zm1.006 2.144l-.226.106.226-.106zm.604.45l.037-.246-.037.247zm2.33.357l.179.174.34-.348-.482-.073-.037.247zm15.219 6.39l.237-.08-.237.08zm-.244-.358l-.16.191.16-.19zm.265.79l.243.056-.243-.055zm-.207.38l.178.175-.178-.174zm-2.518 2.582l-.18-.175-.088.09.02.125.248-.04zm.595 3.653l.247-.04-.247.04zm-.328.783l.144.204-.144-.204zm-.418.145l-.013-.25.013.25zm-.43-.099l.12-.219-.12.219zM28.2 19.201l.12-.219-.12-.067-.121.067.12.219zM25.126 20.9l.12.219-.12-.219zm-.43.099l-.014.25.013-.25zm-.418-.145l.144-.205-.144.205zm-.277-.345l-.23.097.23-.097zm-.052-.438l.247.04-.247-.04zm.596-3.654l.247.04.02-.124-.088-.09-.179.174zm-2.518-2.58l-.179.174.18-.175zm.058-1.171l.16.19-.16-.19zm.394-.18l.038.248-.038-.247zm3.448-.526l.037.247.132-.02.057-.12-.226-.107zm1.549-3.3l.226.106-.226-.106zm.295-.335l.134.21-.134-.21zm.858 0l-.134.21.134-.21zm.295.335l-.226.106.226-.106zm1.55 3.3l-.227.106.056.121.132.02.038-.247zm3.447.527l-.038.247.038-.247zm-3.494 3.102l.18.175-.18-.175zm-.19.318l.238.075-.238-.075zm1.903-2.073l.179.174.34-.348-.482-.073-.037.247zm-2.33-.356l.037-.248-.037.248zm-.358-.15l.15-.2-.15.2zm-.246-.301l-.226.106.226-.106zM28.2 10.883l.226-.106-.226-.482-.226.482.226.106zm-1.007 2.144l.227.106-.227-.106zm-.603.45l-.038-.247.038.248zm-2.33.357l-.038-.247-.48.073.339.348.179-.174zm1.712 1.755l-.178.175.178-.175zm.19.318l-.238.075.239-.075zm.027.37l.247.04-.247-.04zm-.395 2.426l-.247-.04-.083.508.45-.25-.12-.218zm2.019-1.116l-.121-.219.12.219zm.774 0l.12-.219-.12.219zm2.02 1.116l-.122.219.45.249-.082-.508-.247.04zm-.397-2.426l-.246.04.246-.04zM46.6 34.6v-.25.25zm-10.4 0h-.25v.25h.25v-.25zm12.096.704l.177-.177-.177.177zM49 37h.25H49zm0 1.6h.25H49zm-.704 1.696l.177.177-.177-.177zM46.6 41v.25V41zm-28.647-1.615l-.048.245.048-.245zM9.763 37.8l.033-.248-.017-.002h-.016v.25zm-2.363 0v-.25h-.25v.25h.25zM1.234 20.434l.177.177-.177-.177zm5.932 0l-.177.177.177-.177zM7.4 21.8h-.25v.25h.25v-.25zm14.368 3.75l.146-.202-.146.203zm4.432 3.535l-.166.187.042.036.052.016.072-.24zm7.83 2.349l.072-.24-.072.24zm.128.05l-.112.224.112-.223zM5.8 37.8v.25h.25v-.25H5.8zm-3.2 0h-.25v.25h.25v-.25zm3.2-16h.25v-.25H5.8v.25zm-3.2 0v-.25h-.25v.25h.25zm44.8 16.8h.25-.25zm0-1.6h.25-.25zm-.8-.8v-.25.25zm-10.538 0v-.25h-.176l-.06.166.236.084zm-.877 1.159l-.145-.204.145.204zM33.8 37.8v.25-.25zm-.157-.015l-.049.245.049-.245zm-8-1.6l-.05.245h.001l.049-.245zm-.24-.09l.124-.217-.124.217zm-5.6-3.2l.124-.217-.124.217zm-.236-.205l-.198.153.198-.153zm-.14-.28l-.24.067.24-.066zm-.022-.311l-.248-.032.248.032zm.304-.532l-.153-.198.153.198zm.28-.14l-.066-.24.066.24zm.312-.021l.032-.248-.032.248zm.296.1l-.125.216.125-.217zm5.487 3.135l-.124.217.035.02.04.008.05-.245zm7.782 1.556l-.05.245.035.007.036-.003-.021-.249zm.522-.255l-.184-.17.184.17zm.212-.542h.25-.25zm0-1.575h.25v-.046l-.016-.043-.234.089zm-1.1-.88l.116-.221-.021-.011-.023-.007-.072.24zm-7.93-2.379l-.072.24.072-.24zm-.305-.171l-.167.186.167-.186zM7.4 23.4v-.25h-.25v.25h.25zm0 12.8h-.25v.25h.25v-.25zm10.864 1.615l.048-.245-.048.245zm8.19 1.585l-.033.248.016.002h.016v-.25zm20.146 0v.25-.25zm.758-19.176l.238-.08-.237.08zm-.243-.358l.161-.191-.16.191zm.265.79l-.244-.055.244.056zm-.208.38l.18.175-.18-.174zm-2.517 2.581l-.18-.174-.088.09.02.125.248-.04zm.596 3.654l.246-.04-.246.04zm-.33.783l.145.204-.144-.204zm-.417.145l.014.25-.014-.25zm-.43-.099l.12-.219-.12.219zM41 26.4l.12-.218-.12-.067-.121.067.12.219zm-3.074 1.7l.12.219-.12-.219zm-.848-.046l-.144.204.144-.204zm-.277-.344l-.23.097.23-.097zm-.052-.439l-.246-.04.246.04zm.596-3.653l.247.04.02-.125-.088-.09-.179.175zm-2.518-2.581l.18-.175-.18.175zm-.207-.38l-.244.055.244-.055zm.02-.433l-.236-.08.237.08zm.245-.358l-.161-.192.16.192zm.394-.18l.038.248-.038-.247zm3.448-.526l.038.247.131-.02.057-.12-.226-.107zm1.549-3.3l.226.106-.226-.106zm.295-.335l-.134-.211.134.21zm.858 0l.134-.211-.134.21zm.295.335l-.226.106.226-.106zm1.55 3.3l-.227.106.056.121.132.02.038-.247zm3.447.527l-.038.247.038-.247zm-3.494 3.102l.18.175-.18-.175zm-.19.318l.238.075-.238-.075zm1.903-2.073l.178.174.34-.348-.48-.073-.038.247zm-2.33-.356l.037-.248-.037.248zm-.359-.15l-.15.2.15-.2zm-.245-.301l-.226.106.226-.106zM41 18.083l.226-.106-.226-.483-.226.483.226.106zm-1.007 2.144l-.226-.107.226.107zm-.245.3l.15.201-.15-.2zm-.358.15l-.038-.247.038.248zm-2.33.357l-.038-.247-.48.073.339.348.179-.174zm1.712 1.755l-.178.175.178-.175zm.218.688l.246.04-.246-.04zm-.396 2.426l-.247-.04-.083.508.45-.25-.12-.218zm2.019-1.116l-.121-.22.12.22zm.774 0l.12-.22-.12.22zm2.02 1.116l-.122.219.45.249-.082-.508-.247.04zm-.397-2.426l-.246.04.246-.04zM21.354 5.657a.55.55 0 01.168.247l.474-.16a1.05 1.05 0 00-.32-.47l-.322.383zm-.271-.123a.55.55 0 01.271.123l.322-.382a1.05 1.05 0 00-.517-.235l-.076.494zm-3.447-.527l3.447.527.076-.494-3.448-.527-.075.494zm-1.738-3.44l1.549 3.3.453-.213-1.55-3.3-.452.212zm-.203-.231a.55.55 0 01.203.23l.453-.212a1.05 1.05 0 00-.388-.44l-.268.422zM15.4 1.25a.55.55 0 01.295.086l.268-.422A1.05 1.05 0 0015.4.75v.5zm-.295.086a.55.55 0 01.295-.086v-.5c-.2 0-.395.057-.563.164l.268.422zm-.203.23a.55.55 0 01.203-.23l-.268-.422a1.05 1.05 0 00-.387.44l.452.212zm-1.549 3.3l1.55-3.3-.454-.212-1.549 3.3.453.212zm-3.636.668l3.447-.527-.075-.494-3.448.527.076.494zm-.272.123a.55.55 0 01.272-.123l-.075-.494c-.191.029-.37.11-.518.234l.321.383zm-.167.246a.55.55 0 01.167-.246l-.321-.383a1.05 1.05 0 00-.32.47l.474.16zm-.015.298a.55.55 0 01.015-.298l-.474-.158a1.05 1.05 0 00-.028.567l.487-.111zm.143.261a.55.55 0 01-.143-.261l-.487.111c.043.189.138.361.273.5l.357-.35zm2.518 2.581l-2.518-2.58-.358.348 2.518 2.581.358-.349zm-.528 3.869l.596-3.654-.493-.08-.596 3.653.493.08zm.036.301a.55.55 0 01-.036-.301l-.493-.08a1.05 1.05 0 00.068.575l.461-.194zm.19.237a.55.55 0 01-.19-.237l-.46.194c.075.181.201.338.362.451l.288-.409zm.287.099a.55.55 0 01-.287-.1l-.288.41c.162.113.351.179.548.19l.027-.5zm.296-.068a.55.55 0 01-.296.068l-.027.5c.197.01.392-.035.565-.13l-.242-.438zm3.074-1.699l-3.074 1.7.242.437 3.074-1.7-.242-.437zm3.316 1.7l-3.074-1.7-.242.438 3.074 1.699.242-.438zm.296.067a.548.548 0 01-.296-.068l-.242.438c.172.095.368.14.565.13l-.027-.5zm.287-.1a.55.55 0 01-.287.1l.027.5a1.05 1.05 0 00.548-.19l-.288-.41zm.19-.236a.55.55 0 01-.19.237l.288.408a1.05 1.05 0 00.363-.452l-.461-.193zm.036-.302a.55.55 0 01-.036.302l.46.194c.077-.182.1-.382.07-.576l-.494.08zm-.596-3.653l.596 3.653.493-.08-.596-3.654-.493.08zm2.586-2.796l-2.518 2.58.357.35 2.518-2.58-.357-.35zm.142-.261a.55.55 0 01-.142.261l.358.35c.134-.139.228-.312.271-.5l-.487-.111zm-.015-.297a.55.55 0 01.015.297l.487.111a1.05 1.05 0 00-.027-.567l-.474.159zm-3.846 2.878a.55.55 0 01.131-.218l-.358-.35a1.07 1.07 0 00-.25.418l.477.15zm-.018.254a.55.55 0 01.018-.254l-.476-.15c-.05.157-.062.323-.035.485l.493-.08zm.396 2.427l-.396-2.427-.493.08.395 2.427.494-.08zm-2.387-.857l2.02 1.116.241-.438-2.02-1.116-.241.438zm-.266-.07a.55.55 0 01.266.07l.242-.438a1.05 1.05 0 00-.508-.131v.5zm-.266.07a.55.55 0 01.266-.07v-.5a1.05 1.05 0 00-.508.132l.242.438zm-2.02 1.116l2.02-1.116-.242-.438-2.02 1.116.243.438zm.029-2.686l-.396 2.427.494.08.395-2.426-.493-.08zm-.019-.254a.55.55 0 01.019.254l.493.08a1.049 1.049 0 00-.035-.484l-.477.15zm-.13-.218a.55.55 0 01.13.218l.477-.15a1.05 1.05 0 00-.25-.417l-.357.349zM11.28 6.808l1.713 1.756.357-.35-1.71-1.754-.358.35zm2.471-.777l-2.33.356.076.494 2.33-.356-.076-.494zm.246-.104a.55.55 0 01-.246.104l.076.494a1.05 1.05 0 00.47-.197l-.3-.4zm.17-.206a.55.55 0 01-.17.206l.3.401a1.05 1.05 0 00.322-.395l-.453-.212zm1.006-2.144L14.167 5.72l.453.212 1.006-2.144-.452-.212zm1.459 2.144l-1.007-2.144-.452.212 1.006 2.144.453-.212zm.168.206a.55.55 0 01-.168-.206l-.453.212c.073.156.184.292.322.395l.3-.4zm.246.104a.55.55 0 01-.246-.104l-.299.401c.138.103.3.17.47.197l.075-.494zm2.33.356l-2.33-.356-.075.494 2.33.356.075-.494zm-1.57 2.177l1.712-1.756-.358-.349-1.713 1.756.358.349zm16.989 4.38a1.05 1.05 0 00-.32-.47l-.322.383a.55.55 0 01.167.247l.475-.16zm.027.568a1.05 1.05 0 00-.027-.567l-.475.159a.55.55 0 01.015.297l.487.111zm-.272.5a1.05 1.05 0 00.272-.5l-.487-.111a.551.551 0 01-.142.261l.357.35zm-2.518 2.58l2.518-2.58-.357-.35-2.518 2.58.357.35zm.664 3.439l-.596-3.654-.493.08.596 3.654.493-.08zm-.068.576c.076-.182.1-.382.068-.576l-.493.08a.55.55 0 01-.036.302l.461.194zm-.363.451a1.05 1.05 0 00.363-.451l-.461-.194a.55.55 0 01-.19.236l.288.41zm-.548.19a1.05 1.05 0 00.548-.19l-.288-.409a.55.55 0 01-.287.1l.027.5zm-.565-.13c.172.096.368.141.565.13l-.027-.499a.55.55 0 01-.296-.068l-.242.438zm-3.074-1.698l3.074 1.699.242-.438-3.074-1.699-.242.438zm-2.832 1.699l3.074-1.7-.242-.437-3.074 1.7.242.437zm-.565.13c.197.01.392-.035.565-.13l-.242-.438a.55.55 0 01-.296.068l-.027.5zm-.548-.19c.161.113.35.179.548.19l.027-.5a.55.55 0 01-.287-.1l-.288.41zm-.363-.453c.076.182.202.339.363.452l.288-.409a.55.55 0 01-.19-.236l-.461.193zm-.068-.576a1.05 1.05 0 00.068.576l.46-.193a.55.55 0 01-.035-.302l-.493-.08zm.596-3.653l-.596 3.654.493.08.596-3.654-.493-.08zm-2.45-2.366l2.517 2.58.358-.348-2.518-2.581-.358.349zm-.273-.499c.043.188.138.36.272.499l.358-.35a.55.55 0 01-.142-.26l-.488.111zm.028-.568a1.05 1.05 0 00-.028.568l.488-.112a.55.55 0 01.014-.297l-.474-.159zm.32-.47a1.05 1.05 0 00-.32.47l.474.16a.55.55 0 01.168-.247l-.322-.383zm.517-.234c-.19.029-.37.11-.517.234l.322.383a.55.55 0 01.27-.123l-.075-.494zm3.448-.527l-3.448.527.076.494 3.447-.527-.075-.494zm1.36-3.16l-1.549 3.3.453.213 1.549-3.3-.453-.212zm.388-.44a1.05 1.05 0 00-.388.44l.453.213a.55.55 0 01.203-.23l-.268-.422zm.563-.163c-.2 0-.395.057-.563.164l.268.422a.55.55 0 01.295-.086v-.5zm.563.164a1.05 1.05 0 00-.563-.164v.5a.55.55 0 01.295.086l.268-.422zm.387.44a1.05 1.05 0 00-.387-.44l-.268.422a.55.55 0 01.203.23l.452-.212zm1.55 3.3l-1.55-3.3-.452.212 1.549 3.3.452-.212zm3.259.386l-3.448-.527-.076.494 3.448.527.075-.494zm.517.235a1.05 1.05 0 00-.517-.235l-.076.494a.55.55 0 01.271.123l.322-.382zm-4.228 2.94c-.114.117-.2.26-.25.417l.477.15a.55.55 0 01.131-.218l-.358-.35zm1.713-1.756l-1.713 1.756.358.349 1.713-1.756-.358-.349zm-2.19.066l2.33.356.076-.494-2.33-.357-.075.495zm-.47-.197c.139.103.3.17.47.197l.076-.495a.55.55 0 01-.246-.103l-.3.401zm-.321-.395c.073.156.184.292.322.395l.3-.4a.55.55 0 01-.17-.207l-.452.212zm-1.006-2.144l1.006 2.144.452-.212-1.006-2.144-.452.212zm-.554 2.144l1.006-2.144-.452-.212-1.007 2.144.453.212zm-.322.395a1.05 1.05 0 00.322-.395l-.453-.212a.55.55 0 01-.169.206l.3.401zm-.47.197a1.05 1.05 0 00.47-.197l-.3-.4a.55.55 0 01-.246.102l.076.495zm-2.33.356l2.33-.356-.076-.495-2.33.357.076.494zm1.854 1.334l-1.713-1.756-.358.35 1.713 1.755.357-.35zm.25.417c-.05-.157-.136-.3-.25-.417l-.358.349c.06.061.104.136.13.218l.477-.15zm.034.485a1.052 1.052 0 00-.035-.485l-.477.15c.026.082.033.17.019.254l.493.08zm-.395 2.426l.395-2.426-.493-.08-.396 2.426.494.08zm1.651-1.375l-2.02 1.116.243.438 2.019-1.116-.242-.438zm.508-.131a1.05 1.05 0 00-.508.131l.242.438a.549.549 0 01.266-.07v-.5zm.508.131a1.05 1.05 0 00-.508-.131v.5a.55.55 0 01.266.069l.242-.438zm2.02 1.116l-2.02-1.116-.242.438 2.02 1.116.241-.438zm-.764-2.167l.395 2.426.494-.08-.396-2.427-.493.08zm.035-.485a1.05 1.05 0 00-.035.485l.493-.08a.55.55 0 01.018-.255l-.476-.15zm16.6 18.518H36.2v.5h10.4v-.5zm1.874.777a2.652 2.652 0 00-1.873-.777v.5c.57 0 1.116.227 1.52.63l.353-.353zM49.25 37c0-.703-.28-1.376-.777-1.873l-.354.353c.404.404.63.95.63 1.52h.5zm0 1.6V37h-.5v1.6h.5zm-.777 1.873c.497-.497.776-1.17.777-1.873h-.5c0 .57-.227 1.116-.63 1.52l.353.353zm-1.873.777c.703 0 1.376-.28 1.873-.777l-.354-.353a2.15 2.15 0 01-1.52.63l.001.5zm-20.184 0H46.6v-.5H26.416v.5zm-8.511-1.62c3.609.713 5.669 1.117 6.855 1.342.593.113.97.182 1.213.223.236.04.363.055.443.055v-.5c-.032 0-.117-.008-.36-.048-.238-.04-.61-.108-1.202-.22-1.184-.226-3.243-.63-6.852-1.342l-.097.49zM9.73 38.048c.489.065 4.557.868 8.175 1.582l.097-.49c-3.6-.711-7.697-1.52-8.206-1.588l-.066.496zm-2.33.002h2.363v-.5H7.4v.5zm.25.55v-.8h-.5v.8h.5zm-.308.742a1.05 1.05 0 00.308-.742h-.5a.55.55 0 01-.161.389l.353.354zm-.742.308c.278 0 .546-.11.742-.307l-.353-.354a.55.55 0 01-.389.161v.5zm-4.8 0h4.8v-.5H1.8v.5zm-.742-.307c.196.196.464.307.742.307v-.5a.55.55 0 01-.389-.161l-.353.354zM.75 38.6c0 .279.11.546.308.742l.353-.353a.55.55 0 01-.161-.389h-.5zm0-17.6v17.6h.5V21h-.5zm.308-.742A1.05 1.05 0 00.75 21h.5a.55.55 0 01.161-.389l-.353-.353zm.742-.308c-.278 0-.546.11-.742.308l.353.353a.55.55 0 01.389-.16v-.5zm4.8 0H1.8v.5h4.8v-.5zm.742.308a1.05 1.05 0 00-.742-.308v.5a.55.55 0 01.389.161l.353-.353zM7.65 21c0-.278-.11-.546-.308-.742l-.353.353A.55.55 0 017.15 21h.5zm0 .8V21h-.5v.8h.5zm6.15-.25H7.4v.5h6.4v-.5zm8.114 3.798c-1.736-1.25-3.284-2.197-4.634-2.832-1.346-.634-2.512-.966-3.48-.966v.5c.862 0 1.951.299 3.267.918 1.313.618 2.834 1.547 4.555 2.786l.292-.406zm4.451 3.55a60.874 60.874 0 00-4.451-3.55l-.292.406a60.403 60.403 0 014.412 3.518l.331-.375zm7.737 2.296l-7.83-2.349-.144.48 7.83 2.348.144-.479zm.168.067a1.048 1.048 0 00-.168-.067l-.144.48c.03.008.06.02.088.034l.224-.447zm2.18 2.539c0-.71-.459-1.292-.926-1.706a6.078 6.078 0 00-1.255-.833l-.223.447c.231.116.72.383 1.147.76.434.385.757.841.757 1.332h.5zm0 .8v-.8h-.5v.8h.5zM5.8 37.55H2.6v.5h3.2v-.5zM5.55 21.8v16h.5v-16h-.5zm-2.95.25h3.2v-.5H2.6v.5zm.25 15.75v-16h-.5v16h.5zm44.3.8a.551.551 0 01-.161.389l.353.353a1.05 1.05 0 00.308-.742h-.5zm0-1.6v1.6h.5V37h-.5zm-.161-.389a.55.55 0 01.16.39l.5-.001a1.05 1.05 0 00-.307-.742l-.353.353zm-.39-.161a.55.55 0 01.39.161l.353-.353a1.05 1.05 0 00-.742-.308v.5zm-10.537 0H46.6v-.5H36.062v.5zm-.733 1.113c.447-.316.786-.763.969-1.28l-.471-.167a2.154 2.154 0 01-.786 1.039l.288.408zm-1.529.487c.548 0 1.082-.17 1.53-.487l-.29-.408a2.155 2.155 0 01-1.24.395v.5zm-.206-.02c.068.013.137.02.206.02v-.5a.55.55 0 01-.108-.01l-.098.49zm-8-1.6l8 1.6.098-.49-8-1.6-.098.49zm-.315-.118c.098.056.204.096.315.118l.098-.49a.548.548 0 01-.165-.062l-.248.434zm-5.6-3.2l5.6 3.2.248-.434-5.6-3.2-.248.434zm-.31-.269c.085.11.19.2.31.269l.248-.435a.55.55 0 01-.162-.14l-.396.306zm-.183-.367c.037.134.099.258.183.367l.396-.306a.55.55 0 01-.096-.192l-.483.132zm-.029-.409c-.017.137-.007.276.03.41l.482-.132a.55.55 0 01-.016-.215l-.496-.063zm.13-.389a1.07 1.07 0 00-.13.39l.496.062a.548.548 0 01.069-.203l-.435-.248zm.27-.309c-.11.085-.201.19-.27.31l.434.248a.549.549 0 01.141-.162l-.306-.396zm.366-.183a1.048 1.048 0 00-.367.183l.306.396a.549.549 0 01.193-.096l-.132-.483zm.41-.028a1.05 1.05 0 00-.41.028l.132.483a.55.55 0 01.214-.015l.064-.496zm.388.13a1.05 1.05 0 00-.389-.13l-.063.496c.072.01.14.032.204.068l.248-.434zm5.487 3.136l-5.487-3.136-.248.434 5.487 3.136.248-.434zm7.707 1.528l-7.782-1.556-.098.49 7.782 1.556.098-.49zm.29-.18a.55.55 0 01-.36.176l.042.498c.262-.022.507-.141.685-.335l-.368-.339zm.145-.372a.551.551 0 01-.146.372l.368.339a1.05 1.05 0 00.278-.71l-.5-.001zm0-1.575V35.4h.5v-1.575h-.5zm-.967-.659c.235.124.478.286.67.439.096.076.175.148.232.208.03.03.05.055.065.075.015.021.018.03.016.025l.468-.177a.862.862 0 00-.186-.267 2.851 2.851 0 00-.283-.255 4.937 4.937 0 00-.749-.49l-.233.442zm-7.885-2.36l7.93 2.379.144-.48-7.93-2.378-.144.479zm-.4-.225c.115.103.252.18.4.225l.144-.48a.551.551 0 01-.21-.117l-.334.372zM13.8 23.65c.699 0 1.616.295 2.656.795 1.032.496 2.157 1.18 3.26 1.93a54.909 54.909 0 015.382 4.206l.334-.372a55.38 55.38 0 00-5.435-4.248c-1.114-.756-2.261-1.456-3.324-1.967-1.056-.508-2.058-.844-2.873-.844v.5zm-6.4 0h6.4v-.5H7.4v.5zm.25 12.55V23.4h-.5v12.8h.5zm2.15-.25H7.4v.5h2.4v-.5zm8.512 1.62c-3.61-.713-5.67-1.117-6.856-1.342-.593-.113-.97-.182-1.213-.223a3.11 3.11 0 00-.443-.055v.5c.032 0 .117.008.361.049.237.04.609.107 1.201.22 1.185.225 3.243.629 6.853 1.341l.097-.49zm8.174 1.582c-.488-.065-4.557-.868-8.174-1.582l-.097.49c3.6.711 7.696 1.52 8.206 1.588l.066-.496zM46.6 39.15H26.453v.5H46.6v-.5zm.389-.161a.551.551 0 01-.39.161l.001.5c.279 0 .545-.111.742-.308l-.353-.353zm.607-18.844a1.05 1.05 0 00-.32-.47l-.322.382a.55.55 0 01.167.247l.475-.16zm.027.567a1.051 1.051 0 00-.027-.567l-.475.159a.55.55 0 01.015.297l.487.111zm-.272.5a1.05 1.05 0 00.272-.5l-.487-.111a.55.55 0 01-.143.261l.358.35zm-2.518 2.58l2.518-2.58-.358-.35-2.517 2.58.357.35zm.664 3.439l-.596-3.654-.493.08.596 3.654.493-.08zm-.068.576c.076-.182.1-.382.068-.576l-.493.08a.549.549 0 01-.036.302l.461.194zm-.363.451c.16-.113.287-.27.363-.451l-.461-.194a.55.55 0 01-.19.236l.288.41zm-.548.19a1.05 1.05 0 00.548-.19l-.288-.409a.55.55 0 01-.287.1l.027.5zm-.565-.13c.172.096.368.141.565.13l-.027-.499a.55.55 0 01-.296-.068l-.242.438zm-3.074-1.698l3.074 1.699.242-.438-3.074-1.699-.242.438zm-2.832 1.699l3.074-1.7-.242-.437-3.074 1.7.242.437zm-.565.13c.197.01.392-.035.565-.13l-.242-.438a.549.549 0 01-.296.068l-.027.5zm-.548-.19c.161.113.351.179.548.19l.027-.5a.55.55 0 01-.287-.1l-.288.41zm-.363-.452c.076.181.202.338.363.451l.288-.409a.55.55 0 01-.19-.236l-.461.194zm-.068-.576a1.05 1.05 0 00.068.576l.46-.194a.55.55 0 01-.035-.302l-.493-.08zm.596-3.654l-.596 3.654.493.08.596-3.653-.493-.08zm-2.45-2.366l2.517 2.581.358-.349-2.518-2.58-.358.348zm-.273-.498c.043.188.138.36.273.499l.357-.35a.55.55 0 01-.143-.261l-.487.111zm.028-.569a1.05 1.05 0 00-.028.569l.487-.112a.55.55 0 01.015-.298l-.474-.159zm.32-.47a1.05 1.05 0 00-.32.47l.474.16a.55.55 0 01.167-.247l-.322-.383zm.518-.234c-.191.029-.37.11-.518.234l.321.383a.55.55 0 01.272-.123l-.075-.494zm3.447-.527l-3.448.527.076.494 3.447-.527-.075-.494zm1.36-3.16l-1.549 3.3.453.213 1.549-3.3-.453-.212zm.388-.44a1.05 1.05 0 00-.388.44l.453.213a.55.55 0 01.203-.23l-.268-.422zM41 15.15c-.2 0-.395.057-.563.164l.268.422A.55.55 0 0141 15.65v-.5zm.563.164A1.05 1.05 0 0041 15.15v.5a.55.55 0 01.295.086l.268-.422zm.387.44a1.05 1.05 0 00-.387-.44l-.268.422a.55.55 0 01.203.23l.452-.212zm1.55 3.3l-1.55-3.3-.452.212 1.549 3.3.452-.212zm3.258.386l-3.447-.527-.076.494 3.448.527.075-.494zm.518.235a1.05 1.05 0 00-.518-.235l-.075.494a.55.55 0 01.271.123l.322-.382zm-4.228 2.94c-.114.117-.2.26-.25.417l.477.15a.55.55 0 01.131-.218l-.358-.35zm1.713-1.756l-1.713 1.756.358.349 1.712-1.756-.357-.349zm-2.19.066l2.33.356.076-.494-2.33-.357-.075.495zm-.47-.197c.139.103.3.17.47.197l.076-.495a.549.549 0 01-.246-.103l-.3.401zm-.321-.395c.073.156.184.292.322.395l.3-.4a.55.55 0 01-.17-.207l-.452.212zm-1.006-2.144l1.006 2.144.452-.212-1.006-2.144-.452.212zm-.554 2.144l1.006-2.144-.452-.212-1.007 2.143.453.213zm-.322.395c.138-.103.248-.239.322-.395l-.453-.212a.55.55 0 01-.169.206l.3.401zm-.47.197a1.05 1.05 0 00.47-.197l-.3-.4a.549.549 0 01-.246.102l.076.495zm-2.33.356l2.33-.356-.076-.495-2.33.357.076.494zm1.854 1.334l-1.713-1.756-.358.35 1.713 1.755.358-.35zm.25.417a1.05 1.05 0 00-.25-.418l-.358.35a.55.55 0 01.13.218l.477-.15zm.034.485a1.05 1.05 0 00-.035-.485l-.477.15c.026.082.033.17.019.254l.493.08zm-.396 2.426l.396-2.426-.493-.08-.396 2.426.493.08zm1.652-1.375l-2.02 1.116.243.438 2.019-1.116-.242-.438zm.508-.131a1.05 1.05 0 00-.508.13l.242.439a.55.55 0 01.266-.07v-.5zm.508.13a1.05 1.05 0 00-.508-.13v.5a.55.55 0 01.266.069l.242-.438zm2.019 1.117l-2.02-1.116-.241.438 2.02 1.116.241-.438zm-.763-2.167l.395 2.426.494-.08-.396-2.427-.493.08zm.035-.485a1.05 1.05 0 00-.035.485l.493-.08a.551.551 0 01.018-.255l-.476-.15z" fill="#84A5F1"/></svg>