<svg width="37" height="37" viewBox="0 0 37 37" fill="none" xmlns="http://www.w3.org/2000/svg"><path fill-rule="evenodd" clip-rule="evenodd" d="M33.083 1H3.917A2.92 2.92 0 001 3.917v29.166A2.92 2.92 0 003.917 36h29.166A2.92 2.92 0 0036 33.083V3.917A2.92 2.92 0 0033.083 1zM3.917 2.167h29.166a1.752 1.752 0 011.75 1.75V8H2.167V3.917a1.752 1.752 0 011.75-1.75zm29.166 32.666H3.917a1.752 1.752 0 01-1.75-1.75V9.167h32.666v23.916a1.752 1.752 0 01-1.75 1.75zm-28-28a1.75 1.75 0 100-3.5 1.75 1.75 0 000 3.5zm0-2.333a.583.583 0 110 1.167.583.583 0 010-1.167zm6.417.583a1.75 1.75 0 11-3.5 0 1.75 1.75 0 013.5 0zm-1.167 0a.583.583 0 10-1.166 0 .583.583 0 001.166 0zm4.084 1.75a1.75 1.75 0 100-3.5 1.75 1.75 0 000 3.5zm0-2.333a.583.583 0 110 1.167.583.583 0 010-1.167zM29 20.25h-4.667a1.168 1.168 0 01-1.166-1.167v-4.666c0-.644.522-1.166 1.166-1.167H29c.644 0 1.166.523 1.167 1.167v4.666A1.169 1.169 0 0129 20.25zm0-5.833h-4.667v4.666H29v-4.666zm.583 13.416a.583.583 0 00-.583.584v1.166h-4.667v-4.666h2.917a.583.583 0 000-1.167h-2.917c-.644 0-1.166.523-1.166 1.167v4.666c0 .644.522 1.166 1.166 1.167H29c.644 0 1.166-.523 1.167-1.167v-1.166a.583.583 0 00-.584-.584zM10.917 15H6.25a.583.583 0 110-1.167h4.667a.583.583 0 110 1.167zm9.333-1.167h-7a.583.583 0 100 1.167h7a.583.583 0 100-1.167zm-14 2.334h14a.583.583 0 010 1.166h-14a.583.583 0 010-1.166zm0 3.5h7a.583.583 0 000-1.167h-7a.583.583 0 000 1.167zm9.333-1.167h4.667a.583.583 0 110 1.167h-4.667a.583.583 0 010-1.167zm-9.333 7h4.667a.583.583 0 100-1.167H6.25a.583.583 0 100 1.167zm7-1.167h7a.583.583 0 110 1.167h-7a.583.583 0 110-1.167zm7 2.334h-14a.583.583 0 000 1.166h14a.583.583 0 100-1.166zM6.25 29h7a.583.583 0 110 1.167h-7a.583.583 0 010-1.167zm14 0h-4.667a.583.583 0 000 1.167h4.667a.583.583 0 000-1.167zm6.937-2.055l3.096-4.128a.583.583 0 11.934.7l-3.5 4.666a.583.583 0 01-.88.063l-1.166-1.167a.583.583 0 01.825-.825l.69.691z" fill="#84A5F1"/><path d="M3.917 1V.75 1zm29.166 0V.75 1zM1 3.917H.75 1zm0 29.166H.75 1zM3.917 36v.25V36zm29.166 0v.25V36zM36 33.083h.25H36zm0-29.166h.25H36zm-2.917-1.75v-.25.25zm-29.166 0v-.25.25zm30.916 1.75h.25-.25zm0 4.083v.25h.25V8h-.25zM2.167 8h-.25v.25h.25V8zm0-4.083h-.25.25zm1.75 30.916v.25-.25zm29.166 0v.25-.25zm-30.916-1.75h-.25.25zm0-23.916v-.25h-.25v.25h.25zm32.666 0h.25v-.25h-.25v.25zm0 23.916h.25-.25zM5.083 6.833v.25-.25zm-1.75-1.75h-.25.25zm1.75-.583v-.25.25zm-.583.583h-.25.25zm5.25 1.75v.25-.25zM8 5.083h-.25H8zM9.75 4.5v-.25.25zm-.583.583h-.25.25zm5.25 1.75v.25-.25zm-1.75-1.75h-.25.25zm1.75-.583v-.25.25zm-.584.583h-.25.25zm10.5 15.167v.25-.25zm4.667 0v.25-.25zm-5.833-1.167h-.25.25zm0-4.666h-.25.25zm1.166-1.167V13v.25zm4.667 0V13v.25zm1.167 1.167h.25-.25zm0 4.666h.25-.25zm-5.834-4.666v-.25h-.25v.25h.25zm4.667 0h.25v-.25H29v.25zm-4.667 4.666h-.25v.25h.25v-.25zm4.667 0v.25h.25v-.25H29zm0 10.5v.25h.25v-.25H29zm-4.667 0h-.25v.25h.25v-.25zm0-4.666v-.25h-.25v.25h.25zm0-1.167v-.25.25zm-1.166 1.167h-.25.25zm0 4.666h-.25.25zm1.166 1.167V31v-.25zm4.667 0V31v-.25zm1.167-1.167h.25-.25zm.116-6.766l.2.15-.2-.15zm-3.096 4.128l-.177.177.204.204.173-.23-.2-.15zM31.1 22.7l-.15.2.15-.2zm.117.817l.2.15-.2-.15zm-3.5 4.666l-.2-.15.2.15zm-.425.232l.014.25h.003l-.017-.25zm-.042.002v-.25.25zm-.412-.171l.177-.177-.177.177zm-1.167-1.167l-.18.174.003.003.177-.177zm.825-.825l.177-.177-.003-.003-.174.18zM3.916 1.25h29.167v-.5H3.917v.5zM1.25 3.917A2.67 2.67 0 013.917 1.25v-.5A3.17 3.17 0 00.75 3.916l.5.001zm0 29.166V3.917h-.5v29.166h.5zm2.667 2.667a2.67 2.67 0 01-2.667-2.667h-.5a3.17 3.17 0 003.166 3.167l.001-.5zm29.166 0H3.917v.5h29.166v-.5zm2.667-2.667a2.67 2.67 0 01-2.667 2.667v.5a3.17 3.17 0 003.167-3.166l-.5-.001zm0-29.166v29.166h.5V3.917h-.5zM33.083 1.25a2.67 2.67 0 012.667 2.667h.5A3.17 3.17 0 0033.084.75l-.001.5zm0 .667H3.917v.5h29.166v-.5zm2 2a2.002 2.002 0 00-2-2v.5a1.5 1.5 0 011.5 1.5h.5zm0 4.083V3.917h-.5V8h.5zm-32.916.25h32.666v-.5H2.167v.5zm-.25-4.333V8h.5V3.917h-.5zm2-2a2.002 2.002 0 00-2 2h.5a1.5 1.5 0 011.5-1.5v-.5zm0 33.166h29.166v-.5H3.917v.5zm-2-2a2.002 2.002 0 002 2v-.5a1.5 1.5 0 01-1.5-1.5h-.5zm0-23.916v23.916h.5V9.167h-.5zm32.916-.25H2.167v.5h32.666v-.5zm.25 24.166V9.167h-.5v23.916h.5zm-2 2a2.002 2.002 0 002-2h-.5a1.5 1.5 0 01-1.5 1.5v.5zm-26.5-30a1.5 1.5 0 01-1.5 1.5v.5a2 2 0 002-2h-.5zm-1.5-1.5a1.5 1.5 0 011.5 1.5h.5a2 2 0 00-2-2v.5zm-1.5 1.5a1.5 1.5 0 011.5-1.5v-.5a2 2 0 00-2 2h.5zm1.5 1.5a1.501 1.501 0 01-1.5-1.5h-.5a2.002 2.002 0 002 2v-.5zm.834-1.5a.833.833 0 00-.834-.833v.5c.184 0 .334.15.334.333h.5zm-.834.834c.46 0 .834-.373.834-.834h-.5c0 .184-.15.334-.334.334v.5zm-.833-.834c0 .46.373.834.833.834v-.5a.333.333 0 01-.333-.334h-.5zm.833-.833a.834.834 0 00-.833.833h.5c0-.184.15-.333.334-.333v-.5zM9.75 7.083a2 2 0 002-2h-.5a1.5 1.5 0 01-1.5 1.5v.5zm-2-2a2.002 2.002 0 002 2v-.5a1.5 1.5 0 01-1.5-1.5h-.5zm2-2a2 2 0 00-2 2h.5a1.5 1.5 0 011.5-1.5v-.5zm2 2a2 2 0 00-2-2v.5a1.5 1.5 0 011.5 1.5h.5zm-2-.333c.184 0 .333.15.333.333h.5a.833.833 0 00-.833-.833v.5zm-.333.334c0-.185.15-.334.333-.334v-.5a.834.834 0 00-.833.833h.5zm.333.333a.333.333 0 01-.333-.334h-.5c0 .46.373.834.833.834v-.5zm.333-.334a.334.334 0 01-.333.334v.5c.46 0 .833-.373.833-.834h-.5zm5.834 0a1.5 1.5 0 01-1.5 1.5v.5a2 2 0 002-2h-.5zm-1.5-1.5a1.5 1.5 0 011.5 1.5h.5a2 2 0 00-2-2v.5zm-1.5 1.5a1.5 1.5 0 011.5-1.5v-.5a2 2 0 00-2 2h.5zm1.5 1.5a1.5 1.5 0 01-1.5-1.5h-.5a2.002 2.002 0 002 2v-.5zm.833-1.5a.833.833 0 00-.833-.833v.5c.184 0 .333.15.333.333h.5zm-.833.834c.46 0 .833-.373.833-.834h-.5c0 .184-.15.334-.333.334v.5zm-.834-.834c0 .46.373.834.834.834v-.5a.333.333 0 01-.334-.334h-.5zm.833-.833a.834.834 0 00-.833.833h.5c0-.184.15-.333.334-.333v-.5zm9.917 16.25H29V20h-4.667v.5zm-1.416-1.416c0 .782.634 1.415 1.416 1.416V20a.918.918 0 01-.916-.917h-.5zm0-4.667v4.666h.5v-4.666h-.5zM24.333 13c-.782 0-1.415.634-1.416 1.416l.5.001c0-.506.41-.916.916-.917V13zM29 13h-4.667v.5H29V13zm1.417 1.416A1.418 1.418 0 0029 13v.5c.506 0 .916.41.917.917h.5zm0 4.667v-4.666h-.5v4.666h.5zM29 20.5c.782 0 1.416-.634 1.417-1.416l-.5-.001A.919.919 0 0129 20v.5zm-4.667-5.833H29v-.5h-4.667v.5zm.25 4.416v-4.666h-.5v4.666h.5zm4.417-.25h-4.667v.5H29v-.5zm-.25-4.416v4.666h.5v-4.666h-.5zm.5 14c0-.184.15-.334.333-.334v-.5a.833.833 0 00-.833.834h.5zm0 1.166v-1.166h-.5v1.166h.5zm-4.917.25H29v-.5h-4.667v.5zm-.25-4.916v4.666h.5v-4.666h-.5zm3.167-.25h-2.917v.5h2.917v-.5zm.333-.334a.334.334 0 01-.333.334v.5c.46 0 .833-.373.833-.834h-.5zM27.25 24c.184 0 .333.15.333.333h.5a.833.833 0 00-.833-.833v.5zm-2.917 0h2.917v-.5h-2.917v.5zm-.916.917c0-.506.41-.916.916-.917v-.5c-.782 0-1.415.634-1.416 1.416l.5.001zm0 4.666v-4.666h-.5v4.666h.5zm.916.917a.918.918 0 01-.916-.917h-.5c0 .783.634 1.416 1.416 1.417v-.5zm4.667 0h-4.667v.5H29v-.5zm.917-.917A.919.919 0 0129 30.5v.5c.782 0 1.416-.634 1.417-1.416l-.5-.001zm0-1.166v1.166h.5v-1.166h-.5zm-.334-.334c.184 0 .334.15.334.334h.5a.833.833 0 00-.834-.834v.5zM6.25 15.25h4.667v-.5H6.25v.5zm-.833-.833c0 .46.373.833.833.833v-.5a.333.333 0 01-.333-.333h-.5zm.833-.834a.833.833 0 00-.833.834h.5c0-.184.149-.334.333-.334v-.5zm4.667 0H6.25v.5h4.667v-.5zm.833.834a.833.833 0 00-.833-.834v.5c.184 0 .333.15.333.334h.5zm-.833.833c.46 0 .833-.373.833-.833h-.5c0 .184-.15.333-.333.333v.5zm2.333-1.167h7v-.5h-7v.5zm-.333.334c0-.184.149-.334.333-.334v-.5a.833.833 0 00-.833.834h.5zm.333.333a.333.333 0 01-.333-.333h-.5c0 .46.373.833.833.833v-.5zm7 0h-7v.5h7v-.5zm.333-.333a.333.333 0 01-.333.333v.5c.46 0 .833-.373.833-.833h-.5zm-.333-.334c.184 0 .333.15.333.334h.5a.833.833 0 00-.833-.834v.5zm0 1.834h-14v.5h14v-.5zm.833.833a.833.833 0 00-.833-.833v.5c.184 0 .333.149.333.333h.5zm-.833.833c.46 0 .833-.373.833-.833h-.5a.333.333 0 01-.333.333v.5zm-14 0h14v-.5h-14v.5zm-.833-.833c0 .46.373.833.833.833v-.5a.333.333 0 01-.333-.333h-.5zm.833-.833a.833.833 0 00-.833.833h.5c0-.184.149-.333.333-.333v-.5zm7 3.5h-7v.5h7v-.5zm.333-.334a.334.334 0 01-.333.334v.5c.46 0 .833-.373.833-.834h-.5zm-.333-.333c.184 0 .333.15.333.333h.5a.833.833 0 00-.833-.833v.5zm-7 0h7v-.5h-7v.5zm-.333.333c0-.184.149-.333.333-.333v-.5a.833.833 0 00-.833.833h.5zm.333.334a.333.333 0 01-.333-.334h-.5c0 .46.373.834.833.834v-.5zm14-1.167h-4.667v.5h4.667v-.5zm.833.833a.833.833 0 00-.833-.833v.5c.184 0 .333.15.333.333h.5zm-.833.834c.46 0 .833-.373.833-.834h-.5a.334.334 0 01-.333.334v.5zm-4.667 0h4.667v-.5h-4.667v.5zm-.833-.834c0 .46.373.834.833.834v-.5a.333.333 0 01-.333-.334h-.5zm.833-.833a.833.833 0 00-.833.833h.5c0-.184.15-.333.333-.333v-.5zm-4.666 7H6.25v.5h4.667v-.5zm.333-.333c0 .184-.15.333-.333.333v.5c.46 0 .833-.373.833-.833h-.5zm-.333-.334c.184 0 .333.15.333.334h.5a.833.833 0 00-.833-.834v.5zm-4.667 0h4.667v-.5H6.25v.5zm-.333.334c0-.184.149-.334.333-.334v-.5a.833.833 0 00-.833.834h.5zm.333.333a.333.333 0 01-.333-.333h-.5c0 .46.373.833.833.833v-.5zm14-1.167h-7v.5h7v-.5zm.833.834a.833.833 0 00-.833-.834v.5c.184 0 .333.15.333.334h.5zm-.833.833c.46 0 .833-.373.833-.833h-.5a.333.333 0 01-.333.333v.5zm-7 0h7v-.5h-7v.5zm-.833-.833c0 .46.373.833.833.833v-.5a.333.333 0 01-.333-.333h-.5zm.833-.834a.833.833 0 00-.833.834h.5c0-.184.149-.334.333-.334v-.5zm-7 2.834h14v-.5h-14v.5zm-.333.333c0-.184.149-.333.333-.333v-.5a.833.833 0 00-.833.833h.5zm.333.333a.333.333 0 01-.333-.333h-.5c0 .46.373.833.833.833v-.5zm14 0h-14v.5h14v-.5zm.333-.333a.333.333 0 01-.333.333v.5c.46 0 .833-.373.833-.833h-.5zm-.333-.333c.184 0 .333.149.333.333h.5a.833.833 0 00-.833-.833v.5zm-7 1.833h-7v.5h7v-.5zm.833.833a.833.833 0 00-.833-.833v.5c.184 0 .333.15.333.333h.5zm-.833.834c.46 0 .833-.373.833-.834h-.5a.334.334 0 01-.333.334v.5zm-7 0h7v-.5h-7v.5zm-.833-.834c0 .46.373.834.833.834v-.5a.333.333 0 01-.333-.334h-.5zm.833-.833a.833.833 0 00-.833.833h.5c0-.184.149-.333.333-.333v-.5zm9.333.5h4.667v-.5h-4.667v.5zm-.333.333c0-.184.15-.333.333-.333v-.5a.833.833 0 00-.833.833h.5zm.333.334a.333.333 0 01-.333-.334h-.5c0 .46.373.834.833.834v-.5zm4.667 0h-4.667v.5h4.667v-.5zm.333-.334a.334.334 0 01-.333.334v.5c.46 0 .833-.373.833-.834h-.5zm-.333-.333c.184 0 .333.15.333.333h.5a.833.833 0 00-.833-.833v.5zm9.833-6.583l-3.096 4.128.4.3 3.096-4.128-.4-.3zm1.167-.167a.833.833 0 00-1.167.167l.4.3a.333.333 0 01.467-.067l.3-.4zm.167 1.167a.833.833 0 00-.167-1.167l-.3.4c.147.11.177.32.067.467l.4.3zm-3.5 4.666l3.5-4.666-.4-.3-3.5 4.666.4.3zm-.608.332a.832.832 0 00.608-.332l-.4-.3a.332.332 0 01-.243.133l.035.499zm-.059.002l.056-.002-.029-.5a.485.485 0 01-.027.002v.5zm-.59-.245a.832.832 0 00.59.245v-.5a.333.333 0 01-.235-.098l-.354.353zm-1.166-1.166l1.167 1.166.354-.353-1.167-1.167-.354.354zm.007-1.171a.833.833 0 00-.01 1.168l.36-.348a.333.333 0 01.004-.467l-.354-.353zm1.168-.01a.833.833 0 00-1.168.01l.354.353a.333.333 0 01.467-.004l.348-.36zm.694.694l-.69-.691-.354.353.691.691.353-.354z" fill="#84A5F1"/></svg>