<svg width="48" height="47" viewBox="0 0 48 47" fill="none" xmlns="http://www.w3.org/2000/svg"><path fill-rule="evenodd" clip-rule="evenodd" d="M43.425 24.317l1.887.603a2.517 2.517 0 011.76 2.403v3.119a2.517 2.517 0 01-1.76 2.403l-3.04.971a.733.733 0 00-.408.335c-1.305 2.247-3.324 4.101-6.002 5.513l-.949 5.003A1.642 1.642 0 0133.3 46h-3.166c-.789 0-1.467-.56-1.614-1.332l-.488-2.573c-1.346.19-2.726.286-4.109.286a28.25 28.25 0 01-2.966-.154l-.463 2.44A1.642 1.642 0 0118.88 46h-3.166c-.788 0-1.467-.56-1.614-1.332l-.911-4.72c-2.209-1.197-3.942-2.791-5.152-4.737-1.313-2.111-1.978-4.592-1.978-7.375 0-.374.012-.741.035-1.103-.116-.01-.238-.022-.364-.037a3.81 3.81 0 01-.49.788c-1.27 1.588-2.593 1.891-3.416 1.891a3.62 3.62 0 01-.151-.003.7.7 0 01-.673-.698v-.004c0-.38.305-.685.686-.698.652-.022 1.654-.257 2.505-1.32.048-.06.092-.12.131-.179-1.44-.308-2.308-.799-2.646-1.492-.2-.411-.304-1.078.335-1.92.442-.581 1.077-.864 1.745-.775.848.113 1.647.808 2.036 1.772.176.437.257.887.246 1.333.051.006.103.01.154.015l.04.003c.607-4.135 2.815-7.39 6.475-9.501a.672.672 0 01.916.244.667.667 0 01-.244.913c-1.888 1.088-3.354 2.515-4.358 4.24C7.945 23.154 7.4 25.351 7.4 27.836c0 4.919 2.26 8.721 6.54 10.998.283.15.48.416.54.73l.938 4.853a.302.302 0 00.296.246h3.166a.3.3 0 00.296-.244l.513-2.698c.102-.54.613-.913 1.162-.85a28.046 28.046 0 007.249-.137 1.053 1.053 0 011.198.845l.54 2.84a.301.301 0 00.296.245H33.3a.301.301 0 00.296-.245l.974-5.139c.06-.319.261-.588.55-.738 2.51-1.3 4.389-3.003 5.583-5.06a2.07 2.07 0 011.16-.939l3.04-.97c.495-.159.828-.613.828-1.131v-3.119c0-.518-.333-.972-.828-1.13l-1.887-.603a2.129 2.129 0 01-1.38-1.386 10.777 10.777 0 00-2.137-3.82c-.418 1.125-.946 1.875-1.576 2.23-.557.315-1.316.493-2.139.493-1.093 0-2.3-.314-3.3-1.043-.848-.619-1.446-1.457-1.778-2.491-.369-1.151-.39-2.52-.063-4.066a1.69 1.69 0 01.019-.077l.002-.01a25.242 25.242 0 00-1.267-.28 9.163 9.163 0 01-2.783 2.713c.416.107.83.229 1.24.365a.668.668 0 11-.426 1.268 18.05 18.05 0 00-11.34 0 .668.668 0 11-.425-1.268c.408-.136.822-.258 1.239-.366a9.14 9.14 0 01-1.615-1.282 9.046 9.046 0 01-2.68-6.45c0-2.435.951-4.726 2.68-6.449A9.107 9.107 0 0121.757 1c2.445 0 4.743.949 6.472 2.671a9.114 9.114 0 011.705 2.348.667.667 0 01-.297.898.671.671 0 01-.9-.297 7.784 7.784 0 00-1.457-2.003 7.772 7.772 0 00-5.523-2.28c-2.086 0-4.047.81-5.522 2.28a7.72 7.72 0 00-2.288 5.504 7.72 7.72 0 002.288 5.504 7.766 7.766 0 002.824 1.799 19.51 19.51 0 015.397 0 7.766 7.766 0 002.824-1.799 7.752 7.752 0 002.28-5.153.669.669 0 01.7-.638.67.67 0 01.64.697 9.077 9.077 0 01-.821 3.385l.066.013.086.018c.414.09.826.19 1.23.297a2.18 2.18 0 01.396-.235c5.98-2.729 7.086-2.152 7.449-1.962.674.352 1.016 1.35 1.044 3.053.02 1.19-.132 2.568-.41 3.785.435.445.833.912 1.191 1.401a12.11 12.11 0 011.784 3.517.788.788 0 00.51.514zm-6.163-2.866c.696-.392 1.388-2.274 1.646-4.473.26-2.22-.023-3.524-.239-3.754a.703.703 0 00-.243-.032c-.719 0-2.654.5-6.01 2.032a.807.807 0 00-.461.559c-.508 2.403-.051 4.202 1.32 5.202 1.371.999 3.197.913 3.987.466zM3.081 23.867c-.104.137-.268.387-.198.53.156.322.877.598 1.805.79a2.023 2.023 0 00-.14-.63c-.229-.567-.66-.905-.969-.946a.502.502 0 00-.067-.005c-.115 0-.267.044-.431.26zm35.267 1.612a.67.67 0 011.34 0 2.191 2.191 0 01-2.192 2.185 2.191 2.191 0 01-2.192-2.185.67.67 0 011.34 0 .851.851 0 001.704 0z" fill="#84A5F1"/><path d="M45.312 24.92l.091-.286-.091.286zm-1.887-.603l-.092.286.092-.286zm1.887 8.528l.091.286-.091-.286zm-3.04.971l-.092-.286.091.286zm-.408.335l.26.15-.26-.15zm-6.002 5.513l-.14-.266-.128.068-.027.142.294.056zm-.949 5.003l.295.056-.295-.056zm-6.393 0l-.295.057.295-.056zm-.488-2.572l.294-.056-.053-.28-.283.04.042.296zm-7.075.133l.032-.299-.275-.029-.052.272.295.056zm-.463 2.44l-.295-.056.295.056zm-6.393 0l.294-.056v-.001l-.294.057zm-.912-4.72l.294-.056-.026-.14-.125-.067-.143.264zm-5.152-4.737l-.255.158.255-.158zm-1.943-8.478l.3.019-.597-.056.297.037zm0 0l-.027.3.289.026.036-.288-.298-.037zm-.364-.037l.033-.298-.215-.024-.09.197.272.125zm-.49.788l-.234-.187.234.188zm-3.567 1.888l.014-.3-.014.3zm.013-1.4l.01.3-.01-.3zm2.505-1.32l.235.186-.235-.187zm.131-.179l.25.167.246-.368-.433-.092-.063.293zm-2.646-1.492l-.27.13.27-.13zm.335-1.92l-.239-.182.24.181zm1.745-.775l-.04.297.04-.297zm2.036 1.772l-.278.112.278-.112zm.246 1.333l-.3-.008-.007.278.276.029.03-.299zm.154.015l.027-.299-.027.299zm.04.003h.3v-.274l-.274-.025-.027.3zm0 0h-.3l.596.044-.297-.044zm6.475-9.501l-.15-.26.15.26zm.916.244l.26-.15-.26.15zm-.244.913l.15.26-.15-.26zm-4.358 4.24l.26.151-.26-.15zm4.918 17.529l.141-.265-.14.265zm.541.73l-.295.056.295-.057zm.938 4.853l.294-.056-.294.056zm3.758.002l.295.056-.295-.056zm.513-2.698l.294.056-.294-.056zm1.162-.85l.034-.298-.034.298zm7.25-.137l.044.297-.045-.297zm1.197.845l.295-.056-.295.056zm.54 2.84l-.295.056.295-.056zm3.758 0l.295.056-.295-.056zm.974-5.139l-.295-.056.295.056zm.55-.738l-.137-.266.138.266zm5.583-5.06l.26.15-.26-.15zm1.16-.939l-.092-.286.091.286zm3.04-.97l.091.285-.091-.285zm0-5.38l.091-.286-.091.286zm-1.887-.603l-.092.286.092-.286zm-1.38-1.386l.286-.09-.286.09zm-1.588-3.13l-.242.177.242-.177zm-.549-.69l.228-.196-.332-.386-.177.477.281.105zm-1.576 2.23l.148.262-.148-.262zm-5.439-.55l-.177.242.177-.242zm-1.778-2.491l.286-.092-.286.091zm-.063-4.066l.293.062-.293-.062zm.019-.077l.29.074-.29-.074zm.002-.01l.29.074.076-.293-.294-.073-.072.292zm-.718-.167l.064-.293-.064.293zm-.549-.113l.057-.294-.196-.038-.11.167.25.165zm-1.168 1.43l-.212-.212.212.212zm-1.615 1.283l-.05.296.113.018.096-.06-.16-.254zm0 0l.048-.296-.124.586.075-.29zm1.24.365l.094-.285-.095.285zm.422.846l.285.095-.285-.095zm-.848.422l-.095.284.095-.284zm-11.34 0l.094.284-.095-.284zm-.85-.422l.285-.096-.284.096zm.424-.846l-.095-.285.095.285zm1.24-.366l.075.291-.124-.586.049.296zm0 0l-.16.255.097.06.112-.018-.05-.296zm-1.615-1.282l.211-.212-.211.212zm0-12.899l-.212-.212.212.212zm12.942 0l.212-.212-.212.212zm1.705 2.348l-.268.136.268-.136zm-.297.898l-.135-.268.135.268zm-.9-.297l.267-.135-.268.135zM27.28 4.617l-.211.212.211-.212zm-11.045 0l.212.212-.212-.212zm0 11.008l-.212.213.212-.213zm2.824 1.799l-.103.281.07.026.075-.01-.042-.297zm5.397 0l-.042.297.075.01.07-.026-.103-.281zm2.824-1.799l.212.213-.212-.213zm2.28-5.153l.3.013-.3-.013zm.7-.638l-.015.3h.002l.013-.3zm.64.697l.3.014-.3-.014zm-.821 3.385l-.273-.126-.157.342.368.077.062-.293zm.066.013l-.058.294.058-.294zm.086.018l-.064.293.064-.293zm1.23.297l-.078.29.14.038.117-.087-.18-.24zm.396-.235l.124.273-.124-.273zm7.449-1.962l-.139.265.139-.265zM40.35 15.1l.3-.005-.3.005zm-.41 3.785l-.293-.067-.036.16.114.117.214-.21zm1.191 1.401l-.242.177.242-.177zm1.784 3.517l-.286.09.286-.09zm-4.007-6.825l-.298-.035.298.035zm-1.646 4.473l-.147-.26.147.26zm1.407-8.227l.219-.205-.047-.05-.063-.024-.109.28zm-6.254 2l.125.273-.125-.273zm-.46.559l-.294-.063-.006.031v.032h.3zm0 0l.294.062.006-.031v-.031h-.3zm1.32 5.202l.178-.243-.177.243zM2.884 24.397l.27-.131-.27.131zm.198-.53l-.24-.182.24.182zm1.607 1.32l-.06.294.383.079-.023-.391-.3.018zm-.14-.63l-.278.112.278-.112zm-.969-.946l-.04.297.04-.297zm41.824 1.023l-1.887-.603-.183.572 1.888.602.182-.571zm1.968 2.689a2.817 2.817 0 00-1.968-2.69l-.182.573a2.217 2.217 0 011.55 2.117h.6zm0 3.119v-3.119h-.6v3.119h.6zm-1.968 2.69a2.817 2.817 0 001.968-2.69h-.6c0 .97-.622 1.82-1.55 2.118l.182.571zm-3.04.97l3.04-.97-.182-.572-3.04.97.182.572zm-.24.2a.432.432 0 01.24-.2l-.183-.572a1.033 1.033 0 00-.576.47l.52.301zm-6.122 5.627c2.72-1.433 4.785-3.324 6.122-5.628l-.52-.301c-1.272 2.19-3.245 4.009-5.882 5.398l.28.531zm-.793 4.794l.948-5.003-.59-.112-.947 5.004.59.111zM33.3 46.3c.932 0 1.734-.662 1.908-1.577l-.59-.112A1.342 1.342 0 0133.3 45.7v.6zm-3.166 0H33.3v-.6h-3.166v.6zm-1.909-1.576a1.942 1.942 0 001.909 1.576v-.6c-.645 0-1.2-.459-1.32-1.088l-.589.112zm-.488-2.573l.488 2.573.59-.112-.489-2.573-.59.112zm-3.814.53c1.396 0 2.79-.097 4.15-.289l-.083-.594a29.243 29.243 0 01-4.067.283v.6zm-2.997-.155c.973.103 1.98.155 2.997.155v-.6c-.997 0-1.983-.051-2.934-.152l-.063.597zm-.138 2.198l.464-2.44-.59-.112-.463 2.44.59.112zM18.88 46.3c.932 0 1.735-.662 1.908-1.576l-.589-.112A1.342 1.342 0 0118.88 45.7v.6zm-3.166 0h3.166v-.6h-3.166v.6zm-1.908-1.576a1.942 1.942 0 001.908 1.576v-.6c-.645 0-1.2-.459-1.319-1.088l-.59.111zm-.912-4.718l.912 4.718.589-.113-.912-4.72-.589.115zm-5.112-4.637c1.24 1.995 3.014 3.623 5.264 4.843l.286-.527c-2.168-1.176-3.86-2.735-5.04-4.633l-.51.317zM5.76 27.836c0 2.832.678 5.37 2.023 7.533l.51-.316c-1.28-2.058-1.933-4.483-1.933-7.217h-.6zm.036-1.122c-.023.368-.036.742-.036 1.122h.6c0-.367.012-.728.035-1.084l-.6-.038zm.597.057v-.001l-.595-.074.595.075zm-.696.223c.129.015.253.027.37.038l.056-.597c-.115-.01-.235-.023-.359-.037l-.067.596zm-.222.678c.216-.269.392-.554.528-.85l-.545-.251a3.51 3.51 0 01-.451.726l.468.375zm-3.65 2.003c.908 0 2.32-.34 3.65-2.003l-.468-.375c-1.21 1.512-2.443 1.778-3.182 1.778v.6zm-.165-.004a3.5 3.5 0 00.165.004v-.6c-.048 0-.094-.001-.137-.003l-.028.6zm-.96-.997a1 1 0 00.96.997l.026-.6a.4.4 0 01-.386-.397H.7zm0-.004v.004h.6v-.004H.7zm.976-.997c-.536.018-.976.45-.976.997h.6c0-.212.17-.39.396-.398l-.02-.6zm2.281-1.21c-.784.98-1.695 1.19-2.28 1.21l.02.6c.716-.025 1.81-.287 2.729-1.434l-.469-.375zm.116-.157a2.347 2.347 0 01-.116.158l.469.375c.052-.066.101-.133.146-.199l-.499-.334zm-2.667-1.194c.403.827 1.398 1.343 2.853 1.654l.126-.586c-1.426-.306-2.167-.771-2.44-1.33l-.539.262zm.366-2.233c-.348.459-.507.889-.542 1.277a1.8 1.8 0 00.176.956l.54-.263a1.2 1.2 0 01-.118-.64c.023-.259.131-.584.422-.967l-.478-.363zm2.024-.89c-.786-.105-1.524.232-2.024.89l.478.363c.383-.504.916-.732 1.467-.659l.079-.594zm2.274 1.957c-.419-1.039-1.295-1.827-2.274-1.958l-.08.595c.717.096 1.439.698 1.798 1.587l.556-.224zm.268 1.453a3.617 3.617 0 00-.268-1.453l-.556.224c.161.4.234.81.224 1.213l.6.016zm-.119-.292l-.15-.014-.062.597.159.015.053-.598zm.04.003c-.014 0-.027-.002-.04-.003l-.054.598.04.003.053-.598zm.272.3h-.6.6zm6.026-9.762c-3.74 2.156-6.001 5.491-6.623 9.718l.594.087c.594-4.044 2.748-7.22 6.329-9.285l-.3-.52zm1.326.353a.972.972 0 00-1.325-.353l.299.52a.372.372 0 01.507.134l.519-.3zm-.354 1.324A.967.967 0 0013.882 16l-.52.301c.103.176.043.4-.134.503l.3.52zM9.28 21.456c.975-1.676 2.402-3.067 4.248-4.131l-.3-.52c-1.928 1.112-3.434 2.575-4.466 4.35l.518.301zm-1.58 6.38c0-2.44.535-4.584 1.58-6.38l-.518-.302C7.655 23.056 7.1 25.307 7.1 27.836h.6zm6.38 10.733C9.902 36.346 7.7 32.646 7.7 27.836h-.6c0 5.027 2.32 8.933 6.698 11.263l.282-.53zm.695.937a1.35 1.35 0 00-.695-.937l-.282.53a.75.75 0 01.387.521l.59-.114zm.937 4.854l-.937-4.854-.59.114.938 4.854.59-.114zm.002.004l-.002-.003-.59.112c.055.285.303.49.592.49v-.6zm3.166 0h-3.166v.6h3.166v-.6zm.001 0v-.001.6a.601.601 0 00.59-.488l-.59-.112zm.513-2.7l-.513 2.7.59.111.512-2.699-.589-.112zm1.49-1.091a1.362 1.362 0 00-1.49 1.092l.59.111a.762.762 0 01.832-.607l.069-.596zm3.04.171a26.52 26.52 0 01-3.039-.171l-.069.596c1.004.116 2.05.175 3.108.175v-.6zm4.132-.306a27.88 27.88 0 01-4.133.306v.6c1.423 0 2.843-.105 4.222-.313l-.09-.593zm1.537 1.085a1.353 1.353 0 00-1.537-1.085l.09.593a.753.753 0 01.858.604l.59-.112zm.54 2.84l-.54-2.84-.59.112.54 2.84.59-.112zm0 0l-.59.112a.601.601 0 00.59.489v-.6zm3.167 0h-3.166v.6H33.3v-.6zm.001 0H33.3v.6a.601.601 0 00.59-.488l-.589-.112zm.974-5.139l-.974 5.14.59.111.974-5.14-.59-.11zm.708-.948c-.371.192-.63.538-.708.948l.59.112a.747.747 0 01.394-.528l-.276-.532zm5.46-4.945c-1.16 2-2.991 3.665-5.46 4.945l.276.532c2.55-1.321 4.475-3.06 5.704-5.176l-.52-.301zm1.328-1.074a2.37 2.37 0 00-1.327 1.074l.519.301a1.77 1.77 0 01.99-.803l-.182-.572zm3.04-.97l-3.04.97.183.572 3.04-.97-.182-.572zm.62-.845a.884.884 0 01-.62.845l.183.571a1.484 1.484 0 001.037-1.416h-.6zm0-3.119v3.119h.6v-3.119h-.6zm-.62-.845c.372.12.62.458.62.845h.6c0-.65-.418-1.218-1.037-1.416l-.182.572zm-1.886-.602l1.887.602.182-.571-1.887-.603-.182.572zm-1.575-1.582a2.429 2.429 0 001.574 1.582l.183-.572a1.828 1.828 0 01-1.185-1.19l-.572.18zm-1.544-3.043c.68.93 1.2 1.953 1.544 3.043l.572-.18a11.077 11.077 0 00-1.632-3.217l-.484.354zm-.534-.672c.188.219.366.443.534.672l.484-.354a11.607 11.607 0 00-.563-.71l-.455.392zm-1.201 2.297c.721-.408 1.282-1.237 1.71-2.388l-.563-.209c-.408 1.1-.904 1.77-1.442 2.074l.295.523zm-2.287.531c.862 0 1.675-.186 2.287-.531l-.295-.523c-.503.284-1.208.454-1.992.454v.6zm-3.477-1.101c1.059.772 2.33 1.101 3.477 1.101v-.6c-1.04 0-2.182-.3-3.123-.986l-.354.485zm-1.887-2.642c.35 1.093.986 1.985 1.887 2.642l.354-.485c-.795-.58-1.356-1.364-1.67-2.34l-.57.183zm-.07-4.219c-.335 1.582-.319 3.006.07 4.219l.572-.183c-.349-1.088-.375-2.4-.056-3.912l-.587-.124zm.021-.09a2.097 2.097 0 00-.022.09l.588.124c.003-.019.008-.038.015-.065l-.58-.15zm.003-.01l-.003.01.581.15.003-.01-.581-.15zm-.491.201c.238.052.474.107.71.165l.143-.583c-.24-.059-.482-.116-.726-.168l-.127.586zm-.543-.111c.183.035.364.072.543.111l.127-.586a22.74 22.74 0 00-.556-.114l-.114.589zm-.9 1.348c.456-.455.858-.95 1.207-1.477l-.5-.331a8.858 8.858 0 01-1.13 1.383l.423.425zm-1.667 1.324a9.436 9.436 0 001.667-1.324l-.423-.425a8.837 8.837 0 01-1.562 1.24l.318.51zm-.209.041l.099-.591-.099.591zm1.384-.215a19.216 19.216 0 00-1.26-.37l-.15.58c.41.106.818.226 1.22.36l.19-.57zm.613 1.226a.968.968 0 00-.613-1.226l-.19.57a.368.368 0 01.234.465l.569.191zm-.92.661a.97.97 0 00.92-.66l-.569-.192a.37.37 0 01-.351.252v.6zm-.308-.05c.102.034.205.05.308.05v-.6a.37.37 0 01-.118-.019l-.19.57zm-11.15 0a17.75 17.75 0 0111.15 0l.19-.569a18.352 18.352 0 00-11.53 0l.19.57zm-1.229-.61a.97.97 0 001.228.61l-.19-.569a.371.371 0 01-.469-.233l-.569.191zm.613-1.227a.968.968 0 00-.613 1.226l.57-.19a.368.368 0 01.233-.466l-.19-.57zm1.26-.37c-.423.109-.844.232-1.26.37l.19.57c.402-.134.81-.254 1.22-.36l-.15-.58zm.123.586h.001l-.098-.592.098.592zm-1.875-1.366a9.438 9.438 0 001.668 1.324l.317-.509a8.84 8.84 0 01-1.562-1.24l-.423.425zm-2.769-6.662c0 2.516.984 4.883 2.769 6.662l.423-.425a8.746 8.746 0 01-2.592-6.237h-.6zm2.769-6.662a9.346 9.346 0 00-2.769 6.662h.6c0-2.356.92-4.57 2.592-6.237l-.423-.425zM21.758.7c-2.524 0-4.898.98-6.683 2.759l.423.425a8.807 8.807 0 016.26-2.584V.7zm6.682 2.759A9.407 9.407 0 0021.758.7v.6c2.365 0 4.587.917 6.259 2.584l.423-.425zm1.762 2.425A9.415 9.415 0 0028.44 3.46l-.423.425a8.813 8.813 0 011.65 2.27l.535-.27zm-.43 1.3a.967.967 0 00.43-1.3l-.536.27a.367.367 0 01-.164.495l.27.536zm-1.303-.428a.972.972 0 001.302.429l-.269-.536a.372.372 0 01-.498-.164l-.535.27zm-1.4-1.927a7.483 7.483 0 011.4 1.927l.535-.27a8.082 8.082 0 00-1.512-2.082l-.423.425zm-5.311-2.192a7.47 7.47 0 015.31 2.192l.424-.425a8.072 8.072 0 00-5.735-2.367v.6zm-5.311 2.192a7.472 7.472 0 015.31-2.192v-.6a8.072 8.072 0 00-5.734 2.367l.424.425zm-2.2 5.292c0-2 .78-3.878 2.2-5.292l-.424-.425a8.02 8.02 0 00-2.376 5.717h.6zm2.2 5.292a7.42 7.42 0 01-2.2-5.292h-.6c0 2.16.844 4.19 2.376 5.717l.424-.425zm2.715 1.729a7.464 7.464 0 01-2.715-1.73l-.424.426a8.066 8.066 0 002.933 1.867l.206-.563zm5.335-.016a19.807 19.807 0 00-5.48 0l.084.595a19.206 19.206 0 015.313 0l.083-.595zm2.572-1.713a7.466 7.466 0 01-2.716 1.729l.206.563a8.066 8.066 0 002.933-1.867l-.423-.425zm2.191-4.955a7.452 7.452 0 01-2.192 4.955l.424.425a8.052 8.052 0 002.368-5.353l-.6-.027zm1.015-.924a.969.969 0 00-1.015.924l.6.027a.369.369 0 01.385-.351l.03-.6zm.924 1.01a.969.969 0 00-.926-1.01l-.026.6a.369.369 0 01.353.384l.6.027zm-.848 3.497a9.354 9.354 0 00.848-3.496l-.599-.027a8.778 8.778 0 01-.794 3.272l.546.251zm-.147-.406a9.79 9.79 0 01-.063-.013l-.124.587.07.014.117-.588zm.09.019a5.475 5.475 0 00-.09-.019l-.117.588.08.017.127-.586zm1.244.3c-.408-.109-.825-.21-1.244-.3l-.127.586c.41.089.817.187 1.216.294l.155-.58zm.195-.218a2.487 2.487 0 00-.451.268l.358.481c.106-.08.22-.148.341-.203l-.248-.546zm7.712-1.955a1.68 1.68 0 00-.57-.188c-.287-.044-.679-.046-1.235.044-1.108.18-2.908.73-5.908 2.1l.25.545c2.98-1.36 4.724-1.886 5.754-2.052.513-.084.84-.076 1.048-.044.202.031.305.086.383.127l.278-.532zm1.205 3.314c-.015-.866-.109-1.577-.296-2.125-.188-.55-.48-.966-.91-1.19l-.277.533c.246.128.461.388.62.85.158.465.249 1.105.263 1.942l.6-.01zm-.418 3.857c.283-1.24.438-2.641.418-3.857l-.6.01a16.255 16.255 0 01-.403 3.713l.585.134zm1.141 1.157a13.2 13.2 0 00-1.22-1.434l-.428.42c.426.435.815.891 1.164 1.368l.484-.354zm1.828 3.603a12.411 12.411 0 00-1.828-3.603l-.484.354a11.81 11.81 0 011.74 3.43l.572-.18zm.315.32a.488.488 0 01-.315-.32l-.572.181c.106.337.369.603.704.71l.183-.572zm-4.906-7.09c-.127 1.081-.36 2.078-.642 2.847a5.192 5.192 0 01-.446.948c-.156.248-.297.39-.407.453l.295.523c.237-.134.443-.374.62-.658.182-.288.35-.65.5-1.06.303-.82.545-1.864.676-2.982l-.596-.07zm-.16-3.512s.044.061.095.246c.047.169.093.405.124.71.063.607.07 1.465-.059 2.557l.596.07c.132-1.129.127-2.032.06-2.69a4.97 4.97 0 00-.143-.808c-.054-.194-.127-.381-.235-.496l-.437.411zm-.024.062a.66.66 0 01.102.006c.025.003.034.007.032.006l.218-.56a.988.988 0 00-.352-.052v.6zm-5.886 2.005c1.67-.762 2.982-1.265 3.96-1.577.99-.315 1.616-.428 1.926-.428v-.6c-.408 0-1.11.138-2.107.456-1.008.321-2.342.834-4.028 1.603l.249.546zm-.291.348a.507.507 0 01.29-.348l-.248-.546a1.107 1.107 0 00-.63.77l.587.124zm.006-.062h-.6.6zm1.197 4.96c-1.235-.901-1.7-2.551-1.203-4.898l-.588-.124c-.52 2.459-.07 4.406 1.438 5.506l.354-.485zm3.663.447c-.33.186-.92.316-1.609.27-.681-.044-1.422-.258-2.053-.718l-.354.485c.74.54 1.596.782 2.368.832.765.05 1.482-.086 1.943-.346l-.295-.523zM3.152 24.266c.019.038.012.063.014.054a.276.276 0 01.023-.064 1.23 1.23 0 01.13-.208l-.477-.362a1.813 1.813 0 00-.197.318.854.854 0 00-.072.222.505.505 0 00.04.302l.54-.262zm1.597.627a6.33 6.33 0 01-1.136-.329 1.802 1.802 0 01-.339-.18.383.383 0 01-.122-.118l-.54.262a.95.95 0 00.314.346c.128.09.283.171.453.243.341.144.774.266 1.249.364l.121-.588zm-.48-.224c.046.111.106.3.12.536l.599-.036a2.324 2.324 0 00-.162-.725l-.556.225zm-.73-.761c.075.01.205.065.352.2.141.13.281.318.379.56l.556-.224a2.149 2.149 0 00-.53-.779c-.204-.186-.443-.32-.677-.352l-.08.595zm-.027-.002c.007 0 .016 0 .027.002l.08-.595a.808.808 0 00-.107-.007v.6zm-.192.142a.433.433 0 01.134-.127.116.116 0 01.058-.015v-.6c-.219 0-.455.096-.67.38l.478.362zm35.698.463a.97.97 0 00-.97.968h.6a.37.37 0 01.37-.369v-.6zm.97.968a.97.97 0 00-.97-.968v.6a.37.37 0 01.37.368h.6zm-2.492 2.485a2.491 2.491 0 002.492-2.485h-.6a1.891 1.891 0 01-1.892 1.885v.6zm-2.492-2.485a2.491 2.491 0 002.492 2.485v-.6a1.891 1.891 0 01-1.892-1.885h-.6zm.97-.968a.97.97 0 00-.97.968h.6a.37.37 0 01.37-.369v-.6zm.97.968a.97.97 0 00-.97-.968v.6a.37.37 0 01.37.368h.6zm.552.548a.551.551 0 01-.551-.548h-.6a1.15 1.15 0 001.151 1.148v-.6zm.552-.548a.55.55 0 01-.552.548v.6a1.15 1.15 0 001.152-1.148h-.6z" fill="#84A5F1"/></svg>