<svg width="42" height="42" viewBox="0 0 42 42" fill="none" xmlns="http://www.w3.org/2000/svg"><path fill-rule="evenodd" clip-rule="evenodd" d="M36.732 8.651h1.236a.78.78 0 000-1.561h-2.967a.78.78 0 00-.78.78v2.967a.78.78 0 001.56 0v-.859A18.378 18.378 0 0139.439 21c0 10.167-8.27 18.438-18.438 18.438-10.167 0-18.439-8.27-18.439-18.438C2.561 10.833 10.833 2.561 21 2.561c.752 0 1.509.046 2.25.136a.781.781 0 00.188-1.55A20.283 20.283 0 0021 1 19.869 19.869 0 006.858 6.858 19.869 19.869 0 001 21c0 5.342 2.08 10.365 5.858 14.142A19.869 19.869 0 0021 41c5.342 0 10.365-2.08 14.142-5.858A19.869 19.869 0 0041 21c0-4.508-1.506-8.836-4.268-12.349zM9.47 12.791a.78.78 0 00-1.078.241 14.969 14.969 0 00-2.221 9.533 14.947 14.947 0 004.286 8.98A14.866 14.866 0 0021 35.905c3.819 0 7.637-1.453 10.545-4.36 5.814-5.815 5.814-15.275 0-21.09a14.948 14.948 0 00-8.966-4.284 14.97 14.97 0 00-9.521 2.204.78.78 0 10.832 1.321C19.195 6.353 26 7.12 30.44 11.56c5.206 5.205 5.206 13.675 0 18.88-5.205 5.206-13.675 5.206-18.88 0-4.38-4.379-5.157-11.349-1.85-16.572a.781.781 0 00-.241-1.078zm22.643 9.002h-.962a.78.78 0 010-1.561h.962a.78.78 0 010 1.561zm-23.005-.806c0 .432.35.781.78.781h.963a.78.78 0 000-1.561h-.962a.78.78 0 00-.781.78zm12.686-11.1v.963a.78.78 0 01-1.561 0v-.962a.78.78 0 011.561 0zM20.207 31.15v.962a.78.78 0 001.561 0v-.962a.78.78 0 00-1.561 0zm-4.225-15.168a.781.781 0 011.105 0l2.646 2.646a2.675 2.675 0 012.534 0l5.34-5.338a.781.781 0 011.104 1.104l-5.34 5.339c.203.377.319.809.319 1.267A2.693 2.693 0 0121 23.69a2.693 2.693 0 01-2.372-3.957l-2.646-2.646a.781.781 0 010-1.105zM21 22.128A1.13 1.13 0 0022.128 21 1.13 1.13 0 0021 19.872 1.13 1.13 0 0019.872 21 1.13 1.13 0 0021 22.128zM11.56 11.56a.784.784 0 00.229-.552.785.785 0 00-.782-.78.786.786 0 00-.552.228.787.787 0 00-.228.552.785.785 0 00.78.781.785.785 0 00.552-.229zm15.4-8.455a.784.784 0 01-1.104 0 .785.785 0 01-.229-.552.786.786 0 01.78-.78c.207 0 .409.083.554.228a.786.786 0 01.229.552.785.785 0 01-.23.552z" fill="#84A5F1"/><path d="M36.732 8.651v-.25h-.514l.318.405.196-.155zm-.95 1.327l.2-.15-.45-.602v.752h.25zM23.25 2.698l-.03.247.03-.248zm.869-.682l-.248-.03.248.03zm-.681-.869l-.03.248.03-.248zm-16.58 5.71l.177.178-.177-.177zm0 28.285l.177-.177-.177.177zm28.284 0l-.177-.177.177.177zm-26.75-22.11l-.212-.134.211.134zm1.077-.242l.134-.211-.134.211zm-3.3 9.775l.25-.026-.25.026zm4.287 8.98l-.177.176.177-.176zm21.089 0l.176.176-.176-.176zm0-21.09l.176-.176-.176.177zm-8.966-4.284l-.026.25.026-.25zm-9.521 2.204l.133.212-.133-.212zm-.244 1.077l-.212.133.212-.133zm1.076.244l.134.212-.134-.212zm16.55 1.864l.177-.177-.177.177zm0 18.88l-.176-.176.176.176zm-18.88 0l.177-.176-.177.176zM9.71 13.868l.212.133-.211-.133zm7.377 2.114l.176-.176-.176.176zm-1.105 0l-.176-.176.176.176zm3.75 2.646l-.176.177.131.131.164-.087-.118-.22zm2.535 0l-.118.22.164.088.131-.13-.177-.178zm5.34-5.338l-.177-.177.176.177zm1.104 0l.176-.177-.177.177zm0 1.104l-.177-.177.177.177zm-5.34 5.339l-.176-.177-.131.131.087.164.22-.118zm-4.743 0l.22.118.088-.164-.13-.131-.178.177zm-2.646-2.646l-.176.176.176-.176zm-4.423-5.528l-.176-.177.176.177zm0-1.104l.177-.176-.177.176zm-1.104 0l-.176-.176.176.176zm0 1.104l-.176.177.176-.177zm16.506-8.455l-.177-.177.177.177zm-1.105 0l.177-.176-.177.176zm0-1.104l.177.177L25.856 2zm1.105 0l-.177.177.177-.177zm11.007 6.401h-1.236v.5h1.236v-.5zm.53-.53a.53.53 0 01-.53.53v.5c.57 0 1.03-.461 1.03-1.03h-.5zm-.53-.531a.53.53 0 01.53.53h.5c0-.569-.46-1.03-1.03-1.03v.5zm-2.967 0h2.967v-.5h-2.967v.5zm-.53.53a.53.53 0 01.53-.53v-.5a1.03 1.03 0 00-1.03 1.03h.5zm0 2.967V7.871h-.5v2.966h.5zm.53.531a.53.53 0 01-.53-.53h-.5c0 .569.461 1.03 1.03 1.03v-.5zm.53-.53a.53.53 0 01-.53.53v.5c.57 0 1.03-.461 1.03-1.03h-.5zm0-.86v.86h.5v-.86h-.5zM39.689 21c0-4.056-1.305-7.957-3.706-11.171l-.4.299A18.129 18.129 0 0139.188 21h.5zM21 39.688c10.305 0 18.688-8.383 18.688-18.688h-.5c0 10.029-8.159 18.188-18.188 18.188v.5zM2.311 21c0 10.305 8.384 18.688 18.689 18.688v-.5C10.971 39.188 2.811 31.03 2.811 21h-.5zM21 2.311C10.695 2.311 2.311 10.695 2.311 21h.5c0-10.029 8.16-18.189 18.189-18.189v-.5zm2.28.138A18.967 18.967 0 0021 2.311v.5c.742 0 1.489.046 2.22.134l.06-.496zm.59-.463a.531.531 0 01-.59.463l-.06.496a1.031 1.031 0 001.147-.898l-.496-.06zm-.462-.59a.53.53 0 01.463.59l.496.06A1.03 1.03 0 0023.468.9l-.06.496zM21 1.25c.805 0 1.615.049 2.408.145l.06-.496A20.534 20.534 0 0021 .75v.5zM7.035 7.035A19.619 19.619 0 0121 1.25v-.5A20.119 20.119 0 006.681 6.681l.354.354zM1.25 21A19.619 19.619 0 017.035 7.035L6.68 6.68A20.119 20.119 0 00.75 21h.5zm5.785 13.965A19.619 19.619 0 011.25 21h-.5a20.119 20.119 0 005.931 14.319l.354-.354zM21 40.75a19.619 19.619 0 01-13.965-5.785l-.354.354A20.119 20.119 0 0021 41.25v-.5zm13.965-5.785A19.619 19.619 0 0121 40.75v.5a20.119 20.119 0 0014.319-5.931l-.354-.354zM40.75 21a19.619 19.619 0 01-5.785 13.965l.354.354A20.119 20.119 0 0041.25 21h-.5zM36.536 8.806A19.685 19.685 0 0140.75 21h.5c0-4.564-1.525-8.946-4.321-12.503l-.393.309zm-27.933 4.36a.531.531 0 01.732-.165l.268-.422a1.031 1.031 0 00-1.423.32l.423.267zm-2.185 9.373a14.719 14.719 0 012.185-9.373l-.423-.268a15.219 15.219 0 00-2.259 9.693l.497-.052zm4.214 8.829a14.696 14.696 0 01-4.214-8.83l-.497.053a15.196 15.196 0 004.358 9.13l.353-.353zM21 35.655c-3.755 0-7.51-1.43-10.368-4.287l-.353.353A15.116 15.116 0 0021 36.155v-.5zm10.368-4.287A14.616 14.616 0 0121 35.655v.5c3.882 0 7.765-1.478 10.721-4.434l-.353-.353zm0-20.736c5.716 5.717 5.716 15.02 0 20.736l.353.353c5.912-5.912 5.912-15.53 0-21.442l-.353.353zM22.553 6.42a14.698 14.698 0 018.815 4.212l.353-.353a15.197 15.197 0 00-9.115-4.356l-.053.497zm-9.362 2.167a14.72 14.72 0 019.362-2.167l.053-.497a15.22 15.22 0 00-9.682 2.24l.267.424zm-.166.732a.53.53 0 01.166-.732l-.267-.423a1.03 1.03 0 00-.322 1.421l.423-.266zm.732.166a.53.53 0 01-.732-.166l-.423.266c.304.482.94.626 1.422.323l-.267-.423zm16.86 1.898C26.094 6.86 19.16 6.079 13.757 9.485l.267.423c5.205-3.28 11.882-2.53 16.24 1.829l.353-.354zm0 19.234c5.303-5.303 5.303-13.93 0-19.234l-.353.354c5.107 5.107 5.107 13.419 0 18.527l.353.353zm-19.234 0c5.303 5.303 13.931 5.303 19.234 0l-.353-.353c-5.108 5.107-13.42 5.107-18.527 0l-.354.353zM9.5 13.734c-3.37 5.323-2.579 12.422 1.883 16.883l.354-.353C7.44 25.967 6.677 19.126 9.922 14l-.422-.267zM9.335 13a.53.53 0 01.165.733l.422.267a1.031 1.031 0 00-.32-1.422L9.336 13zm21.815 9.042h.962v-.5h-.962v.5zm-1.031-1.03c0 .569.461 1.03 1.03 1.03v-.5a.53.53 0 01-.53-.53h-.5zm1.03-1.031a1.03 1.03 0 00-1.03 1.03h.5a.53.53 0 01.53-.53v-.5zm.963 0h-.962v.5h.962v-.5zm1.031 1.03a1.03 1.03 0 00-1.03-1.03v.5a.53.53 0 01.53.53h.5zm-1.03 1.031a1.03 1.03 0 001.03-1.03h-.5a.53.53 0 01-.53.53v.5zm-22.225-.525a.53.53 0 01-.531-.53h-.5c0 .569.461 1.03 1.03 1.03v-.5zm.962 0h-.962v.5h.962v-.5zm.531-.53a.53.53 0 01-.53.53v.5c.568 0 1.03-.462 1.03-1.03h-.5zm-.53-.531a.53.53 0 01.53.53h.5a1.03 1.03 0 00-1.03-1.03v.5zm-.963 0h.962v-.5h-.962v.5zm-.531.53a.53.53 0 01.53-.53v-.5a1.03 1.03 0 00-1.03 1.03h.5zM22.043 10.85v-.962h-.5v.962h.5zm-1.03 1.031a1.03 1.03 0 001.03-1.03h-.5a.53.53 0 01-.53.53v.5zm-1.031-1.03c0 .568.462 1.03 1.03 1.03v-.5a.53.53 0 01-.53-.53h-.5zm0-.963v.962h.5v-.962h-.5zm1.03-1.031a1.03 1.03 0 00-1.03 1.03h.5a.53.53 0 01.53-.53v-.5zm1.031 1.03a1.03 1.03 0 00-1.03-1.03v.5a.53.53 0 01.53.53h.5zm-1.586 22.225v-.962h-.5v.962h.5zm.53.531a.53.53 0 01-.53-.53h-.5c0 .569.461 1.03 1.03 1.03v-.5zm.531-.53a.53.53 0 01-.53.53v.5a1.03 1.03 0 001.03-1.03h-.5zm0-.963v.962h.5v-.962h-.5zm-.53-.531a.53.53 0 01.53.53h.5a1.03 1.03 0 00-1.03-1.03v.5zm-.531.53a.53.53 0 01.53-.53v-.5a1.03 1.03 0 00-1.03 1.03h.5zm-3.194-15.343a1.031 1.031 0 00-1.457 0l.353.353a.53.53 0 01.75 0l.354-.353zm2.646 2.646l-2.646-2.646-.353.353 2.646 2.646.353-.353zM21 18.06c-.5 0-.972.127-1.386.348l.237.44A2.425 2.425 0 0121 18.56v-.5zm1.386.348A2.924 2.924 0 0021 18.06v.5c.416 0 .807.105 1.15.289l.236-.44zm5.044-5.295l-5.34 5.339.354.353 5.34-5.339-.354-.353zm1.457 0a1.03 1.03 0 00-1.457 0l.353.353a.531.531 0 01.75 0l.354-.353zm0 1.457a1.03 1.03 0 000-1.457l-.353.353a.53.53 0 010 .75l.353.354zm-5.339 5.34l5.34-5.34-.354-.353-5.34 5.339.354.353zM23.94 21c0-.5-.127-.972-.348-1.386l-.44.237c.183.343.288.733.288 1.149h.5zM21 23.94A2.943 2.943 0 0023.94 21h-.5A2.443 2.443 0 0121 23.44v.5zM18.06 21A2.943 2.943 0 0021 23.94v-.5A2.443 2.443 0 0118.56 21h-.5zm.348-1.386A2.924 2.924 0 0018.06 21h.5c0-.416.105-.807.289-1.15l-.44-.236zm-2.602-2.35l2.646 2.645.353-.353-2.646-2.646-.353.353zm0-1.458a1.03 1.03 0 000 1.457l.353-.353a.53.53 0 010-.75l-.353-.354zM21.878 21a.88.88 0 01-.878.878v.5A1.38 1.38 0 0022.378 21h-.5zM21 20.122a.88.88 0 01.878.878h.5A1.38 1.38 0 0021 19.622v.5zm-.878.878a.88.88 0 01.878-.878v-.5A1.38 1.38 0 0019.622 21h.5zm.878.878a.88.88 0 01-.878-.878h-.5c0 .76.618 1.378 1.378 1.378v-.5zm-9.461-10.87a.534.534 0 01-.156.374l.353.355c.193-.193.303-.458.303-.73h-.5zm-.156-.376c.099.1.156.237.156.375h.5c0-.272-.11-.536-.303-.728l-.353.353zm-.376-.155c.14 0 .277.057.376.155l.353-.354a1.036 1.036 0 00-.729-.301v.5zm-.375.155a.537.537 0 01.375-.155v-.5c-.271 0-.536.11-.728.302l.353.353zm-.155.375c0-.139.057-.277.155-.375l-.354-.353a1.037 1.037 0 00-.301.728h.5zm.155.376a.535.535 0 01-.155-.376h-.5c0 .273.11.537.302.73l.353-.354zm.375.155a.537.537 0 01-.375-.155l-.353.353c.192.192.457.302.728.302v-.5zm.376-.155a.536.536 0 01-.376.155v.5c.273 0 .537-.11.73-.302l-.354-.354zm15.025-7.8c.272 0 .538-.11.73-.303l-.354-.352a.534.534 0 01-.376.155v.5zm-.729-.303c.193.194.458.303.73.303v-.5a.534.534 0 01-.375-.155l-.355.352zm-.302-.728c0 .273.11.537.303.729l.353-.354a.535.535 0 01-.156-.375h-.5zm.303-.729a1.037 1.037 0 00-.303.729h.5c0-.139.058-.277.156-.375l-.354-.354zm.728-.302c-.271 0-.537.11-.729.302l.354.354a.536.536 0 01.375-.156v-.5zm.73.302a1.037 1.037 0 00-.73-.302v.5c.14 0 .278.058.376.156l.354-.354zm.302.729c0-.272-.11-.537-.302-.729l-.354.354a.537.537 0 01.156.375h.5zm-.302.729c.192-.192.302-.456.302-.729h-.5c0 .14-.057.277-.156.375l.354.354z" fill="#84A5F1"/></svg>