<svg width="34" height="47" viewBox="0 0 34 47" fill="none" xmlns="http://www.w3.org/2000/svg"><path fill-rule="evenodd" clip-rule="evenodd" d="M21.2 1.193l9.468 9.35c.12.12.195.287.195.467v10.952c0 .364-.298.66-.667.66a.664.664 0 01-.668-.66V11.669h-7.435c-1.12 0-2.032-.9-2.032-2.007V2.318H3.031a.694.694 0 00-.696.689v36.506c0 .38.313.688.697.688h10.15c.368 0 .667.295.667.66a.664.664 0 01-.667.659H3.032c-1.12 0-2.032-.9-2.032-2.007V3.007C1 1.9 1.911 1 3.032 1h17.696a.68.68 0 01.472.193zm.196 8.469c0 .38.313.688.697.688h6.492l-7.19-7.1v6.412zm3.532 5.779H6.936a.664.664 0 01-.668-.66c0-.364.3-.659.668-.659h17.992c.369 0 .668.295.668.66 0 .364-.3.659-.668.659zM6.936 18.435h17.992a.663.663 0 00.668-.66.664.664 0 00-.668-.658H6.936a.664.664 0 00-.668.659c0 .364.3.659.668.659zm17.992 2.994H6.936a.663.663 0 01-.668-.659c0-.364.3-.66.668-.66h17.992c.369 0 .668.296.668.66 0 .364-.3.66-.668.66zM6.936 24.424h17.992a.663.663 0 00.668-.66.664.664 0 00-.668-.659H6.936a.663.663 0 00-.668.66c0 .364.3.659.668.659zm17.992 2.994H6.936a.664.664 0 01-.668-.66c0-.363.3-.658.668-.658h17.992c.369 0 .668.294.668.659 0 .364-.3.659-.668.659zm5.936 2.204v-4.584a.664.664 0 00-.668-.66.664.664 0 00-.668.66v3.315a5.328 5.328 0 00-2.956-.89c-1.51 0-2.875.627-3.843 1.63H6.936a.663.663 0 00-.668.66c0 .364.3.66.668.66h14.862a5.162 5.162 0 00-.5 1.675H6.937a.663.663 0 00-.668.66c0 .363.299.659.668.659H21.26v1.457a1.643 1.643 0 00-1.116 1.548v3.79h-3.847a.663.663 0 00-.668.659c0 .363.299.659.668.659h3.847v2.84c0 .905.744 1.64 1.66 1.64h9.537c.915 0 1.66-.735 1.66-1.64v-7.948c0-.716-.468-1.325-1.117-1.548 0-.278.003-.543.007-.8.022-1.728.038-3-1.027-4.442zm-4.292-.84c1.142 0 2.242.46 3.112 1.486.903 1.12.891 2.114.871 3.712-.003.249-.006.512-.006.792h-.732V32.71c0-1.767-1.456-3.204-3.245-3.204-1.789 0-3.244 1.437-3.244 3.204v2.063h-.733V32.71c0-2.165 1.784-3.928 3.977-3.928zm-1.91 5.99V32.71c0-1.04.857-1.886 1.91-1.886s1.91.846 1.91 1.886v2.063h-3.82zm7.004 9.589a.327.327 0 01-.326.32h-9.536a.327.327 0 01-.325-.32v-7.95c0-.173.148-.32.325-.32h9.537c.176 0 .324.147.324.32v7.95zm-7.137-5.333c0-1.112.917-2.017 2.043-2.017 1.126 0 2.042.905 2.042 2.017 0 1.113-.916 2.017-2.042 2.017s-2.043-.904-2.043-2.017zm1.335 0c0 .385.318.699.708.699.39 0 .707-.314.707-.699a.704.704 0 00-.707-.699.704.704 0 00-.708.7z" fill="#84A5F1"/><path d="M30.668 10.543l-.14.143.14-.143zM21.2 1.193l-.14.142.14-.142zm8.328 10.476h.2v-.2h-.2v.2zm-9.467-9.35h.2v-.2h-.2v.2zm8.524 8.031v.2h.487l-.347-.342-.14.142zm-7.19-7.1l.141-.141-.34-.337v.479h.2zm9.469 26.372h-.2v.066l.039.053.16-.119zm-1.336-1.27l-.11.168.31.206v-.373h-.2zm-6.8.742v.2h.086l.059-.061-.144-.14zm-.93 1.318l.179.089.143-.289h-.322v.2zm-.5 1.676v.2h.178l.021-.176-.198-.024zm-.038 1.319h.2v-.2h-.2v.2zm0 1.457l.065.19.135-.047v-.143h-.2zm-1.116 5.337v.2h.2v-.2h-.2zm0 1.319h.2v-.2h-.2v.2zm11.74-6.656h-.2v.143l.135.046.065-.189zm.007-.8l.2.003-.2-.002zm-2.207-3.796l.156-.126-.004-.004-.152.13zm.871 3.712l.2.003-.2-.003zm-.006.792v.2h.2v-.2h-.2zm-.732 0h-.2v.2h.2v-.2zm-6.49 0v.2h.2v-.2h-.2zm-.732 0h-.2v.2h.2v-.2zm2.067 0h-.2v.2h.2v-.2zm3.82 0v.2h.2v-.2h-.2zm3.184 9.589h.2v-.2h-.2v.2zm0 0h-.2v.2h.2v-.2zm-.858-33.96l-9.467-9.35-.281.284 9.467 9.35.281-.284zm.256.609a.857.857 0 00-.256-.609l-.28.285c.084.083.136.2.136.324h.4zm0 10.952V11.01h-.4v10.952h.4zm-.868.86a.864.864 0 00.867-.86h-.4c0 .251-.206.46-.467.46v.4zm-.868-.86c0 .477.391.86.868.86v-.4a.464.464 0 01-.468-.46h-.4zm0-10.293v10.293h.4V11.669h-.4zm-7.235.2h7.435v-.4h-7.435v.4zM19.86 9.662c0 1.22 1.003 2.207 2.232 2.207v-.4c-1.012 0-1.832-.813-1.832-1.807h-.4zm0-7.344v7.344h.4V2.318h-.4zm-16.83.2h17.03v-.4H3.031v.4zm-.496.489c0-.267.22-.489.497-.489v-.4a.894.894 0 00-.897.889h.4zm0 36.506V3.007h-.4v36.506h.4zm.497.488a.494.494 0 01-.497-.488h-.4c0 .492.405.888.897.888v-.4zm10.15 0H3.032v.4h10.15v-.4zm.867.86a.863.863 0 00-.867-.86v.4c.26 0 .467.208.467.46h.4zm-.867.859a.864.864 0 00.867-.86h-.4c0 .252-.207.46-.467.46v.4zm-10.15 0h10.15v-.4H3.032v.4zM.8 39.513c0 1.22 1.003 2.207 2.232 2.207v-.4c-1.012 0-1.832-.813-1.832-1.807H.8zm0-36.506v36.506h.4V3.007H.8zM3.032.8C1.803.8.8 1.787.8 3.007h.4c0-.994.82-1.807 1.832-1.807V.8zm17.696 0H3.032v.4h17.696V.8zm.613.25a.88.88 0 00-.613-.25v.4a.48.48 0 01.332.135l.281-.284zm.752 9.1a.494.494 0 01-.497-.488h-.4c0 .493.405.888.897.888v-.4zm6.492 0h-6.492v.4h6.492v-.4zm-7.33-6.757l7.189 7.1.281-.285-7.189-7.1-.28.285zm.34 6.269V3.251h-.4v6.411h.4zm-14.66 5.979h17.993v-.4H6.936v.4zm-.867-.86c0 .477.391.86.868.86v-.4a.464.464 0 01-.468-.46h-.4zm.868-.859a.863.863 0 00-.868.86h.4c0-.252.207-.46.468-.46v-.4zm17.992 0H6.936v.4h17.992v-.4zm.867.86a.863.863 0 00-.867-.86v.4c.26 0 .467.208.467.46h.4zm-.867.859a.864.864 0 00.867-.86h-.4c0 .252-.207.46-.467.46v.4zm0 2.594H6.936v.4h17.992v-.4zm.467-.46c0 .252-.206.46-.467.46v.4a.863.863 0 00.867-.86h-.4zm-.467-.458c.26 0 .467.208.467.459h.4c0-.477-.39-.86-.867-.86v.4zm-17.992 0h17.992v-.4H6.936v.4zm-.468.459c0-.251.207-.46.468-.46v-.4a.864.864 0 00-.868.86h.4zm.468.459a.463.463 0 01-.468-.46h-.4c0 .478.391.86.868.86v-.4zm0 3.394h17.992v-.4H6.936v.4zm-.868-.859c0 .477.391.86.868.86v-.4a.464.464 0 01-.468-.46h-.4zm.868-.86a.864.864 0 00-.868.86h.4c0-.251.207-.46.468-.46v-.4zm17.992 0H6.936v.4h17.992v-.4zm.867.86c0-.477-.39-.86-.867-.86v.4c.26 0 .467.209.467.46h.4zm-.867.86a.864.864 0 00.867-.86h-.4c0 .251-.207.46-.467.46v.4zm0 2.594H6.936v.4h17.992v-.4zm.467-.46c0 .252-.206.46-.467.46v.4a.863.863 0 00.867-.86h-.4zm-.467-.459c.26 0 .467.208.467.46h.4c0-.477-.39-.86-.867-.86v.4zm-17.992 0h17.992v-.4H6.936v.4zm-.468.46c0-.252.207-.46.468-.46v-.4a.863.863 0 00-.868.86h.4zm.468.459a.463.463 0 01-.468-.46h-.4c0 .477.391.86.868.86v-.4zm0 3.394h17.992v-.4H6.936v.4zm-.868-.86c0 .477.391.86.868.86v-.4a.464.464 0 01-.468-.46h-.4zm.868-.858a.863.863 0 00-.868.859h.4c0-.252.207-.46.468-.46v-.4zm17.992 0H6.936v.4h17.992v-.4zm.867.859a.863.863 0 00-.867-.86v.4c.26 0 .467.208.467.46h.4zm-.867.859a.864.864 0 00.867-.86h-.4c0 .252-.207.46-.467.46v.4zm5.736-2.58v4.584h.4v-4.584h-.4zm-.468-.46c.26 0 .468.209.468.46h.4a.864.864 0 00-.868-.86v.4zm-.468.46c0-.251.207-.46.468-.46v-.4a.864.864 0 00-.868.86h.4zm0 3.315v-3.315h-.4v3.315h.4zm-3.156-.69c1.053 0 2.032.316 2.846.857l.221-.334a5.528 5.528 0 00-3.067-.923v.4zm-3.7 1.57a5.127 5.127 0 013.7-1.57v-.4c-1.567 0-2.983.65-3.987 1.692l.288.278zm-15.936.06h15.793v-.4H6.936v.4zm-.468.46c0-.251.207-.46.468-.46v-.4a.863.863 0 00-.868.86h.4zm.468.46a.464.464 0 01-.468-.46h-.4c0 .477.391.86.868.86v-.4zm14.862 0H6.936v.4h14.862v-.4zm-.3 1.899a4.96 4.96 0 01.479-1.611l-.358-.178a5.358 5.358 0 00-.519 1.74l.397.049zm-14.562.176h14.363v-.4H6.936v.4zm-.468.46c0-.252.207-.46.468-.46v-.4a.863.863 0 00-.868.86h.4zm.468.459a.463.463 0 01-.468-.46h-.4c0 .477.39.86.868.86v-.4zm14.324 0H6.936v.4H21.26v-.4zm.2 1.657v-1.457h-.4v1.457h.4zm-1.116 1.548c0-.626.409-1.162.981-1.359l-.13-.378a1.844 1.844 0 00-1.251 1.737h.4zm0 3.79v-3.79h-.4v3.79h.4zm-4.047.2h3.847v-.4h-3.847v.4zm-.468.459c0-.252.207-.46.468-.46v-.4a.863.863 0 00-.868.86h.4zm.468.459a.463.463 0 01-.468-.46h-.4c0 .477.39.86.868.86v-.4zm3.847 0h-3.847v.4h3.847v-.4zm.2 3.04v-2.84h-.4v2.84h.4zm1.46 1.44c-.807 0-1.46-.648-1.46-1.44h-.4c0 1.017.836 1.84 1.86 1.84v-.4zm9.537 0h-9.538v.4h9.537v-.4zm1.46-1.44c0 .792-.653 1.44-1.46 1.44v.4c1.023 0 1.86-.823 1.86-1.84h-.4zm0-7.948v7.949h.4v-7.95h-.4zm-.982-1.359c.572.197.981.733.981 1.359h.4c0-.806-.526-1.487-1.251-1.737l-.13.378zm-.128-.991c-.004.256-.007.523-.007.802h.4c0-.276.003-.54.007-.797l-.4-.005zm-.988-4.32c1.021 1.38 1.01 2.59.988 4.32l.4.005c.022-1.725.043-3.063-1.067-4.563l-.321.237zm-.867.396c-.908-1.071-2.063-1.557-3.264-1.557v.4c1.084 0 2.128.435 2.96 1.416l.304-.259zm.92 3.845c.019-1.593.037-2.658-.916-3.84l-.312.25c.853 1.058.847 1.98.827 3.585l.4.005zm-.007.79c0-.28.003-.542.006-.79l-.4-.005c-.003.248-.006.512-.006.794h.4zm-.932.2h.732v-.4h-.732v.4zm-.2-2.264v2.063h.4V32.71h-.4zm-3.045-3.004c1.681 0 3.045 1.35 3.045 3.004h.4c0-1.88-1.548-3.404-3.445-3.404v.4zm-3.044 3.004c0-1.654 1.363-3.004 3.044-3.004v-.4c-1.897 0-3.444 1.524-3.444 3.404h.4zm0 2.063V32.71h-.4v2.063h.4zm-.933.2h.733v-.4h-.733v.4zm-.2-2.263v2.063h.4V32.71h-.4zm4.177-4.128c-2.301 0-4.177 1.85-4.177 4.128h.4c0-2.053 1.692-3.728 3.777-3.728v-.4zm-2.11 4.128v2.063h.4V32.71h-.4zm2.11-2.086c-1.161 0-2.11.934-2.11 2.086h.4a1.7 1.7 0 011.71-1.686v-.4zm2.11 2.086c0-1.152-.949-2.086-2.11-2.086v.4a1.7 1.7 0 011.71 1.686h.4zm0 2.063V32.71h-.4v2.063h.4zm-4.02.2h3.82v-.4h-3.82v.4zm6.678 9.91a.527.527 0 00.526-.521h-.4a.127.127 0 01-.126.12v.4zm-9.536 0h9.537v-.4h-9.537v.4zm-.525-.521c0 .287.24.52.525.52v-.4a.127.127 0 01-.125-.12h-.4zm0-7.95v7.95h.4v-7.95h-.4zm.525-.52a.527.527 0 00-.525.52h.4c0-.06.056-.12.125-.12v-.4zm9.537 0h-9.537v.4h9.537v-.4zm.524.52a.527.527 0 00-.524-.52v.4c.067 0 .124.06.124.12h.4zm0 7.95v-7.95h-.4v7.95h.4zm-.2-.2v.4-.4zm-5.093-7.35c-1.234 0-2.242.992-2.242 2.217h.4c0-1 .824-1.817 1.842-1.817v-.4zm2.242 2.217c0-1.225-1.008-2.217-2.242-2.217v.4c1.018 0 1.842.818 1.842 1.817h.4zm-2.242 2.218c1.234 0 2.242-.993 2.242-2.218h-.4c0 1-.824 1.818-1.842 1.818v.4zm-2.242-2.218c0 1.225 1.008 2.218 2.242 2.218v-.4c-1.018 0-1.842-.818-1.842-1.818h-.4zm2.242.499a.504.504 0 01-.508-.499h-.4c0 .498.41.899.908.899v-.4zm.508-.499a.504.504 0 01-.508.499v.4c.498 0 .908-.4.908-.899h-.4zm-.508-.499c.282 0 .508.226.508.5h.4a.904.904 0 00-.908-.9v.4zm-.508.5c0-.274.226-.5.508-.5v-.4c-.498 0-.908.4-.908.9h.4z" fill="#84A5F1"/></svg>