<svg width="42" height="42" viewBox="0 0 42 42" fill="none" xmlns="http://www.w3.org/2000/svg"><path fill-rule="evenodd" clip-rule="evenodd" d="M41 15.839c0-5.12-3.997-9.31-9.032-9.645V1H1v34.839h27.097v1.935A3.23 3.23 0 0031.323 41a3.23 3.23 0 003.225-3.226v-9.677h-1.29V25.32C37.67 24.422 41 20.512 41 15.84zm-1.29 0c0 4.624-3.763 8.387-8.387 8.387-4.625 0-8.387-3.763-8.387-8.387 0-4.625 3.762-8.387 8.387-8.387 4.624 0 8.387 3.762 8.387 8.387zM28.097 28.097v6.451H2.29V2.29h28.387v3.904c-5.035.334-9.032 4.526-9.032 9.645 0 4.673 3.33 8.583 7.742 9.482v2.776h-1.29zm5.161 9.677a1.938 1.938 0 01-1.935 1.936 1.938 1.938 0 01-1.936-1.936v-8.387h3.871v8.387zm-1.29-9.677h-1.29v-2.614l.123.009c.173.012.345.024.522.024.176 0 .349-.012.521-.024l.124-.009v2.614zm-7.742-12.258c0 3.913 3.184 7.097 7.097 7.097 3.912 0 7.096-3.184 7.096-7.097 0-3.913-3.184-7.097-7.096-7.097-3.913 0-7.097 3.184-7.097 7.097zm12.903 0a5.813 5.813 0 01-5.806 5.806 5.813 5.813 0 01-5.807-5.806 5.813 5.813 0 015.807-5.807 5.813 5.813 0 015.806 5.807zm-5.806 22.58a.645.645 0 100-1.29.645.645 0 000 1.29zM29.1 17.237l-.716 1.074 2.544 1.695 3.553-7.105-1.155-.576-2.899 5.798-1.327-.886zm-17.728 4.805l1.191.497-.703 1.687h2.043v9.032H3.581v-9.032h6.882l.91-2.184zm1.24 9.926v-6.452h-1.29L8.969 31.17 6.35 28.553l.912-.912 1.254 1.254 1.408-3.379H4.871v6.452h7.742zm-.049-21.688l-1.19-.496-.91 2.184H3.58V21h10.322v-9.032H11.86l.703-1.688zm.05 2.978v6.452H4.87v-6.452h5.054l-1.408 3.379-1.254-1.254-.912.912 2.617 2.617 2.355-5.654h1.29zm7.742-7.097h-1.29v1.29h1.29v-1.29zm-16.774 0h14.193v1.29H3.581v-1.29zm19.355 19.355v-1.29h-7.742v1.29h7.742zm0 1.29v1.29h-7.742v-1.29h7.742zm0 3.871v-1.29h-7.742v1.29h7.742zm0 1.29v1.291h-7.742v-1.29h7.742zm-2.581-18.709v-1.29h-5.162v1.29h5.162zm0 1.29v1.29h-5.162v-1.29h5.162zm0 3.871v-1.29h-5.162v1.29h5.162zm0 1.29V21h-5.162v-1.29h5.162zm0-16.128H3.58v1.29h16.774v-1.29z" fill="#84A5F1"/><path d="M31.968 6.194h-.25v.234l.233.016.017-.25zm0-5.194h.25V.75h-.25V1zM1 1V.75H.75V1H1zm0 34.839H.75v.25H1v-.25zm27.097 0h.25v-.25h-.25v.25zm6.451-7.742h.25v-.25h-.25v.25zm-1.29 0h-.25v.25h.25v-.25zm0-2.776l-.05-.245-.2.041v.204h.25zm-5.161 9.227v.25h.25v-.25h-.25zm0-6.451v-.25h-.25v.25h.25zM2.29 34.548h-.25v.25h.25v-.25zm0-32.258v-.25h-.25v.25h.25zm28.387 0h.25v-.25h-.25v.25zm0 3.904l.017.25.233-.016v-.234h-.25zm-1.29 19.127h.25v-.204l-.2-.04-.05.244zm0 2.776v.25h.25v-.25h-.25zm0 1.29v-.25h-.25v.25h.25zm3.871 0h.25v-.25h-.25v.25zm-2.58-1.29h-.25v.25h.25v-.25zm1.29 0v.25h.25v-.25h-.25zm-1.29-2.614l.016-.25-.267-.017v.267h.25zm.123.009l.017-.25-.017.25zm1.044 0l-.018-.25.017.25zm.123-.009h.25v-.267l-.267.018.017.25zm-3.584-7.172l-.208-.139-.139.208.208.139.139-.208zm.716-1.074l.139-.208-.208-.138-.139.208.208.138zm1.828 2.77l-.139.207.236.158.127-.254-.224-.112zM34.48 12.9l.223.112.112-.224-.224-.111-.111.223zm-1.155-.576l.111-.224-.223-.112-.112.224.224.112zm-2.899 5.798l-.139.208.236.157.127-.254-.224-.111zm-17.864 4.416l.23.096.097-.231-.23-.096-.097.23zm-1.19-.497l.096-.23-.231-.097-.096.23.23.097zm.487 2.184l-.23-.096-.145.346h.375v-.25zm2.043 0h.25v-.25h-.25v.25zm0 9.032v.25h.25v-.25h-.25zm-10.322 0h-.25v.25h.25v-.25zm0-9.032v-.25h-.25v.25h.25zm6.882 0v.25h.166l.064-.154-.23-.096zm2.15 1.29h.25v-.25h-.25v.25zm0 6.452v.25h.25v-.25h-.25zm-1.29-6.452v-.25h-.167l-.064.154.23.096zM8.968 31.17l-.177.177.264.264.144-.345-.231-.096zM6.35 28.553l-.177-.177-.177.177.177.177.177-.177zm.912-.912l.177-.177-.177-.177-.177.177.177.177zm1.254 1.254l-.176.177.264.264.143-.345-.23-.096zm1.408-3.379l.23.096.145-.346h-.375v.25zm-5.054 0v-.25h-.25v.25h.25zm0 6.452h-.25v.25h.25v-.25zm6.501-22.184l.097-.23-.231-.097-.096.23.23.097zm1.191.496l.23.097.097-.231-.23-.096-.097.23zm-2.1 1.688v.25h.166l.064-.154-.23-.096zm-6.882 0v-.25h-.25v.25h.25zm0 9.032h-.25v.25h.25V21zm10.322 0v.25h.25V21h-.25zm0-9.032h.25v-.25h-.25v.25zm-2.043 0l-.23-.096-.145.346h.375v-.25zm.753 7.742v.25h.25v-.25h-.25zm0-6.452h.25v-.25h-.25v.25zM4.87 19.71h-.25v.25h.25v-.25zm0-6.452v-.25h-.25v.25h.25zm5.054 0l.23.096.145-.346h-.375v.25zm-1.408 3.379l-.176.176.264.264.143-.344-.23-.096zm-1.254-1.254l.177-.177-.177-.177-.177.177.177.177zm-.912.912l-.177-.177-.177.177.177.177.177-.177zm2.617 2.617l-.177.177.264.264.144-.345-.231-.096zm2.355-5.654v-.25h-.167l-.064.154.23.096zm7.741-7.097v-.25h-.25v.25h.25zm1.29 0h.25v-.25h-.25v.25zm-1.29 1.29h-.25v.25h.25v-.25zm1.29 0v.25h.25v-.25h-.25zm-2.58-1.29h.25v-.25h-.25v.25zm-14.193 0v-.25h-.25v.25h.25zm14.193 1.29v.25h.25v-.25h-.25zm-14.193 0h-.25v.25h.25v-.25zm19.354 16.775h.25v-.25h-.25v.25zm0 1.29v.25h.25v-.25h-.25zm-7.741-1.29v-.25h-.25v.25h.25zm0 1.29h-.25v.25h.25v-.25zm7.742 2.58v.25h.25v-.25h-.25zm0-1.29h.25v-.25h-.25v.25zm-7.742 1.29h-.25v.25h.25v-.25zm0-1.29v-.25h-.25v.25h.25zm7.742 2.581h.25v-.25h-.25v.25zm0 1.29v.25h.25v-.25h-.25zm-7.742-1.29v-.25h-.25v.25h.25zm0 1.29h-.25v.25h.25v-.25zm7.742 2.581v.25h.25v-.25h-.25zm0-1.29h.25v-.25h-.25v.25zm-7.742 1.29h-.25v.25h.25v-.25zm0-1.29v-.25h-.25v.25h.25zm5.16-20h.25v-.25h-.25v.25zm0 1.29v.25h.25v-.25h-.25zm-5.16-1.29v-.25h-.25v.25h.25zm0 1.29h-.25v.25h.25v-.25zm5.16 2.58v.25h.25v-.25h-.25zm0-1.29h.25v-.25h-.25v.25zm-5.16 1.29h-.25v.25h.25v-.25zm0-1.29v-.25h-.25v.25h.25zm5.16 2.581h.25v-.25h-.25v.25zm0 1.29v.25h.25v-.25h-.25zm-5.16-1.29v-.25h-.25v.25h.25zm0 1.29h-.25v.25h.25v-.25zM20.354 21v.25h.25V21h-.25zm0-1.29h.25v-.25h-.25v.25zM15.195 21h-.25v.25h.25V21zm0-1.29v-.25h-.25v.25h.25zM3.58 3.58v-.25h-.25v.25h.25zm16.774 0h.25v-.25h-.25v.25zM3.58 4.872h-.25v.25h.25v-.25zm16.774 0v.25h.25v-.25h-.25zM31.95 6.443c4.906.326 8.799 4.41 8.799 9.396h.5c0-5.252-4.1-9.552-9.266-9.894l-.033.498zM31.718 1v5.194h.5V1h-.5zM1 1.25h30.968v-.5H1v.5zm.25 34.589V1h-.5v34.839h.5zm26.847-.25H1v.5h27.097v-.5zm.25 2.185V35.84h-.5v1.935h.5zm2.976 2.976a2.98 2.98 0 01-2.976-2.976h-.5a3.48 3.48 0 003.476 3.476v-.5zm2.975-2.976a2.98 2.98 0 01-2.975 2.976v.5a3.48 3.48 0 003.475-3.476h-.5zm0-9.677v9.677h.5v-9.677h-.5zm-1.04.25h1.29v-.5h-1.29v.5zm-.25-3.026v2.776h.5V25.32h-.5zm7.742-9.482c0 4.552-3.244 8.361-7.542 9.237l.1.49c4.525-.922 7.942-4.932 7.942-9.727h-.5zm-9.427 8.637c4.762 0 8.637-3.875 8.637-8.637h-.5c0 4.486-3.651 8.137-8.137 8.137v.5zm-8.637-8.637c0 4.762 3.874 8.637 8.637 8.637v-.5c-4.487 0-8.137-3.65-8.137-8.137h-.5zm8.637-8.637c-4.763 0-8.637 3.874-8.637 8.637h.5c0-4.487 3.65-8.137 8.137-8.137v-.5zm8.637 8.637c0-4.763-3.875-8.637-8.637-8.637v.5c4.486 0 8.137 3.65 8.137 8.137h.5zm-11.613 18.71v-6.452h-.5v6.451h.5zm-26.057.25h25.807v-.5H2.29v.5zM2.04 2.29v32.258h.5V2.29h-.5zm28.637-.25H2.29v.5h28.387v-.5zm.25 4.154V2.29h-.5v3.904h.5zm-9.032 9.645c0-4.986 3.893-9.07 8.799-9.396l-.033-.498c-5.166.342-9.266 4.642-9.266 9.894h.5zm7.542 9.237c-4.298-.876-7.542-4.685-7.542-9.237h-.5c0 4.795 3.417 8.805 7.942 9.727l.1-.49zm.2 3.02v-2.775h-.5v2.776h.5zm-1.54.25h1.29v-.5h-1.29v.5zm3.226 11.614c1.205 0 2.185-.98 2.185-2.186h-.5c0 .93-.757 1.686-1.685 1.686v.5zm-2.186-2.186c0 1.205.98 2.186 2.186 2.186v-.5a1.688 1.688 0 01-1.686-1.686h-.5zm0-8.387v8.387h.5v-8.387h-.5zm4.121-.25h-3.87v.5h3.87v-.5zm.25 8.637v-8.387h-.5v8.387h.5zm-2.83-9.427h1.29v-.5h-1.29v.5zm-.25-2.864v2.614h.5v-2.614h-.5zm.39-.24a34.946 34.946 0 00-.124-.01l-.033.5.122.008.035-.498zm.505.023c-.166 0-.33-.011-.505-.023l-.035.498c.172.012.353.025.54.025v-.5zm.504-.023a7.207 7.207 0 01-.504.023v.5c.186 0 .367-.013.539-.025l-.035-.498zm.124-.01l-.124.01.035.498.122-.008-.033-.5zm.267 2.864v-2.614h-.5v2.614h.5zm-.895-5.412a6.855 6.855 0 01-6.847-6.846h-.5c0 4.05 3.296 7.347 7.347 7.347v-.5zm6.846-6.846a6.855 6.855 0 01-6.846 6.847v.5c4.05 0 7.346-3.296 7.346-7.347h-.5zm-6.846-6.847a6.855 6.855 0 016.846 6.847h.5c0-4.051-3.295-7.347-7.346-7.347v.5zm-6.847 6.847a6.855 6.855 0 016.847-6.847v-.5c-4.051 0-7.347 3.296-7.347 7.347h.5zm6.847 6.056a6.063 6.063 0 006.056-6.056h-.5a5.563 5.563 0 01-5.556 5.556v.5zm-6.057-6.056a6.063 6.063 0 006.057 6.056v-.5a5.563 5.563 0 01-5.557-5.556h-.5zm6.057-6.057a6.063 6.063 0 00-6.057 6.057h.5a5.563 5.563 0 015.557-5.557v-.5zm6.056 6.057a6.063 6.063 0 00-6.056-6.057v.5a5.563 5.563 0 015.556 5.557h.5zm-5.661 21.935a.395.395 0 01-.395.395v.5c.494 0 .895-.4.895-.895h-.5zm-.395-.395c.218 0 .395.177.395.395h.5a.895.895 0 00-.895-.895v.5zm-.396.395c0-.218.177-.395.396-.395v-.5c-.495 0-.896.4-.896.895h.5zm.396.395a.395.395 0 01-.396-.395h-.5c0 .495.401.895.896.895v-.5zm-2.731-19.72l.716-1.073-.416-.277-.716 1.073.416.278zm2.475 1.35l-2.545-1.696-.277.416 2.544 1.696.277-.417zm3.19-7.01l-3.553 7.106.447.223 3.553-7.105-.447-.224zm-1.043-.24l1.155.576.223-.447-1.154-.577-.224.447zm-2.563 5.685l2.898-5.798-.447-.223-2.899 5.798.448.223zm-1.69-.789l1.327.886.278-.416-1.327-.886-.278.416zM12.66 22.308l-1.19-.497-.193.462 1.19.496.193-.461zm-.568 2.014l.703-1.687-.462-.193-.703 1.688.462.192zm1.812-.346H11.86v.5h2.043v-.5zm.25 9.282v-9.032h-.5v9.032h.5zm-10.572.25h10.322v-.5H3.581v.5zm-.25-9.282v9.032h.5v-9.032h-.5zm7.132-.25H3.58v.5h6.882v-.5zm.679-2.03l-.91 2.184.461.192.91-2.184-.461-.192zm1.22 3.57v6.452h.5v-6.452h-.5zm-1.04.25h1.29v-.5h-1.29v.5zm-2.123 5.5l2.354-5.654-.461-.192-2.355 5.654.462.192zM6.174 28.73l2.617 2.617.354-.354-2.617-2.617-.354.354zm.912-1.266l-.912.912.354.354.912-.913-.354-.353zm1.608 1.254L7.44 27.464l-.354.353 1.255 1.255.353-.354zm1-3.298l-1.407 3.379.461.192 1.408-3.379-.462-.192zm-4.823.346h5.054v-.5H4.871v.5zm.25 6.202v-6.452h-.5v6.452h.5zm7.492-.25H4.87v.5h7.742v-.5zm-1.337-21.703l1.19.496.193-.461-1.19-.497-.193.462zm-.583 2.049l.91-2.184-.461-.192-.91 2.184.461.192zm-7.112.154h6.882v-.5H3.58v.5zM3.83 21v-9.032h-.5V21h.5zm10.072-.25H3.581v.5h10.322v-.5zm-.25-8.782V21h.5v-9.032h-.5zm-1.793.25h2.043v-.5H11.86v.5zm.472-2.034l-.703 1.688.462.192.703-1.687-.462-.193zm.53 9.526v-6.452h-.5v6.452h.5zm-7.991.25h7.742v-.5H4.87v.5zm-.25-6.702v6.452h.5v-6.452h-.5zm5.304-.25H4.871v.5h5.054v-.5zm-1.177 3.725l1.408-3.379-.462-.192-1.407 3.379.461.192zm-1.662-1.174l1.255 1.254.353-.353-1.254-1.254-.354.353zm-.558.913l.912-.913-.354-.353-.912.912.354.354zm2.617 2.263l-2.617-2.617-.354.354 2.617 2.616.354-.353zm1.947-5.573l-2.355 5.654.462.192 2.354-5.654-.461-.192zm1.52-.154h-1.29v.5h1.29v-.5zm6.452-6.597h1.29v-.5h-1.29v.5zm.25 1.04v-1.29h-.5v1.29h.5zm1.04-.25h-1.29v.5h1.29v-.5zm-.25-1.04v1.29h.5v-1.29h-.5zm-2.33-.25H3.581v.5h14.193v-.5zm.25 1.54v-1.29h-.5v1.29h.5zm-14.443.25h14.193v-.5H3.581v.5zm-.25-1.54v1.29h.5v-1.29h-.5zm19.355 18.065v1.29h.5v-1.29h-.5zm-7.492.25h7.742v-.5h-7.742v.5zm.25 1.04v-1.29h-.5v1.29h.5zm7.492-.25h-7.742v.5h7.742v-.5zm.25 2.83v-1.29h-.5v1.29h.5zm-7.992.25h7.742v-.5h-7.742v.5zm-.25-1.54v1.29h.5v-1.29h-.5zm7.992-.25h-7.742v.5h7.742v-.5zm-.25 2.831v1.29h.5v-1.29h-.5zm-7.492.25h7.742v-.5h-7.742v.5zm.25 1.04v-1.29h-.5v1.29h.5zm7.492-.25h-7.742v.5h7.742v-.5zm.25 2.831v-1.29h-.5v1.29h.5zm-7.992.25h7.742v-.5h-7.742v.5zm-.25-1.54v1.29h.5v-1.29h-.5zm7.992-.25h-7.742v.5h7.742v-.5zm-2.831-19.75v1.29h.5v-1.29h-.5zm-4.912.25h5.162v-.5h-5.162v.5zm.25 1.04v-1.29h-.5v1.29h.5zm4.912-.25h-5.162v.5h5.162v-.5zm.25 2.83v-1.29h-.5v1.29h.5zm-5.412.25h5.162v-.5h-5.162v.5zm-.25-1.54v1.29h.5v-1.29h-.5zm5.412-.25h-5.162v.5h5.162v-.5zm-.25 2.831v1.29h.5v-1.29h-.5zm-4.912.25h5.162v-.5h-5.162v.5zm.25 1.04v-1.29h-.5v1.29h.5zm4.912-.25h-5.162v.5h5.162v-.5zm.25 2.831v-1.29h-.5V21h.5zm-5.412.25h5.162v-.5h-5.162v.5zm-.25-1.54V21h.5v-1.29h-.5zm5.412-.25h-5.162v.5h5.162v-.5zM3.58 3.83h16.774v-.5H3.58v.5zm.25 1.041v-1.29h-.5v1.29h.5zm16.524-.25H3.58v.5h16.774v-.5zm-.25-1.04v1.29h.5v-1.29h-.5z" fill="#84A5F1"/></svg>