<svg xmlns="http://www.w3.org/2000/svg" width="410" height="512" viewBox="0 0 125.98 157.46" shape-rendering="geometricPrecision" text-rendering="geometricPrecision" image-rendering="optimizeQuality" fill-rule="evenodd" clip-rule="evenodd"><defs><style>.fil0{fill:#fcbf0e}</style></defs><g id="Слой_x0020_1"><g id="_1093759641888"><path class="fil0" d="M56.17 153.88l-30.15-34.8C10.79 101.51 0 82.36 0 63.68 0 28.51 27.82 0 62.99 0s62.99 28.51 62.99 63.68c0 18.68-10.79 37.83-26.02 55.4l-30.15 34.8c-4.23 4.77-9.41 4.77-13.64 0z"/><circle cx="62.99" cy="63.44" r="49.86" fill="#fefefe"/><path class="fil0" d="M50.48 41.45l-5.91-16.81 30.62-.07 7.07 16.95-.62 59.73-32.02-.15z"/><path d="M74.1 26.02H46.3l5.99 14.34c.08.19.13.39.13.58v59.35h28.03V41.22l-6.35-15.2zm-12.75 17.6h10.24v1.66H61.35v-1.66zm15.29-3.09H56.33l-4.84-11.59h20.22l4.93 11.59zm-31.4 59.53c-.5-.26-.84-.77-.84-1.36V29.91l-1.98-4.74c-.12-.21-.18-.46-.18-.71 0-.87.74-1.57 1.64-1.57h31.33c.65 0 1.27.38 1.52.99l6.83 16.35c.12.21.18.45.18.71v61.49c0 .86-.74 1.56-1.64 1.56-10.02 0-20.03-.12-30.04 0-.32.01-.71-.01-1.37-.43l-5.45-3.5z" fill="#2b2a29" fill-rule="nonzero"/></g></g></svg>