<svg xmlns="http://www.w3.org/2000/svg" width="410" height="512" viewBox="0 0 127.07 158.81" shape-rendering="geometricPrecision" text-rendering="geometricPrecision" image-rendering="optimizeQuality" fill-rule="evenodd" clip-rule="evenodd"><defs><style>.fil0{fill:#fcbf0e}</style></defs><g id="Слой_x0020_1"><g id="_1093906788592"><path class="fil0" d="M56.66 155.21l-30.42-35.1C10.89 102.38 0 83.07 0 64.22 0 28.75 28.06 0 63.53 0s63.54 28.75 63.54 64.22c0 18.85-10.89 38.16-26.24 55.89l-30.42 35.1c-4.26 4.81-9.49 4.81-13.75 0z"/><circle cx="63.53" cy="63.99" r="50.29" fill="#fefefe"/><path class="fil0" d="M87.26 93.28H39.81V56.43l-9.18-2.04 32.91-28.15 32.91 28.15-9.19 2.04v36.85zM54.92 57.19h17.23v17.23H54.92V57.19z"/><path d="M87.26 95.08H39.81c-1 0-1.8-.81-1.8-1.8V57.87l-7.77-1.73a1.797 1.797 0 01-.78-3.12l32.91-28.15c.69-.59 1.69-.57 2.35.02l32.89 28.13a1.795 1.795 0 01-.86 3.14l-7.69 1.71v35.41c0 .99-.8 1.8-1.8 1.8zm-45.65-3.6h43.85V56.43h.01c0-.82.57-1.56 1.41-1.75l5.67-1.26L63.54 28.6 34.53 53.42l5.51 1.23c.89.11 1.57.87 1.57 1.78v35.05zm13.31-36.09h17.23c.99 0 1.8.81 1.8 1.8v17.23c0 1-.81 1.8-1.8 1.8H54.92c-.99 0-1.8-.8-1.8-1.8V57.19c0-.99.81-1.8 1.8-1.8zM70.35 59H56.72v13.62h13.63V59z" fill="#2b2a29" fill-rule="nonzero"/></g></g></svg>