<svg xmlns="http://www.w3.org/2000/svg" width="410" height="512" viewBox="0 0 127.07 158.81" shape-rendering="geometricPrecision" text-rendering="geometricPrecision" image-rendering="optimizeQuality" fill-rule="evenodd" clip-rule="evenodd"><defs><style>.fil1{fill:#fefefe}.fil2{fill:#2b2a29}.fil0{fill:#fcbf0e}.fil3{fill:#2b2a29;fill-rule:nonzero}</style></defs><g id="Слой_x0020_1"><g id="_1093906792624"><path class="fil0" d="M56.66 155.21l-30.42-35.1C10.89 102.38 0 83.07 0 64.22 0 28.75 28.06 0 63.53 0s63.54 28.75 63.54 64.22c0 18.85-10.89 38.16-26.24 55.89l-30.42 35.1c-4.26 4.81-9.49 4.81-13.75 0z"/><circle class="fil1" cx="63.53" cy="63.99" r="50.29"/><rect class="fil2" x="42.49" y="40.73" width="40.92" height="61.33" rx="3.78" ry="3.78"/><path class="fil0" d="M47.66 52.62h29.97v15.53H47.66z"/><path class="fil1" d="M47.66 73.58h8.32v4.85h-8.32v-4.85zm21.65 0h8.32v4.85h-8.32v-4.85zm-10.82 0h8.32v4.85h-8.32v-4.85zm-10.83 8.8h8.32v4.85h-8.32v-4.85zm21.65 0h8.32v4.85h-8.32v-4.85zm-10.82 0h8.32v4.85h-8.32v-4.85zm-10.83 8.81h8.32v4.85h-8.32v-4.85zm21.65 0h8.32v4.85h-8.32v-4.85zm-10.82 0h8.32v4.85h-8.32v-4.85zm17.07-60.31v1.72h8.11v-1.72c0-2.23-1.82-4.06-4.05-4.06a4.07 4.07 0 00-4.06 4.06z"/><path class="fil3" d="M76.46 30.88v.82h6.31v-.82c0-.87-.35-1.66-.92-2.23-.58-.58-1.37-.93-2.23-.93-.87 0-1.66.35-2.23.93-.58.57-.93 1.36-.93 2.23zm-1.8 1.72v-1.72c0-1.36.56-2.6 1.46-3.5a4.91 4.91 0 016.99 0c.9.9 1.46 2.14 1.46 3.5v1.72c0 .5-.4.9-.9.9h-8.11c-.5 0-.9-.4-.9-.9z"/><path d="M79.62 26.82a4.07 4.07 0 00-4.06 4.06v17.79H50.25V30.88c0-2.23 1.83-4.06 4.06-4.06h25.31z" fill="#fefefe" fill-rule="nonzero"/><path class="fil3" d="M79.62 27.72c-.87 0-1.66.35-2.23.93-.58.57-.93 1.36-.93 2.23v17.79c0 .5-.41.9-.9.9H50.25c-.49 0-.89-.4-.89-.9V30.88c0-1.36.55-2.6 1.45-3.5.9-.9 2.14-1.46 3.5-1.46h25.31v1.8zm-4.96 3.16c0-1.2.43-2.3 1.15-3.16h-21.5c-.87 0-1.66.35-2.23.93-.57.57-.93 1.36-.93 2.23v16.89h23.51V30.88z"/><path class="fil2" d="M53.45 31.7h18.57a.9.9 0 01.89.9c0 .5-.4.9-.89.9H53.45c-.5 0-.9-.4-.9-.9 0-.49.4-.9.9-.9z"/><rect class="fil2" x="52.55" y="36.94" width="20.36" height="1.79" rx=".9" ry=".9"/><path class="fil3" d="M85.05 68.26h8.66c.99 0 1.89.4 2.54 1.05a3.55 3.55 0 011.06 2.54v20.57c0 .99-.4 1.89-1.06 2.54-.65.65-1.55 1.05-2.54 1.05h-8.66v-2.54h8.66c.29 0 .55-.11.75-.31.19-.2.31-.46.31-.74v-1.27h-9.72v-3.92h9.72V71.85c0-.28-.12-.54-.31-.74-.2-.2-.46-.31-.75-.31h-8.66v-2.54z"/></g></g></svg>