<svg xmlns="http://www.w3.org/2000/svg" width="24" height="24" viewBox="0 0 24 24"><defs><radialGradient id="a" cx="3.58" cy="24.08" r="30.67" gradientUnits="userSpaceOnUse"><stop offset="0" stop-color="#ffb140"/><stop offset=".26" stop-color="#ff5445"/><stop offset=".6" stop-color="#fc2b82"/><stop offset="1" stop-color="#8e40b7"/></radialGradient></defs><path fill="url(#a)" d="M16.948.072c1.277.059 2.15.261 2.912.558.79.307 1.459.717 2.126 1.384A5.883 5.883 0 0 1 23.37 4.14c.297.763.5 1.635.558 2.912.058 1.28.072 1.69.072 4.948 0 3.259-.014 3.668-.072 4.948-.059 1.277-.261 2.15-.558 2.912a5.883 5.883 0 0 1-1.384 2.126 5.883 5.883 0 0 1-2.126 1.384c-.763.297-1.635.5-2.912.558-1.28.058-1.69.072-4.948.072-3.259 0-3.668-.014-4.948-.072-1.277-.059-2.15-.261-2.912-.558a5.883 5.883 0 0 1-2.126-1.384A5.88 5.88 0 0 1 .63 19.86c-.297-.763-.5-1.635-.558-2.912C.014 15.668 0 15.258 0 12c0-3.259.014-3.668.072-4.948.059-1.277.261-2.15.558-2.912a5.88 5.88 0 0 1 1.384-2.126A5.88 5.88 0 0 1 4.14.63C4.903.333 5.775.13 7.052.072 8.332.014 8.742 0 12 0c3.259 0 3.668.014 4.948.072zM7.15 2.232c-1.17.054-1.806.25-2.228.413-.56.218-.96.478-1.38.898-.42.42-.68.82-.898 1.38-.164.423-.36 1.058-.413 2.228-.058 1.266-.07 1.645-.07 4.85 0 3.203.012 3.583.07 4.848.053 1.17.249 1.806.413 2.229.218.56.478.96.898 1.38.42.42.82.68 1.38.897.422.165 1.058.36 2.228.413 1.265.058 1.645.07 4.849.07s3.584-.012 4.849-.07c1.17-.053 1.805-.249 2.228-.413.56-.218.96-.478 1.38-.898.42-.42.68-.82.898-1.38.164-.422.36-1.058.413-2.228.058-1.265.07-1.644.07-4.849 0-3.204-.012-3.583-.07-4.849-.053-1.17-.249-1.805-.413-2.228a3.715 3.715 0 0 0-.898-1.38c-.42-.42-.82-.68-1.38-.898-.423-.164-1.058-.36-2.228-.413-1.265-.058-1.645-.07-4.849-.07s-3.584.012-4.85.07zM18.162 12a6.162 6.162 0 1 1-12.324 0 6.162 6.162 0 0 1 12.324 0zM16 12a4 4 0 1 0-8 0 4 4 0 0 0 8 0zm3.846-6.406a1.44 1.44 0 1 1-2.88 0 1.44 1.44 0 0 1 2.88 0z"/></svg>