<svg xmlns="http://www.w3.org/2000/svg" width="24" height="24"><defs><clipPath id="a"><path d="M14.5 16c-.8 0-1.5-.7-1.5-1.5s.7-1.5 1.5-1.5 1.5.7 1.5 1.5-.7 1.5-1.5 1.5zm0-5c-1.9 0-3.5 1.6-3.5 3.5s1.6 3.5 3.5 3.5 3.5-1.6 3.5-3.5-1.6-3.5-3.5-3.5zm-11-9C4.3 2 5 2.7 5 3.5S4.3 5 3.5 5 2 4.3 2 3.5 2.7 2 3.5 2zm0 5C5.4 7 7 5.4 7 3.5S5.4 0 3.5 0 0 1.6 0 3.5 1.6 7 3.5 7zm13.2-5.7c-.4-.4-1-.4-1.4 0l-14 14c-.4.4-.4 1 0 1.4.2.2.4.3.7.3.3 0 .5-.1.7-.3l14-14c.4-.4.4-1 0-1.4z"/></clipPath></defs><path d="M14.5 16c-.8 0-1.5-.7-1.5-1.5s.7-1.5 1.5-1.5 1.5.7 1.5 1.5-.7 1.5-1.5 1.5zm0-5c-1.9 0-3.5 1.6-3.5 3.5s1.6 3.5 3.5 3.5 3.5-1.6 3.5-3.5-1.6-3.5-3.5-3.5zm-11-9C4.3 2 5 2.7 5 3.5S4.3 5 3.5 5 2 4.3 2 3.5 2.7 2 3.5 2zm0 5C5.4 7 7 5.4 7 3.5S5.4 0 3.5 0 0 1.6 0 3.5 1.6 7 3.5 7zm13.2-5.7c-.4-.4-1-.4-1.4 0l-14 14c-.4.4-.4 1 0 1.4.2.2.4.3.7.3.3 0 .5-.1.7-.3l14-14c.4-.4.4-1 0-1.4z"/><g clip-path="url(#a)"><path fill="#2196f3" d="M-3-3h24v24H-3z"/></g></svg>