<svg xmlns="http://www.w3.org/2000/svg" width="19" height="19" viewBox="0 0 19 19"><path fill="none" stroke="#3ea0f1" stroke-linecap="round" stroke-linejoin="round" stroke-miterlimit="50" stroke-width="2" d="M18.076 13.728v2.559a1.706 1.706 0 0 1-1.86 1.706 16.882 16.882 0 0 1-7.362-2.619 16.635 16.635 0 0 1-5.118-5.118 16.882 16.882 0 0 1-2.62-7.396A1.706 1.706 0 0 1 2.816 1h2.559A1.706 1.706 0 0 1 7.08 2.467c.108.82.308 1.623.597 2.397a1.706 1.706 0 0 1-.384 1.8L6.21 7.748a13.649 13.649 0 0 0 5.118 5.118l1.083-1.083a1.706 1.706 0 0 1 1.8-.384 10.95 10.95 0 0 0 2.398.597 1.706 1.706 0 0 1 1.467 1.732z"/></svg>