<svg xmlns="http://www.w3.org/2000/svg" width="71" height="71" viewBox="0 0 71 71"><defs><linearGradient id="b" x1="35.37" x2="35.37" y1="65.06" y2="3.74" gradientUnits="userSpaceOnUse"><stop offset="0" stop-color="#1faf38"/><stop offset="1" stop-color="#60d669"/></linearGradient><linearGradient id="d" x1="35.05" x2="35.05" y1="65.9" y2="2.09" gradientUnits="userSpaceOnUse"><stop offset="0" stop-color="#f9f9f9"/><stop offset="1" stop-color="#fff"/></linearGradient><clipPath id="a"><path d="M4.876 34.128A30.159 30.159 0 0 0 8.965 49.32L4.62 65.067l16.234-4.225a30.796 30.796 0 0 0 14.634 3.698h.014c16.877 0 30.615-13.633 30.622-30.389.004-8.12-3.179-15.755-8.961-21.498-5.781-5.744-13.47-8.91-21.663-8.913-16.879 0-30.617 13.632-30.624 30.388"/></clipPath><clipPath id="c"><path d="M13.43 48.691l-.629-.994a26.12 26.12 0 0 1-4.038-13.986C8.768 19.22 20.618 7.43 35.188 7.43c7.056.003 13.688 2.74 18.676 7.707 4.987 4.968 7.731 11.571 7.73 18.594-.007 14.491-11.856 26.282-26.415 26.282h-.01a26.477 26.477 0 0 1-13.446-3.664l-.965-.57-9.998 2.61zm-5.791.826L3.13 65.902l16.848-4.397a31.881 31.881 0 0 0 15.187 3.85h.014c17.515 0 31.773-14.187 31.78-31.62.004-8.45-3.3-16.395-9.3-22.372-6-5.976-13.98-9.27-22.48-9.273-17.519 0-31.775 14.184-31.782 31.619a31.446 31.446 0 0 0 4.242 15.808z"/></clipPath></defs><g clip-path="url(#a)"><path fill="url(#b)" d="M4.876 34.128A30.159 30.159 0 0 0 8.965 49.32L4.62 65.067l16.234-4.225a30.796 30.796 0 0 0 14.634 3.698h.014c16.877 0 30.615-13.633 30.622-30.389.004-8.12-3.179-15.755-8.961-21.498-5.781-5.744-13.47-8.91-21.663-8.913-16.879 0-30.617 13.632-30.624 30.388"/></g><g clip-path="url(#c)"><path fill="url(#d)" d="M13.43 48.691l-.629-.994a26.12 26.12 0 0 1-4.038-13.986C8.768 19.22 20.618 7.43 35.188 7.43c7.056.003 13.688 2.74 18.676 7.707 4.987 4.968 7.731 11.571 7.73 18.594-.007 14.491-11.856 26.282-26.415 26.282h-.01a26.477 26.477 0 0 1-13.446-3.664l-.965-.57-9.998 2.61zm-5.791.826L3.13 65.902l16.848-4.397a31.881 31.881 0 0 0 15.187 3.85h.014c17.515 0 31.773-14.187 31.78-31.62.004-8.45-3.3-16.395-9.3-22.372-6-5.976-13.98-9.27-22.48-9.273-17.519 0-31.775 14.184-31.782 31.619a31.446 31.446 0 0 0 4.242 15.808z"/></g><path fill="#fff" d="M27.426 20.246c-.593-1.337-1.218-1.364-1.783-1.387-.461-.02-.99-.019-1.518-.019s-1.386.201-2.112 1.004c-.726.804-2.773 2.746-2.773 6.696 0 3.95 2.839 7.767 3.235 8.303.396.535 5.48 8.9 13.532 12.117 6.691 2.675 8.053 2.143 9.506 2.009 1.452-.134 4.686-1.942 5.346-3.816.66-1.875.66-3.481.463-3.817-.198-.335-.727-.535-1.519-.937-.792-.401-4.687-2.344-5.413-2.611-.726-.268-1.254-.402-1.782.402-.529.803-2.046 2.61-2.508 3.146-.462.536-.924.603-1.717.202-.792-.403-3.343-1.25-6.37-3.985-2.355-2.127-3.945-4.755-4.407-5.559-.462-.803-.05-1.238.348-1.638.356-.36.792-.937 1.188-1.406.396-.469.528-.803.792-1.339.264-.536.132-1.004-.066-1.406-.198-.401-1.738-4.372-2.442-5.96"/></svg>