<svg xmlns="http://www.w3.org/2000/svg" width="70" height="70"><defs><clipPath id="a"><path d="M38.46 13.8c-.838 0-1.843.668-1.843 1.503 0 .834.67 1.67 1.508 1.836 6.368.835 11.228 5.677 11.898 11.854.167.835.838 1.503 1.676 1.503h.167c1.006-.167 1.676-1.002 1.508-1.837-.838-7.68-7.038-13.857-14.914-14.859zm4.85 15.36c.167.835.836 1.336 1.672 1.336h.335c1.004-.167 1.506-1.169 1.338-2.004-.669-4.007-3.848-7.012-7.863-7.847-1.004-.167-1.84.501-2.007 1.336a1.732 1.732 0 0 0 1.338 2.003c2.677.501 4.684 2.505 5.186 5.176zm5.037 18.031c0 .501-.167.835-.503 1.169-.335.334-.67.5-1.34.5-4.86-.5-9.552-2.17-13.741-4.84-3.854-2.338-7.038-5.677-9.552-9.517-2.681-4.174-4.357-8.85-4.86-13.69 0-.502.168-.836.336-1.17.335-.333.837-.667 1.34-.667h5.027c.838 0 1.509.667 1.676 1.502.168 1.67.67 3.506 1.34 5.009.168.668 0 1.336-.334 1.836l-2.179 2.004c-.503.5-.67 1.336-.335 2.003a27.447 27.447 0 0 0 10.725 10.686c.67.334 1.508.334 2.01-.334l2.179-2.17c.503-.502 1.173-.669 1.843-.335 1.676.668 3.352 1.002 5.028 1.336.67.167 1.34.835 1.34 1.67zm-1.005-10.017c-1.508-.167-3.017-.5-4.357-1.002-1.844-.668-3.854-.167-5.363 1.169L36.45 38.51c-3.016-2.004-5.697-4.508-7.708-7.68l1.173-1.17c1.34-1.335 1.843-3.505 1.173-5.342-.503-1.335-.838-2.838-1.005-4.34-.336-2.505-2.514-4.341-5.028-4.341h-5.53a5.182 5.182 0 0 0-3.351 1.836C15.335 18.475 15 19.81 15 21.146c.503 5.343 2.514 10.685 5.362 15.193A35.172 35.172 0 0 0 30.92 46.857c4.524 3.006 9.886 4.842 15.249 5.343h.502c1.341 0 2.682-.5 3.52-1.503.837-1.001 1.508-2.17 1.508-3.506v-5.008c0-2.505-1.844-4.675-4.357-5.01z"/></clipPath></defs><path fill="#4caf50" d="M35 65c17.673 0 32-14.327 32-32C67 15.327 52.673 1 35 1 17.327 1 3 15.327 3 33c0 17.673 14.327 32 32 32z"/><path d="M38.46 13.8c-.838 0-1.843.668-1.843 1.503 0 .834.67 1.67 1.508 1.836 6.368.835 11.228 5.677 11.898 11.854.167.835.838 1.503 1.676 1.503h.167c1.006-.167 1.676-1.002 1.508-1.837-.838-7.68-7.038-13.857-14.914-14.859zm4.85 15.36c.167.835.836 1.336 1.672 1.336h.335c1.004-.167 1.506-1.169 1.338-2.004-.669-4.007-3.848-7.012-7.863-7.847-1.004-.167-1.84.501-2.007 1.336a1.732 1.732 0 0 0 1.338 2.003c2.677.501 4.684 2.505 5.186 5.176zm5.037 18.031c0 .501-.167.835-.503 1.169-.335.334-.67.5-1.34.5-4.86-.5-9.552-2.17-13.741-4.84-3.854-2.338-7.038-5.677-9.552-9.517-2.681-4.174-4.357-8.85-4.86-13.69 0-.502.168-.836.336-1.17.335-.333.837-.667 1.34-.667h5.027c.838 0 1.509.667 1.676 1.502.168 1.67.67 3.506 1.34 5.009.168.668 0 1.336-.334 1.836l-2.179 2.004c-.503.5-.67 1.336-.335 2.003a27.447 27.447 0 0 0 10.725 10.686c.67.334 1.508.334 2.01-.334l2.179-2.17c.503-.502 1.173-.669 1.843-.335 1.676.668 3.352 1.002 5.028 1.336.67.167 1.34.835 1.34 1.67zm-1.005-10.017c-1.508-.167-3.017-.5-4.357-1.002-1.844-.668-3.854-.167-5.363 1.169L36.45 38.51c-3.016-2.004-5.697-4.508-7.708-7.68l1.173-1.17c1.34-1.335 1.843-3.505 1.173-5.342-.503-1.335-.838-2.838-1.005-4.34-.336-2.505-2.514-4.341-5.028-4.341h-5.53a5.182 5.182 0 0 0-3.351 1.836C15.335 18.475 15 19.81 15 21.146c.503 5.343 2.514 10.685 5.362 15.193A35.172 35.172 0 0 0 30.92 46.857c4.524 3.006 9.886 4.842 15.249 5.343h.502c1.341 0 2.682-.5 3.52-1.503.837-1.001 1.508-2.17 1.508-3.506v-5.008c0-2.505-1.844-4.675-4.357-5.01z"/><g clip-path="url(#a)"><path fill="#fff" d="M15 13.8h38.4v38.4H15z"/></g></svg>