<svg xmlns="http://www.w3.org/2000/svg" width="24" height="24"><defs><clipPath id="a"><path d="M10.8 6c-.1.1-.1.1-.2.1s-.1.1-.2.1l-.1.1c-.2.2-.3.4-.3.7 0 .3.1.5.3.7 0 0 0 .1.1.1s.1.1.2.1c.1.1.1.1.2.1h.2c.3 0 .5-.1.7-.3.2-.2.3-.4.3-.7 0-.3-.1-.5-.3-.7-.2-.2-.6-.3-.9-.3zm.2 4c-.6 0-1 .4-1 1v4c0 .6.4 1 1 1s1-.4 1-1v-4c0-.6-.4-1-1-1zm0 10c-5 0-9-4-9-9s4-9 9-9 9 4 9 9-4 9-9 9zm0-20C4.9 0 0 4.9 0 11s4.9 11 11 11 11-4.9 11-11S17.1 0 11 0z"/></clipPath></defs><path d="M10.8 6c-.1.1-.1.1-.2.1s-.1.1-.2.1l-.1.1c-.2.2-.3.4-.3.7 0 .3.1.5.3.7 0 0 0 .1.1.1s.1.1.2.1c.1.1.1.1.2.1h.2c.3 0 .5-.1.7-.3.2-.2.3-.4.3-.7 0-.3-.1-.5-.3-.7-.2-.2-.6-.3-.9-.3zm.2 4c-.6 0-1 .4-1 1v4c0 .6.4 1 1 1s1-.4 1-1v-4c0-.6-.4-1-1-1zm0 10c-5 0-9-4-9-9s4-9 9-9 9 4 9 9-4 9-9 9zm0-20C4.9 0 0 4.9 0 11s4.9 11 11 11 11-4.9 11-11S17.1 0 11 0z"/><g clip-path="url(#a)"><path d="M-1-1h24v24H-1z"/></g></svg>