<svg xmlns="http://www.w3.org/2000/svg" viewBox="0 0 120 120"><path d="M66.02 33.57c-.27-1.22.68-2.38 1.94-2.38.93 0 1.76.63 1.94 1.54.05.22.11.46.19.71.24.74.65 1.34 1.2 1.88 1 1 2.39 1.5 4.13 1.5 1.61 0 2.84-.42 3.64-1.23s1.21-1.75 1.21-3.17c0-1.45-.39-2.57-1.17-3.34-.79-.78-2.24-1.55-4.32-2.29-2.11-.75-3.74-1.56-4.86-2.39-1.13-.83-1.98-1.8-2.54-2.87s-.85-2.32-.85-3.7c0-2.39.81-4.39 2.41-5.93 1.6-1.55 3.71-2.33 6.29-2.33 1.76 0 3.36.4 4.74 1.19 1.38.79 2.46 1.9 3.21 3.31.28.52.5 1.07.68 1.64.08.24.14.48.19.72.27 1.24-.67 2.42-1.94 2.42-.97 0-1.79-.7-1.95-1.65-.06-.36-.16-.74-.31-1.05-.23-.51-.5-.97-.87-1.39-.86-.98-2.12-1.48-3.74-1.48-1.48 0-2.63.42-3.44 1.24-.81.82-1.21 1.76-1.21 3.25 0 1.22.44 2.25 1.31 3.07.89.83 2.28 1.59 4.14 2.25 2.94.97 5.08 2.19 6.36 3.63 1.28 1.44 1.93 3.34 1.93 5.66 0 2.44-.81 4.43-2.4 5.91-1.59 1.47-3.78 2.22-6.5 2.22-1.75 0-3.39-.39-4.87-1.15a8.714 8.714 0 01-3.8-3.75c-.24-.45-.43-.92-.57-1.41-.07-.22-.13-.43-.17-.63zM91.15 9.99a2 2 0 00-2 2V38.1a2 2 0 104 0V11.99c.01-1.1-.89-2-2-2zm27.02 9.25c0 2.89-.77 5.15-2.3 6.72-1.53 1.57-3.71 2.39-6.48 2.45h-5.91v9.69a2 2 0 11-4 0V12.02c0-1.12.91-2.02 2.02-2.02h7.62c2.8 0 5.03.85 6.63 2.53 1.61 1.67 2.42 3.93 2.42 6.71zm-4 .03c0-1.76-.45-2.96-1.34-4.02-.89-1.05-2.12-1.58-3.68-1.58h-5.66v11.07h5.64c1.62 0 2.88-.49 3.74-1.46.86-.96 1.3-2.18 1.3-4.01zM87.35 60.76c.66.65 1.03 1.52 1.03 2.45v9.71c0 1.9-1.55 3.47-3.45 3.49h-.14c-25.9 0-46.97-21.07-46.97-46.97v-.38c.03-1.9 1.61-3.45 3.51-3.45h9.7c.94 0 1.81.37 2.47 1.05.65.68 1 1.57.96 2.51-.01.14-.01.27-.01.37 0 2.6.52 6.09 1.34 8.9.05.18.15.48.25.79.42 1.28.1 2.66-.85 3.61l-3.45 3.44A37.654 37.654 0 0067.7 62.34l3.48-3.48a3.44 3.44 0 013.59-.83c.42.14.85.29 1.16.38 2.92.84 6.27 1.36 8.75 1.36h.18c.92 0 1.83.35 2.49.99zM71.56 64.1c4 1.54 8.33 2.42 12.85 2.49v-2.87c-3.2-.01-7.15-.68-10.65-1.82l-2.2 2.2zM50.51 29.59h-2.9c.04 4.51.89 8.83 2.4 12.82l2.2-2.17c-.97-3.08-1.62-6.81-1.7-9.78v-.87zm33.9 42.86v-2.87c-16.53-.23-30.69-10.43-36.71-24.86l-.01-.01a40.254 40.254 0 01-3.08-15.12h-2.83c.07 23.25 19 42.46 42.26 42.86h.37zm-15.06 5.31c.66.65 1.03 1.52 1.03 2.45v9.71c0 1.9-1.55 3.47-3.45 3.49h-.14c-25.9 0-46.97-21.07-46.97-46.97v-.38c.03-1.9 1.61-3.45 3.51-3.45h9.7c.94 0 1.81.37 2.47 1.05.65.68 1 1.57.96 2.51-.01.14-.01.27-.01.37 0 2.6.52 6.09 1.34 8.9.05.18.15.48.25.79.42 1.28.1 2.66-.85 3.61l-3.45 3.44A37.654 37.654 0 0049.7 79.34l3.48-3.48a3.44 3.44 0 013.59-.83c.42.14.85.29 1.16.38 2.92.84 6.27 1.36 8.75 1.36h.18c.92 0 1.83.35 2.49.99zM53.56 81.1c4 1.54 8.33 2.42 12.85 2.49v-2.87c-3.2-.01-7.15-.68-10.65-1.82l-2.2 2.2zM32.51 46.59h-2.9c.04 4.51.89 8.83 2.4 12.82l2.2-2.17c-.97-3.08-1.62-6.81-1.7-9.78v-.87zm33.9 42.86v-2.87c-16.53-.23-30.69-10.43-36.71-24.86l-.01-.01a40.254 40.254 0 01-3.08-15.12h-2.83c.07 23.25 19 42.46 42.26 42.86h.37zm-15.06 5.31c.66.65 1.03 1.52 1.03 2.45v9.71c0 1.9-1.55 3.47-3.45 3.49h-.14c-25.9 0-46.97-21.07-46.97-46.97v-.38c.03-1.9 1.61-3.45 3.51-3.45h9.7c.94 0 1.81.37 2.47 1.05.65.68 1 1.57.96 2.51-.01.14-.01.27-.01.37 0 2.6.52 6.09 1.34 8.9.05.18.15.48.25.79.42 1.28.1 2.66-.85 3.61l-3.45 3.44A37.654 37.654 0 0031.7 96.34l3.48-3.48a3.44 3.44 0 013.59-.83c.42.14.85.29 1.16.38 2.92.84 6.27 1.36 8.75 1.36h.18c.92 0 1.83.35 2.49.99zM35.56 98.1c4 1.54 8.33 2.42 12.85 2.49v-2.87c-3.2-.01-7.15-.68-10.65-1.82l-2.2 2.2zM14.51 63.59h-2.9c.04 4.51.89 8.83 2.4 12.82l2.2-2.17c-.97-3.08-1.62-6.81-1.7-9.78v-.87zm33.9 42.86v-2.87c-16.53-.23-30.69-10.44-36.71-24.86l-.01-.01a40.254 40.254 0 01-3.08-15.12H5.79c.07 23.25 19 42.46 42.26 42.86h.36z"/></svg>