<svg xmlns="http://www.w3.org/2000/svg" viewBox="0 0 120 120"><path d="M105.11 78.36h-.41c-6.01 0-11.81-.86-17.32-2.44-.66-.19-1.59-.5-2.5-.81a5.112 5.112 0 00-5.27 1.22l-11.79 11.8c-.13.13-.3.19-.48.18a84.317 84.317 0 01-28.13-23.7c-.24-.32-.49-.64-.73-.96-.15-.2-.28-.4-.43-.6-2.37-3.31-4.5-6.81-6.37-10.46a.639.639 0 01.12-.75l11.83-11.83a5.209 5.209 0 001.26-5.32c-.23-.68-.43-1.32-.55-1.73a62.621 62.621 0 01-2.47-17.42c0-.23.01-.51.02-.84.1-2.83-2.17-5.19-5-5.19H14.95a5.17 5.17 0 00-5.17 5.07c-.01.29-.01.55-.01.75 0 52.45 42.67 95.13 95.13 95.13h.26c2.8-.03 5.06-2.32 5.06-5.13V83.38c0-2.8-2.31-5.07-5.11-5.02zm-22.85 1c.41-.41 1.01-.55 1.56-.36a66.54 66.54 0 0020.89 3.37c.84 0 1.52.68 1.52 1.52v13.86c-.11 0-.21.01-.32.01-12.31 0-24-2.69-34.55-7.48l10.9-10.92zM37.9 14.65c-.01 1.01-.01 2.32 0 2.73.18 6.43 1.28 12.64 3.16 18.5.16.49.03 1.02-.33 1.39L29.56 48.44a83.275 83.275 0 01-7.45-34.47c0-.15.01-.29.01-.44h14.67c.62 0 1.12.5 1.11 1.12zm66.88 91.81h-1.46c-49.52-.85-89.55-41.39-89.55-91.11v-.34c0-.82.68-1.48 1.5-1.48h2.85c0 .15-.01.29-.01.44 0 20.02 6.74 38.49 18.06 53.27 8.2 10.84 18.89 19.68 31.23 25.66.08.04.16.05.24.07a87.32 87.32 0 0038.25 8.78h.32v3.27c.01.79-.63 1.44-1.43 1.44zm-21.19-43.4c14.69 0 26.64-11.95 26.64-26.64S98.28 9.79 83.59 9.79 56.95 21.74 56.95 36.42 68.9 63.06 83.59 63.06zm7.76-5.37c1.39-1.76 2.59-3.98 3.55-6.56 1.57.43 3.05.96 4.4 1.57-2.26 2.18-4.96 3.9-7.95 4.99zm10.05-7.31c-1.69-.83-3.57-1.53-5.59-2.09.89-3.22 1.42-6.86 1.5-10.74h8.89c-.24 4.82-2 9.25-4.8 12.83zm4.74-15.84h-8.86c-.15-3.88-.73-7.5-1.68-10.69 1.92-.53 3.72-1.17 5.34-1.94 2.92 3.48 4.81 7.85 5.2 12.63zm-7.4-14.92a30.94 30.94 0 01-4.11 1.4c-.91-2.28-2.02-4.26-3.28-5.86 2.75 1 5.25 2.53 7.39 4.46zm-13.91-5.74c2.68.77 5.09 3.66 6.81 7.81-2.16.4-4.46.62-6.81.68v-8.49zm0 11.5c2.71-.07 5.34-.35 7.82-.83.9 2.97 1.47 6.38 1.62 10h-9.45v-9.17zm0 12.16h9.48c-.09 3.61-.61 7.03-1.44 10.04-2.54-.51-5.25-.8-8.03-.87v-9.17zm0 12.16c2.46.06 4.85.31 7.1.74-1.73 4.53-4.26 7.71-7.1 8.53V49.7zm-16.94 3.01c1.25-.57 2.61-1.06 4.05-1.48.91 2.43 2.04 4.54 3.35 6.25-2.78-1.1-5.29-2.73-7.4-4.77zm13.94 6.22c-2.77-.87-5.23-3.99-6.94-8.41 2.2-.44 4.53-.71 6.94-.8v9.21zm0-12.21c-2.73.1-5.39.42-7.88.94-.85-3.03-1.37-6.47-1.46-10.12h9.35v9.18zm0-12.18h-9.32c.15-3.65.74-7.08 1.65-10.07 2.44.5 5.02.8 7.67.9v9.17zm0-20.62v8.45c-2.3-.09-4.54-.34-6.65-.74 1.69-4.05 4.04-6.89 6.65-7.71zm-6.55 1.45c-1.18 1.54-2.22 3.41-3.08 5.55-1.33-.37-2.59-.81-3.76-1.31 1.99-1.79 4.31-3.23 6.84-4.24zm-9.05 6.54c1.53.72 3.2 1.33 4.99 1.84-.96 3.21-1.56 6.86-1.71 10.79h-8.48c.4-4.78 2.29-9.15 5.2-12.63zm3.26 15.63c.09 3.92.63 7.59 1.53 10.84-1.88.55-3.65 1.2-5.24 1.99-2.8-3.57-4.56-8-4.8-12.83h8.51z"/></svg>