<svg xmlns="http://www.w3.org/2000/svg" viewBox="0 0 120 120"><path d="M105.02 78.39h-.41c-6.01 0-11.81-.86-17.32-2.44-.66-.19-1.59-.5-2.5-.81a5.112 5.112 0 00-5.27 1.22l-11.79 11.8c-.13.13-.3.19-.48.18a84.317 84.317 0 01-28.13-23.7c-.24-.32-.49-.64-.73-.96-.15-.2-.28-.4-.43-.6-2.37-3.31-4.5-6.81-6.37-10.46a.639.639 0 01.12-.75l11.83-11.83a5.209 5.209 0 001.26-5.32c-.23-.68-.43-1.32-.55-1.73a62.621 62.621 0 01-2.47-17.42c0-.23.01-.51.02-.84.1-2.83-2.17-5.19-5-5.19H14.86a5.17 5.17 0 00-5.17 5.07c-.01.29-.01.55-.01.75 0 52.45 42.67 95.13 95.13 95.13h.26c2.8-.03 5.06-2.33 5.06-5.13V83.41c0-2.81-2.31-5.07-5.11-5.02zm-22.85 1c.41-.41 1.01-.55 1.56-.36a66.54 66.54 0 0020.89 3.37c.84 0 1.52.68 1.52 1.52v13.86c-.11 0-.21.01-.32.01-12.31 0-24-2.69-34.55-7.48l10.9-10.92zM37.81 14.68c-.01 1.01-.01 2.32 0 2.73.18 6.43 1.28 12.64 3.16 18.5.16.49.03 1.02-.33 1.39L29.47 48.46a83.275 83.275 0 01-7.45-34.47c0-.15.01-.29.01-.44H36.7c.62 0 1.12.51 1.11 1.13zm66.88 91.8h-1.46c-49.52-.85-89.55-41.39-89.55-91.11v-.34c0-.82.68-1.48 1.5-1.48h2.85c0 .15-.01.29-.01.44 0 20.02 6.74 38.49 18.06 53.27 8.2 10.84 18.89 19.68 31.23 25.66.08.04.16.05.24.07a87.32 87.32 0 0038.25 8.78h.32v3.27c.01.8-.63 1.44-1.43 1.44z"/><path d="M58.32 34.12c.14.49.33.96.57 1.41.86 1.63 2.15 2.89 3.8 3.75 1.48.76 3.12 1.15 4.87 1.15 2.73 0 4.92-.75 6.5-2.22 1.59-1.47 2.4-3.46 2.4-5.91 0-2.32-.65-4.22-1.93-5.66-1.28-1.43-3.42-2.65-6.36-3.63-1.86-.66-3.25-1.42-4.14-2.25-.87-.82-1.31-1.85-1.31-3.07 0-1.49.41-2.43 1.21-3.25.81-.82 1.96-1.24 3.44-1.24 1.62 0 2.88.5 3.74 1.48.37.42.63.88.87 1.39.15.32.24.69.31 1.05.17.95.99 1.65 1.95 1.65 1.27 0 2.21-1.17 1.94-2.42-.05-.24-.11-.48-.19-.72-.18-.57-.4-1.11-.68-1.64a8.183 8.183 0 00-3.21-3.31c-1.37-.78-2.97-1.18-4.73-1.18-2.58 0-4.69.78-6.29 2.33-1.6 1.55-2.41 3.55-2.41 5.93 0 1.38.28 2.63.85 3.7.56 1.07 1.41 2.04 2.54 2.87 1.12.83 2.75 1.63 4.86 2.39 2.08.74 3.53 1.51 4.32 2.29.78.76 1.17 1.89 1.17 3.34 0 1.42-.41 2.35-1.21 3.17s-2.03 1.23-3.64 1.23c-1.74 0-3.12-.51-4.13-1.5-.55-.54-.95-1.15-1.2-1.88-.08-.25-.14-.49-.19-.71-.19-.91-1.02-1.54-1.94-1.54-1.25 0-2.21 1.15-1.94 2.38.04.19.1.4.16.62zm24.98 5.9a2 2 0 002-2V11.91a2 2 0 10-4 0v26.11c-.01 1.11.89 2 2 2zm10.33 0a2 2 0 002-2v-9.69h5.91c2.77-.06 4.95-.88 6.48-2.45 1.53-1.57 2.3-3.83 2.3-6.72 0-2.78-.81-5.04-2.41-6.72-1.6-1.68-3.83-2.53-6.63-2.53h-7.62c-1.12 0-2.02.91-2.02 2.02v26.09c-.01 1.11.89 2 1.99 2zm2-26.42h5.66c1.55 0 2.79.53 3.68 1.58.89 1.05 1.34 2.26 1.34 4.02 0 1.82-.44 3.05-1.3 4.02-.86.97-2.12 1.46-3.74 1.46h-5.64V13.6z"/></svg>