<svg xmlns="http://www.w3.org/2000/svg" width="25" height="25" viewBox="0 0 25 25"><g clip-path="url(#clip-af08224c-3fd5-45bf-a125-f9fdb286d4b9)"><path fill="#d1d3d8" d="M23.17 2.273H4.545c-.056 0-.107.02-.16.037L3.928.805A1.136 1.136 0 002.84 0H.568A.568.568 0 000 .568v1.137c0 .313.254.568.568.568h1.431l3.55 11.666-1.326 1.547c-.524.61-.76 1.453-.519 2.221a2.259 2.259 0 002.176 1.611h16.279a.568.568 0 00.568-.568v-1.136a.568.568 0 00-.568-.569H5.879l1.802-2.1c.045-.054.078-.113.113-.172h11.01c.88 0 1.682-.509 2.057-1.306l3.965-8.425c.114-.243.174-.512.174-.779v-.16a1.83 1.83 0 00-1.83-1.83zM4.545 22.727a2.273 2.273 0 114.546 0 2.273 2.273 0 01-4.546 0zm13.637 0a2.273 2.273 0 114.545 0 2.273 2.273 0 01-4.545 0z"/></g></svg>