<svg xmlns="http://www.w3.org/2000/svg" width="20" height="20" viewBox="0 0 20 20"><g clip-path="url(#clip-15ce8c50-dacc-40d7-baa3-86d801a18d26)" fill="#ec7f1f"><path d="M10 17.872c-4.34 0-7.872-3.531-7.872-7.872 0-4.34 3.531-7.872 7.872-7.872 4.34 0 7.872 3.531 7.872 7.872 0 4.34-3.531 7.872-7.872 7.872zM10 0C4.486 0 0 4.486 0 10s4.486 10 10 10 10-4.486 10-10S15.514 0 10 0z"/><path d="M15.212 9.691h-4.494V4.288a.823.823 0 00-1.647 0v6.227c0 .454.368.823.823.823h5.318a.823.823 0 000-1.647z"/></g></svg>