<svg xmlns="http://www.w3.org/2000/svg" width="15" height="11" viewBox="0 0 15 11"><g clip-path="url(#clip-a76548aa-caff-4180-84d8-4277adb9334b)"><path fill="#0045ff" d="M14.76 1.185l-.491-.491a.814.814 0 00-.58-.24.814.814 0 00-.58.24L6.205 7.598 1.89 3.284a.815.815 0 00-.58-.24.815.815 0 00-.58.24l-.492.491a.816.816 0 00-.239.58c0 .22.085.426.24.58l4.87 4.87c.006.01.013.019.02.026l.492.484a.81.81 0 00.582.23h.003c.22 0 .426-.076.58-.23l.491-.488c.008-.008.015-.014.019-.02l7.463-7.463a.82.82 0 000-1.159z"/></g></svg>