<svg xmlns="http://www.w3.org/2000/svg" width="40" height="50" viewBox="0 0 40 50"><g clip-path="url(#clip-dc437d9b-9ee0-4f45-9320-4f4a93f180bb)" fill="#ec7f1f"><path d="M38.923 6.91L32.256.245a.833.833 0 00-.59-.244H5a.833.833 0 00-.833.833V20h1.666V1.667h25.489L37.5 7.845v40.488H5.833v-15H4.167v15.834c0 .46.373.833.833.833h33.333c.46 0 .834-.373.834-.833V7.5a.833.833 0 00-.244-.59z"/><path d="M30.833 8.333v-5h-1.666v5.834c0 .46.373.833.833.833h5.833V8.333zM19.167 40h-2.155l-.834-.833 2.155-2.155.834.833zM15 37.988l-7.572-7.571 2.155-2.155 7.572 7.571zM4.928 27.917l2.155-2.155 1.322 1.321-2.155 2.155zm-1.982-1.983a1.526 1.526 0 010-2.155 1.526 1.526 0 012.155 0l.804.804-2.155 2.155zM20.833 40v-2.5a.833.833 0 00-.244-.59L6.28 22.6a3.19 3.19 0 00-4.511 4.512l14.31 14.31a.833.833 0 00.589.245h9.166V40zm6.667 1.667V40h1.667v1.667z"/></g></svg>