<svg xmlns="http://www.w3.org/2000/svg" width="25" height="23" viewBox="0 0 25 23"><g clip-path="url(#clip-94b4cba8-638f-40d9-83fe-58b1b978433a)" opacity=".4"><path fill="#8f949f" d="M23.017 2.556c-1.294-1.404-3.07-2.177-5-2.177-1.444 0-2.765.456-3.929 1.356A8.037 8.037 0 0012.5 3.393a8.032 8.032 0 00-1.588-1.658C9.749.835 8.427.379 6.984.379c-1.93 0-3.707.773-5 2.177C.703 3.943 0 5.838 0 7.892c0 2.115.788 4.05 2.48 6.091 1.513 1.826 3.688 3.68 6.207 5.826.86.733 1.835 1.564 2.847 2.449a1.466 1.466 0 001.932 0c1.013-.885 1.988-1.716 2.848-2.45 2.519-2.146 4.694-3.999 6.207-5.825 1.691-2.041 2.48-3.976 2.48-6.09 0-2.055-.705-3.95-1.984-5.337z"/></g></svg>