<svg xmlns="http://www.w3.org/2000/svg" width="22" height="50" viewBox="0 0 22 50"><g clip-path="url(#clip-f162e554-b222-4388-ab3e-b9c5c8ee230d)"><path fill="#212121" d="M20.221 1.713C19.006.573 17.541 0 15.828 0c-1.718 0-3.189.57-4.415 1.713C10.185 2.857 9.57 4.233 9.57 5.84c0 1.609.615 2.982 1.841 4.112 1.23 1.134 2.698 1.701 4.416 1.701 1.713 0 3.178-.567 4.393-1.7 1.219-1.13 1.825-2.504 1.825-4.113 0-1.605-.605-2.982-1.825-4.126zm1.164 42.891c-.362.17-.945.364-1.745.585-.801.22-1.523.333-2.157.333-1.35 0-2.301-.221-2.853-.666-.548-.445-.822-1.282-.822-2.508 0-.486.083-1.21.255-2.158.167-.954.36-1.802.573-2.543l2.608-9.234c.256-.847.431-1.779.525-2.796.096-1.014.141-1.724.141-2.127 0-1.947-.682-3.527-2.048-4.746-1.365-1.218-3.31-1.827-5.83-1.827-1.401 0-2.884.25-4.453.747a65.557 65.557 0 00-4.925 1.793l-.7 2.859a29.06 29.06 0 011.833-.604 7.342 7.342 0 012.082-.318c1.383 0 2.314.236 2.802.7.488.466.733 1.294.733 2.478 0 .655-.077 1.382-.238 2.172a43.521 43.521 0 01-.59 2.525l-2.62 9.27a27.75 27.75 0 00-.51 2.62 16.68 16.68 0 00-.157 2.27c0 1.905.704 3.475 2.112 4.715C6.808 49.378 8.78 50 11.319 50c1.652 0 3.102-.216 4.35-.65 1.247-.433 2.921-1.063 5.017-1.89l.699-2.856z"/></g></svg>