<svg xmlns="http://www.w3.org/2000/svg" width="20" height="16" viewBox="0 0 20 16"><g clip-path="url(#clip-6e806656-3160-4c06-92d2-51dd13641c9f)" fill="#ec7f1f"><path d="M18.242.383H1.758a1.73 1.73 0 00-.753.176L9.96 9.515l2.007-1.929L18.995.559a1.737 1.737 0 00-.753-.176zm1.582 1.005L13.21 8l6.613 6.612a1.73 1.73 0 00.176-.753V2.141c0-.27-.067-.524-.176-.753zm-19.648 0C.066 1.617 0 1.87 0 2.14v11.718c0 .27.066.524.176.753L6.788 8z"/><path d="M12.383 8.829l-2.008 1.929a.584.584 0 01-.829 0l-1.929-1.93-6.613 6.613c.23.11.483.176.754.176h16.484c.27 0 .524-.066.753-.176z"/></g></svg>