<svg xmlns="http://www.w3.org/2000/svg" width="38" height="50" viewBox="0 0 38 50"><g clip-path="url(#clip-c17f9d2b-8d8d-400c-9030-a26d8378a689)" opacity=".5" fill="#212121"><path d="M35.952 48.017H2.048V1.983h24.569l9.336 9.336zm1.693-37.81L27.728.291a.99.99 0 00-.7-.291H1.055a.991.991 0 00-.992.992v48.017c0 .547.444.991.992.991h35.888a.991.991 0 00.992-.991v-38.1a.992.992 0 00-.29-.702z" opacity=".5"/><path d="M5.462 8.183h17.271a.991.991 0 100-1.984H5.462a.991.991 0 000 1.984zm-.992 4.945c0 .547.444.991.992.991h27.076a.992.992 0 100-1.983H5.462a.991.991 0 00-.991.992zm28.068 4.944H5.462a.991.991 0 100 1.983h27.076a.992.992 0 100-1.983zm0 5.936H5.462a.991.991 0 000 1.984h27.076a.991.991 0 100-1.984zm0 5.937H5.462a.991.991 0 100 1.983h27.076a.992.992 0 100-1.983zm0 5.936H5.462a.991.991 0 100 1.983h27.076a.992.992 0 100-1.983zm0 5.936H5.462a.991.991 0 000 1.984h27.076a.991.991 0 100-1.984z" opacity=".5"/></g></svg>