<svg xmlns="http://www.w3.org/2000/svg" width="50" height="50" viewBox="0 0 50 50"><g clip-path="url(#clip-dca618a5-647e-4ff6-9338-22ece38057ff)"><path fill="#212121" d="M41.854 45.374a10.92 10.92 0 01-2.1-.903l4.7-4.699c.373.666.676 1.37.903 2.1l1.574 5.076zM24.895 30.192l5.28-5.28L42.65 37.39c.126.127.249.256.368.389l-5.259 5.259a12.29 12.29 0 01-.388-.368zm-4.285-4.285l5.28-5.28 2.57 2.571-5.28 5.28zM6.033 11.33l5.28-5.28 12.862 12.863-5.28 5.28zM2.788 4.298L4.28 2.785a1.212 1.212 0 011.726 0l2.555 2.588-3.2 3.2-2.567-2.567a1.215 1.215 0 01-.006-1.708zm44.884 36.855a13.385 13.385 0 00-3.306-5.478L12.169 3.48a1.212 1.212 0 00-1.713 0l-.18.18L7.73 1.082a3.637 3.637 0 00-5.176 0L1.062 2.595A3.646 3.646 0 001.08 7.72l2.558 2.559-.941.93a6.06 6.06 0 00-.025 8.595l9.7 9.7a1.212 1.212 0 101.714-1.714l-9.7-9.7a3.635 3.635 0 01-.08-5.058l14.51 14.51 2.65 2.65 1.715 1.714 12.477 12.477a13.383 13.383 0 005.478 3.307l7.275 2.256a1.212 1.212 0 001.516-1.517z"/></g></svg>