<svg xmlns="http://www.w3.org/2000/svg" width="20" height="20" viewBox="0 0 20 20"><g clip-path="url(#clip-1eea09f0-2aa7-4d25-9d56-5938ed6979af)"><path fill="#fff" d="M15.205 13.23c-.653-.645-1.469-.645-2.118 0-.495.491-.99.983-1.477 1.482-.134.137-.246.166-.408.075-.32-.175-.662-.316-.97-.508-1.436-.903-2.639-2.064-3.704-3.37-.529-.65-.999-1.345-1.328-2.128-.066-.158-.054-.262.075-.39.496-.48.978-.97 1.465-1.462.679-.682.679-1.481-.004-2.168-.387-.391-.774-.774-1.161-1.165-.4-.4-.795-.803-1.199-1.199-.653-.637-1.469-.637-2.118.004-.5.491-.978.995-1.486 1.478-.47.445-.707.99-.757 1.627-.08 1.036.175 2.014.532 2.967.733 1.973 1.848 3.725 3.2 5.332a19.805 19.805 0 006.56 5.131c1.149.558 2.339.987 3.633 1.057.89.05 1.665-.174 2.285-.87.424-.474.903-.907 1.353-1.36.665-.675.67-1.49.008-2.156a641.06 641.06 0 00-2.38-2.377zm-.795-3.317l1.536-.262a6.864 6.864 0 00-1.918-3.704 6.827 6.827 0 00-3.913-1.952L9.9 5.54a5.297 5.297 0 013.03 1.511 5.296 5.296 0 011.481 2.863zm2.402-6.675A11.324 11.324 0 0010.319 0l-.216 1.544c2.14.3 4.079 1.27 5.61 2.797a9.81 9.81 0 012.751 5.306L20 9.385a11.407 11.407 0 00-3.188-6.147z"/></g></svg>