<svg xmlns="http://www.w3.org/2000/svg" width="25" height="25" viewBox="0 0 25 25"><g clip-path="url(#clip-081dd13f-6c67-47f1-89b3-62fbe9da49a0)" opacity=".5"><path fill="#8f949f" d="M13.682 20.043c-4.835 0-8.769-3.933-8.769-8.769 0-4.835 3.934-8.769 8.77-8.769 4.835 0 8.768 3.934 8.768 8.77 0 4.835-3.933 8.768-8.769 8.768zm0-20.043C7.466 0 2.408 5.058 2.408 11.274c0 2.204.636 4.26 1.732 6L.69 20.722a2.505 2.505 0 103.544 3.543l3.45-3.45a11.207 11.207 0 005.998 1.733c6.217 0 11.275-5.058 11.275-11.275C24.957 5.058 19.899 0 13.682 0z" opacity=".5"/></g></svg>