<svg xmlns="http://www.w3.org/2000/svg" width="25" height="25" viewBox="0 0 25 25"><g clip-path="url(#clip-1a05865a-aa5e-456b-b0ae-67c76fe5f950)"><path fill="#fff" d="M13.726 20.043c-4.836 0-8.77-3.933-8.77-8.769 0-4.835 3.934-8.769 8.77-8.769 4.835 0 8.769 3.934 8.769 8.77 0 4.835-3.934 8.768-8.77 8.768zm0-20.043C7.509 0 2.45 5.058 2.45 11.274c0 2.204.636 4.26 1.733 6l-3.45 3.449a2.505 2.505 0 103.543 3.543l3.45-3.45a11.207 11.207 0 005.999 1.733C19.942 22.549 25 17.49 25 11.274S19.942 0 13.726 0z"/></g></svg>