<svg xmlns="http://www.w3.org/2000/svg" width="25" height="25" viewBox="0 0 25 25"><g clip-path="url(#clip-4ff1ed67-e8dd-4043-a8b3-02c723abfb4c)"><path fill="#1492e6" d="M19.436 6.006L5.27 11.471a.407.407 0 00.004.761l3.452 1.289 1.336 4.296a.407.407 0 00.646.195l1.924-1.569a.573.573 0 01.699-.02l3.47 2.52a.407.407 0 00.638-.246L19.981 6.47a.407.407 0 00-.545-.463zM25 0v25H0V0zm-8.265 8.866l-5.568 5.175a1.154 1.154 0 00-.358.691l-.189 1.405c-.025.188-.29.207-.34.025l-.73-2.563a.68.68 0 01.297-.764l6.746-4.155c.121-.075.246.09.142.186z"/></g></svg>