<svg xmlns="http://www.w3.org/2000/svg" width="25" height="25" viewBox="0 0 25 25"><g clip-path="url(#clip-e71d3369-b279-4506-a592-18cd69c4362a)"><path fill="#7f40bd" d="M20.816 12.152a.577.577 0 01-1.136-.197c.076-.442.095-.894.056-1.346-.114-1.321-.718-2.59-1.698-3.57a6.016 6.016 0 00-3.72-1.754 5.519 5.519 0 00-1.342.047.577.577 0 11-.181-1.14 6.68 6.68 0 011.622-.056 7.172 7.172 0 014.437 2.088c1.172 1.172 1.894 2.694 2.032 4.286a6.38 6.38 0 01-.07 1.642zm-4.912-1.21c-.078-.906-.957-1.742-1.919-1.825a1.78 1.78 0 00-.226-.005.577.577 0 01-.047-1.153c.122-.005.248-.002.373.009 1.537.133 2.84 1.395 2.969 2.874.012.135.013.27.004.402a.577.577 0 01-1.151-.078 1.463 1.463 0 00-.003-.225zm1.916-.167c-.075-.871-.48-1.715-1.142-2.376a4.09 4.09 0 00-2.526-1.198 3.622 3.622 0 00-.77.015.577.577 0 01-.146-1.145 4.845 4.845 0 011.015-.02 5.246 5.246 0 013.243 1.532c.853.853 1.377 1.951 1.476 3.093.027.317.021.636-.018.948a.577.577 0 01-1.145-.146c.03-.23.034-.467.013-.703zm2.835 7.761c-.679 2.018-2.338 2.853-4.302 2.053-2.829-1.152-5.267-2.703-7.264-4.699-1.996-1.996-3.546-4.435-4.699-7.264-.8-1.964.036-3.623 2.053-4.301a1.57 1.57 0 011.073 0c.86.317 3.038 3.315 3.087 4.212.038.689-.43 1.061-.894 1.376-.877.596-.881 1.35-.507 2.192.377.848.86 1.589 1.472 2.2.611.612 1.353 1.095 2.2 1.472.842.375 1.597.37 2.192-.507.315-.464.688-.931 1.376-.894.897.049 3.895 2.227 4.212 3.088.13.356.122.71 0 1.072zM0 0v25h25V0z"/></g></svg>