<svg xmlns="http://www.w3.org/2000/svg" width="25" height="25" viewBox="0 0 25 25"><g clip-path="url(#clip-45b03437-9058-4d51-8840-93a99934c37b)"><path fill="#1bd741" d="M0 25V0h25v25z"/><path fill="#fff" d="M5.88 19.176l.706-2.505-.18-.28A7.224 7.224 0 015.26 12.48c0-3.998 3.252-7.25 7.25-7.25s7.25 3.252 7.25 7.25-3.252 7.25-7.25 7.25a7.235 7.235 0 01-3.772-1.057l-.267-.163zm2.362.922a8.72 8.72 0 004.27 1.113c4.814 0 8.73-3.917 8.73-8.732 0-4.814-3.916-8.731-8.73-8.731-4.815 0-8.732 3.917-8.732 8.731a8.7 8.7 0 001.202 4.424l-1.225 4.35z"/><path fill="#fff" d="M10.058 8.415l-.566-.03a.685.685 0 00-.487.166c-.275.239-.714.7-.849 1.3-.201.897.11 1.994.914 3.091.805 1.097 2.304 2.853 4.956 3.602.854.242 1.526.079 2.045-.253a1.83 1.83 0 00.796-1.16l.09-.423a.294.294 0 00-.164-.328l-1.915-.883a.294.294 0 00-.355.087l-.752.975a.215.215 0 01-.242.072c-.514-.181-2.239-.903-3.185-2.726a.217.217 0 01.027-.242l.719-.831a.293.293 0 00.048-.308l-.826-1.93a.294.294 0 00-.254-.179z"/></g></svg>