<?xml version="1.0" standalone="no"?>
<!DOCTYPE svg PUBLIC "-//W3C//DTD SVG 1.1//EN" "http://www.w3.org/Graphics/SVG/1.1/DTD/svg11.dtd" >
<svg xmlns="http://www.w3.org/2000/svg" xmlns:xlink="http://www.w3.org/1999/xlink" version="1.1">
<metadata></metadata>
<defs>
<font id="neuronregular" horiz-adv-x="948" >
<font-face units-per-em="2048" ascent="1638" descent="-410" />
<missing-glyph horiz-adv-x="413" />
<glyph horiz-adv-x="0" />
<glyph horiz-adv-x="682" />
<glyph horiz-adv-x="0" />
<glyph horiz-adv-x="0" />
<glyph unicode="&#xd;" horiz-adv-x="868" />
<glyph unicode=" "  horiz-adv-x="413" />
<glyph unicode="&#x09;" horiz-adv-x="413" />
<glyph unicode="&#xa0;" horiz-adv-x="413" />
<glyph unicode="!" horiz-adv-x="415" d="M207 297q-47 0 -60.5 10t-13.5 43q0 136 -7 421t-7 435q0 32 18.5 43t69.5 11t69.5 -11t18.5 -43q0 -150 -7 -435t-7 -421q0 -33 -13.5 -43t-60.5 -10zM207 0q-56 0 -73 12t-17 51v54q0 39 17 51t73 12q57 0 74.5 -11.5t17.5 -51.5v-54q0 -40 -17.5 -51.5t-74.5 -11.5z " />
<glyph unicode="&#x22;" horiz-adv-x="534" d="M139 840q-34 0 -46 8t-15 33q-27 221 -27 321q0 35 16.5 46.5t71.5 11.5q54 0 70 -11.5t16 -46.5t-8.5 -142t-17.5 -179q-1 -25 -13.5 -33t-46.5 -8zM395 840q-34 0 -46 8t-15 33q-27 265 -27 321q0 35 17 46.5t71 11.5q55 0 71.5 -11.5t16.5 -46.5q0 -66 -26 -321 q-3 -25 -15.5 -33t-46.5 -8z" />
<glyph unicode="#" d="M635 78q-45 0 -59.5 10t-14.5 45v242h-182v-242q0 -36 -14 -45.5t-60 -9.5q-44 0 -58 9.5t-14 45.5v242h-122q-35 0 -45.5 11.5t-10.5 53.5t11 54t45 12h122v287h-122q-34 0 -45 12.5t-11 54.5t11 54t45 12h122v213q0 36 14 45.5t58 9.5q46 0 60 -9.5t14 -45.5v-213h182 v213q0 35 14.5 45t59.5 10q46 0 60 -9.5t14 -45.5v-213h127q34 0 44.5 -12t10.5 -54t-10.5 -54.5t-44.5 -12.5h-127v-287h127q34 0 44.5 -12t10.5 -54t-10.5 -53.5t-44.5 -11.5h-127v-242q0 -36 -14 -45.5t-60 -9.5zM379 793v-287h182v287h-182z" />
<glyph unicode="$" d="M494 1483q51 0 65 -10t14 -46v-163q123 -10 201 -33q27 -6 38 -23t11 -59q0 -41 -8 -55.5t-27 -14.5q-8 0 -49 9.5t-105.5 19.5t-129.5 10q-54 0 -85.5 -3t-60 -12.5t-42.5 -29t-21.5 -50.5t-7.5 -79q0 -69 20 -100.5t74 -55.5l285 -124q108 -49 148 -119.5t40 -202.5 q0 -325 -315 -356v-166q0 -35 -14.5 -45.5t-65.5 -10.5q-49 0 -63.5 10.5t-14.5 45.5v162q-143 7 -236 34q-28 8 -40.5 25.5t-12.5 58.5q0 44 7.5 57t27.5 13q4 0 102 -18.5t191 -18.5q142 0 205 45.5t63 151.5q0 81 -22 123t-82 69l-265 117q-112 49 -155 112t-43 195 q0 76 16 132.5t41.5 91t65 56.5t80 30.5t92.5 11.5v159q0 35 14.5 45.5t63.5 10.5z" />
<glyph unicode="%" horiz-adv-x="1003" d="M729 0q-60 0 -99 8.5t-66 26t-41 51.5t-19.5 77.5t-5.5 112.5q0 166 45 221.5t186 55.5q140 0 186 -56t46 -221q0 -86 -8.5 -135.5t-34.5 -83t-70 -45.5t-119 -12zM729 113q66 0 82 29t16 134q0 106 -15.5 135t-82.5 29t-83.5 -29.5t-16.5 -134.5t16.5 -134t83.5 -29z M274 707q-75 0 -119 12t-69.5 46.5t-34 84t-8.5 135.5q0 166 45 220.5t186 54.5q140 0 186 -55t46 -220q0 -86 -8.5 -136t-34.5 -84t-70 -46t-119 -12zM274 819q66 0 82.5 30t16.5 134q0 107 -16 136.5t-83 29.5t-83.5 -30t-16.5 -136q0 -105 16.5 -134.5t83.5 -29.5zM135 0 q-59 0 -59 29q0 16 18 51l670 1143q12 22 31 29.5t65 7.5q62 0 62 -27q0 -18 -21 -53l-670 -1143q-12 -22 -31 -29.5t-65 -7.5z" />
<glyph unicode="&#x26;" horiz-adv-x="1056" d="M991 573h-112v-294q0 -90 -24 -149t-76 -91t-118.5 -44.5t-164.5 -12.5q-220 0 -310 81t-90 275q0 146 58 220.5t204 84.5q-111 20 -161 96.5t-50 206.5q0 97 21 162.5t63.5 100t94.5 48t125 13.5q177 0 317 -41q25 -6 33 -20t8 -56t-8.5 -55t-28.5 -13q-5 0 -110.5 17.5 t-184.5 17.5q-92 0 -123.5 -36.5t-31.5 -155.5q0 -44 5 -74t21 -60.5t44 -48.5t76 -29t116 -11h141v126q0 35 13.5 45.5t60.5 10.5t60 -10t13 -46v-126h119q32 0 42.5 -13.5t10.5 -52.5t-10.5 -52.5t-42.5 -13.5zM498 129q127 0 177 34t50 132v278h-145q-82 0 -139.5 -11.5 t-91 -29.5t-52 -49.5t-24 -62.5t-5.5 -76q0 -58 8.5 -94.5t32.5 -66t70 -42t119 -12.5z" />
<glyph unicode="'" horiz-adv-x="278" d="M139 840q-34 0 -46 8t-15 33q-27 221 -27 321q0 35 16.5 46.5t71.5 11.5q54 0 70 -11.5t16 -46.5t-8.5 -142t-17.5 -179q-1 -25 -13.5 -33t-46.5 -8z" />
<glyph unicode="(" horiz-adv-x="411" d="M94 621q0 224 43.5 407.5t98.5 304.5q11 23 29 32t57 9q61 0 61 -37q0 -17 -19 -79.5t-41.5 -141t-41.5 -214.5t-19 -281t19 -280.5t41.5 -214.5t41.5 -142t19 -80q0 -35 -61 -35q-39 0 -57 9t-29 32q-55 121 -98.5 304.5t-43.5 406.5z" />
<glyph unicode=")" horiz-adv-x="411" d="M317 621q0 -223 -43 -407t-98 -304q-12 -24 -30 -32.5t-58 -8.5q-59 0 -59 35q0 17 18.5 80.5t40.5 142t40.5 214.5t18.5 280q0 145 -18.5 281t-40.5 214.5t-40.5 141t-18.5 79.5q0 37 59 37q40 0 57.5 -9t30.5 -32q55 -120 98 -304t43 -408z" />
<glyph unicode="*" horiz-adv-x="794" d="M397 1270q43 0 56.5 -9.5t13.5 -37.5v-179q0 -33 -12 -51q16 16 47 27l160 53q25 8 38.5 -2.5t26.5 -50.5q13 -43 9 -58t-31 -24l-160 -51q-26 -9 -49 -6q18 -8 39 -35l104 -146q16 -19 10.5 -35.5t-41.5 -41.5q-35 -26 -51.5 -26.5t-30.5 21.5l-106 146q-22 25 -25 47 q-3 -21 -20 -47l-107 -146q-14 -22 -31 -21.5t-53 26.5q-35 25 -40 41.5t10 35.5l106 146q18 24 41 35q-21 -5 -53 6l-160 51q-25 8 -30 23.5t8 58.5q13 40 27 50.5t38 2.5l160 -53q31 -11 45 -25q-8 16 -8 49v179q0 28 13 37.5t56 9.5z" />
<glyph unicode="+" d="M473 193q-46 0 -61 10t-15 41v237h-213q-33 0 -43 12.5t-10 57.5q0 46 10 59t43 13h213v237q0 32 15 42.5t61 10.5q47 0 62.5 -10.5t15.5 -42.5v-237h213q32 0 41.5 -13t9.5 -59q0 -45 -9.5 -57.5t-41.5 -12.5h-213v-237q0 -31 -15.5 -41t-62.5 -10z" />
<glyph unicode="," horiz-adv-x="321" d="M154 190q55 0 70.5 -12t15.5 -51v-57q0 -64 -27 -160l-33 -121q-14 -34 -30.5 -44.5t-57.5 -10.5q-33 0 -43 6t-10 24q0 13 13.5 104.5t13.5 151.5v107q0 39 16 51t72 12z" />
<glyph unicode="-" horiz-adv-x="649" d="M74 541q0 47 10 61t41 14h399q31 0 41 -14t10 -61t-10 -61.5t-41 -14.5h-399q-31 0 -41 14.5t-10 61.5z" />
<glyph unicode="." horiz-adv-x="356" d="M178 0q-56 0 -74 12t-18 51v64q0 39 18 51t74 12q57 0 74.5 -11.5t17.5 -51.5v-64q0 -40 -17.5 -51.5t-74.5 -11.5z" />
<glyph unicode="/" horiz-adv-x="536" d="M434 1374q74 0 74 -37q0 -7 -12 -69l-301 -1346q-7 -30 -27.5 -40.5t-63.5 -10.5q-40 0 -56.5 8t-16.5 27q0 8 12 69l303 1346q6 30 26 41.5t62 11.5z" />
<glyph unicode="0" d="M473 129q76 0 119.5 14t71.5 56t37.5 111t9.5 188v252q0 84 -3 138t-13 99t-25 68.5t-43.5 40t-64 21.5t-89.5 5q-60 0 -97.5 -9t-66.5 -30.5t-43.5 -65t-21 -106.5t-6.5 -161v-252q0 -82 3 -134.5t12.5 -97t25 -68.5t43 -41t63 -22.5t88.5 -5.5zM473 -18 q-93 0 -156 12.5t-113.5 44t-78.5 88t-42.5 140.5t-14.5 206v291q0 129 16.5 219t46 146.5t81.5 87.5t112 42t149 11q80 0 137 -8t104.5 -30t77 -57.5t50 -93t29 -134t8.5 -183.5v-291q0 -104 -11 -182t-35.5 -132t-56.5 -89t-80 -54t-100 -26.5t-123 -7.5z" />
<glyph unicode="1" d="M756 0h-557q-30 0 -41 15.5t-11 60.5q0 46 11 62t41 16h192v929l-176 -55q-27 -8 -45 -8q-31 0 -31 76q0 44 7.5 60t29.5 22l217 69q35 13 84 13q51 0 67.5 -11t16.5 -43v-1052h195q30 0 40.5 -15.5t10.5 -62.5q0 -45 -10.5 -60.5t-40.5 -15.5z" />
<glyph unicode="2" d="M295 154h491q30 0 41 -16t11 -62q0 -45 -11 -60.5t-41 -15.5h-624q-30 0 -41.5 12t-11.5 49v134q0 57 9.5 98.5t35.5 80.5t52 66.5t79 77.5l280 262q47 45 65.5 77t18.5 91q0 48 -6.5 78t-18.5 49.5t-38.5 29t-57.5 12.5t-84 3q-85 0 -178 -19.5t-96 -19.5 q-18 0 -24.5 13.5t-6.5 54.5q0 42 11 58t38 24q128 39 301 39q43 0 73.5 -2t68 -9t63 -19.5t51.5 -35.5t41.5 -55t25 -79t9.5 -107q0 -39 -4.5 -70t-19 -62t-25.5 -49.5t-42.5 -51.5t-49 -49.5t-64.5 -59.5l-235 -218q-33 -30 -47.5 -47.5t-26.5 -51t-12 -81.5v-69z" />
<glyph unicode="3" d="M481 -18q-84 0 -178 10.5t-153 27.5q-29 8 -41.5 24t-12.5 56q0 44 7.5 57t27.5 13q5 0 118 -18.5t200 -18.5q70 0 115 13.5t69 43.5t32.5 67.5t8.5 94.5q0 56 -11 92t-44.5 67.5t-101.5 46.5t-175 15q-30 0 -40.5 15t-10.5 57t10.5 57t40.5 15q89 0 150 14.5t94.5 44.5 t47 67.5t13.5 90.5q0 115 -36 150.5t-158 35.5q-79 0 -179.5 -18.5t-105.5 -18.5q-19 0 -27 14t-8 56q0 40 11.5 55.5t37.5 22.5q131 39 322 39q80 0 134.5 -13.5t98 -48.5t64 -99.5t20.5 -162.5q0 -256 -231 -297q143 -10 199.5 -83.5t56.5 -219.5q0 -191 -89.5 -277.5 t-275.5 -86.5z" />
<glyph unicode="4" d="M674 0q-53 0 -69.5 10.5t-16.5 44.5v271h-471q-37 0 -48.5 15.5t-11.5 70.5t21 92l399 696q22 40 51.5 50t106.5 10q73 0 98 -11t25 -43v-735h82q30 0 40.5 -13t10.5 -59t-10.5 -59.5t-40.5 -13.5h-82v-271q0 -34 -16.5 -44.5t-67.5 -10.5zM584 1108l-355 -637h365l2 637 h-12z" />
<glyph unicode="5" d="M440 -18q-141 0 -272 41q-29 7 -40 20.5t-11 54.5q0 44 6.5 57t26.5 13l88 -20q88 -19 174 -19q64 0 104.5 5.5t71 19.5t45.5 41.5t22 66.5t7 100v68q0 67 -9.5 106.5t-34.5 60.5t-57 27.5t-88 6.5q-80 0 -171 -18.5t-107 -18.5q-21 0 -32 2t-20.5 13.5t-9.5 33.5v565 q0 31 12.5 41.5t49.5 10.5h542q30 0 40.5 -15t10.5 -61q0 -47 -10.5 -62.5t-40.5 -15.5h-446v-358q102 26 213 26q33 0 54.5 -0.5t51.5 -4t50.5 -10t45.5 -18.5t41 -29t33 -42.5t27 -58.5t16 -77t6 -98v-86q0 -96 -20.5 -164t-53 -107.5t-86 -61.5t-105 -28.5t-124.5 -6.5z " />
<glyph unicode="6" d="M469 -18q-57 0 -98 4t-83.5 16.5t-70.5 34.5t-54 59t-41 89.5t-23.5 125.5t-8.5 168v262q0 101 12.5 181t33 135t53.5 95t66.5 62t79.5 35t85 17t90 4q119 0 229 -27q20 -5 28.5 -9.5t13.5 -20.5t5 -48q0 -40 -7 -54.5t-25 -14.5q-5 0 -88.5 13t-141.5 13q-41 0 -66.5 -2 t-57.5 -9.5t-51 -23t-39.5 -43.5t-31 -69t-17.5 -101t-7 -139v-84q65 121 287 121q68 0 115 -9t87.5 -33.5t63.5 -68t36 -112t13 -166.5q0 -93 -15 -160.5t-44.5 -114t-77.5 -74.5t-108 -40t-142 -12zM471 129q62 0 100 8.5t68 34t42.5 74.5t12.5 127q0 82 -7.5 128.5 t-31.5 77.5t-63 41.5t-107 10.5q-122 0 -176.5 -44t-54.5 -161q0 -81 8 -134t22.5 -86t43 -49.5t60 -22t83.5 -5.5z" />
<glyph unicode="7" d="M342 0q-74 0 -74 37q0 21 17 65l372 1004h-510q-30 0 -40.5 15.5t-10.5 62.5q0 46 10.5 61t40.5 15h633q37 0 49.5 -15.5t12.5 -70.5q0 -11 -1 -20t-3.5 -19t-4 -15.5t-6 -19l-6.5 -19.5l-383 -1036q-10 -27 -32 -36t-64 -9z" />
<glyph unicode="8" d="M473 -18q-117 0 -190.5 18t-118.5 63.5t-62.5 114t-17.5 178.5q0 137 42 208.5t120 99.5q-67 30 -100 97.5t-33 190.5q0 62 10 110.5t26 81.5t43 57t54.5 37t68 20.5t75 9.5t83.5 2t83.5 -2t75 -9.5t68 -20.5t55 -37t43.5 -57t26 -81.5t10 -110.5q0 -122 -34 -189.5 t-100 -98.5q78 -29 121 -100.5t43 -207.5q0 -109 -17.5 -178t-63 -114.5t-119.5 -63.5t-191 -18zM473 127q70 0 109 8t66 34.5t36.5 72.5t9.5 125q0 75 -11.5 120t-41 68t-66.5 30t-102 7t-101.5 -7t-66.5 -30t-41.5 -68t-11.5 -120q0 -79 9.5 -125t36.5 -72.5t66 -34.5 t109 -8zM473 733q41 0 65.5 2t49 9t37.5 20t24 36t15 56t4 80q0 66 -9.5 104t-35.5 58t-58 25t-92 5t-91.5 -5t-57 -25t-34.5 -58t-9 -104q0 -71 9 -111t34.5 -61t57 -26t91.5 -5z" />
<glyph unicode="9" d="M416 -18q-21 0 -41.5 1t-34.5 2.5t-36.5 4.5t-32.5 4.5t-37 6.5t-37 7q-31 7 -41.5 20.5t-10.5 59.5q0 40 8 55t27 15q4 0 77.5 -14.5t135.5 -14.5q39 0 64 1t54.5 5t47.5 12t38.5 22t32.5 34.5t23.5 49t17.5 67t9.5 87.5t3.5 111v74q-32 -57 -97.5 -85t-178.5 -28 q-69 0 -115.5 9t-86 33.5t-62 68.5t-34.5 112.5t-12 167.5q0 154 38.5 241t117 123t215.5 36q50 0 87 -3t75 -12t65.5 -25t53.5 -41.5t43 -63t30 -87.5t19 -116.5t6 -149.5v-260q0 -82 -7.5 -150t-20 -119t-33.5 -91t-42.5 -67t-53.5 -46.5t-60 -30.5t-67.5 -17t-71.5 -7.5 t-76 -1.5zM461 623q121 0 172 43t51 161q0 69 -3.5 116t-14.5 81.5t-25 53.5t-41 30.5t-56 14.5t-75 3q-64 0 -100.5 -8t-63.5 -34.5t-37 -74t-10 -128.5q0 -84 6.5 -129.5t29 -77t61 -41.5t106.5 -10z" />
<glyph unicode=":" horiz-adv-x="356" d="M178 0q-56 0 -74 12t-18 51v64q0 39 18 51t74 12q57 0 74.5 -11.5t17.5 -51.5v-64q0 -40 -17.5 -51.5t-74.5 -11.5zM178 829q-56 0 -74 12.5t-18 51.5v63q0 39 18 51.5t74 12.5q57 0 74.5 -12t17.5 -52v-63q0 -40 -17.5 -52t-74.5 -12z" />
<glyph unicode=";" horiz-adv-x="327" d="M147 190q55 0 70.5 -12t15.5 -51v-57q0 -67 -26 -160l-33 -121q-14 -34 -30.5 -44.5t-57.5 -10.5q-33 0 -43 6t-10 24q0 13 13 104.5t13 151.5v107q0 39 16 51t72 12zM150 829q-56 0 -74.5 12.5t-18.5 51.5v63q0 39 18.5 51.5t74.5 12.5q57 0 74.5 -12t17.5 -52v-63 q0 -40 -17.5 -52t-74.5 -12z" />
<glyph unicode="&#x3c;" d="M276 541l418 -154q43 -15 53.5 -32t10.5 -72q0 -42 -8.5 -56t-28.5 -14q-23 0 -45 10l-486 195q-40 15 -51.5 40t-11.5 93t12 92t51 39l486 195q30 10 45 10q20 0 28.5 -15t8.5 -57q0 -55 -10.5 -71t-53.5 -31l-418 -156v-16z" />
<glyph unicode="=" d="M166 412q0 46 9.5 58.5t41.5 12.5h512q32 0 41.5 -12.5t9.5 -58.5t-9.5 -58t-41.5 -12h-512q-32 0 -41.5 12t-9.5 58zM166 707q0 45 9.5 57t41.5 12h512q32 0 41.5 -12t9.5 -57q0 -46 -9.5 -59t-41.5 -13h-512q-32 0 -41.5 13t-9.5 59z" />
<glyph unicode="&#x3e;" d="M252 387l418 154v16l-418 156q-43 15 -53.5 31t-10.5 71q0 42 8.5 57t28.5 15q15 0 45 -10l486 -195q39 -15 51 -39t12 -92t-11.5 -93t-51.5 -40l-486 -195q-22 -10 -45 -10q-20 0 -28.5 14t-8.5 56q0 55 10.5 72t53.5 32z" />
<glyph unicode="?" horiz-adv-x="737" d="M315 297q-47 0 -62 10.5t-15 42.5v72q0 81 17 125t60 90l154 168q31 33 46 70t15 100q0 93 -39 119t-161 26q-82 0 -170 -18.5t-90 -18.5q-20 0 -27.5 13t-7.5 55t11 57t40 23q125 39 283 39q59 0 102 -4.5t89.5 -21t75 -44.5t47.5 -79t19 -122q0 -98 -25 -154.5 t-85 -119.5l-146 -160q-27 -30 -39 -61.5t-12 -93.5v-60q0 -32 -16 -42.5t-64 -10.5zM315 0q-56 0 -74 12t-18 51v54q0 39 18 51t74 12q57 0 75 -12t18 -51v-54q0 -39 -18 -51t-75 -12z" />
<glyph unicode="@" horiz-adv-x="1675" d="M758 -20q-83 0 -138 16t-93 49.5t-58 98t-28.5 149t-8.5 213.5q0 109 9.5 190.5t30 139t48.5 94.5t71 58.5t90.5 29.5t113.5 8q95 0 159.5 -31.5t98.5 -107.5v65q0 35 14.5 44.5t65.5 9.5q50 0 63.5 -9.5t13.5 -44.5v-663q0 -178 113 -178q47 0 74.5 21t45 89.5 t17.5 194.5v213q0 96 -7.5 170.5t-25.5 134.5t-42.5 103.5t-63.5 75.5t-84 52t-109 32.5t-133 17t-161 4.5q-121 0 -207 -10t-159 -36.5t-118.5 -70t-77.5 -113t-45.5 -163t-13.5 -222.5v-219q0 -123 15 -215t49.5 -159.5t82.5 -111t121.5 -69.5t159 -36.5t201.5 -10.5 q30 0 41.5 -13.5t11.5 -56.5t-13 -56t-51 -13q-136 0 -239.5 13.5t-193.5 46.5t-151.5 88t-106 138t-65 198t-20.5 265v201q0 131 15.5 234.5t45 183.5t77.5 138t108.5 97.5t143.5 63t176.5 33.5t212.5 10q141 0 245.5 -12.5t196 -43.5t152.5 -83.5t105.5 -132.5t64.5 -191 t20 -258v-215q0 -109 -18.5 -190.5t-47 -128t-70.5 -74t-82 -36.5t-89 -9q-101 0 -157.5 42.5t-82.5 137.5q-69 -180 -313 -180zM797 125q53 0 89 6t68.5 24t50.5 51t28.5 86t10.5 130v160q0 70 -5 116.5t-19 84.5t-39 58.5t-62.5 31t-93.5 10.5t-90.5 -9t-61.5 -31.5 t-40.5 -68t-20 -112t-6.5 -170.5q0 -96 5 -156.5t16.5 -104.5t34.5 -65.5t54 -31t81 -9.5z" />
<glyph unicode="A" horiz-adv-x="1058" d="M117 0q-49 0 -65.5 8.5t-16.5 30.5q0 19 10 53l326 1094q15 50 42 62t115 12q90 0 117.5 -12t42.5 -62l324 -1094q10 -34 10 -53q0 -21 -16.5 -30t-63.5 -9q-52 0 -70 9t-26 36l-98 332h-443l-94 -332q-8 -27 -25 -36t-69 -9zM516 1112l-172 -600h369l-170 600h-27z" />
<glyph unicode="B" horiz-adv-x="1048" d="M526 -18q-186 0 -331 16q-41 4 -54.5 18t-13.5 47v1123q0 34 13.5 48t45.5 19q136 17 295 17q61 0 101.5 -1.5t86 -6t74 -14t58 -24.5t47 -37.5t31.5 -54.5t20 -73.5t6 -95.5q0 -127 -32 -197t-115 -98q104 -25 148 -100t44 -228q0 -104 -17.5 -169t-65.5 -109 t-129.5 -62t-211.5 -18zM295 1114v-387h199q79 0 121.5 7t70 32.5t35.5 65.5t8 114q0 43 -2.5 68.5t-12 47.5t-23 32.5t-42 18t-62 9.5t-89.5 2q-118 0 -203 -10zM295 594v-459q71 -10 237 -10q58 0 94 3t65 13t43.5 24t24.5 43t12.5 62t2.5 88q0 77 -8.5 120t-36 70.5 t-71 36.5t-121.5 9h-242z" />
<glyph unicode="C" horiz-adv-x="923" d="M524 -18q-44 0 -75.5 1.5t-68.5 6t-63 14t-55 24t-49 37t-40 52.5t-32.5 71t-23 92.5t-15 117t-4.5 143.5v155q0 88 6 160t16.5 127t29 98t38 73.5t49.5 51.5t58.5 33.5t69 19.5t77 9t86.5 2q146 0 277 -39q28 -7 38.5 -21.5t10.5 -58.5q0 -40 -7.5 -54t-25.5 -14 q-8 0 -45.5 9.5t-96 18.5t-118.5 9q-48 0 -79 -2t-63.5 -9.5t-52 -20t-38.5 -35.5t-28.5 -54t-17.5 -78t-11 -105.5t-3 -137.5v-103q0 -70 3 -125t8.5 -99t16.5 -76.5t22 -56t31 -39t38.5 -25t48.5 -14t57 -6t68 -1.5q87 0 173 19l87 18q19 0 26 -13t7 -55q0 -43 -11 -58.5 t-38 -23.5q-139 -38 -281 -38z" />
<glyph unicode="D" horiz-adv-x="1073" d="M516 133q46 0 76 2t62 9t51 19.5t38 35t29 54.5t18.5 78.5t11.5 105.5t3 138v117q0 75 -3.5 132t-12.5 102t-20.5 76.5t-32 54t-42 35.5t-55.5 20t-67.5 9.5t-82.5 2.5q-81 0 -194 -10v-971q92 -10 221 -10zM516 -18q-168 0 -319 16q-41 4 -55.5 18.5t-14.5 46.5v1123 q0 32 14.5 47t44.5 20q126 17 299 17q56 0 96 -1.5t84 -7t74.5 -15t63 -25.5t54 -38.5t42.5 -54.5t34 -73.5t23 -94.5t14.5 -118.5t4.5 -145.5v-121q0 -91 -6.5 -166t-18 -132t-31 -101.5t-41 -75.5t-53.5 -52.5t-62 -34.5t-73.5 -20t-81.5 -9t-92 -2z" />
<glyph unicode="E" horiz-adv-x="931" d="M870 76q0 -45 -10.5 -60.5t-40.5 -15.5h-631q-37 0 -49 10t-12 41v1157q0 31 12 41.5t49 10.5h611q30 0 40.5 -15t10.5 -61q0 -47 -10.5 -62.5t-40.5 -15.5h-504v-367h391q31 0 41 -13.5t10 -59.5q0 -47 -10 -61.5t-41 -14.5h-391v-436h524q30 0 40.5 -15.5t10.5 -62.5z " />
<glyph unicode="F" horiz-adv-x="864" d="M211 0q-51 0 -67.5 10.5t-16.5 44.5v1153q0 31 12 41.5t49 10.5h596q30 0 41 -15t11 -61t-11 -62t-41 -16h-489v-367h375q33 0 43 -13.5t10 -59.5q0 -47 -10.5 -61.5t-42.5 -14.5h-375v-535q0 -34 -16.5 -44.5t-67.5 -10.5z" />
<glyph unicode="G" horiz-adv-x="1005" d="M508 -18q-62 0 -102.5 3.5t-88.5 15.5t-78.5 35t-61 64t-47.5 100t-27.5 144.5t-10.5 196.5v155q0 99 7 177.5t22.5 137t34.5 101t49.5 71t61 46t75 26.5t84.5 12t98 3q164 0 295 -39q28 -7 38.5 -21.5t10.5 -58.5q0 -41 -6 -54.5t-24 -13.5l-101 19q-101 18 -182 18 q-43 0 -71.5 -1.5t-59 -6.5t-49 -15t-38 -25.5t-30.5 -40t-21.5 -56t-15 -75.5t-7.5 -98t-3 -124v-103q0 -79 3.5 -139.5t12 -106t18.5 -78t28.5 -54.5t36 -34.5t47 -19t55 -8.5t65.5 -2q87 0 133 20t69.5 79t23.5 174v129h-197q-28 0 -37.5 15t-9.5 62q0 42 9.5 56t37.5 14 h279q44 0 57.5 -11t13.5 -40v-250q0 -118 -21 -194.5t-70.5 -122.5t-122 -64t-183.5 -18z" />
<glyph unicode="H" horiz-adv-x="1062" d="M295 727h473v479q0 32 16.5 43t67.5 11q52 0 68 -10.5t16 -43.5v-1151q0 -34 -16 -44.5t-68 -10.5q-51 0 -67.5 10.5t-16.5 44.5v523h-473v-523q0 -34 -16.5 -44.5t-67.5 -10.5t-67.5 10.5t-16.5 44.5v1151q0 32 16.5 43t67.5 11t67.5 -11t16.5 -43v-479z" />
<glyph unicode="I" horiz-adv-x="421" d="M211 0q-51 0 -67.5 10.5t-16.5 44.5v1151q0 32 16.5 43t67.5 11t67.5 -11t16.5 -43v-1151q0 -34 -16.5 -44.5t-67.5 -10.5z" />
<glyph unicode="J" horiz-adv-x="686" d="M264 -18q-110 0 -194 26q-29 8 -40.5 24t-11.5 56q0 42 6.5 53t26.5 11q8 0 68 -9.5t108 -9.5q97 0 130.5 37t33.5 147v889q0 32 16.5 43t67.5 11t67.5 -11t16.5 -43v-899q0 -173 -72.5 -249t-222.5 -76z" />
<glyph unicode="K" horiz-adv-x="937" d="M211 0q-51 0 -67.5 10.5t-16.5 44.5v1151q0 32 16.5 43t67.5 11t67.5 -11t16.5 -43v-504h29l368 519q17 25 36.5 32t74.5 7q45 0 63.5 -8t18.5 -27q0 -21 -27 -60l-389 -522l410 -539q28 -38 28 -65q0 -21 -16.5 -30t-67.5 -9q-46 0 -67.5 8t-38.5 31l-395 547h-27v-531 q0 -34 -16.5 -44.5t-67.5 -10.5z" />
<glyph unicode="L" horiz-adv-x="866" d="M295 154h483q30 0 40.5 -15.5t10.5 -62.5q0 -45 -10.5 -60.5t-40.5 -15.5h-590q-37 0 -49 10t-12 41v1155q0 32 16.5 43t67.5 11t67.5 -11t16.5 -43v-1052z" />
<glyph unicode="M" horiz-adv-x="1294" d="M211 0q-51 0 -67.5 10.5t-16.5 44.5v1143q0 37 23 49.5t104 12.5q75 0 103 -12.5t46 -59.5l238 -647h12l238 647q18 47 46.5 59.5t104.5 12.5q80 0 102.5 -12.5t22.5 -49.5v-1143q0 -34 -16.5 -44.5t-67.5 -10.5t-67.5 10.5t-16.5 44.5q0 660 2 977h-14l-239 -641 q-15 -39 -34.5 -50t-66.5 -11q-46 0 -65.5 11.5t-34.5 49.5l-238 641h-16q2 -317 2 -977q0 -34 -16.5 -44.5t-67.5 -10.5z" />
<glyph unicode="N" horiz-adv-x="1112" d="M211 0q-51 0 -67.5 10.5t-16.5 44.5v1151q0 33 23 43.5t98 10.5q66 0 91.5 -9t41.5 -45l416 -946h20v946q0 33 16 43.5t68 10.5q51 0 67.5 -11t16.5 -43v-1151q0 -34 -21.5 -44.5t-97.5 -10.5q-64 0 -87 9t-40 44l-424 948h-20v-946q0 -34 -16.5 -44.5t-67.5 -10.5z" />
<glyph unicode="O" horiz-adv-x="1073" d="M537 129q59 0 96.5 5t70.5 22.5t50.5 46t30.5 80t17.5 120.5t4.5 172v101q0 106 -3.5 173t-15.5 120.5t-28.5 80.5t-49.5 45t-71.5 22.5t-101.5 4.5q-60 0 -96.5 -5t-70 -22t-50.5 -45.5t-30.5 -80t-17.5 -120.5t-4 -173v-101q0 -106 3.5 -172.5t15 -120t28 -80.5 t49.5 -45.5t71.5 -23t101.5 -4.5zM537 -18q-66 0 -113 3.5t-93.5 14t-77 29t-58.5 49.5t-44.5 73.5t-29.5 102.5t-18 136t-5 175v117q0 102 6 181.5t20.5 139.5t32 103.5t47.5 73t60.5 47.5t76.5 27.5t89.5 12.5t106.5 3q68 0 115.5 -3.5t93.5 -14.5t76.5 -29.5t58.5 -49.5 t44 -73.5t28 -103.5t17 -137.5t5 -176.5v-117q0 -100 -6 -179t-20.5 -138.5t-32.5 -102.5t-48 -72.5t-60.5 -47.5t-76.5 -27.5t-89 -12.5t-105 -3z" />
<glyph unicode="P" horiz-adv-x="989" d="M211 0q-51 0 -67.5 10.5t-16.5 44.5v1131q0 58 59 65q141 19 320 19q80 0 133.5 -4.5t103 -18.5t79 -38.5t52.5 -65.5t32 -99t9 -139q0 -233 -99 -327.5t-345 -94.5h-176v-428q0 -34 -16.5 -44.5t-67.5 -10.5zM295 1114v-489h180q157 0 210.5 56t53.5 218 q0 142 -46 183.5t-201 41.5q-80 0 -197 -10z" />
<glyph unicode="Q" horiz-adv-x="1073" d="M537 -18q-66 0 -113 3.5t-93.5 14t-77 29t-58.5 49.5t-44.5 73.5t-29.5 102.5t-18 136t-5 175v117q0 102 6 181.5t20.5 139.5t32 103.5t47.5 73t60.5 47.5t76.5 27.5t89.5 12.5t106.5 3q68 0 115.5 -3.5t93.5 -14.5t76.5 -29.5t58.5 -49.5t44 -73.5t28 -103.5t17 -137.5 t5 -176.5v-117q0 -249 -41 -373t-131 -169l90 -164q22 -40 22 -58t-16 -26t-59 -8q-41 0 -59 8.5t-31 34.5l-95 178q-55 -6 -118 -6zM537 129q59 0 96.5 5t70.5 22.5t50.5 46t30.5 80t17.5 120.5t4.5 172v101q0 106 -3.5 173t-15.5 120.5t-28.5 80.5t-49.5 45t-71.5 22.5 t-101.5 4.5q-60 0 -96.5 -5t-70 -22t-50.5 -45.5t-30.5 -80t-17.5 -120.5t-4 -173v-101q0 -106 3.5 -172.5t15 -120t28 -80.5t49.5 -45.5t71.5 -23t101.5 -4.5z" />
<glyph unicode="R" horiz-adv-x="1021" d="M211 0q-51 0 -67.5 10.5t-16.5 44.5v1131q0 58 59 65q141 19 320 19q96 0 156.5 -7t113.5 -27t81 -58.5t43 -99.5t15 -152q0 -157 -48.5 -243.5t-159.5 -121.5l221 -473q16 -39 16 -51q0 -19 -16 -28t-58 -9q-59 0 -78 8t-30 35l-207 494q-23 -2 -74 -2h-186v-480 q0 -34 -16.5 -44.5t-67.5 -10.5zM295 1114v-448h190q152 0 203 50.5t51 203.5q0 66 -9 103.5t-38 61t-74.5 31.5t-125.5 8q-69 0 -197 -10z" />
<glyph unicode="S" horiz-adv-x="940" d="M444 -18q-171 0 -303 38q-29 8 -41 25t-12 59t7.5 55t27.5 13q4 0 102 -18.5t191 -18.5q142 0 205 45.5t63 151.5q0 81 -21 121t-81 67l-265 119q-77 35 -117.5 69.5t-61.5 91t-21 146.5q0 83 19.5 143.5t49 95t77 54t92.5 25.5t106 6q180 0 311 -39q25 -6 36 -23t11 -59 q0 -41 -8 -55.5t-27 -14.5q-8 0 -49 9.5t-105.5 19.5t-129.5 10q-54 0 -85.5 -3t-59.5 -12.5t-41.5 -29t-21 -50.5t-7.5 -79q0 -70 23.5 -101.5t88.5 -60.5l265 -118q108 -49 148 -118.5t40 -201.5q0 -82 -20.5 -145t-55.5 -104t-87.5 -66.5t-111.5 -36t-131 -10.5z" />
<glyph unicode="T" horiz-adv-x="878" d="M438 0q-51 0 -67.5 10.5t-16.5 44.5v1051h-282q-30 0 -41 16t-11 62t11 61t41 15h733q30 0 41.5 -15t11.5 -61t-11.5 -62t-41.5 -16h-281v-1051q0 -34 -16.5 -44.5t-69.5 -10.5z" />
<glyph unicode="U" horiz-adv-x="1067" d="M535 -18q-219 0 -313.5 86.5t-94.5 293.5v844q0 32 16.5 43t67.5 11t67.5 -11t16.5 -43v-850q0 -124 49.5 -172.5t190.5 -48.5q139 0 188 48.5t49 172.5v850q0 32 16.5 43t67.5 11q52 0 68 -10.5t16 -43.5v-844q0 -207 -94 -293.5t-311 -86.5z" />
<glyph unicode="V" horiz-adv-x="1040" d="M532 147l293 1067q8 28 26.5 37t72.5 9q50 0 66 -6.5t16 -28.5q0 -12 -15 -66l-317 -1091q-12 -44 -39 -56t-115 -12t-114.5 12t-38.5 56l-318 1091q-14 51 -14 66q0 22 16 28.5t66 6.5q53 0 71.5 -9t26.5 -37l293 -1067h24z" />
<glyph unicode="W" horiz-adv-x="1628" d="M434 0q-79 0 -108.5 12.5t-38.5 55.5l-246 1101q-6 48 -6 50q0 24 16.5 32.5t65.5 8.5q53 0 71.5 -9t24.5 -37l217 -1056h25l231 1024q6 35 34 46t95 11q66 0 93.5 -11t33.5 -46l232 -1024h24l217 1056q6 28 24.5 37t71.5 9q49 0 65.5 -8.5t16.5 -32.5q0 -2 -6 -50 l-246 -1101q-9 -43 -38.5 -55.5t-108.5 -12.5q-77 0 -107 13.5t-40 58.5l-222 952h-20l-223 -952q-10 -44 -40.5 -58t-107.5 -14z" />
<glyph unicode="X" horiz-adv-x="987" d="M129 0q-48 0 -66 10t-18 31t25 61l331 545l-311 508q-24 47 -24 64q0 21 19 31t67 10q51 0 71 -8.5t35 -37.5l231 -405h9l229 405q15 29 36 37.5t73 8.5q48 0 66 -10t18 -31q0 -22 -25 -62l-313 -508l336 -545q24 -41 24 -63q0 -41 -84 -41q-52 0 -71.5 8t-34.5 37 l-256 449h-9l-251 -449q-15 -29 -35 -37t-72 -8z" />
<glyph unicode="Y" horiz-adv-x="931" d="M465 0q-51 0 -67.5 10.5t-16.5 44.5v428l-324 672q-22 48 -22 66q0 20 17 29.5t61 9.5q59 0 79.5 -8.5t30.5 -37.5l238 -548h10l238 548q11 29 30.5 37.5t77.5 8.5q45 0 62.5 -9.5t17.5 -29.5q0 -16 -23 -66l-323 -672v-428q0 -34 -16.5 -44.5t-69.5 -10.5z" />
<glyph unicode="Z" horiz-adv-x="835" d="M598 1106h-469q-30 0 -41.5 16t-11.5 62t11.5 61t41.5 15h614q31 0 41.5 -15t10.5 -59q0 -31 -7 -53.5t-30 -63.5l-525 -915h512q30 0 41 -16t11 -62q0 -45 -11 -60.5t-41 -15.5h-657q-32 0 -42.5 15.5t-10.5 60.5q0 29 8 52.5t33 66.5z" />
<glyph unicode="[" horiz-adv-x="530" d="M502 -51q0 -43 -11.5 -56.5t-41.5 -13.5h-269q-38 0 -51.5 12t-13.5 43v1373q0 33 13.5 45t51.5 12h254q30 0 40.5 -13.5t10.5 -56.5q0 -45 -10.5 -59t-40.5 -14h-158v-1201h173q31 0 42 -13.5t11 -57.5z" />
<glyph unicode="\" horiz-adv-x="536" d="M434 -131q-41 0 -61 10.5t-27 40.5l-301 1348q-12 53 -12 71q0 35 73 35q42 0 62.5 -11.5t26.5 -41.5l301 -1348q14 -62 14 -69q0 -35 -76 -35z" />
<glyph unicode="]" horiz-adv-x="530" d="M29 -51q0 44 11 57.5t42 13.5h172v1201h-158q-30 0 -40.5 14t-10.5 59q0 43 10.5 56.5t40.5 13.5h254q38 0 52 -12.5t14 -44.5v-1373q0 -31 -14 -43t-52 -12h-268q-30 0 -41.5 13.5t-11.5 56.5z" />
<glyph unicode="^" d="M481 1116h-12l-162 -358q-14 -32 -30 -40.5t-70 -8.5q-42 0 -57 8.5t-15 27.5q0 8 21 56l186 399q18 38 42 50t95 12q49 0 74 -6t36.5 -17.5t22.5 -38.5l179 -399q20 -50 20 -56q0 -19 -15 -27.5t-57 -8.5q-54 0 -70 8.5t-30 40.5z" />
<glyph unicode="_" horiz-adv-x="983" d="M66 -111q0 46 10 61t41 15h749q31 0 41.5 -15t10.5 -61q0 -47 -10.5 -62t-41.5 -15h-749q-31 0 -41 15t-10 62z" />
<glyph unicode="`" horiz-adv-x="415" d="M295 1104q-34 0 -53.5 6t-27 14t-19.5 27l-117 180q-29 48 -29 64q0 32 96 32q39 0 59.5 -6.5t27.5 -15t18 -31.5l96 -184q21 -42 21 -53q0 -33 -72 -33z" />
<glyph unicode="a" horiz-adv-x="995" d="M350 -20q-137 0 -200.5 67t-63.5 221q0 158 83 224.5t288 66.5h221v158q0 54 -10 86.5t-35.5 50t-58 22.5t-89.5 5q-94 0 -198 -19.5t-109 -19.5q-33 0 -33 67q0 37 9.5 53.5t33.5 22.5q55 18 144 29.5t172 11.5q73 0 123 -6t94 -23t69.5 -48t39.5 -80t14 -119v-381 q0 -86 12 -160t23.5 -116.5t11.5 -51.5q0 -21 -15.5 -31t-64.5 -10q-44 0 -58.5 8t-23.5 39l-35 133q-44 -100 -135 -150t-209 -50zM399 121q117 0 198 67t81 185v73l-229 -6q-120 -3 -159.5 -34t-39.5 -121q0 -102 32.5 -133t116.5 -31z" />
<glyph unicode="b" horiz-adv-x="1038" d="M500 -20q-117 0 -193 15.5t-115 48t-53 72t-14 97.5v1069q0 35 16 45t68 10q51 0 67.5 -10.5t16.5 -44.5v-430q80 174 313 174q68 0 114 -8t84.5 -29.5t61.5 -57t38.5 -94t21.5 -136t6 -187.5q0 -164 -22 -267t-76 -163t-132 -82t-202 -22zM508 125q62 0 102.5 10t71 33 t46 67t23 105.5t7.5 155.5q0 89 -2.5 144.5t-11 102.5t-21 71.5t-36.5 41.5t-54 22t-76 5q-149 0 -207.5 -83.5t-58.5 -283.5v-285q0 -39 13.5 -59.5t61.5 -33.5t142 -13z" />
<glyph unicode="c" horiz-adv-x="876" d="M498 -20q-74 0 -124 6.5t-97.5 26t-77 54.5t-52 92t-32 139.5t-9.5 195.5q0 80 6 146.5t16.5 117.5t27.5 90.5t36.5 67.5t47 48t54 32t63 19t69 9t76.5 2q128 0 250 -35q30 -9 40.5 -25t10.5 -55t-7.5 -53t-23.5 -14q-4 0 -98.5 18.5t-157.5 18.5q-49 0 -80 -4t-60 -18 t-45.5 -38.5t-29 -66t-17.5 -101t-5 -143.5q0 -67 1.5 -112t6 -87.5t11.5 -68t20.5 -48t30 -34t42.5 -20t56 -11t73 -2.5q83 0 168 21.5t86 21.5q29 0 29 -68q0 -39 -9.5 -53.5t-39.5 -25.5q-51 -19 -124 -31t-132 -12z" />
<glyph unicode="d" horiz-adv-x="1060" d="M453 -20q-73 0 -125 10t-91.5 35t-64 62.5t-40 98.5t-21 135.5t-5.5 180.5q0 132 15.5 224.5t43.5 151t77 91.5t106 45t141 12q98 0 164.5 -26t102.5 -89v371q0 35 17 45t69 10q51 0 67.5 -10.5t16.5 -44.5v-913q0 -86 12 -160t23.5 -116.5t11.5 -51.5q0 -21 -16 -31 t-64 -10q-45 0 -60 8.5t-22 38.5l-29 107q-72 -174 -329 -174zM492 125q73 0 118.5 11t82 42t52 90.5t15.5 153.5v156q0 89 -9.5 143.5t-36 93t-73 53.5t-121.5 15q-78 0 -121 -13t-72 -57t-38.5 -117.5t-9.5 -203.5q0 -96 5.5 -156.5t18 -104.5t38 -65.5t60.5 -31t91 -9.5z " />
<glyph unicode="e" horiz-adv-x="958" d="M518 -20q-79 0 -132.5 6.5t-103.5 26t-80.5 54.5t-53.5 92.5t-32.5 139t-9.5 195.5q0 80 6 146.5t16 117.5t27.5 90.5t37 67.5t47 48t54.5 32t64 19t71 9t79 2q69 0 122 -10t91 -27.5t64 -49.5t42 -66.5t24.5 -88.5t11.5 -106.5t3 -128.5q0 -46 -15 -66t-58 -20h-514 q1 -77 4 -126t14 -89.5t27.5 -61.5t47 -35.5t68 -19t95.5 -4.5q69 0 134.5 10.5t105 21.5t48.5 11q29 0 29 -68q0 -39 -9.5 -53.5t-39.5 -25.5q-51 -19 -132.5 -31t-152.5 -12zM504 883q-52 0 -84.5 -6t-61 -23t-43.5 -51t-24.5 -87.5t-11.5 -135.5h423q0 43 -0.5 66t-2 56 t-5.5 50t-10.5 40t-16.5 34t-25 24.5t-34.5 19t-45.5 9.5t-58 4z" />
<glyph unicode="f" horiz-adv-x="628" d="M66 934q0 41 9.5 55.5t37.5 14.5h90v112q0 133 51 189.5t168 56.5q71 0 141 -16q30 -8 40.5 -20t10.5 -48q0 -38 -7.5 -53t-26.5 -15q-5 0 -48 5.5t-77 5.5q-56 0 -72 -24.5t-16 -117.5v-75h172q28 0 37.5 -14.5t9.5 -55.5q0 -40 -9.5 -54t-37.5 -14h-166v-811 q0 -35 -17 -45t-69 -10q-51 0 -67.5 10.5t-16.5 44.5v811h-90q-28 0 -37.5 14t-9.5 54z" />
<glyph unicode="g" horiz-adv-x="1050" d="M106 512q0 129 15.5 219.5t44 148t78 90t107.5 44.5t143 12q108 0 178 -32t106 -113l21 80q7 30 22 37.5t62 7.5q48 0 63 -9t15 -30q0 -9 -12 -52t-24 -117.5t-12 -160.5v-563q0 -114 -21.5 -197.5t-58 -135t-94 -82.5t-121 -42.5t-147.5 -11.5q-153 0 -276 24 q-29 7 -40.5 23t-11.5 59q0 39 7 53.5t26 14.5q10 0 50 -5.5t106.5 -11.5t142.5 -6q157 0 213.5 68t56.5 239v35q-80 -118 -301 -118q-72 0 -122.5 10t-89 35.5t-62 63t-38.5 100t-20.5 138.5t-5.5 185zM279 492q0 -96 5.5 -156.5t18 -104.5t38 -65.5t60.5 -31t91 -9.5 q73 0 118.5 11t82 42t52 90.5t15.5 153.5v156q0 89 -9.5 143.5t-36 93t-73 53.5t-121.5 15q-78 0 -121 -13t-72 -57t-38.5 -117.5t-9.5 -203.5z" />
<glyph unicode="h" horiz-adv-x="1017" d="M209 0q-52 0 -68 10t-16 45v1227q0 35 16 45t68 10q51 0 67.5 -10.5t16.5 -44.5v-408q40 79 117 115.5t202 36.5q83 0 138 -16t86 -51.5t43 -83t12 -117.5v-703q0 -34 -16.5 -44.5t-67.5 -10.5q-52 0 -69 10t-17 45v664q0 93 -33 126.5t-133 33.5q-144 0 -203 -79.5 t-59 -264.5v-480q0 -34 -16.5 -44.5t-67.5 -10.5z" />
<glyph unicode="i" horiz-adv-x="425" d="M209 0q-52 0 -68 10t-16 45v897q0 35 16 44.5t68 9.5q51 0 67.5 -10t16.5 -44v-897q0 -34 -16.5 -44.5t-67.5 -10.5zM209 1165q-61 0 -77.5 12t-16.5 52v43q0 41 17 53t77 12q59 0 76.5 -12.5t17.5 -52.5v-43q0 -40 -17 -52t-77 -12z" />
<glyph unicode="j" horiz-adv-x="425" d="M209 1006q51 0 67.5 -10t16.5 -44v-1093q0 -135 -50 -194.5t-165 -59.5q-69 0 -139 20q-31 8 -42.5 22t-11.5 50q0 42 7 53.5t26 11.5q8 0 48 -5t69 -5q57 0 73.5 24.5t16.5 117.5v1058q0 35 16 44.5t68 9.5zM209 1165q-61 0 -77.5 12t-16.5 52v43q0 41 17 53t77 12 q59 0 76.5 -12.5t17.5 -52.5v-43q0 -40 -17 -52t-77 -12z" />
<glyph unicode="k" horiz-adv-x="876" d="M209 0q-52 0 -68 10t-16 45v1227q0 35 16 45t68 10q51 0 67.5 -10.5t16.5 -44.5v-700h18l322 383q23 26 42 33.5t70 7.5q82 0 82 -29q0 -25 -28 -57l-338 -394l362 -440q27 -31 27 -53q0 -33 -88 -33q-47 0 -64.5 7.5t-40.5 35.5l-348 424h-16v-412q0 -34 -16.5 -44.5 t-67.5 -10.5z" />
<glyph unicode="l" horiz-adv-x="419" d="M209 0q-52 0 -68 10t-16 45v1227q0 35 16 45t68 10q51 0 67.5 -10.5t16.5 -44.5v-1227q0 -34 -16.5 -44.5t-67.5 -10.5z" />
<glyph unicode="m" horiz-adv-x="1599" d="M236 0q-52 0 -69 10t-17 45v582q0 86 -11.5 160.5t-23 117.5t-11.5 52q0 21 15 30t63 9q46 0 62 -7.5t22 -37.5l25 -113q37 93 115 135.5t212 42.5q124 0 187 -38.5t82 -117.5q37 82 110.5 119t198.5 37q83 0 138 -16t86 -51.5t43 -83t12 -117.5v-703q0 -35 -17 -45 t-69 -10q-51 0 -67.5 10.5t-16.5 44.5v664q0 93 -33 126.5t-133 33.5q-141 0 -191.5 -77.5t-50.5 -266.5v-480q0 -35 -17 -45t-69 -10q-51 0 -67.5 10.5t-16.5 44.5v664q0 93 -33 126.5t-133 33.5q-141 0 -191.5 -77.5t-50.5 -266.5v-480q0 -35 -16 -45t-67 -10z" />
<glyph unicode="n" horiz-adv-x="1044" d="M236 0q-52 0 -69 10t-17 45v582q0 86 -11.5 160.5t-23 117.5t-11.5 52q0 21 15 30t63 9q46 0 61.5 -7.5t22.5 -37.5l29 -121q41 96 124.5 141t219.5 45q83 0 138 -16t86 -51.5t43 -83t12 -117.5v-703q0 -34 -17.5 -44.5t-69.5 -10.5q-51 0 -67 10t-16 45v664 q0 93 -33 126.5t-133 33.5q-145 0 -204 -79.5t-59 -264.5v-480q0 -35 -16 -45t-67 -10z" />
<glyph unicode="o" horiz-adv-x="1017" d="M494 -20q-78 0 -132.5 8t-100.5 30t-73.5 57.5t-47 94t-27 136.5t-7.5 188q0 128 15 218.5t45 152t81.5 96.5t118 50t160.5 15q78 0 132 -8t99.5 -29.5t73 -57t46.5 -94t26.5 -136t7.5 -187.5q0 -159 -22 -261.5t-73.5 -163.5t-127.5 -85t-194 -24zM498 125q52 0 88 6 t64 23t44 42.5t27 69t14.5 97.5t3.5 133q0 89 -2.5 144.5t-11.5 102.5t-23 71.5t-40 41.5t-58.5 22t-83.5 5q-78 0 -123 -14t-72.5 -57.5t-36.5 -111t-9 -186.5q0 -89 2.5 -144.5t11.5 -103t23 -72t40 -42t58.5 -22.5t83.5 -5z" />
<glyph unicode="p" horiz-adv-x="1075" d="M236 -387q-52 0 -69 10t-17 45v969q0 86 -11.5 160.5t-23 117.5t-11.5 52q0 21 15 30t63 9q46 0 61.5 -7.5t22.5 -37.5l27 -111q79 176 332 176q88 0 145.5 -15.5t98 -49t61.5 -97t30 -147t9 -211.5q0 -133 -15 -225.5t-43 -151.5t-76.5 -92t-105.5 -45t-141 -12 q-100 0 -166.5 25t-102.5 85v-422q0 -35 -16 -45t-67 -10zM557 125q62 0 99.5 8.5t67.5 31t44.5 68t21.5 111.5t7 170q0 81 -3 134.5t-12.5 97t-23.5 68.5t-38.5 41.5t-56 22t-77.5 5.5q-71 0 -118 -13t-82.5 -48.5t-52 -100.5t-16.5 -166v-127q0 -89 9.5 -143t36 -92 t73 -53t121.5 -15z" />
<glyph unicode="q" horiz-adv-x="1050" d="M829 -387q-51 0 -67.5 10.5t-16.5 44.5v430q-80 -118 -301 -118q-72 0 -122.5 10t-89 35.5t-62 63t-38.5 100t-20.5 138.5t-5.5 185q0 129 15.5 219.5t44 148t78 90t107.5 44.5t143 12q108 0 178 -32t106 -113l21 80q7 30 22 37.5t62 7.5q48 0 63 -9t15 -30q0 -9 -12 -52 t-24 -117.5t-12 -160.5v-969q0 -35 -16 -45t-68 -10zM485 125q58 0 97.5 6t74.5 24t54.5 50.5t31 85.5t11.5 129v158q0 88 -9.5 142.5t-36 93t-72.5 54t-120 15.5q-52 0 -86.5 -5t-63.5 -21t-45 -41.5t-27.5 -70t-15.5 -102.5t-4 -143q0 -98 5.5 -159.5t18 -107t37.5 -67.5 t60 -31.5t90 -9.5z" />
<glyph unicode="r" horiz-adv-x="698" d="M236 0q-52 0 -69 10t-17 45v582q0 86 -11.5 160.5t-23 117.5t-11.5 52q0 21 15 30t63 9q46 0 61.5 -7.5t22.5 -37.5l29 -113q37 88 102.5 132t149.5 44q50 0 92 -12q19 -8 27 -24.5t8 -55.5q0 -70 -35 -70q-3 0 -40.5 6t-68.5 6q-112 0 -161.5 -102.5t-49.5 -292.5v-424 q0 -35 -16 -45t-67 -10z" />
<glyph unicode="s" horiz-adv-x="878" d="M408 -20q-154 0 -267 36q-29 9 -39 24.5t-10 53.5q0 70 27 70q3 0 98 -18.5t176 -18.5q121 0 172 39t51 123q0 46 -17.5 70t-59.5 42l-277 117q-143 61 -143 242q0 266 319 266q138 0 275 -35q30 -8 39.5 -23.5t9.5 -58.5q0 -28 -5.5 -43.5t-11.5 -18.5t-16 -3 q-1 0 -97 19.5t-171 19.5q-97 0 -133.5 -28.5t-36.5 -94.5q0 -49 16 -75t62 -46l268 -111q82 -33 115.5 -86.5t33.5 -144.5q0 -317 -378 -317z" />
<glyph unicode="t" horiz-adv-x="649" d="M414 -20q-116 0 -163.5 58t-47.5 193v635h-107q-26 0 -35.5 14t-9.5 54q0 41 9.5 55.5t35.5 14.5h107v155q0 34 16.5 44.5t67.5 10.5q52 0 69 -10t17 -45v-155h182q26 0 35.5 -14.5t9.5 -55.5q0 -40 -9.5 -54t-35.5 -14h-182v-600q0 -91 15 -114t71 -23q32 0 70 6t44 6 q20 0 27.5 -12.5t7.5 -52.5q0 -36 -11 -50t-38 -24q-68 -22 -145 -22z" />
<glyph unicode="u" horiz-adv-x="1024" d="M399 -20q-81 0 -135 15.5t-84.5 50t-42.5 81.5t-12 117v708q0 35 16 44.5t68 9.5q51 0 67.5 -10t16.5 -44v-669q0 -92 33 -124t133 -32q146 0 204 79.5t58 266.5v479q0 35 16 44.5t68 9.5t68 -9.5t16 -44.5v-583q0 -86 11.5 -160t23.5 -116.5t12 -51.5q0 -21 -15.5 -31 t-62.5 -10q-46 0 -61.5 8.5t-22.5 38.5l-29 115q-41 -94 -125.5 -138t-220.5 -44z" />
<glyph unicode="v" horiz-adv-x="933" d="M461 0q-76 0 -103 12t-39 51l-251 820q-17 56 -17 75q0 27 15.5 37.5t66.5 10.5q57 0 75 -11.5t30 -56.5l217 -786h20l221 786q13 45 31 56.5t74 11.5q52 0 68 -10.5t16 -37.5q0 -5 -17 -75l-262 -820q-12 -39 -41 -51t-104 -12z" />
<glyph unicode="w" horiz-adv-x="1431" d="M387 0q-71 0 -99.5 12t-37.5 51l-189 820q-10 52 -10 75q0 28 15 38t67 10q57 0 75 -10t25 -48l162 -796h23l178 766q9 40 33 53.5t88 13.5q63 0 86.5 -13.5t32.5 -53.5l178 -766h22l162 796q7 38 25 48t75 10q52 0 67 -10t15 -38q0 -23 -10 -75l-188 -820 q-9 -39 -37.5 -51t-100.5 -12q-80 0 -114 12.5t-43 50.5l-164 693h-14l-164 -693q-9 -38 -43 -50.5t-115 -12.5z" />
<glyph unicode="x" horiz-adv-x="901" d="M135 0q-84 0 -84 39q0 11 21 49l280 434l-254 387q-24 39 -24 56q0 23 20 32t72 9t70 -6.5t30 -32.5l183 -303h8l180 303q12 26 29 32.5t69 6.5q54 0 73 -9t19 -32q0 -18 -22 -54l-258 -383l282 -438q23 -41 23 -49q0 -41 -84 -41q-55 0 -76.5 9t-36.5 40l-200 344h-9 l-200 -344q-13 -30 -36 -39.5t-75 -9.5z" />
<glyph unicode="y" horiz-adv-x="929" d="M51 961q0 24 16 34.5t70 10.5q51 0 68 -7t24 -34l228 -818h16l227 818q7 27 24.5 34t66.5 7q54 0 72 -10t18 -33q0 -31 -23 -103l-297 -954q-23 -73 -39.5 -115.5t-39.5 -83t-50.5 -60t-66.5 -31t-93 -11.5q-102 0 -166 22q-27 8 -38 22.5t-11 49.5q0 41 7 54.5t28 13.5 q3 0 55 -7.5t107 -7.5q68 0 95.5 24.5t49.5 102.5l33 121q-55 1 -80 23t-41 75l-229 731q-31 100 -31 132z" />
<glyph unicode="z" horiz-adv-x="811" d="M750 74q0 -40 -10 -57t-35 -17h-601q-27 0 -37 15t-10 55q0 42 8 68t33 61l467 659h-420q-27 0 -37 17t-10 57q0 41 10 57.5t37 16.5h560q26 0 35.5 -14.5t9.5 -53.5q0 -74 -35 -123l-473 -668h463q26 0 35.5 -17t9.5 -56z" />
<glyph unicode="{" horiz-adv-x="618" d="M215 442q0 58 -21 82.5t-71 24.5q-31 0 -41 13.5t-10 60.5q0 46 10 59.5t41 13.5q50 0 71 24.5t21 82.5q0 64 -2 184.5t-2 188.5q0 104 37 153t135 49q74 0 168 -16q24 -4 31.5 -18.5t7.5 -51.5q0 -38 -9 -51.5t-30 -13.5q-13 0 -64 2t-75 2q-23 0 -31 -15.5t-8 -60.5 q0 -59 2 -175.5t2 -176.5q0 -71 -25 -118.5t-78 -57.5v-9q53 -10 78 -57.5t25 -118.5q0 -60 -2 -176t-2 -176q0 -43 8 -58.5t31 -15.5q24 0 75 2t64 2q21 0 30 -13.5t9 -51.5t-7.5 -53t-31.5 -19q-82 -14 -168 -14q-98 0 -135 49t-37 152q0 68 2 188t2 184z" />
<glyph unicode="|" horiz-adv-x="354" d="M176 -387q-46 0 -58 10.5t-12 50.5v1639q0 40 12 50.5t58 10.5q47 0 59.5 -10.5t12.5 -50.5v-1639q0 -40 -12.5 -50.5t-59.5 -10.5z" />
<glyph unicode="}" horiz-adv-x="618" d="M236 -131q-86 0 -168 14q-24 4 -31.5 19t-7.5 53t9 51.5t30 13.5q13 0 63.5 -2t75.5 -2q23 0 31 15.5t8 58.5q0 60 -2 176t-2 176q0 71 24.5 118.5t77.5 57.5v9q-53 10 -77.5 57.5t-24.5 118.5q0 60 2 176.5t2 175.5q0 45 -8 60.5t-31 15.5q-25 0 -75.5 -2t-63.5 -2 q-21 0 -30 13.5t-9 51.5q0 37 7.5 51.5t31.5 18.5q94 16 168 16q98 0 135 -49t37 -153q0 -68 -2.5 -188.5t-2.5 -184.5q0 -57 21 -82t72 -25q31 0 41 -13.5t10 -59.5q0 -47 -10 -60.5t-41 -13.5q-51 0 -72 -25t-21 -82q0 -64 2.5 -184t2.5 -188q0 -103 -37 -152t-135 -49z " />
<glyph unicode="~" d="M168 539q0 33 11 51.5t40 36.5q53 37 123 37q43 0 140.5 -23t133.5 -23q41 0 84.5 19.5t47.5 19.5q16 0 22 -12t6 -49q0 -33 -10.5 -52t-38.5 -36q-53 -37 -123 -37q-44 0 -141 22.5t-133 22.5q-41 0 -84 -19.5t-49 -19.5q-15 0 -22 13t-7 49z" />
<glyph unicode="&#xa1;" horiz-adv-x="415" d="M209 963q46 0 60 -10.5t14 -43.5q0 -136 7 -421t7 -435q0 -32 -18 -42.5t-70 -10.5t-70 10.5t-18 42.5q0 150 7 435t7 421q0 33 14 43.5t60 10.5zM209 1260q56 0 73 -12t17 -52v-53q0 -40 -17 -52t-73 -12q-57 0 -74.5 12t-17.5 52v53q0 40 17.5 52t74.5 12z" />
<glyph unicode="&#xa2;" d="M510 1260q47 0 62.5 -10t15.5 -44v-145q94 -6 182 -29q31 -9 41 -23.5t10 -54.5q0 -39 -7 -53t-23 -14q-7 0 -51 9.5t-109.5 18.5t-124.5 9q-41 0 -67.5 -3t-52.5 -13t-41 -28t-27 -49t-16.5 -76t-4.5 -108q0 -67 2.5 -108.5t11.5 -77t23 -53.5t40.5 -30.5t59 -16 t84.5 -3.5q70 0 132 11t99 21.5t46 10.5q26 0 26 -67q0 -38 -9.5 -51.5t-39.5 -24.5q-90 -31 -184 -41v-162q0 -34 -15.5 -44.5t-62.5 -10.5q-46 0 -61 10.5t-15 44.5v158q-67 3 -113 14t-85.5 38t-62.5 73.5t-35.5 118.5t-12.5 174q0 106 15 183t40 123.5t66 74t84.5 38 t103.5 13.5v143q0 34 15 44t61 10z" />
<glyph unicode="&#xa3;" d="M582 623q0 -40 -10.5 -52t-39.5 -12h-157v-102q0 -176 -60 -303h482q30 0 41.5 -16t11.5 -62q0 -45 -11.5 -60.5t-41.5 -15.5h-611q-38 0 -49.5 10t-11.5 41q0 32 21 85t42 128t21 160v135h-96q-30 0 -41 12t-11 52q0 38 10.5 49.5t41.5 11.5h96v258q0 179 80.5 253.5 t238.5 74.5q139 0 236 -27q27 -6 38 -22t11 -56q0 -41 -7 -53t-26 -12q-7 0 -82 10t-125 10q-116 0 -157 -39t-41 -161v-236h157q29 0 39.5 -11.5t10.5 -49.5z" />
<glyph unicode="&#xa4;" d="M256 133q-66 0 -66 27q0 9 21 63l43 99q-33 31 -46 85t-13 144t13 144t46 85l-43 101q-21 54 -21 63q0 27 66 27q46 0 61.5 -7t24.5 -30l43 -103q67 5 90 5t86 -5l47 103q11 24 26 30.5t60 6.5q66 0 66 -27q0 -9 -21 -63l-45 -101q62 -59 62 -229t-62 -229l45 -99 q21 -54 21 -63q0 -27 -66 -27q-46 0 -61 6t-25 31l-45 102q-27 -4 -88 -4t-88 4l-45 -102q-10 -25 -25 -31t-61 -6zM475 393q47 0 70 4t39 22t20 47.5t4 86.5q0 105 -23 131.5t-110 26.5t-110 -26.5t-23 -131.5q0 -57 4 -86.5t20 -47.5t39 -22t70 -4z" />
<glyph unicode="&#xa5;" d="M473 0q-51 0 -67.5 10.5t-16.5 44.5v176h-190q-30 0 -41 12.5t-11 51.5q0 38 10.5 49.5t41.5 11.5h190v115h-192q-30 0 -40 12.5t-10 51.5t10 51t40 12h149l-274 559q-21 48 -21 62q0 24 16.5 32.5t65.5 8.5q54 0 73.5 -8.5t31.5 -37.5l231 -536h10l232 536 q12 29 30 37.5t72 8.5q49 0 65.5 -8.5t16.5 -32.5q0 -22 -21 -62l-274 -559h152q30 0 40.5 -12t10.5 -51t-10.5 -51.5t-40.5 -12.5h-193v-115h193q30 0 39.5 -11t9.5 -50t-9.5 -51.5t-39.5 -12.5h-193v-176q0 -34 -16.5 -44.5t-69.5 -10.5z" />
<glyph unicode="&#xa6;" horiz-adv-x="354" d="M176 575q-45 0 -57.5 10.5t-12.5 49.5v678q0 40 12 50.5t58 10.5q47 0 59.5 -10.5t12.5 -50.5v-678q0 -39 -12.5 -49.5t-59.5 -10.5zM176 -387q-46 0 -58 10.5t-12 50.5v678q0 39 12.5 49.5t57.5 10.5q47 0 59.5 -10.5t12.5 -49.5v-678q0 -40 -12.5 -50.5t-59.5 -10.5z " />
<glyph unicode="&#xa7;" horiz-adv-x="933" d="M98 512q0 163 92 225q-41 35 -59 88.5t-18 141.5q0 78 19.5 135t49.5 88.5t78 50t93 24t106 5.5q178 0 309 -39q27 -6 38 -23t11 -59q0 -41 -8.5 -55.5t-26.5 -14.5q-8 0 -49.5 9.5t-106 19.5t-128.5 10q-128 0 -172.5 -28t-44.5 -125q0 -64 19.5 -95.5t72.5 -54.5 l278 -117q104 -43 147.5 -112.5t43.5 -177.5q0 -149 -80 -215q48 -40 67 -98.5t19 -153.5q0 -97 -30 -163t-87.5 -101t-126.5 -49.5t-162 -14.5q-167 0 -303 39q-29 8 -41 25t-12 59t7.5 54.5t27.5 12.5q4 0 101.5 -18t189.5 -18q149 0 208.5 35t59.5 126q0 80 -21 118.5 t-81 64.5l-293 125q-102 42 -144.5 106.5t-42.5 169.5zM266 535q0 -65 20 -101t72 -57l277 -117q39 31 39 127q0 68 -19.5 106.5t-76.5 61.5l-265 113q-47 -28 -47 -133z" />
<glyph unicode="&#xa8;" horiz-adv-x="598" d="M150 1165q-57 0 -74 12t-17 52v43q0 40 17 52.5t74 12.5q56 0 73 -12.5t17 -52.5v-43q0 -40 -16.5 -52t-73.5 -12zM451 1165q-58 0 -75.5 12t-17.5 52v43q0 40 17.5 52.5t75.5 12.5q56 0 73 -12.5t17 -52.5v-43q0 -40 -16.5 -52t-73.5 -12z" />
<glyph unicode="&#xa9;" horiz-adv-x="1810" d="M905 -129q149 0 257.5 17t187.5 58.5t128 99t78 149.5t39.5 198.5t10.5 257.5q0 110 -6 194t-20.5 161.5t-39 133.5t-63 104.5t-90.5 79.5t-123 53.5t-159 32t-200 9.5t-200 -9.5t-159 -32t-123 -53.5t-90 -79.5t-62.5 -104.5t-39.5 -133.5t-20.5 -161.5t-5.5 -194 q0 -151 10.5 -257.5t39.5 -198.5t78 -149.5t127.5 -99t187 -58.5t257.5 -17zM905 -262q-122 0 -223 12t-181 34t-143 58.5t-110 79.5t-80.5 103t-55.5 123t-34.5 145.5t-17.5 165t-5 186.5t5 186.5t17.5 165t34.5 145.5t55.5 123t80.5 103t110 79.5t143 58.5t181 34t223 12 t223 -12t181.5 -34t143.5 -58.5t109.5 -79.5t80.5 -103t55.5 -123t34 -145.5t17.5 -165t5 -186.5t-5 -186.5t-17.5 -165t-34 -145.5t-55.5 -123t-80.5 -103t-109.5 -79.5t-143.5 -58.5t-181.5 -34t-223 -12zM918 123q-62 0 -107 4.5t-88.5 18t-72.5 37.5t-54.5 61.5 t-39.5 92.5t-22 129t-8 171q0 103 10 183t26.5 135.5t45.5 95t59 62.5t74.5 35.5t85 16.5t97.5 4q128 0 250 -34q29 -9 39 -25t10 -55t-7.5 -53.5t-23.5 -14.5q-2 0 -96.5 18.5t-159.5 18.5q-59 0 -94 -7t-66 -27.5t-46 -62t-23.5 -107.5t-8.5 -167q0 -89 2.5 -144 t12.5 -102t25 -70.5t44 -40.5t65 -21.5t93 -4.5q61 0 117.5 11t92.5 21.5t46 10.5q29 0 29 -67q0 -39 -10.5 -54t-40.5 -26q-51 -19 -123.5 -31t-132.5 -12z" />
<glyph unicode="&#xaa;" horiz-adv-x="753" d="M272 514q-112 0 -159 49t-47 164q0 119 55.5 169t202.5 50h180v66q0 80 -26.5 107.5t-104.5 27.5q-71 0 -148 -14.5t-84 -14.5q-15 0 -21.5 12.5t-6.5 45.5q0 30 6.5 42t27.5 19q31 12 100 22.5t134 10.5q72 0 117.5 -8.5t80 -32.5t49.5 -67t15 -111v-209q0 -69 7.5 -130 t14.5 -97.5t7 -45.5q0 -17 -13 -25.5t-51 -8.5q-35 0 -47 6.5t-18 33.5l-23 91q-62 -152 -248 -152zM307 633q197 0 197 201v16l-207 -8q-57 -1 -75.5 -22.5t-18.5 -84.5q0 -62 23.5 -82t80.5 -20z" />
<glyph unicode="&#xab;" horiz-adv-x="1210" d="M817 508v-16l279 -240q28 -25 36.5 -45t8.5 -66q0 -65 -33 -65q-18 0 -45 20l-350 264q-38 28 -51 52.5t-13 87.5q0 45 7.5 71t18.5 38.5t38 31.5l350 264q34 21 45 21q33 0 33 -66q0 -46 -8 -65.5t-37 -44.5zM242 508v-16l293 -220q29 -22 37 -40.5t8 -69.5 q0 -66 -31 -66q-17 0 -45 21l-371 250q-36 25 -48.5 49t-12.5 84q0 61 12.5 85.5t48.5 49.5l371 250q32 20 45 20q31 0 31 -65q0 -51 -8 -70t-37 -41z" />
<glyph unicode="&#xac;" d="M719 293q-50 0 -64 10t-14 43v156h-438q-32 0 -42.5 13.5t-10.5 59.5t10.5 60t42.5 14h532q38 0 51 -10t13 -41v-252q0 -33 -15 -43t-65 -10z" />
<glyph unicode="&#xad;" horiz-adv-x="649" d="M74 541q0 47 10 61t41 14h399q31 0 41 -14t10 -61t-10 -61.5t-41 -14.5h-399q-31 0 -41 14.5t-10 61.5z" />
<glyph unicode="&#xae;" horiz-adv-x="1810" d="M905 -262q-122 0 -223 12t-181 34t-143 58.5t-110 79.5t-80.5 103t-55.5 123t-34.5 145.5t-17.5 165t-5 186.5t5 186.5t17.5 165t34.5 145.5t55.5 123t80.5 103t110 79.5t143 58.5t181 34t223 12t223 -12t181.5 -34t143.5 -58.5t109.5 -79.5t80.5 -103t55.5 -123 t34 -145.5t17.5 -165t5 -186.5t-5 -186.5t-17.5 -165t-34 -145.5t-55.5 -123t-80.5 -103t-109.5 -79.5t-143.5 -58.5t-181.5 -34t-223 -12zM905 -129q149 0 257.5 17t187.5 58.5t128 99t78 149.5t39.5 198.5t10.5 257.5q0 110 -6 194t-20.5 161.5t-39 133.5t-63 104.5 t-90.5 79.5t-123 53.5t-159 32t-200 9.5t-200 -9.5t-159 -32t-123 -53.5t-90 -79.5t-62.5 -104.5t-39.5 -133.5t-20.5 -161.5t-5.5 -194q0 -151 10.5 -257.5t39.5 -198.5t78 -149.5t127.5 -99t187 -58.5t257.5 -17zM633 143q-51 0 -68.5 11t-17.5 45v895q0 55 61 65 q141 19 297 19q78 0 130.5 -4t98.5 -16.5t73 -33.5t47 -55.5t28 -82t8 -114.5q0 -134 -41.5 -202.5t-144.5 -94.5l199 -350q18 -36 18 -47q0 -19 -17.5 -27t-62.5 -8q-55 0 -73.5 8t-30.5 35l-181 369h-237v-356q0 -34 -17 -45t-69 -11zM719 1022v-338h170q78 0 119 5.5 t68 27.5t34.5 57.5t7.5 102.5q0 99 -41 127t-180 28q-93 0 -178 -10z" />
<glyph unicode="&#xaf;" horiz-adv-x="532" d="M55 1247q0 45 10.5 59.5t43.5 14.5h315q32 0 42.5 -14t10.5 -60q0 -45 -10 -59t-43 -14h-315q-33 0 -43.5 14t-10.5 59z" />
<glyph unicode="&#xb0;" horiz-adv-x="890" d="M440 690q-87 0 -139 13t-83 48t-41.5 86.5t-10.5 139.5q0 89 9.5 139.5t40 88t85.5 51.5t148 14q166 0 221 -57.5t55 -227.5q0 -59 -3.5 -98t-14.5 -75t-30 -57t-51 -37t-77 -22t-109 -6zM311 975q0 -73 11.5 -105.5t36.5 -42.5t81 -10q94 0 117 29.5t23 138.5 q0 56 -5 86t-21.5 47t-38.5 21t-66 4q-92 0 -115 -29.5t-23 -138.5z" />
<glyph unicode="&#xb1;" d="M168 618q0 42 10 55t43 13h178v199q0 31 13.5 41t60.5 10q45 0 58.5 -10t13.5 -41v-199h180q31 0 41 -13t10 -55t-9.5 -53.5t-41.5 -11.5h-180v-199q0 -31 -13.5 -41t-58.5 -10q-47 0 -60.5 10t-13.5 41v199h-178q-33 0 -43 11.5t-10 53.5zM205 139q0 43 10 55.5t41 12.5 h434q31 0 41 -12.5t10 -55.5q0 -45 -9.5 -57t-41.5 -12h-434q-32 0 -41.5 12t-9.5 57z" />
<glyph unicode="&#xb2;" horiz-adv-x="739" d="M264 733h299q27 0 37 -12t10 -51q0 -40 -10.5 -53t-36.5 -13h-411q-28 0 -39 11t-11 44v31q0 30 13 51.5t47 57.5l205 215q42 44 57.5 75.5t15.5 65.5q0 54 -21.5 72t-80.5 18q-54 0 -111.5 -12t-62.5 -12q-16 0 -21.5 9t-5.5 46q0 33 10 46t35 19q88 25 180 25 q52 0 88.5 -7t69.5 -25.5t49.5 -56t16.5 -93.5q0 -73 -24 -117.5t-97 -122.5z" />
<glyph unicode="&#xb3;" horiz-adv-x="757" d="M373 594q-100 0 -195 27q-25 6 -35 19t-10 46q0 36 6 45.5t21 9.5q7 0 72 -12t116 -12q69 0 101 22.5t32 85.5q0 28 -6 46t-24.5 34.5t-58 24.5t-101.5 8q-23 0 -30 11.5t-7 41.5q0 32 7.5 44t29.5 12q105 0 138.5 23.5t33.5 86.5q0 53 -23.5 70.5t-87.5 17.5 q-47 0 -106.5 -12t-65.5 -12q-17 0 -23.5 9t-6.5 46q0 33 10.5 45.5t36.5 19.5q87 25 186 25q53 0 89 -7t68 -25.5t48 -55.5t16 -94q0 -170 -145 -195q168 -11 168 -180q0 -65 -20.5 -109t-59 -66t-79.5 -31t-95 -9z" />
<glyph unicode="&#xb4;" horiz-adv-x="415" d="M121 1104q-72 0 -72 33q0 11 21 53l96 184q11 23 17.5 31.5t27 15t59.5 6.5q97 0 97 -32q0 -16 -29 -64l-117 -180q-12 -19 -19.5 -27t-27 -14t-53.5 -6z" />
<glyph unicode="&#xb5;" horiz-adv-x="1013" d="M201 -387q-52 0 -69 10t-17 45v1284q0 34 16.5 44t69.5 10q51 0 67.5 -10t16.5 -44v-669q0 -92 32.5 -124t133.5 -32q146 0 204 79.5t58 266.5v479q0 35 16 44.5t68 9.5t68 -9.5t16 -44.5v-583q0 -86 11.5 -160t23.5 -116.5t12 -51.5q0 -21 -15.5 -31t-62.5 -10 q-46 0 -61.5 8.5t-22.5 38.5l-29 115q-41 -94 -120.5 -138t-202.5 -44q-85 0 -129 16v-328q0 -34 -16.5 -44.5t-67.5 -10.5z" />
<glyph unicode="&#xb6;" horiz-adv-x="1146" d="M479 -395q-123 0 -246 24q-29 7 -41 23t-12 59q0 39 8 53.5t27 14.5q2 0 93 -11.5t175 -11.5q54 0 92.5 7t65.5 24t43.5 39t25.5 59.5t12 77.5t3 100v1043h-100v-645q0 -30 -12.5 -46.5t-45.5 -23.5q-71 -18 -166 -18q-153 0 -207.5 94t-54.5 334q0 260 63.5 359.5 t239.5 99.5h566q30 0 40.5 -15t10.5 -61q0 -47 -10.5 -62.5t-40.5 -15.5h-115v-1032q0 -96 -12 -169t-37.5 -124.5t-59 -86t-82 -54t-101.5 -27.5t-122 -8z" />
<glyph unicode="&#xb7;" horiz-adv-x="366" d="M182 463q-56 0 -74 12t-18 51v64q0 39 18 51t74 12q57 0 74.5 -11.5t17.5 -51.5v-64q0 -40 -17.5 -51.5t-74.5 -11.5z" />
<glyph unicode="&#xb8;" horiz-adv-x="452" d="M215 -422q-65 0 -106 10q-30 5 -42 18t-12 48q0 38 8 50.5t29 12.5q6 0 36.5 -3t59.5 -3t42.5 6t13.5 29q0 9 -1.5 14.5t-7.5 11t-10 8.5t-17.5 10.5t-21.5 12.5q-35 21 -49 45t-14 70v117h123v-88q0 -14 1.5 -21t8 -15t20.5 -17q74 -43 96.5 -73t22.5 -95 q0 -148 -180 -148z" />
<glyph unicode="&#xb9;" horiz-adv-x="733" d="M154 670q0 38 9 48.5t38 10.5h114v492l-104 -31q-24 -8 -37 -8q-29 0 -29 59q0 33 7 45.5t26 18.5l137 47q38 10 82 10q36 0 46 -9t10 -40v-584h120q25 0 35 -11t10 -48q0 -41 -10 -53.5t-35 -12.5h-372q-29 0 -38 12t-9 54z" />
<glyph unicode="&#xba;" horiz-adv-x="794" d="M383 514q-62 0 -102 6t-80 27.5t-62 61t-35.5 108t-13.5 168.5q0 86 8 149t27.5 105.5t43.5 68.5t63.5 39.5t79.5 18t100 4.5q63 0 102.5 -5.5t80 -26.5t62 -60t35 -107t13.5 -168q0 -87 -8 -150.5t-27.5 -106t-43.5 -69t-63.5 -40.5t-79.5 -18.5t-100 -4.5zM387 635 q54 0 83 7.5t51.5 34t30 75t7.5 133.5q0 74 -5.5 121.5t-14.5 77t-29.5 44t-42 19t-59.5 4.5q-43 0 -68.5 -4.5t-48 -18.5t-33 -42t-16.5 -72.5t-6 -112.5q0 -73 5.5 -120.5t15 -77.5t29 -44.5t41.5 -19t60 -4.5z" />
<glyph unicode="&#xbb;" horiz-adv-x="1210" d="M561 500q0 -64 -12 -88.5t-49 -51.5l-353 -264q-27 -20 -45 -20q-15 0 -22.5 13.5t-7.5 51.5q0 47 7.5 66.5t35.5 44.5l278 240v16l-278 242q-28 25 -35.5 44t-7.5 66q0 38 7.5 52t22.5 14q11 0 45 -21l353 -264q37 -27 49 -51.5t12 -89.5zM1141 500q0 -60 -13 -84 t-51 -49l-370 -250q-28 -21 -45 -21q-31 0 -31 66q0 51 8 69.5t37 40.5l293 220v16l-293 221q-29 22 -37 41t-8 70q0 65 31 65q13 0 45 -20l370 -250q38 -25 51 -49.5t13 -85.5z" />
<glyph unicode="&#xbc;" horiz-adv-x="1497" d="M1266 0q-40 0 -56 9t-16 36v117h-315q-21 0 -29 13t-8 46q0 58 22 92l262 408q15 24 39.5 31.5t81.5 7.5q55 0 71.5 -10t16.5 -43v-433h56q25 0 34 -12t9 -45q0 -35 -8.5 -45t-34.5 -10h-56v-117q0 -27 -15 -36t-54 -9zM539 0q-35 0 -48.5 6t-13.5 23q0 10 15 51 l430 1153q9 25 24.5 34t54.5 9q35 0 48.5 -6t13.5 -23q0 -13 -14 -51l-431 -1153q-9 -25 -24.5 -34t-54.5 -9zM80 1147q0 32 7 44.5t26 18.5l135 47q34 11 84 11q35 0 45 -9t10 -40v-584h121q25 0 35 -11.5t10 -50.5t-10 -51t-35 -12h-373q-29 0 -38 11.5t-9 51.5t9 51 t38 11h115v491l-105 -30q-27 -9 -36 -9q-29 0 -29 60zM1202 633l-225 -359h225v359z" />
<glyph unicode="&#xbd;" horiz-adv-x="1507" d="M539 0q-35 0 -48.5 6t-13.5 23q0 10 15 51l430 1153q9 25 24.5 34t54.5 9q35 0 48.5 -6t13.5 -23q0 -13 -14 -51l-431 -1153q-9 -25 -24.5 -34t-54.5 -9zM88 573q0 40 9 51t38 11h115v491l-105 -30q-27 -9 -36 -9q-29 0 -29 60q0 32 7 44.5t26 18.5l135 47q46 11 84 11 q35 0 45 -9t10 -40v-584h121q25 0 35 -11.5t10 -50.5t-10 -51t-35 -12h-373q-29 0 -38 11.5t-9 51.5zM1452 63q0 -39 -10 -51t-37 -12h-412q-27 0 -38 11t-11 44v31q0 29 12.5 50t47.5 59l204 215q42 45 58 76t16 65q0 53 -21.5 70.5t-80.5 17.5q-54 0 -111.5 -12.5 t-62.5 -12.5q-16 0 -22.5 10t-6.5 46q0 33 10.5 46t36.5 21q94 23 180 23q52 0 88.5 -6.5t69 -24.5t49 -55.5t16.5 -93.5q0 -74 -23.5 -120t-96.5 -122l-201 -211h299q26 0 36.5 -12.5t10.5 -51.5z" />
<glyph unicode="&#xbe;" horiz-adv-x="1470" d="M1241 0q-40 0 -56 9t-16 36v117h-315q-22 0 -29.5 12.5t-7.5 46.5q0 56 23 92l262 408q15 24 39.5 31.5t81.5 7.5q55 0 71.5 -10t16.5 -43v-433h55q25 0 34 -12t9 -45q0 -35 -8.5 -45t-34.5 -10h-55v-117q0 -27 -15 -36t-55 -9zM299 500q-102 0 -197 26q-25 6 -35 19.5 t-10 46.5q0 36 6 45.5t21 9.5q7 0 72 -12t118 -12q68 0 100 23t32 85q0 27 -6 45t-24.5 35t-58.5 25t-102 8q-22 0 -29.5 11t-7.5 42t7.5 42t29.5 11q105 0 139.5 24t34.5 87q0 54 -23 71t-87 17q-48 0 -109 -11.5t-66 -11.5q-17 0 -23.5 9.5t-6.5 46.5q0 33 10.5 45.5 t36.5 19.5q91 25 186 25q53 0 89 -7t68 -25.5t48 -55.5t16 -94q0 -170 -145 -195q170 -11 170 -180q0 -52 -14.5 -91t-38 -62.5t-57.5 -37.5t-68 -19t-76 -5zM512 0q-33 0 -46 6t-13 23q0 19 12 51l432 1153q9 25 25 34t55 9q34 0 46.5 -6t12.5 -23q0 -19 -12 -51 l-430 -1153q-9 -25 -26 -34t-56 -9zM1178 633l-226 -359h226v359z" />
<glyph unicode="&#xbf;" horiz-adv-x="737" d="M422 967q48 0 64 -11t16 -45v-69q0 -80 -17.5 -123.5t-60.5 -91.5l-156 -168q-30 -32 -44.5 -69.5t-14.5 -100.5q0 -94 39 -120t160 -26q82 0 171 18.5t91 18.5q18 0 25 -13.5t7 -55.5q0 -40 -11 -55t-40 -23q-131 -41 -282 -41q-59 0 -102 4.5t-89.5 21t-75.5 45 t-48 79.5t-19 122q0 97 25.5 153t86.5 122l146 157q27 30 39 63t12 95v57q0 34 16 45t62 11zM422 1264q57 0 74.5 -12t17.5 -52v-53q0 -40 -17.5 -52t-74.5 -12q-56 0 -74 12.5t-18 51.5v53q0 39 18 51.5t74 12.5z" />
<glyph unicode="&#xc0;" horiz-adv-x="1058" d="M117 0q-49 0 -65.5 8.5t-16.5 30.5q0 19 10 53l326 1094q15 50 42 62t115 12q90 0 117.5 -12t42.5 -62l324 -1094q10 -34 10 -53q0 -21 -16.5 -30t-63.5 -9q-52 0 -70 9t-26 36l-98 332h-443l-94 -332q-8 -27 -25 -36t-69 -9zM516 1112l-172 -600h369l-170 600h-27z M539 1350q-48 0 -66 10t-35 37l-116 180q-29 48 -29 63q0 33 96 33q39 0 59.5 -6.5t27.5 -15t18 -31.5l96 -184q20 -40 20 -54q0 -32 -71 -32z" />
<glyph unicode="&#xc1;" horiz-adv-x="1058" d="M117 0q-49 0 -65.5 8.5t-16.5 30.5q0 19 10 53l326 1094q15 50 42 62t115 12q90 0 117.5 -12t42.5 -62l324 -1094q10 -34 10 -53q0 -21 -16.5 -30t-63.5 -9q-52 0 -70 9t-26 36l-98 332h-443l-94 -332q-8 -27 -25 -36t-69 -9zM516 1112l-172 -600h369l-170 600h-27z M516 1350q-72 0 -72 32q0 12 21 54l96 184q11 23 18 31.5t27.5 15t59.5 6.5q96 0 96 -33q0 -15 -29 -63l-117 -180q-12 -19 -19.5 -27t-27 -14t-53.5 -6z" />
<glyph unicode="&#xc2;" horiz-adv-x="1058" d="M117 0q-49 0 -65.5 8.5t-16.5 30.5q0 19 10 53l326 1094q15 50 42 62t115 12q90 0 117.5 -12t42.5 -62l324 -1094q10 -34 10 -53q0 -21 -16.5 -30t-63.5 -9q-52 0 -70 9t-26 36l-98 332h-443l-94 -332q-8 -27 -25 -36t-69 -9zM516 1112l-172 -600h369l-170 600h-27z M535 1546h-13l-98 -155q-15 -25 -33.5 -33t-60.5 -8q-66 0 -66 32q0 13 23 52l121 200q13 23 29 31t57 8h69q41 0 57 -8t29 -31l121 -200q23 -39 23 -52q0 -32 -66 -32q-42 0 -60.5 8t-33.5 33z" />
<glyph unicode="&#xc3;" horiz-adv-x="1058" d="M117 0q-49 0 -65.5 8.5t-16.5 30.5q0 19 10 53l326 1094q15 50 42 62t115 12q90 0 117.5 -12t42.5 -62l324 -1094q10 -34 10 -53q0 -21 -16.5 -30t-63.5 -9q-52 0 -70 9t-26 36l-98 332h-443l-94 -332q-8 -27 -25 -36t-69 -9zM516 1112l-172 -600h369l-170 600h-27z M258 1456q0 34 10 49.5t39 34.5q56 37 121 37q45 0 112 -21.5t99 -21.5q41 0 84 19.5t47 19.5q16 0 21.5 -11.5t5.5 -48.5q0 -35 -10.5 -51t-38.5 -35q-61 -34 -123 -34q-44 0 -110.5 20.5t-98.5 20.5q-41 0 -84 -18.5t-47 -18.5q-16 0 -21.5 11t-5.5 48z" />
<glyph unicode="&#xc4;" horiz-adv-x="1058" d="M117 0q-49 0 -65.5 8.5t-16.5 30.5q0 19 10 53l326 1094q15 50 42 62t115 12q90 0 117.5 -12t42.5 -62l324 -1094q10 -34 10 -53q0 -21 -16.5 -30t-63.5 -9q-52 0 -70 9t-26 36l-98 332h-443l-94 -332q-8 -27 -25 -36t-69 -9zM516 1112l-172 -600h369l-170 600h-27z M379 1417q-57 0 -73.5 12t-16.5 52v43q0 40 17 52.5t73 12.5t73 -12.5t17 -52.5v-43q0 -40 -16.5 -52t-73.5 -12zM680 1417q-58 0 -75 12t-17 52v43q0 40 17 52.5t75 12.5q56 0 73 -12.5t17 -52.5v-43q0 -40 -16.5 -52t-73.5 -12z" />
<glyph unicode="&#xc5;" horiz-adv-x="1058" d="M117 0q-49 0 -65.5 8.5t-16.5 30.5q0 19 10 53l326 1094q15 50 42 62t115 12q90 0 117.5 -12t42.5 -62l324 -1094q10 -34 10 -53q0 -21 -16.5 -30t-63.5 -9q-52 0 -70 9t-26 36l-98 332h-443l-94 -332q-8 -27 -25 -36t-69 -9zM516 1112l-172 -600h369l-170 600h-27z M528 1489q60 0 76.5 14.5t16.5 59.5q0 44 -16.5 58.5t-76.5 14.5q-58 0 -73 -14.5t-15 -58.5q0 -46 14.5 -60t73.5 -14zM528 1376q-129 0 -173 41t-44 146t44 145.5t173 40.5q131 0 175.5 -40.5t44.5 -145.5t-44.5 -146t-175.5 -41z" />
<glyph unicode="&#xc6;" horiz-adv-x="1480" d="M117 0q-49 0 -65.5 8.5t-16.5 30.5q0 19 10 53l326 1094q15 50 42 62t115 12h820q30 0 40.5 -15t10.5 -61q0 -47 -10.5 -62.5t-40.5 -15.5h-498v-367h383q33 0 43 -13.5t10 -59.5q0 -47 -10.5 -61.5t-42.5 -14.5h-383v-436h518q30 0 40.5 -15.5t10.5 -62.5 q0 -45 -10.5 -60.5t-40.5 -15.5h-625q-38 0 -50.5 10t-12.5 41v326h-375l-94 -332q-8 -27 -25 -36t-69 -9zM516 1112l-172 -600h336v600h-164z" />
<glyph unicode="&#xc7;" horiz-adv-x="923" d="M518 -422q-51 0 -106 10q-30 7 -42 19t-12 47q0 38 8 50.5t29 12.5q6 0 37 -3t60 -3t42 6t13 29q0 9 -1.5 14.5t-7.5 11t-10 8.5t-17.5 10.5t-21.5 12.5q-35 21 -49 45t-14 70v66q-66 5 -112.5 19.5t-90 51t-69.5 97t-41 157.5t-15 232v155q0 88 6 160t16.5 127t29 98 t38 73.5t49.5 51.5t58.5 33.5t69 19.5t77 9t86.5 2q146 0 277 -39q28 -7 38.5 -21.5t10.5 -58.5q0 -40 -7.5 -54t-25.5 -14q-8 0 -45.5 9.5t-96 18.5t-118.5 9q-48 0 -79 -2t-63.5 -9.5t-52 -20t-38.5 -35.5t-28.5 -54t-17.5 -78t-11 -105.5t-3 -137.5v-103q0 -70 3 -125 t8.5 -99t16.5 -76.5t22 -56t31 -39t38.5 -25t48.5 -14t57 -6t68 -1.5q87 0 173 19l87 18q19 0 26 -13t7 -55q0 -43 -11 -58.5t-38 -23.5q-124 -32 -256 -38v-35q0 -20 5 -30t26 -23q74 -43 96 -73t22 -95q0 -148 -180 -148z" />
<glyph unicode="&#xc8;" horiz-adv-x="931" d="M870 76q0 -45 -10.5 -60.5t-40.5 -15.5h-631q-37 0 -49 10t-12 41v1157q0 31 12 41.5t49 10.5h611q30 0 40.5 -15t10.5 -61q0 -47 -10.5 -62.5t-40.5 -15.5h-504v-367h391q31 0 41 -13.5t10 -59.5q0 -47 -10 -61.5t-41 -14.5h-391v-436h524q30 0 40.5 -15.5t10.5 -62.5z M510 1350q-34 0 -53.5 6t-27 14t-19.5 27l-117 180q-29 48 -29 63q0 33 96 33q39 0 59.5 -6.5t27.5 -15t18 -31.5l96 -184q21 -42 21 -54q0 -32 -72 -32z" />
<glyph unicode="&#xc9;" horiz-adv-x="931" d="M870 76q0 -45 -10.5 -60.5t-40.5 -15.5h-631q-37 0 -49 10t-12 41v1157q0 31 12 41.5t49 10.5h611q30 0 40.5 -15t10.5 -61q0 -47 -10.5 -62.5t-40.5 -15.5h-504v-367h391q31 0 41 -13.5t10 -59.5q0 -47 -10 -61.5t-41 -14.5h-391v-436h524q30 0 40.5 -15.5t10.5 -62.5z M432 1350q-72 0 -72 32q0 12 21 54l96 184q11 23 18 31.5t27.5 15t59.5 6.5q96 0 96 -33q0 -15 -29 -63l-117 -180q-12 -19 -19.5 -27t-27 -14t-53.5 -6z" />
<glyph unicode="&#xca;" horiz-adv-x="931" d="M870 76q0 -45 -10.5 -60.5t-40.5 -15.5h-631q-37 0 -49 10t-12 41v1157q0 31 12 41.5t49 10.5h611q30 0 40.5 -15t10.5 -61q0 -47 -10.5 -62.5t-40.5 -15.5h-504v-367h391q31 0 41 -13.5t10 -59.5q0 -47 -10 -61.5t-41 -14.5h-391v-436h524q30 0 40.5 -15.5t10.5 -62.5z M498 1546h-13l-98 -155q-15 -25 -33.5 -33t-60.5 -8q-66 0 -66 32q0 13 23 52l121 200q13 23 29 31t57 8h69q41 0 57 -8t29 -31l121 -200q23 -39 23 -52q0 -32 -66 -32q-42 0 -60.5 8t-33.5 33z" />
<glyph unicode="&#xcb;" horiz-adv-x="931" d="M870 76q0 -45 -10.5 -60.5t-40.5 -15.5h-631q-37 0 -49 10t-12 41v1157q0 31 12 41.5t49 10.5h611q30 0 40.5 -15t10.5 -61q0 -47 -10.5 -62.5t-40.5 -15.5h-504v-367h391q31 0 41 -13.5t10 -59.5q0 -47 -10 -61.5t-41 -14.5h-391v-436h524q30 0 40.5 -15.5t10.5 -62.5z M342 1411q-57 0 -73.5 12t-16.5 52v43q0 40 17 52.5t73 12.5t73 -12.5t17 -52.5v-43q0 -40 -16.5 -52t-73.5 -12zM643 1411q-58 0 -75 12t-17 52v43q0 40 17 52.5t75 12.5q56 0 73 -12.5t17 -52.5v-43q0 -40 -16.5 -52t-73.5 -12z" />
<glyph unicode="&#xcc;" horiz-adv-x="421" d="M211 0q-51 0 -67.5 10.5t-16.5 44.5v1151q0 32 16.5 43t67.5 11t67.5 -11t16.5 -43v-1151q0 -34 -16.5 -44.5t-67.5 -10.5zM236 1350q-48 0 -66 10t-35 37l-117 180q-28 46 -28 63q0 33 96 33q39 0 59.5 -6.5t27 -15t17.5 -31.5l97 -184q20 -40 20 -54q0 -32 -71 -32z " />
<glyph unicode="&#xcd;" horiz-adv-x="421" d="M211 0q-51 0 -67.5 10.5t-16.5 44.5v1151q0 32 16.5 43t67.5 11t67.5 -11t16.5 -43v-1151q0 -34 -16.5 -44.5t-67.5 -10.5zM188 1350q-71 0 -71 32q0 14 20 54l96 184q11 23 18 31.5t27.5 15t59.5 6.5q96 0 96 -33q0 -17 -28 -63l-117 -180q-17 -27 -35 -37t-66 -10z" />
<glyph unicode="&#xce;" horiz-adv-x="421" d="M211 0q-51 0 -67.5 10.5t-16.5 44.5v1151q0 32 16.5 43t67.5 11t67.5 -11t16.5 -43v-1151q0 -34 -16.5 -44.5t-67.5 -10.5zM217 1546h-12l-99 -155q-15 -25 -33.5 -33t-60.5 -8q-65 0 -65 32q0 15 22 52l121 200q13 23 29 31t57 8h70q41 0 57 -8t29 -31l121 -200 q22 -37 22 -52q0 -32 -65 -32q-43 0 -61.5 8t-33.5 33z" />
<glyph unicode="&#xcf;" horiz-adv-x="421" d="M211 0q-51 0 -67.5 10.5t-16.5 44.5v1151q0 32 16.5 43t67.5 11t67.5 -11t16.5 -43v-1151q0 -34 -16.5 -44.5t-67.5 -10.5zM61 1411q-57 0 -73.5 12t-16.5 52v43q0 40 17 52.5t73 12.5q57 0 74 -12.5t17 -52.5v-43q0 -40 -17 -52t-74 -12zM362 1411q-58 0 -75 12t-17 52 v43q0 40 17 52.5t75 12.5q57 0 74 -12.5t17 -52.5v-43q0 -40 -17 -52t-74 -12z" />
<glyph unicode="&#xd0;" horiz-adv-x="1073" d="M12 639q0 47 10 61.5t41 14.5h64v471q0 32 14.5 47t44.5 20q126 17 299 17q56 0 96 -1.5t84 -7t74.5 -15t63 -25.5t54 -38.5t42.5 -54.5t34 -73.5t23 -94.5t14.5 -118.5t4.5 -145.5v-121q0 -91 -6.5 -166t-18 -132t-31 -101.5t-41 -75.5t-53.5 -52.5t-62 -34.5t-73.5 -20 t-81.5 -9t-92 -2q-168 0 -319 16q-41 4 -55.5 18.5t-14.5 46.5v500h-64q-31 0 -41 14.5t-10 61.5zM516 133q46 0 76 2t62 9t51 19.5t38 35t29 54.5t18.5 78.5t11.5 105.5t3 138v117q0 75 -3.5 132t-12.5 102t-20.5 76.5t-32 54t-42 35.5t-55.5 20t-67.5 9.5t-82.5 2.5 q-81 0 -194 -10v-401h76q31 0 41 -14.5t10 -59.5t-10 -59.5t-41 -14.5h-76v-422q92 -10 221 -10z" />
<glyph unicode="&#xd1;" horiz-adv-x="1112" d="M211 0q-51 0 -67.5 10.5t-16.5 44.5v1151q0 33 23 43.5t98 10.5q66 0 91.5 -9t41.5 -45l416 -946h20v946q0 33 16 43.5t68 10.5q51 0 67.5 -11t16.5 -43v-1151q0 -34 -21.5 -44.5t-97.5 -10.5q-64 0 -87 9t-40 44l-424 948h-20v-946q0 -34 -16.5 -44.5t-67.5 -10.5z M287 1473q0 34 10 49t39 34q56 37 121 37q45 0 112 -21.5t99 -21.5q41 0 84 19.5t47 19.5q16 0 21 -11t5 -48q0 -35 -10.5 -51t-38.5 -35q-63 -35 -123 -35q-44 0 -110.5 20.5t-98.5 20.5q-41 0 -84 -18.5t-47 -18.5q-15 0 -20.5 11.5t-5.5 48.5z" />
<glyph unicode="&#xd2;" horiz-adv-x="1073" d="M537 129q59 0 96.5 5t70.5 22.5t50.5 46t30.5 80t17.5 120.5t4.5 172v101q0 106 -3.5 173t-15.5 120.5t-28.5 80.5t-49.5 45t-71.5 22.5t-101.5 4.5q-60 0 -96.5 -5t-70 -22t-50.5 -45.5t-30.5 -80t-17.5 -120.5t-4 -173v-101q0 -106 3.5 -172.5t15 -120t28 -80.5 t49.5 -45.5t71.5 -23t101.5 -4.5zM537 -18q-66 0 -113 3.5t-93.5 14t-77 29t-58.5 49.5t-44.5 73.5t-29.5 102.5t-18 136t-5 175v117q0 102 6 181.5t20.5 139.5t32 103.5t47.5 73t60.5 47.5t76.5 27.5t89.5 12.5t106.5 3q68 0 115.5 -3.5t93.5 -14.5t76.5 -29.5t58.5 -49.5 t44 -73.5t28 -103.5t17 -137.5t5 -176.5v-117q0 -100 -6 -179t-20.5 -138.5t-32.5 -102.5t-48 -72.5t-60.5 -47.5t-76.5 -27.5t-89 -12.5t-105 -3zM586 1350q-48 0 -66 10t-35 37l-116 180q-29 48 -29 63q0 33 96 33q39 0 59.5 -6.5t27.5 -15t18 -31.5l96 -184 q20 -40 20 -54q0 -32 -71 -32z" />
<glyph unicode="&#xd3;" horiz-adv-x="1073" d="M537 129q59 0 96.5 5t70.5 22.5t50.5 46t30.5 80t17.5 120.5t4.5 172v101q0 106 -3.5 173t-15.5 120.5t-28.5 80.5t-49.5 45t-71.5 22.5t-101.5 4.5q-60 0 -96.5 -5t-70 -22t-50.5 -45.5t-30.5 -80t-17.5 -120.5t-4 -173v-101q0 -106 3.5 -172.5t15 -120t28 -80.5 t49.5 -45.5t71.5 -23t101.5 -4.5zM537 -18q-66 0 -113 3.5t-93.5 14t-77 29t-58.5 49.5t-44.5 73.5t-29.5 102.5t-18 136t-5 175v117q0 102 6 181.5t20.5 139.5t32 103.5t47.5 73t60.5 47.5t76.5 27.5t89.5 12.5t106.5 3q68 0 115.5 -3.5t93.5 -14.5t76.5 -29.5t58.5 -49.5 t44 -73.5t28 -103.5t17 -137.5t5 -176.5v-117q0 -100 -6 -179t-20.5 -138.5t-32.5 -102.5t-48 -72.5t-60.5 -47.5t-76.5 -27.5t-89 -12.5t-105 -3zM485 1350q-71 0 -71 32q0 14 20 54l96 184q11 23 18 31.5t27.5 15t59.5 6.5q96 0 96 -33q0 -15 -29 -63l-116 -180 q-17 -27 -35 -37t-66 -10z" />
<glyph unicode="&#xd4;" horiz-adv-x="1073" d="M537 129q59 0 96.5 5t70.5 22.5t50.5 46t30.5 80t17.5 120.5t4.5 172v101q0 106 -3.5 173t-15.5 120.5t-28.5 80.5t-49.5 45t-71.5 22.5t-101.5 4.5q-60 0 -96.5 -5t-70 -22t-50.5 -45.5t-30.5 -80t-17.5 -120.5t-4 -173v-101q0 -106 3.5 -172.5t15 -120t28 -80.5 t49.5 -45.5t71.5 -23t101.5 -4.5zM537 -18q-66 0 -113 3.5t-93.5 14t-77 29t-58.5 49.5t-44.5 73.5t-29.5 102.5t-18 136t-5 175v117q0 102 6 181.5t20.5 139.5t32 103.5t47.5 73t60.5 47.5t76.5 27.5t89.5 12.5t106.5 3q68 0 115.5 -3.5t93.5 -14.5t76.5 -29.5t58.5 -49.5 t44 -73.5t28 -103.5t17 -137.5t5 -176.5v-117q0 -100 -6 -179t-20.5 -138.5t-32.5 -102.5t-48 -72.5t-60.5 -47.5t-76.5 -27.5t-89 -12.5t-105 -3zM545 1546h-13l-98 -155q-15 -25 -33.5 -33t-60.5 -8q-66 0 -66 32q0 13 23 52l121 200q13 23 29 31t57 8h69q41 0 57 -8 t29 -31l121 -200q23 -39 23 -52q0 -32 -66 -32q-42 0 -60.5 8t-33.5 33z" />
<glyph unicode="&#xd5;" horiz-adv-x="1073" d="M537 129q59 0 96.5 5t70.5 22.5t50.5 46t30.5 80t17.5 120.5t4.5 172v101q0 106 -3.5 173t-15.5 120.5t-28.5 80.5t-49.5 45t-71.5 22.5t-101.5 4.5q-60 0 -96.5 -5t-70 -22t-50.5 -45.5t-30.5 -80t-17.5 -120.5t-4 -173v-101q0 -106 3.5 -172.5t15 -120t28 -80.5 t49.5 -45.5t71.5 -23t101.5 -4.5zM537 -18q-66 0 -113 3.5t-93.5 14t-77 29t-58.5 49.5t-44.5 73.5t-29.5 102.5t-18 136t-5 175v117q0 102 6 181.5t20.5 139.5t32 103.5t47.5 73t60.5 47.5t76.5 27.5t89.5 12.5t106.5 3q68 0 115.5 -3.5t93.5 -14.5t76.5 -29.5t58.5 -49.5 t44 -73.5t28 -103.5t17 -137.5t5 -176.5v-117q0 -100 -6 -179t-20.5 -138.5t-32.5 -102.5t-48 -72.5t-60.5 -47.5t-76.5 -27.5t-89 -12.5t-105 -3zM268 1456q0 34 10 49.5t39 34.5q55 37 121 37q45 0 112 -21.5t99 -21.5q41 0 84 19.5t47 19.5q16 0 21.5 -11.5t5.5 -48.5 q0 -35 -10.5 -51t-38.5 -35q-61 -34 -123 -34q-44 0 -110.5 20.5t-98.5 20.5q-41 0 -84 -18.5t-47 -18.5q-16 0 -21.5 11t-5.5 48z" />
<glyph unicode="&#xd6;" horiz-adv-x="1073" d="M537 129q59 0 96.5 5t70.5 22.5t50.5 46t30.5 80t17.5 120.5t4.5 172v101q0 106 -3.5 173t-15.5 120.5t-28.5 80.5t-49.5 45t-71.5 22.5t-101.5 4.5q-60 0 -96.5 -5t-70 -22t-50.5 -45.5t-30.5 -80t-17.5 -120.5t-4 -173v-101q0 -106 3.5 -172.5t15 -120t28 -80.5 t49.5 -45.5t71.5 -23t101.5 -4.5zM537 -18q-66 0 -113 3.5t-93.5 14t-77 29t-58.5 49.5t-44.5 73.5t-29.5 102.5t-18 136t-5 175v117q0 102 6 181.5t20.5 139.5t32 103.5t47.5 73t60.5 47.5t76.5 27.5t89.5 12.5t106.5 3q68 0 115.5 -3.5t93.5 -14.5t76.5 -29.5t58.5 -49.5 t44 -73.5t28 -103.5t17 -137.5t5 -176.5v-117q0 -100 -6 -179t-20.5 -138.5t-32.5 -102.5t-48 -72.5t-60.5 -47.5t-76.5 -27.5t-89 -12.5t-105 -3zM387 1415q-57 0 -73.5 12t-16.5 52v43q0 40 17 52.5t73 12.5t73 -12.5t17 -52.5v-43q0 -40 -16.5 -52t-73.5 -12zM688 1415 q-58 0 -75 12t-17 52v43q0 40 17 52.5t75 12.5q56 0 73 -12.5t17 -52.5v-43q0 -40 -16.5 -52t-73.5 -12z" />
<glyph unicode="&#xd7;" d="M174 262q0 14 29 53l184 236l-184 252q-29 39 -29 53q0 16 16 23.5t58 7.5q66 0 88 -31l131 -192l133 192q12 18 31.5 24.5t58.5 6.5q42 0 57 -7.5t15 -23.5q0 -10 -29 -53l-184 -252l184 -236q29 -33 29 -53q0 -16 -15 -23.5t-57 -7.5q-38 0 -57 7t-33 24l-133 180 l-131 -180q-22 -31 -88 -31q-42 0 -58 7.5t-16 23.5z" />
<glyph unicode="&#xd8;" horiz-adv-x="1073" d="M537 -18q-55 0 -94 2.5t-81 9.5t-71 20t-59 34.5t-49 52.5t-36.5 74t-27.5 99.5t-15.5 129t-5.5 161.5v117q0 133 8.5 226t31.5 160t53.5 105.5t84 60.5t112 29t149.5 7q68 0 115.5 -3.5t93.5 -14.5t76.5 -29.5t58.5 -49.5t44 -73.5t28 -103.5t17 -137.5t5 -176.5v-117 q0 -100 -6 -179t-20.5 -138.5t-32.5 -102.5t-48 -72.5t-60.5 -47.5t-76.5 -27.5t-89 -12.5t-105 -3zM268 676q0 -238 8 -314l494 666q-25 57 -77 75.5t-156 18.5q-47 0 -78.5 -2.5t-61.5 -11t-48 -21.5t-34 -38t-24 -55.5t-13.5 -79t-7.5 -104t-2 -134.5zM537 129 q59 0 96.5 5t70.5 22.5t50.5 46t30.5 80t17.5 120.5t4.5 172q0 211 -6 291l-482 -655q29 -49 78 -65.5t140 -16.5z" />
<glyph unicode="&#xd9;" horiz-adv-x="1067" d="M535 -18q-219 0 -313.5 86.5t-94.5 293.5v844q0 32 16.5 43t67.5 11t67.5 -11t16.5 -43v-850q0 -124 49.5 -172.5t190.5 -48.5q139 0 188 48.5t49 172.5v850q0 32 16.5 43t67.5 11q52 0 68 -10.5t16 -43.5v-844q0 -207 -94 -293.5t-311 -86.5zM580 1350q-48 0 -66 10 t-35 37l-117 180q-28 46 -28 63q0 33 96 33q39 0 59.5 -6.5t27.5 -15t18 -31.5l96 -184q20 -40 20 -54q0 -32 -71 -32z" />
<glyph unicode="&#xda;" horiz-adv-x="1067" d="M535 -18q-219 0 -313.5 86.5t-94.5 293.5v844q0 32 16.5 43t67.5 11t67.5 -11t16.5 -43v-850q0 -124 49.5 -172.5t190.5 -48.5q139 0 188 48.5t49 172.5v850q0 32 16.5 43t67.5 11q52 0 68 -10.5t16 -43.5v-844q0 -207 -94 -293.5t-311 -86.5zM487 1350q-71 0 -71 32 q0 14 20 54l96 184q11 23 18 31.5t27.5 15t59.5 6.5q96 0 96 -33q0 -17 -28 -63l-117 -180q-17 -27 -35 -37t-66 -10z" />
<glyph unicode="&#xdb;" horiz-adv-x="1067" d="M535 -18q-219 0 -313.5 86.5t-94.5 293.5v844q0 32 16.5 43t67.5 11t67.5 -11t16.5 -43v-850q0 -124 49.5 -172.5t190.5 -48.5q139 0 188 48.5t49 172.5v850q0 32 16.5 43t67.5 11q52 0 68 -10.5t16 -43.5v-844q0 -207 -94 -293.5t-311 -86.5zM541 1546h-13l-98 -155 q-15 -25 -33.5 -33t-60.5 -8q-66 0 -66 32q0 13 23 52l121 200q13 23 29 31t57 8h69q41 0 57 -8t29 -31l121 -200q23 -39 23 -52q0 -32 -66 -32q-42 0 -60.5 8t-33.5 33z" />
<glyph unicode="&#xdc;" horiz-adv-x="1067" d="M535 -18q-219 0 -313.5 86.5t-94.5 293.5v844q0 32 16.5 43t67.5 11t67.5 -11t16.5 -43v-850q0 -124 49.5 -172.5t190.5 -48.5q139 0 188 48.5t49 172.5v850q0 32 16.5 43t67.5 11q52 0 68 -10.5t16 -43.5v-844q0 -207 -94 -293.5t-311 -86.5zM385 1415q-57 0 -73.5 12 t-16.5 52v43q0 40 17 52.5t73 12.5t73 -12.5t17 -52.5v-43q0 -40 -16.5 -52t-73.5 -12zM686 1415q-58 0 -75 12t-17 52v43q0 40 17 52.5t75 12.5q56 0 73 -12.5t17 -52.5v-43q0 -40 -16.5 -52t-73.5 -12z" />
<glyph unicode="&#xdd;" horiz-adv-x="931" d="M465 0q-51 0 -67.5 10.5t-16.5 44.5v428l-324 672q-22 48 -22 66q0 20 17 29.5t61 9.5q59 0 79.5 -8.5t30.5 -37.5l238 -548h10l238 548q11 29 30.5 37.5t77.5 8.5q45 0 62.5 -9.5t17.5 -29.5q0 -16 -23 -66l-323 -672v-428q0 -34 -16.5 -44.5t-69.5 -10.5zM426 1350 q-72 0 -72 32q0 12 21 54l96 184q11 23 17.5 31.5t27 15t59.5 6.5q97 0 97 -33q0 -15 -29 -63l-117 -180q-12 -19 -19.5 -27t-27 -14t-53.5 -6z" />
<glyph unicode="&#xde;" horiz-adv-x="960" d="M211 0q-51 0 -67.5 10.5t-16.5 44.5v1151q0 32 16.5 43t67.5 11t67.5 -11t16.5 -43v-188q120 10 194 10q78 0 131.5 -5t102.5 -18.5t78.5 -38t52 -64.5t32 -96.5t9.5 -135.5q0 -228 -97.5 -321t-342.5 -93h-160v-201q0 -34 -16.5 -44.5t-67.5 -10.5zM295 870v-471h166 q157 0 210.5 54.5t53.5 214.5q0 134 -46.5 173.5t-201.5 39.5q-36 0 -182 -11z" />
<glyph unicode="&#xdf;" horiz-adv-x="972" d="M414 1362q179 0 258.5 -50t79.5 -173q0 -68 -25 -144t-49.5 -141t-24.5 -106q0 -46 13.5 -71.5t46.5 -49.5l127 -88q57 -38 78.5 -95.5t21.5 -152.5q0 -311 -285 -311q-106 0 -188 28q-30 11 -40.5 26t-10.5 54q0 68 28 68q5 0 67.5 -13.5t117.5 -13.5q84 0 112.5 38.5 t28.5 125.5q0 61 -9.5 90t-43.5 51l-117 76q-104 69 -104 205q0 74 46 202.5t46 188.5q0 71 -37.5 93t-134.5 22q-82 0 -102.5 -24.5t-20.5 -123.5v-1018q0 -34 -16.5 -44.5t-67.5 -10.5q-52 0 -68 10t-16 45v1045q0 72 11.5 118t43 80.5t88 49t146.5 14.5z" />
<glyph unicode="&#xe0;" horiz-adv-x="995" d="M350 -20q-137 0 -200.5 67t-63.5 221q0 158 83 224.5t288 66.5h221v158q0 54 -10 86.5t-35.5 50t-58 22.5t-89.5 5q-94 0 -198 -19.5t-109 -19.5q-33 0 -33 67q0 37 9.5 53.5t33.5 22.5q55 18 144 29.5t172 11.5q73 0 123 -6t94 -23t69.5 -48t39.5 -80t14 -119v-381 q0 -86 12 -160t23.5 -116.5t11.5 -51.5q0 -21 -15.5 -31t-64.5 -10q-44 0 -58.5 8t-23.5 39l-35 133q-44 -100 -135 -150t-209 -50zM399 121q117 0 198 67t81 185v73l-229 -6q-120 -3 -159.5 -34t-39.5 -121q0 -102 32.5 -133t116.5 -31zM543 1104q-48 0 -66 10t-35 37 l-116 180q-29 48 -29 64q0 32 96 32q39 0 59.5 -6.5t27.5 -15t18 -31.5l96 -184q20 -40 20 -53q0 -33 -71 -33z" />
<glyph unicode="&#xe1;" horiz-adv-x="995" d="M350 -20q-137 0 -200.5 67t-63.5 221q0 158 83 224.5t288 66.5h221v158q0 54 -10 86.5t-35.5 50t-58 22.5t-89.5 5q-94 0 -198 -19.5t-109 -19.5q-33 0 -33 67q0 37 9.5 53.5t33.5 22.5q55 18 144 29.5t172 11.5q73 0 123 -6t94 -23t69.5 -48t39.5 -80t14 -119v-381 q0 -86 12 -160t23.5 -116.5t11.5 -51.5q0 -21 -15.5 -31t-64.5 -10q-44 0 -58.5 8t-23.5 39l-35 133q-44 -100 -135 -150t-209 -50zM399 121q117 0 198 67t81 185v73l-229 -6q-120 -3 -159.5 -34t-39.5 -121q0 -102 32.5 -133t116.5 -31zM446 1104q-71 0 -71 33q0 13 20 53 l97 184q11 23 17.5 31.5t27 15t59.5 6.5q96 0 96 -32q0 -18 -28 -64l-117 -180q-17 -27 -35 -37t-66 -10z" />
<glyph unicode="&#xe2;" horiz-adv-x="995" d="M350 -20q-137 0 -200.5 67t-63.5 221q0 158 83 224.5t288 66.5h221v158q0 54 -10 86.5t-35.5 50t-58 22.5t-89.5 5q-94 0 -198 -19.5t-109 -19.5q-33 0 -33 67q0 37 9.5 53.5t33.5 22.5q55 18 144 29.5t172 11.5q73 0 123 -6t94 -23t69.5 -48t39.5 -80t14 -119v-381 q0 -86 12 -160t23.5 -116.5t11.5 -51.5q0 -21 -15.5 -31t-64.5 -10q-44 0 -58.5 8t-23.5 39l-35 133q-44 -100 -135 -150t-209 -50zM399 121q117 0 198 67t81 185v73l-229 -6q-120 -3 -159.5 -34t-39.5 -121q0 -102 32.5 -133t116.5 -31zM487 1300h-12l-98 -155 q-15 -25 -33.5 -33t-60.5 -8q-66 0 -66 33q0 12 23 51l120 201q13 22 28.5 30t57.5 8h70q42 0 57.5 -8t28.5 -30l121 -201q22 -37 22 -51q0 -33 -65 -33q-42 0 -60.5 8t-33.5 33z" />
<glyph unicode="&#xe3;" horiz-adv-x="995" d="M350 -20q-137 0 -200.5 67t-63.5 221q0 158 83 224.5t288 66.5h221v158q0 54 -10 86.5t-35.5 50t-58 22.5t-89.5 5q-94 0 -198 -19.5t-109 -19.5q-33 0 -33 67q0 37 9.5 53.5t33.5 22.5q55 18 144 29.5t172 11.5q73 0 123 -6t94 -23t69.5 -48t39.5 -80t14 -119v-381 q0 -86 12 -160t23.5 -116.5t11.5 -51.5q0 -21 -15.5 -31t-64.5 -10q-44 0 -58.5 8t-23.5 39l-35 133q-44 -100 -135 -150t-209 -50zM399 121q117 0 198 67t81 185v73l-229 -6q-120 -3 -159.5 -34t-39.5 -121q0 -102 32.5 -133t116.5 -31zM213 1217q0 34 10 49t39 34 q56 37 121 37q45 0 112 -21.5t99 -21.5q41 0 84 19.5t47 19.5q16 0 21.5 -11t5.5 -48q0 -34 -10.5 -50.5t-39.5 -35.5q-63 -35 -122 -35q-44 0 -110.5 20.5t-98.5 20.5q-41 0 -84 -18.5t-47 -18.5q-16 0 -21.5 11.5t-5.5 48.5z" />
<glyph unicode="&#xe4;" horiz-adv-x="995" d="M350 -20q-137 0 -200.5 67t-63.5 221q0 158 83 224.5t288 66.5h221v158q0 54 -10 86.5t-35.5 50t-58 22.5t-89.5 5q-94 0 -198 -19.5t-109 -19.5q-33 0 -33 67q0 37 9.5 53.5t33.5 22.5q55 18 144 29.5t172 11.5q73 0 123 -6t94 -23t69.5 -48t39.5 -80t14 -119v-381 q0 -86 12 -160t23.5 -116.5t11.5 -51.5q0 -21 -15.5 -31t-64.5 -10q-44 0 -58.5 8t-23.5 39l-35 133q-44 -100 -135 -150t-209 -50zM399 121q117 0 198 67t81 185v73l-229 -6q-120 -3 -159.5 -34t-39.5 -121q0 -102 32.5 -133t116.5 -31zM332 1165q-57 0 -73.5 12t-16.5 52 v43q0 40 17 52.5t73 12.5t73 -12.5t17 -52.5v-43q0 -40 -16.5 -52t-73.5 -12zM633 1165q-58 0 -75 12t-17 52v43q0 40 17 52.5t75 12.5q56 0 73 -12.5t17 -52.5v-43q0 -40 -16.5 -52t-73.5 -12z" />
<glyph unicode="&#xe5;" horiz-adv-x="995" d="M350 -20q-137 0 -200.5 67t-63.5 221q0 158 83 224.5t288 66.5h221v158q0 54 -10 86.5t-35.5 50t-58 22.5t-89.5 5q-94 0 -198 -19.5t-109 -19.5q-33 0 -33 67q0 37 9.5 53.5t33.5 22.5q55 18 144 29.5t172 11.5q73 0 123 -6t94 -23t69.5 -48t39.5 -80t14 -119v-381 q0 -86 12 -160t23.5 -116.5t11.5 -51.5q0 -21 -15.5 -31t-64.5 -10q-44 0 -58.5 8t-23.5 39l-35 133q-44 -100 -135 -150t-209 -50zM399 121q117 0 198 67t81 185v73l-229 -6q-120 -3 -159.5 -34t-39.5 -121q0 -102 32.5 -133t116.5 -31zM479 1245q60 0 76 14.5t16 59.5 q0 44 -16 59t-76 15q-58 0 -73 -14.5t-15 -59.5q0 -46 14.5 -60t73.5 -14zM479 1133q-129 0 -173 40.5t-44 145.5t44 145.5t173 40.5q131 0 175 -40.5t44 -145.5t-44 -145.5t-175 -40.5z" />
<glyph unicode="&#xe6;" horiz-adv-x="1525" d="M1051 -20q-51 0 -85.5 2t-74 9.5t-66 22.5t-52 39t-42 61.5t-26.5 88.5q-41 -111 -136 -167t-219 -56q-137 0 -200.5 67t-63.5 221q0 158 83 224.5t288 66.5h221v158q0 54 -10 86.5t-35.5 50t-58 22.5t-89.5 5q-94 0 -198 -19.5t-109 -19.5q-33 0 -33 67q0 37 9.5 53.5 t33.5 22.5q55 18 144 29.5t172 11.5q114 0 182.5 -19t104.5 -69q48 51 118 69.5t176 18.5q78 0 134.5 -12t95 -40.5t62.5 -64t36.5 -94.5t16.5 -118.5t4 -147.5q0 -46 -15 -66t-59 -20h-514q1 -80 5.5 -134.5t16.5 -92.5t26 -59t41.5 -32.5t54.5 -14.5t73 -3 q88 0 162.5 10.5t116.5 21.5t49 11q14 0 21 -14.5t7 -53.5t-9.5 -53.5t-39.5 -25.5q-50 -18 -145 -30.5t-174 -12.5zM399 121q117 0 198 67t81 185v73l-229 -6q-120 -3 -159.5 -34t-39.5 -121q0 -102 32.5 -133t116.5 -31zM1071 883q-56 0 -89.5 -6t-61.5 -23t-42 -52 t-22 -87.5t-10 -134.5h424q0 48 -0.5 74t-3 61t-8 53t-15 41t-24 34t-35 21.5t-48.5 14.5t-65 4z" />
<glyph unicode="&#xe7;" horiz-adv-x="876" d="M471 -422q-51 0 -106 10q-30 7 -42 19t-12 47q0 38 8 50.5t29 12.5q6 0 36.5 -3t59.5 -3t42.5 6t13.5 29q0 9 -1.5 14.5t-7.5 11t-10 8.5t-17.5 10.5t-21.5 12.5q-35 21 -49 45t-14 70v68q-74 9 -122.5 35.5t-84 84t-51 152t-15.5 236.5q0 80 6 146.5t16.5 117.5 t27.5 90.5t36.5 67.5t47 48t54 32t63 19t69 9t76.5 2q128 0 250 -35q30 -9 40.5 -25t10.5 -55t-7.5 -53t-23.5 -14q-4 0 -98.5 18.5t-157.5 18.5q-49 0 -80 -4t-60 -18t-45.5 -38.5t-29 -66t-17.5 -101t-5 -143.5q0 -67 1.5 -112t6 -87.5t11.5 -68t20.5 -48t30 -34t42.5 -20 t56 -11t73 -2.5q83 0 168 21.5t86 21.5q29 0 29 -68q0 -39 -9.5 -53.5t-39.5 -25.5q-107 -39 -252 -43v-33q0 -14 1.5 -21t8 -15t20.5 -17q74 -43 96.5 -73t22.5 -95q0 -148 -180 -148z" />
<glyph unicode="&#xe8;" horiz-adv-x="958" d="M518 -20q-79 0 -132.5 6.5t-103.5 26t-80.5 54.5t-53.5 92.5t-32.5 139t-9.5 195.5q0 80 6 146.5t16 117.5t27.5 90.5t37 67.5t47 48t54.5 32t64 19t71 9t79 2q69 0 122 -10t91 -27.5t64 -49.5t42 -66.5t24.5 -88.5t11.5 -106.5t3 -128.5q0 -46 -15 -66t-58 -20h-514 q1 -77 4 -126t14 -89.5t27.5 -61.5t47 -35.5t68 -19t95.5 -4.5q69 0 134.5 10.5t105 21.5t48.5 11q29 0 29 -68q0 -39 -9.5 -53.5t-39.5 -25.5q-51 -19 -132.5 -31t-152.5 -12zM504 883q-52 0 -84.5 -6t-61 -23t-43.5 -51t-24.5 -87.5t-11.5 -135.5h423q0 43 -0.5 66t-2 56 t-5.5 50t-10.5 40t-16.5 34t-25 24.5t-34.5 19t-45.5 9.5t-58 4zM547 1104q-48 0 -66 10t-35 37l-116 180q-29 48 -29 64q0 32 96 32q39 0 59.5 -6.5t27.5 -15t18 -31.5l96 -184q20 -40 20 -53q0 -33 -71 -33z" />
<glyph unicode="&#xe9;" horiz-adv-x="958" d="M518 -20q-79 0 -132.5 6.5t-103.5 26t-80.5 54.5t-53.5 92.5t-32.5 139t-9.5 195.5q0 80 6 146.5t16 117.5t27.5 90.5t37 67.5t47 48t54.5 32t64 19t71 9t79 2q69 0 122 -10t91 -27.5t64 -49.5t42 -66.5t24.5 -88.5t11.5 -106.5t3 -128.5q0 -46 -15 -66t-58 -20h-514 q1 -77 4 -126t14 -89.5t27.5 -61.5t47 -35.5t68 -19t95.5 -4.5q69 0 134.5 10.5t105 21.5t48.5 11q29 0 29 -68q0 -39 -9.5 -53.5t-39.5 -25.5q-51 -19 -132.5 -31t-152.5 -12zM504 883q-52 0 -84.5 -6t-61 -23t-43.5 -51t-24.5 -87.5t-11.5 -135.5h423q0 43 -0.5 66t-2 56 t-5.5 50t-10.5 40t-16.5 34t-25 24.5t-34.5 19t-45.5 9.5t-58 4zM444 1104q-71 0 -71 33q0 13 20 53l96 184q11 23 18 31.5t27.5 15t59.5 6.5q96 0 96 -32q0 -18 -28 -64l-117 -180q-17 -27 -35 -37t-66 -10z" />
<glyph unicode="&#xea;" horiz-adv-x="958" d="M518 -20q-79 0 -132.5 6.5t-103.5 26t-80.5 54.5t-53.5 92.5t-32.5 139t-9.5 195.5q0 80 6 146.5t16 117.5t27.5 90.5t37 67.5t47 48t54.5 32t64 19t71 9t79 2q69 0 122 -10t91 -27.5t64 -49.5t42 -66.5t24.5 -88.5t11.5 -106.5t3 -128.5q0 -46 -15 -66t-58 -20h-514 q1 -77 4 -126t14 -89.5t27.5 -61.5t47 -35.5t68 -19t95.5 -4.5q69 0 134.5 10.5t105 21.5t48.5 11q29 0 29 -68q0 -39 -9.5 -53.5t-39.5 -25.5q-51 -19 -132.5 -31t-152.5 -12zM504 883q-52 0 -84.5 -6t-61 -23t-43.5 -51t-24.5 -87.5t-11.5 -135.5h423q0 43 -0.5 66t-2 56 t-5.5 50t-10.5 40t-16.5 34t-25 24.5t-34.5 19t-45.5 9.5t-58 4zM502 1300h-13l-98 -155q-15 -25 -33.5 -33t-60.5 -8q-66 0 -66 33q0 12 23 51l121 201q13 22 28.5 30t57.5 8h69q42 0 57.5 -8t28.5 -30l121 -201q23 -39 23 -51q0 -33 -66 -33q-42 0 -60.5 8t-33.5 33z" />
<glyph unicode="&#xeb;" horiz-adv-x="958" d="M518 -20q-79 0 -132.5 6.5t-103.5 26t-80.5 54.5t-53.5 92.5t-32.5 139t-9.5 195.5q0 80 6 146.5t16 117.5t27.5 90.5t37 67.5t47 48t54.5 32t64 19t71 9t79 2q69 0 122 -10t91 -27.5t64 -49.5t42 -66.5t24.5 -88.5t11.5 -106.5t3 -128.5q0 -46 -15 -66t-58 -20h-514 q1 -77 4 -126t14 -89.5t27.5 -61.5t47 -35.5t68 -19t95.5 -4.5q69 0 134.5 10.5t105 21.5t48.5 11q29 0 29 -68q0 -39 -9.5 -53.5t-39.5 -25.5q-51 -19 -132.5 -31t-152.5 -12zM504 883q-52 0 -84.5 -6t-61 -23t-43.5 -51t-24.5 -87.5t-11.5 -135.5h423q0 43 -0.5 66t-2 56 t-5.5 50t-10.5 40t-16.5 34t-25 24.5t-34.5 19t-45.5 9.5t-58 4zM346 1165q-57 0 -73.5 12t-16.5 52v43q0 40 17 52.5t73 12.5t73 -12.5t17 -52.5v-43q0 -40 -16.5 -52t-73.5 -12zM647 1165q-58 0 -75 12t-17 52v43q0 40 17 52.5t75 12.5q56 0 73 -12.5t17 -52.5v-43 q0 -40 -16.5 -52t-73.5 -12z" />
<glyph unicode="&#xec;" horiz-adv-x="425" d="M242 1104q-48 0 -66 10t-35 37l-116 180q-29 48 -29 64q0 32 96 32q39 0 59.5 -6.5t27.5 -15t18 -31.5l96 -184q20 -40 20 -53q0 -33 -71 -33zM209 0q-52 0 -68 10t-16 45v897q0 35 16 44.5t68 9.5q51 0 67.5 -10t16.5 -44v-897q0 -34 -16.5 -44.5t-67.5 -10.5z" />
<glyph unicode="&#xed;" horiz-adv-x="425" d="M178 1104q-72 0 -72 33q0 11 21 53l96 184q11 23 18 31.5t27.5 15t59.5 6.5q96 0 96 -32q0 -16 -29 -64l-116 -180q-17 -27 -35 -37t-66 -10zM209 0q-52 0 -68 10t-16 45v897q0 35 16 44.5t68 9.5q51 0 67.5 -10t16.5 -44v-897q0 -34 -16.5 -44.5t-67.5 -10.5z" />
<glyph unicode="&#xee;" horiz-adv-x="425" d="M211 0q-52 0 -68 10t-16 45v897q0 35 16 44.5t68 9.5q51 0 67.5 -10t16.5 -44v-897q0 -34 -16.5 -44.5t-67.5 -10.5zM219 1300h-12l-98 -155q-15 -25 -33.5 -33t-61.5 -8q-65 0 -65 33q0 14 22 51l121 201q13 22 28.5 30t57.5 8h70q42 0 57.5 -8t28.5 -30l121 -201 q22 -37 22 -51q0 -33 -65 -33q-43 0 -61.5 8t-33.5 33z" />
<glyph unicode="&#xef;" horiz-adv-x="425" d="M63 1165q-57 0 -73.5 12t-16.5 52v43q0 40 17 52.5t73 12.5q57 0 74 -12.5t17 -52.5v-43q0 -40 -17 -52t-74 -12zM365 1165q-58 0 -75.5 12t-17.5 52v43q0 40 17.5 52.5t75.5 12.5q56 0 73 -12.5t17 -52.5v-43q0 -40 -16.5 -52t-73.5 -12zM209 0q-52 0 -68 10t-16 45v897 q0 35 16 44.5t68 9.5q51 0 67.5 -10t16.5 -44v-897q0 -34 -16.5 -44.5t-67.5 -10.5z" />
<glyph unicode="&#xf0;" horiz-adv-x="1017" d="M858 1206q0 -20 -24 -28l-91 -25q168 -305 168 -639q0 -159 -22 -261.5t-73.5 -163.5t-127.5 -85t-194 -24q-78 0 -132.5 8t-100.5 30t-73.5 57.5t-47 94t-27 136.5t-7.5 188q0 132 13 224t37.5 152.5t68 94.5t97 47.5t131.5 13.5q133 0 204 -55q-20 56 -63 145l-96 -24 l-25 -5q-7 0 -11 1.5t-7.5 8t-5 9.5t-5.5 16q-10 33 -10 43q0 21 27 27l78 20q-47 76 -47 101q0 16 11.5 24.5t49.5 8.5q36 0 52 -6t28 -23q34 -42 51 -68l113 29q14 4 26 4q19 0 27 -35q8 -27 8 -41zM498 125q52 0 88 6t64 23t44 42.5t27 69t14.5 97.5t3.5 133 q0 101 -7.5 168t-21.5 111.5t-41.5 67.5t-61.5 31.5t-87 8.5q-57 0 -93.5 -4.5t-65 -21t-43.5 -39t-24.5 -68.5t-12 -98t-2.5 -138q0 -89 2.5 -144.5t11.5 -103t23 -72t40 -42t58.5 -22.5t83.5 -5z" />
<glyph unicode="&#xf1;" horiz-adv-x="1044" d="M236 0q-52 0 -69 10t-17 45v582q0 86 -11.5 160.5t-23 117.5t-11.5 52q0 21 15 30t63 9q46 0 61.5 -7.5t22.5 -37.5l29 -121q41 96 124.5 141t219.5 45q83 0 138 -16t86 -51.5t43 -83t12 -117.5v-703q0 -34 -17.5 -44.5t-69.5 -10.5q-51 0 -67 10t-16 45v664 q0 93 -33 126.5t-133 33.5q-145 0 -204 -79.5t-59 -264.5v-480q0 -35 -16 -45t-67 -10zM266 1217q0 34 10 49t39 34q55 37 121 37q45 0 112 -21.5t99 -21.5q41 0 84 19.5t47 19.5q16 0 21.5 -11t5.5 -48q0 -35 -10.5 -51t-38.5 -35q-63 -35 -123 -35q-44 0 -110.5 20.5 t-98.5 20.5q-41 0 -84 -18.5t-47 -18.5q-16 0 -21.5 11.5t-5.5 48.5z" />
<glyph unicode="&#xf2;" horiz-adv-x="1017" d="M494 -20q-78 0 -132.5 8t-100.5 30t-73.5 57.5t-47 94t-27 136.5t-7.5 188q0 128 15 218.5t45 152t81.5 96.5t118 50t160.5 15q78 0 132 -8t99.5 -29.5t73 -57t46.5 -94t26.5 -136t7.5 -187.5q0 -159 -22 -261.5t-73.5 -163.5t-127.5 -85t-194 -24zM498 125q52 0 88 6 t64 23t44 42.5t27 69t14.5 97.5t3.5 133q0 89 -2.5 144.5t-11.5 102.5t-23 71.5t-40 41.5t-58.5 22t-83.5 5q-78 0 -123 -14t-72.5 -57.5t-36.5 -111t-9 -186.5q0 -89 2.5 -144.5t11.5 -103t23 -72t40 -42t58.5 -22.5t83.5 -5zM553 1104q-34 0 -53.5 6t-27 14t-19.5 27 l-117 180q-29 48 -29 64q0 32 96 32q39 0 59.5 -6.5t27.5 -15t18 -31.5l96 -184q21 -42 21 -53q0 -33 -72 -33z" />
<glyph unicode="&#xf3;" horiz-adv-x="1017" d="M494 -20q-78 0 -132.5 8t-100.5 30t-73.5 57.5t-47 94t-27 136.5t-7.5 188q0 128 15 218.5t45 152t81.5 96.5t118 50t160.5 15q78 0 132 -8t99.5 -29.5t73 -57t46.5 -94t26.5 -136t7.5 -187.5q0 -159 -22 -261.5t-73.5 -163.5t-127.5 -85t-194 -24zM498 125q52 0 88 6 t64 23t44 42.5t27 69t14.5 97.5t3.5 133q0 89 -2.5 144.5t-11.5 102.5t-23 71.5t-40 41.5t-58.5 22t-83.5 5q-78 0 -123 -14t-72.5 -57.5t-36.5 -111t-9 -186.5q0 -89 2.5 -144.5t11.5 -103t23 -72t40 -42t58.5 -22.5t83.5 -5zM465 1104q-72 0 -72 33q0 11 21 53l96 184 q11 23 17.5 31.5t27 15t59.5 6.5q97 0 97 -32q0 -16 -29 -64l-117 -180q-12 -19 -19.5 -27t-27 -14t-53.5 -6z" />
<glyph unicode="&#xf4;" horiz-adv-x="1017" d="M494 -20q-78 0 -132.5 8t-100.5 30t-73.5 57.5t-47 94t-27 136.5t-7.5 188q0 128 15 218.5t45 152t81.5 96.5t118 50t160.5 15q78 0 132 -8t99.5 -29.5t73 -57t46.5 -94t26.5 -136t7.5 -187.5q0 -159 -22 -261.5t-73.5 -163.5t-127.5 -85t-194 -24zM498 125q52 0 88 6 t64 23t44 42.5t27 69t14.5 97.5t3.5 133q0 89 -2.5 144.5t-11.5 102.5t-23 71.5t-40 41.5t-58.5 22t-83.5 5q-78 0 -123 -14t-72.5 -57.5t-36.5 -111t-9 -186.5q0 -89 2.5 -144.5t11.5 -103t23 -72t40 -42t58.5 -22.5t83.5 -5zM516 1300h-12l-98 -155q-15 -25 -33.5 -33 t-61.5 -8q-65 0 -65 33q0 14 22 51l121 201q13 22 28.5 30t57.5 8h70q42 0 57.5 -8t28.5 -30l121 -201q22 -37 22 -51q0 -33 -65 -33q-43 0 -61.5 8t-33.5 33z" />
<glyph unicode="&#xf5;" horiz-adv-x="1017" d="M494 -20q-78 0 -132.5 8t-100.5 30t-73.5 57.5t-47 94t-27 136.5t-7.5 188q0 128 15 218.5t45 152t81.5 96.5t118 50t160.5 15q78 0 132 -8t99.5 -29.5t73 -57t46.5 -94t26.5 -136t7.5 -187.5q0 -159 -22 -261.5t-73.5 -163.5t-127.5 -85t-194 -24zM498 125q52 0 88 6 t64 23t44 42.5t27 69t14.5 97.5t3.5 133q0 89 -2.5 144.5t-11.5 102.5t-23 71.5t-40 41.5t-58.5 22t-83.5 5q-78 0 -123 -14t-72.5 -57.5t-36.5 -111t-9 -186.5q0 -89 2.5 -144.5t11.5 -103t23 -72t40 -42t58.5 -22.5t83.5 -5zM242 1217q0 34 10 49t39 34q55 37 121 37 q45 0 112 -21.5t99 -21.5q41 0 84 19.5t47 19.5q16 0 21 -11t5 -48q0 -35 -10.5 -51t-38.5 -35q-63 -35 -123 -35q-44 0 -110.5 20.5t-98.5 20.5q-41 0 -84 -18.5t-47 -18.5q-15 0 -20.5 11.5t-5.5 48.5z" />
<glyph unicode="&#xf6;" horiz-adv-x="1017" d="M494 -20q-78 0 -132.5 8t-100.5 30t-73.5 57.5t-47 94t-27 136.5t-7.5 188q0 128 15 218.5t45 152t81.5 96.5t118 50t160.5 15q78 0 132 -8t99.5 -29.5t73 -57t46.5 -94t26.5 -136t7.5 -187.5q0 -159 -22 -261.5t-73.5 -163.5t-127.5 -85t-194 -24zM498 125q52 0 88 6 t64 23t44 42.5t27 69t14.5 97.5t3.5 133q0 89 -2.5 144.5t-11.5 102.5t-23 71.5t-40 41.5t-58.5 22t-83.5 5q-78 0 -123 -14t-72.5 -57.5t-36.5 -111t-9 -186.5q0 -89 2.5 -144.5t11.5 -103t23 -72t40 -42t58.5 -22.5t83.5 -5zM360 1165q-57 0 -73.5 12t-16.5 52v43 q0 40 17 52.5t73 12.5q57 0 74 -12.5t17 -52.5v-43q0 -40 -17 -52t-74 -12zM662 1165q-58 0 -75.5 12t-17.5 52v43q0 40 17.5 52.5t75.5 12.5q56 0 73 -12.5t17 -52.5v-43q0 -40 -16.5 -52t-73.5 -12z" />
<glyph unicode="&#xf7;" d="M180 551q0 46 10 59t43 13h480q33 0 43 -13t10 -59q0 -45 -10 -57.5t-43 -12.5h-480q-33 0 -43 12.5t-10 57.5zM471 758q-48 0 -64 10.5t-16 44.5v57q0 35 16 45.5t64 10.5q50 0 65 -10.5t15 -45.5v-57q0 -35 -15 -45t-65 -10zM471 143q-48 0 -64 10.5t-16 45.5v57 q0 34 16 44.5t64 10.5q50 0 65 -10t15 -45v-57q0 -35 -15 -45.5t-65 -10.5z" />
<glyph unicode="&#xf8;" horiz-adv-x="1017" d="M494 -20q-78 0 -132.5 8t-100.5 30t-73.5 57.5t-47 94t-27 136.5t-7.5 188q0 128 15 218.5t45 152t81.5 96.5t118 50t160.5 15q78 0 132 -8t99.5 -29.5t73 -57t46.5 -94t26.5 -136t7.5 -187.5q0 -159 -22 -261.5t-73.5 -163.5t-127.5 -85t-194 -24zM498 125q52 0 88 6 t64 23t44 42.5t27 69t14.5 97.5t3.5 133q0 138 -8 209l-409 -521q24 -34 64.5 -46.5t111.5 -12.5zM279 514q0 -154 6 -209l407 522q-40 56 -172 56q-78 0 -123 -14t-72.5 -57.5t-36.5 -111t-9 -186.5z" />
<glyph unicode="&#xf9;" horiz-adv-x="1024" d="M399 -20q-81 0 -135 15.5t-84.5 50t-42.5 81.5t-12 117v708q0 35 16 44.5t68 9.5q51 0 67.5 -10t16.5 -44v-669q0 -92 33 -124t133 -32q146 0 204 79.5t58 266.5v479q0 35 16 44.5t68 9.5t68 -9.5t16 -44.5v-583q0 -86 11.5 -160t23.5 -116.5t12 -51.5q0 -21 -15.5 -31 t-62.5 -10q-46 0 -61.5 8.5t-22.5 38.5l-29 115q-41 -94 -125.5 -138t-220.5 -44zM547 1104q-48 0 -66 10t-35 37l-116 180q-29 48 -29 64q0 32 96 32q39 0 59.5 -6.5t27.5 -15t18 -31.5l96 -184q20 -40 20 -53q0 -33 -71 -33z" />
<glyph unicode="&#xfa;" horiz-adv-x="1024" d="M399 -20q-81 0 -135 15.5t-84.5 50t-42.5 81.5t-12 117v708q0 35 16 44.5t68 9.5q51 0 67.5 -10t16.5 -44v-669q0 -92 33 -124t133 -32q146 0 204 79.5t58 266.5v479q0 35 16 44.5t68 9.5t68 -9.5t16 -44.5v-583q0 -86 11.5 -160t23.5 -116.5t12 -51.5q0 -21 -15.5 -31 t-62.5 -10q-46 0 -61.5 8.5t-22.5 38.5l-29 115q-41 -94 -125.5 -138t-220.5 -44zM467 1104q-72 0 -72 33q0 11 21 53l96 184q11 23 17.5 31.5t27 15t59.5 6.5q97 0 97 -32q0 -16 -29 -64l-117 -180q-12 -19 -19.5 -27t-27 -14t-53.5 -6z" />
<glyph unicode="&#xfb;" horiz-adv-x="1024" d="M399 -20q-81 0 -135 15.5t-84.5 50t-42.5 81.5t-12 117v708q0 35 16 44.5t68 9.5q51 0 67.5 -10t16.5 -44v-669q0 -92 33 -124t133 -32q146 0 204 79.5t58 266.5v479q0 35 16 44.5t68 9.5t68 -9.5t16 -44.5v-583q0 -86 11.5 -160t23.5 -116.5t12 -51.5q0 -21 -15.5 -31 t-62.5 -10q-46 0 -61.5 8.5t-22.5 38.5l-29 115q-41 -94 -125.5 -138t-220.5 -44zM514 1300h-12l-99 -155q-15 -25 -33.5 -33t-60.5 -8q-65 0 -65 33q0 14 22 51l121 201q13 22 28.5 30t57.5 8h70q42 0 57.5 -8t28.5 -30l121 -201q22 -37 22 -51q0 -33 -65 -33 q-43 0 -61.5 8t-33.5 33z" />
<glyph unicode="&#xfc;" horiz-adv-x="1024" d="M399 -20q-81 0 -135 15.5t-84.5 50t-42.5 81.5t-12 117v708q0 35 16 44.5t68 9.5q51 0 67.5 -10t16.5 -44v-669q0 -92 33 -124t133 -32q146 0 204 79.5t58 266.5v479q0 35 16 44.5t68 9.5t68 -9.5t16 -44.5v-583q0 -86 11.5 -160t23.5 -116.5t12 -51.5q0 -21 -15.5 -31 t-62.5 -10q-46 0 -61.5 8.5t-22.5 38.5l-29 115q-41 -94 -125.5 -138t-220.5 -44zM358 1165q-57 0 -73.5 12t-16.5 52v43q0 40 17 52.5t73 12.5q57 0 74 -12.5t17 -52.5v-43q0 -40 -17 -52t-74 -12zM659 1165q-58 0 -75 12t-17 52v43q0 40 17 52.5t75 12.5q57 0 74 -12.5 t17 -52.5v-43q0 -40 -17 -52t-74 -12z" />
<glyph unicode="&#xfd;" horiz-adv-x="929" d="M51 961q0 24 16 34.5t70 10.5q51 0 68 -7t24 -34l228 -818h16l227 818q7 27 24.5 34t66.5 7q54 0 72 -10t18 -33q0 -31 -23 -103l-297 -954q-23 -73 -39.5 -115.5t-39.5 -83t-50.5 -60t-66.5 -31t-93 -11.5q-102 0 -166 22q-27 8 -38 22.5t-11 49.5q0 41 7 54.5t28 13.5 q3 0 55 -7.5t107 -7.5q68 0 95.5 24.5t49.5 102.5l33 121q-55 1 -80 23t-41 75l-229 731q-31 100 -31 132zM426 1104q-72 0 -72 33q0 11 21 53l96 184q11 23 17.5 31.5t27 15t59.5 6.5q97 0 97 -32q0 -16 -29 -64l-117 -180q-12 -19 -19.5 -27t-27 -14t-53.5 -6z" />
<glyph unicode="&#xfe;" horiz-adv-x="1075" d="M319 1282v-387q89 131 306 131q88 0 145.5 -15.5t98 -49t61.5 -97t30 -147t9 -211.5q0 -133 -15 -225.5t-43 -151.5t-76.5 -92t-105.5 -45t-141 -12q-100 0 -166.5 25t-102.5 85v-422q0 -35 -16 -45t-67 -10q-52 0 -69 10t-17 45v1614q0 35 17 45t69 10q51 0 67 -10 t16 -45zM557 125q62 0 99.5 8.5t67.5 31t44.5 68t21.5 111.5t7 170q0 81 -3 134.5t-12.5 97t-23.5 68.5t-38.5 41.5t-56 22t-77.5 5.5q-71 0 -118 -13t-82.5 -48.5t-52 -100.5t-16.5 -166v-127q0 -89 9.5 -143t36 -92t73 -53t121.5 -15z" />
<glyph unicode="&#xff;" horiz-adv-x="929" d="M51 961q0 24 16 34.5t70 10.5q51 0 68 -7t24 -34l228 -818h16l227 818q7 27 24.5 34t66.5 7q54 0 72 -10t18 -33q0 -31 -23 -103l-297 -954q-23 -73 -39.5 -115.5t-39.5 -83t-50.5 -60t-66.5 -31t-93 -11.5q-102 0 -166 22q-27 8 -38 22.5t-11 49.5q0 41 7 54.5t28 13.5 q3 0 55 -7.5t107 -7.5q68 0 95.5 24.5t49.5 102.5l33 121q-55 1 -80 23t-41 75l-229 731q-31 100 -31 132zM317 1165q-57 0 -73.5 12t-16.5 52v43q0 40 17 52.5t73 12.5q57 0 74 -12.5t17 -52.5v-43q0 -40 -17 -52t-74 -12zM618 1165q-58 0 -75 12t-17 52v43q0 40 17 52.5 t75 12.5q57 0 74 -12.5t17 -52.5v-43q0 -40 -17 -52t-74 -12z" />
<glyph unicode="&#x100;" horiz-adv-x="1058" d="M117 0q-49 0 -65.5 8.5t-16.5 30.5q0 19 10 53l326 1094q15 50 42 62t115 12q90 0 117.5 -12t42.5 -62l324 -1094q10 -34 10 -53q0 -21 -16.5 -30t-63.5 -9q-52 0 -70 9t-26 36l-98 332h-443l-94 -332q-8 -27 -25 -36t-69 -9zM516 1112l-172 -600h369l-170 600h-27z M317 1493q0 45 10.5 59.5t43.5 14.5h315q32 0 42.5 -14t10.5 -60t-10.5 -60t-42.5 -14h-315q-33 0 -43.5 14.5t-10.5 59.5z" />
<glyph unicode="&#x101;" horiz-adv-x="995" d="M350 -20q-137 0 -200.5 67t-63.5 221q0 158 83 224.5t288 66.5h221v158q0 54 -10 86.5t-35.5 50t-58 22.5t-89.5 5q-94 0 -198 -19.5t-109 -19.5q-33 0 -33 67q0 37 9.5 53.5t33.5 22.5q55 18 144 29.5t172 11.5q73 0 123 -6t94 -23t69.5 -48t39.5 -80t14 -119v-381 q0 -86 12 -160t23.5 -116.5t11.5 -51.5q0 -21 -15.5 -31t-64.5 -10q-44 0 -58.5 8t-23.5 39l-35 133q-44 -100 -135 -150t-209 -50zM399 121q117 0 198 67t81 185v73l-229 -6q-120 -3 -159.5 -34t-39.5 -121q0 -102 32.5 -133t116.5 -31zM270 1247q0 45 10.5 59.5t43.5 14.5 h315q32 0 42.5 -14t10.5 -60q0 -45 -10 -59t-43 -14h-315q-33 0 -43.5 14t-10.5 59z" />
<glyph unicode="&#x102;" horiz-adv-x="1058" d="M117 0q-49 0 -65.5 8.5t-16.5 30.5q0 19 10 53l326 1094q15 50 42 62t115 12q90 0 117.5 -12t42.5 -62l324 -1094q10 -34 10 -53q0 -21 -16.5 -30t-63.5 -9q-52 0 -70 9t-26 36l-98 332h-443l-94 -332q-8 -27 -25 -36t-69 -9zM516 1112l-172 -600h369l-170 600h-27z M528 1378q-131 0 -175 42.5t-44 150.5q0 35 12 44t54 9q41 0 52 -8t13 -39q2 -46 15.5 -59t72.5 -13q60 0 74 13t16 59q2 31 13 39t53 8t53 -9t11 -44q0 -108 -43.5 -150.5t-176.5 -42.5z" />
<glyph unicode="&#x103;" horiz-adv-x="995" d="M350 -20q-137 0 -200.5 67t-63.5 221q0 158 83 224.5t288 66.5h221v158q0 54 -10 86.5t-35.5 50t-58 22.5t-89.5 5q-94 0 -198 -19.5t-109 -19.5q-33 0 -33 67q0 37 9.5 53.5t33.5 22.5q55 18 144 29.5t172 11.5q73 0 123 -6t94 -23t69.5 -48t39.5 -80t14 -119v-381 q0 -86 12 -160t23.5 -116.5t11.5 -51.5q0 -21 -15.5 -31t-64.5 -10q-44 0 -58.5 8t-23.5 39l-35 133q-44 -100 -135 -150t-209 -50zM399 121q117 0 198 67t81 185v73l-229 -6q-120 -3 -159.5 -34t-39.5 -121q0 -102 32.5 -133t116.5 -31zM481 1135q-131 0 -175 42t-44 150 q0 35 12 44t54 9q41 0 52 -8t13 -39q1 -25 3 -36t11 -20.5t26 -12t48 -2.5q32 0 49 2.5t26.5 12t11.5 20.5t3 36q2 31 13 39t53 8q41 0 52 -9t11 -44q0 -73 -16 -112t-64 -59.5t-139 -20.5z" />
<glyph unicode="&#x104;" horiz-adv-x="1058" d="M868 -395q-73 0 -107 34t-34 111q0 66 38 125.5t112 130.5q-21 7 -31 39l-98 332h-443l-94 -332q-8 -27 -25 -36t-69 -9q-49 0 -65.5 8.5t-16.5 30.5q0 19 10 53l326 1094q15 50 42 62t115 12q90 0 117.5 -12t42.5 -62l324 -1094q10 -34 10 -53q0 -22 -11 -43t-44 -59 q-48 -55 -65 -86t-17 -60q0 -28 8 -37.5t31 -9.5q19 0 37 3t26 3q20 0 27.5 -12t7.5 -49q0 -35 -11 -48.5t-42 -21.5q-54 -14 -101 -14zM516 1112l-172 -600h369l-170 600h-27z" />
<glyph unicode="&#x105;" horiz-adv-x="995" d="M741 -395q-73 0 -108 34t-35 111q0 64 34 122.5t113 139.5q-9 7 -16 35l-35 133q-44 -100 -135 -150t-209 -50q-137 0 -200.5 67t-63.5 221q0 158 83 224.5t288 66.5h221v158q0 54 -10 86.5t-35.5 50t-58 22.5t-89.5 5q-94 0 -198 -19.5t-109 -19.5q-33 0 -33 67 q0 37 9.5 53.5t33.5 22.5q55 18 144 29.5t172 11.5q73 0 123 -6t94 -23t69.5 -48t39.5 -80t14 -119v-381q0 -86 12 -160t23.5 -116.5t11.5 -51.5q0 -18 -10 -38t-45 -62q-44 -54 -61 -86.5t-17 -63.5q0 -28 8 -37.5t31 -9.5q19 0 37 3t26 3q20 0 27.5 -12t7.5 -49 q0 -35 -11.5 -48.5t-41.5 -21.5q-54 -14 -101 -14zM399 121q117 0 198 67t81 185v73l-229 -6q-120 -3 -159.5 -34t-39.5 -121q0 -102 32.5 -133t116.5 -31z" />
<glyph unicode="&#x106;" horiz-adv-x="923" d="M524 -18q-44 0 -75.5 1.5t-68.5 6t-63 14t-55 24t-49 37t-40 52.5t-32.5 71t-23 92.5t-15 117t-4.5 143.5v155q0 88 6 160t16.5 127t29 98t38 73.5t49.5 51.5t58.5 33.5t69 19.5t77 9t86.5 2q146 0 277 -39q28 -7 38.5 -21.5t10.5 -58.5q0 -40 -7.5 -54t-25.5 -14 q-8 0 -45.5 9.5t-96 18.5t-118.5 9q-48 0 -79 -2t-63.5 -9.5t-52 -20t-38.5 -35.5t-28.5 -54t-17.5 -78t-11 -105.5t-3 -137.5v-103q0 -70 3 -125t8.5 -99t16.5 -76.5t22 -56t31 -39t38.5 -25t48.5 -14t57 -6t68 -1.5q87 0 173 19l87 18q19 0 26 -13t7 -55q0 -43 -11 -58.5 t-38 -23.5q-139 -38 -281 -38zM483 1350q-71 0 -71 32q0 14 20 54l96 184q11 23 18 31.5t27.5 15t59.5 6.5q96 0 96 -33q0 -15 -29 -63l-116 -180q-17 -27 -35 -37t-66 -10z" />
<glyph unicode="&#x107;" horiz-adv-x="876" d="M498 -20q-74 0 -124 6.5t-97.5 26t-77 54.5t-52 92t-32 139.5t-9.5 195.5q0 80 6 146.5t16.5 117.5t27.5 90.5t36.5 67.5t47 48t54 32t63 19t69 9t76.5 2q128 0 250 -35q30 -9 40.5 -25t10.5 -55t-7.5 -53t-23.5 -14q-4 0 -98.5 18.5t-157.5 18.5q-49 0 -80 -4t-60 -18 t-45.5 -38.5t-29 -66t-17.5 -101t-5 -143.5q0 -67 1.5 -112t6 -87.5t11.5 -68t20.5 -48t30 -34t42.5 -20t56 -11t73 -2.5q83 0 168 21.5t86 21.5q29 0 29 -68q0 -39 -9.5 -53.5t-39.5 -25.5q-51 -19 -124 -31t-132 -12zM442 1104q-71 0 -71 33q0 13 20 53l96 184 q11 23 18 31.5t27.5 15t59.5 6.5q96 0 96 -32q0 -16 -29 -64l-116 -180q-17 -27 -35 -37t-66 -10z" />
<glyph unicode="&#x108;" horiz-adv-x="923" d="M524 -18q-44 0 -75.5 1.5t-68.5 6t-63 14t-55 24t-49 37t-40 52.5t-32.5 71t-23 92.5t-15 117t-4.5 143.5v155q0 88 6 160t16.5 127t29 98t38 73.5t49.5 51.5t58.5 33.5t69 19.5t77 9t86.5 2q146 0 277 -39q28 -7 38.5 -21.5t10.5 -58.5q0 -40 -7.5 -54t-25.5 -14 q-8 0 -45.5 9.5t-96 18.5t-118.5 9q-48 0 -79 -2t-63.5 -9.5t-52 -20t-38.5 -35.5t-28.5 -54t-17.5 -78t-11 -105.5t-3 -137.5v-103q0 -70 3 -125t8.5 -99t16.5 -76.5t22 -56t31 -39t38.5 -25t48.5 -14t57 -6t68 -1.5q87 0 173 19l87 18q19 0 26 -13t7 -55q0 -43 -11 -58.5 t-38 -23.5q-139 -38 -281 -38zM504 1546h-12l-99 -155q-15 -25 -33.5 -33t-60.5 -8q-66 0 -66 32q0 13 23 52l121 200q13 23 29 31t57 8h69q41 0 57 -8t29 -31l121 -200q23 -39 23 -52q0 -32 -66 -32q-42 0 -60.5 8t-33.5 33z" />
<glyph unicode="&#x109;" horiz-adv-x="876" d="M498 -20q-74 0 -124 6.5t-97.5 26t-77 54.5t-52 92t-32 139.5t-9.5 195.5q0 80 6 146.5t16.5 117.5t27.5 90.5t36.5 67.5t47 48t54 32t63 19t69 9t76.5 2q128 0 250 -35q30 -9 40.5 -25t10.5 -55t-7.5 -53t-23.5 -14q-4 0 -98.5 18.5t-157.5 18.5q-49 0 -80 -4t-60 -18 t-45.5 -38.5t-29 -66t-17.5 -101t-5 -143.5q0 -67 1.5 -112t6 -87.5t11.5 -68t20.5 -48t30 -34t42.5 -20t56 -11t73 -2.5q83 0 168 21.5t86 21.5q29 0 29 -68q0 -39 -9.5 -53.5t-39.5 -25.5q-51 -19 -124 -31t-132 -12zM496 1300h-13l-98 -155q-15 -25 -33.5 -33t-60.5 -8 q-66 0 -66 33q0 12 23 51l121 201q13 22 28.5 30t57.5 8h69q42 0 57.5 -8t28.5 -30l121 -201q23 -39 23 -51q0 -33 -66 -33q-42 0 -60.5 8t-33.5 33z" />
<glyph unicode="&#x10a;" horiz-adv-x="923" d="M524 -18q-44 0 -75.5 1.5t-68.5 6t-63 14t-55 24t-49 37t-40 52.5t-32.5 71t-23 92.5t-15 117t-4.5 143.5v155q0 88 6 160t16.5 127t29 98t38 73.5t49.5 51.5t58.5 33.5t69 19.5t77 9t86.5 2q146 0 277 -39q28 -7 38.5 -21.5t10.5 -58.5q0 -40 -7.5 -54t-25.5 -14 q-8 0 -45.5 9.5t-96 18.5t-118.5 9q-48 0 -79 -2t-63.5 -9.5t-52 -20t-38.5 -35.5t-28.5 -54t-17.5 -78t-11 -105.5t-3 -137.5v-103q0 -70 3 -125t8.5 -99t16.5 -76.5t22 -56t31 -39t38.5 -25t48.5 -14t57 -6t68 -1.5q87 0 173 19l87 18q19 0 26 -13t7 -55q0 -43 -11 -58.5 t-38 -23.5q-139 -38 -281 -38zM496 1411q-60 0 -77.5 12t-17.5 52v43q0 40 18 52.5t77 12.5q61 0 78.5 -12.5t17.5 -52.5v-43q0 -40 -17.5 -52t-78.5 -12z" />
<glyph unicode="&#x10b;" horiz-adv-x="876" d="M498 -20q-74 0 -124 6.5t-97.5 26t-77 54.5t-52 92t-32 139.5t-9.5 195.5q0 80 6 146.5t16.5 117.5t27.5 90.5t36.5 67.5t47 48t54 32t63 19t69 9t76.5 2q128 0 250 -35q30 -9 40.5 -25t10.5 -55t-7.5 -53t-23.5 -14q-4 0 -98.5 18.5t-157.5 18.5q-49 0 -80 -4t-60 -18 t-45.5 -38.5t-29 -66t-17.5 -101t-5 -143.5q0 -67 1.5 -112t6 -87.5t11.5 -68t20.5 -48t30 -34t42.5 -20t56 -11t73 -2.5q83 0 168 21.5t86 21.5q29 0 29 -68q0 -39 -9.5 -53.5t-39.5 -25.5q-51 -19 -124 -31t-132 -12zM487 1165q-60 0 -77 12t-17 52v43q0 40 17.5 52.5 t76.5 12.5q61 0 79 -12.5t18 -52.5v-43q0 -40 -18 -52t-79 -12z" />
<glyph unicode="&#x10c;" horiz-adv-x="923" d="M524 -18q-44 0 -75.5 1.5t-68.5 6t-63 14t-55 24t-49 37t-40 52.5t-32.5 71t-23 92.5t-15 117t-4.5 143.5v155q0 88 6 160t16.5 127t29 98t38 73.5t49.5 51.5t58.5 33.5t69 19.5t77 9t86.5 2q146 0 277 -39q28 -7 38.5 -21.5t10.5 -58.5q0 -40 -7.5 -54t-25.5 -14 q-8 0 -45.5 9.5t-96 18.5t-118.5 9q-48 0 -79 -2t-63.5 -9.5t-52 -20t-38.5 -35.5t-28.5 -54t-17.5 -78t-11 -105.5t-3 -137.5v-103q0 -70 3 -125t8.5 -99t16.5 -76.5t22 -56t31 -39t38.5 -25t48.5 -14t57 -6t68 -1.5q87 0 173 19l87 18q19 0 26 -13t7 -55q0 -43 -11 -58.5 t-38 -23.5q-139 -38 -281 -38zM221 1640q0 33 66 33q43 0 61 -7.5t35 -33.5l98 -155h11l98 155q15 25 34 33t62 8q66 0 66 -33q0 -7 -23 -51l-121 -200q-13 -22 -29.5 -30.5t-58.5 -8.5h-67q-42 0 -58.5 8.5t-29.5 30.5l-121 200q-23 44 -23 51z" />
<glyph unicode="&#x10d;" horiz-adv-x="876" d="M498 -20q-74 0 -124 6.5t-97.5 26t-77 54.5t-52 92t-32 139.5t-9.5 195.5q0 80 6 146.5t16.5 117.5t27.5 90.5t36.5 67.5t47 48t54 32t63 19t69 9t76.5 2q128 0 250 -35q30 -9 40.5 -25t10.5 -55t-7.5 -53t-23.5 -14q-4 0 -98.5 18.5t-157.5 18.5q-49 0 -80 -4t-60 -18 t-45.5 -38.5t-29 -66t-17.5 -101t-5 -143.5q0 -67 1.5 -112t6 -87.5t11.5 -68t20.5 -48t30 -34t42.5 -20t56 -11t73 -2.5q83 0 168 21.5t86 21.5q29 0 29 -68q0 -39 -9.5 -53.5t-39.5 -25.5q-51 -19 -124 -31t-132 -12zM225 1395q0 32 66 32q43 0 61 -7.5t35 -33.5l98 -155 h11l98 155q15 25 34 33t62 8q66 0 66 -32q0 -8 -23 -52l-121 -200q-13 -22 -29.5 -30.5t-58.5 -8.5h-67q-42 0 -58.5 8.5t-29.5 30.5l-121 200q-23 44 -23 52z" />
<glyph unicode="&#x10e;" horiz-adv-x="1073" d="M516 133q46 0 76 2t62 9t51 19.5t38 35t29 54.5t18.5 78.5t11.5 105.5t3 138v117q0 75 -3.5 132t-12.5 102t-20.5 76.5t-32 54t-42 35.5t-55.5 20t-67.5 9.5t-82.5 2.5q-81 0 -194 -10v-971q92 -10 221 -10zM516 -18q-168 0 -319 16q-41 4 -55.5 18.5t-14.5 46.5v1123 q0 32 14.5 47t44.5 20q126 17 299 17q56 0 96 -1.5t84 -7t74.5 -15t63 -25.5t54 -38.5t42.5 -54.5t34 -73.5t23 -94.5t14.5 -118.5t4.5 -145.5v-121q0 -91 -6.5 -166t-18 -132t-31 -101.5t-41 -75.5t-53.5 -52.5t-62 -34.5t-73.5 -20t-81.5 -9t-92 -2zM260 1640q0 33 66 33 q43 0 61 -7.5t35 -33.5l98 -155h10l99 155q15 25 34 33t62 8q66 0 66 -33q0 -7 -23 -51l-121 -200q-13 -22 -29.5 -30.5t-58.5 -8.5h-67q-42 0 -59 8.5t-30 30.5l-120 200q-23 44 -23 51z" />
<glyph unicode="&#x10f;" horiz-adv-x="1310" d="M453 -20q-73 0 -125 10t-91.5 35t-64 62.5t-40 98.5t-21 135.5t-5.5 180.5q0 132 15.5 224.5t43.5 151t77 91.5t106 45t141 12q98 0 164.5 -26t102.5 -89v371q0 35 17 45t69 10q51 0 67.5 -10.5t16.5 -44.5v-913q0 -86 12 -160t23.5 -116.5t11.5 -51.5q0 -21 -16 -31 t-64 -10q-45 0 -60 8.5t-22 38.5l-29 107q-72 -174 -329 -174zM492 125q73 0 118.5 11t82 42t52 90.5t15.5 153.5v156q0 89 -9.5 143.5t-36 93t-73 53.5t-121.5 15q-78 0 -121 -13t-72 -57t-38.5 -117.5t-9.5 -203.5q0 -96 5.5 -156.5t18 -104.5t38 -65.5t60.5 -31t91 -9.5z M1161 1337q54 0 71 -12.5t17 -50.5v-57q0 -67 -26 -160l-35 -121q-12 -35 -28.5 -46t-59.5 -11q-32 0 -42.5 7t-10.5 25q0 13 13 104.5t13 151.5v107q0 38 16.5 50.5t71.5 12.5z" />
<glyph unicode="&#x110;" horiz-adv-x="1073" d="M516 -18q-168 0 -319 16q-41 4 -55.5 18.5t-14.5 46.5v500h-61q-33 0 -43.5 14.5t-10.5 61.5t10.5 61.5t43.5 14.5h61v471q0 32 14.5 47t44.5 20q126 17 299 17q56 0 96 -1.5t84 -7t74.5 -15t63 -25.5t54 -38.5t42.5 -54.5t34 -73.5t23 -94.5t14.5 -118.5t4.5 -145.5 v-121q0 -91 -6.5 -166t-18 -132t-31 -101.5t-41 -75.5t-53.5 -52.5t-62 -34.5t-73.5 -20t-81.5 -9t-92 -2zM516 133q46 0 76 2t62 9t51 19.5t38 35t29 54.5t18.5 78.5t11.5 105.5t3 138v117q0 75 -3.5 132t-12.5 102t-20.5 76.5t-32 54t-42 35.5t-55.5 20t-67.5 9.5 t-82.5 2.5q-81 0 -194 -10v-401h164q32 0 42.5 -14t10.5 -60t-10.5 -60t-42.5 -14h-164v-422q92 -10 221 -10z" />
<glyph unicode="&#x111;" horiz-adv-x="1060" d="M453 -20q-73 0 -125 10t-91.5 35t-64 62.5t-40 98.5t-21 135.5t-5.5 180.5q0 132 15.5 224.5t43.5 151t77 91.5t106 45t141 12q98 0 164.5 -26t102.5 -89v185h-72q-28 0 -37.5 11t-9.5 44q0 36 9.5 46.5t37.5 10.5h72v74q0 35 17 45t69 10q51 0 67.5 -10.5t16.5 -44.5 v-74h88q28 0 36.5 -10.5t8.5 -46.5q0 -35 -8.5 -46t-36.5 -11h-88v-725q0 -86 12 -160t23.5 -116.5t11.5 -51.5q0 -21 -16 -31t-64 -10q-45 0 -60 8.5t-22 38.5l-29 107q-72 -174 -329 -174zM492 125q73 0 118.5 11t82 42t52 90.5t15.5 153.5v156q0 89 -9.5 143.5t-36 93 t-73 53.5t-121.5 15q-78 0 -121 -13t-72 -57t-38.5 -117.5t-9.5 -203.5q0 -96 5.5 -156.5t18 -104.5t38 -65.5t60.5 -31t91 -9.5z" />
<glyph unicode="&#x112;" horiz-adv-x="931" d="M870 76q0 -45 -10.5 -60.5t-40.5 -15.5h-631q-37 0 -49 10t-12 41v1157q0 31 12 41.5t49 10.5h611q30 0 40.5 -15t10.5 -61q0 -47 -10.5 -62.5t-40.5 -15.5h-504v-367h391q31 0 41 -13.5t10 -59.5q0 -47 -10 -61.5t-41 -14.5h-391v-436h524q30 0 40.5 -15.5t10.5 -62.5z M283 1493q0 46 10.5 60t42.5 14h315q33 0 43.5 -14.5t10.5 -59.5t-10.5 -59.5t-43.5 -14.5h-315q-32 0 -42.5 14t-10.5 60z" />
<glyph unicode="&#x113;" horiz-adv-x="958" d="M518 -20q-79 0 -132.5 6.5t-103.5 26t-80.5 54.5t-53.5 92.5t-32.5 139t-9.5 195.5q0 80 6 146.5t16 117.5t27.5 90.5t37 67.5t47 48t54.5 32t64 19t71 9t79 2q69 0 122 -10t91 -27.5t64 -49.5t42 -66.5t24.5 -88.5t11.5 -106.5t3 -128.5q0 -46 -15 -66t-58 -20h-514 q1 -77 4 -126t14 -89.5t27.5 -61.5t47 -35.5t68 -19t95.5 -4.5q69 0 134.5 10.5t105 21.5t48.5 11q29 0 29 -68q0 -39 -9.5 -53.5t-39.5 -25.5q-51 -19 -132.5 -31t-152.5 -12zM504 883q-52 0 -84.5 -6t-61 -23t-43.5 -51t-24.5 -87.5t-11.5 -135.5h423q0 43 -0.5 66t-2 56 t-5.5 50t-10.5 40t-16.5 34t-25 24.5t-34.5 19t-45.5 9.5t-58 4zM285 1247q0 46 10.5 60t42.5 14h315q33 0 43.5 -14.5t10.5 -59.5t-10.5 -59t-43.5 -14h-315q-33 0 -43 14t-10 59z" />
<glyph unicode="&#x114;" horiz-adv-x="931" d="M870 76q0 -45 -10.5 -60.5t-40.5 -15.5h-631q-37 0 -49 10t-12 41v1157q0 31 12 41.5t49 10.5h611q30 0 40.5 -15t10.5 -61q0 -47 -10.5 -62.5t-40.5 -15.5h-504v-367h391q31 0 41 -13.5t10 -59.5q0 -47 -10 -61.5t-41 -14.5h-391v-436h524q30 0 40.5 -15.5t10.5 -62.5z M492 1393q-132 0 -176 42.5t-44 149.5q0 35 12 44t54 9q41 0 52 -8t13 -39q2 -45 16 -58t73 -13q32 0 49 2.5t26.5 12t11.5 20.5t3 36q2 31 12.5 39t52.5 8t53 -9t11 -44q0 -73 -16 -112t-64 -59.5t-139 -20.5z" />
<glyph unicode="&#x115;" horiz-adv-x="958" d="M518 -20q-79 0 -132.5 6.5t-103.5 26t-80.5 54.5t-53.5 92.5t-32.5 139t-9.5 195.5q0 80 6 146.5t16 117.5t27.5 90.5t37 67.5t47 48t54.5 32t64 19t71 9t79 2q69 0 122 -10t91 -27.5t64 -49.5t42 -66.5t24.5 -88.5t11.5 -106.5t3 -128.5q0 -46 -15 -66t-58 -20h-514 q1 -77 4 -126t14 -89.5t27.5 -61.5t47 -35.5t68 -19t95.5 -4.5q69 0 134.5 10.5t105 21.5t48.5 11q29 0 29 -68q0 -39 -9.5 -53.5t-39.5 -25.5q-51 -19 -132.5 -31t-152.5 -12zM504 883q-52 0 -84.5 -6t-61 -23t-43.5 -51t-24.5 -87.5t-11.5 -135.5h423q0 43 -0.5 66t-2 56 t-5.5 50t-10.5 40t-16.5 34t-25 24.5t-34.5 19t-45.5 9.5t-58 4zM494 1135q-132 0 -176 42.5t-44 149.5q0 35 12 44t54 9q41 0 53 -8t13 -39q1 -25 3 -36t11 -20.5t26 -12t48 -2.5q32 0 49 2.5t26.5 12t11.5 20.5t3 36q2 31 12.5 39t52.5 8t53 -9t11 -44q0 -73 -16 -112 t-64 -59.5t-139 -20.5z" />
<glyph unicode="&#x116;" horiz-adv-x="931" d="M870 76q0 -45 -10.5 -60.5t-40.5 -15.5h-631q-37 0 -49 10t-12 41v1157q0 31 12 41.5t49 10.5h611q30 0 40.5 -15t10.5 -61q0 -47 -10.5 -62.5t-40.5 -15.5h-504v-367h391q31 0 41 -13.5t10 -59.5q0 -47 -10 -61.5t-41 -14.5h-391v-436h524q30 0 40.5 -15.5t10.5 -62.5z M492 1415q-60 0 -77.5 12t-17.5 52v43q0 40 18 52.5t77 12.5q61 0 78.5 -12.5t17.5 -52.5v-43q0 -40 -17.5 -52t-78.5 -12z" />
<glyph unicode="&#x117;" horiz-adv-x="958" d="M518 -20q-79 0 -132.5 6.5t-103.5 26t-80.5 54.5t-53.5 92.5t-32.5 139t-9.5 195.5q0 80 6 146.5t16 117.5t27.5 90.5t37 67.5t47 48t54.5 32t64 19t71 9t79 2q69 0 122 -10t91 -27.5t64 -49.5t42 -66.5t24.5 -88.5t11.5 -106.5t3 -128.5q0 -46 -15 -66t-58 -20h-514 q1 -77 4 -126t14 -89.5t27.5 -61.5t47 -35.5t68 -19t95.5 -4.5q69 0 134.5 10.5t105 21.5t48.5 11q29 0 29 -68q0 -39 -9.5 -53.5t-39.5 -25.5q-51 -19 -132.5 -31t-152.5 -12zM504 883q-52 0 -84.5 -6t-61 -23t-43.5 -51t-24.5 -87.5t-11.5 -135.5h423q0 43 -0.5 66t-2 56 t-5.5 50t-10.5 40t-16.5 34t-25 24.5t-34.5 19t-45.5 9.5t-58 4zM494 1165q-60 0 -77.5 12t-17.5 52v43q0 40 18 52.5t77 12.5q61 0 78.5 -12.5t17.5 -52.5v-43q0 -40 -17.5 -52t-78.5 -12z" />
<glyph unicode="&#x118;" horiz-adv-x="931" d="M737 666q0 -47 -10 -61.5t-41 -14.5h-391v-436h524q30 0 40.5 -15.5t10.5 -62.5q0 -34 -10.5 -62t-44.5 -71q-48 -63 -65 -94t-17 -58q0 -28 8 -37.5t31 -9.5q19 0 37.5 3t26.5 3q21 0 27.5 -11.5t6.5 -49.5q0 -35 -11 -48.5t-42 -21.5q-51 -14 -100 -14q-72 0 -107 34 t-35 111q0 65 32 119t106 131h-525q-37 0 -49 10t-12 41v1157q0 31 12 41.5t49 10.5h611q30 0 40.5 -15t10.5 -61q0 -47 -10.5 -62.5t-40.5 -15.5h-504v-367h391q31 0 41 -13.5t10 -59.5z" />
<glyph unicode="&#x119;" horiz-adv-x="958" d="M698 -395q-73 0 -108 34t-35 111q0 63 29.5 117.5t95.5 126.5q-93 -14 -162 -14q-79 0 -132.5 6.5t-103.5 26t-80.5 54.5t-53.5 92.5t-32.5 139t-9.5 195.5q0 80 6 146.5t16 117.5t27.5 90.5t37 67.5t47 48t54.5 32t64 19t71 9t79 2q69 0 122 -10t91 -27.5t64 -49.5 t42 -66.5t24.5 -88.5t11.5 -106.5t3 -128.5q0 -46 -15 -66t-58 -20h-514q1 -77 4 -126t14 -89.5t27.5 -61.5t47 -35.5t68 -19t95.5 -4.5q69 0 134.5 10.5t105 21.5t48.5 11q29 0 29 -68q0 -43 -12.5 -71.5t-53.5 -87.5q-71 -101 -71 -152q0 -28 8 -37.5t31 -9.5q19 0 37 3 t26 3q20 0 27.5 -12t7.5 -49q0 -35 -11 -48.5t-42 -21.5q-54 -14 -101 -14zM504 883q-52 0 -84.5 -6t-61 -23t-43.5 -51t-24.5 -87.5t-11.5 -135.5h423q0 43 -0.5 66t-2 56t-5.5 50t-10.5 40t-16.5 34t-25 24.5t-34.5 19t-45.5 9.5t-58 4z" />
<glyph unicode="&#x11a;" horiz-adv-x="931" d="M870 76q0 -45 -10.5 -60.5t-40.5 -15.5h-631q-37 0 -49 10t-12 41v1157q0 31 12 41.5t49 10.5h611q30 0 40.5 -15t10.5 -61q0 -47 -10.5 -62.5t-40.5 -15.5h-504v-367h391q31 0 41 -13.5t10 -59.5q0 -47 -10 -61.5t-41 -14.5h-391v-436h524q30 0 40.5 -15.5t10.5 -62.5z M227 1640q0 33 66 33q43 0 61 -7.5t35 -33.5l98 -155h11l98 155q15 25 34 33t62 8q66 0 66 -33q0 -7 -23 -51l-121 -200q-13 -22 -29.5 -30.5t-58.5 -8.5h-67q-42 0 -58.5 8.5t-29.5 30.5l-121 200q-23 44 -23 51z" />
<glyph unicode="&#x11b;" horiz-adv-x="958" d="M518 -20q-79 0 -132.5 6.5t-103.5 26t-80.5 54.5t-53.5 92.5t-32.5 139t-9.5 195.5q0 80 6 146.5t16 117.5t27.5 90.5t37 67.5t47 48t54.5 32t64 19t71 9t79 2q69 0 122 -10t91 -27.5t64 -49.5t42 -66.5t24.5 -88.5t11.5 -106.5t3 -128.5q0 -46 -15 -66t-58 -20h-514 q1 -77 4 -126t14 -89.5t27.5 -61.5t47 -35.5t68 -19t95.5 -4.5q69 0 134.5 10.5t105 21.5t48.5 11q29 0 29 -68q0 -39 -9.5 -53.5t-39.5 -25.5q-51 -19 -132.5 -31t-152.5 -12zM504 883q-52 0 -84.5 -6t-61 -23t-43.5 -51t-24.5 -87.5t-11.5 -135.5h423q0 43 -0.5 66t-2 56 t-5.5 50t-10.5 40t-16.5 34t-25 24.5t-34.5 19t-45.5 9.5t-58 4zM231 1395q0 32 66 32q43 0 61 -7.5t35 -33.5l99 -155h10l98 155q15 25 34 33t62 8q66 0 66 -32q0 -8 -23 -52l-121 -200q-13 -22 -29.5 -30.5t-58.5 -8.5h-67q-42 0 -58.5 8.5t-29.5 30.5l-121 200 q-23 44 -23 52z" />
<glyph unicode="&#x11c;" horiz-adv-x="1005" d="M508 -18q-62 0 -102.5 3.5t-88.5 15.5t-78.5 35t-61 64t-47.5 100t-27.5 144.5t-10.5 196.5v155q0 99 7 177.5t22.5 137t34.5 101t49.5 71t61 46t75 26.5t84.5 12t98 3q164 0 295 -39q28 -7 38.5 -21.5t10.5 -58.5q0 -41 -6 -54.5t-24 -13.5l-101 19q-101 18 -182 18 q-43 0 -71.5 -1.5t-59 -6.5t-49 -15t-38 -25.5t-30.5 -40t-21.5 -56t-15 -75.5t-7.5 -98t-3 -124v-103q0 -79 3.5 -139.5t12 -106t18.5 -78t28.5 -54.5t36 -34.5t47 -19t55 -8.5t65.5 -2q87 0 133 20t69.5 79t23.5 174v129h-197q-28 0 -37.5 15t-9.5 62q0 42 9.5 56t37.5 14 h279q44 0 57.5 -11t13.5 -40v-250q0 -118 -21 -194.5t-70.5 -122.5t-122 -64t-183.5 -18zM500 1546h-13l-98 -155q-15 -25 -33.5 -33t-60.5 -8q-66 0 -66 32q0 13 23 52l121 200q13 23 29 31t57 8h69q41 0 57 -8t29 -31l121 -200q23 -39 23 -52q0 -32 -66 -32q-42 0 -60.5 8 t-33.5 33z" />
<glyph unicode="&#x11d;" horiz-adv-x="1050" d="M106 512q0 129 15.5 219.5t44 148t78 90t107.5 44.5t143 12q108 0 178 -32t106 -113l21 80q7 30 22 37.5t62 7.5q48 0 63 -9t15 -30q0 -9 -12 -52t-24 -117.5t-12 -160.5v-563q0 -114 -21.5 -197.5t-58 -135t-94 -82.5t-121 -42.5t-147.5 -11.5q-153 0 -276 24 q-29 7 -40.5 23t-11.5 59q0 39 7 53.5t26 14.5q10 0 50 -5.5t106.5 -11.5t142.5 -6q157 0 213.5 68t56.5 239v35q-80 -118 -301 -118q-72 0 -122.5 10t-89 35.5t-62 63t-38.5 100t-20.5 138.5t-5.5 185zM279 492q0 -96 5.5 -156.5t18 -104.5t38 -65.5t60.5 -31t91 -9.5 q73 0 118.5 11t82 42t52 90.5t15.5 153.5v156q0 89 -9.5 143.5t-36 93t-73 53.5t-121.5 15q-78 0 -121 -13t-72 -57t-38.5 -117.5t-9.5 -203.5zM532 1300h-12l-98 -155q-15 -25 -33.5 -33t-60.5 -8q-66 0 -66 33q0 12 23 51l121 201q13 22 28.5 30t57.5 8h69q42 0 57.5 -8 t28.5 -30l121 -201q23 -39 23 -51q0 -33 -66 -33q-42 0 -60.5 8t-33.5 33z" />
<glyph unicode="&#x11e;" horiz-adv-x="1005" d="M508 -18q-62 0 -102.5 3.5t-88.5 15.5t-78.5 35t-61 64t-47.5 100t-27.5 144.5t-10.5 196.5v155q0 99 7 177.5t22.5 137t34.5 101t49.5 71t61 46t75 26.5t84.5 12t98 3q164 0 295 -39q28 -7 38.5 -21.5t10.5 -58.5q0 -41 -6 -54.5t-24 -13.5l-101 19q-101 18 -182 18 q-43 0 -71.5 -1.5t-59 -6.5t-49 -15t-38 -25.5t-30.5 -40t-21.5 -56t-15 -75.5t-7.5 -98t-3 -124v-103q0 -79 3.5 -139.5t12 -106t18.5 -78t28.5 -54.5t36 -34.5t47 -19t55 -8.5t65.5 -2q87 0 133 20t69.5 79t23.5 174v129h-197q-28 0 -37.5 15t-9.5 62q0 42 9.5 56t37.5 14 h279q44 0 57.5 -11t13.5 -40v-250q0 -118 -21 -194.5t-70.5 -122.5t-122 -64t-183.5 -18zM492 1380q-131 0 -175.5 42.5t-44.5 150.5q0 35 12 44t54 9q41 0 52 -8t13 -39q2 -45 16 -58.5t73 -13.5q60 0 74 13t16 59q2 31 12.5 39t52.5 8t53 -9t11 -44q0 -73 -16 -112 t-64 -60t-139 -21z" />
<glyph unicode="&#x11f;" horiz-adv-x="1050" d="M106 512q0 129 15.5 219.5t44 148t78 90t107.5 44.5t143 12q108 0 178 -32t106 -113l21 80q7 30 22 37.5t62 7.5q48 0 63 -9t15 -30q0 -9 -12 -52t-24 -117.5t-12 -160.5v-563q0 -114 -21.5 -197.5t-58 -135t-94 -82.5t-121 -42.5t-147.5 -11.5q-153 0 -276 24 q-29 7 -40.5 23t-11.5 59q0 39 7 53.5t26 14.5q10 0 50 -5.5t106.5 -11.5t142.5 -6q157 0 213.5 68t56.5 239v35q-80 -118 -301 -118q-72 0 -122.5 10t-89 35.5t-62 63t-38.5 100t-20.5 138.5t-5.5 185zM279 492q0 -96 5.5 -156.5t18 -104.5t38 -65.5t60.5 -31t91 -9.5 q73 0 118.5 11t82 42t52 90.5t15.5 153.5v156q0 89 -9.5 143.5t-36 93t-73 53.5t-121.5 15q-78 0 -121 -13t-72 -57t-38.5 -117.5t-9.5 -203.5zM524 1135q-131 0 -175 42t-44 150q0 35 12 44t54 9q41 0 52 -8t13 -39q1 -25 3 -36t11 -20.5t26 -12t48 -2.5q32 0 49 2.5 t26.5 12t11.5 20.5t3 36q2 31 13 39t53 8q41 0 52 -9t11 -44q0 -73 -16 -112t-64 -59.5t-139 -20.5z" />
<glyph unicode="&#x120;" horiz-adv-x="1005" d="M508 -18q-62 0 -102.5 3.5t-88.5 15.5t-78.5 35t-61 64t-47.5 100t-27.5 144.5t-10.5 196.5v155q0 99 7 177.5t22.5 137t34.5 101t49.5 71t61 46t75 26.5t84.5 12t98 3q164 0 295 -39q28 -7 38.5 -21.5t10.5 -58.5q0 -41 -6 -54.5t-24 -13.5l-101 19q-101 18 -182 18 q-43 0 -71.5 -1.5t-59 -6.5t-49 -15t-38 -25.5t-30.5 -40t-21.5 -56t-15 -75.5t-7.5 -98t-3 -124v-103q0 -79 3.5 -139.5t12 -106t18.5 -78t28.5 -54.5t36 -34.5t47 -19t55 -8.5t65.5 -2q87 0 133 20t69.5 79t23.5 174v129h-197q-28 0 -37.5 15t-9.5 62q0 42 9.5 56t37.5 14 h279q44 0 57.5 -11t13.5 -40v-250q0 -118 -21 -194.5t-70.5 -122.5t-122 -64t-183.5 -18zM492 1415q-60 0 -77.5 12t-17.5 52v43q0 40 18 52.5t77 12.5q61 0 78.5 -12.5t17.5 -52.5v-43q0 -40 -17.5 -52t-78.5 -12z" />
<glyph unicode="&#x121;" horiz-adv-x="1050" d="M106 512q0 129 15.5 219.5t44 148t78 90t107.5 44.5t143 12q108 0 178 -32t106 -113l21 80q7 30 22 37.5t62 7.5q48 0 63 -9t15 -30q0 -9 -12 -52t-24 -117.5t-12 -160.5v-563q0 -114 -21.5 -197.5t-58 -135t-94 -82.5t-121 -42.5t-147.5 -11.5q-153 0 -276 24 q-29 7 -40.5 23t-11.5 59q0 39 7 53.5t26 14.5q10 0 50 -5.5t106.5 -11.5t142.5 -6q157 0 213.5 68t56.5 239v35q-80 -118 -301 -118q-72 0 -122.5 10t-89 35.5t-62 63t-38.5 100t-20.5 138.5t-5.5 185zM279 492q0 -96 5.5 -156.5t18 -104.5t38 -65.5t60.5 -31t91 -9.5 q73 0 118.5 11t82 42t52 90.5t15.5 153.5v156q0 89 -9.5 143.5t-36 93t-73 53.5t-121.5 15q-78 0 -121 -13t-72 -57t-38.5 -117.5t-9.5 -203.5zM524 1165q-60 0 -77 12t-17 52v43q0 40 17.5 52.5t76.5 12.5q61 0 79 -12.5t18 -52.5v-43q0 -40 -18 -52t-79 -12z" />
<glyph unicode="&#x122;" horiz-adv-x="1005" d="M508 -18q-62 0 -102.5 3.5t-88.5 15.5t-78.5 35t-61 64t-47.5 100t-27.5 144.5t-10.5 196.5v155q0 99 7 177.5t22.5 137t34.5 101t49.5 71t61 46t75 26.5t84.5 12t98 3q164 0 295 -39q28 -7 38.5 -21.5t10.5 -58.5q0 -41 -6 -54.5t-24 -13.5l-101 19q-101 18 -182 18 q-43 0 -71.5 -1.5t-59 -6.5t-49 -15t-38 -25.5t-30.5 -40t-21.5 -56t-15 -75.5t-7.5 -98t-3 -124v-103q0 -79 3.5 -139.5t12 -106t18.5 -78t28.5 -54.5t36 -34.5t47 -19t55 -8.5t65.5 -2q87 0 133 20t69.5 79t23.5 174v129h-197q-28 0 -37.5 15t-9.5 62q0 42 9.5 56t37.5 14 h279q44 0 57.5 -11t13.5 -40v-250q0 -118 -21 -194.5t-70.5 -122.5t-122 -64t-183.5 -18zM473 -471q-32 0 -43.5 7.5t-11.5 25.5q0 8 11 100.5t11 175.5q0 44 16 57t72 13q52 0 69 -11t17 -44q0 -93 -18 -152l-41 -129q-11 -25 -27 -34t-55 -9z" />
<glyph unicode="&#x123;" horiz-adv-x="1050" d="M106 512q0 129 15.5 219.5t44 148t78 90t107.5 44.5t143 12q108 0 178 -32t106 -113l21 80q7 30 22 37.5t62 7.5q48 0 63 -9t15 -30q0 -9 -12 -52t-24 -117.5t-12 -160.5v-563q0 -114 -21.5 -197.5t-58 -135t-94 -82.5t-121 -42.5t-147.5 -11.5q-153 0 -276 24 q-29 7 -40.5 23t-11.5 59q0 39 7 53.5t26 14.5q10 0 50 -5.5t106.5 -11.5t142.5 -6q157 0 213.5 68t56.5 239v35q-80 -118 -301 -118q-72 0 -122.5 10t-89 35.5t-62 63t-38.5 100t-20.5 138.5t-5.5 185zM279 492q0 -96 5.5 -156.5t18 -104.5t38 -65.5t60.5 -31t91 -9.5 q73 0 118.5 11t82 42t52 90.5t15.5 153.5v156q0 89 -9.5 143.5t-36 93t-73 53.5t-121.5 15q-78 0 -121 -13t-72 -57t-38.5 -117.5t-9.5 -203.5zM578 1479q32 0 43.5 -7.5t11.5 -25.5q0 -8 -11.5 -101t-11.5 -176q0 -43 -16 -56t-72 -13q-52 0 -69 11t-17 44q0 90 19 152 l41 129q11 25 27 34t55 9z" />
<glyph unicode="&#x124;" horiz-adv-x="1062" d="M295 727h473v479q0 32 16.5 43t67.5 11q52 0 68 -10.5t16 -43.5v-1151q0 -34 -16 -44.5t-68 -10.5q-51 0 -67.5 10.5t-16.5 44.5v523h-473v-523q0 -34 -16.5 -44.5t-67.5 -10.5t-67.5 10.5t-16.5 44.5v1151q0 32 16.5 43t67.5 11t67.5 -11t16.5 -43v-479zM537 1546h-13 l-98 -155q-15 -25 -33.5 -33t-60.5 -8q-66 0 -66 32q0 13 23 52l121 200q13 23 29 31t57 8h69q41 0 57 -8t29 -31l121 -200q23 -39 23 -52q0 -32 -66 -32q-42 0 -60.5 8t-33.5 33z" />
<glyph unicode="&#x125;" horiz-adv-x="1017" d="M209 0q-52 0 -68 10t-16 45v1227q0 35 16 45t68 10q51 0 67.5 -10.5t16.5 -44.5v-408q40 79 117 115.5t202 36.5q83 0 138 -16t86 -51.5t43 -83t12 -117.5v-703q0 -34 -16.5 -44.5t-67.5 -10.5q-52 0 -69 10t-17 45v664q0 93 -33 126.5t-133 33.5q-144 0 -203 -79.5 t-59 -264.5v-480q0 -34 -16.5 -44.5t-67.5 -10.5zM551 1567h-12l-99 -156q-15 -25 -33.5 -33t-60.5 -8q-65 0 -65 33q0 14 22 51l121 201q13 23 29 31t57 8h70q41 0 57 -8t29 -31l120 -201q23 -39 23 -51q0 -33 -66 -33q-42 0 -60.5 8t-33.5 33z" />
<glyph unicode="&#x126;" horiz-adv-x="1062" d="M23 987q0 43 9 55.5t38 12.5h57v151q0 32 16.5 43t67.5 11t67.5 -11t16.5 -43v-151h473v151q0 32 16.5 43t67.5 11q52 0 68 -10.5t16 -43.5v-151h51q30 0 39.5 -13t9.5 -55t-9.5 -54.5t-39.5 -12.5h-51v-865q0 -34 -16 -44.5t-68 -10.5q-51 0 -67.5 10.5t-16.5 44.5v523 h-473v-523q0 -34 -16.5 -44.5t-67.5 -10.5t-67.5 10.5t-16.5 44.5v865h-57q-29 0 -38 12.5t-9 54.5zM295 727h473v193h-473v-193z" />
<glyph unicode="&#x127;" horiz-adv-x="1017" d="M209 0q-52 0 -68 10t-16 45v1039h-84q-27 0 -36 11t-9 46t9 46t36 11h84v74q0 35 16 45t68 10q51 0 67.5 -10.5t16.5 -44.5v-74h88q28 0 37.5 -10.5t9.5 -46.5q0 -33 -9.5 -44t-37.5 -11h-88v-222q40 79 117 115.5t202 36.5q83 0 138 -16t86 -51.5t43 -83t12 -117.5v-703 q0 -34 -16.5 -44.5t-67.5 -10.5q-52 0 -69 10t-17 45v664q0 93 -33 126.5t-133 33.5q-144 0 -203 -79.5t-59 -264.5v-480q0 -34 -16.5 -44.5t-67.5 -10.5z" />
<glyph unicode="&#x128;" horiz-adv-x="421" d="M211 0q-51 0 -67.5 10.5t-16.5 44.5v1151q0 32 16.5 43t67.5 11t67.5 -11t16.5 -43v-1151q0 -34 -16.5 -44.5t-67.5 -10.5zM-57 1456q0 34 10 49.5t39 34.5q56 37 121 37q45 0 112 -21.5t99 -21.5q41 0 84 19.5t47 19.5q15 0 20.5 -11.5t5.5 -48.5q0 -35 -10.5 -51 t-38.5 -35q-61 -34 -123 -34q-44 0 -110.5 20.5t-98.5 20.5q-41 0 -84 -18.5t-47 -18.5q-16 0 -21 11t-5 48z" />
<glyph unicode="&#x129;" horiz-adv-x="425" d="M-55 1217q0 34 10 49t39 34q56 37 121 37q45 0 112 -21.5t99 -21.5q41 0 84 19.5t47 19.5q16 0 21 -11t5 -48q0 -35 -10.5 -51t-38.5 -35q-63 -35 -123 -35q-44 0 -110.5 20.5t-98.5 20.5q-41 0 -84 -18.5t-47 -18.5q-15 0 -20.5 11.5t-5.5 48.5zM209 0q-52 0 -68 10 t-16 45v897q0 35 16 44.5t68 9.5q51 0 67.5 -10t16.5 -44v-897q0 -34 -16.5 -44.5t-67.5 -10.5z" />
<glyph unicode="&#x12a;" horiz-adv-x="421" d="M211 0q-51 0 -67.5 10.5t-16.5 44.5v1151q0 32 16.5 43t67.5 11t67.5 -11t16.5 -43v-1151q0 -34 -16.5 -44.5t-67.5 -10.5zM2 1493q0 46 10.5 60t42.5 14h316q32 0 42.5 -14t10.5 -60t-10.5 -60t-42.5 -14h-316q-32 0 -42.5 14t-10.5 60z" />
<glyph unicode="&#x12b;" horiz-adv-x="425" d="M2 1247q0 46 10.5 60t42.5 14h316q32 0 42.5 -14t10.5 -60q0 -45 -10 -59t-43 -14h-316q-33 0 -43 14t-10 59zM209 0q-52 0 -68 10t-16 45v897q0 35 16 44.5t68 9.5q51 0 67.5 -10t16.5 -44v-897q0 -34 -16.5 -44.5t-67.5 -10.5z" />
<glyph unicode="&#x12c;" horiz-adv-x="421" d="M211 0q-51 0 -67.5 10.5t-16.5 44.5v1151q0 32 16.5 43t67.5 11t67.5 -11t16.5 -43v-1151q0 -34 -16.5 -44.5t-67.5 -10.5zM211 1378q-131 0 -175 42.5t-44 150.5q0 35 11.5 44t53.5 9q41 0 53 -8t13 -39q2 -46 15.5 -59t72.5 -13q60 0 74 13t16 59q2 31 13 39t53 8 q41 0 52 -9t11 -44q0 -73 -16 -112t-64 -60t-139 -21z" />
<glyph unicode="&#x12d;" horiz-adv-x="425" d="M213 1135q-131 0 -175 42t-44 150q0 35 11.5 44t53.5 9q41 0 53 -8t13 -39q1 -25 3 -36t11 -20.5t26 -12t48 -2.5q32 0 49 2.5t26.5 12t11.5 20.5t3 36q2 31 13 39t53 8q41 0 52 -9t11 -44q0 -73 -16 -112t-64 -59.5t-139 -20.5zM209 0q-52 0 -68 10t-16 45v897 q0 35 16 44.5t68 9.5q51 0 67.5 -10t16.5 -44v-897q0 -34 -16.5 -44.5t-67.5 -10.5z" />
<glyph unicode="&#x12e;" horiz-adv-x="421" d="M295 1206v-1128q0 -38 -9.5 -64.5t-45.5 -70.5q-48 -63 -65 -94t-17 -58q0 -28 8 -37.5t31 -9.5q19 0 37 3t26 3q20 0 27.5 -12t7.5 -49q0 -35 -11 -48.5t-42 -21.5q-54 -14 -101 -14q-73 0 -107 34t-34 111q0 66 34 121t113 137q-20 10 -20 47v1151q0 32 16.5 43 t67.5 11t67.5 -11t16.5 -43z" />
<glyph unicode="&#x12f;" horiz-adv-x="425" d="M139 -395q-73 0 -108 34t-35 111q0 61 33.5 119.5t113.5 138.5q-18 10 -18 47v897q0 35 16 44.5t68 9.5q51 0 67.5 -10t16.5 -44v-897q0 -28 -11.5 -51t-52.5 -72q-41 -47 -57 -78.5t-16 -62.5q0 -28 8 -37.5t31 -9.5q19 0 37 3t26 3q20 0 27.5 -12t7.5 -49 q0 -35 -11.5 -48.5t-41.5 -21.5q-54 -14 -101 -14zM209 1165q-61 0 -77.5 12t-16.5 52v43q0 41 17 53t77 12q59 0 76.5 -12.5t17.5 -52.5v-43q0 -40 -17 -52t-77 -12z" />
<glyph unicode="&#x130;" horiz-adv-x="421" d="M211 0q-51 0 -67.5 10.5t-16.5 44.5v1151q0 32 16.5 43t67.5 11t67.5 -11t16.5 -43v-1151q0 -34 -16.5 -44.5t-67.5 -10.5zM211 1415q-60 0 -77 12t-17 52v43q0 40 17.5 52.5t76.5 12.5q61 0 78.5 -12.5t17.5 -52.5v-43q0 -40 -17.5 -52t-78.5 -12z" />
<glyph unicode="&#x131;" horiz-adv-x="425" d="M209 0q-52 0 -68 10t-16 45v897q0 35 16 44.5t68 9.5q51 0 67.5 -10t16.5 -44v-897q0 -34 -16.5 -44.5t-67.5 -10.5z" />
<glyph unicode="&#x132;" horiz-adv-x="1107" d="M211 0q-51 0 -67.5 10.5t-16.5 44.5v1151q0 32 16.5 43t67.5 11t67.5 -11t16.5 -43v-1151q0 -34 -16.5 -44.5t-67.5 -10.5zM686 -18q-110 0 -194 26q-29 8 -40.5 24t-11.5 56q0 42 6.5 53t26.5 11q8 0 68 -9.5t108 -9.5q97 0 130.5 37t33.5 147v889q0 32 16.5 43t67.5 11 t67.5 -11t16.5 -43v-899q0 -173 -72.5 -249t-222.5 -76z" />
<glyph unicode="&#x133;" horiz-adv-x="854" d="M209 0q-52 0 -68 10t-16 45v897q0 35 16 44.5t68 9.5q51 0 67.5 -10t16.5 -44v-897q0 -34 -16.5 -44.5t-67.5 -10.5zM209 1165q-61 0 -77.5 12t-16.5 52v43q0 41 17 53t77 12q59 0 76.5 -12.5t17.5 -52.5v-43q0 -40 -17 -52t-77 -12zM635 1006q51 0 67.5 -10t16.5 -44 v-1093q0 -135 -50 -194.5t-165 -59.5q-69 0 -139 20q-31 8 -42.5 22t-11.5 50q0 42 7 53.5t26 11.5q8 0 48 -5t69 -5q57 0 73.5 24.5t16.5 117.5v1058q0 35 16 44.5t68 9.5zM635 1165q-61 0 -77.5 12t-16.5 52v43q0 41 17 53t77 12q59 0 76.5 -12.5t17.5 -52.5v-43 q0 -40 -17 -52t-77 -12z" />
<glyph unicode="&#x134;" horiz-adv-x="686" d="M264 -18q-110 0 -194 26q-29 8 -40.5 24t-11.5 56q0 42 6.5 53t26.5 11q8 0 68 -9.5t108 -9.5q97 0 130.5 37t33.5 147v889q0 32 16.5 43t67.5 11t67.5 -11t16.5 -43v-899q0 -173 -72.5 -249t-222.5 -76zM479 1546h-12l-98 -155q-15 -25 -33.5 -33t-61.5 -8q-65 0 -65 32 q0 15 22 52l121 200q13 23 29 31t57 8h70q41 0 57 -8t29 -31l121 -200q22 -37 22 -52q0 -32 -65 -32q-42 0 -60.5 8t-33.5 33z" />
<glyph unicode="&#x135;" horiz-adv-x="425" d="M209 1006q51 0 67.5 -10t16.5 -44v-1093q0 -135 -50 -194.5t-165 -59.5q-69 0 -139 20q-31 8 -42.5 22t-11.5 50q0 42 7 53.5t26 11.5q8 0 48 -5t69 -5q57 0 73.5 24.5t16.5 117.5v1058q0 35 16 44.5t68 9.5zM215 1300h-12l-99 -155q-15 -25 -33.5 -33t-60.5 -8 q-65 0 -65 33q0 14 22 51l121 201q13 22 28.5 30t57.5 8h70q42 0 57.5 -8t28.5 -30l121 -201q22 -37 22 -51q0 -33 -65 -33q-43 0 -61.5 8t-33.5 33z" />
<glyph unicode="&#x136;" horiz-adv-x="937" d="M211 0q-51 0 -67.5 10.5t-16.5 44.5v1151q0 32 16.5 43t67.5 11t67.5 -11t16.5 -43v-504h29l368 519q17 25 36.5 32t74.5 7q45 0 63.5 -8t18.5 -27q0 -21 -27 -60l-389 -522l410 -539q28 -38 28 -65q0 -21 -16.5 -30t-67.5 -9q-46 0 -67.5 8t-38.5 31l-395 547h-27v-531 q0 -34 -16.5 -44.5t-67.5 -10.5zM426 -471q-32 0 -43.5 7.5t-11.5 25.5q0 8 11 100.5t11 175.5q0 44 16 57t72 13q52 0 69 -11t17 -44q0 -93 -18 -152l-41 -129q-11 -25 -27 -34t-55 -9z" />
<glyph unicode="&#x137;" horiz-adv-x="876" d="M209 0q-52 0 -68 10t-16 45v1227q0 35 16 45t68 10q51 0 67.5 -10.5t16.5 -44.5v-700h18l322 383q23 26 42 33.5t70 7.5q82 0 82 -29q0 -25 -28 -57l-338 -394l362 -440q27 -31 27 -53q0 -33 -88 -33q-47 0 -64.5 7.5t-40.5 35.5l-348 424h-16v-412q0 -34 -16.5 -44.5 t-67.5 -10.5zM397 -471q-32 0 -43.5 7.5t-11.5 25.5q0 8 11.5 100.5t11.5 175.5q0 44 16 57t72 13q52 0 69 -11t17 -44q0 -90 -19 -152l-41 -129q-11 -25 -27 -34t-55 -9z" />
<glyph unicode="&#x139;" horiz-adv-x="866" d="M295 154h483q30 0 40.5 -15.5t10.5 -62.5q0 -45 -10.5 -60.5t-40.5 -15.5h-590q-37 0 -49 10t-12 41v1155q0 32 16.5 43t67.5 11t67.5 -11t16.5 -43v-1052zM225 1350q-71 0 -71 32q0 14 20 54l96 184q11 23 18 31.5t27.5 15t59.5 6.5q96 0 96 -33q0 -15 -29 -63 l-116 -180q-17 -27 -35 -37t-66 -10z" />
<glyph unicode="&#x13a;" horiz-adv-x="419" d="M209 0q-52 0 -68 10t-16 45v1227q0 35 16 45t68 10q51 0 67.5 -10.5t16.5 -44.5v-1227q0 -34 -16.5 -44.5t-67.5 -10.5zM184 1411q-71 0 -71 33q0 13 20 53l96 184q11 23 18 31.5t27.5 15.5t59.5 7q96 0 96 -33q0 -16 -29 -64l-116 -180q-17 -27 -35 -37t-66 -10z" />
<glyph unicode="&#x13b;" horiz-adv-x="866" d="M295 154h483q30 0 40.5 -15.5t10.5 -62.5q0 -45 -10.5 -60.5t-40.5 -15.5h-590q-37 0 -49 10t-12 41v1155q0 32 16.5 43t67.5 11t67.5 -11t16.5 -43v-1052zM426 -471q-32 0 -43.5 7.5t-11.5 25.5q0 8 11 100.5t11 175.5q0 44 16 57t72 13q52 0 69 -11t17 -44 q0 -93 -18 -152l-41 -129q-11 -25 -27 -34t-55 -9z" />
<glyph unicode="&#x13c;" horiz-adv-x="419" d="M209 0q-52 0 -68 10t-16 45v1227q0 35 16 45t68 10q51 0 67.5 -10.5t16.5 -44.5v-1227q0 -34 -16.5 -44.5t-67.5 -10.5zM156 -471q-33 0 -44.5 7.5t-11.5 25.5q0 8 11.5 100.5t11.5 175.5q0 44 16 57t72 13q52 0 69 -11t17 -44q0 -93 -18 -152l-41 -129q-11 -25 -27 -34 t-55 -9z" />
<glyph unicode="&#x13d;" horiz-adv-x="866" d="M295 154h483q30 0 40.5 -15.5t10.5 -62.5q0 -45 -10.5 -60.5t-40.5 -15.5h-590q-37 0 -49 10t-12 41v1155q0 32 16.5 43t67.5 11t67.5 -11t16.5 -43v-1052zM573 1262q54 0 71.5 -13t17.5 -51v-57q0 -64 -27 -160l-35 -121q-12 -35 -28.5 -46t-59.5 -11q-32 0 -42.5 7.5 t-10.5 25.5q0 13 13 104.5t13 151.5v106q0 38 16.5 51t71.5 13z" />
<glyph unicode="&#x13e;" horiz-adv-x="679" d="M537 1337q55 0 71.5 -12.5t16.5 -50.5v-57q0 -64 -27 -160l-35 -121q-12 -35 -28.5 -46t-57.5 -11q-33 0 -44 7t-11 25q0 13 14.5 104.5t14.5 151.5v107q0 38 16 50.5t70 12.5zM209 0q-52 0 -68 10t-16 45v1227q0 35 16 45t68 10q51 0 67.5 -10.5t16.5 -44.5v-1227 q0 -34 -16.5 -44.5t-67.5 -10.5z" />
<glyph unicode="&#x13f;" horiz-adv-x="866" d="M295 154h483q30 0 40.5 -15.5t10.5 -62.5q0 -45 -10.5 -60.5t-40.5 -15.5h-590q-37 0 -49 10t-12 41v1155q0 32 16.5 43t67.5 11t67.5 -11t16.5 -43v-1052zM537 575q-60 0 -77.5 12t-17.5 52v43q0 40 18 53t77 13q60 0 78 -13t18 -53v-43q0 -40 -17.5 -52t-78.5 -12z" />
<glyph unicode="&#x140;" horiz-adv-x="624" d="M209 0q-52 0 -68 10t-16 45v1227q0 35 16 45t68 10q51 0 67.5 -10.5t16.5 -44.5v-1227q0 -34 -16.5 -44.5t-67.5 -10.5zM492 451q-60 0 -77.5 11.5t-17.5 51.5v43q0 40 18 53t77 13q60 0 78 -13t18 -53v-43q0 -40 -17.5 -51.5t-78.5 -11.5z" />
<glyph unicode="&#x141;" horiz-adv-x="866" d="M295 154h483q30 0 40.5 -15.5t10.5 -62.5q0 -45 -10.5 -60.5t-40.5 -15.5h-590q-37 0 -49 10t-12 41v416l-59 -37q-26 -16 -41 -16q-14 0 -21.5 12.5t-7.5 50.5q0 42 9.5 63t33.5 35l86 54v577q0 32 16.5 43t67.5 11t67.5 -11t16.5 -43v-471l235 152q27 16 39 16 q29 0 29 -63q0 -42 -9.5 -63t-33.5 -36l-260 -166v-421z" />
<glyph unicode="&#x142;" horiz-adv-x="456" d="M227 0q-52 0 -68 10t-16 45v457l-73 -47q-23 -14 -39 -14q-27 0 -27 59q0 42 8.5 62.5t32.5 35.5l98 64v610q0 35 16 45t68 10q51 0 67.5 -10.5t16.5 -44.5v-500l78 52q23 14 39 14q27 0 27 -60q0 -42 -8.5 -62.5t-32.5 -35.5l-103 -67v-568q0 -34 -16.5 -44.5 t-67.5 -10.5z" />
<glyph unicode="&#x143;" horiz-adv-x="1112" d="M211 0q-51 0 -67.5 10.5t-16.5 44.5v1151q0 33 23 43.5t98 10.5q66 0 91.5 -9t41.5 -45l416 -946h20v946q0 33 16 43.5t68 10.5q51 0 67.5 -11t16.5 -43v-1151q0 -34 -21.5 -44.5t-97.5 -10.5q-64 0 -87 9t-40 44l-424 948h-20v-946q0 -34 -16.5 -44.5t-67.5 -10.5z M516 1350q-72 0 -72 32q0 12 21 54l96 184q11 23 18 31.5t27.5 15t59.5 6.5q96 0 96 -33q0 -15 -29 -63l-117 -180q-12 -19 -19.5 -27t-27 -14t-53.5 -6z" />
<glyph unicode="&#x144;" horiz-adv-x="1044" d="M236 0q-52 0 -69 10t-17 45v582q0 86 -11.5 160.5t-23 117.5t-11.5 52q0 21 15 30t63 9q46 0 61.5 -7.5t22.5 -37.5l29 -121q41 96 124.5 141t219.5 45q83 0 138 -16t86 -51.5t43 -83t12 -117.5v-703q0 -34 -17.5 -44.5t-69.5 -10.5q-51 0 -67 10t-16 45v664 q0 93 -33 126.5t-133 33.5q-145 0 -204 -79.5t-59 -264.5v-480q0 -35 -16 -45t-67 -10zM492 1104q-72 0 -72 33q0 13 20 53l97 184q11 23 17.5 31.5t27 15t59.5 6.5q96 0 96 -32q0 -18 -28 -64l-117 -180q-12 -19 -19.5 -27t-27 -14t-53.5 -6z" />
<glyph unicode="&#x145;" horiz-adv-x="1112" d="M211 0q-51 0 -67.5 10.5t-16.5 44.5v1151q0 33 23 43.5t98 10.5q66 0 91.5 -9t41.5 -45l416 -946h20v946q0 33 16 43.5t68 10.5q51 0 67.5 -11t16.5 -43v-1151q0 -34 -21.5 -44.5t-97.5 -10.5q-64 0 -87 9t-40 44l-424 948h-20v-946q0 -34 -16.5 -44.5t-67.5 -10.5z M512 -471q-32 0 -43.5 7.5t-11.5 25.5q0 8 11 100.5t11 175.5q0 44 16 57t72 13q52 0 69 -11t17 -44q0 -93 -18 -152l-41 -129q-11 -25 -27 -34t-55 -9z" />
<glyph unicode="&#x146;" horiz-adv-x="1044" d="M236 0q-52 0 -69 10t-17 45v582q0 86 -11.5 160.5t-23 117.5t-11.5 52q0 21 15 30t63 9q46 0 61.5 -7.5t22.5 -37.5l29 -121q41 96 124.5 141t219.5 45q83 0 138 -16t86 -51.5t43 -83t12 -117.5v-703q0 -34 -17.5 -44.5t-69.5 -10.5q-51 0 -67 10t-16 45v664 q0 93 -33 126.5t-133 33.5q-145 0 -204 -79.5t-59 -264.5v-480q0 -35 -16 -45t-67 -10zM485 -471q-32 0 -43.5 7.5t-11.5 25.5q0 8 11.5 100.5t11.5 175.5q0 44 16 57t72 13q52 0 69 -11t17 -44q0 -90 -19 -152l-41 -129q-11 -25 -27 -34t-55 -9z" />
<glyph unicode="&#x147;" horiz-adv-x="1112" d="M211 0q-51 0 -67.5 10.5t-16.5 44.5v1151q0 33 23 43.5t98 10.5q66 0 91.5 -9t41.5 -45l416 -946h20v946q0 33 16 43.5t68 10.5q51 0 67.5 -11t16.5 -43v-1151q0 -34 -21.5 -44.5t-97.5 -10.5q-64 0 -87 9t-40 44l-424 948h-20v-946q0 -34 -16.5 -44.5t-67.5 -10.5z M297 1640q0 33 65 33q43 0 61.5 -7.5t35.5 -33.5l98 -155h10l99 155q15 25 34 33t62 8q65 0 65 -33q0 -9 -22 -51l-121 -200q-13 -22 -29.5 -30.5t-58.5 -8.5h-68q-42 0 -58.5 8.5t-29.5 30.5l-121 200q-22 42 -22 51z" />
<glyph unicode="&#x148;" horiz-adv-x="1044" d="M236 0q-52 0 -69 10t-17 45v582q0 86 -11.5 160.5t-23 117.5t-11.5 52q0 21 15 30t63 9q46 0 61.5 -7.5t22.5 -37.5l29 -121q41 96 124.5 141t219.5 45q83 0 138 -16t86 -51.5t43 -83t12 -117.5v-703q0 -34 -17.5 -44.5t-69.5 -10.5q-51 0 -67 10t-16 45v664 q0 93 -33 126.5t-133 33.5q-145 0 -204 -79.5t-59 -264.5v-480q0 -35 -16 -45t-67 -10zM270 1395q0 32 66 32q43 0 61 -7.5t35 -33.5l98 -155h11l98 155q15 25 34 33t62 8q66 0 66 -32q0 -8 -23 -52l-121 -200q-13 -22 -29.5 -30.5t-58.5 -8.5h-67q-42 0 -58.5 8.5 t-29.5 30.5l-121 200q-23 44 -23 52z" />
<glyph unicode="&#x14a;" horiz-adv-x="1112" d="M770 -395q-69 0 -139 20q-30 8 -41.5 22t-11.5 50q0 42 6.5 53.5t25.5 11.5q8 0 48 -5t69 -5q57 0 73.5 24.5t16.5 117.5v106q-33 3 -49 13.5t-29 39.5l-424 948h-20v-946q0 -34 -16.5 -44.5t-67.5 -10.5t-67.5 10.5t-16.5 44.5v1151q0 33 23 43.5t98 10.5q66 0 91.5 -9 t41.5 -45l416 -946h20v946q0 33 16 43.5t68 10.5q51 0 67.5 -11t16.5 -43v-1347q0 -135 -50 -194.5t-165 -59.5z" />
<glyph unicode="&#x14b;" horiz-adv-x="1044" d="M236 0q-52 0 -69 10t-17 45v582q0 86 -11.5 160.5t-23 117.5t-11.5 52q0 21 15 30t63 9q46 0 61.5 -7.5t22.5 -37.5l29 -121q41 96 124.5 141t219.5 45q83 0 138 -16t86 -51.5t43 -83t12 -117.5v-899q0 -135 -51 -194.5t-165 -59.5q-71 0 -141 20q-30 8 -41.5 22 t-11.5 50q0 41 8 53t27 12q6 0 46.5 -5t69.5 -5q57 0 73 24.5t16 117.5v825q0 93 -33 126.5t-133 33.5q-145 0 -204 -79.5t-59 -264.5v-480q0 -35 -16 -45t-67 -10z" />
<glyph unicode="&#x14c;" horiz-adv-x="1073" d="M537 129q59 0 96.5 5t70.5 22.5t50.5 46t30.5 80t17.5 120.5t4.5 172v101q0 106 -3.5 173t-15.5 120.5t-28.5 80.5t-49.5 45t-71.5 22.5t-101.5 4.5q-60 0 -96.5 -5t-70 -22t-50.5 -45.5t-30.5 -80t-17.5 -120.5t-4 -173v-101q0 -106 3.5 -172.5t15 -120t28 -80.5 t49.5 -45.5t71.5 -23t101.5 -4.5zM537 -18q-66 0 -113 3.5t-93.5 14t-77 29t-58.5 49.5t-44.5 73.5t-29.5 102.5t-18 136t-5 175v117q0 102 6 181.5t20.5 139.5t32 103.5t47.5 73t60.5 47.5t76.5 27.5t89.5 12.5t106.5 3q68 0 115.5 -3.5t93.5 -14.5t76.5 -29.5t58.5 -49.5 t44 -73.5t28 -103.5t17 -137.5t5 -176.5v-117q0 -100 -6 -179t-20.5 -138.5t-32.5 -102.5t-48 -72.5t-60.5 -47.5t-76.5 -27.5t-89 -12.5t-105 -3zM328 1493q0 46 10.5 60t42.5 14h315q33 0 43.5 -14.5t10.5 -59.5t-10.5 -59.5t-43.5 -14.5h-315q-32 0 -42.5 14t-10.5 60z " />
<glyph unicode="&#x14d;" horiz-adv-x="1017" d="M494 -20q-78 0 -132.5 8t-100.5 30t-73.5 57.5t-47 94t-27 136.5t-7.5 188q0 128 15 218.5t45 152t81.5 96.5t118 50t160.5 15q78 0 132 -8t99.5 -29.5t73 -57t46.5 -94t26.5 -136t7.5 -187.5q0 -159 -22 -261.5t-73.5 -163.5t-127.5 -85t-194 -24zM498 125q52 0 88 6 t64 23t44 42.5t27 69t14.5 97.5t3.5 133q0 89 -2.5 144.5t-11.5 102.5t-23 71.5t-40 41.5t-58.5 22t-83.5 5q-78 0 -123 -14t-72.5 -57.5t-36.5 -111t-9 -186.5q0 -89 2.5 -144.5t11.5 -103t23 -72t40 -42t58.5 -22.5t83.5 -5zM299 1247q0 46 10.5 60t42.5 14h316 q32 0 42.5 -14t10.5 -60q0 -45 -10 -59t-43 -14h-316q-33 0 -43 14t-10 59z" />
<glyph unicode="&#x14e;" horiz-adv-x="1073" d="M537 129q59 0 96.5 5t70.5 22.5t50.5 46t30.5 80t17.5 120.5t4.5 172v101q0 106 -3.5 173t-15.5 120.5t-28.5 80.5t-49.5 45t-71.5 22.5t-101.5 4.5q-60 0 -96.5 -5t-70 -22t-50.5 -45.5t-30.5 -80t-17.5 -120.5t-4 -173v-101q0 -106 3.5 -172.5t15 -120t28 -80.5 t49.5 -45.5t71.5 -23t101.5 -4.5zM537 -18q-66 0 -113 3.5t-93.5 14t-77 29t-58.5 49.5t-44.5 73.5t-29.5 102.5t-18 136t-5 175v117q0 102 6 181.5t20.5 139.5t32 103.5t47.5 73t60.5 47.5t76.5 27.5t89.5 12.5t106.5 3q68 0 115.5 -3.5t93.5 -14.5t76.5 -29.5t58.5 -49.5 t44 -73.5t28 -103.5t17 -137.5t5 -176.5v-117q0 -100 -6 -179t-20.5 -138.5t-32.5 -102.5t-48 -72.5t-60.5 -47.5t-76.5 -27.5t-89 -12.5t-105 -3zM537 1380q-131 0 -175.5 42.5t-44.5 150.5q0 35 12 44t54 9q41 0 53 -8t13 -39q2 -46 15.5 -59t72.5 -13q60 0 74 13t16 59 q2 31 12.5 39t52.5 8t53 -9t11 -44q0 -73 -16 -112t-64 -60t-139 -21z" />
<glyph unicode="&#x14f;" horiz-adv-x="1017" d="M494 -20q-78 0 -132.5 8t-100.5 30t-73.5 57.5t-47 94t-27 136.5t-7.5 188q0 128 15 218.5t45 152t81.5 96.5t118 50t160.5 15q78 0 132 -8t99.5 -29.5t73 -57t46.5 -94t26.5 -136t7.5 -187.5q0 -159 -22 -261.5t-73.5 -163.5t-127.5 -85t-194 -24zM498 125q52 0 88 6 t64 23t44 42.5t27 69t14.5 97.5t3.5 133q0 89 -2.5 144.5t-11.5 102.5t-23 71.5t-40 41.5t-58.5 22t-83.5 5q-78 0 -123 -14t-72.5 -57.5t-36.5 -111t-9 -186.5q0 -89 2.5 -144.5t11.5 -103t23 -72t40 -42t58.5 -22.5t83.5 -5zM508 1135q-131 0 -175 42t-44 150 q0 35 11.5 44t53.5 9q41 0 53 -8t13 -39q1 -25 3 -36t11 -20.5t26 -12t48 -2.5q32 0 49 2.5t26.5 12t11.5 20.5t3 36q2 31 13 39t53 8q41 0 52 -9t11 -44q0 -73 -16 -112t-64 -59.5t-139 -20.5z" />
<glyph unicode="&#x150;" horiz-adv-x="1073" d="M537 129q59 0 96.5 5t70.5 22.5t50.5 46t30.5 80t17.5 120.5t4.5 172v101q0 106 -3.5 173t-15.5 120.5t-28.5 80.5t-49.5 45t-71.5 22.5t-101.5 4.5q-60 0 -96.5 -5t-70 -22t-50.5 -45.5t-30.5 -80t-17.5 -120.5t-4 -173v-101q0 -106 3.5 -172.5t15 -120t28 -80.5 t49.5 -45.5t71.5 -23t101.5 -4.5zM537 -18q-66 0 -113 3.5t-93.5 14t-77 29t-58.5 49.5t-44.5 73.5t-29.5 102.5t-18 136t-5 175v117q0 102 6 181.5t20.5 139.5t32 103.5t47.5 73t60.5 47.5t76.5 27.5t89.5 12.5t106.5 3q68 0 115.5 -3.5t93.5 -14.5t76.5 -29.5t58.5 -49.5 t44 -73.5t28 -103.5t17 -137.5t5 -176.5v-117q0 -100 -6 -179t-20.5 -138.5t-32.5 -102.5t-48 -72.5t-60.5 -47.5t-76.5 -27.5t-89 -12.5t-105 -3zM315 1382q0 15 97 254q7 21 25 29t71 8q52 0 70 -5.5t18 -27.5q0 -10 -5 -24t-33 -68.5t-85 -156.5q-12 -24 -28.5 -32.5 t-65.5 -8.5q-37 0 -50.5 8t-13.5 24zM571 1382q0 20 127 254q10 21 28.5 29t70.5 8q49 0 68.5 -6t19.5 -27q0 -10 -6.5 -23.5t-42 -68t-107.5 -157.5q-15 -25 -31 -33t-63 -8q-37 0 -50.5 8t-13.5 24z" />
<glyph unicode="&#x151;" horiz-adv-x="1017" d="M494 -20q-78 0 -132.5 8t-100.5 30t-73.5 57.5t-47 94t-27 136.5t-7.5 188q0 128 15 218.5t45 152t81.5 96.5t118 50t160.5 15q78 0 132 -8t99.5 -29.5t73 -57t46.5 -94t26.5 -136t7.5 -187.5q0 -159 -22 -261.5t-73.5 -163.5t-127.5 -85t-194 -24zM498 125q52 0 88 6 t64 23t44 42.5t27 69t14.5 97.5t3.5 133q0 89 -2.5 144.5t-11.5 102.5t-23 71.5t-40 41.5t-58.5 22t-83.5 5q-78 0 -123 -14t-72.5 -57.5t-36.5 -111t-9 -186.5q0 -89 2.5 -144.5t11.5 -103t23 -72t40 -42t58.5 -22.5t83.5 -5zM285 1137q0 17 96 254q7 20 24.5 28t71.5 8 q53 0 70.5 -5t17.5 -27q0 -10 -5 -24t-33.5 -69t-84.5 -157q-12 -24 -28.5 -32.5t-65.5 -8.5q-37 0 -50 8t-13 25zM541 1137q0 20 127 254q10 21 28 28.5t70 7.5q50 0 69 -6t19 -26q0 -10 -6.5 -24t-42 -68.5t-107.5 -157.5q-15 -25 -31 -33t-63 -8q-37 0 -50 8t-13 25z" />
<glyph unicode="&#x152;" horiz-adv-x="1611" d="M537 -18q-55 0 -94 2.5t-81 9.5t-71 20t-59 34.5t-49 52.5t-36.5 74t-27.5 99.5t-15.5 129t-5.5 161.5v117q0 133 8.5 226t31.5 160t53.5 105.5t84 60.5t112 29t149.5 7q106 0 174.5 -12.5t115.5 -45.5q0 27 16 37.5t54 10.5h582q30 0 40.5 -15t10.5 -61 q0 -47 -10.5 -62.5t-40.5 -15.5h-504v-367h389q33 0 43 -13.5t10 -59.5q0 -47 -10.5 -61.5t-42.5 -14.5h-389v-436h524q30 0 40.5 -15.5t10.5 -62.5q0 -45 -10.5 -60.5t-40.5 -15.5h-602q-39 0 -54.5 9.5t-15.5 37.5q-49 -38 -117 -51.5t-173 -13.5zM537 129q51 0 85 4 t65 13.5t49.5 30t33.5 49.5t22.5 75.5t11 104.5t3.5 141v135q0 104 -3 169t-15 118t-28 80t-49.5 45t-72.5 23t-102 5q-47 0 -78.5 -2.5t-61.5 -11t-48 -21.5t-34 -38t-24 -55.5t-13.5 -79t-7.5 -104t-2 -134.5v-101q0 -103 4.5 -172t17.5 -120.5t30 -80t50 -46t70.5 -22.5 t96.5 -5z" />
<glyph unicode="&#x153;" horiz-adv-x="1591" d="M494 -20q-78 0 -132.5 8t-100.5 30t-73.5 57.5t-47 94t-27 136.5t-7.5 188q0 128 15 218.5t45 152t81.5 96.5t118 50t160.5 15q123 0 195 -23t113 -85q48 65 121.5 86.5t187.5 21.5q60 0 107.5 -7t84 -23t63 -36t44.5 -52.5t29.5 -66t17.5 -82.5t8 -96.5t2 -113.5 q0 -46 -15 -66t-59 -20h-514q1 -77 4.5 -126.5t14.5 -89.5t27.5 -61.5t47.5 -36t68 -18.5t96 -4q69 0 134 10.5t105.5 21.5t49.5 11q29 0 29 -68q0 -38 -10.5 -53t-40.5 -26q-51 -19 -132.5 -31t-152.5 -12q-135 0 -212 24.5t-120 93.5q-48 -64 -126 -91t-199 -27zM498 125 q52 0 88 6t64 23t44 42.5t27 69t14.5 97.5t3.5 133q0 89 -2.5 144.5t-11.5 102.5t-23 71.5t-40 41.5t-58.5 22t-83.5 5q-78 0 -123 -14t-72.5 -57.5t-36.5 -111t-9 -186.5q0 -89 2.5 -144.5t11.5 -103t23 -72t40 -42t58.5 -22.5t83.5 -5zM1139 883q-52 0 -84.5 -5.5t-62 -23 t-44.5 -51.5t-25 -88t-12 -135h424q0 77 -2 113.5t-11.5 81.5t-30 63.5t-58 31.5t-94.5 13z" />
<glyph unicode="&#x154;" horiz-adv-x="1021" d="M211 0q-51 0 -67.5 10.5t-16.5 44.5v1131q0 58 59 65q141 19 320 19q96 0 156.5 -7t113.5 -27t81 -58.5t43 -99.5t15 -152q0 -157 -48.5 -243.5t-159.5 -121.5l221 -473q16 -39 16 -51q0 -19 -16 -28t-58 -9q-59 0 -78 8t-30 35l-207 494q-23 -2 -74 -2h-186v-480 q0 -34 -16.5 -44.5t-67.5 -10.5zM295 1114v-448h190q152 0 203 50.5t51 203.5q0 66 -9 103.5t-38 61t-74.5 31.5t-125.5 8q-69 0 -197 -10zM440 1350q-71 0 -71 32q0 14 20 54l96 184q11 23 18 31.5t27.5 15t59.5 6.5q96 0 96 -33q0 -15 -29 -63l-116 -180q-17 -27 -35 -37 t-66 -10z" />
<glyph unicode="&#x155;" horiz-adv-x="698" d="M236 0q-52 0 -69 10t-17 45v582q0 86 -11.5 160.5t-23 117.5t-11.5 52q0 21 15 30t63 9q46 0 61.5 -7.5t22.5 -37.5l29 -113q37 88 102.5 132t149.5 44q50 0 92 -12q19 -8 27 -24.5t8 -55.5q0 -70 -35 -70q-3 0 -40.5 6t-68.5 6q-112 0 -161.5 -102.5t-49.5 -292.5v-424 q0 -35 -16 -45t-67 -10zM281 1104q-72 0 -72 33q0 13 20 53l97 184q11 23 17.5 31.5t27 15t59.5 6.5q96 0 96 -32q0 -18 -28 -64l-117 -180q-12 -19 -19.5 -27t-27 -14t-53.5 -6z" />
<glyph unicode="&#x156;" horiz-adv-x="1021" d="M211 0q-51 0 -67.5 10.5t-16.5 44.5v1131q0 58 59 65q141 19 320 19q96 0 156.5 -7t113.5 -27t81 -58.5t43 -99.5t15 -152q0 -157 -48.5 -243.5t-159.5 -121.5l221 -473q16 -39 16 -51q0 -19 -16 -28t-58 -9q-59 0 -78 8t-30 35l-207 494q-23 -2 -74 -2h-186v-480 q0 -34 -16.5 -44.5t-67.5 -10.5zM295 1114v-448h190q152 0 203 50.5t51 203.5q0 66 -9 103.5t-38 61t-74.5 31.5t-125.5 8q-69 0 -197 -10zM469 -471q-32 0 -43.5 7.5t-11.5 25.5q0 8 11 100.5t11 175.5q0 44 16 57t72 13q52 0 69 -11t17 -44q0 -93 -18 -152l-41 -129 q-11 -25 -27 -34t-55 -9z" />
<glyph unicode="&#x157;" horiz-adv-x="698" d="M236 0q-52 0 -69 10t-17 45v582q0 86 -11.5 160.5t-23 117.5t-11.5 52q0 21 15 30t63 9q46 0 61.5 -7.5t22.5 -37.5l29 -113q37 88 102.5 132t149.5 44q50 0 92 -12q19 -8 27 -24.5t8 -55.5q0 -70 -35 -70q-3 0 -40.5 6t-68.5 6q-112 0 -161.5 -102.5t-49.5 -292.5v-424 q0 -35 -16 -45t-67 -10zM186 -485q-33 0 -44 7t-11 25q0 8 11.5 101t11.5 176q0 44 16 57t72 13q52 0 69 -11.5t17 -44.5q0 -89 -19 -151l-41 -129q-11 -25 -27 -34t-55 -9z" />
<glyph unicode="&#x158;" horiz-adv-x="1021" d="M211 0q-51 0 -67.5 10.5t-16.5 44.5v1131q0 58 59 65q141 19 320 19q96 0 156.5 -7t113.5 -27t81 -58.5t43 -99.5t15 -152q0 -157 -48.5 -243.5t-159.5 -121.5l221 -473q16 -39 16 -51q0 -19 -16 -28t-58 -9q-59 0 -78 8t-30 35l-207 494q-23 -2 -74 -2h-186v-480 q0 -34 -16.5 -44.5t-67.5 -10.5zM295 1114v-448h190q152 0 203 50.5t51 203.5q0 66 -9 103.5t-38 61t-74.5 31.5t-125.5 8q-69 0 -197 -10zM250 1640q0 33 65 33q43 0 61.5 -7.5t35.5 -33.5l98 -155h10l98 155q15 25 34.5 33t62.5 8q65 0 65 -33q0 -9 -22 -51l-121 -200 q-13 -22 -29.5 -30.5t-58.5 -8.5h-68q-42 0 -58.5 8.5t-29.5 30.5l-121 200q-22 42 -22 51z" />
<glyph unicode="&#x159;" horiz-adv-x="698" d="M236 0q-52 0 -69 10t-17 45v582q0 86 -11.5 160.5t-23 117.5t-11.5 52q0 21 15 30t63 9q46 0 61.5 -7.5t22.5 -37.5l29 -113q37 88 102.5 132t149.5 44q50 0 92 -12q19 -8 27 -24.5t8 -55.5q0 -70 -35 -70q-3 0 -40.5 6t-68.5 6q-112 0 -161.5 -102.5t-49.5 -292.5v-424 q0 -35 -16 -45t-67 -10zM92 1395q0 32 66 32q43 0 61 -7.5t35 -33.5l98 -155h10l99 155q15 25 34 33t62 8q66 0 66 -32q0 -8 -23 -52l-121 -200q-13 -22 -29.5 -30.5t-58.5 -8.5h-67q-42 0 -58.5 8.5t-29.5 30.5l-121 200q-23 44 -23 52z" />
<glyph unicode="&#x15a;" horiz-adv-x="940" d="M444 -18q-171 0 -303 38q-29 8 -41 25t-12 59t7.5 55t27.5 13q4 0 102 -18.5t191 -18.5q142 0 205 45.5t63 151.5q0 81 -21 121t-81 67l-265 119q-77 35 -117.5 69.5t-61.5 91t-21 146.5q0 83 19.5 143.5t49 95t77 54t92.5 25.5t106 6q180 0 311 -39q25 -6 36 -23t11 -59 q0 -41 -8 -55.5t-27 -14.5q-8 0 -49 9.5t-105.5 19.5t-129.5 10q-54 0 -85.5 -3t-59.5 -12.5t-41.5 -29t-21 -50.5t-7.5 -79q0 -70 23.5 -101.5t88.5 -60.5l265 -118q108 -49 148 -118.5t40 -201.5q0 -82 -20.5 -145t-55.5 -104t-87.5 -66.5t-111.5 -36t-131 -10.5z M434 1350q-72 0 -72 32q0 12 21 54l96 184q11 23 18 31.5t27.5 15t59.5 6.5q96 0 96 -33q0 -15 -29 -63l-116 -180q-17 -27 -35 -37t-66 -10z" />
<glyph unicode="&#x15b;" horiz-adv-x="878" d="M408 -20q-154 0 -267 36q-29 9 -39 24.5t-10 53.5q0 70 27 70q3 0 98 -18.5t176 -18.5q121 0 172 39t51 123q0 46 -17.5 70t-59.5 42l-277 117q-143 61 -143 242q0 266 319 266q138 0 275 -35q30 -8 39.5 -23.5t9.5 -58.5q0 -28 -5.5 -43.5t-11.5 -18.5t-16 -3 q-1 0 -97 19.5t-171 19.5q-97 0 -133.5 -28.5t-36.5 -94.5q0 -49 16 -75t62 -46l268 -111q82 -33 115.5 -86.5t33.5 -144.5q0 -317 -378 -317zM393 1104q-71 0 -71 33q0 13 20 53l96 184q11 23 18 31.5t27.5 15t59.5 6.5q96 0 96 -32q0 -16 -29 -64l-116 -180 q-17 -27 -35 -37t-66 -10z" />
<glyph unicode="&#x15c;" horiz-adv-x="940" d="M444 -18q-171 0 -303 38q-29 8 -41 25t-12 59t7.5 55t27.5 13q4 0 102 -18.5t191 -18.5q142 0 205 45.5t63 151.5q0 81 -21 121t-81 67l-265 119q-77 35 -117.5 69.5t-61.5 91t-21 146.5q0 83 19.5 143.5t49 95t77 54t92.5 25.5t106 6q180 0 311 -39q25 -6 36 -23t11 -59 q0 -41 -8 -55.5t-27 -14.5q-8 0 -49 9.5t-105.5 19.5t-129.5 10q-54 0 -85.5 -3t-59.5 -12.5t-41.5 -29t-21 -50.5t-7.5 -79q0 -70 23.5 -101.5t88.5 -60.5l265 -118q108 -49 148 -118.5t40 -201.5q0 -82 -20.5 -145t-55.5 -104t-87.5 -66.5t-111.5 -36t-131 -10.5z M492 1546h-13l-98 -155q-15 -25 -33.5 -33t-60.5 -8q-66 0 -66 32q0 13 23 52l121 200q13 23 29 31t57 8h69q41 0 57 -8t29 -31l121 -200q23 -39 23 -52q0 -32 -66 -32q-42 0 -60.5 8t-33.5 33z" />
<glyph unicode="&#x15d;" horiz-adv-x="878" d="M408 -20q-154 0 -267 36q-29 9 -39 24.5t-10 53.5q0 70 27 70q3 0 98 -18.5t176 -18.5q121 0 172 39t51 123q0 46 -17.5 70t-59.5 42l-277 117q-143 61 -143 242q0 266 319 266q138 0 275 -35q30 -8 39.5 -23.5t9.5 -58.5q0 -28 -5.5 -43.5t-11.5 -18.5t-16 -3 q-1 0 -97 19.5t-171 19.5q-97 0 -133.5 -28.5t-36.5 -94.5q0 -49 16 -75t62 -46l268 -111q82 -33 115.5 -86.5t33.5 -144.5q0 -317 -378 -317zM442 1300h-12l-98 -155q-15 -25 -33.5 -33t-60.5 -8q-66 0 -66 33q0 12 23 51l120 201q13 22 28.5 30t57.5 8h70q42 0 57.5 -8 t28.5 -30l121 -201q22 -37 22 -51q0 -33 -65 -33q-42 0 -60.5 8t-33.5 33z" />
<glyph unicode="&#x15e;" horiz-adv-x="940" d="M477 -422q-51 0 -106 10q-30 7 -42 19t-12 47q0 38 8 50.5t29 12.5q6 0 37 -3t60 -3t42 6t13 29q0 7 -1.5 12.5t-3.5 9.5t-8 8.5t-10.5 7t-15.5 9t-18 10.5q-35 21 -49.5 45.5t-14.5 69.5v66q-134 6 -244 36q-29 8 -41 25t-12 59t7.5 55t27.5 13q4 0 102 -18.5t191 -18.5 q142 0 205 45.5t63 151.5q0 81 -21 121t-81 67l-265 119q-77 35 -117.5 69.5t-61.5 91t-21 146.5q0 83 19.5 143.5t49 95t77 54t92.5 25.5t106 6q180 0 311 -39q25 -6 36 -23t11 -59q0 -41 -8 -55.5t-27 -14.5q-8 0 -49 9.5t-105.5 19.5t-129.5 10q-54 0 -85.5 -3 t-59.5 -12.5t-41.5 -29t-21 -50.5t-7.5 -79q0 -70 23.5 -101.5t88.5 -60.5l265 -118q108 -49 148 -118.5t40 -201.5q0 -336 -342 -360v-37q0 -20 5 -30t26 -23q74 -43 96 -73t22 -95q0 -148 -180 -148z" />
<glyph unicode="&#x15f;" horiz-adv-x="878" d="M446 -422q-51 0 -106 10q-30 7 -41.5 19t-11.5 47q0 38 8 50.5t29 12.5q6 0 36.5 -3t59.5 -3t42 6t13 29q0 7 -1.5 12.5t-3.5 9.5t-8 8.5t-10.5 7t-15.5 9t-18 10.5q-35 21 -49.5 45.5t-14.5 69.5v64q-126 6 -213 34q-29 9 -39 24.5t-10 53.5q0 70 27 70q3 0 98 -18.5 t176 -18.5q121 0 172 39t51 123q0 46 -17.5 70t-59.5 42l-277 117q-143 61 -143 242q0 266 319 266q138 0 275 -35q30 -8 39.5 -23.5t9.5 -58.5q0 -28 -5.5 -43.5t-11.5 -18.5t-16 -3q-1 0 -97 19.5t-171 19.5q-97 0 -133.5 -28.5t-36.5 -94.5q0 -49 16 -75t62 -46l268 -111 q82 -33 115.5 -86.5t33.5 -144.5q0 -287 -309 -313v-37q0 -20 5 -30t26 -23q74 -43 96.5 -73t22.5 -95q0 -148 -181 -148z" />
<glyph unicode="&#x160;" horiz-adv-x="940" d="M444 -18q-171 0 -303 38q-29 8 -41 25t-12 59t7.5 55t27.5 13q4 0 102 -18.5t191 -18.5q142 0 205 45.5t63 151.5q0 81 -21 121t-81 67l-265 119q-77 35 -117.5 69.5t-61.5 91t-21 146.5q0 83 19.5 143.5t49 95t77 54t92.5 25.5t106 6q180 0 311 -39q25 -6 36 -23t11 -59 q0 -41 -8 -55.5t-27 -14.5q-8 0 -49 9.5t-105.5 19.5t-129.5 10q-54 0 -85.5 -3t-59.5 -12.5t-41.5 -29t-21 -50.5t-7.5 -79q0 -70 23.5 -101.5t88.5 -60.5l265 -118q108 -49 148 -118.5t40 -201.5q0 -82 -20.5 -145t-55.5 -104t-87.5 -66.5t-111.5 -36t-131 -10.5z M229 1640q0 33 66 33q43 0 61 -7.5t35 -33.5l98 -155h11l98 155q15 25 34 33t62 8q66 0 66 -33q0 -7 -23 -51l-121 -200q-13 -22 -29.5 -30.5t-58.5 -8.5h-67q-42 0 -58.5 8.5t-29.5 30.5l-121 200q-23 44 -23 51z" />
<glyph unicode="&#x161;" horiz-adv-x="878" d="M408 -20q-154 0 -267 36q-29 9 -39 24.5t-10 53.5q0 70 27 70q3 0 98 -18.5t176 -18.5q121 0 172 39t51 123q0 46 -17.5 70t-59.5 42l-277 117q-143 61 -143 242q0 266 319 266q138 0 275 -35q30 -8 39.5 -23.5t9.5 -58.5q0 -28 -5.5 -43.5t-11.5 -18.5t-16 -3 q-1 0 -97 19.5t-171 19.5q-97 0 -133.5 -28.5t-36.5 -94.5q0 -49 16 -75t62 -46l268 -111q82 -33 115.5 -86.5t33.5 -144.5q0 -317 -378 -317zM172 1395q0 32 66 32q43 0 61 -7.5t35 -33.5l98 -155h10l99 155q15 25 34 33t62 8q65 0 65 -32q0 -10 -22 -52l-121 -200 q-13 -22 -29.5 -30.5t-58.5 -8.5h-68q-42 0 -58.5 8.5t-29.5 30.5l-120 200q-23 44 -23 52z" />
<glyph unicode="&#x162;" horiz-adv-x="878" d="M438 0q-51 0 -67.5 10.5t-16.5 44.5v1051h-282q-30 0 -41 16t-11 62t11 61t41 15h733q30 0 41.5 -15t11.5 -61t-11.5 -62t-41.5 -16h-281v-1051q0 -34 -16.5 -44.5t-69.5 -10.5zM389 -471q-32 0 -43.5 7.5t-11.5 25.5q0 8 11 100.5t11 175.5q0 44 16 57t72 13 q52 0 69 -11t17 -44q0 -93 -18 -152l-41 -129q-11 -25 -27 -34t-55 -9z" />
<glyph unicode="&#x163;" horiz-adv-x="649" d="M414 -20q-116 0 -163.5 58t-47.5 193v635h-107q-26 0 -35.5 14t-9.5 54q0 41 9.5 55.5t35.5 14.5h107v155q0 34 16.5 44.5t67.5 10.5q52 0 69 -10t17 -45v-155h182q26 0 35.5 -14.5t9.5 -55.5q0 -40 -9.5 -54t-35.5 -14h-182v-600q0 -91 15 -114t71 -23q32 0 70 6t44 6 q20 0 27.5 -12.5t7.5 -52.5q0 -36 -11 -50t-38 -24q-68 -22 -145 -22zM336 -471q-32 0 -43.5 7.5t-11.5 25.5q0 8 11 100.5t11 175.5q0 44 16 57t72 13q52 0 69 -11t17 -44q0 -93 -18 -152l-41 -129q-11 -25 -27 -34t-55 -9z" />
<glyph unicode="&#x164;" horiz-adv-x="878" d="M438 0q-51 0 -67.5 10.5t-16.5 44.5v1051h-282q-30 0 -41 16t-11 62t11 61t41 15h733q30 0 41.5 -15t11.5 -61t-11.5 -62t-41.5 -16h-281v-1051q0 -34 -16.5 -44.5t-69.5 -10.5zM174 1640q0 33 66 33q43 0 61 -7.5t35 -33.5l98 -155h10l99 155q15 25 34 33t62 8 q66 0 66 -33q0 -7 -23 -51l-121 -200q-13 -22 -29.5 -30.5t-58.5 -8.5h-67q-42 0 -59 8.5t-30 30.5l-120 200q-23 44 -23 51z" />
<glyph unicode="&#x165;" horiz-adv-x="927" d="M780 1337q55 0 71.5 -12.5t16.5 -50.5v-57q0 -67 -26 -160l-35 -121q-12 -35 -28.5 -46t-59.5 -11q-32 0 -42.5 7t-10.5 25q0 13 14 104.5t14 151.5v107q0 38 16 50.5t70 12.5zM414 -20q-116 0 -163.5 58t-47.5 193v635h-107q-26 0 -35.5 14t-9.5 54q0 41 9.5 55.5 t35.5 14.5h107v155q0 34 16.5 44.5t67.5 10.5q52 0 69 -10t17 -45v-155h182q26 0 35.5 -14.5t9.5 -55.5q0 -40 -9.5 -54t-35.5 -14h-182v-600q0 -91 15 -114t71 -23q32 0 70 6t44 6q20 0 27.5 -12.5t7.5 -52.5q0 -36 -11 -50t-38 -24q-68 -22 -145 -22z" />
<glyph unicode="&#x166;" horiz-adv-x="878" d="M438 0q-51 0 -67.5 10.5t-16.5 44.5v527h-241q-31 0 -41.5 13t-10.5 54t10.5 54.5t41.5 13.5h241v389h-282q-30 0 -41 16t-11 62t11 61t41 15h733q30 0 41.5 -15t11.5 -61t-11.5 -62t-41.5 -16h-281v-389h240q32 0 42.5 -13.5t10.5 -54.5t-10.5 -54t-42.5 -13h-240v-527 q0 -34 -16.5 -44.5t-69.5 -10.5z" />
<glyph unicode="&#x167;" horiz-adv-x="649" d="M414 -20q-116 0 -163.5 58t-47.5 193v209h-103q-25 0 -34 14.5t-9 55.5q0 42 9 56t34 14h103v286h-107q-26 0 -35.5 14t-9.5 54q0 41 9.5 55.5t35.5 14.5h107v155q0 34 16.5 44.5t67.5 10.5q52 0 69 -10t17 -45v-155h182q26 0 35.5 -14.5t9.5 -55.5q0 -40 -9.5 -54 t-35.5 -14h-182v-286h178q27 0 36 -14t9 -56q0 -41 -9.5 -55.5t-35.5 -14.5h-178v-174q0 -91 15 -114t71 -23q32 0 70 6t44 6q20 0 27.5 -12.5t7.5 -52.5q0 -36 -11 -50t-38 -24q-68 -22 -145 -22z" />
<glyph unicode="&#x168;" horiz-adv-x="1067" d="M535 -18q-219 0 -313.5 86.5t-94.5 293.5v844q0 32 16.5 43t67.5 11t67.5 -11t16.5 -43v-850q0 -124 49.5 -172.5t190.5 -48.5q139 0 188 48.5t49 172.5v850q0 32 16.5 43t67.5 11q52 0 68 -10.5t16 -43.5v-844q0 -207 -94 -293.5t-311 -86.5zM266 1456q0 34 10 49.5 t39 34.5q55 37 121 37q45 0 112 -21.5t99 -21.5q41 0 84 19.5t47 19.5q16 0 21.5 -11.5t5.5 -48.5q0 -35 -10.5 -51t-38.5 -35q-61 -34 -123 -34q-44 0 -110.5 20.5t-98.5 20.5q-41 0 -84 -18.5t-47 -18.5q-16 0 -21.5 11t-5.5 48z" />
<glyph unicode="&#x169;" horiz-adv-x="1024" d="M399 -20q-81 0 -135 15.5t-84.5 50t-42.5 81.5t-12 117v708q0 35 16 44.5t68 9.5q51 0 67.5 -10t16.5 -44v-669q0 -92 33 -124t133 -32q146 0 204 79.5t58 266.5v479q0 35 16 44.5t68 9.5t68 -9.5t16 -44.5v-583q0 -86 11.5 -160t23.5 -116.5t12 -51.5q0 -21 -15.5 -31 t-62.5 -10q-46 0 -61.5 8.5t-22.5 38.5l-29 115q-41 -94 -125.5 -138t-220.5 -44zM240 1217q0 34 10 49t39 34q56 37 121 37q45 0 112 -21.5t99 -21.5q41 0 84 19.5t47 19.5q16 0 21 -11t5 -48q0 -35 -10.5 -51t-38.5 -35q-63 -35 -123 -35q-44 0 -110.5 20.5t-98.5 20.5 q-41 0 -84 -18.5t-47 -18.5q-15 0 -20.5 11.5t-5.5 48.5z" />
<glyph unicode="&#x16a;" horiz-adv-x="1067" d="M535 -18q-219 0 -313.5 86.5t-94.5 293.5v844q0 32 16.5 43t67.5 11t67.5 -11t16.5 -43v-850q0 -124 49.5 -172.5t190.5 -48.5q139 0 188 48.5t49 172.5v850q0 32 16.5 43t67.5 11q52 0 68 -10.5t16 -43.5v-844q0 -207 -94 -293.5t-311 -86.5zM322 1493q0 46 10.5 60 t42.5 14h315q32 0 42.5 -14t10.5 -60t-10.5 -60t-42.5 -14h-315q-32 0 -42.5 14t-10.5 60z" />
<glyph unicode="&#x16b;" horiz-adv-x="1024" d="M399 -20q-81 0 -135 15.5t-84.5 50t-42.5 81.5t-12 117v708q0 35 16 44.5t68 9.5q51 0 67.5 -10t16.5 -44v-669q0 -92 33 -124t133 -32q146 0 204 79.5t58 266.5v479q0 35 16 44.5t68 9.5t68 -9.5t16 -44.5v-583q0 -86 11.5 -160t23.5 -116.5t12 -51.5q0 -21 -15.5 -31 t-62.5 -10q-46 0 -61.5 8.5t-22.5 38.5l-29 115q-41 -94 -125.5 -138t-220.5 -44zM297 1247q0 46 10.5 60t42.5 14h316q32 0 42.5 -14t10.5 -60q0 -45 -10 -59t-43 -14h-316q-33 0 -43 14t-10 59z" />
<glyph unicode="&#x16c;" horiz-adv-x="1067" d="M535 -18q-219 0 -313.5 86.5t-94.5 293.5v844q0 32 16.5 43t67.5 11t67.5 -11t16.5 -43v-850q0 -124 49.5 -172.5t190.5 -48.5q139 0 188 48.5t49 172.5v850q0 32 16.5 43t67.5 11q52 0 68 -10.5t16 -43.5v-844q0 -207 -94 -293.5t-311 -86.5zM532 1378q-131 0 -175 42.5 t-44 150.5q0 35 12 44t54 9q41 0 52 -8t13 -39q2 -46 15.5 -59t72.5 -13q42 0 61 7t24 20t6 45q2 31 12.5 39t52.5 8t53 -9t11 -44q0 -108 -43.5 -150.5t-176.5 -42.5z" />
<glyph unicode="&#x16d;" horiz-adv-x="1024" d="M399 -20q-81 0 -135 15.5t-84.5 50t-42.5 81.5t-12 117v708q0 35 16 44.5t68 9.5q51 0 67.5 -10t16.5 -44v-669q0 -92 33 -124t133 -32q146 0 204 79.5t58 266.5v479q0 35 16 44.5t68 9.5t68 -9.5t16 -44.5v-583q0 -86 11.5 -160t23.5 -116.5t12 -51.5q0 -21 -15.5 -31 t-62.5 -10q-46 0 -61.5 8.5t-22.5 38.5l-29 115q-41 -94 -125.5 -138t-220.5 -44zM506 1135q-131 0 -175 42t-44 150q0 35 11.5 44t53.5 9q41 0 53 -8t13 -39q1 -25 3 -36t11 -20.5t26 -12t48 -2.5q32 0 49 2.5t26.5 12t11.5 20.5t3 36q2 31 13 39t53 8q41 0 52 -9t11 -44 q0 -73 -16 -112t-64 -59.5t-139 -20.5z" />
<glyph unicode="&#x16e;" horiz-adv-x="1067" d="M535 -18q-219 0 -313.5 86.5t-94.5 293.5v844q0 32 16.5 43t67.5 11t67.5 -11t16.5 -43v-850q0 -124 49.5 -172.5t190.5 -48.5q139 0 188 48.5t49 172.5v850q0 32 16.5 43t67.5 11q52 0 68 -10.5t16 -43.5v-844q0 -207 -94 -293.5t-311 -86.5zM532 1489q60 0 76.5 14.5 t16.5 59.5q0 44 -16.5 58.5t-76.5 14.5q-58 0 -73 -14.5t-15 -58.5q0 -46 14.5 -60t73.5 -14zM532 1376q-129 0 -173 41t-44 146t44 145.5t173 40.5q131 0 175.5 -40.5t44.5 -145.5t-44.5 -146t-175.5 -41z" />
<glyph unicode="&#x16f;" horiz-adv-x="1024" d="M399 -20q-81 0 -135 15.5t-84.5 50t-42.5 81.5t-12 117v708q0 35 16 44.5t68 9.5q51 0 67.5 -10t16.5 -44v-669q0 -92 33 -124t133 -32q146 0 204 79.5t58 266.5v479q0 35 16 44.5t68 9.5t68 -9.5t16 -44.5v-583q0 -86 11.5 -160t23.5 -116.5t12 -51.5q0 -21 -15.5 -31 t-62.5 -10q-46 0 -61.5 8.5t-22.5 38.5l-29 115q-41 -94 -125.5 -138t-220.5 -44zM506 1245q60 0 76 14.5t16 59.5q0 44 -16 59t-76 15q-58 0 -73 -14.5t-15 -59.5q0 -46 14.5 -60t73.5 -14zM506 1133q-129 0 -173 40.5t-44 145.5t44 145.5t173 40.5q131 0 175 -40.5 t44 -145.5t-44 -145.5t-175 -40.5z" />
<glyph unicode="&#x170;" horiz-adv-x="1067" d="M535 -18q-219 0 -313.5 86.5t-94.5 293.5v844q0 32 16.5 43t67.5 11t67.5 -11t16.5 -43v-850q0 -124 49.5 -172.5t190.5 -48.5q139 0 188 48.5t49 172.5v850q0 32 16.5 43t67.5 11q52 0 68 -10.5t16 -43.5v-844q0 -207 -94 -293.5t-311 -86.5zM309 1382q0 15 97 254 q7 21 25 29t71 8q52 0 70 -5.5t18 -27.5q0 -10 -5 -24t-33 -68.5t-85 -156.5q-12 -24 -28.5 -32.5t-65.5 -8.5q-37 0 -50.5 8t-13.5 24zM565 1382q0 20 127 254q10 21 28.5 29t70.5 8q49 0 68.5 -6t19.5 -27q0 -10 -6.5 -23.5t-42 -68t-107.5 -157.5q-15 -25 -31 -33t-63 -8 q-37 0 -50.5 8t-13.5 24z" />
<glyph unicode="&#x171;" horiz-adv-x="1024" d="M399 -20q-81 0 -135 15.5t-84.5 50t-42.5 81.5t-12 117v708q0 35 16 44.5t68 9.5q51 0 67.5 -10t16.5 -44v-669q0 -92 33 -124t133 -32q146 0 204 79.5t58 266.5v479q0 35 16 44.5t68 9.5t68 -9.5t16 -44.5v-583q0 -86 11.5 -160t23.5 -116.5t12 -51.5q0 -21 -15.5 -31 t-62.5 -10q-46 0 -61.5 8.5t-22.5 38.5l-29 115q-41 -94 -125.5 -138t-220.5 -44zM281 1137q0 17 96 254q7 20 24.5 28t71.5 8q53 0 70.5 -5t17.5 -27q0 -10 -5 -24t-33.5 -69t-84.5 -157q-12 -24 -28.5 -32.5t-65.5 -8.5q-37 0 -50 8t-13 25zM537 1137q0 20 127 254 q10 21 28 28.5t70 7.5q50 0 69 -6t19 -26q0 -10 -6.5 -24t-42 -68.5t-107.5 -157.5q-15 -25 -31 -33t-63 -8q-37 0 -50 8t-13 25z" />
<glyph unicode="&#x172;" horiz-adv-x="1067" d="M721 -14q-168 -82 -168 -195q0 -28 8 -37.5t31 -9.5q19 0 37 3t26 3q20 0 27.5 -12t7.5 -49q0 -35 -11 -48.5t-42 -21.5q-54 -14 -100 -14q-73 0 -108.5 34t-35.5 111q0 134 131 232q-214 2 -305.5 88t-91.5 292v844q0 32 16.5 43t67.5 11t67.5 -11t16.5 -43v-850 q0 -124 49.5 -172.5t190.5 -48.5q139 0 188 48.5t49 172.5v850q0 32 16.5 43t67.5 11q52 0 68 -10.5t16 -43.5v-844q0 -144 -45 -229.5t-174 -146.5z" />
<glyph unicode="&#x173;" horiz-adv-x="1024" d="M782 -395q-73 0 -108 34t-35 111q0 65 34.5 121t119.5 139q-5 5 -9 21l-41 131q-41 -95 -124.5 -138.5t-219.5 -43.5q-81 0 -135 15.5t-84.5 50t-42.5 81.5t-12 117v708q0 35 16 44.5t68 9.5q51 0 67.5 -10t16.5 -44v-669q0 -92 33 -124t133 -32q146 0 204 79.5t58 266.5 v479q0 35 16 44.5t68 9.5t68 -9.5t16 -44.5v-583q0 -86 11.5 -160t23.5 -116.5t12 -51.5q0 -19 -11 -39.5t-48 -64.5q-44 -51 -61 -83t-17 -63q0 -28 8 -37.5t31 -9.5q19 0 37 3t26 3q20 0 27.5 -12t7.5 -49q0 -35 -11 -48.5t-42 -21.5q-54 -14 -101 -14z" />
<glyph unicode="&#x174;" horiz-adv-x="1628" d="M434 0q-79 0 -108.5 12.5t-38.5 55.5l-246 1101q-6 48 -6 50q0 24 16.5 32.5t65.5 8.5q53 0 71.5 -9t24.5 -37l217 -1056h25l231 1024q6 35 34 46t95 11q66 0 93.5 -11t33.5 -46l232 -1024h24l217 1056q6 28 24.5 37t71.5 9q49 0 65.5 -8.5t16.5 -32.5q0 -2 -6 -50 l-246 -1101q-9 -43 -38.5 -55.5t-108.5 -12.5q-77 0 -107 13.5t-40 58.5l-222 952h-20l-223 -952q-10 -44 -40.5 -58t-107.5 -14zM819 1546h-12l-98 -155q-15 -25 -33.5 -33t-61.5 -8q-65 0 -65 32q0 15 22 52l121 200q13 23 29 31t57 8h70q41 0 57 -8t29 -31l121 -200 q22 -37 22 -52q0 -32 -65 -32q-42 0 -60.5 8t-33.5 33z" />
<glyph unicode="&#x175;" horiz-adv-x="1431" d="M387 0q-71 0 -99.5 12t-37.5 51l-189 820q-10 52 -10 75q0 28 15 38t67 10q57 0 75 -10t25 -48l162 -796h23l178 766q9 40 33 53.5t88 13.5q63 0 86.5 -13.5t32.5 -53.5l178 -766h22l162 796q7 38 25 48t75 10q52 0 67 -10t15 -38q0 -23 -10 -75l-188 -820 q-9 -39 -37.5 -51t-100.5 -12q-80 0 -114 12.5t-43 50.5l-164 693h-14l-164 -693q-9 -38 -43 -50.5t-115 -12.5zM721 1300h-12l-99 -155q-15 -25 -33.5 -33t-60.5 -8q-65 0 -65 33q0 14 22 51l121 201q13 22 28.5 30t57.5 8h70q42 0 57.5 -8t28.5 -30l120 -201 q23 -39 23 -51q0 -33 -66 -33q-42 0 -60.5 8t-33.5 33z" />
<glyph unicode="&#x176;" horiz-adv-x="931" d="M465 0q-51 0 -67.5 10.5t-16.5 44.5v428l-324 672q-22 48 -22 66q0 20 17 29.5t61 9.5q59 0 79.5 -8.5t30.5 -37.5l238 -548h10l238 548q11 29 30.5 37.5t77.5 8.5q45 0 62.5 -9.5t17.5 -29.5q0 -16 -23 -66l-323 -672v-428q0 -34 -16.5 -44.5t-69.5 -10.5zM475 1546h-12 l-98 -155q-15 -25 -33.5 -33t-61.5 -8q-65 0 -65 32q0 15 22 52l121 200q13 23 29 31t57 8h70q41 0 57 -8t29 -31l121 -200q22 -37 22 -52q0 -32 -65 -32q-43 0 -61.5 8t-33.5 33z" />
<glyph unicode="&#x177;" horiz-adv-x="929" d="M51 961q0 24 16 34.5t70 10.5q51 0 68 -7t24 -34l228 -818h16l227 818q7 27 24.5 34t66.5 7q54 0 72 -10t18 -33q0 -31 -23 -103l-297 -954q-23 -73 -39.5 -115.5t-39.5 -83t-50.5 -60t-66.5 -31t-93 -11.5q-102 0 -166 22q-27 8 -38 22.5t-11 49.5q0 41 7 54.5t28 13.5 q3 0 55 -7.5t107 -7.5q68 0 95.5 24.5t49.5 102.5l33 121q-55 1 -80 23t-41 75l-229 731q-31 100 -31 132zM473 1300h-12l-99 -155q-15 -25 -33.5 -33t-60.5 -8q-65 0 -65 33q0 14 22 51l121 201q13 22 28.5 30t57.5 8h70q42 0 57.5 -8t28.5 -30l121 -201q22 -37 22 -51 q0 -33 -65 -33q-43 0 -61.5 8t-33.5 33z" />
<glyph unicode="&#x178;" horiz-adv-x="931" d="M465 0q-51 0 -67.5 10.5t-16.5 44.5v428l-324 672q-22 48 -22 66q0 20 17 29.5t61 9.5q59 0 79.5 -8.5t30.5 -37.5l238 -548h10l238 548q11 29 30.5 37.5t77.5 8.5q45 0 62.5 -9.5t17.5 -29.5q0 -16 -23 -66l-323 -672v-428q0 -34 -16.5 -44.5t-69.5 -10.5zM317 1415 q-57 0 -73.5 12t-16.5 52v43q0 40 17 52.5t73 12.5q57 0 74 -12.5t17 -52.5v-43q0 -40 -17 -52t-74 -12zM618 1415q-58 0 -75 12t-17 52v43q0 40 17 52.5t75 12.5q57 0 74 -12.5t17 -52.5v-43q0 -40 -17 -52t-74 -12z" />
<glyph unicode="&#x179;" horiz-adv-x="835" d="M598 1106h-469q-30 0 -41.5 16t-11.5 62t11.5 61t41.5 15h614q31 0 41.5 -15t10.5 -59q0 -31 -7 -53.5t-30 -63.5l-525 -915h512q30 0 41 -16t11 -62q0 -45 -11 -60.5t-41 -15.5h-657q-32 0 -42.5 15.5t-10.5 60.5q0 29 8 52.5t33 66.5zM389 1350q-72 0 -72 32 q0 12 21 54l96 184q11 23 18 31.5t27.5 15t59.5 6.5q96 0 96 -33q0 -15 -29 -63l-117 -180q-12 -19 -19.5 -27t-27 -14t-53.5 -6z" />
<glyph unicode="&#x17a;" horiz-adv-x="811" d="M750 74q0 -40 -10 -57t-35 -17h-601q-27 0 -37 15t-10 55q0 42 8 68t33 61l467 659h-420q-27 0 -37 17t-10 57q0 41 10 57.5t37 16.5h560q26 0 35.5 -14.5t9.5 -53.5q0 -74 -35 -123l-473 -668h463q26 0 35.5 -17t9.5 -56zM375 1104q-72 0 -72 33q0 11 21 53l96 184 q11 23 17.5 31.5t27 15t59.5 6.5q97 0 97 -32q0 -16 -29 -64l-117 -180q-12 -19 -19.5 -27t-27 -14t-53.5 -6z" />
<glyph unicode="&#x17b;" horiz-adv-x="835" d="M598 1106h-469q-30 0 -41.5 16t-11.5 62t11.5 61t41.5 15h614q31 0 41.5 -15t10.5 -59q0 -31 -7 -53.5t-30 -63.5l-525 -915h512q30 0 41 -16t11 -62q0 -45 -11 -60.5t-41 -15.5h-657q-32 0 -42.5 15.5t-10.5 60.5q0 29 8 52.5t33 66.5zM432 1415q-60 0 -77 12t-17 52v43 q0 40 17.5 52.5t76.5 12.5q61 0 78.5 -12.5t17.5 -52.5v-43q0 -40 -17.5 -52t-78.5 -12z" />
<glyph unicode="&#x17c;" horiz-adv-x="811" d="M750 74q0 -40 -10 -57t-35 -17h-601q-27 0 -37 15t-10 55q0 42 8 68t33 61l467 659h-420q-27 0 -37 17t-10 57q0 41 10 57.5t37 16.5h560q26 0 35.5 -14.5t9.5 -53.5q0 -74 -35 -123l-473 -668h463q26 0 35.5 -17t9.5 -56zM418 1165q-60 0 -77 12t-17 52v43 q0 40 17.5 52.5t76.5 12.5q61 0 78.5 -12.5t17.5 -52.5v-43q0 -40 -17.5 -52t-78.5 -12z" />
<glyph unicode="&#x17d;" horiz-adv-x="835" d="M598 1106h-469q-30 0 -41.5 16t-11.5 62t11.5 61t41.5 15h614q31 0 41.5 -15t10.5 -59q0 -31 -7 -53.5t-30 -63.5l-525 -915h512q30 0 41 -16t11 -62q0 -45 -11 -60.5t-41 -15.5h-657q-32 0 -42.5 15.5t-10.5 60.5q0 29 8 52.5t33 66.5zM168 1640q0 33 65 33 q43 0 61.5 -7.5t35.5 -33.5l98 -155h10l99 155q15 25 34 33t62 8q65 0 65 -33q0 -9 -22 -51l-121 -200q-13 -22 -29.5 -30.5t-58.5 -8.5h-68q-42 0 -58.5 8.5t-29.5 30.5l-121 200q-22 42 -22 51z" />
<glyph unicode="&#x17e;" horiz-adv-x="811" d="M750 74q0 -40 -10 -57t-35 -17h-601q-27 0 -37 15t-10 55q0 42 8 68t33 61l467 659h-420q-27 0 -37 17t-10 57q0 41 10 57.5t37 16.5h560q26 0 35.5 -14.5t9.5 -53.5q0 -74 -35 -123l-473 -668h463q26 0 35.5 -17t9.5 -56zM154 1395q0 32 65 32q43 0 61 -7.5t35 -33.5 l99 -155h10l98 155q15 25 34 33t62 8q66 0 66 -32q0 -10 -22 -52l-121 -200q-13 -22 -29.5 -30.5t-58.5 -8.5h-68q-42 0 -58.5 8.5t-29.5 30.5l-121 200q-22 42 -22 52z" />
<glyph unicode="&#x192;" d="M238 805q0 40 9.5 53.5t35.5 13.5h129l18 152q15 138 63 192t164 54q66 0 140 -17q31 -8 41 -19.5t10 -47.5q0 -38 -8 -53t-27 -15q-5 0 -47 5t-76 5q-55 0 -69.5 -22t-26.5 -119l-14 -115h137q28 0 37.5 -13.5t9.5 -53.5t-9.5 -54t-37.5 -14h-152l-57 -510 q-15 -138 -64 -192.5t-165 -54.5q-69 0 -136 18q-30 8 -39.5 19t-9.5 46q0 39 7.5 53.5t25.5 14.5q7 0 46 -5t73 -5q55 0 70 22.5t26 118.5l55 475h-114q-26 0 -35.5 14t-9.5 54z" />
<glyph unicode="&#x1fc;" horiz-adv-x="1480" d="M117 0q-49 0 -65.5 8.5t-16.5 30.5q0 19 10 53l326 1094q15 50 42 62t115 12h820q30 0 40.5 -15t10.5 -61q0 -47 -10.5 -62.5t-40.5 -15.5h-498v-367h383q33 0 43 -13.5t10 -59.5q0 -47 -10.5 -61.5t-42.5 -14.5h-383v-436h518q30 0 40.5 -15.5t10.5 -62.5 q0 -45 -10.5 -60.5t-40.5 -15.5h-625q-38 0 -50.5 10t-12.5 41v326h-375l-94 -332q-8 -27 -25 -36t-69 -9zM516 1112l-172 -600h336v600h-164zM793 1350q-72 0 -72 32q0 14 20 54l97 184q11 23 17.5 31.5t27 15t59.5 6.5q96 0 96 -33q0 -17 -28 -63l-117 -180 q-12 -19 -19.5 -27t-27 -14t-53.5 -6z" />
<glyph unicode="&#x1fd;" horiz-adv-x="1525" d="M1051 -20q-51 0 -85.5 2t-74 9.5t-66 22.5t-52 39t-42 61.5t-26.5 88.5q-41 -111 -136 -167t-219 -56q-137 0 -200.5 67t-63.5 221q0 158 83 224.5t288 66.5h221v158q0 54 -10 86.5t-35.5 50t-58 22.5t-89.5 5q-94 0 -198 -19.5t-109 -19.5q-33 0 -33 67q0 37 9.5 53.5 t33.5 22.5q55 18 144 29.5t172 11.5q114 0 182.5 -19t104.5 -69q48 51 118 69.5t176 18.5q78 0 134.5 -12t95 -40.5t62.5 -64t36.5 -94.5t16.5 -118.5t4 -147.5q0 -46 -15 -66t-59 -20h-514q1 -80 5.5 -134.5t16.5 -92.5t26 -59t41.5 -32.5t54.5 -14.5t73 -3 q88 0 162.5 10.5t116.5 21.5t49 11q14 0 21 -14.5t7 -53.5t-9.5 -53.5t-39.5 -25.5q-50 -18 -145 -30.5t-174 -12.5zM399 121q117 0 198 67t81 185v73l-229 -6q-120 -3 -159.5 -34t-39.5 -121q0 -102 32.5 -133t116.5 -31zM1071 883q-56 0 -89.5 -6t-61.5 -23t-42 -52 t-22 -87.5t-10 -134.5h424q0 48 -0.5 74t-3 61t-8 53t-15 41t-24 34t-35 21.5t-48.5 14.5t-65 4zM770 1104q-72 0 -72 33q0 11 21 53l96 184q11 23 18 31.5t27.5 15t59.5 6.5q96 0 96 -32q0 -16 -29 -64l-117 -180q-12 -19 -19.5 -27t-27 -14t-53.5 -6z" />
<glyph unicode="&#x1fe;" horiz-adv-x="1073" d="M489 1350q-71 0 -71 32q0 14 20 54l97 184q11 23 17.5 31.5t27 15t59.5 6.5q96 0 96 -33q0 -17 -28 -63l-117 -180q-17 -27 -35 -37t-66 -10zM537 -18q-55 0 -94 2.5t-81 9.5t-71 20t-59 34.5t-49 52.5t-36.5 74t-27.5 99.5t-15.5 129t-5.5 161.5v117q0 133 8.5 226 t31.5 160t53.5 105.5t84 60.5t112 29t149.5 7q68 0 115.5 -3.5t93.5 -14.5t76.5 -29.5t58.5 -49.5t44 -73.5t28 -103.5t17 -137.5t5 -176.5v-117q0 -100 -6 -179t-20.5 -138.5t-32.5 -102.5t-48 -72.5t-60.5 -47.5t-76.5 -27.5t-89 -12.5t-105 -3zM268 676q0 -238 8 -314 l494 666q-25 57 -77 75.5t-156 18.5q-47 0 -78.5 -2.5t-61.5 -11t-48 -21.5t-34 -38t-24 -55.5t-13.5 -79t-7.5 -104t-2 -134.5zM537 129q59 0 96.5 5t70.5 22.5t50.5 46t30.5 80t17.5 120.5t4.5 172q0 211 -6 291l-482 -655q29 -49 78 -65.5t140 -16.5z" />
<glyph unicode="&#x1ff;" horiz-adv-x="1017" d="M465 1104q-72 0 -72 33q0 11 21 53l96 184q11 23 17.5 31.5t27 15t59.5 6.5q97 0 97 -32q0 -16 -29 -64l-117 -180q-12 -19 -19.5 -27t-27 -14t-53.5 -6zM494 -20q-78 0 -132.5 8t-100.5 30t-73.5 57.5t-47 94t-27 136.5t-7.5 188q0 128 15 218.5t45 152t81.5 96.5 t118 50t160.5 15q78 0 132 -8t99.5 -29.5t73 -57t46.5 -94t26.5 -136t7.5 -187.5q0 -159 -22 -261.5t-73.5 -163.5t-127.5 -85t-194 -24zM498 125q52 0 88 6t64 23t44 42.5t27 69t14.5 97.5t3.5 133q0 138 -8 209l-409 -521q24 -34 64.5 -46.5t111.5 -12.5zM279 514 q0 -154 6 -209l407 522q-40 56 -172 56q-78 0 -123 -14t-72.5 -57.5t-36.5 -111t-9 -186.5z" />
<glyph unicode="&#x218;" horiz-adv-x="940" d="M444 -18q-171 0 -303 38q-29 8 -41 25t-12 59t7.5 55t27.5 13q4 0 102 -18.5t191 -18.5q142 0 205 45.5t63 151.5q0 81 -21 121t-81 67l-265 119q-77 35 -117.5 69.5t-61.5 91t-21 146.5q0 83 19.5 143.5t49 95t77 54t92.5 25.5t106 6q180 0 311 -39q25 -6 36 -23t11 -59 q0 -41 -8 -55.5t-27 -14.5q-8 0 -49 9.5t-105.5 19.5t-129.5 10q-54 0 -85.5 -3t-59.5 -12.5t-41.5 -29t-21 -50.5t-7.5 -79q0 -70 23.5 -101.5t88.5 -60.5l265 -118q108 -49 148 -118.5t40 -201.5q0 -82 -20.5 -145t-55.5 -104t-87.5 -66.5t-111.5 -36t-131 -10.5z M440 -471q-32 0 -43.5 7.5t-11.5 25.5q0 8 11.5 100.5t11.5 175.5q0 44 16 57t72 13q52 0 69 -11t17 -44q0 -90 -19 -152l-41 -129q-11 -25 -27 -34t-55 -9z" />
<glyph unicode="&#x219;" horiz-adv-x="878" d="M408 -20q-154 0 -267 36q-29 9 -39 24.5t-10 53.5q0 70 27 70q3 0 98 -18.5t176 -18.5q121 0 172 39t51 123q0 46 -17.5 70t-59.5 42l-277 117q-143 61 -143 242q0 266 319 266q138 0 275 -35q30 -8 39.5 -23.5t9.5 -58.5q0 -28 -5.5 -43.5t-11.5 -18.5t-16 -3 q-1 0 -97 19.5t-171 19.5q-97 0 -133.5 -28.5t-36.5 -94.5q0 -49 16 -75t62 -46l268 -111q82 -33 115.5 -86.5t33.5 -144.5q0 -317 -378 -317zM395 -471q-32 0 -43.5 7.5t-11.5 25.5q0 8 11 100.5t11 175.5q0 43 16.5 56.5t72.5 13.5q52 0 69 -11t17 -44q0 -90 -19 -152 l-41 -129q-11 -25 -27 -34t-55 -9z" />
<glyph unicode="&#x2c6;" horiz-adv-x="636" d="M340 1300h-12l-99 -155q-15 -25 -33.5 -33t-60.5 -8q-65 0 -65 33q0 14 22 51l121 201q13 22 28.5 30t57.5 8h70q42 0 57.5 -8t28.5 -30l120 -201q23 -39 23 -51q0 -33 -66 -33q-42 0 -60.5 8t-33.5 33z" />
<glyph unicode="&#x2c7;" horiz-adv-x="636" d="M53 1395q0 32 66 32q43 0 61 -7.5t35 -33.5l98 -155h11l98 155q15 25 34 33t62 8q66 0 66 -32q0 -8 -23 -52l-121 -200q-13 -22 -29.5 -30.5t-58.5 -8.5h-67q-42 0 -58.5 8.5t-29.5 30.5l-121 200q-23 44 -23 52z" />
<glyph unicode="&#x2d8;" horiz-adv-x="550" d="M274 1135q-131 0 -175 42t-44 150q0 35 12 44t54 9q41 0 52 -8t13 -39q1 -25 3 -36t11 -20.5t26 -12t48 -2.5q42 0 61 6.5t24 19.5t6 45q2 31 12.5 39t52.5 8t53 -9t11 -44q0 -108 -43.5 -150t-176.5 -42z" />
<glyph unicode="&#x2d9;" horiz-adv-x="301" d="M147 1165q-60 0 -77 12t-17 52v43q0 40 17.5 52.5t76.5 12.5q61 0 79 -12.5t18 -52.5v-43q0 -40 -18 -52t-79 -12z" />
<glyph unicode="&#x2da;" horiz-adv-x="546" d="M272 1245q60 0 76.5 14.5t16.5 59.5q0 44 -16.5 59t-76.5 15q-58 0 -73 -14.5t-15 -59.5q0 -46 14.5 -60t73.5 -14zM272 1133q-129 0 -173 40.5t-44 145.5t44 145.5t173 40.5q131 0 175.5 -40.5t44.5 -145.5t-44.5 -145.5t-175.5 -40.5z" />
<glyph unicode="&#x2db;" horiz-adv-x="407" d="M199 -395q-73 0 -108.5 34t-35.5 111q0 25 6 50t12.5 44t26 47t31.5 44.5t44.5 51.5t49.5 52.5t62 62.5h65q0 -43 -12 -71.5t-53 -87.5q-39 -56 -55.5 -89.5t-16.5 -62.5q0 -28 8 -37.5t31 -9.5q19 0 37 3t26 3q20 0 27.5 -12t7.5 -49q0 -35 -11.5 -48.5t-41.5 -21.5 q-54 -14 -100 -14z" />
<glyph unicode="&#x2dc;" horiz-adv-x="649" d="M55 1217q0 34 10 49t39 34q55 37 121 37q45 0 112 -21.5t99 -21.5q41 0 84 19.5t47 19.5q16 0 21.5 -11t5.5 -48q0 -35 -10.5 -51t-38.5 -35q-63 -35 -123 -35q-44 0 -110.5 20.5t-98.5 20.5q-41 0 -84 -18.5t-47 -18.5q-16 0 -21.5 11.5t-5.5 48.5z" />
<glyph unicode="&#x2dd;" horiz-adv-x="679" d="M55 1137q0 15 97 254q7 20 24.5 28t71.5 8q53 0 70.5 -5t17.5 -27q0 -10 -5 -24t-33.5 -69t-84.5 -157q-12 -24 -28.5 -32.5t-65.5 -8.5q-37 0 -50.5 8t-13.5 25zM311 1137q0 20 127 254q10 20 28.5 28t70.5 8q50 0 69 -6t19 -26q0 -10 -6.5 -24t-42 -68.5t-107.5 -157.5 q-15 -25 -31 -33t-63 -8q-37 0 -50.5 8t-13.5 25z" />
<glyph unicode="&#x401;" horiz-adv-x="931" d="M870 76q0 -45 -10.5 -60.5t-40.5 -15.5h-631q-37 0 -49 10t-12 41v1157q0 31 12 41.5t49 10.5h611q30 0 40.5 -15t10.5 -61q0 -47 -10.5 -62.5t-40.5 -15.5h-504v-367h391q31 0 41 -13.5t10 -59.5q0 -47 -10 -61.5t-41 -14.5h-391v-436h524q30 0 40.5 -15.5t10.5 -62.5z M324 1419q-57 0 -74 12t-17 52v43q0 40 17 52.5t74 12.5q56 0 73 -12.5t17 -52.5v-43q0 -40 -16.5 -52t-73.5 -12zM625 1419q-58 0 -75.5 12t-17.5 52v43q0 40 17.5 52.5t75.5 12.5q56 0 73 -12.5t17 -52.5v-43q0 -40 -16.5 -52t-73.5 -12z" />
<glyph unicode="&#x402;" horiz-adv-x="1185" d="M418 0q-51 0 -67.5 10.5t-16.5 44.5v1051h-262q-30 0 -41 16t-11 62t11 61t41 15h698q30 0 40.5 -15t10.5 -61q0 -47 -10.5 -62.5t-40.5 -15.5h-266v-309q38 79 108.5 115t180.5 36q154 0 210 -63.5t56 -204.5v-449q0 -129 -48.5 -185t-156.5 -56q-72 0 -125 16 q-31 8 -43 22.5t-12 51.5q0 42 7.5 54.5t27.5 12.5q4 0 38.5 -5t63.5 -5q51 0 65.5 23t14.5 116v365q0 93 -33 126.5t-133 33.5q-116 0 -168.5 -76t-52.5 -244v-426q0 -35 -17 -45t-69 -10z" />
<glyph unicode="&#x403;" horiz-adv-x="825" d="M379 1380q-72 0 -72 33q0 11 21 53l96 185q11 23 17.5 31.5t27 15t59.5 6.5q97 0 97 -33q0 -15 -29 -63l-117 -181q-12 -19 -19.5 -27t-27 -14t-53.5 -6zM211 0q-51 0 -67.5 10.5t-16.5 44.5v1153q0 31 12 41.5t49 10.5h549q30 0 40.5 -15t10.5 -61q0 -47 -10.5 -62.5 t-40.5 -15.5h-442v-1051q0 -34 -16.5 -44.5t-67.5 -10.5z" />
<glyph unicode="&#x404;" horiz-adv-x="923" d="M737 655q0 -44 -10 -57.5t-41 -13.5h-424q0 -81 3 -142t11 -108t17.5 -79.5t27.5 -55.5t35.5 -35.5t47.5 -19.5t56.5 -9t69.5 -2q72 0 138 8.5t105.5 16.5t47.5 8q19 0 26 -13t7 -55t-11 -57.5t-38 -22.5q-138 -36 -297 -36q-49 0 -83.5 2.5t-76.5 10.5t-71 25t-59.5 44 t-50.5 69t-36.5 98.5t-24.5 134.5t-8 175v155q0 88 6.5 160t17 127t29 98t38.5 73.5t49.5 51.5t57.5 33.5t68 19.5t75 9t83 2q152 0 283 -35q28 -7 38.5 -21t10.5 -55t-7.5 -55t-25.5 -14q-8 0 -45.5 7.5t-96 15t-118.5 7.5q-65 0 -103.5 -3.5t-76 -17.5t-56.5 -38.5 t-35 -69.5t-21.5 -108t-6.5 -156h424q31 0 41 -14t10 -58z" />
<glyph unicode="&#x405;" horiz-adv-x="940" d="M444 -18q-171 0 -303 38q-29 8 -41 25t-12 59t7.5 55t27.5 13q4 0 102 -18.5t191 -18.5q142 0 205 45.5t63 151.5q0 81 -21 121t-81 67l-265 119q-77 35 -117.5 69.5t-61.5 91t-21 146.5q0 83 19.5 143.5t49 95t77 54t92.5 25.5t106 6q180 0 311 -39q25 -6 36 -23t11 -59 q0 -41 -8 -55.5t-27 -14.5q-8 0 -49 9.5t-105.5 19.5t-129.5 10q-54 0 -85.5 -3t-59.5 -12.5t-41.5 -29t-21 -50.5t-7.5 -79q0 -70 23.5 -101.5t88.5 -60.5l265 -118q108 -49 148 -118.5t40 -201.5q0 -82 -20.5 -145t-55.5 -104t-87.5 -66.5t-111.5 -36t-131 -10.5z" />
<glyph unicode="&#x406;" horiz-adv-x="421" d="M211 0q-51 0 -67.5 10.5t-16.5 44.5v1151q0 32 16.5 43t67.5 11t67.5 -11t16.5 -43v-1151q0 -34 -16.5 -44.5t-67.5 -10.5z" />
<glyph unicode="&#x407;" horiz-adv-x="421" d="M211 0q-51 0 -67.5 10.5t-16.5 44.5v1151q0 32 16.5 43t67.5 11t67.5 -11t16.5 -43v-1151q0 -34 -16.5 -44.5t-67.5 -10.5zM61 1411q-57 0 -73.5 12t-16.5 52v43q0 40 17 52.5t73 12.5q57 0 74 -12.5t17 -52.5v-43q0 -40 -17 -52t-74 -12zM362 1411q-58 0 -75 12t-17 52 v43q0 40 17 52.5t75 12.5q57 0 74 -12.5t17 -52.5v-43q0 -40 -17 -52t-74 -12z" />
<glyph unicode="&#x408;" horiz-adv-x="686" d="M264 -18q-110 0 -194 26q-29 8 -40.5 24t-11.5 56q0 42 6.5 53t26.5 11q8 0 68 -9.5t108 -9.5q97 0 130.5 37t33.5 147v889q0 32 16.5 43t67.5 11t67.5 -11t16.5 -43v-899q0 -173 -72.5 -249t-222.5 -76z" />
<glyph unicode="&#x409;" horiz-adv-x="1732" d="M184 -18q-56 0 -112 12q-29 6 -40.5 22.5t-11.5 57.5q0 39 7 50t26 11q13 0 38 -3t44 -3q37 0 50.5 18t19.5 80l100 983q3 30 15 40t49 10h559q38 0 50.5 -10.5t12.5 -41.5v-485q138 18 303 18q87 0 147.5 -14.5t99.5 -42t60 -76t29 -106.5t8 -144q0 -111 -16.5 -178.5 t-63.5 -114t-127.5 -65t-211.5 -18.5q-187 0 -328 16q-43 4 -56.5 18t-13.5 47v1043h-362l-101 -946q-10 -91 -46.5 -134.5t-127.5 -43.5zM1227 600q-76 0 -236 -10v-455q69 -10 234 -10q57 0 93 3t64.5 13.5t43 25t24 44t12 63t2.5 88.5q0 64 -6.5 104t-20.5 68t-43 41.5 t-67 19t-100 5.5z" />
<glyph unicode="&#x40a;" horiz-adv-x="1677" d="M211 0q-51 0 -67.5 10.5t-16.5 44.5v1151q0 32 16.5 43t67.5 11t67.5 -11t16.5 -43v-479h473v479q0 32 16.5 43t67.5 11q52 0 68 -10.5t16 -43.5v-483q166 18 305 18q108 0 175.5 -21t105 -70.5t50.5 -116.5t13 -175q0 -110 -17 -178t-64 -114.5t-128 -65t-211 -18.5 q-184 0 -329 16q-41 4 -54.5 18t-13.5 47v515h-473v-523q0 -34 -16.5 -44.5t-67.5 -10.5zM1171 600q-72 0 -235 -10v-455q71 -10 235 -10q56 0 92 3t64.5 13.5t43 25.5t24 44t12 62.5t2.5 88.5q0 80 -8.5 124t-37 71t-71.5 35t-121 8z" />
<glyph unicode="&#x40b;" horiz-adv-x="1185" d="M418 0q-51 0 -67.5 10.5t-16.5 44.5v1051h-262q-30 0 -41 16t-11 62t11 61t41 15h698q30 0 40.5 -15t10.5 -61q0 -47 -10.5 -62.5t-40.5 -15.5h-266v-309q38 79 108.5 115t180.5 36q154 0 210 -63.5t56 -204.5v-625q0 -35 -16 -45t-68 -10q-51 0 -67.5 10.5t-16.5 44.5 v586q0 93 -33 126.5t-133 33.5q-116 0 -168.5 -76t-52.5 -244v-426q0 -35 -17 -45t-69 -10z" />
<glyph unicode="&#x40c;" horiz-adv-x="937" d="M211 0q-51 0 -67.5 10.5t-16.5 44.5v1151q0 32 16.5 43t67.5 11t67.5 -11t16.5 -43v-504h29l368 519q17 25 36.5 32t74.5 7q45 0 63.5 -8t18.5 -27q0 -21 -27 -60l-389 -522l410 -539q28 -38 28 -65q0 -21 -16.5 -30t-67.5 -9q-46 0 -67.5 8t-38.5 31l-395 547h-27v-531 q0 -34 -16.5 -44.5t-67.5 -10.5zM410 1380q-72 0 -72 33q0 13 20 53l97 185q11 23 17.5 31.5t27 15t59.5 6.5q96 0 96 -33q0 -17 -28 -63l-117 -181q-12 -19 -19.5 -27t-27 -14t-53.5 -6z" />
<glyph unicode="&#x40e;" horiz-adv-x="972" d="M487 1411q-131 0 -175 42.5t-44 150.5q0 35 12 44t54 9q41 0 52 -8t13 -39q2 -46 15.5 -59t72.5 -13q42 0 61 7t24 20t6 45q2 31 12.5 39t52.5 8t53 -9t11 -44q0 -108 -43.5 -150.5t-176.5 -42.5zM35 1225q0 19 18 27t66 8q52 0 69 -8t25 -33l268 -756h27l248 751 q9 30 26 38t72 8q49 0 66.5 -8.5t17.5 -26.5q0 -16 -25 -86l-352 -955q-24 -64 -51.5 -103.5t-79 -65t-125.5 -25.5q-107 0 -170 16q-29 6 -41 22t-12 56q0 43 7.5 54.5t27.5 11.5q8 0 63.5 -7.5t98.5 -7.5q73 0 105 26t60 109l17 54h-15q-44 0 -65 16t-33 49l-291 756 q-22 58 -22 80z" />
<glyph unicode="&#x40f;" horiz-adv-x="1058" d="M528 -223q-40 0 -49.5 7.5t-11.5 37.5l-8 178h-271q-37 0 -49 10t-12 41v1155q0 32 16.5 43t67.5 11t67.5 -11t16.5 -43v-1052h467v1052q0 32 17 43t69 11q51 0 67.5 -11t16.5 -43v-1155q0 -31 -13 -41t-51 -10h-268l-10 -178q-2 -30 -11.5 -37.5t-50.5 -7.5z" />
<glyph unicode="&#x410;" horiz-adv-x="1058" d="M117 0q-49 0 -65.5 8.5t-16.5 30.5q0 19 10 53l326 1094q15 50 42 62t115 12q90 0 117.5 -12t42.5 -62l324 -1094q10 -34 10 -53q0 -21 -16.5 -30t-63.5 -9q-52 0 -70 9t-26 36l-98 332h-443l-94 -332q-8 -27 -25 -36t-69 -9zM516 1112l-172 -600h369l-170 600h-27z" />
<glyph unicode="&#x411;" horiz-adv-x="1046" d="M526 -18q-186 0 -331 16q-41 4 -54.5 18t-13.5 47v1145q0 31 12 41.5t49 10.5h629q30 0 40.5 -15t10.5 -61q0 -47 -10.5 -62.5t-40.5 -15.5h-522v-389q144 18 311 18q108 0 175.5 -20.5t105 -70t50.5 -116t13 -174.5q0 -110 -17.5 -177.5t-66 -113t-129 -63.5t-211.5 -18 zM537 594q-79 0 -242 -10v-449q71 -10 237 -10q58 0 94 3t65 13t43.5 24t24.5 43t12.5 62t2.5 88q0 80 -8 124t-36.5 70.5t-71 34t-121.5 7.5z" />
<glyph unicode="&#x412;" horiz-adv-x="1048" d="M526 -18q-186 0 -331 16q-41 4 -54.5 18t-13.5 47v1123q0 34 13.5 48t45.5 19q136 17 295 17q61 0 101.5 -1.5t86 -6t74 -14t58 -24.5t47 -37.5t31.5 -54.5t20 -73.5t6 -95.5q0 -127 -32 -197t-115 -98q104 -25 148 -100t44 -228q0 -104 -17.5 -169t-65.5 -109 t-129.5 -62t-211.5 -18zM295 1114v-387h199q79 0 121.5 7t70 32.5t35.5 65.5t8 114q0 43 -2.5 68.5t-12 47.5t-23 32.5t-42 18t-62 9.5t-89.5 2q-118 0 -203 -10zM295 594v-459q71 -10 237 -10q58 0 94 3t65 13t43.5 24t24.5 43t12.5 62t2.5 88q0 77 -8.5 120t-36 70.5 t-71 36.5t-121.5 9h-242z" />
<glyph unicode="&#x413;" horiz-adv-x="825" d="M211 0q-51 0 -67.5 10.5t-16.5 44.5v1153q0 31 12 41.5t49 10.5h549q30 0 40.5 -15t10.5 -61q0 -47 -10.5 -62.5t-40.5 -15.5h-442v-1051q0 -34 -16.5 -44.5t-67.5 -10.5z" />
<glyph unicode="&#x414;" horiz-adv-x="1083" d="M98 -223q-39 0 -51 7t-12 34v274q0 38 13 50t50 12h39l107 1056q3 30 14.5 40t48.5 10h570q38 0 49.5 -10.5t11.5 -41.5v-1054h47q37 0 50.5 -12t13.5 -50v-274q0 -27 -12.5 -34t-51.5 -7q-42 0 -56 7.5t-18 33.5l-28 182h-682l-29 -182q-4 -26 -18 -33.5t-56 -7.5z M395 1106l-96 -952h471v952h-375z" />
<glyph unicode="&#x415;" horiz-adv-x="931" d="M870 76q0 -45 -10.5 -60.5t-40.5 -15.5h-631q-37 0 -49 10t-12 41v1157q0 31 12 41.5t49 10.5h611q30 0 40.5 -15t10.5 -61q0 -47 -10.5 -62.5t-40.5 -15.5h-504v-367h391q31 0 41 -13.5t10 -59.5q0 -47 -10 -61.5t-41 -14.5h-391v-436h524q30 0 40.5 -15.5t10.5 -62.5z " />
<glyph unicode="&#x416;" horiz-adv-x="1392" d="M115 0q-50 0 -67 9.5t-17 29.5q0 25 30 65l377 539l-358 522q-25 36 -25 60q0 19 18 27t62 8q55 0 75.5 -7t35.5 -32l340 -519h24v504q0 32 16.5 43t67.5 11q52 0 68 -10.5t16 -43.5v-504h29l338 519q18 25 36.5 32t73.5 7q45 0 63.5 -8t18.5 -27q0 -25 -24 -60 l-361 -522l379 -539q31 -42 31 -65q0 -20 -17.5 -29.5t-68.5 -9.5q-46 0 -68 8t-37 31l-366 547h-27v-531q0 -34 -16 -44.5t-68 -10.5q-51 0 -67.5 10.5t-16.5 44.5v531h-22l-367 -547q-15 -23 -36.5 -31t-69.5 -8z" />
<glyph unicode="&#x417;" horiz-adv-x="911" d="M188 643q0 42 11 57t43 15h104q82 0 135.5 14.5t80.5 45.5t36.5 67.5t9.5 91.5q0 115 -36.5 150.5t-157.5 35.5q-90 0 -186.5 -13t-98.5 -13q-20 0 -28.5 12.5t-8.5 54.5t9 56t40 22q124 31 322 31q80 0 134.5 -13.5t98 -48.5t64 -99.5t20.5 -162.5q0 -124 -56 -200.5 t-161 -96.5q133 -10 187.5 -84t54.5 -219q0 -191 -89.5 -277.5t-273.5 -86.5q-194 0 -333 34q-29 7 -41.5 23.5t-12.5 56.5q0 42 7.5 56t27.5 14q5 0 119 -16.5t201 -16.5q70 0 115 13.5t68 43.5t31.5 67.5t8.5 94.5q0 45 -5 74.5t-22 59.5t-47.5 47t-83.5 27.5t-129 10.5 h-104q-32 0 -43 15t-11 57z" />
<glyph unicode="&#x418;" horiz-adv-x="1112" d="M901 0q-52 0 -68 10.5t-16 44.5v946h-20l-437 -948q-17 -36 -37 -44.5t-79 -8.5q-75 0 -96 10.5t-21 44.5v1151q0 32 16.5 43t67.5 11t67.5 -11t16.5 -43v-946h20l433 946q17 36 37.5 45t80.5 9q75 0 97 -10.5t22 -43.5v-1151q0 -34 -16.5 -44.5t-67.5 -10.5z" />
<glyph unicode="&#x419;" horiz-adv-x="1112" d="M561 1411q-131 0 -175 42.5t-44 150.5q0 35 12 44t54 9q41 0 52 -8t13 -39q2 -46 15.5 -59t72.5 -13q60 0 74 13t16 59q2 31 13 39t53 8q41 0 52 -9t11 -44q0 -73 -16 -112t-64 -60t-139 -21zM901 0q-52 0 -68 10.5t-16 44.5v946h-20l-437 -948q-17 -36 -37 -44.5 t-79 -8.5q-75 0 -96 10.5t-21 44.5v1151q0 32 16.5 43t67.5 11t67.5 -11t16.5 -43v-946h20l433 946q17 36 37.5 45t80.5 9q75 0 97 -10.5t22 -43.5v-1151q0 -34 -16.5 -44.5t-67.5 -10.5z" />
<glyph unicode="&#x41a;" horiz-adv-x="937" d="M211 0q-51 0 -67.5 10.5t-16.5 44.5v1151q0 32 16.5 43t67.5 11t67.5 -11t16.5 -43v-504h29l368 519q17 25 36.5 32t74.5 7q45 0 63.5 -8t18.5 -27q0 -21 -27 -60l-389 -522l410 -539q28 -38 28 -65q0 -21 -16.5 -30t-67.5 -9q-46 0 -67.5 8t-38.5 31l-395 547h-27v-531 q0 -34 -16.5 -44.5t-67.5 -10.5z" />
<glyph unicode="&#x41b;" horiz-adv-x="1138" d="M928 0q-53 0 -69.5 10.5t-16.5 44.5v1051h-369l-100 -946q-10 -92 -46 -135t-128 -43q-59 0 -111 12q-29 6 -41 22.5t-12 57.5q0 39 7.5 50t27.5 11q11 0 36 -3t44 -3q36 0 49.5 17.5t19.5 80.5l100 983q3 30 15 40t49 10h565q38 0 51 -10.5t13 -41.5v-1153 q0 -34 -16.5 -44.5t-67.5 -10.5z" />
<glyph unicode="&#x41c;" horiz-adv-x="1294" d="M211 0q-51 0 -67.5 10.5t-16.5 44.5v1143q0 37 23 49.5t104 12.5q75 0 103 -12.5t46 -59.5l238 -647h12l238 647q18 47 46.5 59.5t104.5 12.5q80 0 102.5 -12.5t22.5 -49.5v-1143q0 -34 -16.5 -44.5t-67.5 -10.5t-67.5 10.5t-16.5 44.5q0 660 2 977h-14l-239 -641 q-15 -39 -34.5 -50t-66.5 -11q-46 0 -65.5 11.5t-34.5 49.5l-238 641h-16q2 -317 2 -977q0 -34 -16.5 -44.5t-67.5 -10.5z" />
<glyph unicode="&#x41d;" horiz-adv-x="1062" d="M295 727h473v479q0 32 16.5 43t67.5 11q52 0 68 -10.5t16 -43.5v-1151q0 -34 -16 -44.5t-68 -10.5q-51 0 -67.5 10.5t-16.5 44.5v523h-473v-523q0 -34 -16.5 -44.5t-67.5 -10.5t-67.5 10.5t-16.5 44.5v1151q0 32 16.5 43t67.5 11t67.5 -11t16.5 -43v-479z" />
<glyph unicode="&#x41e;" horiz-adv-x="1073" d="M537 129q59 0 96.5 5t70.5 22.5t50.5 46t30.5 80t17.5 120.5t4.5 172v101q0 106 -3.5 173t-15.5 120.5t-28.5 80.5t-49.5 45t-71.5 22.5t-101.5 4.5q-60 0 -96.5 -5t-70 -22t-50.5 -45.5t-30.5 -80t-17.5 -120.5t-4 -173v-101q0 -106 3.5 -172.5t15 -120t28 -80.5 t49.5 -45.5t71.5 -23t101.5 -4.5zM537 -18q-66 0 -113 3.5t-93.5 14t-77 29t-58.5 49.5t-44.5 73.5t-29.5 102.5t-18 136t-5 175v117q0 102 6 181.5t20.5 139.5t32 103.5t47.5 73t60.5 47.5t76.5 27.5t89.5 12.5t106.5 3q68 0 115.5 -3.5t93.5 -14.5t76.5 -29.5t58.5 -49.5 t44 -73.5t28 -103.5t17 -137.5t5 -176.5v-117q0 -100 -6 -179t-20.5 -138.5t-32.5 -102.5t-48 -72.5t-60.5 -47.5t-76.5 -27.5t-89 -12.5t-105 -3z" />
<glyph unicode="&#x41f;" horiz-adv-x="1058" d="M211 0q-51 0 -67.5 10.5t-16.5 44.5v1153q0 31 12 41.5t49 10.5h680q38 0 51 -10.5t13 -41.5v-1153q0 -34 -16.5 -44.5t-67.5 -10.5q-53 0 -69.5 10.5t-16.5 44.5v1051h-467v-1051q0 -34 -16.5 -44.5t-67.5 -10.5z" />
<glyph unicode="&#x420;" horiz-adv-x="989" d="M211 0q-51 0 -67.5 10.5t-16.5 44.5v1131q0 58 59 65q141 19 320 19q80 0 133.5 -4.5t103 -18.5t79 -38.5t52.5 -65.5t32 -99t9 -139q0 -233 -99 -327.5t-345 -94.5h-176v-428q0 -34 -16.5 -44.5t-67.5 -10.5zM295 1114v-489h180q157 0 210.5 56t53.5 218 q0 142 -46 183.5t-201 41.5q-80 0 -197 -10z" />
<glyph unicode="&#x421;" horiz-adv-x="923" d="M524 -18q-44 0 -75.5 1.5t-68.5 6t-63 14t-55 24t-49 37t-40 52.5t-32.5 71t-23 92.5t-15 117t-4.5 143.5v155q0 88 6 160t16.5 127t29 98t38 73.5t49.5 51.5t58.5 33.5t69 19.5t77 9t86.5 2q146 0 277 -39q28 -7 38.5 -21.5t10.5 -58.5q0 -40 -7.5 -54t-25.5 -14 q-8 0 -45.5 9.5t-96 18.5t-118.5 9q-48 0 -79 -2t-63.5 -9.5t-52 -20t-38.5 -35.5t-28.5 -54t-17.5 -78t-11 -105.5t-3 -137.5v-103q0 -70 3 -125t8.5 -99t16.5 -76.5t22 -56t31 -39t38.5 -25t48.5 -14t57 -6t68 -1.5q87 0 173 19l87 18q19 0 26 -13t7 -55q0 -43 -11 -58.5 t-38 -23.5q-139 -38 -281 -38z" />
<glyph unicode="&#x422;" horiz-adv-x="878" d="M438 0q-51 0 -67.5 10.5t-16.5 44.5v1051h-282q-30 0 -41 16t-11 62t11 61t41 15h733q30 0 41.5 -15t11.5 -61t-11.5 -62t-41.5 -16h-281v-1051q0 -34 -16.5 -44.5t-69.5 -10.5z" />
<glyph unicode="&#x423;" horiz-adv-x="972" d="M35 1225q0 19 18 27t66 8q52 0 69 -8t25 -33l268 -756h27l248 751q9 30 26 38t72 8q49 0 66.5 -8.5t17.5 -26.5q0 -16 -25 -86l-352 -955q-24 -64 -51.5 -103.5t-79 -65t-125.5 -25.5q-107 0 -170 16q-29 6 -41 22t-12 56q0 43 7.5 54.5t27.5 11.5q8 0 63.5 -7.5 t98.5 -7.5q73 0 105 26t60 109l17 54h-15q-44 0 -65 16t-33 49l-291 756q-22 58 -22 80z" />
<glyph unicode="&#x424;" horiz-adv-x="1265" d="M55 678q0 85 12 148.5t38.5 106t59.5 70t83 42t101 19.5t122 5h84v141q0 34 16 45t68 11q51 0 67.5 -11t16.5 -45v-141h84q71 0 121.5 -5t100.5 -19.5t83 -42t59 -70t38 -106t12 -148.5q0 -243 -95.5 -340.5t-318.5 -97.5h-84v-191q0 -34 -16.5 -44.5t-67.5 -10.5 q-52 0 -68 10.5t-16 44.5v191h-84q-223 0 -319.5 98t-96.5 340zM227 678q0 -97 10.5 -153.5t41 -89t73.5 -42.5t119 -10h84v543h-84q-76 0 -119 -8.5t-73.5 -35.5t-41 -74.5t-10.5 -129.5zM807 926h-84v-543h84q75 0 118 10t73.5 42.5t41.5 89t11 153.5q0 66 -8 108.5 t-23.5 71t-46 43t-68.5 20t-98 5.5z" />
<glyph unicode="&#x425;" horiz-adv-x="987" d="M129 0q-48 0 -66 10t-18 31t25 61l331 545l-311 508q-24 47 -24 64q0 21 19 31t67 10q51 0 71 -8.5t35 -37.5l231 -405h9l229 405q15 29 36 37.5t73 8.5q48 0 66 -10t18 -31q0 -22 -25 -62l-313 -508l336 -545q24 -41 24 -63q0 -41 -84 -41q-52 0 -71.5 8t-34.5 37 l-256 449h-9l-251 -449q-15 -29 -35 -37t-72 -8z" />
<glyph unicode="&#x426;" horiz-adv-x="1091" d="M991 -223q-42 0 -57 7.5t-19 33.5l-26 182h-701q-37 0 -49 10t-12 41v1155q0 32 16.5 43t67.5 11t67.5 -11t16.5 -43v-1052h467v1052q0 32 17 43t69 11q51 0 67.5 -11t16.5 -43v-1052h51q42 0 58 -12t16 -50v-274q0 -26 -13.5 -33.5t-52.5 -7.5z" />
<glyph unicode="&#x427;" horiz-adv-x="985" d="M422 502q-64 0 -108.5 4.5t-84.5 17t-65 34t-43.5 55.5t-26.5 82t-8 114v397q0 32 16.5 43t67.5 11t67.5 -11t16.5 -43v-372q0 -62 8 -96.5t33 -54.5t60 -25t102 -5q106 0 233 13v540q0 32 16.5 43t67.5 11q52 0 68 -10.5t16 -43.5v-1151q0 -34 -16 -44.5t-68 -10.5 q-51 0 -67.5 10.5t-16.5 44.5v469q-147 -22 -268 -22z" />
<glyph unicode="&#x428;" horiz-adv-x="1638" d="M211 1260q51 0 67.5 -11t16.5 -43v-1052h440v1052q0 32 16.5 43t67.5 11t67.5 -11t16.5 -43v-1052h438v1052q0 32 17 43t69 11q51 0 67.5 -11t16.5 -43v-1155q0 -31 -12.5 -41t-50.5 -10h-1260q-37 0 -49 10t-12 41v1155q0 32 16.5 43t67.5 11z" />
<glyph unicode="&#x429;" horiz-adv-x="1671" d="M1468 0h-1280q-37 0 -49 10t-12 41v1155q0 32 16.5 43t67.5 11t67.5 -11t16.5 -43v-1052h440v1052q0 32 16.5 43t67.5 11t67.5 -11t16.5 -43v-1052h438v1052q0 32 17 43t69 11q51 0 67.5 -11t16.5 -43v-1052h52q43 0 58 -12t15 -50v-274q0 -27 -12.5 -34t-52.5 -7 q-43 0 -57.5 7t-18.5 34z" />
<glyph unicode="&#x42a;" horiz-adv-x="1116" d="M612 -18q-188 0 -329 16q-43 4 -56.5 18t-13.5 47v1043h-141q-30 0 -41 16t-11 62t11 61t41 15h227q51 0 67.5 -11t16.5 -43v-483q138 18 305 18q87 0 147 -14.5t98.5 -42t59.5 -76t29 -106.5t8 -144q0 -111 -16.5 -178.5t-63.5 -114t-127.5 -65t-210.5 -18.5zM618 600 q-75 0 -235 -10v-455q69 -10 233 -10q57 0 93 3t64.5 13.5t43.5 25.5t24.5 44t12 62.5t2.5 88.5q0 80 -8.5 124t-37 71t-71.5 35t-121 8z" />
<glyph unicode="&#x42b;" horiz-adv-x="1445" d="M1249 0q-51 0 -67.5 10.5t-16.5 44.5v1151q0 32 16.5 43t67.5 11t67.5 -11t16.5 -43v-1151q0 -34 -16.5 -44.5t-67.5 -10.5zM211 1260q51 0 67.5 -11t16.5 -43v-483q166 18 305 18q108 0 175.5 -21t105 -70.5t50.5 -116.5t13 -175q0 -110 -17 -178t-64 -114.5t-128 -65 t-211 -18.5q-184 0 -329 16q-41 4 -54.5 18t-13.5 47v1143q0 32 16.5 43t67.5 11zM530 600q-72 0 -235 -10v-455q71 -10 235 -10q56 0 92 3t64.5 13.5t43 25.5t24 44t12 62.5t2.5 88.5q0 80 -8.5 124t-37 71t-71.5 35t-121 8z" />
<glyph unicode="&#x42c;" horiz-adv-x="1030" d="M211 1260q51 0 67.5 -11t16.5 -43v-483q166 18 305 18q108 0 175.5 -21t105 -70.5t50.5 -116.5t13 -175q0 -110 -17 -178t-64 -114.5t-128 -65t-211 -18.5q-184 0 -329 16q-41 4 -54.5 18t-13.5 47v1143q0 32 16.5 43t67.5 11zM530 600q-72 0 -235 -10v-455 q71 -10 235 -10q56 0 92 3t64.5 13.5t43 25.5t24 44t12 62.5t2.5 88.5q0 80 -8.5 124t-37 71t-71.5 35t-121 8z" />
<glyph unicode="&#x42d;" horiz-adv-x="929" d="M188 655q0 44 10.5 58t43.5 14h426q-1 93 -6.5 156t-21.5 108t-35 69.5t-56.5 38.5t-76 17.5t-103.5 3.5q-60 0 -118.5 -7.5t-96 -15t-45.5 -7.5q-18 0 -25.5 14t-7.5 55t10.5 55t38.5 21q131 35 283 35q43 0 75 -1.5t68.5 -7t63 -15t54.5 -25t48 -39t39.5 -54.5 t32.5 -73t23 -95t14.5 -119t4.5 -145v-155q0 -86 -7 -157.5t-18 -125.5t-30.5 -96t-39.5 -71t-49.5 -49t-56.5 -32t-64.5 -18t-68.5 -8t-75 -2q-159 0 -297 36q-27 7 -38 22.5t-11 57.5t7 55t26 13q8 0 47.5 -8t105 -16.5t137.5 -8.5q43 0 69.5 2t56.5 8.5t47.5 19t36 35 t28 54t17.5 78t11 106.5t3 139v9h-426q-33 0 -43.5 13.5t-10.5 57.5z" />
<glyph unicode="&#x42e;" horiz-adv-x="1544" d="M1008 -18q-55 0 -94 2.5t-81 9.5t-71 20t-59 34.5t-49 52.5t-36.5 74t-27.5 99.5t-15.5 129t-5.5 161.5v19h-274v-529q0 -34 -16.5 -44.5t-67.5 -10.5t-67.5 10.5t-16.5 44.5v1151q0 32 16.5 43t67.5 11t67.5 -11t16.5 -43v-471h274q2 121 11.5 205.5t33.5 145t54.5 96 t83.5 55.5t110.5 26.5t145.5 6.5q68 0 115.5 -3.5t93.5 -14.5t76.5 -29.5t58.5 -49.5t44 -73.5t28 -103.5t17 -137.5t5 -176.5v-117q0 -100 -6 -179t-21 -138.5t-33 -103t-48 -72.5t-60.5 -47t-76.5 -27.5t-88.5 -12.5t-104.5 -3zM1008 129q59 0 96.5 5t70.5 22.5t50.5 46 t30.5 80t17.5 120.5t4.5 172v101q0 106 -3.5 173t-15.5 120.5t-28.5 80.5t-49.5 45t-71.5 22.5t-101.5 4.5q-47 0 -79 -2.5t-61.5 -11t-47.5 -21.5t-34.5 -38t-24.5 -55.5t-14 -79t-8 -104t-2 -134.5v-101q0 -103 4.5 -172t17.5 -120.5t31 -80.5t51 -46t70.5 -22t96.5 -5z " />
<glyph unicode="&#x42f;" horiz-adv-x="1026" d="M817 0q-51 0 -67.5 10.5t-16.5 44.5v480h-174q-59 0 -88 2l-205 -494q-11 -27 -30 -35t-76 -8q-43 0 -59.5 9t-16.5 28q0 13 20 59l218 467q-111 35 -160 121.5t-49 241.5q0 76 9 130.5t32 93t52.5 62t79.5 36.5t104 17.5t134 4.5q177 0 318 -19q59 -7 59 -65v-1131 q0 -34 -16.5 -44.5t-67.5 -10.5zM289 920q0 -153 53 -203.5t211 -50.5h180v448q-127 10 -196 10q-154 0 -201 -39t-47 -165z" />
<glyph unicode="&#x430;" horiz-adv-x="995" d="M350 -20q-137 0 -200.5 67t-63.5 221q0 158 83 224.5t288 66.5h221v158q0 54 -10 86.5t-35.5 50t-58 22.5t-89.5 5q-94 0 -198 -19.5t-109 -19.5q-33 0 -33 67q0 37 9.5 53.5t33.5 22.5q55 18 144 29.5t172 11.5q73 0 123 -6t94 -23t69.5 -48t39.5 -80t14 -119v-381 q0 -86 12 -160t23.5 -116.5t11.5 -51.5q0 -21 -15.5 -31t-64.5 -10q-44 0 -58.5 8t-23.5 39l-35 133q-44 -100 -135 -150t-209 -50zM399 121q117 0 198 67t81 185v73l-229 -6q-120 -3 -159.5 -34t-39.5 -121q0 -102 32.5 -133t116.5 -31z" />
<glyph unicode="&#x431;" horiz-adv-x="1036" d="M539 -20q-126 0 -204 23t-127.5 83t-68 153.5t-18.5 243.5v443q0 131 24 216.5t77.5 133.5t126.5 67t183 19q165 0 318 -29q22 -3 31.5 -19t9.5 -54t-7 -52t-24 -14q-7 0 -111.5 11.5t-191.5 11.5q-51 0 -84 -3t-65.5 -12t-52 -25.5t-34.5 -44.5t-21.5 -68.5t-6.5 -96.5 v-80q34 72 103.5 105.5t187.5 33.5q70 0 117.5 -7.5t89 -29t66 -57.5t42 -96.5t24.5 -142.5t7 -199q0 -109 -8.5 -188t-29 -137t-49 -94t-75 -57.5t-100 -29.5t-129.5 -8zM539 125q38 0 65.5 2.5t51 11t38.5 20.5t27.5 35t19 49t10.5 68.5t5.5 89t1.5 113.5q0 86 -3.5 143.5 t-15.5 100.5t-27 66t-45 37t-62.5 18t-86.5 4q-66 0 -106 -13.5t-68.5 -52.5t-39.5 -108t-11 -181v-39q0 -94 7 -154.5t22 -104t45 -65t69.5 -31t102.5 -9.5z" />
<glyph unicode="&#x432;" horiz-adv-x="993" d="M508 133q98 0 143.5 13t62.5 45.5t17 103.5q0 93 -52.5 128.5t-203.5 35.5h-180v-316q92 -10 213 -10zM504 -18q-156 0 -309 18q-42 4 -55 17t-13 46v877q0 34 13.5 48.5t45.5 19.5q128 16 326 16q70 0 118.5 -3.5t93 -13t72 -26t48 -43.5t29 -65.5t8.5 -90.5 q0 -135 -49.5 -190.5t-161.5 -69.5q130 -18 182.5 -69t52.5 -185q0 -89 -22 -145t-74 -87t-122.5 -42.5t-182.5 -11.5zM494 874q-114 0 -199 -10v-282h184q130 0 179 33.5t49 123.5q0 88 -41.5 111.5t-171.5 23.5z" />
<glyph unicode="&#x433;" horiz-adv-x="698" d="M211 0q-51 0 -67.5 10.5t-16.5 44.5v899q0 31 12 41.5t49 10.5h437q30 0 41.5 -15t11.5 -61t-11.5 -62t-41.5 -16h-330v-797q0 -34 -16.5 -44.5t-67.5 -10.5z" />
<glyph unicode="&#x434;" horiz-adv-x="1026" d="M96 -223q-40 0 -51.5 7t-11.5 34v260q0 47 10 61.5t41 14.5h53l92 798q3 33 18.5 43.5t65.5 10.5h467q51 0 67.5 -11t16.5 -43v-798h51q37 0 49.5 -11.5t12.5 -50.5v-274q0 -27 -12 -34t-50 -7q-43 0 -57 7t-18 34l-27 182h-614l-29 -182q-4 -26 -18 -33.5t-56 -7.5z M379 856l-80 -702h395v702h-315z" />
<glyph unicode="&#x435;" horiz-adv-x="958" d="M518 -20q-79 0 -132.5 6.5t-103.5 26t-80.5 54.5t-53.5 92.5t-32.5 139t-9.5 195.5q0 80 6 146.5t16 117.5t27.5 90.5t37 67.5t47 48t54.5 32t64 19t71 9t79 2q69 0 122 -10t91 -27.5t64 -49.5t42 -66.5t24.5 -88.5t11.5 -106.5t3 -128.5q0 -46 -15 -66t-58 -20h-514 q1 -77 4 -126t14 -89.5t27.5 -61.5t47 -35.5t68 -19t95.5 -4.5q69 0 134.5 10.5t105 21.5t48.5 11q29 0 29 -68q0 -39 -9.5 -53.5t-39.5 -25.5q-51 -19 -132.5 -31t-152.5 -12zM504 883q-52 0 -84.5 -6t-61 -23t-43.5 -51t-24.5 -87.5t-11.5 -135.5h423q0 43 -0.5 66t-2 56 t-5.5 50t-10.5 40t-16.5 34t-25 24.5t-34.5 19t-45.5 9.5t-58 4z" />
<glyph unicode="&#x436;" horiz-adv-x="1308" d="M117 0q-88 0 -88 33q0 26 24 53l355 440l-330 394q-27 35 -27 57q0 16 18 22.5t66 6.5q52 0 72.5 -7.5t40.5 -33.5l303 -383h18v370q0 34 16.5 44t67.5 10q53 0 69.5 -10t16.5 -44v-370h17l305 383q21 26 41 33.5t72 7.5q46 0 64.5 -7t18.5 -22q0 -25 -28 -57l-328 -394 l354 -440q25 -29 25 -53q0 -33 -90 -33q-48 0 -67 8t-40 35l-327 424h-17v-412q0 -35 -17 -45t-69 -10q-51 0 -67.5 10.5t-16.5 44.5v412h-16l-330 -424q-21 -27 -39 -35t-67 -8z" />
<glyph unicode="&#x437;" horiz-adv-x="894" d="M225 520q0 39 10.5 53.5t40.5 14.5h80q135 0 185.5 32.5t50.5 122.5q0 86 -34.5 108.5t-154.5 22.5q-88 0 -180 -12t-94 -12q-20 0 -28.5 14t-8.5 56q0 41 11.5 55.5t37.5 19.5q135 29 305 29q64 0 110 -5t87.5 -20t66.5 -41.5t39.5 -69t14.5 -102.5q0 -97 -24.5 -153 t-67 -78.5t-117.5 -32.5q66 -9 105.5 -22t70.5 -39.5t44 -70t13 -111.5q0 -92 -21.5 -151t-69 -91t-109 -43.5t-156.5 -11.5q-203 0 -323 32q-31 6 -42.5 22t-11.5 58t7.5 56t27.5 14q3 0 106 -15.5t197 -15.5q98 0 143.5 13t62.5 44.5t17 100.5q0 63 -20.5 96.5t-76.5 49.5 t-163 16h-80q-30 0 -40.5 14t-10.5 53z" />
<glyph unicode="&#x438;" horiz-adv-x="1036" d="M803 1006q56 0 80 -9q26 -13 26 -53v-889q0 -34 -16.5 -44.5t-67.5 -10.5q-53 0 -69.5 10.5t-16.5 44.5v727h-14l-365 -723q-19 -36 -44 -47.5t-85 -11.5q-59 0 -77 10q-27 11 -27 51v891q0 32 16.5 43t67.5 11t67.5 -11t16.5 -43v-721h14l373 727q17 31 39 39.5t82 8.5z " />
<glyph unicode="&#x439;" horiz-adv-x="1036" d="M514 1135q-131 0 -175 42t-44 150q0 35 11.5 44t53.5 9q41 0 53 -8t13 -39q1 -25 3 -36t11 -20.5t26 -12t48 -2.5q32 0 49 2.5t26.5 12t11.5 20.5t3 36q2 31 13 39t53 8q41 0 52 -9t11 -44q0 -73 -16 -112t-64 -59.5t-139 -20.5zM803 1006q56 0 80 -9q26 -13 26 -53v-889 q0 -34 -16.5 -44.5t-67.5 -10.5q-53 0 -69.5 10.5t-16.5 44.5v727h-14l-365 -723q-19 -36 -44 -47.5t-85 -11.5q-59 0 -77 10q-27 11 -27 51v891q0 32 16.5 43t67.5 11t67.5 -11t16.5 -43v-721h14l373 727q17 31 39 39.5t82 8.5z" />
<glyph unicode="&#x43a;" horiz-adv-x="880" d="M211 0q-52 0 -68 10t-16 45v897q0 35 16 44.5t68 9.5t68 -9.5t16 -44.5v-370h18l322 383q22 27 41.5 34t71.5 7q81 0 81 -29q0 -25 -28 -57l-336 -394l362 -440q25 -29 25 -53q0 -33 -86 -33q-49 0 -66.5 7.5t-40.5 35.5l-348 424h-16v-412q0 -35 -16 -45t-68 -10z" />
<glyph unicode="&#x43b;" horiz-adv-x="1036" d="M825 0q-51 0 -67.5 10.5t-16.5 44.5v801h-317l-76 -696q-10 -91 -46.5 -134.5t-127.5 -43.5q-58 0 -113 12q-29 6 -40 22.5t-11 57.5q0 39 7 50t26 11q13 0 38 -3t44 -3q36 0 49.5 17.5t20.5 80.5l79 725q3 33 16 43.5t54 10.5h504q37 0 49 -10.5t12 -41.5v-899 q0 -34 -16.5 -44.5t-67.5 -10.5z" />
<glyph unicode="&#x43c;" horiz-adv-x="1284" d="M211 0q-51 0 -67.5 10.5t-16.5 44.5v889q0 37 23 49.5t104 12.5q73 0 99 -12t44 -60l240 -635h10l240 635q18 48 43.5 60t99.5 12q81 0 104 -12.5t23 -49.5v-889q0 -34 -16.5 -44.5t-67.5 -10.5q-53 0 -69.5 10.5t-16.5 44.5q0 33 4 729h-16l-234 -614q-15 -39 -34 -50 t-66 -11q-46 0 -64.5 11t-33.5 50l-234 614h-16q2 -348 2 -729q0 -34 -16.5 -44.5t-67.5 -10.5z" />
<glyph unicode="&#x43d;" horiz-adv-x="1007" d="M295 596h416v356q0 32 17 43t69 11q51 0 67.5 -11t16.5 -43v-897q0 -34 -16.5 -44.5t-67.5 -10.5q-53 0 -69.5 10.5t-16.5 44.5v391h-416v-391q0 -34 -16.5 -44.5t-67.5 -10.5t-67.5 10.5t-16.5 44.5v897q0 32 16.5 43t67.5 11t67.5 -11t16.5 -43v-356z" />
<glyph unicode="&#x43e;" horiz-adv-x="1017" d="M494 -20q-78 0 -132.5 8t-100.5 30t-73.5 57.5t-47 94t-27 136.5t-7.5 188q0 128 15 218.5t45 152t81.5 96.5t118 50t160.5 15q78 0 132 -8t99.5 -29.5t73 -57t46.5 -94t26.5 -136t7.5 -187.5q0 -159 -22 -261.5t-73.5 -163.5t-127.5 -85t-194 -24zM498 125q52 0 88 6 t64 23t44 42.5t27 69t14.5 97.5t3.5 133q0 89 -2.5 144.5t-11.5 102.5t-23 71.5t-40 41.5t-58.5 22t-83.5 5q-78 0 -123 -14t-72.5 -57.5t-36.5 -111t-9 -186.5q0 -89 2.5 -144.5t11.5 -103t23 -72t40 -42t58.5 -22.5t83.5 -5z" />
<glyph unicode="&#x43f;" horiz-adv-x="1007" d="M211 0q-51 0 -67.5 10.5t-16.5 44.5v899q0 31 12 41.5t49 10.5h629q38 0 51 -10.5t13 -41.5v-899q0 -34 -16.5 -44.5t-67.5 -10.5q-53 0 -69.5 10.5t-16.5 44.5v803h-416v-803q0 -34 -16.5 -44.5t-67.5 -10.5z" />
<glyph unicode="&#x440;" horiz-adv-x="1075" d="M236 -387q-52 0 -69 10t-17 45v969q0 86 -11.5 160.5t-23 117.5t-11.5 52q0 21 15 30t63 9q46 0 61.5 -7.5t22.5 -37.5l27 -111q79 176 332 176q88 0 145.5 -15.5t98 -49t61.5 -97t30 -147t9 -211.5q0 -133 -15 -225.5t-43 -151.5t-76.5 -92t-105.5 -45t-141 -12 q-100 0 -166.5 25t-102.5 85v-422q0 -35 -16 -45t-67 -10zM557 125q62 0 99.5 8.5t67.5 31t44.5 68t21.5 111.5t7 170q0 81 -3 134.5t-12.5 97t-23.5 68.5t-38.5 41.5t-56 22t-77.5 5.5q-71 0 -118 -13t-82.5 -48.5t-52 -100.5t-16.5 -166v-127q0 -89 9.5 -143t36 -92 t73 -53t121.5 -15z" />
<glyph unicode="&#x441;" horiz-adv-x="876" d="M498 -20q-74 0 -124 6.5t-97.5 26t-77 54.5t-52 92t-32 139.5t-9.5 195.5q0 80 6 146.5t16.5 117.5t27.5 90.5t36.5 67.5t47 48t54 32t63 19t69 9t76.5 2q128 0 250 -35q30 -9 40.5 -25t10.5 -55t-7.5 -53t-23.5 -14q-4 0 -98.5 18.5t-157.5 18.5q-49 0 -80 -4t-60 -18 t-45.5 -38.5t-29 -66t-17.5 -101t-5 -143.5q0 -67 1.5 -112t6 -87.5t11.5 -68t20.5 -48t30 -34t42.5 -20t56 -11t73 -2.5q83 0 168 21.5t86 21.5q29 0 29 -68q0 -39 -9.5 -53.5t-39.5 -25.5q-51 -19 -124 -31t-132 -12z" />
<glyph unicode="&#x442;" horiz-adv-x="825" d="M414 0q-53 0 -69.5 10.5t-16.5 44.5v797h-240q-30 0 -41.5 16t-11.5 62t11.5 61t41.5 15h651q30 0 41 -15t11 -61t-11 -62t-41 -16h-241v-797q0 -34 -16.5 -44.5t-67.5 -10.5z" />
<glyph unicode="&#x443;" horiz-adv-x="929" d="M51 961q0 24 16 34.5t70 10.5q51 0 68 -7t24 -34l228 -818h16l227 818q7 27 24.5 34t66.5 7q54 0 72 -10t18 -33q0 -31 -23 -103l-297 -954q-23 -73 -39.5 -115.5t-39.5 -83t-50.5 -60t-66.5 -31t-93 -11.5q-102 0 -166 22q-27 8 -38 22.5t-11 49.5q0 41 7 54.5t28 13.5 q3 0 55 -7.5t107 -7.5q68 0 95.5 24.5t49.5 102.5l33 121q-55 1 -80 23t-41 75l-229 731q-31 100 -31 132z" />
<glyph unicode="&#x444;" horiz-adv-x="1640" d="M432 -20q-88 0 -145.5 16t-97 49.5t-60 97.5t-29 147t-8.5 212q0 132 14.5 224t42 151t75.5 92t104.5 45t140.5 12q101 0 164.5 -28.5t95.5 -100.5v385q0 35 16 45t68 10t68 -10t16 -45v-399q36 82 108 112.5t189 30.5q88 0 145.5 -16t97 -49t60 -97t29 -146.5 t8.5 -211.5q0 -133 -14.5 -225.5t-42 -151.5t-75.5 -92t-104.5 -45t-140.5 -12q-199 0 -260 133v-445q0 -35 -16 -45t-68 -10t-68 10t-16 45v457q-74 -145 -297 -145zM1124 125q62 0 100 9t67.5 31t43.5 67.5t20.5 111t6.5 170.5q0 97 -5 157t-17 105t-37 66.5t-59.5 31 t-90.5 9.5q-103 0 -156 -24t-77.5 -89t-24.5 -192v-158q0 -90 7.5 -141t32.5 -89t69.5 -51.5t119.5 -13.5zM473 125q150 0 204 65t54 232v156q0 91 -7.5 143.5t-32 92t-69.5 54.5t-120 15q-78 0 -120.5 -13t-71 -57t-37.5 -117t-9 -204q0 -97 5 -156.5t17 -104.5t37 -66 t59.5 -30.5t90.5 -9.5z" />
<glyph unicode="&#x445;" horiz-adv-x="901" d="M135 0q-84 0 -84 39q0 11 21 49l280 434l-254 387q-24 39 -24 56q0 23 20 32t72 9t70 -6.5t30 -32.5l183 -303h8l180 303q12 26 29 32.5t69 6.5q54 0 73 -9t19 -32q0 -18 -22 -54l-258 -383l282 -438q23 -41 23 -49q0 -41 -84 -41q-55 0 -76.5 9t-36.5 40l-200 344h-9 l-200 -344q-13 -30 -36 -39.5t-75 -9.5z" />
<glyph unicode="&#x446;" horiz-adv-x="1001" d="M891 -223q-42 0 -56 7.5t-18 33.5l-29 182h-600q-37 0 -49 10t-12 41v901q0 32 16.5 43t67.5 11t67.5 -11t16.5 -43v-798h377v798q0 32 16.5 43t67.5 11t67.5 -11t16.5 -43v-798h51q37 0 50 -12t13 -50v-274q0 -27 -12 -34t-51 -7z" />
<glyph unicode="&#x447;" horiz-adv-x="927" d="M401 350q-91 0 -146.5 11t-97.5 44t-59.5 93.5t-17.5 158.5v295q0 32 16.5 43t67.5 11q52 0 69 -11t17 -43v-270q0 -62 7 -96.5t30 -54t54.5 -24.5t90.5 -5q88 0 201 10v440q0 32 16.5 43t67.5 11t67.5 -11t16.5 -43v-897q0 -34 -16.5 -44.5t-67.5 -10.5t-67.5 10.5 t-16.5 44.5v316q-119 -21 -232 -21z" />
<glyph unicode="&#x448;" horiz-adv-x="1484" d="M1358 952v-901q0 -31 -12 -41t-50 -10h-1108q-37 0 -49 10t-12 41v901q0 32 16.5 43t67.5 11t67.5 -11t16.5 -43v-798h362v798q0 32 17 43t69 11q51 0 67.5 -11t16.5 -43v-798h363v798q0 32 16.5 43t67.5 11t67.5 -11t16.5 -43z" />
<glyph unicode="&#x449;" horiz-adv-x="1519" d="M1409 -223q-42 0 -56 7.5t-18 33.5l-28 182h-1119q-37 0 -49 10t-12 41v901q0 32 16.5 43t67.5 11t67.5 -11t16.5 -43v-798h362v798q0 32 17 43t69 11q51 0 67.5 -11t16.5 -43v-798h363v798q0 32 16.5 43t67.5 11t67.5 -11t16.5 -43v-798h51q37 0 50.5 -12t13.5 -50v-274 q0 -27 -12.5 -34t-51.5 -7z" />
<glyph unicode="&#x44a;" horiz-adv-x="1013" d="M178 852h-106q-30 0 -41 16t-11 62t11 61t41 15h190q53 0 69.5 -10t16.5 -44v-344h219q87 0 144.5 -6.5t105 -24.5t73.5 -51t40 -84.5t14 -126.5q0 -85 -15.5 -143.5t-44 -96t-79 -58t-110.5 -28t-148 -7.5q-148 0 -301 18q-42 4 -55 17t-13 46v789zM588 465h-240v-326 q85 -10 207 -10q58 0 93.5 4.5t62 14.5t38.5 31.5t17.5 51t5.5 78.5q0 94 -35 125t-149 31z" />
<glyph unicode="&#x44b;" horiz-adv-x="1376" d="M1165 0q-52 0 -68 10t-16 45v897q0 35 16 44.5t68 9.5q51 0 67.5 -10t16.5 -44v-897q0 -34 -16.5 -44.5t-67.5 -10.5zM494 -18q-146 0 -299 18q-42 4 -55 17t-13 46v889q0 35 16 44.5t68 9.5t68 -9.5t16 -44.5v-344h221q87 0 144.5 -6.5t105 -24.5t73.5 -51t40 -84.5 t14 -126.5q0 -85 -15.5 -143.5t-44 -96t-79.5 -58t-111 -28t-149 -7.5zM535 465h-240v-326q85 -10 207 -10q59 0 94.5 4.5t62.5 14.5t39 31.5t17.5 51t5.5 78.5q0 94 -35.5 125t-150.5 31z" />
<glyph unicode="&#x44c;" horiz-adv-x="962" d="M494 -18q-146 0 -299 18q-42 4 -55 17t-13 46v889q0 35 16 44.5t68 9.5t68 -9.5t16 -44.5v-344h221q87 0 144.5 -6.5t105 -24.5t73.5 -51t40 -84.5t14 -126.5q0 -85 -15.5 -143.5t-44 -96t-79.5 -58t-111 -28t-149 -7.5zM535 465h-240v-326q85 -10 207 -10q59 0 94.5 4.5 t62.5 14.5t39 31.5t17.5 51t5.5 78.5q0 94 -35.5 125t-150.5 31z" />
<glyph unicode="&#x44d;" horiz-adv-x="892" d="M375 -20q-61 0 -138.5 12.5t-127.5 30.5q-30 11 -40 25.5t-10 53.5q0 68 29 68q4 0 95.5 -21.5t176.5 -21.5q59 0 97.5 4.5t70 18t48.5 34.5t29 59.5t16.5 86.5t5.5 121h-361q-32 0 -42.5 13t-10.5 54t10.5 54.5t42.5 13.5h361q-2 69 -6 114t-15 79.5t-25.5 53t-41.5 30 t-58 15t-80 3.5q-87 0 -193.5 -16.5t-107.5 -16.5q-16 0 -23 14t-7 53q0 41 9.5 55.5t39.5 22.5q132 33 287 33q58 0 98 -3t81.5 -12t68 -25t52 -43.5t40 -66t26.5 -94t16.5 -126t4.5 -162.5q0 -85 -5.5 -152t-18.5 -119.5t-30 -90.5t-44.5 -65t-57.5 -44t-72.5 -26.5 t-86.5 -13t-103 -3.5z" />
<glyph unicode="&#x44e;" horiz-adv-x="1411" d="M885 -20q-75 0 -128 7.5t-98 27.5t-73 53t-48.5 86.5t-29 125t-10.5 171.5h-203v-396q0 -35 -16 -45t-68 -10t-68 10t-16 45v897q0 35 16 44.5t68 9.5t68 -9.5t16 -44.5v-356h205q7 127 33 210t78.5 132t125 68.5t181.5 19.5q79 0 133 -8t100 -29.5t73 -57t46.5 -94 t27 -136t7.5 -187.5q0 -128 -15 -218t-45 -152t-81.5 -98t-118 -51t-160.5 -15zM889 125q79 0 124.5 14.5t73.5 58.5t37 111.5t9 186.5q0 88 -3 144.5t-12 103t-23 71t-40.5 41.5t-59.5 22t-84 5q-63 0 -102.5 -10t-68 -32t-42.5 -67t-20 -104.5t-6 -155.5q0 -89 2.5 -144.5 t11 -103t22 -72t39.5 -42t58.5 -22.5t83.5 -5z" />
<glyph unicode="&#x44f;" horiz-adv-x="1003" d="M160 0q-44 0 -60 8t-16 25q0 19 20 55l191 336q-100 22 -142 85t-42 193q0 101 21.5 164t73.5 98t122 47.5t182 12.5q146 0 299 -18q42 -4 55 -17.5t13 -46.5v-887q0 -35 -16 -45t-68 -10t-68 10t-16 45v353h-258l-183 -365q-14 -28 -32.5 -35.5t-75.5 -7.5zM283 694 q0 -91 35.5 -120t150.5 -29h240v319q-85 10 -207 10q-138 0 -178.5 -33t-40.5 -147z" />
<glyph unicode="&#x451;" horiz-adv-x="958" d="M518 -20q-79 0 -132.5 6.5t-103.5 26t-80.5 54.5t-53.5 92.5t-32.5 139t-9.5 195.5q0 80 6 146.5t16 117.5t27.5 90.5t37 67.5t47 48t54.5 32t64 19t71 9t79 2q69 0 122 -10t91 -27.5t64 -49.5t42 -66.5t24.5 -88.5t11.5 -106.5t3 -128.5q0 -46 -15 -66t-58 -20h-514 q1 -77 4 -126t14 -89.5t27.5 -61.5t47 -35.5t68 -19t95.5 -4.5q69 0 134.5 10.5t105 21.5t48.5 11q29 0 29 -68q0 -39 -9.5 -53.5t-39.5 -25.5q-51 -19 -132.5 -31t-152.5 -12zM504 883q-52 0 -84.5 -6t-61 -23t-43.5 -51t-24.5 -87.5t-11.5 -135.5h423q0 43 -0.5 66t-2 56 t-5.5 50t-10.5 40t-16.5 34t-25 24.5t-34.5 19t-45.5 9.5t-58 4zM328 1165q-57 0 -73.5 12t-16.5 52v43q0 40 17 52.5t73 12.5t73 -12.5t17 -52.5v-43q0 -40 -16.5 -52t-73.5 -12zM629 1165q-58 0 -75 12t-17 52v43q0 40 17 52.5t75 12.5q56 0 73 -12.5t17 -52.5v-43 q0 -40 -16.5 -52t-73.5 -12z" />
<glyph unicode="&#x452;" horiz-adv-x="1024" d="M215 0q-52 0 -69 10t-17 45v1035h-68q-30 0 -39.5 11t-9.5 46q0 36 9.5 47.5t39.5 11.5h68v76q0 35 17 45t69 10q51 0 67.5 -10.5t16.5 -44.5v-76h254q30 0 39.5 -11.5t9.5 -47.5q0 -35 -9.5 -46t-39.5 -11h-254v-263q40 79 117 115.5t202 36.5q83 0 138 -16.5t86 -52.5 t43 -83.5t12 -117.5v-850q0 -135 -50 -194.5t-165 -59.5q-71 0 -141 20q-30 8 -42 22t-12 50q0 41 8 53t27 12q8 0 48 -5t69 -5q57 0 72.5 24t15.5 118v778q0 92 -33 125.5t-133 33.5q-144 0 -203 -80t-59 -266v-430q0 -34 -16.5 -44.5t-67.5 -10.5z" />
<glyph unicode="&#x453;" horiz-adv-x="698" d="M324 1104q-72 0 -72 33q0 13 20 53l97 184q11 23 17.5 31.5t27 15t59.5 6.5q96 0 96 -32q0 -18 -28 -64l-117 -180q-12 -19 -19.5 -27t-27 -14t-53.5 -6zM211 0q-51 0 -67.5 10.5t-16.5 44.5v899q0 31 12 41.5t49 10.5h437q30 0 41.5 -15t11.5 -61t-11.5 -62t-41.5 -16 h-330v-797q0 -34 -16.5 -44.5t-67.5 -10.5z" />
<glyph unicode="&#x454;" horiz-adv-x="899" d="M524 -20q-59 0 -103 3.5t-86.5 13t-72.5 26.5t-57.5 44t-44.5 65t-30 90.5t-18.5 119.5t-5.5 152q0 92 4.5 163t16.5 126t26.5 93.5t40.5 66t52 43.5t67.5 25t81 12t97.5 3q156 0 288 -33q30 -8 39.5 -22.5t9.5 -55.5q0 -39 -7 -53t-23 -14q-1 0 -108 16.5t-195 16.5 q-49 0 -79.5 -3.5t-57.5 -15t-41.5 -30t-25.5 -53t-15 -80t-5 -113.5h361q32 0 42.5 -13.5t10.5 -54.5t-10.5 -54t-42.5 -13h-361q1 -74 5 -121.5t16 -86t29 -59.5t49 -35t70 -18t98 -4q85 0 176.5 21.5t95.5 21.5q29 0 29 -68q0 -39 -9.5 -53.5t-39.5 -25.5 q-50 -18 -128 -30.5t-139 -12.5z" />
<glyph unicode="&#x455;" horiz-adv-x="878" d="M408 -20q-154 0 -267 36q-29 9 -39 24.5t-10 53.5q0 70 27 70q3 0 98 -18.5t176 -18.5q121 0 172 39t51 123q0 46 -17.5 70t-59.5 42l-277 117q-143 61 -143 242q0 266 319 266q138 0 275 -35q30 -8 39.5 -23.5t9.5 -58.5q0 -28 -5.5 -43.5t-11.5 -18.5t-16 -3 q-1 0 -97 19.5t-171 19.5q-97 0 -133.5 -28.5t-36.5 -94.5q0 -49 16 -75t62 -46l268 -111q82 -33 115.5 -86.5t33.5 -144.5q0 -317 -378 -317z" />
<glyph unicode="&#x456;" horiz-adv-x="425" d="M209 0q-52 0 -68 10t-16 45v897q0 35 16 44.5t68 9.5q51 0 67.5 -10t16.5 -44v-897q0 -34 -16.5 -44.5t-67.5 -10.5zM209 1165q-61 0 -77.5 12t-16.5 52v43q0 41 17 53t77 12q59 0 76.5 -12.5t17.5 -52.5v-43q0 -40 -17 -52t-77 -12z" />
<glyph unicode="&#x457;" horiz-adv-x="425" d="M63 1165q-57 0 -73.5 12t-16.5 52v43q0 40 17 52.5t73 12.5q57 0 74 -12.5t17 -52.5v-43q0 -40 -17 -52t-74 -12zM365 1165q-58 0 -75.5 12t-17.5 52v43q0 40 17.5 52.5t75.5 12.5q56 0 73 -12.5t17 -52.5v-43q0 -40 -16.5 -52t-73.5 -12zM209 0q-52 0 -68 10t-16 45v897 q0 35 16 44.5t68 9.5q51 0 67.5 -10t16.5 -44v-897q0 -34 -16.5 -44.5t-67.5 -10.5z" />
<glyph unicode="&#x458;" horiz-adv-x="425" d="M209 1006q51 0 67.5 -10t16.5 -44v-1093q0 -135 -50 -194.5t-165 -59.5q-69 0 -139 20q-31 8 -42.5 22t-11.5 50q0 42 7 53.5t26 11.5q8 0 48 -5t69 -5q57 0 73.5 24.5t16.5 117.5v1058q0 35 16 44.5t68 9.5zM209 1165q-61 0 -77.5 12t-16.5 52v43q0 41 17 53t77 12 q59 0 76.5 -12.5t17.5 -52.5v-43q0 -40 -17 -52t-77 -12z" />
</font>
</defs>
</svg>
