<svg width="108" height="108" viewBox="0 0 108 108" fill="none" xmlns="http://www.w3.org/2000/svg"><g filter="url(#filter0_d)"><path d="M33.348 93.255A47.312 47.312 0 0054 97.97a47.312 47.312 0 0020.653-4.713l4.13-42.787-4.13-42.787A47.312 47.312 0 0054 2.969a47.312 47.312 0 00-20.652 4.713l-4.13 42.787 4.13 42.786z" fill="#FFDA44"/><path d="M74.652 93.254C90.541 85.57 101.5 69.3 101.5 50.469c0-18.832-10.96-35.103-26.848-42.785v85.57z" fill="#D80027"/><path d="M33.348 93.254V7.684C17.459 15.366 6.5 31.637 6.5 50.469 6.5 69.3 17.46 85.57 33.348 93.254z" fill="#0052B4"/><path d="M53.999 66.99V50.467H66.39v6.195c0 1.077-2.065 5.02-7.162 8.261-1.93 1.228-3.93 1.623-5.229 2.065z" fill="#D80027"/><path d="M54 38.077H41.608V50.47H54V38.076z" fill="#D80027"/><path d="M60.196 33.947a4.13 4.13 0 00-4.13-4.13c-.754 0-1.458.204-2.066.556a4.106 4.106 0 00-2.065-.557 4.13 4.13 0 00-4.13 4.13H37.478V54.6c0 7.688 6.106 12.134 10.894 14.44a4.108 4.108 0 00-.567 2.082 4.13 4.13 0 004.13 4.13c.753 0 1.457-.205 2.065-.557a4.106 4.106 0 002.065.557 4.13 4.13 0 004.13-4.13c0-.76-.209-1.47-.567-2.083 4.788-2.305 10.894-6.75 10.894-14.44V33.948H60.196zm4.13 20.652c0 1.076 0 4.351-5.097 7.592-1.93 1.228-3.93 2.024-5.229 2.466-1.3-.442-3.298-1.238-5.228-2.466-5.098-3.24-5.098-6.516-5.098-7.592V40.143h20.652v14.456z" fill="#FF9811"/></g><defs><filter id="filter0_d" x=".5" y=".969" width="107" height="107" filterUnits="userSpaceOnUse" color-interpolation-filters="sRGB"><feFlood flood-opacity="0" result="BackgroundImageFix"/><feColorMatrix in="SourceAlpha" values="0 0 0 0 0 0 0 0 0 0 0 0 0 0 0 0 0 0 127 0"/><feOffset dy="4"/><feGaussianBlur stdDeviation="3"/><feColorMatrix values="0 0 0 0 0 0 0 0 0 0.392157 0 0 0 0 0.694118 0 0 0 0.3 0"/><feBlend in2="BackgroundImageFix" result="effect1_dropShadow"/><feBlend in="SourceGraphic" in2="effect1_dropShadow" result="shape"/></filter></defs></svg>