<svg width="115" height="116" viewBox="0 0 115 116" fill="none" xmlns="http://www.w3.org/2000/svg"><g filter="url(#filter0_d)"><path d="M105 51.5c0-5.81-1.045-11.376-2.954-16.522L57.5 32.913l-44.546 2.065A47.399 47.399 0 0010 51.5c0 5.81 1.045 11.376 2.954 16.522L57.5 70.087l44.546-2.065A47.405 47.405 0 00105 51.5z" fill="#0052B4"/><path d="M57.497 99c20.423 0 37.834-12.89 44.545-30.978h-89.09C19.661 86.11 37.072 99 57.496 99z" fill="#FF9811"/><path d="M12.951 34.978h89.091C95.331 16.89 77.92 4 57.497 4 37.073 4 19.663 16.89 12.95 34.978z" fill="#D80027"/></g><defs><filter id="filter0_d" x=".161" y=".72" width="114.678" height="114.678" filterUnits="userSpaceOnUse" color-interpolation-filters="sRGB"><feFlood flood-opacity="0" result="BackgroundImageFix"/><feColorMatrix in="SourceAlpha" values="0 0 0 0 0 0 0 0 0 0 0 0 0 0 0 0 0 0 127 0"/><feOffset dy="6.559"/><feGaussianBlur stdDeviation="4.919"/><feColorMatrix values="0 0 0 0 0 0 0 0 0 0.392157 0 0 0 0 0.694118 0 0 0 0.3 0"/><feBlend in2="BackgroundImageFix" result="effect1_dropShadow"/><feBlend in="SourceGraphic" in2="effect1_dropShadow" result="shape"/></filter></defs></svg>