<svg width="115" height="116" viewBox="0 0 115 116" fill="none" xmlns="http://www.w3.org/2000/svg"><g filter="url(#filter0_d)"><path d="M105 51.5a46.747 46.747 0 00-2.954-16.4L57.5 33.05 12.954 35.1A46.742 46.742 0 0010 51.5a46.74 46.74 0 002.954 16.4L57.5 69.95l44.546-2.05A46.75 46.75 0 00105 51.5z" fill="#D80027"/><path d="M57.5 99c20.338 0 37.676-12.741 44.36-30.62H13.14C19.825 86.26 37.163 99 57.5 99z" fill="#6DA544"/><path d="M13.14 34.62h88.72C95.176 16.74 77.838 4 57.5 4S19.824 16.741 13.14 34.62z" fill="#338AF3"/><path d="M58.532 64.924c-7.413 0-13.424-6.01-13.424-13.424s6.01-13.424 13.424-13.424c2.312 0 4.487.585 6.386 1.614a16.465 16.465 0 00-11.549-4.712c-9.124 0-16.521 7.397-16.521 16.522 0 9.124 7.397 16.522 16.521 16.522 4.496 0 8.57-1.799 11.549-4.712a13.358 13.358 0 01-6.386 1.614z" fill="#F0F0F0"/><path d="M68.858 42.207l1.778 5 4.794-2.279-2.28 4.794 5.001 1.778-5 1.778 2.279 4.794-4.794-2.28-1.778 5.002-1.778-5.001-4.794 2.279 2.28-4.794-5.002-1.778 5.001-1.778-2.279-4.794 4.794 2.28 1.778-5.001z" fill="#F0F0F0"/></g><defs><filter id="filter0_d" x=".161" y=".72" width="114.678" height="114.678" filterUnits="userSpaceOnUse" color-interpolation-filters="sRGB"><feFlood flood-opacity="0" result="BackgroundImageFix"/><feColorMatrix in="SourceAlpha" values="0 0 0 0 0 0 0 0 0 0 0 0 0 0 0 0 0 0 127 0"/><feOffset dy="6.559"/><feGaussianBlur stdDeviation="4.919"/><feColorMatrix values="0 0 0 0 0 0 0 0 0 0.392157 0 0 0 0 0.694118 0 0 0 0.3 0"/><feBlend in2="BackgroundImageFix" result="effect1_dropShadow"/><feBlend in="SourceGraphic" in2="effect1_dropShadow" result="shape"/></filter></defs></svg>