<svg width="115" height="116" viewBox="0 0 115 116" fill="none" xmlns="http://www.w3.org/2000/svg"><g filter="url(#filter0_d)"><path d="M57.5 99C83.734 99 105 77.734 105 51.5 105 25.267 83.734 4 57.5 4 31.267 4 10 25.267 10 51.5 10 77.734 31.267 99 57.5 99z" fill="#FCFCFC"/><path d="M29.618 48.058l-5.163-9.367 5.163-9.22 5.163 9.22-5.163 9.367z" fill="#A2001D"/><path d="M19.296 48.058l-5.163-9.367 5.163-9.22 5.163 9.22-5.163 9.367zm10.322 25.471l-5.163-9.367 5.163-9.22 5.163 9.22-5.163 9.367z" fill="#A2001D"/><path d="M19.296 73.529l-5.163-9.367 5.163-9.22 5.163 9.22-5.163 9.367zM34.785 13.22l-1.462-2.61a47.626 47.626 0 00-7.346 5.364l3.645 6.613 5.163-9.367zM29.62 80.413l-3.684 6.579a47.627 47.627 0 007.341 5.372l1.506-2.73-5.164-9.221z" fill="#A2001D"/><path d="M38.914 63.891v31.332A47.344 47.344 0 0057.501 99c20.423 0 37.834-12.89 44.546-30.978l-63.133-4.13z" fill="#6DA544"/><path d="M102.047 68.022a47.404 47.404 0 002.954-16.522c0-26.233-21.267-47.5-47.5-47.5a47.351 47.351 0 00-18.587 3.776v60.246h63.133z" fill="#A2001D"/></g><defs><filter id="filter0_d" x=".161" y=".72" width="114.679" height="114.678" filterUnits="userSpaceOnUse" color-interpolation-filters="sRGB"><feFlood flood-opacity="0" result="BackgroundImageFix"/><feColorMatrix in="SourceAlpha" values="0 0 0 0 0 0 0 0 0 0 0 0 0 0 0 0 0 0 127 0"/><feOffset dy="6.559"/><feGaussianBlur stdDeviation="4.919"/><feColorMatrix values="0 0 0 0 0 0 0 0 0 0.392157 0 0 0 0 0.694118 0 0 0 0.3 0"/><feBlend in2="BackgroundImageFix" result="effect1_dropShadow"/><feBlend in="SourceGraphic" in2="effect1_dropShadow" result="shape"/></filter></defs></svg>