<svg width="107" height="108" viewBox="0 0 107 108" fill="none" xmlns="http://www.w3.org/2000/svg"><g filter="url(#filter0_d)"><path d="M70.021 5.251A47.398 47.398 0 0053.5 2.297 47.398 47.398 0 0036.978 5.25l-4.13 44.546 4.13 44.545A47.393 47.393 0 0053.5 97.297c5.81 0 11.376-1.045 16.521-2.955l4.13-44.545-4.13-44.546z" fill="#FFDA44"/><path d="M101 49.797c0-20.423-12.89-37.834-30.978-44.545v89.091C88.109 87.631 101 70.221 101 49.797z" fill="#D80027"/><path d="M6 49.797c0 20.424 12.89 37.834 30.978 44.546V5.252C18.89 11.963 6 29.374 6 49.797z" fill="#000"/></g><defs><filter id="filter0_d" x="0" y=".297" width="107" height="107" filterUnits="userSpaceOnUse" color-interpolation-filters="sRGB"><feFlood flood-opacity="0" result="BackgroundImageFix"/><feColorMatrix in="SourceAlpha" values="0 0 0 0 0 0 0 0 0 0 0 0 0 0 0 0 0 0 127 0"/><feOffset dy="4"/><feGaussianBlur stdDeviation="3"/><feColorMatrix values="0 0 0 0 0 0 0 0 0 0.392157 0 0 0 0 0.694118 0 0 0 0.3 0"/><feBlend in2="BackgroundImageFix" result="effect1_dropShadow"/><feBlend in="SourceGraphic" in2="effect1_dropShadow" result="shape"/></filter></defs></svg>