<svg width="107" height="108" viewBox="0 0 107 108" fill="none" xmlns="http://www.w3.org/2000/svg"><g filter="url(#filter0_d)"><path d="M53.5 97.144c26.234 0 47.5-21.266 47.5-47.5 0-26.233-21.266-47.5-47.5-47.5-26.233 0-47.5 21.267-47.5 47.5 0 26.234 21.267 47.5 47.5 47.5z" fill="#F0F0F0"/><path d="M43.174 43.449h57.424C97.562 20.143 77.633 2.145 53.5 2.145c-3.547 0-7.001.392-10.326 1.129v40.175zm-12.391 0V7.919C17.74 15.037 8.403 28.09 6.403 43.45h24.38zm0 12.391H6.403c2 15.359 11.337 28.412 24.38 35.528V55.84zm12.391 0v40.175a47.667 47.667 0 0010.326 1.13c24.133 0 44.062-18 47.098-41.305H43.174z" fill="#D80027"/></g><defs><filter id="filter0_d" x="0" y=".145" width="107" height="107" filterUnits="userSpaceOnUse" color-interpolation-filters="sRGB"><feFlood flood-opacity="0" result="BackgroundImageFix"/><feColorMatrix in="SourceAlpha" values="0 0 0 0 0 0 0 0 0 0 0 0 0 0 0 0 0 0 127 0"/><feOffset dy="4"/><feGaussianBlur stdDeviation="3"/><feColorMatrix values="0 0 0 0 0 0 0 0 0 0.392157 0 0 0 0 0.694118 0 0 0 0.3 0"/><feBlend in2="BackgroundImageFix" result="effect1_dropShadow"/><feBlend in="SourceGraphic" in2="effect1_dropShadow" result="shape"/></filter></defs></svg>