<svg width="107" height="107" viewBox="0 0 107 107" fill="none" xmlns="http://www.w3.org/2000/svg"><g filter="url(#filter0_d)"><path d="M6 49.5c0 5.81 1.045 11.376 2.954 16.522L53.5 68.087l44.545-2.065A47.394 47.394 0 00101 49.5c0-5.81-1.045-11.376-2.955-16.522L53.5 30.913 8.954 32.978A47.4 47.4 0 006 49.5z" fill="#000"/><path d="M53.499 2C33.075 2 15.664 14.89 8.953 32.978h89.091C91.333 14.89 73.922 2 53.5 2z" fill="#0052B4"/><path d="M98.044 66.022H8.954C15.663 84.11 33.074 97 53.498 97c20.423 0 37.834-12.89 44.545-30.978z" fill="#F0F0F0"/></g><defs><filter id="filter0_d" x="0" y="0" width="107" height="107" filterUnits="userSpaceOnUse" color-interpolation-filters="sRGB"><feFlood flood-opacity="0" result="BackgroundImageFix"/><feColorMatrix in="SourceAlpha" values="0 0 0 0 0 0 0 0 0 0 0 0 0 0 0 0 0 0 127 0"/><feOffset dy="4"/><feGaussianBlur stdDeviation="3"/><feColorMatrix values="0 0 0 0 0 0 0 0 0 0.392157 0 0 0 0 0.694118 0 0 0 0.3 0"/><feBlend in2="BackgroundImageFix" result="effect1_dropShadow"/><feBlend in="SourceGraphic" in2="effect1_dropShadow" result="shape"/></filter></defs></svg>