<svg width="108" height="108" viewBox="0 0 108 108" fill="none" xmlns="http://www.w3.org/2000/svg"><g filter="url(#filter0_d)"><path d="M54 97.826c26.234 0 47.5-21.266 47.5-47.5 0-26.233-21.266-47.5-47.5-47.5-26.233 0-47.5 21.267-47.5 47.5 0 26.234 21.267 47.5 47.5 47.5z" fill="#F0F0F0"/><path d="M101.098 44.13H43.674V3.955a47.176 47.176 0 00-12.391 4.647V44.13H6.903a47.91 47.91 0 000 12.392h24.38V92.05a47.176 47.176 0 0012.39 4.647V56.522h57.425a47.98 47.98 0 000-12.392z" fill="#0052B4"/></g><defs><filter id="filter0_d" x=".5" y=".826" width="107" height="107" filterUnits="userSpaceOnUse" color-interpolation-filters="sRGB"><feFlood flood-opacity="0" result="BackgroundImageFix"/><feColorMatrix in="SourceAlpha" values="0 0 0 0 0 0 0 0 0 0 0 0 0 0 0 0 0 0 127 0"/><feOffset dy="4"/><feGaussianBlur stdDeviation="3"/><feColorMatrix values="0 0 0 0 0 0 0 0 0 0.392157 0 0 0 0 0.694118 0 0 0 0.3 0"/><feBlend in2="BackgroundImageFix" result="effect1_dropShadow"/><feBlend in="SourceGraphic" in2="effect1_dropShadow" result="shape"/></filter></defs></svg>