<svg width="108" height="108" viewBox="0 0 108 108" fill="none" xmlns="http://www.w3.org/2000/svg"><g filter="url(#filter0_d)"><path d="M53.676 97.297c26.233 0 47.5-21.267 47.5-47.5 0-26.234-21.267-47.5-47.5-47.5-26.234 0-47.5 21.266-47.5 47.5 0 26.233 21.266 47.5 47.5 47.5z" fill="#F0F0F0"/><path d="M101.176 49.797c0-20.423-12.89-37.834-30.979-44.545v89.091c18.088-6.711 30.979-24.122 30.979-44.546z" fill="#D80027"/><path d="M6.176 49.797c0 20.424 12.89 37.835 30.978 44.546V5.252C19.066 11.963 6.176 29.374 6.176 49.797z" fill="#0052B4"/></g><defs><filter id="filter0_d" x=".176" y=".297" width="107" height="107" filterUnits="userSpaceOnUse" color-interpolation-filters="sRGB"><feFlood flood-opacity="0" result="BackgroundImageFix"/><feColorMatrix in="SourceAlpha" values="0 0 0 0 0 0 0 0 0 0 0 0 0 0 0 0 0 0 127 0"/><feOffset dy="4"/><feGaussianBlur stdDeviation="3"/><feColorMatrix values="0 0 0 0 0 0 0 0 0 0.392157 0 0 0 0 0.694118 0 0 0 0.3 0"/><feBlend in2="BackgroundImageFix" result="effect1_dropShadow"/><feBlend in="SourceGraphic" in2="effect1_dropShadow" result="shape"/></filter></defs></svg>