<svg width="115" height="116" viewBox="0 0 115 116" fill="none" xmlns="http://www.w3.org/2000/svg"><g filter="url(#filter0_d)"><path d="M57.5 99C83.734 99 105 77.734 105 51.5 105 25.267 83.734 4 57.5 4 31.267 4 10 25.267 10 51.5 10 77.734 31.267 99 57.5 99z" fill="#F0F0F0"/><path d="M104.598 45.304H63.696V4.402a47.975 47.975 0 00-12.392 0v40.902H10.402a47.963 47.963 0 000 12.392h40.902v40.902a47.963 47.963 0 0012.392 0V57.696h40.902a47.976 47.976 0 000-12.392z" fill="#D80027"/><path d="M38.915 26.717v-6.195h-6.196v6.195h-6.196v6.196h6.196v6.196h6.196v-6.196h6.195v-6.196h-6.195zm43.369 0v-6.195h-6.196v6.195h-6.195v6.196h6.195v6.196h6.196v-6.196h6.196v-6.196h-6.196zm-43.369 43.37v-6.196h-6.196v6.196h-6.196v6.196h6.196v6.195h6.196v-6.195h6.195v-6.196h-6.195zm43.369 0v-6.196h-6.196v6.196h-6.195v6.196h6.195v6.195h6.196v-6.195h6.196v-6.196h-6.196z" fill="#D80027"/></g><defs><filter id="filter0_d" x=".161" y=".72" width="114.678" height="114.678" filterUnits="userSpaceOnUse" color-interpolation-filters="sRGB"><feFlood flood-opacity="0" result="BackgroundImageFix"/><feColorMatrix in="SourceAlpha" values="0 0 0 0 0 0 0 0 0 0 0 0 0 0 0 0 0 0 127 0"/><feOffset dy="6.559"/><feGaussianBlur stdDeviation="4.919"/><feColorMatrix values="0 0 0 0 0 0 0 0 0 0.392157 0 0 0 0 0.694118 0 0 0 0.3 0"/><feBlend in2="BackgroundImageFix" result="effect1_dropShadow"/><feBlend in="SourceGraphic" in2="effect1_dropShadow" result="shape"/></filter></defs></svg>