<svg width="107" height="108" viewBox="0 0 107 108" fill="none" xmlns="http://www.w3.org/2000/svg"><g filter="url(#filter0_d)"><path d="M53.5 97.234c26.234 0 47.5-21.266 47.5-47.5 0-26.233-21.266-47.5-47.5-47.5-26.233 0-47.5 21.267-47.5 47.5 0 26.234 21.267 47.5 47.5 47.5z" fill="#F0F0F0"/><path d="M15.82 20.814a47.327 47.327 0 00-8.183 16.528h24.71L15.82 20.815zm83.545 16.528a47.33 47.33 0 00-8.183-16.527L74.654 37.341h24.71zM7.637 62.125a47.332 47.332 0 008.183 16.528l16.527-16.528H7.637zm74.781-50.073A47.33 47.33 0 0065.891 3.87v24.71l16.527-16.527zM24.582 87.414a47.332 47.332 0 0016.528 8.183v-24.71L24.582 87.414zM41.11 3.87a47.333 47.333 0 00-16.528 8.182L41.11 28.579V3.87zm24.783 91.727a47.332 47.332 0 0016.527-8.183L65.893 70.887v24.71zm8.761-33.472l16.528 16.528a47.33 47.33 0 008.183-16.528h-24.71z" fill="#0052B4"/><path d="M100.598 43.539H59.696V2.636a47.974 47.974 0 00-12.392 0v40.902H6.402a47.974 47.974 0 000 12.392h40.902v40.902a47.976 47.976 0 0012.392 0V55.93h40.902a47.977 47.977 0 000-12.391z" fill="#D80027"/><path d="M65.89 62.125l21.197 21.196a47.65 47.65 0 002.792-3.05L71.732 62.126h-5.841zm-24.782 0L19.912 83.321a47.598 47.598 0 003.05 2.792l18.146-18.147v-5.841zm.002-24.782L19.912 16.146a47.621 47.621 0 00-2.792 3.05l18.147 18.147h5.841zm24.78.001l21.197-21.197a47.533 47.533 0 00-3.05-2.791L65.891 31.502v5.84z" fill="#D80027"/></g><defs><filter id="filter0_d" x="0" y=".234" width="107" height="107" filterUnits="userSpaceOnUse" color-interpolation-filters="sRGB"><feFlood flood-opacity="0" result="BackgroundImageFix"/><feColorMatrix in="SourceAlpha" values="0 0 0 0 0 0 0 0 0 0 0 0 0 0 0 0 0 0 127 0"/><feOffset dy="4"/><feGaussianBlur stdDeviation="3"/><feColorMatrix values="0 0 0 0 0 0 0 0 0 0.392157 0 0 0 0 0.694118 0 0 0 0.3 0"/><feBlend in2="BackgroundImageFix" result="effect1_dropShadow"/><feBlend in="SourceGraphic" in2="effect1_dropShadow" result="shape"/></filter></defs></svg>