<svg width="108" height="108" viewBox="0 0 108 108" fill="none" xmlns="http://www.w3.org/2000/svg"><g filter="url(#filter0_d)"><path d="M54 97.144c26.234 0 47.5-21.266 47.5-47.5 0-26.233-21.266-47.5-47.5-47.5-26.233 0-47.5 21.267-47.5 47.5 0 26.234 21.267 47.5 47.5 47.5z" fill="#F0F0F0"/><path d="M8.136 62.036c2.748 10.198 8.805 19.036 16.95 25.294V62.036H8.136zM49.87 96.964c1.36.117 2.738.18 4.13.18 21.946 0 40.413-14.884 45.863-35.108H49.87v34.928zm49.993-59.711C94.413 17.03 75.946 2.145 54 2.145c-1.392 0-2.77.063-4.13.18v34.928h49.993zM25.086 11.959c-8.145 6.259-14.202 15.097-16.95 25.294h16.95V11.96z" fill="#0052B4"/><path d="M101.098 43.449H43.674V3.273A47.176 47.176 0 0031.283 7.92v35.529H6.903a47.908 47.908 0 000 12.391h24.38v35.529a47.176 47.176 0 0012.39 4.646V55.84h57.425a47.98 47.98 0 000-12.391z" fill="#D80027"/></g><defs><filter id="filter0_d" x=".5" y=".145" width="107" height="107" filterUnits="userSpaceOnUse" color-interpolation-filters="sRGB"><feFlood flood-opacity="0" result="BackgroundImageFix"/><feColorMatrix in="SourceAlpha" values="0 0 0 0 0 0 0 0 0 0 0 0 0 0 0 0 0 0 127 0"/><feOffset dy="4"/><feGaussianBlur stdDeviation="3"/><feColorMatrix values="0 0 0 0 0 0 0 0 0 0.392157 0 0 0 0 0.694118 0 0 0 0.3 0"/><feBlend in2="BackgroundImageFix" result="effect1_dropShadow"/><feBlend in="SourceGraphic" in2="effect1_dropShadow" result="shape"/></filter></defs></svg>