<svg width="107" height="108" viewBox="0 0 107 108" fill="none" xmlns="http://www.w3.org/2000/svg"><g filter="url(#filter0_d)"><path d="M53.5 97.234c26.234 0 47.5-21.266 47.5-47.5 0-26.233-21.266-47.5-47.5-47.5-26.233 0-47.5 21.267-47.5 47.5 0 26.234 21.267 47.5 47.5 47.5z" fill="#F0F0F0"/><path d="M101 49.735C101 29.312 88.11 11.9 70.022 5.189v89.092C88.109 87.569 101 70.158 101 49.735z" fill="#FF9811"/><path d="M6 49.735C6 70.158 18.89 87.569 36.978 94.28V5.189C18.89 11.901 6 29.312 6 49.735z" fill="#6DA544"/></g><defs><filter id="filter0_d" x="0" y=".234" width="107" height="107" filterUnits="userSpaceOnUse" color-interpolation-filters="sRGB"><feFlood flood-opacity="0" result="BackgroundImageFix"/><feColorMatrix in="SourceAlpha" values="0 0 0 0 0 0 0 0 0 0 0 0 0 0 0 0 0 0 127 0"/><feOffset dy="4"/><feGaussianBlur stdDeviation="3"/><feColorMatrix values="0 0 0 0 0 0 0 0 0 0.392157 0 0 0 0 0.694118 0 0 0 0.3 0"/><feBlend in2="BackgroundImageFix" result="effect1_dropShadow"/><feBlend in="SourceGraphic" in2="effect1_dropShadow" result="shape"/></filter></defs></svg>