<svg width="38" height="38" viewBox="0 0 38 38" fill="none" xmlns="http://www.w3.org/2000/svg"><g filter="url(#filter0_d)"><path d="M19 28c7.18 0 13-5.82 13-13S26.18 2 19 2 6 7.82 6 15s5.82 13 13 13z" fill="#F0F0F0"/><path d="M23.895 12.174h-3.263L19 9.348l-1.631 2.826h-3.264L15.737 15l-1.632 2.826h3.264L19 20.652l1.632-2.826h3.263L22.264 15l1.631-2.826zM21.005 15l-1.002 1.736h-2.005L16.996 15l1.002-1.736h2.005L21.005 15zM19 11.527l.373.647h-.745l.372-.646zm-3.007 1.737h.746l-.373.646-.373-.646zm0 3.472l.374-.646.373.646h-.746zM19 18.472l-.373-.646h.747l-.374.646zm3.007-1.736h-.746l.373-.646.373.646zm-.746-3.472h.746l-.373.646-.373-.646zm5.832-8.438H10.908a13.066 13.066 0 00-3 3.391h22.184a13.07 13.07 0 00-3-3.39zM10.908 25.174h16.184a13.065 13.065 0 003-3.391H7.908a13.067 13.067 0 003 3.391z" fill="#0052B4"/></g><defs><filter id="filter0_d" x="0" y="0" width="38" height="38" filterUnits="userSpaceOnUse" color-interpolation-filters="sRGB"><feFlood flood-opacity="0" result="BackgroundImageFix"/><feColorMatrix in="SourceAlpha" values="0 0 0 0 0 0 0 0 0 0 0 0 0 0 0 0 0 0 127 0"/><feOffset dy="4"/><feGaussianBlur stdDeviation="3"/><feColorMatrix values="0 0 0 0 0 0 0 0 0 0.392157 0 0 0 0 0.694118 0 0 0 0.3 0"/><feBlend in2="BackgroundImageFix" result="effect1_dropShadow"/><feBlend in="SourceGraphic" in2="effect1_dropShadow" result="shape"/></filter></defs></svg>