<svg width="115" height="116" viewBox="0 0 115 116" fill="none" xmlns="http://www.w3.org/2000/svg"><g filter="url(#filter0_d)"><path d="M57.5 99C83.734 99 105 77.734 105 51.5 105 25.267 83.734 4 57.5 4 31.267 4 10 25.267 10 51.5 10 77.734 31.267 99 57.5 99z" fill="#F0F0F0"/><path d="M57.498 4C35.552 4 17.085 18.885 11.635 39.109h91.727C97.912 18.885 79.445 4 57.498 4zm0 95c21.947 0 40.413-14.885 45.864-35.109H11.635C17.085 84.115 35.552 99 57.498 99z" fill="#A2001D"/></g><defs><filter id="filter0_d" x=".161" y=".72" width="114.678" height="114.678" filterUnits="userSpaceOnUse" color-interpolation-filters="sRGB"><feFlood flood-opacity="0" result="BackgroundImageFix"/><feColorMatrix in="SourceAlpha" values="0 0 0 0 0 0 0 0 0 0 0 0 0 0 0 0 0 0 127 0"/><feOffset dy="6.559"/><feGaussianBlur stdDeviation="4.919"/><feColorMatrix values="0 0 0 0 0 0 0 0 0 0.392157 0 0 0 0 0.694118 0 0 0 0.3 0"/><feBlend in2="BackgroundImageFix" result="effect1_dropShadow"/><feBlend in="SourceGraphic" in2="effect1_dropShadow" result="shape"/></filter></defs></svg>