<svg width="108" height="108" viewBox="0 0 108 108" fill="none" xmlns="http://www.w3.org/2000/svg"><g filter="url(#filter0_d)"><path d="M54 97.297c26.234 0 47.5-21.267 47.5-47.5 0-26.234-21.266-47.5-47.5-47.5-26.233 0-47.5 21.266-47.5 47.5 0 26.233 21.267 47.5 47.5 47.5z" fill="#F0F0F0"/><path d="M54 2.297c-20.424 0-37.834 12.89-44.546 30.978h89.091C91.834 15.187 74.423 2.297 54 2.297z" fill="#D80027"/><path d="M54 97.297c20.423 0 37.834-12.89 44.545-30.979H9.455C16.164 84.406 33.575 97.297 54 97.297z" fill="#338AF3"/></g><defs><filter id="filter0_d" x=".5" y=".297" width="107" height="107" filterUnits="userSpaceOnUse" color-interpolation-filters="sRGB"><feFlood flood-opacity="0" result="BackgroundImageFix"/><feColorMatrix in="SourceAlpha" values="0 0 0 0 0 0 0 0 0 0 0 0 0 0 0 0 0 0 127 0"/><feOffset dy="4"/><feGaussianBlur stdDeviation="3"/><feColorMatrix values="0 0 0 0 0 0 0 0 0 0.392157 0 0 0 0 0.694118 0 0 0 0.3 0"/><feBlend in2="BackgroundImageFix" result="effect1_dropShadow"/><feBlend in="SourceGraphic" in2="effect1_dropShadow" result="shape"/></filter></defs></svg>