<svg width="108" height="108" viewBox="0 0 108 108" fill="none" xmlns="http://www.w3.org/2000/svg"><g filter="url(#filter0_d)"><path d="M54 97.969c26.234 0 47.5-21.267 47.5-47.5 0-26.234-21.266-47.5-47.5-47.5-26.233 0-47.5 21.266-47.5 47.5 0 26.233 21.267 47.5 47.5 47.5z" fill="#F0F0F0"/><path d="M54 2.969c26.233 0 47.5 21.266 47.5 47.5 0 26.233-21.267 47.5-47.5 47.5" fill="#D80027"/><path d="M39.544 21.556V15.36h-6.196v6.196h-6.196v6.195h6.196v6.196h6.196v-6.196h6.195v-6.195h-6.195z" fill="#ACABB1"/></g><defs><filter id="filter0_d" x=".5" y=".969" width="107" height="107" filterUnits="userSpaceOnUse" color-interpolation-filters="sRGB"><feFlood flood-opacity="0" result="BackgroundImageFix"/><feColorMatrix in="SourceAlpha" values="0 0 0 0 0 0 0 0 0 0 0 0 0 0 0 0 0 0 127 0"/><feOffset dy="4"/><feGaussianBlur stdDeviation="3"/><feColorMatrix values="0 0 0 0 0 0 0 0 0 0.392157 0 0 0 0 0.694118 0 0 0 0.3 0"/><feBlend in2="BackgroundImageFix" result="effect1_dropShadow"/><feBlend in="SourceGraphic" in2="effect1_dropShadow" result="shape"/></filter></defs></svg>