<svg width="107" height="107" viewBox="0 0 107 107" fill="none" xmlns="http://www.w3.org/2000/svg"><g filter="url(#filter0_d)"><path d="M74.151 6.713A47.312 47.312 0 0053.5 2a47.312 47.312 0 00-20.652 4.713L28.717 49.5l4.13 42.787A47.312 47.312 0 0053.5 97a47.312 47.312 0 0020.652-4.713l4.13-42.787-4.13-42.787z" fill="#FFDA44"/><path d="M32.848 6.715C16.959 14.398 6 30.668 6 49.5c0 18.832 10.96 35.102 26.848 42.785V6.715z" fill="#0052B4"/><path d="M74.152 6.715v85.57C90.041 84.602 101 68.332 101 49.5c0-18.832-10.96-35.102-26.848-42.785z" fill="#D80027"/><path d="M70.02 39.373H58.66a5.163 5.163 0 10-10.326 0H36.977c0 2.807 2.445 5.083 5.252 5.083h-.169a5.084 5.084 0 005.084 5.084 5.082 5.082 0 004.143 4.992l-4.006 9.044a16.47 16.47 0 006.217 1.214c2.2 0 4.298-.433 6.217-1.214l-4.006-9.044a5.082 5.082 0 004.144-4.992 5.084 5.084 0 005.083-5.084h-.17c2.808 0 5.254-2.276 5.254-5.083z" fill="#FF9811"/><path d="M53.501 46.402L46.789 49.5v6.196l6.712 4.13 6.712-4.13V49.5l-6.712-3.098z" fill="#0052B4"/><path d="M60.213 43.304H46.789V49.5h13.424v-6.196z" fill="#D80027"/></g><defs><filter id="filter0_d" x="0" y="0" width="107" height="107" filterUnits="userSpaceOnUse" color-interpolation-filters="sRGB"><feFlood flood-opacity="0" result="BackgroundImageFix"/><feColorMatrix in="SourceAlpha" values="0 0 0 0 0 0 0 0 0 0 0 0 0 0 0 0 0 0 127 0"/><feOffset dy="4"/><feGaussianBlur stdDeviation="3"/><feColorMatrix values="0 0 0 0 0 0 0 0 0 0.392157 0 0 0 0 0.694118 0 0 0 0.3 0"/><feBlend in2="BackgroundImageFix" result="effect1_dropShadow"/><feBlend in="SourceGraphic" in2="effect1_dropShadow" result="shape"/></filter></defs></svg>