<svg width="108" height="108" viewBox="0 0 108 108" fill="none" xmlns="http://www.w3.org/2000/svg"><g filter="url(#filter0_d)"><path d="M54.176 97.697c26.233 0 47.5-21.266 47.5-47.5 0-26.233-21.267-47.5-47.5-47.5-26.234 0-47.5 21.267-47.5 47.5 0 26.234 21.266 47.5 47.5 47.5z" fill="#F0F0F0"/><path d="M8.312 62.589c2.748 10.197 8.805 19.036 16.95 25.294V62.589H8.312zm41.733 34.928c1.361.117 2.738.18 4.13.18 21.947 0 40.413-14.884 45.864-35.108H50.045v34.928zm49.994-59.711C94.589 17.582 76.122 2.697 54.175 2.697a48.11 48.11 0 00-4.13.181v34.928h49.994zM25.262 12.512C17.117 18.77 11.06 27.608 8.312 37.806h16.95V12.512z" fill="#D80027"/><path d="M101.274 44.002H43.85V3.825a47.178 47.178 0 00-12.392 4.647V44H7.078a47.91 47.91 0 000 12.392h24.38V91.92a47.178 47.178 0 0012.392 4.647V56.393h57.424a47.98 47.98 0 000-12.392z" fill="#0052B4"/></g><defs><filter id="filter0_d" x=".676" y=".697" width="107" height="107" filterUnits="userSpaceOnUse" color-interpolation-filters="sRGB"><feFlood flood-opacity="0" result="BackgroundImageFix"/><feColorMatrix in="SourceAlpha" values="0 0 0 0 0 0 0 0 0 0 0 0 0 0 0 0 0 0 127 0"/><feOffset dy="4"/><feGaussianBlur stdDeviation="3"/><feColorMatrix values="0 0 0 0 0 0 0 0 0 0.392157 0 0 0 0 0.694118 0 0 0 0.3 0"/><feBlend in2="BackgroundImageFix" result="effect1_dropShadow"/><feBlend in="SourceGraphic" in2="effect1_dropShadow" result="shape"/></filter></defs></svg>