<svg width="38" height="38" viewBox="0 0 38 38" fill="none" xmlns="http://www.w3.org/2000/svg"><g filter="url(#filter0_d)"><path d="M32 15c0-1.59-.286-3.113-.809-4.522L19 9.913l-12.191.565A12.972 12.972 0 006 15c0 1.59.286 3.113.809 4.522L19 20.087l12.191-.565A12.97 12.97 0 0032 15z" fill="#496E2D"/><path d="M19 28c5.59 0 10.355-3.528 12.191-8.478H6.81C8.645 24.472 13.41 28 19 28z" fill="#D80027"/><path d="M6.809 10.478h24.383C29.355 5.528 24.59 2 19 2S8.645 5.528 6.809 10.478z" fill="#F0F0F0"/></g><defs><filter id="filter0_d" x="0" y="0" width="38" height="38" filterUnits="userSpaceOnUse" color-interpolation-filters="sRGB"><feFlood flood-opacity="0" result="BackgroundImageFix"/><feColorMatrix in="SourceAlpha" values="0 0 0 0 0 0 0 0 0 0 0 0 0 0 0 0 0 0 127 0"/><feOffset dy="4"/><feGaussianBlur stdDeviation="3"/><feColorMatrix values="0 0 0 0 0 0 0 0 0 0.392157 0 0 0 0 0.694118 0 0 0 0.3 0"/><feBlend in2="BackgroundImageFix" result="effect1_dropShadow"/><feBlend in="SourceGraphic" in2="effect1_dropShadow" result="shape"/></filter></defs></svg>