<svg width="108" height="108" viewBox="0 0 108 108" fill="none" xmlns="http://www.w3.org/2000/svg"><g filter="url(#filter0_d)"><path d="M6.998 50.311c0 20.423 12.89 37.834 30.978 44.545l4.13-44.545-4.13-44.545C19.888 12.477 6.998 29.888 6.998 50.31z" fill="#6DA544"/><path d="M101.998 50.31c0-26.233-21.267-47.5-47.5-47.5a47.4 47.4 0 00-16.522 2.955v89.091a47.398 47.398 0 0016.522 2.955c26.233 0 47.5-21.267 47.5-47.5z" fill="#D80027"/><path d="M37.977 66.832c9.124 0 16.521-7.397 16.521-16.521 0-9.125-7.397-16.522-16.521-16.522-9.125 0-16.522 7.397-16.522 16.522 0 9.124 7.397 16.521 16.522 16.521z" fill="#FFDA44"/><path d="M28.683 42.05v10.326a9.293 9.293 0 009.293 9.293 9.293 9.293 0 009.294-9.293V42.05H28.683z" fill="#D80027"/><path d="M37.977 55.474a3.102 3.102 0 01-3.098-3.098v-4.13h6.196v4.13a3.101 3.101 0 01-3.098 3.098z" fill="#F0F0F0"/></g><defs><filter id="filter0_d" x=".998" y=".811" width="107" height="107" filterUnits="userSpaceOnUse" color-interpolation-filters="sRGB"><feFlood flood-opacity="0" result="BackgroundImageFix"/><feColorMatrix in="SourceAlpha" values="0 0 0 0 0 0 0 0 0 0 0 0 0 0 0 0 0 0 127 0"/><feOffset dy="4"/><feGaussianBlur stdDeviation="3"/><feColorMatrix values="0 0 0 0 0 0 0 0 0 0.392157 0 0 0 0 0.694118 0 0 0 0.3 0"/><feBlend in2="BackgroundImageFix" result="effect1_dropShadow"/><feBlend in="SourceGraphic" in2="effect1_dropShadow" result="shape"/></filter></defs></svg>