<svg width="107" height="107" viewBox="0 0 107 107" fill="none" xmlns="http://www.w3.org/2000/svg"><g filter="url(#filter0_d)"><path d="M53.5 97C79.734 97 101 75.734 101 49.5 101 23.267 79.734 2 53.5 2 27.267 2 6 23.267 6 49.5 6 75.734 27.267 97 53.5 97z" fill="#F0F0F0"/><path d="M98.046 66.022A47.393 47.393 0 00101 49.5c0-5.81-1.045-11.376-2.954-16.522H8.954A47.398 47.398 0 006 49.5c0 5.81 1.045 11.376 2.954 16.522l44.546 4.13 44.546-4.13z" fill="#0052B4"/><path d="M53.499 97c20.423 0 37.834-12.89 44.545-30.978H8.954C15.663 84.11 33.074 97 53.498 97z" fill="#D80027"/></g><defs><filter id="filter0_d" x="0" y="0" width="107" height="107" filterUnits="userSpaceOnUse" color-interpolation-filters="sRGB"><feFlood flood-opacity="0" result="BackgroundImageFix"/><feColorMatrix in="SourceAlpha" values="0 0 0 0 0 0 0 0 0 0 0 0 0 0 0 0 0 0 127 0"/><feOffset dy="4"/><feGaussianBlur stdDeviation="3"/><feColorMatrix values="0 0 0 0 0 0 0 0 0 0.392157 0 0 0 0 0.694118 0 0 0 0.3 0"/><feBlend in2="BackgroundImageFix" result="effect1_dropShadow"/><feBlend in="SourceGraphic" in2="effect1_dropShadow" result="shape"/></filter></defs></svg>