<svg width="108" height="108" viewBox="0 0 108 108" fill="none" xmlns="http://www.w3.org/2000/svg"><g filter="url(#filter0_d)"><path d="M101.002 50.31c0 26.234-21.267 47.5-47.5 47.5s-47.5-21.266-47.5-47.5c2.065 0 47.5-6.195 47.5-6.195l47.5 6.196z" fill="#338AF3"/><path d="M6.002 50.31c0-26.233 21.267-47.5 47.5-47.5s47.5 21.267 47.5 47.5" fill="#F0F0F0"/><path d="M72.357 35.586L53.502 54.44 34.648 35.586a22.585 22.585 0 00-3.863 12.659v6.196c0 9.948 6.428 18.422 15.349 21.49a6.87 6.87 0 00.755 7.422l6.75-5.41 6.752 5.41a6.872 6.872 0 00.714-7.505C69.903 72.714 76.22 64.302 76.22 54.44v-6.196c0-4.683-1.425-9.04-3.863-12.66z" fill="#6DA544"/><path d="M53.502 70.963c-9.11 0-16.522-7.412-16.522-16.522v-6.196c0-9.11 7.412-16.521 16.522-16.521s16.522 7.411 16.522 16.521v6.196c0 9.11-7.412 16.522-16.522 16.522z" fill="#FFDA44"/><path d="M63.828 54.442v-6.196c0-5.694-4.633-10.326-10.326-10.326-5.694 0-10.326 4.632-10.326 10.326v6.196l10.326 2.065 10.326-2.065z" fill="#338AF3"/><path d="M43.176 54.441c0 5.694 4.632 10.326 10.326 10.326 5.694 0 10.326-4.632 10.326-10.326H43.176z" fill="#6DA544"/><path d="M65.894 31.724a6.196 6.196 0 00-10.326-4.617v-3.644h2.065v-4.13h-2.065v-2.065h-4.13v2.065h-2.066v4.13h2.065v3.644a6.196 6.196 0 00-8.26 9.234v3.644h20.652v-3.644a6.18 6.18 0 002.065-4.617z" fill="#FFDA44"/></g><defs><filter id="filter0_d" x=".002" y=".811" width="107" height="107" filterUnits="userSpaceOnUse" color-interpolation-filters="sRGB"><feFlood flood-opacity="0" result="BackgroundImageFix"/><feColorMatrix in="SourceAlpha" values="0 0 0 0 0 0 0 0 0 0 0 0 0 0 0 0 0 0 127 0"/><feOffset dy="4"/><feGaussianBlur stdDeviation="3"/><feColorMatrix values="0 0 0 0 0 0 0 0 0 0.392157 0 0 0 0 0.694118 0 0 0 0.3 0"/><feBlend in2="BackgroundImageFix" result="effect1_dropShadow"/><feBlend in="SourceGraphic" in2="effect1_dropShadow" result="shape"/></filter></defs></svg>