<svg width="108" height="108" viewBox="0 0 108 108" fill="none" xmlns="http://www.w3.org/2000/svg"><g filter="url(#filter0_d)"><path d="M6.125 50.468c0 5.81 1.045 11.376 2.954 16.522l44.546 4.13 44.546-4.13a47.393 47.393 0 002.954-16.521c0-5.81-1.045-11.376-2.954-16.522l-44.546-4.13-44.546 4.13a47.398 47.398 0 00-2.954 16.521z" fill="#FFDA44"/><path d="M98.171 33.947C91.46 15.86 74.05 2.97 53.626 2.97c-20.424 0-37.834 12.89-44.546 30.978h89.091zM9.08 66.99c6.711 18.088 24.122 30.98 44.546 30.98 20.423 0 37.834-12.89 44.545-30.979H9.081z" fill="#D80027"/></g><defs><filter id="filter0_d" x=".125" y=".969" width="107" height="107" filterUnits="userSpaceOnUse" color-interpolation-filters="sRGB"><feFlood flood-opacity="0" result="BackgroundImageFix"/><feColorMatrix in="SourceAlpha" values="0 0 0 0 0 0 0 0 0 0 0 0 0 0 0 0 0 0 127 0"/><feOffset dy="4"/><feGaussianBlur stdDeviation="3"/><feColorMatrix values="0 0 0 0 0 0 0 0 0 0.392157 0 0 0 0 0.694118 0 0 0 0.3 0"/><feBlend in2="BackgroundImageFix" result="effect1_dropShadow"/><feBlend in="SourceGraphic" in2="effect1_dropShadow" result="shape"/></filter></defs></svg>