<svg width="108" height="108" viewBox="0 0 108 108" fill="none" xmlns="http://www.w3.org/2000/svg"><g filter="url(#filter0_d)"><path d="M53.676 97.697c26.233 0 47.5-21.266 47.5-47.5 0-26.233-21.267-47.5-47.5-47.5-26.234 0-47.5 21.267-47.5 47.5 0 26.234 21.266 47.5 47.5 47.5z" fill="#FFDA44"/><path d="M43.349 44.002h57.424C97.737 20.696 77.808 2.697 53.675 2.697c-3.547 0-7.002.392-10.326 1.13v40.175zm-12.391-.001V8.473c-13.043 7.116-22.38 20.17-24.38 35.529h24.38zm-.001 12.392H6.577c2 15.359 11.338 28.412 24.38 35.528V56.393zm12.392 0v40.175a47.664 47.664 0 0010.326 1.129c24.133 0 44.062-17.998 47.098-41.304H43.349z" fill="#0052B4"/></g><defs><filter id="filter0_d" x=".176" y=".697" width="107" height="107" filterUnits="userSpaceOnUse" color-interpolation-filters="sRGB"><feFlood flood-opacity="0" result="BackgroundImageFix"/><feColorMatrix in="SourceAlpha" values="0 0 0 0 0 0 0 0 0 0 0 0 0 0 0 0 0 0 127 0"/><feOffset dy="4"/><feGaussianBlur stdDeviation="3"/><feColorMatrix values="0 0 0 0 0 0 0 0 0 0.392157 0 0 0 0 0.694118 0 0 0 0.3 0"/><feBlend in2="BackgroundImageFix" result="effect1_dropShadow"/><feBlend in="SourceGraphic" in2="effect1_dropShadow" result="shape"/></filter></defs></svg>