<svg width="107" height="108" viewBox="0 0 107 108" fill="none" xmlns="http://www.w3.org/2000/svg"><g filter="url(#filter0_d)"><path d="M53.5 2.678c26.234 0 47.5 21.266 47.5 47.5 0 26.233-21.266 47.5-47.5 47.5 0-2.065-6.195-47.5-6.195-47.5l6.195-47.5z" fill="#F0F0F0"/><path d="M53.5 97.678C27.267 97.678 6 76.41 6 50.178c0-26.234 21.267-47.5 47.5-47.5" fill="#FFDA44"/><path d="M71.69 44.01l8.926 11.81a6.197 6.197 0 008.906 8.357 6.195 6.195 0 00-5.61-10.847L69.998 34.925l-3.295 2.49-4.943 3.736 4.981 6.59 4.947-3.73zm12.85 13.577a2.066 2.066 0 112.492 3.296 2.066 2.066 0 01-2.491-3.296z" fill="#ACABB1"/><path d="M87 47.742l4.982-6.59-4.943-3.736-3.294-2.491L69.832 53.33a6.195 6.195 0 103.295 2.49l8.927-11.81L87 47.743zM69.604 60.48a2.065 2.065 0 11-3.295-2.49 2.065 2.065 0 013.295 2.49z" fill="#FFDA44"/></g><defs><filter id="filter0_d" x="0" y=".678" width="107" height="107" filterUnits="userSpaceOnUse" color-interpolation-filters="sRGB"><feFlood flood-opacity="0" result="BackgroundImageFix"/><feColorMatrix in="SourceAlpha" values="0 0 0 0 0 0 0 0 0 0 0 0 0 0 0 0 0 0 127 0"/><feOffset dy="4"/><feGaussianBlur stdDeviation="3"/><feColorMatrix values="0 0 0 0 0 0 0 0 0 0.392157 0 0 0 0 0.694118 0 0 0 0.3 0"/><feBlend in2="BackgroundImageFix" result="effect1_dropShadow"/><feBlend in="SourceGraphic" in2="effect1_dropShadow" result="shape"/></filter></defs></svg>