<svg xmlns="http://www.w3.org/2000/svg" viewBox="0 0 286.2 63.39"><g data-name="Layer 2"><g data-name="1" fill-rule="evenodd"><path d="M203.44 0h13.89a1.51 1.51 0 01.62.14 1.57 1.57 0 01.82 2.06l-19.69 45.45a1.84 1.84 0 01-1.54 1.2h-13.88a1.57 1.57 0 01-1.45-1l-6-13.78-5.92 13.72a1.57 1.57 0 01-1.47 1H155a1.57 1.57 0 01-1.45-1l-14.36-33.04a1.58 1.58 0 01-.15-.69 1.57 1.57 0 011.57-1.57h13.89a1.57 1.57 0 011.44.95l6 13.83 5.94-13.77a1.57 1.57 0 011.47-1h13.89a1.57 1.57 0 011.44.95l6 13.81 11.26-26.17a1.59 1.59 0 011.5-1.09zm67.31 12.49h13.88a1.68 1.68 0 01.62.13 1.56 1.56 0 01.82 2.06Q275.75 38.5 265.43 62.3a1.59 1.59 0 01-1.5 1.09H250a1.72 1.72 0 01-.62-.13 1.57 1.57 0 01-.81-2.06l6-14-14-32.49a1.57 1.57 0 011.42-2.26h13.88a1.59 1.59 0 011.45.95l5.95 13.78 5.91-13.64a1.58 1.58 0 011.5-1.09zm-50.71 0a1.57 1.57 0 00-1.47 1l-14.34 33.17a1.57 1.57 0 00.82 2.07 1.91 1.91 0 00.62.13h13.89a1.59 1.59 0 001.47-1L227 34.08l6 13.82a1.58 1.58 0 001.44 1h13.89a1.58 1.58 0 001.41-2.27l-14.3-33.15a1.59 1.59 0 00-1.45-.95z" fill="#ecbe2e"/><path d="M71.72 12.49h13.89a1.57 1.57 0 011.44.95l14.31 33.15a1.59 1.59 0 01.16.69 1.57 1.57 0 01-1.52 1.57H86.06a1.57 1.57 0 01-1.45-1l-6-13.82-5.9 13.81a1.58 1.58 0 01-1.47 1H57.35a1.67 1.67 0 01-.62-.12 1.57 1.57 0 01-.82-2.07L70.22 13.5a1.57 1.57 0 011.47-1zm-26.3 8.44H18.61a1.55 1.55 0 00-1.46 1l-5.5 12.68-.06.16L.13 61.2A1.57 1.57 0 001 63.26a1.68 1.68 0 00.62.13h13.83A1.58 1.58 0 0017 62.3l11-25.5h26.84a1.56 1.56 0 001.47-1c1-2.36 9.21-20.68 9.21-21.45a1.51 1.51 0 00-.15-.68L59.88 1a1.56 1.56 0 00-1.44-1H8.68a1.57 1.57 0 00-1.57 1.58 1.5 1.5 0 00.16.67l5.49 12.69a1.59 1.59 0 001.44 1h33.4l-2.18 5zM236 55.48l-.87 2h7.1l1-2.2h-6.81a.43.43 0 00-.23.08.31.31 0 00-.11.08l-.05.07zm5.41 3.81h-6.8a2.14 2.14 0 01-.79-.14 1.41 1.41 0 01-.6-.47 1.31 1.31 0 01-.26-.71 1.6 1.6 0 01.16-.74l.93-2.09a2.56 2.56 0 01.45-.69 3.37 3.37 0 01.68-.54 3.18 3.18 0 01.8-.37 3.06 3.06 0 01.84-.13h6.91a1.59 1.59 0 011.38.61 1.22 1.22 0 01.25.71 1.68 1.68 0 01-.16.76l-2.56 5.77a2.51 2.51 0 01-.45.68 3.11 3.11 0 01-.68.54 3.18 3.18 0 01-.8.36 2.62 2.62 0 01-.83.13h-6.91a1.76 1.76 0 01-1.16-.38 1.15 1.15 0 01-.37-.48 1.25 1.25 0 01-.1-.58v-.4h9.05l.13-.06.1-.08v-.07l.72-1.62zm-21.54 1.84h6.81a.38.38 0 00.13-.06l.11-.08a.25.25 0 000-.07l2.51-5.65h-6.82l-.13.06a.44.44 0 00-.1.08l-.05.06-2.5 5.65zm3.3-7.7a2.92 2.92 0 00-.83.12 3.18 3.18 0 00-.8.36 2.78 2.78 0 00-1.11 1.21l-2.58 5.8a1.73 1.73 0 00-.15.75 1.28 1.28 0 00.24.7 1.61 1.61 0 001.38.6h6.85a3 3 0 00.83-.12 4 4 0 00.79-.36 2.78 2.78 0 001.12-1.22l2.57-5.8a1.55 1.55 0 00.16-.74 1.19 1.19 0 00-.25-.7 1.58 1.58 0 00-1.37-.6zm-17 7.7H213l.14-.06.1-.08a.25.25 0 000-.07l2.51-5.65h-6.85a.38.38 0 00-.13.06l-.11.08v.06l-2.51 5.65zm3.3-7.7h6.85a1.58 1.58 0 011.37.6 1.19 1.19 0 01.25.7 1.66 1.66 0 01-.15.74l-2.58 5.8a2.72 2.72 0 01-1.12 1.22 4 4 0 01-.79.36 3 3 0 01-.83.12h-6.87a1.58 1.58 0 01-1.37-.6 1.22 1.22 0 01-.25-.7 1.61 1.61 0 01.16-.75l2.57-5.8a2.81 2.81 0 011.12-1.21 3.11 3.11 0 01.79-.36 3 3 0 01.83-.12zm-13.64 0a3.06 3.06 0 00-.84.13 3.38 3.38 0 00-.8.37 3.3 3.3 0 00-.67.54 2.56 2.56 0 00-.45.69l-.41.93h2.1l.26-.59.05-.07.11-.08a.38.38 0 01.13-.06h6.9l-.86 1.92a.16.16 0 010 .07l-.1.09-.13.06h-7a3 3 0 00-.84.12 3.54 3.54 0 00-.79.37 3 3 0 00-.67.54 2.51 2.51 0 00-.45.68l-1.8 3.86h11.3l.81-1.84h-9.19l.75-1.67a.21.21 0 010-.06.53.53 0 01.11-.09.38.38 0 01.13-.06h7a2.66 2.66 0 00.83-.13 3 3 0 00.8-.37 3.37 3.37 0 00.68-.54 2.43 2.43 0 00.44-.67l.91-2a1.68 1.68 0 00.16-.76 1.25 1.25 0 00-.25-.71 1.62 1.62 0 00-1.38-.61zm-12.28.57l-.55 1.26h-8.21l-.9 2h6.6l-.82 1.84h-6.59l-.9 2h8.21l-.82 1.9h-10.31l4.24-9.54h10.31l-.26.59zM170 55.26h.27l.82-1.83h-9.19a3 3 0 00-.83.12 3.28 3.28 0 00-.79.36 3.11 3.11 0 00-.68.54 2.46 2.46 0 00-.45.67l-2.57 5.8a1.34 1.34 0 00.1 1.45A1.61 1.61 0 00158 63h8.79l.82-1.84h-9.08l2.51-5.65a.21.21 0 010-.06l.11-.08a.38.38 0 01.13-.06h.1zm-17.85 5.22l3.14-7h2.1L153.13 63H151l-3.86-7-3.14 7h-2.11l4.24-9.54h2.11l3.86 7zm-14.95 1.89l-.27.6H139q2.11-4.77 4.24-9.54h-2.11l-4 8.94zm.6-6.9l-.26.59h-2.1l.35-.8h-6.82l-.13.06a.44.44 0 00-.1.08l-.05.06-.79 1.8h6.73a2.13 2.13 0 01.78.14 1.42 1.42 0 01.59.46 1.22 1.22 0 01.25.71 1.6 1.6 0 01-.16.74l-.86 1.94a2.51 2.51 0 01-.45.68 3 3 0 01-.67.54 4 4 0 01-.79.36 3 3 0 01-.83.12h-6.85a1.56 1.56 0 01-1.37-.61 1.22 1.22 0 01-.25-.7 1.61 1.61 0 01.16-.75l.26-.59h2.11l-.36.81H133a.38.38 0 00.13-.06l.11-.08v-.07l.8-1.79h-6.73a2.13 2.13 0 01-.78-.14 1.42 1.42 0 01-.59-.46 1.25 1.25 0 01-.25-.71 1.6 1.6 0 01.16-.74l.86-2a2.78 2.78 0 011.11-1.21 3.18 3.18 0 01.8-.36 2.92 2.92 0 01.83-.12h6.85a1.58 1.58 0 011.37.6 1.19 1.19 0 01.25.7 1.55 1.55 0 01-.16.74zm-15.37-43a1.65 1.65 0 00-1.5 1.09L115 27.22l-6-13.78a1.59 1.59 0 00-1.45-.95H93.74a1.57 1.57 0 00-1.42 2.26l14 32.49-6.06 14a1.58 1.58 0 00.82 2.06 1.68 1.68 0 00.62.13h13.89a1.59 1.59 0 001.5-1.09q10.33-23.8 20.64-47.62a1.57 1.57 0 00-.82-2.06 1.68 1.68 0 00-.62-.13h-13.86z" fill="#1a1a1a"/></g></g></svg>