<svg width="10" height="10" viewBox="0 0 10 10" fill="none" xmlns="http://www.w3.org/2000/svg"><path d="M8.255 1.65a.825.825 0 00-.826.826v3.785L1.41.241A.825.825 0 00.242 1.41l6.02 6.02H2.476a.825.825 0 100 1.65h5.779a.839.839 0 00.081-.003l.036-.006c.015-.002.03-.003.044-.006l.04-.01.038-.01.04-.014.036-.013c.013-.005.024-.011.036-.017l.038-.018.033-.02.036-.021.035-.026.03-.022a.829.829 0 00.115-.116l.022-.029.026-.035.022-.036.02-.034L9 8.606l.017-.036.014-.037c.004-.013.01-.026.013-.04l.01-.036.01-.041.007-.044.005-.036a.83.83 0 00.004-.082V2.476a.825.825 0 00-.825-.825z" fill="#202020"/></svg>