<svg width="21" height="21" viewBox="0 0 21 21" fill="none" xmlns="http://www.w3.org/2000/svg"><path d="M13.515 3.673H3.752c-.916 0-1.66.744-1.66 1.66V19.34c0 .916.744 1.66 1.66 1.66h9.763c.916 0 1.66-.744 1.66-1.66V5.333a1.667 1.667 0 00-1.66-1.66zm.494 15.663a.5.5 0 01-.499.498H3.748a.5.5 0 01-.499-.498V5.333a.5.5 0 01.499-.5h9.762a.5.5 0 01.5.5v14.003z" fill="#FF9800"/><path d="M17.248 0H7.485c-.916 0-1.66.744-1.66 1.66 0 .323.258.58.58.58a.577.577 0 00.581-.58.5.5 0 01.5-.499h9.762a.5.5 0 01.499.499v14.007a.5.5 0 01-.5.5.578.578 0 00-.58.58c0 .322.258.58.58.58a1.66 1.66 0 001.66-1.66V1.66A1.66 1.66 0 0017.247 0z" fill="#FF9800"/></svg>