<svg width="14" height="15" viewBox="0 0 14 15" fill="none" xmlns="http://www.w3.org/2000/svg"><g clip-path="url(#clip0)" fill="#FF9800"><path d="M11.04 6.473l-.615-.724a.457.457 0 00-.658-.044L7.933 7.366V.482A.475.475 0 007.467 0h-.934a.475.475 0 00-.466.482v6.884L4.233 5.705a.457.457 0 00-.658.044l-.615.723a.493.493 0 00.043.682l3.69 3.339c.176.16.439.16.615 0l3.69-3.34a.493.493 0 00.042-.68zm1.093 6.069H1.867a.475.475 0 00-.467.482v.965c0 .267.209.483.467.483h10.266a.475.475 0 00.467-.483v-.965a.475.475 0 00-.467-.482z"/></g><defs><clipPath id="clip0"><path fill="#fff" d="M0 0h14v14.472H0z"/></clipPath></defs></svg>