<svg width="29" height="29" viewBox="0 0 29 29" fill="none" xmlns="http://www.w3.org/2000/svg"><path d="M5.437 7.25a3.625 3.625 0 100-7.25 3.625 3.625 0 000 7.25zm18.125 0a3.625 3.625 0 100-7.25 3.625 3.625 0 000 7.25zm-9.062 0a3.625 3.625 0 100-7.25 3.625 3.625 0 000 7.25zm5.432 11.69l-.825-8.244a1.806 1.806 0 00-1.802-1.633h-5.61c-.935 0-1.71.7-1.803 1.63l-.825 8.248a.906.906 0 00.9.997h.993l.743 7.43A1.81 1.81 0 0013.508 29h1.985c.935 0 1.71-.703 1.803-1.631l.743-7.431h.992a.9.9 0 00.9-.997zM7.956 20.86c-.52-.58-.77-1.34-.694-2.1l.825-8.246c.05-.513.237-.97.475-1.392-.107-.02-.207-.06-.32-.06H2.634c-.935 0-1.71.702-1.803 1.632L.005 18.94a.906.906 0 00.9.997h.992l.743 5.618a1.81 1.81 0 001.806 1.631H6.43c.936 0 1.711-.703 1.804-1.63l.543-4.108a2.66 2.66 0 01-.82-.589zm21.038-1.923l-.824-8.241a1.804 1.804 0 00-1.802-1.633h-5.61c-.114 0-.214.04-.322.06.237.422.424.878.475 1.391l.824 8.245a2.721 2.721 0 01-.683 2.09c-.236.26-.524.446-.828.596l.543 4.108c.093.93.869 1.63 1.804 1.63h1.984c.936 0 1.712-.702 1.804-1.63l.743-5.62h.991a.9.9 0 00.9-.997z" fill="#FF9800"/></svg>