<svg width="46" height="42" viewBox="0 0 46 42" fill="none" xmlns="http://www.w3.org/2000/svg"><path d="M16.75 16.8l14.55 8.4-14.55 8.3V16.8zm25 20.9v-25H4.25v25h37.5zm0-29.2c1.107 0 2.083.423 2.93 1.27.846.78 1.27 1.757 1.27 2.93v25c0 1.106-.424 2.083-1.27 2.929-.847.781-1.823 1.172-2.93 1.172H4.25c-1.107 0-2.083-.39-2.93-1.172-.846-.846-1.27-1.823-1.27-2.93v-25c0-1.172.424-2.148 1.27-2.93C2.167 8.924 3.143 8.5 4.25 8.5h15.82l-6.836-6.836L14.7.2 23 8.5 31.3.2l1.466 1.464L25.93 8.5h15.82z" fill="#FF9800"/></svg>