<svg width="18" height="18" viewBox="0 0 18 18" fill="none" xmlns="http://www.w3.org/2000/svg"><path d="M17.437 8.438h-7.125a.563.563 0 010-1.125h7.125a.563.563 0 010 1.125z" fill="#FF9800"/><path d="M14.624 11.25a.563.563 0 01-.397-.96l2.415-2.415-2.415-2.415a.563.563 0 11.796-.796l2.812 2.812c.22.22.22.576 0 .796l-2.812 2.812a.559.559 0 01-.399.166z" fill="#FF9800"/><path d="M11.5 11v3a1 1 0 01-1 1h-8a1 1 0 01-1-1V2a1 1 0 011-1h8a1 1 0 011 1v2.5" stroke="#FF9800" stroke-width="1.2" stroke-linecap="round" stroke-linejoin="round"/></svg>