<svg width="18" height="18" viewBox="0 0 18 18" fill="none" xmlns="http://www.w3.org/2000/svg"><path d="M3.328 9.703c.875.875 1.938 1.313 3.188 1.313 1.25 0 2.312-.438 3.187-1.313s1.313-1.937 1.313-3.187c0-1.25-.438-2.313-1.313-3.188S7.766 2.016 6.516 2.016c-1.25 0-2.313.437-3.188 1.312S2.016 5.266 2.016 6.516c0 1.25.437 2.312 1.312 3.187zm9.188 1.313l4.968 4.968-1.5 1.5-4.968-4.968v-.797l-.282-.281c-1.187 1.03-2.593 1.546-4.218 1.546-1.813 0-3.36-.625-4.641-1.875C.625 9.86 0 8.33 0 6.516c0-1.813.625-3.344 1.875-4.594C3.156.64 4.703 0 6.515 0 8.329 0 9.86.64 11.11 1.922c1.25 1.25 1.875 2.781 1.875 4.594 0 1.625-.515 3.03-1.546 4.218l.28.282h.798z" fill="#FF9800"/></svg>