<svg width="22" height="22" viewBox="0 0 22 22" fill="none" xmlns="http://www.w3.org/2000/svg"><path d="M11.048 14.488a4.85 4.85 0 01-4.844-4.845v-2.39a4.85 4.85 0 014.844-4.845 4.85 4.85 0 014.845 4.844v2.391a4.85 4.85 0 01-4.845 4.845zm0-11.393a4.162 4.162 0 00-4.156 4.157v2.391a4.161 4.161 0 004.156 4.157 4.162 4.162 0 004.157-4.157v-2.39a4.162 4.162 0 00-4.157-4.158z" fill="#5C70CF"/><path d="M17.588 19.596H4.438a2.034 2.034 0 01-2.031-2.032v-1.501c0-.663.335-1.552 1.935-2.018l1.967-.544a.344.344 0 01.183.663l-1.962.543c-1.436.418-1.436 1.124-1.436 1.356v1.501c0 .741.603 1.344 1.344 1.344h13.15c.741 0 1.344-.603 1.344-1.344v-1.501c0-.626-.484-1.083-1.439-1.357l-1.872-.524a.344.344 0 11.185-.662l1.874.524c1.603.461 1.94 1.353 1.94 2.019v1.501c0 1.12-.911 2.032-2.032 2.032z" fill="#5C70CF"/></svg>