<svg width="20" height="18" viewBox="0 0 20 18" fill="none" xmlns="http://www.w3.org/2000/svg"><path d="M17.115.73H2.885A2.888 2.888 0 000 3.615v10.77a2.888 2.888 0 002.885 2.884h14.23A2.888 2.888 0 0020 14.384V3.615A2.888 2.888 0 0017.115.73zm1.731 10h-4.23A1.732 1.732 0 0112.885 9c0-.955.776-1.731 1.73-1.731h4.231v3.461zm0-4.615h-4.23A2.888 2.888 0 0011.73 9a2.888 2.888 0 002.884 2.884h4.231v2.5c0 .955-.776 1.731-1.73 1.731H2.884a1.732 1.732 0 01-1.731-1.73V3.614c0-.954.776-1.73 1.73-1.73h14.231c.955 0 1.731.776 1.731 1.73v2.5z" fill="#FF9800"/></svg>