<svg xmlns="http://www.w3.org/2000/svg" width="512" height="512" viewBox="0 0 25090.32 25090.32" shape-rendering="geometricPrecision" text-rendering="geometricPrecision" image-rendering="optimizeQuality" fill-rule="evenodd" clip-rule="evenodd"><path d="M1896.18 0h21297.95c1042.93 0 1896.19 853.26 1896.19 1896.18v21297.95c0 1042.93-853.26 1896.19-1896.19 1896.19H1896.18C853.26 25090.32 0 24237.06 0 23194.13V1896.18C0 853.26 853.26 0 1896.18 0z" fill="#fcbf0e"/><circle cx="12545.18" cy="12544.84" r="10379.36" fill="#fefefe"/><path d="M9317.12 9360.06l5927.82-3.88c56.95-.05 103.6 66.97 103.66 148.93l1.21 3944.87c.06 81.96-46.53 149.04-103.54 149.04l-5927.82 3.88c-56.96.06-103.61-66.97-103.61-148.92l-1.27-3944.88c0-81.96 46.59-149.04 103.55-149.04zm3088.95-2549.35l3292.47 1580.86c89.19 42.77 68.12 363.19 0 442.95-46.42 54.35-96.03 44.68-162.76 44.68H9027.6c-66.67 0-116.28 9.67-162.75-44.68-68.07-79.76-89.37-400.06 0-442.95l3292.46-1580.86c91.8-43 159.98-43.81 248.76 0zm2022.42 11397.99l-1658.41 3123.92c-19.51 36-46.13 67.08-77.62 92.14-123.69 98.69-290.26 57.71-372.05-91.39l-1610.26-2944.78c-205.93-344.61-297.15-641.88-297.15-1079.04 0-1163.09 942.91-2106 2106.05-2106 1163.15 0 2106.06 942.91 2106.06 2106 0 313.65-64.02 649.4-196.62 899.15zm-1909.44-1995.79c605.65 0 1096.64 490.99 1096.64 1096.64 0 605.7-490.99 1096.64-1096.64 1096.64-605.64 0-1096.63-490.94-1096.63-1096.64 0-605.65 490.99-1096.64 1096.63-1096.64zm-4552.84-1189.94c517.1 0 936.2 419.1 936.2 936.14 0 517.03-419.1 936.2-936.2 936.2-517.03 0-936.14-419.17-936.14-936.2 0-517.04 419.11-936.14 936.14-936.14zm1630.06 1703.73l-1415.73 2666.79c-16.67 30.79-39.36 57.24-66.27 78.72-105.57 84.21-247.78 49.19-317.59-78.03L6422.05 16880.2c-175.84-294.14-253.68-547.89-253.68-921.09 0-992.92 804.92-1797.85 1797.84-1797.85 992.98 0 1797.91 804.93 1797.91 1797.85 0 267.75-54.64 554.37-167.85 767.59zm-4052.13-5802.51c443.99 0 803.88 359.95 803.88 803.89 0 443.99-359.89 803.94-803.88 803.94s-803.89-359.95-803.89-803.94c0-443.94 359.9-803.89 803.89-803.89zm1399.69 1463.02L5728.2 14677.2c-14.36 26.39-33.86 49.14-56.96 67.54-90.64 72.35-212.76 42.31-272.67-67.02l-1180.44-2158.67c-150.95-252.58-217.8-470.5-217.8-790.97 0-852.62 691.19-1543.82 1543.81-1543.82 852.68 0 1543.87 691.2 1543.87 1543.82 0 229.95-46.94 476.05-144.18 659.13zm10180.33 2635.7c-517.04 0-936.2 419.16-936.2 936.2 0 517.03 419.16 936.2 936.2 936.2s936.2-419.17 936.2-936.2c0-517.04-419.16-936.2-936.2-936.2zm-1630.05 1703.79l1415.72 2666.79c16.73 30.79 39.42 57.3 66.27 78.66 105.58 84.27 247.84 49.25 317.59-78.02l1374.69-2513.87c175.84-294.2 253.68-547.95 253.68-921.15 0-992.92-804.98-1797.85-1797.9-1797.85-992.92 0-1797.9 804.93-1797.9 1797.85 0 267.75 54.63 554.37 167.85 767.59zm4052.12-5802.51c-443.93 0-803.88 359.95-803.88 803.89 0 443.99 359.95 803.94 803.88 803.94 444 0 803.95-359.95 803.95-803.94 0-443.94-359.95-803.89-803.95-803.89zm-1399.69 1463.02l1215.7 2289.99c14.35 26.39 33.8 49.2 56.89 67.54 90.64 72.41 212.82 42.31 272.73-67.02l1180.39-2158.67c151-252.58 217.86-470.5 217.86-790.97 0-852.62-691.2-1543.82-1543.88-1543.82-852.62 0-1543.81 691.2-1543.81 1543.82 0 229.95 46.88 476.05 144.12 659.13z" fill="#2b2a29"/></svg>