<svg xmlns="http://www.w3.org/2000/svg" width="512" height="512" viewBox="0 0 249.63 249.63" shape-rendering="geometricPrecision" text-rendering="geometricPrecision" image-rendering="optimizeQuality" fill-rule="evenodd" clip-rule="evenodd"><path d="M18.87 0h211.9c10.38 0 18.86 8.49 18.86 18.87v211.9c0 10.38-8.48 18.86-18.86 18.86H18.87C8.49 249.63 0 241.15 0 230.77V18.87C0 8.49 8.49 0 18.87 0z" fill="#fcbf0e"/><path d="M33.48 24.2h182.67c7.36 0 9.29 2.09 9.29 9.28v182.67c0 7.19-1.93 9.29-9.29 9.29H33.48c-7.35 0-9.28-2.1-9.28-9.29V33.48c0-7.19 1.93-9.28 9.28-9.28z" fill="#fefefe"/><path d="M138.6 39.6c2.67 1.45 3.66 2.09 3.64 5.65-.02 5.85 0 9.9 0 15.75 0 6.56-8.61 11.03-13.93 11.15-5.32-.12-13.93-4.59-13.93-11.15 0-5.85.02-9.9 0-15.75-.02-3.56.97-4.2 3.64-5.65 6.57-3.59 14.01-3.59 20.58 0zm45.23 35.66h-.01c-3.52-.09-9.21-3.6-9.21-8.76V51.68c-1.55 2.11-1.33 5.91-1.32 8.51.02 4.87 0 3.71 0 8.59 0 2.38.11 4.42 2.04 5.99l-1.86.65a45.76 45.76 0 00-7.66 3.59c3.74-5.23 3.38-13.07 3.4-20.33.05-11.05 5.99-14.66 14.38-14.73.19 0 .37 0 .56.01 8.34.08 14.24 3.71 14.29 14.72.02 7.26-.34 15.1 3.4 20.33a45.76 45.76 0 00-7.66-3.59l-1.85-.65c1.92-1.57 2.03-3.61 2.03-5.99 0-4.88-.02-3.72 0-8.59.01-2.6.23-6.4-1.32-8.51v1.94c0 .16.01.33 0 .51V66.5c0 5.16-5.69 8.67-9.21 8.76zM80.59 46.04c2.36 1.29 3.23 1.85 3.21 4.99-.02 5.16 0 8.73 0 13.9 0 5.78-7.59 9.73-12.29 9.83-4.7-.1-12.29-4.05-12.29-9.83 0-5.17.02-8.74 0-13.9-.01-3.14.86-3.7 3.21-4.99 5.8-3.16 12.36-3.16 18.16 0zm9.82 98.34v45.57c0 4.86-3.98 8.83-8.83 8.83h-.01c-4.86 0-8.25-3.97-8.25-8.83v-43.51h-2.56v43.51c0 4.86-3.4 8.83-8.26 8.83-4.86 0-8.84-3.97-8.84-8.83v-43.51h-.01V99.77c0-.99-.81-1.8-1.8-1.8s-1.8.81-1.8 1.8v32.59c0 3.29-2.69 5.98-5.98 5.98-3.29 0-5.99-2.69-5.99-5.98V93.79c-.03-4.89 1.51-8.85 6.52-11.3l15.76-5.34 6.51 10.62 3.69-7.02-1.6-3.14c.89.19 1.76.3 2.55.31 1.14-.02 2.43-.23 3.75-.62l-1.75 3.45 3.68 7.02 6.51-10.62 9.46 3.21c-4.02 3.2-5.68 7.73-5.68 13.35v43.72c0 2.72 1.12 5.18 2.93 6.95zm107.49 5.53v40.9c0 3.82-2.25 6.94-5.48 6.94-3.22 0-5.86-3.12-5.86-6.94v-38.75c-1.8.11-3.6.1-5.4-.01v38.76c0 3.82-2.26 6.94-5.48 6.94-3.22 0-5.86-3.12-5.86-6.94v-40.92c-2.43-.78-4.86-1.75-7.29-2.92 4.44-.9 7.8-4.84 7.8-9.54 0-14.57-.03-29.14-.01-43.71.01-4.94-1.27-9.04-4.31-12.13 2.41-1.74 5.15-3.14 8.09-4.2l9.88 17.85 9.56-17.85c10.1 3.65 17.97 11.98 17.9 22.76 0 9.08.11 16.72.11 25.84 0 2.98-.87 5.18-3.85 5.18s-4.63-2.12-4.63-5.1l-.95-25.78c-.03-.88-.67-1.6-1.5-1.6-.82 0-1.38.73-1.49 1.6-2.17 16.72 2.22 30.08 6.37 46.53a55.62 55.62 0 01-7.6 3.09zm-48.17-6.22v59.02c0 5.51-4.5 10.02-10.01 10.02s-9.36-4.51-9.36-10.02V153.4h-2.91v49.31c0 5.51-3.85 10.02-9.36 10.02s-10.01-4.51-10.01-10.02V153.4h-.01v-52.91c0-1.12-.92-2.04-2.04-2.04s-2.04.92-2.04 2.04v36.94c0 3.73-3.05 6.79-6.79 6.79-3.73 0-6.78-3.06-6.78-6.79V93.71c-.04-5.54 1.71-10.03 7.39-12.8l17.86-6.05 7.38 12.03 4.18-7.96-1.81-3.56c1.01.22 1.99.34 2.89.36 1.29-.02 2.75-.27 4.25-.7l-1.99 3.9 4.18 7.96 7.38-12.03 17.86 6.05c5.68 2.77 7.43 7.26 7.39 12.8v43.72c0 3.73-3.05 6.79-6.78 6.79-3.73 0-6.78-3.06-6.78-6.79v-1.29h-.01v-35.65c0-1.12-.92-2.04-2.04-2.04s-2.04.92-2.04 2.04v43.2z" fill="#2b2a29"/></svg>