<svg xmlns="http://www.w3.org/2000/svg" width="512" height="512" viewBox="0 0 248.72 248.72" shape-rendering="geometricPrecision" text-rendering="geometricPrecision" image-rendering="optimizeQuality" fill-rule="evenodd" clip-rule="evenodd"><path d="M18.8 0h211.12c10.34 0 18.8 8.46 18.8 18.8v211.12c0 10.34-8.46 18.8-18.8 18.8H18.8c-10.34 0-18.8-8.46-18.8-18.8V18.8C0 8.46 8.46 0 18.8 0z" fill="#fcbf0e"/><path d="M33.36 24.11h181.99c7.34 0 9.26 2.09 9.26 9.25v181.99c0 7.17-1.92 9.26-9.26 9.26H33.36c-7.33 0-9.25-2.09-9.25-9.26V33.36c0-7.16 1.92-9.25 9.25-9.25z" fill="#fefefe"/><path d="M69.34 46.7h91.7l29.19 30.36v116.25c0 4.61-3.77 8.39-8.39 8.39H69.34c-4.62 0-8.39-3.78-8.39-8.39V55.09c0-4.61 3.77-8.39 8.39-8.39zm46.35 45.5h58.32c1.29 0 2.34.99 2.34 2.2v6.34c0 1.21-1.05 2.2-2.34 2.2h-60.87c1.63-3.05 2.56-6.54 2.56-10.24l-.01-.5zM93.92 74.73c9.92 0 17.96 8.05 17.96 17.97 0 9.92-8.04 17.96-17.96 17.96-9.92 0-17.96-8.04-17.96-17.96 0-9.92 8.04-17.97 17.96-17.97zm0 4.1c7.66 0 13.87 6.21 13.87 13.87 0 7.65-6.21 13.86-13.87 13.86-7.66 0-13.86-6.21-13.86-13.86 0-7.66 6.2-13.87 13.86-13.87zm-10 15.08c-1-1.01-.99-2.65.03-3.65 1.01-1 2.65-.99 3.65.03l3.91 3.97 8.76-8.62c1.02-1 2.66-.99 3.66.03 1 1.01.98 2.65-.03 3.65L93.3 99.76c-1.02 1-2.66.98-3.66-.03l-5.72-5.82zm31.77 37.56h58.32c1.29 0 2.34.99 2.34 2.2v6.35c0 1.21-1.05 2.19-2.34 2.19h-60.87c1.63-3.05 2.56-6.53 2.56-10.24l-.01-.5zm-21.77-17.46c9.92 0 17.96 8.04 17.96 17.96 0 9.92-8.04 17.97-17.96 17.97-9.92 0-17.96-8.05-17.96-17.97 0-9.92 8.04-17.96 17.96-17.96zm0 4.1c7.66 0 13.87 6.21 13.87 13.86 0 7.66-6.21 13.87-13.87 13.87-7.66 0-13.86-6.21-13.86-13.87 0-7.65 6.2-13.86 13.86-13.86zm-10 15.08c-1-1.02-.99-2.65.03-3.66 1.01-1 2.65-.98 3.65.03l3.91 3.98 8.76-8.63c1.02-1 2.66-.98 3.66.03 1 1.02.98 2.66-.03 3.66l-10.6 10.43c-1.02 1-2.66.99-3.66-.03l-5.72-5.81zm31.77 37.58h58.32c1.29 0 2.34.99 2.34 2.19v6.35c0 1.21-1.05 2.2-2.34 2.2h-60.87c1.63-3.06 2.56-6.54 2.56-10.24l-.01-.5zM93.92 153.3c9.92 0 17.96 8.04 17.96 17.97 0 9.92-8.04 17.96-17.96 17.96-9.92 0-17.96-8.04-17.96-17.96 0-9.93 8.04-17.97 17.96-17.97zm0 4.1c7.66 0 13.87 6.21 13.87 13.87 0 7.65-6.21 13.86-13.87 13.86-7.66 0-13.86-6.21-13.86-13.86 0-7.66 6.2-13.87 13.86-13.87zm-10 15.08c-1-1.02-.99-2.65.03-3.65 1.01-1 2.65-.99 3.65.03l3.91 3.97 8.76-8.62c1.02-1 2.66-.99 3.66.03 1 1.01.98 2.65-.03 3.65l-10.6 10.43c-1.02 1-2.66.99-3.66-.02l-5.72-5.82zm99.01-87.04h-18.2c-6.7 0-12.17-5.47-12.17-12.17V54H69.34c-.59 0-1.09.51-1.09 1.09v138.22c0 .58.5 1.09 1.09 1.09h112.5c.59 0 1.09-.51 1.09-1.09V85.44z" fill="#2b2a29"/></svg>