<svg xmlns="http://www.w3.org/2000/svg" width="512" height="512" viewBox="0 0 469.13 469.13" shape-rendering="geometricPrecision" text-rendering="geometricPrecision" image-rendering="optimizeQuality" fill-rule="evenodd" clip-rule="evenodd"><defs><style>.fil1{fill:#2b2a29}.fil0{fill:#fcbf0e}</style></defs><g id="Слой_x0020_1"><g id="_493491952864"><path class="fil0" d="M35.45 0h398.22c19.5 0 35.46 15.95 35.46 35.45v398.22c0 19.5-15.96 35.46-35.46 35.46H35.45C15.95 469.13 0 453.17 0 433.67V35.45C0 15.95 15.95 0 35.45 0z"/><path class="fil1" d="M56.24 184.63c79.74-25.43 222.54-67.99 302.27-93.42 2.96-.94 6.16.71 7.1 3.67l12.99 40.73c-12.97 6.91-19.51 22.32-14.81 36.78 4.66 14.35 18.83 22.95 33.26 21.1l13.45 42.16c.94 2.95-.71 6.15-3.67 7.1-79.73 25.42-224.17 71.87-303.9 97.29-2.96.95-6.15-.7-7.1-3.66l-2.53-12.73c19.47 3.96 37.33-54.39-5.28-48.92l-8.62 2.21-26.82-85.22c-.91-2.97.71-6.15 3.66-7.09z"/><path class="fil0" d="M94.71 385.97c-8.16-.05-14.77-6.73-14.73-14.89l.28-50.39 7.52-1.34c10.34-1.83 17.89-10.87 17.89-21.38 0-10.42-7.43-14.11-17.66-16.04l-7.5-1.42.28-57.18c.04-8.16 6.73-14.77 14.89-14.73 106.37.58 212.73.79 319.1 1.37 8.16.05 14.77 6.73 14.72 14.9l-.27 50.38-7.52 1.34c-10.34 1.83-17.89 10.87-17.89 21.38 0 10.42 7.42 19.41 17.66 21.34l7.5 1.42-.28 51.88c-.05 8.17-6.73 14.78-14.89 14.73-106.37-.58-212.73-.79-319.1-1.37z"/><path d="M95.63 217.76c83.69.46 235.41.92 319.1 1.37 3.1.02 5.63 2.58 5.61 5.69l-.23 42.75c-14.47 2.56-25.45 15.2-25.45 30.4 0 15.09 10.82 27.64 25.12 30.34l-.24 44.25c-.02 3.11-2.58 5.64-5.68 5.62-83.69-.46-235.41-.92-319.1-1.37-3.1-.02-5.63-2.58-5.61-5.68l.23-42.76c14.46-2.56 25.45-15.2 25.45-30.4 0-15.08-10.82-27.64-25.12-30.34l.24-44.25c.02-3.11 2.58-5.64 5.68-5.62zm58.18 28.78l4.35.03c2.71.01 4.91 2.37 4.9 5.24l-.51 91.59c-.01 2.87-2.24 5.21-4.94 5.2l-4.36-.03c-2.71-.01-4.91-2.37-4.89-5.24.25-46.78.24-44.82.5-91.6.02-2.87 2.24-5.2 4.95-5.19zm198.07.81l4.36.02c2.7.01 4.91 2.37 4.89 5.25-.26 46.77-.25 44.82-.5 91.59-.02 2.87-2.25 5.21-4.95 5.19l-4.36-.02c-2.7-.02-4.9-2.38-4.89-5.25.26-46.77.25-44.82.5-91.59.02-2.87 2.25-5.21 4.95-5.19z" fill="#fefefe"/><path class="fil0" d="M234.56 249.19c50.99 0 92.33 41.34 92.33 92.33 0 50.99-41.34 92.33-92.33 92.33-50.99 0-92.33-41.34-92.33-92.33 0-50.99 41.34-92.33 92.33-92.33z"/><circle class="fil1" cx="234.56" cy="341.52" r="79.5"/><path class="fil0" d="M304.41 295.09l6.35 6.35c3.41 3.41 3.41 8.98 0 12.39l-69.35 69.35c-3.41 3.41-8.98 3.41-12.39 0l-6.35-6.35c-3.41-3.41-3.41-8.99 0-12.39l73.93-73.79c3.41-3.41 4.4 1.03 7.81 4.44z"/><path class="fil0" d="M188.45 330.74l6.35-6.35c3.41-3.41 8.99-3.4 12.4 0l40.31 40.32c3.41 3.4 3.4 8.99 0 12.39l-6.35 6.35c-3.4 3.4-8.98 3.41-12.39 0l-40.32-40.32c-3.4-3.41-3.41-8.98 0-12.39z"/></g></g></svg>