<svg xmlns="http://www.w3.org/2000/svg" width="512" height="512" viewBox="0 0 145.16 145.16" shape-rendering="geometricPrecision" text-rendering="geometricPrecision" image-rendering="optimizeQuality" fill-rule="evenodd" clip-rule="evenodd"><path d="M10.97 0h123.22c6.03 0 10.97 4.94 10.97 10.97v123.22c0 6.03-4.94 10.97-10.97 10.97H10.97C4.94 145.16 0 140.22 0 134.19V10.97C0 4.94 4.94 0 10.97 0z" fill="#fcbf0e"/><path d="M100.48 65.39l-24.23 45.65c-.29.53-.68.98-1.14 1.35-1.81 1.44-4.24.84-5.43-1.34L46.14 68.02c-3.01-5.04-4.34-9.39-4.34-15.77 0-17 13.78-30.78 30.78-30.78s30.78 13.78 30.78 30.78c0 4.58-.94 9.49-2.88 13.14z" fill="#fefefe"/><path d="M50.6 124.3v-2.78c0-1.49 1.22-2.71 2.71-2.71h38.53c1.49 0 2.72 1.22 2.72 2.71v2.78c0 1.48-1.23 2.71-2.72 2.71H53.31c-1.49 0-2.71-1.22-2.71-2.71zm21.98-88.08c8.85 0 16.02 7.18 16.02 16.03 0 8.85-7.17 16.02-16.02 16.02S56.55 61.1 56.55 52.25s7.18-16.03 16.03-16.03z" fill="#2b2a29"/></svg>