<svg xmlns="http://www.w3.org/2000/svg" width="512" height="512" viewBox="0 0 148.52 148.52" shape-rendering="geometricPrecision" text-rendering="geometricPrecision" image-rendering="optimizeQuality" fill-rule="evenodd" clip-rule="evenodd"><defs><style>.fil0{fill:#fcbf0e}</style></defs><g id="Слой_x0020_1"><g id="_493587590400"><path class="fil0" d="M11.22 0h126.07c6.18 0 11.23 5.05 11.23 11.22v126.07c0 6.18-5.05 11.23-11.23 11.23H11.22C5.05 148.52 0 143.47 0 137.29V11.22C0 5.05 5.05 0 11.22 0z"/><path d="M17.81 58.45c25.24-8.05 70.45-21.52 95.69-29.57.94-.3 1.95.22 2.25 1.16l4.11 12.89c-4.11 2.19-6.18 7.07-4.69 11.65 1.47 4.54 5.96 7.26 10.53 6.67l4.26 13.35a1.8 1.8 0 01-1.16 2.25c-25.25 8.05-70.97 22.75-96.21 30.8-.94.3-1.95-.22-2.25-1.16l-.8-4.03c6.16 1.25 11.82-17.22-1.67-15.48l-2.73.69-8.5-26.97c-.28-.94.23-1.95 1.17-2.25z" fill="#2b2a29"/><path class="fil0" d="M29.98 122.19c-2.58-.01-4.67-2.13-4.66-4.71l.09-15.96 2.38-.42c3.27-.58 5.66-3.44 5.66-6.77 0-3.3-2.35-4.47-5.59-5.08l-2.37-.45.09-18.1c.01-2.58 2.13-4.67 4.71-4.66 33.67.18 67.35.25 101.02.43 2.58.02 4.68 2.13 4.66 4.72l-.08 15.95-2.38.42a6.883 6.883 0 00-5.67 6.77c0 3.3 2.35 6.15 5.59 6.76l2.38.45-.09 16.42a4.705 4.705 0 01-4.72 4.67c-33.67-.19-67.34-.26-101.02-.44z"/><path d="M30.28 68.94c26.49.14 74.52.29 101.01.43.99.01 1.79.82 1.78 1.8L133 84.71c-4.58.81-8.06 4.81-8.06 9.62 0 4.78 3.43 8.75 7.95 9.61l-.07 14.01c-.01.98-.82 1.78-1.8 1.78-26.49-.15-74.53-.29-101.02-.44-.98-.01-1.78-.81-1.78-1.8l.08-13.53a9.777 9.777 0 008.05-9.63 9.77 9.77 0 00-7.95-9.6l.08-14.01c0-.99.81-1.79 1.8-1.78zm18.41 9.11l1.38.01c.86 0 1.56.75 1.55 1.66-.08 14.81-.08 14.19-.16 29 0 .9-.71 1.64-1.56 1.64l-1.38-.01c-.86 0-1.56-.75-1.55-1.66.08-14.81.08-14.19.16-29 0-.9.71-1.64 1.56-1.64zm62.71.26h1.38c.86.01 1.55.75 1.55 1.66-.08 14.81-.08 14.19-.16 29-.01.91-.71 1.65-1.57 1.64h-1.38c-.85-.01-1.55-.76-1.55-1.66.09-14.81.08-14.19.16-29 .01-.91.71-1.65 1.57-1.64z" fill="#fefefe"/></g></g></svg>