<svg xmlns="http://www.w3.org/2000/svg" width="512" height="512" viewBox="0 0 144.39 144.39" shape-rendering="geometricPrecision" text-rendering="geometricPrecision" image-rendering="optimizeQuality" fill-rule="evenodd" clip-rule="evenodd"><defs><style>.fil1{fill:#2b2a29}.fil0{fill:#fcbf0e}</style></defs><g id="Слой_x0020_1"><g id="_493587588512"><path class="fil0" d="M10.91 0h122.57c6 0 10.91 4.91 10.91 10.91v122.57c0 6-4.91 10.91-10.91 10.91H10.91c-6 0-10.91-4.91-10.91-10.91V10.91C0 4.91 4.91 0 10.91 0z"/><path class="fil1" d="M24.72 116.06c-2.45.79-4.46-.93-4.46-3.83V50.71c0-2.9 2.01-5.92 4.46-6.72l76.13-24.63c2.45-.8 4.46.93 4.46 3.83v61.52c0 2.9-2.01 5.92-4.46 6.72C62 104 36.05 112.39 24.72 116.06z"/><path class="fil0" d="M25.71 123.34c-4.49 0-8.27-3.57-8.27-8.1V53.73c0-4.52 3.78-8.1 8.27-8.1h93.01c4.48 0 8.27 3.58 8.27 8.1v61.51c0 4.53-3.79 8.1-8.27 8.1H25.71z"/><path d="M25.71 120.52c-3 0-5.45-2.37-5.45-5.28V53.73c0-2.9 2.45-5.28 5.45-5.28h93.01c3 0 5.45 2.38 5.45 5.28v61.51c0 2.91-2.45 5.28-5.45 5.28H25.71z" fill="#fefefe"/><path class="fil1" d="M86.31 78.28l-3.69 8.49c-.05.13-.12.25-.19.37l1.96 4.56c.12.26.38.42.65.42h6.19c.3 0 .56-.19.66-.45l2.63-6.1 2.65 6.13c.11.26.37.42.64.42h6.18c.23 0 .55-.2.68-.54l2.6-6 3.86-8.91 2.3-5.31a.694.694 0 00-.36-.91.722.722 0 00-.28-.07h-6.18a.7.7 0 00-.66.49l-2.31 5.32-.16.37-2.58 5.95-2.65-6.14a.691.691 0 00-.64-.43h-6.18c-.3 0-.55.19-.65.45l-2.65 6.13-1.82-4.24zm-25.5 0l-3.68 8.49c-.05.13-.12.25-.2.37l1.97 4.56c.12.26.37.42.64.42h6.2c.3 0 .55-.19.65-.45l2.64-6.1 2.65 6.13c.11.26.37.42.64.42h6.18c.23 0 .55-.2.68-.54l8.76-20.22a.694.694 0 00-.36-.91.722.722 0 00-.28-.07h-6.18c-.31 0-.58.21-.67.49l-5.04 11.64-2.65-6.14a.691.691 0 00-.64-.43h-6.18c-.3 0-.55.19-.66.45l-2.64 6.13-1.83-4.24zm-4.52 7.36l3.66-8.46c.09-.23.14-.38.14-.43 0-.1-.02-.21-.07-.3l-.03-.08-.02-.05-.7-1.61-1.69-3.9a.697.697 0 00-.64-.42H34.8a.696.696 0 00-.63 1l2.44 5.64c.12.27.37.42.64.42h14.86l-.35.81-.62 1.44H39.22c-.3 0-.55.18-.65.44l-2.45 5.65-.03.06-5.1 11.76c-.15.36.01.77.37.92.09.04.18.06.27.06h6.18a.7.7 0 00.67-.49l4.92-11.34h10.36c.04 0 .08 0 .11-.01h1.56c.26-.03.48-.21.57-.45l.29-.66z"/></g></g></svg>