<svg xmlns="http://www.w3.org/2000/svg" width="512" height="512" viewBox="0 0 88.61 88.61" shape-rendering="geometricPrecision" text-rendering="geometricPrecision" image-rendering="optimizeQuality" fill-rule="evenodd" clip-rule="evenodd"><defs><style>.fil1{fill:#2b2a29}.fil0{fill:#fcbf0e}</style></defs><g id="Слой_x0020_1"><g id="_493730256160"><path class="fil0" d="M6.7 0h75.21c3.69 0 6.7 3.01 6.7 6.7v75.21c0 3.69-3.01 6.7-6.7 6.7H6.7c-3.69 0-6.7-3.01-6.7-6.7V6.7C0 3.01 3.01 0 6.7 0z"/><path class="fil1" d="M17.05 69.46c-1.4.45-2.55-.54-2.55-2.2v-35.3c0-1.66 1.15-3.4 2.55-3.85l43.69-14.14c1.4-.45 2.55.54 2.55 2.2v35.3c0 1.66-1.15 3.4-2.55 3.85-22.29 7.22-37.18 12.03-43.69 14.14z"/><path class="fil0" d="M17.62 73.75c-2.63 0-4.85-2.1-4.85-4.76v-35.3c0-2.65 2.22-4.75 4.85-4.75h53.37c2.63 0 4.86 2.1 4.86 4.75v35.3c0 2.66-2.23 4.76-4.86 4.76H17.62z"/><path d="M17.62 72.02c-1.72 0-3.12-1.37-3.12-3.03v-35.3c0-1.66 1.4-3.02 3.12-3.02h53.37c1.72 0 3.13 1.36 3.13 3.02v35.3c0 1.66-1.41 3.03-3.13 3.03H17.62z" fill="#fefefe"/><circle class="fil1" cx="66.29" cy="51.34" r="2.61" stroke="#2b2a29" stroke-width=".02" stroke-miterlimit="22.926"/></g></g></svg>