<svg xmlns="http://www.w3.org/2000/svg" width="512" height="512" viewBox="0 0 293.54 293.54" shape-rendering="geometricPrecision" text-rendering="geometricPrecision" image-rendering="optimizeQuality" fill-rule="evenodd" clip-rule="evenodd"><path d="M22.18 0h249.18c12.2 0 22.18 9.98 22.18 22.18v249.18c0 12.2-9.98 22.18-22.18 22.18H22.18C9.98 293.54 0 283.56 0 271.36V22.18C0 9.98 9.98 0 22.18 0z" fill="#fcbf0e"/><path d="M37.24 37.24v73.4h19.55V56.79h53.85V37.24h-73.4zm0 145.66v73.4h73.4v-19.55H56.79V182.9H37.24zm145.66 73.4h73.4v-73.4h-19.55v53.85H182.9v19.55zm73.4-145.66v-73.4h-73.4v19.55h53.85v53.85h19.55z" fill="#fefefe"/></svg>