<svg xmlns="http://www.w3.org/2000/svg" viewBox="0 0 299.995 299.995" width="512" height="512"><g fill="#3242B8"><path d="M149.992.001C67.156.001 0 67.159 0 149.998c0 82.837 67.156 149.997 149.992 149.997 82.842 0 150.003-67.161 150.003-149.997C299.995 67.159 232.834.001 149.992.001zm60.955 217.131v10.374c0 5.729-4.645 10.374-10.374 10.374H96.829c-11.458 0-20.749-9.29-20.749-20.749V86.592c0-11.458 9.29-20.749 20.749-20.749h103.743c5.729 0 10.374 4.645 10.374 10.374v10.375h.001v130.54zm20.748-130.54v140.914c0 5.729-4.645 10.374-10.374 10.374h-2.806a20.592 20.592 0 0 0 2.806-10.374V76.219c0-3.781-1.032-7.319-2.806-10.374h2.806c5.729 0 10.374 4.645 10.374 10.374v10.373z"/><path d="M175.591 165.517s-3.909-4.692-8.237-1.455c-3.226 2.412-9.023 7.776-10.416 9.078 0 0-9.69-5.166-15.424-9.884-8.494-6.985-14.174-15.608-17.151-20.513l-2.223-4.191c.775-.835 6.71-7.189 9.277-10.639 3.232-4.326-1.452-8.235-1.452-8.235s-13.183-13.183-16.184-15.798c-3.003-2.622-6.461-1.167-6.461-1.167-6.315 4.082-12.859 7.628-13.248 24.686-.013 15.969 12.109 32.438 25.215 45.188 13.131 14.402 31.162 28.833 48.588 28.817 17.055-.384 20.598-6.93 24.678-13.245 0 0 1.46-3.455-1.159-6.458-2.62-3.008-15.803-16.184-15.803-16.184z"/></g></svg>