<svg width="67" height="67" viewBox="0 0 67 67" fill="none" xmlns="http://www.w3.org/2000/svg"><g opacity=".6" fill="#fff"><path d="M65.953 32.453H63.84c-.26-7.717-3.386-14.934-8.873-20.42-5.486-5.487-12.703-8.613-20.42-8.873V1.047a1.047 1.047 0 00-2.094 0V3.16c-7.717.26-14.934 3.386-20.42 8.873-5.487 5.486-8.613 12.704-8.873 20.42H1.047a1.047 1.047 0 000 2.094H3.16c.26 7.717 3.386 14.934 8.873 20.42 5.486 5.487 12.703 8.613 20.42 8.873v2.113a1.047 1.047 0 002.094 0V63.84c7.717-.26 14.934-3.386 20.42-8.873 5.487-5.486 8.613-12.703 8.873-20.42h2.113a1.047 1.047 0 000-2.094zm-52.44-18.94c5.091-5.09 11.783-7.999 18.94-8.258v2.096c-13.6.538-24.564 11.502-25.102 25.102H5.255c.26-7.157 3.167-13.849 8.258-18.94zm0 39.974c-5.09-5.091-7.999-11.783-8.258-18.94H7.35a26.137 26.137 0 006.52 16.264 1.044 1.044 0 001.478.092 1.047 1.047 0 00.093-1.477 24.044 24.044 0 01-5.996-14.88h5.211a1.047 1.047 0 000-2.093h-5.21C9.98 20.008 20.008 9.981 32.453 9.446v5.21a1.047 1.047 0 002.094 0v-5.21a23.97 23.97 0 0111.995 3.81 1.047 1.047 0 101.135-1.76 26.06 26.06 0 00-13.13-4.146V5.255c7.157.26 13.849 3.167 18.94 8.258 5.09 5.091 7.999 11.783 8.258 18.94H59.65a26.06 26.06 0 00-4.148-13.131 1.047 1.047 0 00-1.758 1.136 23.97 23.97 0 013.81 11.995h-5.21a1.047 1.047 0 000 2.094h5.21c-.535 12.445-10.562 22.472-23.007 23.007v-5.21a1.047 1.047 0 00-2.094 0v5.212c-5.142-.215-9.962-2.021-13.997-5.255a1.047 1.047 0 00-1.31 1.634 26.247 26.247 0 0015.307 5.715v2.095c-7.157-.26-13.849-3.167-18.94-8.258zm39.974 0c-5.091 5.09-11.783 7.999-18.94 8.258v-2.096c13.6-.538 24.564-11.502 25.102-25.102h2.096c-.26 7.157-3.167 13.849-8.258 18.94z"/><path d="M49.553 15.554c.705.63 1.38 1.31 2.005 2.02a1.045 1.045 0 001.478.091 1.047 1.047 0 00.092-1.477 26.44 26.44 0 00-2.178-2.194 1.047 1.047 0 00-1.397 1.56zM20.938 34.547h3.2a9.438 9.438 0 008.315 8.315v3.2a1.047 1.047 0 002.094 0v-3.2a9.438 9.438 0 008.315-8.315h3.2a1.047 1.047 0 000-2.094h-3.2a9.438 9.438 0 00-8.315-8.315v-3.2a1.047 1.047 0 00-2.094 0v3.2a9.438 9.438 0 00-8.315 8.315h-3.2a1.047 1.047 0 000 2.094zm5.31 0h6.205v6.205a7.343 7.343 0 01-6.205-6.205zm8.299 6.205v-6.205h6.205a7.343 7.343 0 01-6.205 6.205zm6.205-8.299h-6.205v-6.205c3.204.46 5.745 3 6.205 6.205zm-8.299-6.205v6.205h-6.205c.46-3.204 3-5.745 6.205-6.205z"/></g></svg>