<svg width="67" height="67" viewBox="0 0 67 67" fill="none" xmlns="http://www.w3.org/2000/svg"><path d="M60.345 51.607a7.046 7.046 0 00-3.136-5.858V29.827c0-2.821-2.09-5.758-4.757-6.686l-10.488-3.648a9.911 9.911 0 00-.466-2.341l7.567-7.558 2.888-2.884a1.07 1.07 0 000-1.513L47.063.313a1.07 1.07 0 00-1.511 0L35.096 10.755a9.985 9.985 0 00-3.117-.497c-5.524 0-10.017 4.489-10.017 10.006 0 .038.002.075.003.112L17.47 22.33a1.07 1.07 0 00-.554 1.408l2.257 5.175a1.07 1.07 0 001.406.554l4.5-1.958c.87.826 1.884 1.5 3.004 1.974v4.893c0 .59.479 1.069 1.07 1.069h5.65a1.07 1.07 0 001.07-1.07v-4.892a10.061 10.061 0 003.64-2.637l7.01 4.218c.687.414 1.313 1.521 1.313 2.323v3.155a1.07 1.07 0 102.138 0v-3.155c0-1.562-1.01-3.348-2.35-4.155l-6.876-4.139a9.926 9.926 0 001.138-3.363l9.863 3.43c1.8.627 3.321 2.764 3.321 4.667v9.917H23.785a1.07 1.07 0 100 2.139h14.478v13.051H28.6c-.59 0-1.07.479-1.07 1.07v4.625H11.96a5.31 5.31 0 00-5.305 5.302c0 .59.478 1.069 1.069 1.069H56.14c.59 0 1.07-.479 1.07-1.07v-8.465a7.046 7.046 0 003.135-5.858zM43.42 5.465l3.377 3.373-6.535 6.527-3.377-3.373 6.535-6.527zm2.888-2.885l3.377 3.373-1.375 1.374-3.377-3.373 1.375-1.374zM19.305 23.865l2.933-1.276a9.95 9.95 0 001.403 3.214l-2.934 1.277-1.402-3.215zm14.43 9.442h-3.513v-3.193c.571.101 1.157.157 1.757.157.6 0 1.185-.056 1.756-.157v3.193zm-1.756-5.174c-4.345 0-7.879-3.53-7.879-7.868 0-4.339 3.534-7.868 7.879-7.868.964 0 1.903.17 2.793.508l4.577 4.571c.337.889.508 1.826.508 2.789 0 4.338-3.534 7.868-7.878 7.868zm-2.31 28.94h8.594v3.557h-8.594v-3.557zm25.402 7.789H8.979a3.173 3.173 0 012.982-2.094h39.903a1.07 1.07 0 000-2.138H40.4V41.883h14.67v2.903a7.049 7.049 0 00-1.782-.228c-3.89 0-7.056 3.162-7.056 7.05 0 3.886 3.165 7.048 7.056 7.048.615 0 1.212-.08 1.782-.228v6.434zm.565-8.94a4.894 4.894 0 01-2.347.596 4.92 4.92 0 01-4.918-4.91 4.92 4.92 0 017.256-4.32l.008.004a4.914 4.914 0 012.572 4.315c0 1.86-1.04 3.481-2.57 4.315z" fill="#fff" opacity=".6"/></svg>