<svg width="67" height="67" viewBox="0 0 67 67" fill="none" xmlns="http://www.w3.org/2000/svg"><g opacity=".6" clip-path="url(#clip0)" fill="#fff"><path d="M40.285 54.06a1.24 1.24 0 001.056-.002c2.639-1.252 5.174-3.636 5.171-6.706-.003-2.975-3.648-4.455-5.705-2.36-2.099-2.103-5.71-.593-5.707 2.371.004 3.135 2.68 5.514 5.185 6.696zm-.64-7.38c.181.32.654.672 1.197.657.465-.012.889-.28 1.122-.655.811-1.305 2.584-.653 2.586.672.002 2.115-1.904 3.806-3.74 4.775-1.866-.961-3.745-2.668-3.747-4.768 0-1.403 1.88-1.918 2.582-.682zM34.75 66.019c0 .541.44.981.982.981h17.785a2.508 2.508 0 002.505-2.505V49.573a.982.982 0 00-1.963 0v4.73h-5.114a2.508 2.508 0 00-2.505 2.505v8.23H35.732a.981.981 0 00-.982.98zm13.653-9.21c0-.3.243-.543.542-.543h5.114v8.229a.543.543 0 01-.542.542h-5.114v-8.229z"/><path d="M56.022 44.049c0-5.803-4.969-7.912-5.18-8l-.019-.007-11.734-4.544v-2.752a9.196 9.196 0 003.485-6.083c2.157-.292 3.938-2.021 3.938-4.141 0-.947-.356-1.855-1.012-2.597v-3.761C45.5 5.457 40.044 0 33.336 0 26.63 0 21.173 5.457 21.173 12.164v3.846c-.655.728-1.012 1.608-1.012 2.512 0 2.112 1.771 3.847 3.937 4.14a9.097 9.097 0 003.684 6.23v2.606l-11.74 4.552c-.212.087-5.18 2.196-5.18 7.999v20.446A2.508 2.508 0 0013.366 67h17.785a.982.982 0 000-1.963H20.444v-8.229a2.508 2.508 0 00-2.505-2.505h-5.115V44.05c0-4.42 3.73-6.083 3.958-6.181l8.163-3.165c1.371 2.928 5.28 4.404 8.49 4.404 3.207 0 7.12-1.473 8.49-4.405l8.176 3.166c.177.076 3.958 1.762 3.958 6.181v.944a.982.982 0 001.963 0v-.944zM12.824 56.266h5.115c.298 0 .541.243.541.542v8.23h-5.114a.543.543 0 01-.542-.543v-8.229zM44.55 18.522c0 1.022-.885 1.867-1.897 2.13v-4.257c1.072.281 1.897 1.146 1.897 2.127zm-20.528 2.13c-1.014-.263-1.898-1.11-1.898-2.13 0-.979.944-1.77 1.898-2.067v4.197zm.042-6.226a5.13 5.13 0 00-.927.257v-2.52c0-5.624 4.576-10.2 10.2-10.2 5.625 0 10.2 4.576 10.2 10.2v2.45a5.05 5.05 0 00-.884-.221c0-.227.004-.405-.04-.581-.129-.508-.655-.98-2.96-3.456-.724-.778-1.638-.814-2.32-.368-3.419 2.233-7.59 3.356-11.439 3.08a1.745 1.745 0 00-1.83 1.36zm1.92 7.059V15.04c4.17.243 8.613-.969 12.267-3.31 1.412 1.516 2.191 2.327 2.44 2.631v7.124c0 4.027-3.286 7.228-7.225 7.233h-.017c-4.467-.003-7.464-3.47-7.464-7.233zm11.143 8.431v1.888a5.022 5.022 0 01-3.69 1.613 5.01 5.01 0 01-3.692-1.613v-1.826c1.194.48 2.482.703 3.712.703 1.28 0 2.544-.272 3.67-.765zm-9.048 5.568a4.03 4.03 0 01-1.296-1.493l1.705-.661a6.986 6.986 0 004.948 2.05 6.991 6.991 0 004.949-2.05l1.706.66c-1.403 2.764-7.405 4.68-12.013 1.494z"/></g><defs><clipPath id="clip0"><path fill="#fff" d="M0 0h67v67H0z"/></clipPath></defs></svg>