<svg width="32" height="32" viewBox="0 0 32 32" fill="none" xmlns="http://www.w3.org/2000/svg"><path d="M27.339 4.034C24.421 1.344 20.792 0 16.457 0 11.9 0 8.017 1.528 4.811 4.59 1.606 7.65 0 11.456 0 16.012c0 4.367 1.528 8.12 4.576 11.267C7.638 30.427 11.75 32 16.927 32c3.12 0 6.182-.64 9.185-1.926a1.958 1.958 0 001.057-2.526 1.952 1.952 0 00-2.585-1.058c-2.61 1.123-5.17 1.685-7.664 1.685-3.969 0-7.043-1.208-9.224-3.63-2.173-2.415-3.264-5.255-3.264-8.512 0-3.539 1.169-6.49 3.5-8.859 2.323-2.363 5.19-3.551 8.584-3.551 3.127 0 5.77.973 7.925 2.918 2.154 1.945 3.231 4.393 3.231 7.344 0 2.017-.496 3.701-1.482 5.04-.986 1.344-2.01 2.01-3.075 2.01-.574 0-.861-.307-.861-.927 0-.502.039-1.09.11-1.769L23.58 8.31H19.4l-.268.973c-1.064-.868-2.232-1.306-3.499-1.306-2.01 0-3.734.803-5.163 2.402-1.436 1.6-2.148 3.663-2.148 6.182 0 2.461.633 4.453 1.906 5.96 1.273 1.515 2.8 2.266 4.59 2.266 1.599 0 2.963-.673 4.099-2.011.855 1.286 2.115 1.926 3.78 1.926 2.448 0 4.563-1.064 6.345-3.199 1.782-2.128 2.676-4.7 2.676-7.71 0-3.812-1.455-7.07-4.38-9.759zm-9.622 15.021c-.738.992-1.62 1.495-2.644 1.495-.699 0-1.26-.366-1.684-1.097-.431-.73-.646-1.638-.646-2.728 0-1.345.3-2.429.9-3.251.601-.823 1.345-1.24 2.233-1.24.77 0 1.456.306 2.056.926.6.62.901 1.443.901 2.474-.006 1.286-.378 2.422-1.116 3.421z" fill="#B5007B"/></svg>