<svg width="61" height="66" viewBox="0 0 61 66" fill="none" xmlns="http://www.w3.org/2000/svg"><path d="M52.5 6.558c-8.669-6.82-16.138-8.07-29.59-4.966-3.655.842-7.79 2.128-10.77 5.28a20.9 20.9 0 00-4.4 7.196 29.231 29.231 0 00-.996 3.598l-.087.38a14.91 14.91 0 01-.972 2.58 6.615 6.615 0 00-.905 3.3c.223.983.79 1.852 1.6 2.45.539.495.893.842.896 1.16-.047.178-.118.35-.212.508-.176.313-.302.65-.375 1.002a6.697 6.697 0 01-1.549 3.576C1.685 36.344.698 37.628.82 38.956a3.19 3.19 0 001.603 2.166c.363.254.746.477 1.145.667.473.242 1.266.647 1.32.936.072.373.03.758-.122 1.107-.162.345-.33.642-.476.902-.43.759-1.076 1.906-.062 2.762.238.21.645.53 1.015.814a2.757 2.757 0 00-.353 1.594c.058.43.292.817.646 1.069.245.175.507.33.77.476.645.369.895.54.982.88.08.412.048.837-.092 1.232a6.244 6.244 0 00.177 3.924 4.062 4.062 0 004.785 2.91 89.172 89.172 0 009.254-2.776c1.518.905 2.962 3.105 4.002 6.132A3.313 3.313 0 0028.54 66h22.183a3.3 3.3 0 002.952-4.77 30.164 30.164 0 01-2.53-9.655 18.64 18.64 0 011.43-9.66 24.008 24.008 0 012.908-4.612c2.175-2.94 4.642-6.27 4.722-11.94a33.04 33.04 0 00-1.147-9.344 18.239 18.239 0 00-6.559-9.46zm1.216 29.436a26.031 26.031 0 00-3.155 5.043 20.843 20.843 0 00-1.601 10.802 32.26 32.26 0 002.75 10.384 1.1 1.1 0 01-.987 1.577H28.54a1.114 1.114 0 01-1.047-.761 16.226 16.226 0 00-3.611-6.27l.822-.288c.813-.286 1.43-.502 1.733-.599 4.706-1.48 7.06-3.63 6.995-6.371a1.07 1.07 0 00-1.125-1.074 1.1 1.1 0 00-1.075 1.126c.027 1.134-.898 2.787-5.458 4.221-.321.102-.957.325-1.8.62-.788.278-1.76.621-2.832.99h-.009a91.093 91.093 0 01-9.423 2.854 1.94 1.94 0 01-2.26-1.476 4.054 4.054 0 01-.11-2.696c.227-.74.256-1.526.085-2.28a3.636 3.636 0 00-2.023-2.252l-.237-.135c.117-.242.258-.471.421-.684a1.1 1.1 0 00-.21-1.56 54.696 54.696 0 01-1.343-1.029c.056-.103.12-.22.177-.319.169-.298.362-.643.55-1.037.351-.77.455-1.628.296-2.459-.256-1.35-1.54-2.006-2.48-2.487a6.576 6.576 0 01-.832-.47 5.923 5.923 0 01-.727-.596c.019-.635 2.439-3.246 3.74-4.648a8.81 8.81 0 002.105-4.71c.047-.126.103-.25.168-.368.274-.465.429-.99.45-1.53a3.84 3.84 0 00-1.613-2.762c-.44-.407-.862-.792-.91-1.13a7.123 7.123 0 01.735-2.097c.46-.956.829-1.954 1.1-2.98l.09-.384c.235-1.13.54-2.242.915-3.333a18.738 18.738 0 013.937-6.444c2.571-2.72 6.16-3.842 9.664-4.65C37.75.423 44 2.672 51.142 8.29a15.88 15.88 0 015.801 8.329 30.816 30.816 0 011.064 8.712c-.07 4.96-2.12 7.73-4.29 10.663z" fill="#2C70AC"/><path d="M44.897 18.458a4.588 4.588 0 10-1.094-1.968 13.47 13.47 0 00-3.257 4.222 10.835 10.835 0 00-2.28-1.31c-.931-1.772-.763-4.198-.336-6.224.075 0 .145.022.22.022a4.435 4.435 0 10-2.327-.681 14.53 14.53 0 00-.22 5.886 40.228 40.228 0 00-3.08-.823 69.688 69.688 0 00-2.88-.585 7.009 7.009 0 01-2.018-3.003 4.411 4.411 0 10-2.214.242 9.89 9.89 0 00.935 2.214c-2.176-.319-4.229-.55-5.88-.707a4.418 4.418 0 10-.183 2.192c2.343.22 5.5.594 8.65 1.166l.176.033a15.54 15.54 0 00-2.925 3.066 4.335 4.335 0 00-1.234-.2 4.416 4.416 0 103.143 1.33 11.364 11.364 0 013.44-3.167 5.83 5.83 0 01.813-.363c1.555.346 3.08.813 4.563 1.396.034.019.069.036.105.051l.018.01.018.008c.93.339 1.786.851 2.523 1.51.136.136.253.289.348.455.506.852.395 2.116-.352 3.983-.408 1.03-.945 2.102-1.514 3.237-1.94 3.873-4.138 8.263-.593 11.11 4.137 3.31 4.284 14.74 3.991 18.863a1.1 1.1 0 001.019 1.177h.078a1.1 1.1 0 001.1-1.022c.047-.652 1.075-16.03-4.808-20.736-2.008-1.61-.835-4.373 1.183-8.404.491-.978.98-1.98 1.393-2.96a3.214 3.214 0 013.06.88 4.47 4.47 0 101.71-1.43 6.245 6.245 0 00-3.97-1.76 5.697 5.697 0 00-.146-3.511 11.966 11.966 0 012.825-4.2zM48.05 13.2a2.2 2.2 0 110 4.4 2.2 2.2 0 010-4.4zm-9.9-6.6a2.2 2.2 0 110 4.4 2.2 2.2 0 010-4.4zm-14.3 3.3a2.2 2.2 0 114.4 0 2.2 2.2 0 01-4.4 0zm-7.7 8.8a2.2 2.2 0 110-4.4 2.2 2.2 0 010 4.4zm8.8 9.9a2.2 2.2 0 110-4.4 2.2 2.2 0 010 4.4zm25.3 3.3a2.2 2.2 0 11-4.4 0 2.2 2.2 0 014.4 0z" fill="#2C70AC"/></svg>