<svg width="75" height="75" viewBox="0 0 75 75" fill="none" xmlns="http://www.w3.org/2000/svg"><g clip-path="url(#clip0)" fill="#2C70AC"><path d="M74.34 31.828c-2.326-4.027-8.528-2.827-9.098 1.868l-4.58.49a23.283 23.283 0 00-12.67-17.253l1.977-4.466c3.045.638 5.898-1.698 5.898-4.79a4.9 4.9 0 00-4.894-4.894 4.9 4.9 0 00-4.894 4.894c0 1.57.744 2.968 1.896 3.864l-1.996 4.51a23.14 23.14 0 00-5.138-1.318 1.099 1.099 0 00-.298 2.177c10.378 1.418 18.204 10.399 18.204 20.89 0 14.921-15.197 25.198-29.054 19.522l.65-1.469a1.099 1.099 0 00-2.009-.889l-.628 1.42C21.9 53.262 17.72 47.5 16.776 40.718l1.518-.163a1.098 1.098 0 10-.234-2.184l-1.472.158c-.236-6.907 2.82-13.19 7.886-17.231l.828 1.134a1.098 1.098 0 101.774-1.296l-.813-1.115a21.09 21.09 0 019.405-3.214 1.1 1.1 0 00-.205-2.187 23.172 23.172 0 00-10.48 3.647l-2.963-4.059c2.069-2.311 1.489-5.952-1.199-7.503a4.899 4.899 0 00-6.685 1.791c-2.33 4.037 1.79 8.723 6.087 6.976l2.976 4.079a23.245 23.245 0 00-8.801 19.212l-4.844.52c-1.513-4.586-8.117-4.446-9.378.258-1.14 4.256 3.462 7.648 7.174 5.505a4.867 4.867 0 002.401-3.574l4.84-.52c1.03 7.577 5.719 14.006 12.223 17.445l-1.86 4.203a4.9 4.9 0 00-5.815 4.805 4.9 4.9 0 004.893 4.895 4.9 4.9 0 004.894-4.894 4.89 4.89 0 00-1.963-3.917l1.84-4.158a23.159 23.159 0 008.857 1.752c4.659 0 9.001-1.376 12.644-3.741l2.625 3.595a4.879 4.879 0 00-1.025 4.469c1.118 4.174 6.777 4.97 8.965 1.18 2.347-4.066-1.855-8.782-6.166-6.945l-2.614-3.581c5.828-4.615 9.29-11.85 8.81-19.689l4.578-.492a4.893 4.893 0 004.632 3.288c3.76 0 6.107-4.088 4.23-7.339zM50.973 4.98a2.7 2.7 0 012.697 2.697 2.7 2.7 0 01-2.697 2.697 2.7 2.7 0 01-2.697-2.697 2.7 2.7 0 012.697-2.697zm-33.947 8.3a2.7 2.7 0 01-.987-3.685 2.7 2.7 0 013.684-.987 2.7 2.7 0 01.987 3.684 2.7 2.7 0 01-3.684.987zM6.252 43.143a2.7 2.7 0 01-3.684-.987c-1.034-1.792.263-4.045 2.33-4.045 2.752 0 3.735 3.657 1.354 5.032zm17.78 26.96a2.7 2.7 0 01-2.697-2.697 2.7 2.7 0 012.697-2.697 2.7 2.7 0 012.697 2.697 2.7 2.7 0 01-2.697 2.697zm32.603-8.66c2.07 0 3.365 2.253 2.331 4.044a2.7 2.7 0 01-3.684.987c-2.375-1.371-1.4-5.031 1.353-5.031zM71.45 36.61a2.7 2.7 0 01-3.684-.987c-1.035-1.792.263-4.045 2.33-4.045 2.751 0 3.734 3.657 1.353 5.032z"/><path d="M35.04 43.506a4.814 4.814 0 00-4.81 4.81 4.814 4.814 0 004.81 4.809 4.815 4.815 0 004.81-4.81 4.815 4.815 0 00-4.81-4.81zm0 7.421a2.615 2.615 0 01-2.613-2.612 2.615 2.615 0 012.613-2.612 2.615 2.615 0 012.612 2.612 2.615 2.615 0 01-2.612 2.612zM45.392 37.06a3.203 3.203 0 00-3.198 3.198c0 1.764 1.435 3.2 3.198 3.2 1.764 0 3.2-1.436 3.2-3.2a3.203 3.203 0 00-3.2-3.199zm0 4.2c-.552 0-1.002-.45-1.002-1.002a1.003 1.003 0 012.005 0c0 .553-.45 1.002-1.003 1.002zm-22.458-2.332a2.887 2.887 0 002.884 2.883 2.887 2.887 0 002.884-2.883 2.887 2.887 0 00-2.884-2.884 2.887 2.887 0 00-2.884 2.884zm3.571 0a.688.688 0 11-1.375-.002.688.688 0 011.375.002zm19.197-13.456a3.518 3.518 0 00-3.514 3.514 3.518 3.518 0 003.514 3.513 3.518 3.518 0 003.514-3.513 3.518 3.518 0 00-3.514-3.514zm0 4.83a1.319 1.319 0 01-1.317-1.316c0-.727.591-1.318 1.317-1.318a1.32 1.32 0 011.318 1.318 1.32 1.32 0 01-1.318 1.317zm.131 15.896l-.718.718a1.098 1.098 0 101.554 1.553l.717-.718a1.098 1.098 0 10-1.553-1.553zM37.39 38.63l.75.683a1.098 1.098 0 101.479-1.625l-.751-.683a1.099 1.099 0 10-1.478 1.625zm-9.543-7.826c0 4.96 6.205 7.21 9.399 3.449a1.099 1.099 0 00-1.675-1.422c-1.884 2.22-5.527.88-5.527-2.027 0-3.078 3.992-4.3 5.725-1.768a1.099 1.099 0 001.813-1.24c-2.943-4.3-9.735-2.229-9.735 3.008z"/></g><defs><clipPath id="clip0"><path fill="#fff" d="M0 0h75v75H0z"/></clipPath></defs></svg>