<svg width="22" height="22" viewBox="0 0 22 22" fill="none" xmlns="http://www.w3.org/2000/svg"><path d="M20.48 1.521a5.21 5.21 0 00-7.357 0L9.443 5.2a.8.8 0 101.133 1.132l3.678-3.68a3.577 3.577 0 012.547-1.048c.966 0 1.87.373 2.547 1.05a3.576 3.576 0 011.05 2.546c0 .966-.373 1.87-1.05 2.547l-4.81 4.811a3.607 3.607 0 01-5.095 0 .8.8 0 10-1.131 1.132 5.186 5.186 0 003.678 1.521 5.187 5.187 0 003.68-1.521l4.81-4.811A5.165 5.165 0 0021.999 5.2c0-1.393-.54-2.7-1.519-3.679z" fill="#B5007B"/><path d="M10.859 16.236L7.746 19.35a3.576 3.576 0 01-2.547 1.05c-.965 0-1.87-.373-2.547-1.05a3.606 3.606 0 010-5.094L7.18 9.727a3.577 3.577 0 012.547-1.049c.965 0 1.87.373 2.546 1.05a.8.8 0 101.132-1.132 5.21 5.21 0 00-7.357 0L1.52 13.124A5.166 5.166 0 000 16.803c0 1.392.54 2.7 1.52 3.678A5.165 5.165 0 005.198 22c1.393 0 2.7-.54 3.678-1.519l3.113-3.113a.8.8 0 00-1.131-1.131z" fill="#B5007B"/></svg>