<svg width="27" height="26" viewBox="0 0 27 26" fill="none" xmlns="http://www.w3.org/2000/svg"><path d="M26.276 20.518l-4.015-4.015c-.8-.797-2.124-.773-2.952.055l-2.023 2.023-.399-.223c-1.277-.707-3.026-1.678-4.866-3.519-1.845-1.845-2.816-3.596-3.526-4.874-.075-.136-.146-.266-.217-.39l1.357-1.356.668-.668c.829-.83.851-2.153.054-2.952L6.34.583c-.797-.798-2.122-.774-2.95.055L2.258 1.776l.03.031a6.544 6.544 0 00-.932 1.645A6.819 6.819 0 00.941 5.12c-.53 4.396 1.479 8.413 6.93 13.864 7.535 7.534 13.607 6.965 13.869 6.937a6.784 6.784 0 001.673-.42 6.523 6.523 0 001.639-.928l.025.021 1.146-1.122c.827-.83.851-2.154.053-2.954z" fill="#B5007B"/></svg>