<svg width="39" height="39" viewBox="0 0 39 39" fill="none" xmlns="http://www.w3.org/2000/svg"><path d="M11.538 12.748l.629-1.1 1.104.631-.629 1.1-1.104-.63zm-3.437 6.014l2.838-4.965 1.104.63-2.838 4.966-1.104-.63z" fill="#2C70AC"/><path d="M4.152 33.069h10.474v-1.272H4.152a2.881 2.881 0 01-2.499-4.314l3.351-5.861h9.412V20.35H5.728l5.635-9.857a.631.631 0 00.083-.318V1.272h5.088v8.903c0 .111.028.221.084.318l2.769 4.845 1.104-.63-2.685-4.702V.636A.636.636 0 0017.17 0h-6.36a.636.636 0 00-.636.636v9.37L.549 26.852a4.154 4.154 0 003.604 6.216z" fill="#2C70AC"/><path d="M26.391 14.626a11.81 11.81 0 00-11.404 8.867l-3.547.037a.636.636 0 00-.434 1.093l3.784 3.646a11.759 11.759 0 0023.349-2.518 11.76 11.76 0 00-11.748-11.125zm0 22.258a10.529 10.529 0 01-10.375-9.012.635.635 0 00-.19-.37l-2.821-2.716 2.494-.027a.636.636 0 00.617-.509A10.493 10.493 0 1126.39 36.885z" fill="#2C70AC"/><path d="M31.75 25.975l-2.213-1.107a.636.636 0 00-.569 0l-2.26 1.13-1.907-.954v-2.393l1.908-.954 2.26 1.133.568-1.139-2.192-1.098v-2.151h-1.272v2.15l-2.192 1.093a.636.636 0 00-.352.573v2.786l-1.862.931-1.6-1.067-.706 1.058 1.624 1.083v2.5l-1.624 1.08.706 1.059 1.6-1.067 2.214 1.112c.179.09.39.09.569 0l2.259-1.133 2.26 1.133.568-1.139-2.192-1.098v-2.394l1.908-.954 1.907.954v2.15h1.272V27.05l1.625-1.08-.706-1.06-1.6 1.066zm-7.585 4.474l-1.908-.953v-2.394l1.908-.954 1.908.954v2.394l-1.908.954zm-6.359-6.919h1.272v1.27h-1.272v-1.27zm16.534.635h1.272v1.272H34.34v-1.272zm-10.81 8.903h1.27v1.272h-1.272v-1.272zm5.086 0h1.272v1.272h-1.272v-1.272zm-7.631-13.354h1.272v1.272h-1.272v-1.272zm10.175 0h1.272v1.272H31.16v-1.272zM8.903 29.253h1.271v1.272h-1.27v-1.272zM4.451 26.71h1.272v1.271H4.451V26.71zm3.179-3.18h1.273v1.27H7.63v-1.27z" fill="#2C70AC"/></svg>