<svg width="34" height="35" viewBox="0 0 34 35" fill="none" xmlns="http://www.w3.org/2000/svg"><path d="M28.25 4.288l-.05-.044c-6.99-6.17-17.65-5.539-23.862 1.413l-.044.043A16.953 16.953 0 00.03 15.98c0 .338-.031.677-.031 1.017.002.792.058 1.583.17 2.367v.044a17.035 17.035 0 008.187 12.244c.043.033.09.06.139.082 8.121 4.701 18.516 1.928 23.217-6.193A16.991 16.991 0 0028.25 4.288zM10.888 2.492a15.66 15.66 0 016.097-1.256h.571a.792.792 0 01-.05.515c-.195.37-.81.628-1.74.735a3.93 3.93 0 00-3.603 3.252 2.361 2.361 0 01-1.256-.879c-.69-.848-.232-1.959-.019-2.367zm-5.99 4.44l2.781 2.052c.04.033.084.059.132.076.189.094.427.52.201 1.494a.685.685 0 01-.157-.314.628.628 0 00-.734-.477l-1.32.258a.628.628 0 00-.464.853s.327.873-.106 1.256c-.19.155-.402.28-.628.37-.785.371-1.884.886-2.738 3.034-.096.3-.233.585-.408.847a2.087 2.087 0 01-.17-.408 15.697 15.697 0 013.61-9.042zM1.645 20.543a5.653 5.653 0 002.386.716.873.873 0 01.88.829c.024.225.168.42.376.509a2.813 2.813 0 011.494 2.185c.061.612.405 1.16.93 1.482.935.558 2.216.257 2.712.106a.2.2 0 01.063.063c.038.057.201.402-.226 1.425a7.491 7.491 0 01-1.576 2.512 15.792 15.792 0 01-7.039-9.827zm15.34 12.213a15.647 15.647 0 01-7.183-1.74 9.254 9.254 0 001.613-2.706c.459-1.11.503-1.977.126-2.574a1.463 1.463 0 00-1.111-.672.628.628 0 00-.252.038 2.674 2.674 0 01-1.833.056.722.722 0 01-.333-.584 4.119 4.119 0 00-1.934-2.995 2.072 2.072 0 00-2.06-1.607 6.28 6.28 0 01-2.668-1.074 16.65 16.65 0 01-.107-1.256.936.936 0 00.132 0h.057c.816 0 1.3-.948 1.588-1.664.685-1.695 1.413-2.034 2.11-2.367a3.45 3.45 0 00.96-.628 2.21 2.21 0 00.597-1.94l.164-.031c.33.527.887.872 1.506.935a.628.628 0 00.628-.414 3.799 3.799 0 00.12-2.876 1.695 1.695 0 00-.76-.804l-2.6-1.858a15.824 15.824 0 013.586-2.738 3.001 3.001 0 00.628 2.436 3.585 3.585 0 001.883 1.3c.088 0 .208.069.233.107.068.29.33.491.628.483h.088a.628.628 0 00.54-.628c0-.289-.063-2.857 2.587-3.14 1.4-.15 2.317-.627 2.718-1.4a1.94 1.94 0 00.214-.998 15.697 15.697 0 017.648 3.033c-5.099 1.312-5.024 2.254-4.96 2.675.093.923.144 2.072.144 2.084a.627.627 0 00.508.59 2.92 2.92 0 002.123-.546c.02.291.02.583 0 .873a4.871 4.871 0 01-2.512.427 1.884 1.884 0 01-1.344-.71.628.628 0 00-1.092.126l-.182.433a1.3 1.3 0 01-.346-1.186 1.256 1.256 0 00-.71-1.363c-.922-.39-2.26.39-2.869 1.099a1.369 1.369 0 00-.295 1.69c.502.81 2.348 3.409 5.023 2.793.628-.144 2.098-.037 4.804 2.26l.088.07c.163.188.766 1.312 1.256 2.216 1.758 3.278 1.996 3.58 2.442 3.68.105.011.21.011.314 0a7.257 7.257 0 003.416-1.111 15.773 15.773 0 01-15.321 12.206zm15.648-13.983a6.53 6.53 0 01-3.642 1.676c-.352-.465-1.206-2.06-1.733-3.052-1.005-1.883-1.256-2.367-1.526-2.561l-.107-.088c-2.386-2.022-4.395-2.876-5.896-2.512-1.884.433-3.303-1.601-3.68-2.173.131-.289.351-.529.628-.684.273-.204.597-.33.936-.364a.792.792 0 010 .107c-.182 2.072 1.293 2.675 1.884 2.731a.628.628 0 00.628-.383l.069-.163c1.161.766 2.706.552 3.415.395.71-.157 1.802-.49 1.928-1.143 0 0 .37-2.222-.559-2.73a.96.96 0 00-1.174.25 1.827 1.827 0 01-.879.471c0-.39-.056-.904-.107-1.394.49-.433 2.794-1.187 4.885-1.695a15.698 15.698 0 014.948 13.305l-.019.007z" fill="#2C70AC"/><path d="M28.476 23.784a1.049 1.049 0 00-1.03-.634l-1.043-.684a.63.63 0 00-.194-.088c-.12 0-1.162-.34-.854-1.828.527-2.561-.283-3.918-2.813-4.684-.628-.188-1.218-.42-1.796-.628a11.252 11.252 0 00-5.47-1.06.628.628 0 00-.545.439s-.509 1.582-1.884 1.833c-.86.161-1.46.943-1.394 1.815 0 1.482 1.067 3.397 2.58 3.736l.176.038c1.74.383 3.24.715 2.512 4.84-.364 2.092-.176 3.592.553 4.459.44.5 1.085.773 1.752.74 1.444 0 3.384-1.098 5.776-3.27 3.661-3.322 3.925-4.396 3.674-5.024zm-4.515 4.12c-2.82 2.561-4.301 2.92-4.935 2.92a.942.942 0 01-.785-.302c-.459-.547-.56-1.802-.277-3.435.905-5.312-1.726-5.896-3.49-6.31h-.164c-.848-.189-1.62-1.564-1.601-2.512 0-.54.25-.584.37-.628a3.824 3.824 0 002.7-2.286 10.472 10.472 0 014.521 1.005c.628.239 1.225.477 1.884.678 1.884.572 2.342 1.319 1.946 3.228-.42 2.084.848 3.026 1.646 3.302l1.123.754c.08.053.17.087.264.1-.194.415-.91 1.382-3.202 3.485z" fill="#2C70AC"/></svg>