<svg width="26" height="26" viewBox="0 0 26 26" fill="none" xmlns="http://www.w3.org/2000/svg"><g clip-path="url(#clip0)"><path d="M24.053 4.483H1.947A1.947 1.947 0 000 6.43v13.14c0 1.076.872 1.947 1.947 1.947h22.106A1.947 1.947 0 0026 19.57V6.43a1.947 1.947 0 00-1.947-1.947z" fill="#2730AB"/><path d="M25.973 6.108a1.947 1.947 0 00-1.92-1.625h-.507l-8.305 5.441V4.483H10.76v5.441L2.454 4.483h-.507c-.966 0-1.767.703-1.92 1.625l7.098 4.65H0v4.484h7.125l-7.098 4.65a1.947 1.947 0 001.92 1.625h.507l8.305-5.44v5.44h4.482v-5.44l8.305 5.44h.507c.965 0 1.767-.703 1.92-1.625l-7.098-4.65H26v-4.483h-7.125l7.098-4.65z" fill="#fff"/><path d="M14.345 4.483h-2.69v7.172H0v2.69h11.655v7.172h2.69v-7.172H26v-2.69H14.345V4.483z" fill="#FF222E"/><path d="M1.26 21.392l9.474-6.15H9.088l-8.62 5.594c.212.247.483.44.791.556zm16.33-6.15h-1.647l9.177 5.957c.257-.17.471-.397.624-.664l-8.154-5.293zM.206 5.56l8.01 5.199h1.647L.786 4.867a1.955 1.955 0 00-.58.692zm16.682 5.198l8.634-5.604a1.95 1.95 0 00-.797-.552l-9.484 6.156h1.647z" fill="#FF222E"/></g><defs><clipPath id="clip0"><path fill="#fff" d="M0 0h26v26H0z"/></clipPath></defs></svg>