<svg width="16" height="20" viewBox="0 0 16 20" fill="none" xmlns="http://www.w3.org/2000/svg"><path d="M15.525.15a1.003 1.003 0 00-.973-.046l-3.48 1.743L8.554.168a1.003 1.003 0 00-1.109 0l-2.517 1.68L1.448.103A1.003 1.003 0 000 1v18a1.003 1.003 0 001.447.894l3.48-1.74 2.518 1.678a1 1 0 001.109 0l2.517-1.678 3.481 1.74A1 1 0 0016 19V1a.999.999 0 00-.475-.85zM11 8H7.5a.5.5 0 100 1h1c1.379 0 2.5 1.122 2.5 2.5 0 1.208-.86 2.217-2 2.45V15H7v-1H5v-2h3.5a.5.5 0 000-1h-1A2.503 2.503 0 015 8.5c0-1.208.86-2.217 2-2.449V5h2v1h2v2z" fill="#717589"/></svg>