<svg width="24" height="24" viewBox="0 0 24 24" fill="none" xmlns="http://www.w3.org/2000/svg"><g clip-path="url(#clip0)" fill="#717589"><path d="M10.067 7H1.998c-1.103 0-2 .897-2 2v9c0 1.103.897 2 2 2h1v4l5.333-4h6.667c1.103 0 2-.897 2-2v-4.069A7.994 7.994 0 0110.067 7zM24 7V5h-1.102a4.958 4.958 0 00-.733-1.754l.784-.784-1.414-1.414-.785.784a4.924 4.924 0 00-1.75-.73V0h-2v1.102a4.96 4.96 0 00-1.753.731l-.784-.783-1.414 1.414.783.783A4.987 4.987 0 0013.101 5h-1.102v2h1.102c.13.638.384 1.229.732 1.754l-.784.784 1.415 1.413.783-.784a4.972 4.972 0 001.753.732v1.102h2v-1.103a4.98 4.98 0 001.753-.732l.784.783 1.413-1.415-.784-.782A4.944 4.944 0 0022.898 7H24zm-6.001 1A2 2 0 1118 3.999 2 2 0 0118 8z"/></g><defs><clipPath id="clip0"><path fill="#fff" d="M0 0h24v24H0z"/></clipPath></defs></svg>