<svg width="27" height="14" viewBox="0 0 27 14" fill="none" xmlns="http://www.w3.org/2000/svg"><path d="M26.268 12.487c-.07-.11-.502-.997-2.582-2.819-2.178-1.908-1.885-1.598.738-4.897 1.597-2.009 2.236-3.236 2.036-3.76-.19-.5-1.365-.368-1.365-.368l-3.907.021s-.29-.037-.505.085c-.21.12-.345.395-.345.395S19.72 2.7 18.893 4.021c-1.74 2.79-2.437 2.937-2.722 2.764-.661-.403-.495-1.623-.495-2.488 0-2.703.434-3.83-.847-4.122-.426-.097-.738-.161-1.825-.172C11.61-.01 10.428.008 9.76.316c-.445.206-.788.664-.578.69.258.032.843.149 1.154.548.401.513.386 1.67.386 1.67s.231 3.182-.538 3.578c-.528.271-1.25-.282-2.803-2.814a22.98 22.98 0 01-1.396-2.73S5.87.99 5.663.848c-.25-.173-.6-.228-.6-.228L1.346.64S.79.657.585.885c-.182.204-.015.624-.015.624s2.91 6.422 6.202 9.66c3.02 2.967 6.45 2.772 6.45 2.772h1.553s.47-.05.709-.293c.221-.224.213-.644.213-.644s-.031-1.968.938-2.258c.953-.285 2.179 1.902 3.477 2.744.982.637 1.728.497 1.728.497l3.473-.046s1.817-.106.955-1.454z" fill="#fff"/></svg>