<svg id="Layer_1" xmlns="http://www.w3.org/2000/svg" xmlns:xlink="http://www.w3.org/1999/xlink" viewBox="0 0 69 61"><style>.st0{clip-path:url(#SVGID_2_)}.st1{clip-path:url(#SVGID_4_)}.st2{fill:none;stroke:#fff;stroke-width:1.2;stroke-miterlimit:10}</style><defs><path id="SVGID_1_" d="M1.3 26c-1.3 7.8.6 15.7 5.3 22.1 2.5 3.4 5.6 6.2 9.1 8.2 3.1 1.8 6.6 3 10.2 3.6 12 2 24.2-3.9 30.4-14.5l-3.4-2C47.5 52.7 37 57.7 26.6 56c-6.8-1.1-12.7-4.7-16.7-10.2-4.1-5.5-5.7-12.3-4.6-19.1 2.3-14 15.4-23.6 29.4-21.3C47.7 7.5 57 19.1 56.3 32l-3.8-5.2-3.2 2.3 8 11 11.1-8-2.3-3.2-5.8 4.2c1.3-15.4-9.5-29.3-24.9-31.8C19-1.2 3.9 9.8 1.3 26z"/></defs><clipPath id="SVGID_2_"><use xlink:href="#SVGID_1_" overflow="visible"/></clipPath><path transform="rotate(-14.999 33.712 29.77)" class="st0" d="M-4.2-4.9h75.9v69.3H-4.2z"/><defs><path id="SVGID_3_" d="M28 20.6h7.2c1.4 0 2.6 1.1 2.6 2.6v4.5c0 1.4-1.1 2.6-2.6 2.6H28v-9.7zM35.1 32c2.4 0 4.4-1.9 4.4-4.4v-4.5c0-2.4-1.9-4.4-4.4-4.4h-8.9v11.4h-3.3V32h3.3v3.1h-3.3v1.8h3.3v4.9H28v-4.9h10.3v-1.8H28V32h7.1z"/></defs><clipPath id="SVGID_4_"><use xlink:href="#SVGID_3_" overflow="visible"/></clipPath><path class="st1" d="M17.9 13.8h26.6v33H17.9z"/><path class="st2" d="M28 20.6h7.2c1.4 0 2.6 1.1 2.6 2.6v4.5c0 1.4-1.1 2.6-2.6 2.6H28v-9.7zM35.1 32c2.4 0 4.4-1.9 4.4-4.4v-4.5c0-2.4-1.9-4.4-4.4-4.4h-8.9v11.4h-3.3V32h3.3v3.1h-3.3v1.8h3.3v4.9H28v-4.9h10.3v-1.8H28V32h7.1z"/></svg>