<svg width="38" height="39" viewBox="0 0 38 39" xmlns="http://www.w3.org/2000/svg"><title>Group 7</title><g stroke="#000" fill="none" fill-rule="evenodd"><path d="M19.212 27.5c4.344 0 5.213-4.253 5.213-9.5H14c0 5.247.869 9.5 5.212 9.5z" stroke-width="1.8" stroke-linecap="round" stroke-linejoin="round"/><path d="M17.5 14.5v3m3-3v3" stroke-width="1.8" stroke-linecap="round"/><path d="M20 27.975C20.36 31.933 22.89 35 25.956 35 29.27 35 32 31.418 32 27" stroke-width="1.7" stroke-linecap="round" stroke-linejoin="bevel"/><path d="M32.145 18.406v16.002a3.1 3.1 0 0 1-3.102 3.098H8.047a3.102 3.102 0 0 1-3.102-3.098V17.506H3.047c-2.498 0-2.825-.826-1-2.524l14.19-13.199c1.267-1.178 3.352-1.177 4.618 0l14.188 13.199c1.825 1.697 1.498 2.524-.999 2.524h-1.899v.9z" stroke-width="1.8"/></g></svg>