<svg width="49" height="36" viewBox="0 0 49 36" xmlns="http://www.w3.org/2000/svg"><title>Group 23</title><g stroke-width="1.84" stroke="#0F0F0F" fill="none" fill-rule="evenodd"><path d="M6.873 12.597c0 .48-.276 1.143-.62 1.483l-.478.473c-.343.339-.953.395-1.34.14l-.282-.186c-.397-.261-.564-.824-.387-1.277 0 0 .65-1.238.241-2.03-.408-.792-1.615-.934-1.615-.934-.465-.108-.857.19-.875.673l-.484 12.668c-.018.48.314 1.042.74 1.256l19.48 9.762c.427.214.782-.007.793-.49l.284-12.99c.01-.485-.288-.634-.66-.338l-1.508 1.198c-.375.298-1.07.51-1.541.437 0 0-.284.091-1.43-.475-2.293-2.834 4.95-4.352 4.95-4.352.468-.116.48-.337.026-.496L7.695 12.054c-.454-.159-.822.107-.822.583v-.04z"/><path d="M1.687 10.47l45.608-9.354c.314-.064.568.137.568.467v24.443a.847.847 0 0 1-.555.754l-25.42 7.832m25.975-23.608l-25.287 6.402"/></g></svg>