<svg width="40" height="40" viewBox="0 0 40 40" xmlns="http://www.w3.org/2000/svg"><title>Group 10</title><path d="M28.828 1.108c-2.89-.19-5.838.83-8.046 3.066-2.995 3.034-3.754 7.441-2.345 11.214L2.643 31.38a4.382 4.382 0 0 0 0 6.133 4.25 4.25 0 0 0 6.057 0L24.493 21.52c3.726 1.426 8.078.658 11.074-2.375 2.943-2.98 3.74-7.307 2.434-11.034a.471.471 0 0 0-.787-.165l-4.675 4.735a3.747 3.747 0 0 1-5.374 0 3.863 3.863 0 0 1 0-5.441l4.676-4.735a.485.485 0 0 0-.163-.797 10.52 10.52 0 0 0-2.85-.601zm-.06.962c.604.04 1.192.22 1.782.376l-4.053 4.118a4.843 4.843 0 0 0 0 6.794 4.698 4.698 0 0 0 6.71 0l4.067-4.103c.822 3.192.097 6.71-2.375 9.214a9.414 9.414 0 0 1-10.376 2.075.47.47 0 0 0-.52.105L8.018 36.823a3.265 3.265 0 0 1-4.69 0 3.365 3.365 0 0 1 0-4.75l15.971-16.19a.486.486 0 0 0 .104-.525c-1.435-3.49-.76-7.664 2.048-10.507a9.37 9.37 0 0 1 7.318-2.781z" stroke="#000"/></svg>