<svg width="53" height="42" viewBox="0 0 53 42" xmlns="http://www.w3.org/2000/svg"><title>Group 18</title><g stroke="#000" stroke-width="1.7" fill="none" fill-rule="evenodd"><path d="M35.25 1C38.5 18 52 40.5 52 40.5H19S32 18 35.25 1z" stroke-linecap="round" stroke-linejoin="round"/><path d="M36 23c1.358 7.14 7 16.8 7 16.8H29s5.642-9.66 7-16.8z" stroke-linecap="round" stroke-linejoin="round"/><path d="M16.092 6.07c.791-.835 4.975-2.245 10.232-3.44 2.384-.542 4.777-.995 6.556-1.246.71-.1 1.299-.164 1.727-.19-.314 3.961-1.92 9.662-4.547 16.626a197.747 197.747 0 0 1-2.837 7.078 280.594 280.594 0 0 1-5.145 11.436 266.66 266.66 0 0 1-2.102 4.316H2.003c-.404 0-.357.095-.107-.24a35.323 35.323 0 0 0 .613-.79 57.725 57.725 0 0 0 1.648-2.314 76.308 76.308 0 0 0 4.985-8.512c3.62-7.198 6.109-14.847 6.95-22.725z"/></g></svg>