<?xml version="1.0" standalone="no"?>
<!DOCTYPE svg PUBLIC "-//W3C//DTD SVG 1.1//EN" "http://www.w3.org/Graphics/SVG/1.1/DTD/svg11.dtd" >
<svg xmlns="http://www.w3.org/2000/svg">
<metadata>Generated by IcoMoon</metadata>
<defs>
<font id="test1" horiz-adv-x="1024">
<font-face units-per-em="1024" ascent="960" descent="-64" />
<missing-glyph horiz-adv-x="1024" />
<glyph unicode="&#x20;" horiz-adv-x="512" d="" />
<glyph unicode="&#xe900;" glyph-name="noun_354999_cc" horiz-adv-x="731" d="M656.591-15.641h-584.063c-13.123 0-23.767 10.427-23.767 23.283v141.729c0 12.856 10.644 23.283 23.767 23.283h584.063c13.123 0 23.767-10.427 23.767-23.283v-141.729c0-12.856-10.644-23.283-23.767-23.283zM96.305 30.935h536.501v95.135h-536.501v-95.135zM466.552 126.069h-203.985c-13.123 0-23.767 10.427-23.767 23.302v708.59c0 10.279 6.878 19.344 16.926 22.301l101.964 29.994c4.475 1.307 9.244 1.307 13.69 0l102.002-29.994c10.057-2.957 16.926-12.022 16.926-22.301v-708.59c0.009-12.874-10.634-23.302-23.757-23.302zM286.344 172.645h156.423v667.983l-78.226 23.005-78.207-23.005v-667.983h0.009zM262.568 747.996c-10.37 0-19.907 6.692-22.877 16.943-3.586 12.374 3.747 25.248 16.387 28.761l203.975 56.688c12.697 3.392 25.82-3.717 29.377-16.063 3.586-12.374-3.747-25.248-16.387-28.761l-203.975-56.688c-2.157-0.593-4.362-0.881-6.5-0.881zM262.568 634.592c-10.37 0-19.907 6.701-22.877 16.943-3.586 12.374 3.747 25.248 16.387 28.77l203.975 56.679c12.697 3.429 25.82-3.698 29.377-16.054 3.586-12.374-3.747-25.257-16.387-28.77l-203.975-56.679c-2.157-0.593-4.362-0.89-6.5-0.89zM262.568 521.235c-10.37 0-19.907 6.701-22.877 16.943-3.586 12.365 3.747 25.248 16.387 28.77l203.975 56.679c12.697 3.402 25.82-3.708 29.377-16.054 3.586-12.383-3.747-25.257-16.387-28.77l-203.975-56.679c-2.157-0.602-4.362-0.89-6.5-0.89zM262.568 407.841c-10.37 0-19.907 6.701-22.877 16.943-3.586 12.383 3.747 25.257 16.387 28.77l203.975 56.688c12.697 3.411 25.82-3.708 29.377-16.054 3.586-12.374-3.747-25.257-16.387-28.77l-203.975-56.688c-2.157-0.593-4.362-0.89-6.5-0.89zM262.568 294.465c-10.37 0-19.907 6.683-22.877 16.925-3.586 12.383 3.747 25.257 16.387 28.77l203.975 56.716c12.697 3.402 25.82-3.689 29.377-16.054 3.586-12.365-3.747-25.257-16.387-28.77l-203.975-56.716c-2.157-0.584-4.362-0.871-6.5-0.871zM262.568 181.108c-10.37 0-19.907 6.683-22.877 16.925-3.586 12.383 3.747 25.257 16.387 28.77l203.975 56.679c12.697 3.42 25.82-3.708 29.377-16.054 3.586-12.365-3.747-25.239-16.387-28.77l-203.975-56.688c-2.157-0.575-4.362-0.862-6.5-0.862zM228.545-15.641c-13.123 0-23.767 10.427-23.767 23.283v141.729c0 12.856 10.644 23.283 23.767 23.283 13.142 0 23.786-10.427 23.786-23.283v-141.729c0-12.856-10.644-23.283-23.786-23.283zM500.575-15.641c-13.142 0-23.786 10.427-23.786 23.283v141.729c0 12.856 10.644 23.283 23.786 23.283 13.123 0 23.767-10.427 23.767-23.283v-141.729c0-12.856-10.644-23.283-23.767-23.283z" />
<glyph unicode="&#xe901;" glyph-name="noun_355005_cc" d="M511.991-12.8c-223.377 0-460.791 56.522-460.791 161.28 0 47.914 48.799 88.953 141.125 118.693 7.023 2.304 14.718 1.041 20.708-3.327 6-4.359 9.529-11.308 9.529-18.699v-50.633c0-20.607 98.455-68.908 289.419-68.908s289.447 48.292 289.447 68.908v50.633c0 7.4 3.53 14.349 9.529 18.699 5.99 4.378 13.649 5.613 20.708 3.327 92.344-29.74 141.134-70.779 141.134-118.693 0-104.758-237.432-161.28-460.809-161.28zM176.252 212.255c-57.443-22.985-78.732-47.287-78.732-63.775 0-48.006 157.667-114.97 414.471-114.97 256.822 0 414.499 66.963 414.499 114.97 0 16.487-21.289 40.79-78.732 63.775v-17.75c0-79.165-174.053-115.218-335.767-115.218-161.686 0-335.739 36.053-335.739 115.218v17.75zM511.991 586.212c-223.377 0-460.791 56.522-460.791 161.298s237.413 161.289 460.791 161.289c223.377 0 460.809-56.522 460.809-161.289s-237.432-161.298-460.809-161.298zM511.991 862.48c-256.795 0-414.471-66.973-414.471-114.979s157.667-114.979 414.471-114.979c256.822 0 414.499 66.973 414.499 114.979s-157.677 114.979-414.499 114.979zM513.263 678.271c-3.65 0-7.336 0.876-10.672 2.608l-88.778 46.080c-7.658 3.981-12.478 11.907-12.478 20.552 0 8.654 4.82 16.57 12.478 20.561l88.778 46.034c6.691 3.465 14.653 3.484 21.344 0.009l88.805-46.043c7.658-3.981 12.478-11.907 12.478-20.561 0-8.645-4.82-16.57-12.478-20.552l-88.805-46.080c-3.345-1.733-7.032-2.608-10.672-2.608zM474.777 747.511l38.486-19.98 38.504 19.98-38.504 19.962-38.486-19.962zM824.598 396.883c-502.005 0-633.563 92.667-638.899 96.593-10.313 7.585-12.515 22.091-4.912 32.385 7.502 10.202 21.823 12.469 32.164 5.050 2.138-1.475 132.019-87.718 611.647-87.718 12.792 0 23.16-10.377 23.16-23.169 0-12.773-10.368-23.141-23.16-23.141zM824.598 253.587c-502.005 0-633.563 92.667-638.899 96.593-10.313 7.585-12.515 22.082-4.912 32.385 7.502 10.193 21.823 12.488 32.164 5.060 2.138-1.475 132.019-87.718 611.647-87.718 12.792 0 23.16-10.377 23.16-23.169 0-12.773-10.368-23.151-23.16-23.151zM511.991 79.738c-161.686 0-335.739 36.053-335.739 115.218v454.939c0 12.783 10.377 23.16 23.16 23.16 12.792 0 23.16-10.368 23.16-23.16v-454.939c0-20.607 98.491-68.908 289.419-68.908 190.965 0 289.447 48.292 289.447 68.908v454.939c0 12.783 10.368 23.16 23.16 23.16s23.16-10.368 23.16-23.16v-454.939c0-79.165-174.053-115.218-335.767-115.218zM824.598 258.744c-12.792 0-23.16 10.377-23.16 23.16 0 12.764 10.313 23.114 23.068 23.16 0.756 0.018 39.472 0.728 39.472 22.883 0 69.212 55.72 69.212 85.663 69.212 12.792 0 23.16-10.377 23.16-23.169 0-12.783-10.368-23.16-23.16-23.16-37.14 0-39.352-2.59-39.352-22.883 0.009-54.743-56.052-69.203-85.69-69.203z" />
<glyph unicode="&#xe902;" glyph-name="noun_539151_cc" d="M805.504 704h-357.504c-280.512 0-448-143.552-448-384s167.488-384 448-384h512c35.392 0 64 28.608 64 64s-28.608 64-64 64h-512c-145.984 0-320 44.416-320 256s174.016 256 320 256h357.504l-146.752-146.752c-25.024-25.024-25.024-65.472 0-90.496 12.48-12.48 28.864-18.752 45.248-18.752v0c16.384 0 32.768 6.272 45.248 18.752l254.951 254.951c6.131 5.855 11.099 12.917 14.525 20.802 7.021 16.329 7.021 34.66 0.104 50.751-3.531 8.124-8.498 15.185-14.629 21.041l-254.951 254.951c-25.024 25.024-65.472 25.024-90.496 0s-25.024-65.472 0-90.496l146.752-146.752z" />
<glyph unicode="&#xe903;" glyph-name="noun_568714_cc" horiz-adv-x="1382" d="M1310.159 12.366c-187.616 192.651-380.493 900.773-384 907.715-5.26 17.356-22.795 29.505-43.836 24.298l-457.644-123.227c-12.274-3.471-22.795-13.885-24.548-26.034-1.753-5.207-142.027-598.78-329.644-786.224-21.041-20.827-7.014-59.010 24.548-59.010h1192.329c35.068 0 47.342 41.654 22.795 62.481zM170.433 19.308c157.808 215.214 270.027 640.434 294.575 741.098l378.74 100.664c-50.849-171.824-205.151-673.41-359.452-841.763h-313.863zM770.104 19.308c49.096 81.573 92.932 203.064 122.74 291.58 28.055-88.515 73.644-211.742 122.74-291.58h-245.479zM1099.748 19.308c-70.137 85.044-147.288 331.498-171.836 421.749-12.274 36.447-59.616 32.976-68.384 0-24.548-91.986-101.699-338.441-171.836-421.749h-113.973c136.767 189.18 263.014 572.746 320.877 765.397 57.863-192.651 184.11-576.217 320.877-765.397h-115.726z" />
<glyph unicode="&#xe904;" glyph-name="noun_587776_cc" horiz-adv-x="745" d="M639.19 567.791c0 55.67-38.069 101.152-84.721 101.152-21.087 0-62.701-13.827-99.65-31.837 13.436 42.935 18.101 94.057 18.101 111.704 0 45.482-46.466 82.595-103.756 82.595s-103.756-37.113-103.756-82.595c0-20.74 14.369-61.31 32.843-97.513-43.854 13.099-96.291 17.647-114.392 17.647-47.399 0-84.721-44.39-84.721-101.152s37.136-101.152 84.721-101.152c21.087 0 62.515 13.827 99.464 31.655-13.249-42.753-17.915-93.329-17.915-110.794 0-45.482 46.466-82.595 103.756-82.595s103.756 37.113 103.756 82.595c0 20.922-13.809 60.764-32.284 96.604 43.854-12.917 95.731-17.465 113.833-17.465 46.653 0 84.721 45.482 84.721 101.152zM278.845 553.783c-37.136-21.104-82.482-36.022-94.798-36.022-15.302 0-32.284 20.558-32.284 50.030s16.982 50.212 32.284 50.212c17.168 0 64.941-4.912 100.77-15.828-4.852-10.734-10.637-31.292-5.972-48.393zM369.165 356.027c-30.231 0-51.318 16.555-51.318 31.474 0 16.555 5.038 62.947 16.049 97.877 15.489-6.367 33.030-8.369 50.012-5.64 21.46-36.204 36.762-80.23 36.762-92.238 0-14.736-21.274-31.474-51.505-31.474zM329.976 567.791c0 21.104 17.541 38.205 39.188 38.205s39.188-17.101 39.188-38.205c0-21.104-17.541-38.205-39.188-38.205s-39.188 17.101-39.188 38.205zM404.248 650.387c-11.010 4.548-26.312 9.096-49.265 5.64-21.647 36.204-37.136 80.776-37.136 92.783 0 14.918 21.087 31.474 51.318 31.474s51.318-16.555 51.318-31.474c0.187-16.737-5.038-63.493-16.235-98.423zM459.484 581.982c37.136 21.104 82.482 36.022 94.798 36.022 15.302 0 32.284-20.558 32.284-50.212 0-29.472-16.982-50.030-32.284-50.030-17.168 0-64.941 4.912-100.77 15.828 4.852 10.734 10.45 31.837 5.972 48.393zM723.352 568.155c0 190.479-158.992 345.299-354.187 345.299s-354.187-154.821-354.187-345.299c0-181.746 144.81-331.109 328.062-344.208v-42.935c-82.855-12.371-146.676-82.231-146.676-166.464 0-14.008 11.756-25.47 26.126-25.47h293.352c14.369 0 26.125 11.461 26.125 25.47 0 84.233-63.821 154.093-146.676 166.464v42.935c183.065 13.099 328.062 162.462 328.062 344.208zM486.916 40.2h-235.503c11.943 52.577 60.275 92.056 117.751 92.056s105.622-39.478 117.751-92.056zM369.165 273.978c-166.457 0-301.75 132.080-301.75 294.178s135.293 294.36 301.75 294.36c166.457 0 301.75-132.080 301.75-294.178s-135.293-294.36-301.75-294.36z" />
<glyph unicode="&#xe905;" glyph-name="noun_611160_cc" horiz-adv-x="597" d="M127.581 906.857c-46.099 0-83.866-37.741-83.866-83.808v-754.275c0-46.067 37.767-83.808 83.866-83.808h335.463c46.099 0 83.866 37.741 83.866 83.808v754.275c0 46.067-37.767 83.808-83.866 83.808h-335.463zM127.581 864.953h335.463c23.593 0 41.933-18.327 41.933-41.904v-20.952h-419.328v20.952c0 23.577 18.339 41.904 41.933 41.904zM85.648 760.193h419.328v-586.658h-419.328v586.658zM85.648 131.63h419.328v-62.856c0-23.577-18.339-41.904-41.933-41.904h-335.463c-23.593 0-41.933 18.327-41.933 41.904v62.856zM219.964 100.202c-10.979-0.512-20.498-10.962-19.984-21.934s10.97-20.486 21.949-19.97h146.765c11.077-0.157 21.294 9.882 21.294 20.952s-10.217 21.109-21.294 20.952h-146.765c-0.655 0.030-1.311 0.030-1.966 0z" />
<glyph unicode="&#xe906;" glyph-name="noun_614730_cc" horiz-adv-x="1804" d="M1767.56 491.466l-123.587 83.375-224.458 348.995c-8.556 13.258-23.345 21.315-39.255 21.315h-1033.746v-91.621h708.609v-311.161c0-25.304 20.83-45.837 46.499-45.837h493.801l99.422-67.072v-223.987h-45.651c-23.29 85.854-102.565 149.315-196.848 149.315-94.337 0-173.722-63.461-196.957-149.315h-352.501c-23.236 85.854-102.565 149.315-196.848 149.315-94.337 0-173.694-63.461-196.957-149.315h-162.568v-91.621h159.534c18.835-91.837 101.335-161.199 199.992-161.199 98.602 0 181.102 69.363 199.91 161.199h346.405c18.807-91.837 101.335-161.199 199.992-161.199 98.602 0 181.048 69.363 199.91 161.199h89.061c25.669 0 46.499 20.534 46.499 45.784v293.996c-0.027 15.144-7.599 29.265-20.256 37.834zM1148.067 853.531h193.376l181.102-265.378h-374.479v265.378zM706.040 44.275c-61.233 0-111.094 49.098-111.094 109.433 0 60.362 49.861 109.487 111.094 109.487s111.012-49.098 111.012-109.487c0-60.335-49.779-109.433-111.012-109.433zM1452.346 44.275c-61.288 0-111.094 49.098-111.094 109.433 0 60.362 49.807 109.487 111.094 109.487 61.178 0 111.012-49.098 111.012-109.487-0.027-60.335-49.834-109.433-111.012-109.433zM228.613 748.355h319.861v-91.621h-319.861v91.621zM12.165 552.798h407.692v-91.621h-407.692v91.621zM116.343 389.201h238.071v-91.621h-238.071v91.621z" />
<glyph unicode="&#xe907;" glyph-name="noun_791673_cc" horiz-adv-x="1280" d="M1241.6 729.6l-281.6 140.8v25.6c0 38.4-25.6 64-64 64h-704c-108.8 0-192-83.2-192-192v-192c0-96 76.8-179.2 172.8-192l-108.8-364.8c-12.8-64 38.4-83.2 64-83.2h256c25.6 0 51.2 19.2 64 44.8l83.2 294.4 128-128c38.4-32 76.8-12.8 89.6 0 25.6 25.6 25.6 64 0 89.6l-147.2 147.2h294.4c38.4 0 64 25.6 64 64v25.6l281.6 140.8c25.6 12.8 38.4 32 38.4 57.6s-12.8 44.8-38.4 57.6zM332.8 64h-121.6l89.6 320h121.6l-89.6-320zM192 512c-38.4 0-64 25.6-64 64v192c0 38.4 25.6 64 64 64h640v-320h-640zM960 614.4v115.2l115.2-57.6-115.2-57.6z" />
<glyph unicode="&#xe908;" glyph-name="noun_791676_cc" horiz-adv-x="768" d="M409.6 960c-194.56 0-322.56-148.48-353.28-286.72-25.6-128 15.36-256 117.76-343.040 51.2-46.080 81.92-102.4 81.92-163.84v-76.8h307.2v76.8c0 61.44 25.6 117.76 76.8 158.72 81.92 71.68 128 168.96 128 276.48 0 199.68-158.72 358.4-358.4 358.4zM573.44 407.040c-66.56-51.2-102.4-128-112.64-215.040h-102.4c-5.12 81.92-46.080 158.72-117.76 215.040-71.68 61.44-102.4 153.6-81.92 245.76 20.48 97.28 117.76 204.8 250.88 204.8 143.36 0 256-112.64 256-256 0-76.8-35.84-148.48-92.16-194.56zM307.2 38.4h204.8v-102.4h-204.8v102.4z" />
<glyph unicode="&#xe909;" glyph-name="noun_791794_cc" horiz-adv-x="614" d="M512 704v256h-102.4v-256h-204.8v256h-102.4v-256h-102.4v-409.6c0-87.040 66.56-153.6 153.6-153.6h102.4v-204.8h102.4v204.8h102.4c87.040 0 153.6 66.56 153.6 153.6v409.6h-102.4zM512 294.4c0-30.72-20.48-51.2-51.2-51.2h-307.2c-30.72 0-51.2 20.48-51.2 51.2v307.2h409.6v-307.2z" />
<glyph unicode="&#xe90a;" glyph-name="noun_791798_cc" d="M460.8 345.6h102.4v-204.8h-102.4v204.8zM768 627.2c0-42.415-34.385-76.8-76.8-76.8s-76.8 34.385-76.8 76.8c0 42.415 34.385 76.8 76.8 76.8s76.8-34.385 76.8-76.8zM409.6 627.2c0-42.415-34.385-76.8-76.8-76.8s-76.8 34.385-76.8 76.8c0 42.415 34.385 76.8 76.8 76.8s76.8-34.385 76.8-76.8zM512 960c-281.6 0-512-230.4-512-512s230.4-512 512-512c281.6 0 512 230.4 512 512s-230.4 512-512 512zM512 38.4c-225.28 0-409.6 184.32-409.6 409.6s184.32 409.6 409.6 409.6c225.28 0 409.6-184.32 409.6-409.6s-184.32-409.6-409.6-409.6z" />
<glyph unicode="&#xe90b;" glyph-name="noun_792010_cc" horiz-adv-x="1138" d="M170.667 448v170.667c0 113.778 85.333 210.489 193.422 227.556-22.756-17.067-39.822-39.822-56.889-62.578-28.444-51.2-34.133-113.778-17.067-170.667l17.067-56.889 438.044 119.467-17.067 56.889c-28.444 96.711-113.778 164.978-216.178 164.978h-28.444l-62.578 62.578h-22.756c-187.733 0-341.333-153.6-341.333-341.333v-170.667h-56.889v-273.067c0-96.711 73.956-176.356 170.667-176.356v-56.889h113.778v56.889h568.889v-56.889h113.778v56.889c96.711 5.689 170.667 85.333 170.667 176.356v273.067h-967.111zM591.644 749.511l-187.733-56.889c0 11.378 5.689 17.067 11.378 28.444 17.067 28.444 39.822 45.511 68.267 56.889 5.689 5.689 17.067 5.689 28.444 5.689 28.444 0 56.889-11.378 79.644-34.133zM1024 169.244c0-34.133-28.444-68.267-68.267-68.267h-773.689c-39.822 5.689-68.267 34.133-68.267 68.267v164.978h910.222v-164.978z" />
<glyph unicode="&#xe90c;" glyph-name="noun_792058_cc" d="M808.96 960l-97.28-97.28c-30.72-30.72-46.080-66.56-46.080-107.52 0-25.6 5.12-46.080 15.36-66.56l-281.6-281.6-143.36 143.36-40.96-35.84c-138.24-138.24-215.040-327.68-215.040-527.36v-51.2h51.2c199.68 0 384 76.8 527.36 220.16l35.84 35.84-143.36 143.36 281.6 281.6c20.48-10.24 40.96-15.36 66.56-15.36 40.96 0 81.92 15.36 107.52 46.080l97.28 97.28-215.040 215.040zM102.4 38.4c10.24 133.12 61.44 261.12 153.6 363.52l215.040-209.92c-102.4-87.040-230.4-143.36-368.64-153.6zM855.040 719.36c-20.48-20.48-51.2-20.48-71.68 0-10.24 10.24-15.36 20.48-15.36 35.84s5.12 25.6 15.36 35.84l25.6 25.6 71.68-71.68-25.6-25.6z" />
<glyph unicode="&#xe90d;" glyph-name="noun_792313_cc" horiz-adv-x="819" d="M819.2 345.6l-184.32 614.4h-450.56l-184.32-614.4h189.44c-20.48-56.32-35.84-122.88-35.84-179.2 0-92.16 30.72-163.84 81.92-215.040l15.36-15.36h317.44l15.36 15.36c51.2 51.2 81.92 122.88 81.92 215.040 0 61.44-15.36 122.88-35.84 179.2h189.44zM261.12 857.6h302.080l122.88-409.6h-547.84l122.88 409.6zM522.24 345.6c25.6-56.32 40.96-117.76 40.96-179.2 0-51.2-10.24-97.28-35.84-128h-235.52c-25.6 30.72-35.84 76.8-35.84 128 0 61.44 15.36 122.88 40.96 179.2h225.28z" />
<glyph unicode="&#xe90e;" glyph-name="noun_792834_cc" d="M1013.76 693.76l-20.48 87.040-184.32-184.32h-143.36v143.36l184.32 184.32-87.040 20.48c-35.84 10.24-66.56 15.36-97.28 15.36-97.28 0-184.32-35.84-250.88-102.4-87.040-87.040-122.88-204.8-102.4-317.44l-256-256c-35.84-35.84-56.32-87.040-56.32-143.36s20.48-107.52 61.44-143.36c35.84-40.96 87.040-61.44 143.36-61.44v0c56.32 0 107.52 20.48 143.36 61.44l256 256c20.48-5.12 40.96-5.12 61.44-5.12 97.28 0 184.32 35.84 256 107.52 87.040 81.92 122.88 215.040 92.16 337.92zM276.48 69.12c-40.96-40.96-107.52-40.96-143.36 0-20.48 20.48-30.72 46.080-30.72 71.68s10.24 51.2 30.72 71.68l220.16 220.16c15.36-30.72 35.84-56.32 61.44-81.92s51.2-46.080 81.92-61.44l-220.16-220.16zM849.92 422.4c-51.2-51.2-112.64-76.8-184.32-76.8-66.56 0-133.12 25.6-179.2 76.8-97.28 97.28-97.28 261.12 0 363.52 40.96 40.96 92.16 66.56 143.36 71.68l-71.68-71.68v-291.84h291.84l71.68 71.68c-10.24-56.32-35.84-107.52-71.68-143.36z" />
<glyph unicode="&#xe90f;" glyph-name="noun_793019_cc" horiz-adv-x="717" d="M399.36 903.68l-40.96 56.32-40.96-56.32c-30.72-40.96-317.44-430.080-317.44-609.28 0-199.68 158.72-358.4 358.4-358.4s358.4 158.72 358.4 358.4c0 179.2-286.72 568.32-317.44 609.28zM358.4 38.4c-143.36 0-256 112.64-256 256 0 97.28 143.36 332.8 256 491.52 112.64-158.72 256-394.24 256-491.52 0-143.36-112.64-256-256-256zM358.4 243.2v-102.4c81.92 0 153.6 66.56 153.6 148.48h-102.4c0-25.6-25.6-46.080-51.2-46.080z" />
<glyph unicode="&#xe910;" glyph-name="noun_793530_cc" horiz-adv-x="1463" d="M1462.857 535.771l-248.686 80.457-226.743 299.886h-811.886l-175.543-343.771v-453.486h160.914c29.257-87.771 109.714-146.286 204.8-146.286s175.543 58.514 204.8 146.286h321.829c29.257-87.771 109.714-146.286 204.8-146.286s175.543 58.514 204.8 146.286h160.914v416.914zM1024 630.857h-292.571v146.286h182.857l109.714-146.286zM585.143 777.143v-146.286h-394.971l73.143 146.286h321.829zM365.714 118.857c-43.886 0-73.143 29.257-73.143 73.143s29.257 73.143 73.143 73.143c43.886 0 73.143-29.257 73.143-73.143s-29.257-73.143-73.143-73.143zM1097.143 118.857c-43.886 0-73.143 29.257-73.143 73.143s29.257 73.143 73.143 73.143c43.886 0 73.143-29.257 73.143-73.143s-29.257-73.143-73.143-73.143zM1316.571 265.143h-14.629c-29.257 87.771-109.714 146.286-204.8 146.286s-175.543-58.514-204.8-146.286h-321.829c-29.257 87.771-109.714 146.286-204.8 146.286s-175.543-58.514-204.8-146.286h-14.629v219.429h1016.686l153.6-51.2v-168.229z" />
<glyph unicode="&#xe911;" glyph-name="noun_794712_cc" horiz-adv-x="819" d="M814.080 601.6h-261.12l204.8 358.4h-491.52l-261.12-460.8h184.32l-184.32-563.2 808.96 665.6zM179.2 601.6l148.48 256h256l-204.8-358.4h148.48l-317.44-261.12 122.88 363.52h-153.6z" />
<glyph unicode="&#xe912;" glyph-name="noun_800058_cc" d="M990.268 803.966c-0.402 0.201-460.198 153.426-460.198 153.426-10.441 3.409-21.685 3.409-32.326 0l-458.792-152.825c-5.622-2.206-34.936-17.047-34.936-48.334v-611.299c0-21.861 14.055-41.315 34.936-48.334l458.993-152.825c5.421-1.604 10.642-2.607 16.063-2.607s10.842 1.003 15.862 2.607l459.194 152.825c20.882 7.020 34.936 26.474 34.936 48.334v611.299c0 4.813-5.020 35.298-33.732 47.733zM463.009 62.907l-356.995 118.73v504.001l356.995-118.931v-503.8zM514.008 657.158l-297.763 99.075 297.763 99.075 297.763-99.075-297.763-99.075zM922.002 181.637l-356.995-118.931v504.001l356.995 118.931v-504.001z" />
<glyph unicode="&#xe913;" glyph-name="noun_887578_cc-(1)" d="M805.926 209.067c66.37 79.644 108.089 182.044 108.089 293.926 0 250.311-204.8 455.111-455.111 455.111s-455.111-204.8-455.111-455.111c0-250.311 204.8-455.111 455.111-455.111 111.881 0 214.281 39.822 293.926 108.089l204.8-204.8c7.585-7.585 17.067-11.378 26.548-11.378s18.963 3.793 26.548 11.378c15.17 15.17 15.17 37.926 0 53.096l-204.8 204.8zM458.904 121.837c-208.593 0-379.259 170.667-379.259 379.259s170.667 379.259 379.259 379.259c208.593 0 379.259-170.667 379.259-379.259s-170.667-379.259-379.259-379.259z" />
<glyph unicode="&#xe914;" glyph-name="noun_894514_cc" horiz-adv-x="983" d="M360.448 949.106c-90.098 0-163.84-73.546-163.84-163.404 0-36.722 12.394-70.675 33.109-98.043h-196.949c-17.157-0.002-32.766-15.57-32.768-32.681v-196.085c0.002-17.111 15.611-32.679 32.768-32.681h32.768v-446.638c0.002-17.111 15.611-32.679 32.768-32.681h786.432c17.157 0.002 32.766 15.57 32.768 32.681v446.638h32.768c17.157 0.002 32.766 15.57 32.768 32.681v196.085c-0.002 17.111-15.611 32.679-32.768 32.681h-196.949c20.715 27.367 33.109 61.32 33.109 98.043 0 89.859-73.742 163.404-163.84 163.404-53.447 0-101.115-26.228-131.072-66.043-29.957 39.814-77.625 66.043-131.072 66.043zM360.448 883.745c54.678 0 98.304-43.509 98.304-98.043v-98.043h-98.304c-54.679 0-98.304 43.51-98.304 98.043s43.624 98.043 98.304 98.043zM622.592 883.745c54.68 0 98.304-43.508 98.304-98.043 0-54.533-43.625-98.043-98.304-98.043h-98.304v98.043c0 54.534 43.624 98.043 98.304 98.043zM65.536 622.298h393.216v-130.723h-393.216v130.723zM524.288 622.298h393.216v-130.723h-393.216v130.723zM131.072 426.213h327.68v-413.957h-327.68v413.957zM524.288 426.213h327.68v-413.957h-327.68v413.957z" />
<glyph unicode="&#xe915;" glyph-name="noun_923584_cc" d="M926.052 518.79c-13.357 10.685-26.713 24.042-29.384 32.056-2.671 9.35 4.007 28.049 9.35 45.412 9.35 26.713 20.035 57.433 5.343 82.81s-45.412 32.056-74.797 37.398c-17.363 2.671-36.063 6.678-42.741 13.357s-10.685 25.377-13.357 42.741c-5.343 29.384-12.021 60.104-37.398 74.797s-54.762 4.007-82.81-5.343c-16.028-5.343-34.727-12.021-45.412-9.35-9.35 2.671-21.37 17.363-32.056 29.384-20.035 22.706-40.070 46.748-70.79 46.748s-50.755-24.042-70.79-46.748c-10.685-13.357-24.042-26.713-32.056-29.384-9.35-2.671-28.049 4.007-45.412 9.35-28.049 9.35-57.433 20.035-82.81 5.343s-32.056-45.412-37.398-74.797c-2.671-17.363-6.678-36.063-13.357-42.741s-25.377-10.685-42.741-13.357c-29.384-5.343-60.104-12.021-74.797-37.398s-4.007-54.762 5.343-82.81c5.343-16.028 12.021-34.727 9.35-45.412-2.671-9.35-17.363-21.37-29.384-32.056-22.706-20.035-46.748-40.070-46.748-70.79 0-29.384 24.042-50.755 46.748-70.79 13.357-10.685 26.713-24.042 29.384-32.056 2.671-9.35-4.007-28.049-9.35-45.412-9.35-26.713-20.035-57.433-5.343-82.81s45.412-32.056 74.797-37.398c17.363-2.671 36.063-6.678 42.741-13.357s10.685-25.377 13.357-42.741c5.343-29.384 12.021-60.104 37.398-74.797s54.762-4.007 82.81 5.343c16.028 5.343 34.727 12.021 44.077 9.35s21.37-17.363 32.056-29.384c20.035-22.706 40.070-46.748 70.79-46.748s50.755 24.042 70.79 46.748c10.685 13.357 24.042 26.713 32.056 29.384 9.35 2.671 28.049-4.007 45.412-9.35 26.713-9.35 57.433-20.035 82.81-5.343s32.056 45.412 37.398 74.797c2.671 17.363 6.678 36.063 13.357 42.741s25.377 10.685 42.741 13.357c29.384 5.343 60.104 12.021 74.797 37.398s4.007 54.762-5.343 82.81c-5.343 16.028-12.021 34.727-9.35 45.412 2.671 9.35 17.363 21.37 29.384 32.056 22.706 20.035 46.748 40.070 46.748 70.79 1.336 29.384-21.37 50.755-45.412 70.79zM896.668 410.602c-18.699-16.028-37.398-32.056-42.741-54.762-6.678-22.706 2.671-46.748 10.685-70.79 5.343-16.028 13.357-38.734 8.014-45.412-4.007-8.014-28.049-12.021-44.077-16.028-24.042-5.343-49.419-9.35-65.447-26.713-16.028-16.028-21.37-41.405-26.713-65.447-2.671-17.363-8.014-40.070-16.028-44.077s-30.72 4.007-45.412 9.35c-24.042 8.014-48.083 16.028-70.79 10.685-21.37-5.343-38.734-25.377-54.762-42.741-12.021-13.357-26.713-30.72-37.398-30.72s-25.377 18.699-37.398 30.72c-16.028 18.699-32.056 37.398-54.762 42.741-5.343 1.336-10.685 2.671-16.028 2.671-17.363 0-36.063-6.678-54.762-12.021-16.028-5.343-38.734-13.357-45.412-8.014-8.014 4.007-12.021 28.049-16.028 45.412-5.343 24.042-9.35 49.419-26.713 65.447-16.028 16.028-41.405 21.37-65.447 26.713-17.363 2.671-40.070 8.014-44.077 16.028s2.671 29.384 8.014 45.412c8.014 24.042 16.028 48.083 10.685 70.79-5.343 21.37-25.377 38.734-42.741 54.762-13.357 12.021-30.72 26.713-30.72 37.398 0 9.35 18.699 25.377 30.72 37.398 18.699 16.028 37.398 32.056 42.741 54.762 6.678 22.706-2.671 46.748-10.685 70.79-5.343 16.028-13.357 38.734-8.014 45.412 4.007 8.014 28.049 12.021 44.077 16.028 24.042 5.343 49.419 9.35 65.447 26.713 16.028 16.028 21.37 41.405 26.713 65.447 2.671 17.363 8.014 40.070 16.028 44.077s29.384-2.671 45.412-9.35c24.042-8.014 48.083-16.028 70.79-10.685 21.37 5.343 38.734 25.377 54.762 42.741 12.021 13.357 26.713 30.72 37.398 30.72s25.377-18.699 37.398-30.72c16.028-18.699 32.056-37.398 54.762-42.741 22.706-6.678 46.748 2.671 70.79 10.685 16.028 5.343 38.734 13.357 45.412 8.014 8.014-4.007 12.021-28.049 16.028-45.412 5.343-24.042 9.35-49.419 26.713-65.447 16.028-16.028 41.405-21.37 65.447-26.713 17.363-2.671 40.070-8.014 44.077-16.028s-2.671-29.384-8.014-45.412c-8.014-24.042-16.028-48.083-10.685-70.79 5.343-21.37 25.377-38.734 42.741-54.762 13.357-12.021 30.72-26.713 30.72-37.398 1.336-10.685-17.363-26.713-30.72-38.734zM460.8 542.831c0 45.412-33.391 80.139-84.146 80.139s-82.81-36.063-82.81-80.139c0-44.077 32.056-80.139 82.81-80.139s84.146 36.063 84.146 80.139zM344.598 542.831c0 24.042 13.357 36.063 32.056 36.063s33.391-12.021 33.391-36.063c0-22.706-14.692-36.063-33.391-36.063s-32.056 13.357-32.056 36.063zM647.346 453.343c-50.755 0-84.146-36.063-84.146-80.139s32.056-80.139 84.146-80.139c50.755 0 84.146 34.727 84.146 80.139-1.336 44.077-33.391 80.139-84.146 80.139zM647.346 337.141c-18.699 0-32.056 12.021-32.056 36.063s13.357 36.063 32.056 36.063c18.699 0 32.056-12.021 32.056-36.063s-13.357-36.063-32.056-36.063zM593.475 618.963l-204.355-320.557h41.405l205.69 320.557z" />
<glyph unicode="&#xe916;" glyph-name="noun_927434_cc" horiz-adv-x="1147" d="M38.234 947.406c-21.114 0-38.229-16.915-38.229-37.781s17.115-37.781 38.229-37.781h127.034c63.272-154.872 125.595-310.027 188.358-465.182l-57.742-137.35c-4.837-11.452-3.476-25.259 3.506-35.572 6.983-10.313 19.38-16.823 31.936-16.771h637.156c20.197-0.277 38.773 17.819 38.773 37.781s-18.577 38.063-38.773 37.781h-579.812l33.053 77.924 613.66 48.408c16.063 1.247 30.603 13.613 34.247 29.123l76.459 327.438c5 22.054-14.564 46.12-37.433 46.046h-840.648l-41.415 102.324c-5.671 13.851-20.323 23.613-35.441 23.613h-152.917zM298.671 745.906h761.8l-59.336-254.237-581.006-45.653-121.458 299.889zM458.756 191.78c-69.925 0-127.431-56.831-127.431-125.938s57.506-125.938 127.431-125.938 127.431 56.832 127.431 125.938c0 69.106-57.506 125.938-127.431 125.938zM841.050 191.78c-69.925 0-127.431-56.832-127.431-125.938s57.506-125.938 127.431-125.938c69.925 0 127.431 56.832 127.431 125.938s-57.506 125.938-127.431 125.938zM458.756 116.218c28.604 0 50.972-22.106 50.972-50.375s-22.368-50.375-50.972-50.375c-28.602 0-50.972 22.107-50.972 50.375s22.371 50.375 50.972 50.375zM841.050 116.218c28.602 0 50.972-22.107 50.972-50.375s-22.371-50.375-50.972-50.375c-28.604 0-50.972 22.106-50.972 50.375s22.368 50.375 50.972 50.375z" />
</font>
</defs>
</svg>
