<svg width="27" height="23" viewBox="0 0 27 23" fill="none" xmlns="http://www.w3.org/2000/svg"><path d="M23.952 1.5h-6.466c0-.725-.58-1.313-1.294-1.313H11.02c-.714 0-1.294.589-1.294 1.313H3.26C1.829 1.5.672 2.675.672 4.125v15.75c0 1.45 1.157 2.625 2.587 2.625h20.693c1.43 0 2.587-1.175 2.587-2.625V4.125c0-1.45-1.157-2.625-2.587-2.625zm-6.466 11.813h-2.587v2.624c0 .725-.58 1.313-1.293 1.313a1.304 1.304 0 01-1.294-1.313v-2.624H9.725A1.304 1.304 0 018.432 12c0-.725.58-1.313 1.293-1.313h2.587V8.063c0-.725.58-1.313 1.293-1.313.714 0 1.294.588 1.294 1.313v2.624h2.587c.713 0 1.293.588 1.293 1.313s-.58 1.313-1.293 1.313z" fill="#fff"/></svg>