<svg width="27" height="28" viewBox="0 0 27 28" fill="none" xmlns="http://www.w3.org/2000/svg"><path d="M18.767.862a1.28 1.28 0 00-.722.224 1.314 1.314 0 00-.476.595 1.33 1.33 0 00.297 1.435l2.326 2.36-2.162 2.195-2.059-2.09a2.56 2.56 0 00-3.658 0l-8.26 8.373a2.646 2.646 0 00-.758 1.843l-.033 6.86-2.208 2.225a1.313 1.313 0 00-.4.932 1.33 1.33 0 00.377.943 1.292 1.292 0 00.926.387 1.278 1.278 0 00.921-.4L5.101 24.5h6.677c.685 0 1.343-.277 1.829-.769l.656-.666L11.4 20.1a1.325 1.325 0 010-1.856 1.281 1.281 0 011.829 0l2.864 2.964 2.031-2.061-2.809-2.907a1.327 1.327 0 010-1.856 1.281 1.281 0 011.83 0l2.808 2.907 1.95-1.98a2.652 2.652 0 000-3.711L19.86 9.527l2.162-2.194 2.311 2.345a1.293 1.293 0 00.92.404 1.278 1.278 0 00.928-.385 1.313 1.313 0 00.379-.941 1.33 1.33 0 00-.398-.934L19.694 1.26a1.292 1.292 0 00-.927-.398z" fill="#F53"/></svg>