<svg width="44" height="44" viewBox="0 0 44 44" fill="none" xmlns="http://www.w3.org/2000/svg"><path d="M42.51 34.422l-9.823-8.932a2.42 2.42 0 00-3.361.104l-5.784 5.947c-1.392-.266-4.19-1.138-7.07-4.011-2.881-2.884-3.754-5.69-4.012-7.072l5.942-5.785a2.417 2.417 0 00.104-3.362L9.576 1.49a2.416 2.416 0 00-3.361-.21L.971 5.777c-.418.42-.667.976-.701 1.569-.036.604-.727 14.915 10.37 26.017 9.681 9.68 21.808 10.387 25.148 10.387.488 0 .788-.014.867-.02a2.396 2.396 0 001.566-.702l4.495-5.247a2.41 2.41 0 00-.205-3.36z" fill="#fff"/></svg>