<svg width="128" height="129" viewBox="0 0 128 129" fill="none" xmlns="http://www.w3.org/2000/svg"><path fill-rule="evenodd" clip-rule="evenodd" d="M64 128.873c35.346 0 64-28.654 64-64 0-35.346-28.654-64-64-64-35.346 0-64 28.654-64 64 0 35.346 28.654 64 64 64zm-5.827-88.054l26.6 15.4c6.646 3.847 9.969 5.771 9.969 8.654s-3.323 4.807-9.97 8.654l-26.599 15.4c-6.67 3.862-10.005 5.792-12.508 4.35-2.502-1.443-2.502-5.297-2.502-13.004v-30.8c0-7.707 0-11.56 2.502-13.004 2.503-1.443 5.838.488 12.508 4.35z" fill="#fff"/></svg>