<svg width="19" height="18" viewBox="0 0 19 18" fill="none" xmlns="http://www.w3.org/2000/svg"><path fill-rule="evenodd" clip-rule="evenodd" d="M9.317 18a8.934 8.934 0 100-17.869 8.934 8.934 0 000 17.869zm-2.14-3.435a.36.36 0 00.187.051c.34 0 .68-.017 1.019-.05.407-.023.707-.035.9-.035.192 0 .514.012.967.034.453.023.798.034 1.035.034.17 0 .255-.073.255-.22 0-.091-.028-.159-.085-.204a.565.565 0 00-.22-.119c-.317-.09-.532-.181-.646-.271a.452.452 0 01-.17-.374V9.66c0-.385.052-1.007.153-1.868l.068-.628a.161.161 0 00-.068-.135c-.033-.046-.084-.068-.152-.068-.068 0-.181.045-.34.136a19.41 19.41 0 01-1.29.577 6.536 6.536 0 01-1.34.373.268.268 0 00-.137.102.356.356 0 00-.05.187c0 .079.016.147.05.203a.21.21 0 00.153.102c.26.034.447.136.56.306.113.17.17.441.17.815v3.666c0 .181-.057.317-.17.407-.113.08-.322.153-.628.221-.204.057-.305.17-.305.34a.21.21 0 00.085.17zm1.12-8.759c.261.26.572.39.934.39.385 0 .708-.13.968-.39.272-.26.407-.571.407-.933 0-.385-.135-.707-.407-.968-.26-.26-.583-.39-.968-.39-.362 0-.673.13-.933.39s-.39.583-.39.968c0 .362.13.673.39.933z" fill="#2D2C2C"/></svg>