<svg width="47" height="34" viewBox="0 0 47 34" fill="none" xmlns="http://www.w3.org/2000/svg"><path fill-rule="evenodd" clip-rule="evenodd" d="M41.678 1.903a5.763 5.763 0 014.054 4.055c.985 3.599.947 11.102.947 11.102s0 7.464-.947 11.064a5.763 5.763 0 01-4.054 4.054c-3.6.947-17.998.947-17.998.947s-14.361 0-17.999-.985a5.764 5.764 0 01-4.054-4.054C.68 24.524.68 17.022.68 17.022s0-7.465.947-11.064c.53-1.97 2.122-3.562 4.054-4.092C9.281.918 23.68.918 23.68.918s14.399 0 17.999.985zm-10.61 15.12l-11.973 6.895V10.126l11.974 6.896z" fill="#F53"/></svg>