<svg xmlns="http://www.w3.org/2000/svg" width="70" height="70" viewBox="0 0 70 70"><defs><clipPath id="a"><path transform="translate(50 50)" fill="#e5e5e5" d="M0 0h70v70H0z"/></clipPath></defs><g transform="translate(-50 -50)" clip-path="url(#a)"><path d="M85 89.478c4.83 0 16.185-5.812 16.185-19.739C101.185 58.837 99.713 50 85 50s-16.185 8.837-16.185 19.739c0 13.927 11.355 19.739 16.185 19.739zM71.234 66.445c1.137-2.2 3.6-4.74 8.885-4.627 0 0 3.152 7.646 18.628 4.212.062 1.221.082 2.468.082 3.709A17.6 17.6 0 0193.3 83.1c-3.177 2.948-6.705 4.018-8.3 4.018s-5.124-1.07-8.3-4.018a17.6 17.6 0 01-5.528-13.365 74.951 74.951 0 01.062-3.29z" fill="#1f3446"/><path d="M115.047 109.722c-.826-5.138-2.527-11.756-5.939-14.108-2.33-1.606-10.459-5.949-13.93-7.8l-.06-.032a1.134 1.134 0 00-1.235.108 14.747 14.747 0 01-5.92 2.86 1.135 1.135 0 00-.814.7L85 97.115l-2.149-5.664a1.135 1.135 0 00-.814-.7 14.747 14.747 0 01-5.92-2.86 1.134 1.134 0 00-1.235-.108c-3.43 1.833-11.658 6.264-13.98 7.829-3.927 2.641-5.645 12.217-5.949 14.11a1.136 1.136 0 00.047.559c.144.397 3.749 9.719 30 9.719s29.856-9.322 30-9.719a1.134 1.134 0 00.047-.559zm-12.1-3.135l-5.138 1.6-5.138-1.6v-2.765h10.279z" fill="#78ae3e"/></g></svg>