<svg xmlns="http://www.w3.org/2000/svg" width="70" height="70" viewBox="0 0 70 70"><defs><clipPath id="a"><path transform="translate(50 50)" fill="#e5e5e5" d="M0 0h70v70H0z"/></clipPath></defs><g transform="translate(-50 -50)" clip-path="url(#a)"><path d="M85 50a26.8 26.8 0 00-26.765 26.765v24.705a6.177 6.177 0 1012.353 0V80.882a6.183 6.183 0 00-6.177-6.176 6.108 6.108 0 00-1.972.352 22.624 22.624 0 0145.12-.017 6.065 6.065 0 00-1.971-.335 6.183 6.183 0 00-6.177 6.176v20.588a6.184 6.184 0 006.177 6.177 6.105 6.105 0 002.059-.379v2.438a2.062 2.062 0 01-2.059 2.059H90.8a6.176 6.176 0 100 4.118h14.788a6.183 6.183 0 006.176-6.176V76.765A26.8 26.8 0 0085 50zm0 0" fill="#1f3446"/><path d="M115.882 79.2v23.95A6.166 6.166 0 00120 97.353V85a6.167 6.167 0 00-4.118-5.8zM50 85v12.353a6.166 6.166 0 004.118 5.8V79.2A6.167 6.167 0 0050 85zm0 0" fill="#78ae3e"/></g></svg>