<svg xmlns="http://www.w3.org/2000/svg" width="70" height="70" viewBox="0 0 70 70"><defs><clipPath id="a"><path transform="translate(50 50)" fill="#e5e5e5" d="M0 0h70v70H0z"/></clipPath></defs><g transform="translate(-50 -50)" clip-path="url(#a)"><path d="M86.251 119.93c5.353-.761 10.045-6.347 13-14.6a63.539 63.539 0 00-13-1.53zm0 0" fill="#1f3446"/><path d="M94.8 118.621c.316-.092.632-.184.944-.285.264-.085.524-.177.784-.268a30.59 30.59 0 001.696-.641c.3-.125.6-.25.89-.375a37.797 37.797 0 001.63-.77q.376-.191.751-.392.421-.225.836-.461c.25-.142.492-.284.735-.431q.407-.25.809-.5a30.307 30.307 0 001.499-1.016c.233-.167.464-.333.691-.5.25-.193.507-.393.758-.593.223-.178.445-.354.665-.537.25-.208.489-.423.732-.638.213-.189.426-.376.634-.569.239-.223.472-.454.7-.683.2-.2.406-.4.6-.6.037-.038.071-.079.109-.118a42.048 42.048 0 00-8.572-3.3 31.044 31.044 0 01-8 12.983c.1-.026.2-.048.3-.074.268-.075.53-.158.792-.235zm25.2-32.37h-15a64.879 64.879 0 01-2.526 17.308 43.509 43.509 0 019.494 3.778A34.952 34.952 0 00120 86.251zm0 0" fill="#78ae3e"/><path d="M86.251 83.749H102.5a62.583 62.583 0 00-2.463-16.692 65.9 65.9 0 01-13.786 1.644zm0-33.679v16.129a63.582 63.582 0 0013-1.53c-2.951-8.248-7.651-13.838-13-14.598zm0 51.23a65.937 65.937 0 0113.784 1.644 62.587 62.587 0 002.465-16.693H86.251zm0 0" fill="#1f3446"/><path d="M111.968 62.663a43.509 43.509 0 01-9.494 3.778A64.878 64.878 0 01105 83.749h15a34.963 34.963 0 00-8.031-21.086zm-1.69-1.898c-.037-.037-.071-.078-.108-.116l-.6-.6c-.232-.229-.464-.461-.7-.683-.207-.193-.421-.376-.634-.568-.243-.215-.485-.432-.734-.64-.216-.183-.438-.357-.658-.533-.25-.2-.507-.4-.765-.6a37.48 37.48 0 00-.685-.5 30.349 30.349 0 00-.79-.555 28.622 28.622 0 00-.709-.462 29.083 29.083 0 00-1.545-.935q-.42-.24-.843-.467c-.25-.125-.5-.261-.751-.387a30.81 30.81 0 00-.875-.423q-.381-.175-.771-.345c-.3-.131-.6-.25-.894-.375a26.245 26.245 0 00-1.694-.639c-.26-.092-.52-.183-.784-.268-.313-.1-.626-.194-.947-.286-.26-.076-.522-.154-.785-.224-.1-.027-.2-.049-.3-.075a31.046 31.046 0 018 12.983 41.985 41.985 0 008.582-3.3zm0 0" fill="#78ae3e"/><path d="M50 83.749h15a64.9 64.9 0 012.525-17.308 43.455 43.455 0 01-9.494-3.778A34.954 34.954 0 0050 83.749zm33.749 36.181v-16.128a63.582 63.582 0 00-13 1.53c2.952 8.251 7.645 13.838 13 14.6zm0-33.679H67.5a62.563 62.563 0 002.463 16.693 65.85 65.85 0 0113.784-1.644zm0-36.181c-5.349.761-10.049 6.351-12.998 14.599a63.5 63.5 0 0013 1.53zm0 18.631a65.9 65.9 0 01-13.784-1.644A62.559 62.559 0 0067.5 83.749h16.249zm-7.46-17.618c-.1.026-.2.048-.3.074-.265.071-.527.15-.79.226-.314.092-.626.184-.941.284-.266.086-.527.178-.789.269-.306.108-.613.216-.916.33-.261.1-.519.2-.778.31l-.889.375c-.258.113-.513.232-.768.351-.289.136-.577.275-.862.419q-.376.192-.751.392-.421.225-.834.462-.376.21-.738.43c-.272.164-.541.333-.808.5a31.476 31.476 0 00-1.499 1.017c-.233.167-.464.333-.692.5-.256.192-.5.393-.758.593-.222.178-.447.354-.664.538-.25.206-.488.42-.729.634-.214.191-.429.376-.638.573-.238.222-.469.452-.7.68-.2.2-.407.4-.6.6-.036.038-.071.079-.109.118a42 42 0 008.572 3.3 31.033 31.033 0 017.981-12.975zM60.433 109.95c.233.229.464.461.7.684.208.192.421.375.635.567.243.216.485.432.734.64.216.181.437.357.658.533.25.2.5.4.765.6.225.169.454.333.684.5.261.188.525.375.792.555.234.158.472.312.709.463.271.173.541.344.816.509q.362.218.729.427.42.24.843.466c.25.125.5.261.751.387.288.145.578.285.875.423q.376.177.762.348c.3.131.595.25.894.375.258.105.514.209.775.308.3.117.611.225.919.332.26.091.52.183.784.268.313.1.626.194.947.286.26.076.522.154.784.224.1.027.2.049.305.075a31.052 31.052 0 01-8-12.984 42 42 0 00-8.572 3.3c.037.037.071.078.108.116.188.2.39.4.594.6zm-2.402-2.613a43.517 43.517 0 019.494-3.778A64.9 64.9 0 0165 86.251H50a34.959 34.959 0 008.031 21.086zm0 0" fill="#1f3446"/></g></svg>