<svg width="34" height="34" viewBox="0 0 34 34" fill="none" xmlns="http://www.w3.org/2000/svg"><g clip-path="url(#clip0)"><path d="M17 34c9.389 0 17-7.611 17-17S26.389 0 17 0 0 7.611 0 17s7.611 17 17 17z" fill="#A8ADF0"/><path d="M17 0c-.752 0-1.492.05-2.217.144C23.123 1.23 29.565 8.363 29.565 17c0 8.637-6.441 15.77-14.782 16.856A17.08 17.08 0 0017 34c9.389 0 17-7.611 17-17S26.39 0 17 0z" fill="#989FEC"/><path d="M27.746 7.582l-.084-.213a.026.026 0 00-.013-.014l-.208-.095c-1.716-.779-4.136-.971-6.276-1.056h-2.412c-.027 0-.035.037-.01.048l4.952 2.375c.028.013.013.055-.017.047a26.521 26.521 0 00-6.7-.876 26.52 26.52 0 00-6.678.87c-.03.008-.046-.034-.018-.047l5.127-2.368c.025-.012.017-.05-.01-.05h-2.607c-2.141.086-4.561.278-6.276 1.057l-.209.095a.025.025 0 00-.013.014l-.084.213c-1.755 4.448-2.254 12-1.722 16.73l.028.249.197.153c2.742 2.126 6.41 3.22 8.716 3.51l.299.037a.21.21 0 00.223-.135l1.502-4.011a.21.21 0 00-.165-.283l-.46-.072c-1.607-.252-3.883-.922-5.807-2.666-.041-.037-.001-.104.05-.085.157.058.33.125.507.195.435.17.885.345 1.178.415 2.063.49 4.155.74 6.222.74v-.037h.004v.036a26.91 26.91 0 006.218-.739c.294-.07.743-.245 1.178-.415.178-.07.35-.137.506-.195.052-.02.092.048.05.085-1.916 1.737-4.195 2.404-5.806 2.656l-.46.073a.21.21 0 00-.165.282l1.502 4.02a.21.21 0 00.224.136l.298-.037c2.307-.29 5.974-1.384 8.716-3.51l.197-.153.028-.248c.532-4.731.034-12.283-1.722-16.731zM12.078 18.503a2.997 2.997 0 01-3.255-3.254 3 3 0 012.708-2.709 2.997 2.997 0 013.255 3.255 3 3 0 01-2.708 2.708zm10.347 0a2.997 2.997 0 01-3.254-3.254 3 3 0 012.708-2.709 2.997 2.997 0 013.254 3.255 3 3 0 01-2.708 2.708z" fill="#fff"/></g><defs><clipPath id="clip0"><path fill="#fff" d="M0 0h34v34H0z"/></clipPath></defs></svg>