<svg width="18" height="18" viewBox="0 0 18 18" fill="none" xmlns="http://www.w3.org/2000/svg"><g clip-path="url(#clip0)"><path d="M1.125 1.225C-.29 2.694 0 4.255 0 8.996c0 3.938-.687 7.885 2.908 8.814 1.123.289 11.071.289 12.192-.001 1.498-.387 2.716-1.6 2.882-3.718.023-.295.023-9.889 0-10.19-.178-2.256-1.566-3.555-3.395-3.819-.42-.06-.503-.078-2.655-.082C4.302.004 2.63-.336 1.125 1.225z" fill="url(#paint0_linear)"/><path d="M8.999 2.354c-2.724 0-5.31-.242-6.297 2.293-.408 1.047-.35 2.407-.35 4.354 0 1.708-.054 3.314.35 4.353.985 2.536 3.592 2.293 6.295 2.293 2.608 0 5.296.272 6.296-2.293.409-1.058.349-2.397.349-4.353 0-2.597.143-4.273-1.116-5.532-1.275-1.275-3-1.115-5.53-1.115h.003zm-.596 1.198c5.68-.01 6.403-.64 6.005 8.132-.142 3.103-2.505 2.762-5.409 2.762-5.295 0-5.447-.151-5.447-5.448 0-5.36.42-5.443 4.851-5.448v.002zm4.143 1.103a.797.797 0 100 1.595.797.797 0 000-1.595zm-3.547.932a3.413 3.413 0 100 6.827 3.413 3.413 0 000-6.827zm0 1.198c2.928 0 2.932 4.431 0 4.431-2.928 0-2.933-4.43 0-4.43z" fill="#fff"/></g><defs><linearGradient id="paint0_linear" x1="1.16" y1="16.85" x2="17.889" y2="2.371" gradientUnits="userSpaceOnUse"><stop stop-color="#FD5"/><stop offset=".5" stop-color="#FF543E"/><stop offset="1" stop-color="#C837AB"/></linearGradient><clipPath id="clip0"><path fill="#fff" d="M0 0h18v18H0z"/></clipPath></defs></svg>