<svg width="34" height="34" viewBox="0 0 34 34" fill="none" xmlns="http://www.w3.org/2000/svg"><path d="M33.397 17.176c0-8.829-7.26-15.988-16.216-15.988-.944 0-1.87.08-2.774.234A9.463 9.463 0 009.405 0C4.21 0 0 4.15 0 9.274c0 1.71.472 3.31 1.292 4.69a15.86 15.86 0 00-.33 3.212c0 8.832 7.262 15.991 16.216 15.991 1.016 0 2.006-.093 2.971-.268A9.48 9.48 0 0024.597 34C29.79 34 34 29.848 34 24.729a9.131 9.131 0 00-.977-4.119 15.79 15.79 0 00.373-3.434z" fill="#03A9F4"/><path d="M25.498 24.818c-.75 1.047-1.858 1.876-3.296 2.463-1.422.582-3.124.882-5.066.882-2.33 0-4.282-.404-5.808-1.203a7.539 7.539 0 01-2.669-2.338c-.69-.977-1.037-1.948-1.037-2.89 0-.582.228-1.092.676-1.506.444-.415 1.014-.62 1.694-.62.556 0 1.037.163 1.428.488.371.314.692.778.95 1.37.286.65.599 1.2.928 1.626.32.419.778.767 1.362 1.041.589.273 1.381.415 2.355.415 1.34 0 2.441-.285 3.266-.84.81-.541 1.2-1.196 1.2-1.995 0-.629-.206-1.126-.624-1.515-.442-.408-1.025-.725-1.73-.944-.737-.225-1.738-.471-2.975-.726-1.685-.355-3.115-.774-4.25-1.254-1.162-.489-2.102-1.164-2.786-2.008-.697-.863-1.05-1.94-1.05-3.207 0-1.207.37-2.295 1.101-3.234.725-.933 1.783-1.662 3.15-2.157 1.344-.49 2.945-.737 4.757-.737 1.447 0 2.72.165 3.785.493 1.069.327 1.97.769 2.677 1.315.714.553 1.246 1.137 1.577 1.749.336.616.508 1.23.508 1.823 0 .572-.223 1.093-.665 1.543-.446.455-1.007.684-1.666.684-.6 0-1.071-.146-1.396-.429-.304-.266-.62-.68-.97-1.27-.403-.757-.894-1.354-1.455-1.777-.546-.41-1.456-.614-2.71-.614-1.16 0-2.107.23-2.809.684-.675.435-1.005.937-1.005 1.532 0 .363.107.667.325.929.23.28.555.52.967.724.425.21.865.38 1.305.5.45.123 1.205.308 2.244.544 1.313.276 2.518.588 3.585.926 1.082.338 2.012.757 2.777 1.247.776.5 1.39 1.137 1.828 1.902.438.772.659 1.717.659 2.818a6.02 6.02 0 01-1.137 3.566z" fill="#FAFAFA"/></svg>