<svg xmlns="http://www.w3.org/2000/svg" width="70" height="70" viewBox="0 0 70 70"><g clip-path="url(#clip-501aba45-0114-420c-b4a6-f8bb10ebf67a)"><path fill="#fff" d="M23.876 7.903l3.468 3.469 3.763 3.763c.82.82 1.91 1.271 3.07 1.271s2.25-.452 3.07-1.271a4.349 4.349 0 000-6.142L30.016 1.76A4.313 4.313 0 0026.944.488c-1.16 0-2.25.452-3.07 1.272a4.35 4.35 0 00-.017 6.125l.02.018zm-9.042 9.042l2.263 2.263 4.969 4.968.006.006 1.777 1.778.025.024c.82.82 1.91 1.272 3.07 1.272s2.25-.452 3.071-1.272a4.316 4.316 0 001.272-3.07c0-1.16-.452-2.25-1.272-3.07l-1.791-1.792-.02-.019-4.144-4.145-3.083-3.082-.004-.004a4.313 4.313 0 00-3.07-1.272c-1.16 0-2.25.451-3.071 1.272a4.349 4.349 0 00-.01 6.131l.012.012zm-9.029 9.054l7.197 7.196.023.022c.82.82 1.91 1.272 3.07 1.272s2.25-.451 3.07-1.271a4.348 4.348 0 00.005-6.137l-4.57-4.568-2.668-2.67a4.315 4.315 0 00-3.07-1.272c-1.16 0-2.25.452-3.07 1.272a4.315 4.315 0 00-1.273 3.07A4.312 4.312 0 005.805 26zm.905 18.987a4.31 4.31 0 002.363 1.201l.054.01c.21.03.423.046.64.046a4.31 4.31 0 003.07-1.272 4.348 4.348 0 000-6.14l-5.425-5.425a4.317 4.317 0 00-3.072-1.272c-1.16 0-2.25.452-3.07 1.271a4.347 4.347 0 000 6.14l.022.024 5.401 5.4.017.017z"/><path fill="#78ae3e" d="M68.73 33.405a4.338 4.338 0 00-5.29-.663 2.05 2.05 0 01-2.666-.5l-.12-.155a2.05 2.05 0 01.165-2.712l3.389-3.39.033-.033a4.315 4.315 0 001.24-3.038c0-1.16-.451-2.25-1.272-3.071a4.314 4.314 0 00-3.07-1.272c-1.16 0-2.25.452-3.071 1.272a2.05 2.05 0 11-2.9-2.9 4.348 4.348 0 000-6.142 4.349 4.349 0 00-6.141 0 2.05 2.05 0 11-2.9-2.9 4.312 4.312 0 001.272-3.07c0-1.16-.452-2.25-1.272-3.07a4.348 4.348 0 00-6.142 0l-2.084 2.084 2.247 2.248c3.292 3.292 3.292 8.65 0 11.942a8.375 8.375 0 01-5.118 2.43 8.48 8.48 0 01.358 2.449 8.389 8.389 0 01-2.473 5.971 8.39 8.39 0 01-5.971 2.473 8.467 8.467 0 01-2.453-.36 8.408 8.408 0 01-2.425 5.12 8.388 8.388 0 01-4.584 2.358c1.37 3.099.79 6.86-1.745 9.396a8.39 8.39 0 01-5.97 2.473h-.001c-.093 0-.184-.004-.276-.007l-3.358 3.358c-.659.66-.993 1.587-.94 2.613.056 1.104.544 2.17 1.375 3l9.134 9.135a4.282 4.282 0 006.049 0l5.178-5.178 1.98-.532c8.097 2.163 16.805-.17 22.725-6.09L63.28 44.997l.027-.028 5.423-5.423a4.348 4.348 0 000-6.141z"/><path fill="#fff" d="M62.125 51.953l-7.591 7.592a27.662 27.662 0 01-9.124 6.059l2.84 2.84a4.282 4.282 0 006.049 0l9.135-9.134c1.64-1.64 2.032-4.016.858-5.19l-2.167-2.167z"/></g></svg>