<svg xmlns="http://www.w3.org/2000/svg" width="21" height="17" viewBox="0 0 21 17"><g clip-path="url(#clip-3dd0d40e-43ce-43a7-8d39-7df51c94f778)" fill="#78ae3e"><path d="M19.154.502H1.846c-.284 0-.55.07-.791.185l9.404 9.404 2.108-2.026L19.945.687a1.824 1.824 0 00-.79-.185zm1.661 1.055L13.872 8.5l6.943 6.943c.115-.24.185-.507.185-.79V2.347c0-.284-.07-.55-.185-.79zm-20.63 0c-.115.24-.185.507-.185.79v12.305c0 .284.07.55.185.79L7.128 8.5z"/><path d="M13.002 9.37l-2.108 2.026a.613.613 0 01-.87 0L7.998 9.37l-6.943 6.943c.24.115.507.185.79.185h17.31c.283 0 .55-.07.79-.185z"/></g></svg>