<svg xmlns="http://www.w3.org/2000/svg" width="13" height="21" viewBox="0 0 13 21"><g clip-path="url(#clip-e198bbaa-7b35-4fa9-a9ce-ffde445df61d)" fill="#78ae3e"><path d="M.132 11.27c-.537 1.055.072 1.559 1.462 2.42 1.18.73 2.813.996 3.86 1.103l-.878.845c-1.245 1.186-2.426 2.334-3.252 3.129-1.202 1.152.733 3.001 1.935 1.873l3.252-3.136a620.17 620.17 0 013.252 3.14c1.202 1.133 3.137-.7 1.948-1.873l-3.252-3.128-.891-.846c1.061-.106 2.669-.389 3.836-1.103h-.001c1.39-.866 1.998-1.37 1.47-2.424-.32-.598-1.18-1.099-2.327-.233 0 0-1.547 1.185-4.044 1.185s-4.044-1.185-4.044-1.185c-1.146-.87-2.01-.365-2.326.233z"/><path d="M6.5 2.694c1.495 0 2.715 1.173 2.715 2.624 0 1.438-1.22 2.612-2.715 2.612-1.496 0-2.715-1.174-2.715-2.612C3.784 3.866 5.003 2.694 6.5 2.694zm0 7.93c3.043 0 5.528-2.378 5.528-5.306C12.028 2.378 9.543 0 6.5 0 3.456 0 .97 2.378.97 5.318c0 2.928 2.486 5.306 5.53 5.306z"/></g></svg>