<svg xmlns="http://www.w3.org/2000/svg" width="21" height="21" viewBox="0 0 21 21"><g clip-path="url(#clip-90650c5e-6a0b-46ab-9760-4ed89eb0fd8e)"><path fill="#78ae3e" d="M15.966 13.892c-.686-.677-1.543-.677-2.225 0-.52.516-1.04 1.031-1.551 1.556-.14.144-.258.174-.428.078-.337-.183-.695-.332-1.018-.533-1.508-.948-2.77-2.167-3.89-3.54-.555-.681-1.048-1.411-1.394-2.233-.07-.166-.056-.275.079-.41.52-.503 1.027-1.018 1.538-1.534.713-.717.713-1.556-.004-2.277-.407-.41-.813-.813-1.22-1.223-.419-.42-.834-.844-1.258-1.259-.686-.669-1.542-.669-2.224.004-.525.516-1.027 1.045-1.56 1.552C.317 4.54.068 5.113.015 5.78-.068 6.87.2 7.896.575 8.897c.769 2.071 1.94 3.911 3.36 5.598 1.919 2.281 4.208 4.086 6.887 5.388 1.206.586 2.456 1.036 3.815 1.11.935.052 1.748-.184 2.4-.913.445-.498.948-.953 1.42-1.43.699-.707.703-1.564.008-2.263-.83-.835-1.665-1.665-2.5-2.495zm-.836-3.482l1.613-.276a7.207 7.207 0 00-2.014-3.89 7.168 7.168 0 00-4.108-2.049l-.227 1.621c1.21.17 2.312.717 3.181 1.587a5.56 5.56 0 011.556 3.006zm2.522-7.01A11.89 11.89 0 0010.835 0l-.227 1.621a10.31 10.31 0 015.89 2.937 10.301 10.301 0 012.89 5.571L21 9.854A11.977 11.977 0 0017.652 3.4z"/></g></svg>