<svg xmlns="http://www.w3.org/2000/svg" width="70" height="70" viewBox="0 0 70 70"><g clip-path="url(#clip-40421f5c-e6bb-474e-8f23-6c1313fabac5)"><path fill="#1f3446" d="M69.615 47.373c0-8.686-4.983-16.439-12.447-20.21-.231 16.655-13.734 30.159-30.39 30.39C30.55 65.017 38.302 70 46.988 70c4.073 0 8.034-1.085 11.513-3.146l11.015 3.047-3.046-11.015a22.546 22.546 0 003.145-11.513z"/><path fill="#78ae3e" d="M24.293 37.05h4.102v4.102h-4.102zm-2.05-16.542H18.14c0-4.524 3.68-8.203 8.203-8.203s8.203 3.68 8.203 8.203a8.223 8.223 0 01-2.668 6.053l-3.484 3.19v3.198h-4.102v-5.004l4.817-4.41a4.06 4.06 0 001.335-3.027 4.106 4.106 0 00-4.101-4.102 4.106 4.106 0 00-4.102 4.102zm30.83 6.22C53.072 11.99 41.082 0 26.342 0 11.606 0-.384 11.99-.384 26.729a26.64 26.64 0 003.707 13.585L-.286 53.358l13.044-3.607a26.645 26.645 0 0013.586 3.706c14.738 0 26.728-11.99 26.728-26.728z"/></g></svg>