<svg xmlns="http://www.w3.org/2000/svg" width="70" height="70" viewBox="0 0 70 70"><g clip-path="url(#clip-f78b9ad7-245a-4064-9436-a2a6ce92d21f)"><path fill="#78ae3e" d="M10.378 44.854a2.053 2.053 0 00.382 2.371l.502.501a89.778 89.778 0 015.185-5.627c.145-.145.294-.215.44-.349l-3.227-3.226c-1.876 3.392-2.97 5.71-3.282 6.33zm17.67 8.846a93.414 93.414 0 01-5.619 5.194l.68.68a2.05 2.05 0 002.387.373c1.063-.547 2.733-1.333 6.28-3.308l-3.38-3.379c-.133.146-.203.295-.348.44z"/><path fill="#1f3446" d="M26.955 43.195c-1.482-1.482-5.65-.154-7.608 1.804-6.55 6.55-9.508 11.193-10.836 13.935a2.05 2.05 0 002.742 2.738c2.68-1.301 7.267-4.245 13.895-10.872 2.153-2.154 3.215-6.197 1.808-7.604zM6.56 27.304l-5.8 5.8a2.05 2.05 0 001.98 3.432c3.136-.84 5.894-1.196 7.751-.72 2.643-4.698 5.483-9.022 8.49-12.951-1.74-1.115-7.488-.494-12.42 4.44zM34.871 69.78c.79.4 1.747.245 2.372-.38l5.8-5.801c4.492-4.492 5.282-10.288 4.263-12.126-4.381 3.303-8.82 6.09-12.96 8.425.285 1.614.095 3.179-.58 7.75a2.046 2.046 0 001.105 2.132zm6.003-49.208a6.16 6.16 0 000 8.7 6.16 6.16 0 008.7 0 6.159 6.159 0 000-8.7 6.16 6.16 0 00-8.7 0z"/><path fill="#78ae3e" d="M70.038 2A2.048 2.048 0 0068.146.11c-5.037-.38-10.053.24-14.971 1.744.37 3.378 2.117 7.035 5.1 10.018 3.02 3.018 6.775 4.765 10.214 5.092 1.324-4.641 1.953-9.612 1.55-14.962z"/><path fill="#1f3446" d="M52.475 32.173c-3.998 3.997-10.503 3.997-14.501 0-3.998-3.998-3.998-10.504 0-14.502 3.998-3.997 10.503-3.997 14.5 0 3.999 3.998 3.999 10.504 0 14.502zm2.9-17.402c-3.412-3.412-5.496-7.505-6.164-11.49-12.315 5.05-24.104 16.08-33.42 31.574l4.629 4.628c3.162-1.284 7-1.623 9.435.81 2.438 2.44 2.093 6.277.81 9.435l4.78 4.78c11.92-7.185 25.8-18.504 31.702-33.564-4.082-.617-8.303-2.704-11.771-6.173z"/></g></svg>