<svg xmlns="http://www.w3.org/2000/svg" width="21" height="13" viewBox="0 0 21 13"><g clip-path="url(#clip-455ae9f4-3357-4c0d-841f-c3c9528f4289)"><path fill="#fff" d="M17.426 7.4c-.34-.43-.242-.62 0-1.003.005-.005 2.807-3.878 3.096-5.19l.002-.002c.143-.478 0-.83-.694-.83h-2.296c-.585 0-.854.302-.999.64 0 0-1.169 2.798-2.822 4.612-.534.524-.78.692-1.072.692-.144 0-.367-.168-.367-.647V1.205c0-.574-.164-.83-.647-.83h-3.61c-.367 0-.585.268-.585.517 0 .544.827.67.912 2.2v3.323c0 .728-.132.862-.425.862-.78 0-2.675-2.81-3.798-6.025C3.895.628 3.673.376 3.084.376H.788C.132.376 0 .678 0 1.016c0 .596.78 3.563 3.63 7.483 1.898 2.676 4.573 4.126 7.005 4.126 1.462 0 1.64-.322 1.64-.876 0-2.557-.131-2.798.601-2.798.34 0 .924.168 2.29 1.459 1.56 1.53 1.816 2.215 2.689 2.215h2.296c.655 0 .986-.322.795-.957-.436-1.336-3.387-4.085-3.52-4.268z"/></g></svg>