<svg width="60" height="60" viewBox="0 0 60 60" fill="none" xmlns="http://www.w3.org/2000/svg"><path d="M59.032 16.933H.968a.968.968 0 00-.968.968v15.484c0 .534.433.968.968.968H5.08v-1.936H1.936V18.87h56.128v13.548H38.831v1.936h20.201a.968.968 0 00.968-.968V17.901a.968.968 0 00-.968-.968z" fill="url(#paint0_linear)"/><path d="M59.853 17.389L50.176 1.905a.969.969 0 00-.821-.455h-38.71a.969.969 0 00-.82.455L.147 17.389a.967.967 0 00.821 1.48h58.064a.968.968 0 00.821-1.48zm-57.14-.456l8.468-13.548H48.82l8.467 13.549H2.714z" fill="url(#paint1_linear)"/><path d="M30 23.708H5.806a.968.968 0 000 1.935H30a.968.968 0 000-1.935z" fill="url(#paint2_linear)"/><path d="M33.747 23.708h-.208a.968.968 0 000 1.935h.208a.968.968 0 000-1.935z" fill="url(#paint3_linear)"/><path d="M42.514 42.697c-.203-.753-.398-1.488-.587-2.203-1.752-6.614-3.018-11.394-6.37-12.386-1.324-.392-4.078-1.209-7.05.555-2.336 1.386-10.161 1.385-12.498 0-2.972-1.764-5.727-.947-7.056-.553-3.346.99-4.612 5.77-6.364 12.384-.19.715-.384 1.45-.587 2.202-1.558 5.768-1.55 11.252.02 13.971.557.966 1.288 1.574 2.174 1.81.182.048.365.071.547.071 2.108 0 4.24-3.088 6.309-6.08.882-1.28 1.794-2.601 2.288-2.984.342-.266 1.658-.873 6.406-.812l5.918-.005c4.05.019 5.204.578 5.512.817h.001c.493.383 1.406 1.705 2.288 2.983 2.247 3.254 4.574 6.625 6.856 6.01.885-.235 1.617-.843 2.174-1.809 1.569-2.72 1.577-8.204.02-13.971zM40.82 55.698c-.291.504-.626.809-.996.907-.968.242-3.63-3.595-4.765-5.24-1.098-1.59-1.966-2.846-2.695-3.412-.663-.515-2.08-1.202-6.696-1.222l-5.908.004c-3.992-.059-6.48.344-7.606 1.219-.73.566-1.596 1.822-2.695 3.412-1.136 1.645-3.791 5.493-4.765 5.24-.37-.099-.705-.404-.996-.907-1.086-1.882-1.454-6.477.173-12.499.204-.755.4-1.494.59-2.211 1.53-5.778 2.74-10.342 5.049-11.025.614-.182 1.513-.449 2.562-.449.902 0 1.914.197 2.951.811 2.908 1.726 11.565 1.726 14.473 0 2.245-1.33 4.37-.701 5.52-.361 2.302.682 3.51 5.246 5.042 11.024.19.717.385 1.455.59 2.21 1.626 6.023 1.258 10.617.172 12.5z" fill="url(#paint4_linear)"/><path d="M13.549 34.354h-1.936v7.742h1.936v-7.742z" fill="url(#paint5_linear)"/><path d="M31.451 34.353a4.36 4.36 0 00-4.354 4.355 4.36 4.36 0 004.354 4.354 4.36 4.36 0 004.355-4.354 4.36 4.36 0 00-4.354-4.355zm0 6.774a2.422 2.422 0 01-2.419-2.42 2.422 2.422 0 012.42-2.418 2.422 2.422 0 012.419 2.419 2.422 2.422 0 01-2.42 2.42z" fill="url(#paint6_linear)"/><path d="M51.774 21.772a3.392 3.392 0 00-3.387 3.387 3.392 3.392 0 003.387 3.388 3.392 3.392 0 003.387-3.388 3.392 3.392 0 00-3.387-3.387zm0 4.839c-.8 0-1.452-.651-1.452-1.452 0-.8.652-1.451 1.452-1.451.8 0 1.452.651 1.452 1.451s-.652 1.452-1.452 1.452z" fill="url(#paint7_linear)"/><path d="M16.452 37.258H8.71v1.935h7.742v-1.935z" fill="url(#paint8_linear)"/><defs><linearGradient id="paint0_linear" x1="60" y1="25.631" x2="0" y2="25.631" gradientUnits="userSpaceOnUse"><stop offset=".042" stop-color="#8C9CEF"/><stop offset="1" stop-color="#6C7DFF"/></linearGradient><linearGradient id="paint1_linear" x1="60" y1="10.148" x2="0" y2="10.148" gradientUnits="userSpaceOnUse"><stop offset=".042" stop-color="#8C9CEF"/><stop offset="1" stop-color="#6C7DFF"/></linearGradient><linearGradient id="paint2_linear" x1="30.968" y1="24.674" x2="4.839" y2="24.674" gradientUnits="userSpaceOnUse"><stop offset=".042" stop-color="#8C9CEF"/><stop offset="1" stop-color="#6C7DFF"/></linearGradient><linearGradient id="paint3_linear" x1="34.714" y1="24.674" x2="32.571" y2="24.674" gradientUnits="userSpaceOnUse"><stop offset=".042" stop-color="#8C9CEF"/><stop offset="1" stop-color="#6C7DFF"/></linearGradient><linearGradient id="paint4_linear" x1="43.677" y1="43.041" x2=".839" y2="43.041" gradientUnits="userSpaceOnUse"><stop offset=".042" stop-color="#8C9CEF"/><stop offset="1" stop-color="#6C7DFF"/></linearGradient><linearGradient id="paint5_linear" x1="13.549" y1="38.22" x2="11.613" y2="38.22" gradientUnits="userSpaceOnUse"><stop offset=".042" stop-color="#8C9CEF"/><stop offset="1" stop-color="#6C7DFF"/></linearGradient><linearGradient id="paint6_linear" x1="35.806" y1="38.702" x2="27.097" y2="38.702" gradientUnits="userSpaceOnUse"><stop offset=".042" stop-color="#8C9CEF"/><stop offset="1" stop-color="#6C7DFF"/></linearGradient><linearGradient id="paint7_linear" x1="55.161" y1="25.155" x2="48.387" y2="25.155" gradientUnits="userSpaceOnUse"><stop offset=".042" stop-color="#8C9CEF"/><stop offset="1" stop-color="#6C7DFF"/></linearGradient><linearGradient id="paint8_linear" x1="16.452" y1="38.224" x2="8.71" y2="38.224" gradientUnits="userSpaceOnUse"><stop offset=".042" stop-color="#8C9CEF"/><stop offset="1" stop-color="#6C7DFF"/></linearGradient></defs></svg>