<svg width="76" height="43" viewBox="0 0 76 43" fill="none" xmlns="http://www.w3.org/2000/svg"><path d="M26 30v12H1V1h25s7 8 12 11C43 9 50 1 50 1h25v41H50V30s-7 9-12 11c-5-2-12-11-12-11z" stroke="url(#paint0_linear)" stroke-width="2"/><path d="M51.689 16.725a1 1 0 10-1.378-1.45l1.378 1.45zm.604-3.432a1 1 0 001.414 1.414l-1.414-1.414zm2.414.414a1 1 0 00-1.414-1.414l1.414 1.414zm.586-3.414a1 1 0 001.414 1.414l-1.414-1.414zM31.689 35.725l20-19-1.378-1.45-20 19 1.378 1.45zm22.018-21.018l1-1-1.414-1.414-1 1 1.414 1.414zm3-3l10-10L65.293.293l-10 10 1.414 1.414z" fill="url(#paint1_linear)"/><defs><linearGradient id="paint0_linear" x1="38" y1="1" x2="38" y2="42" gradientUnits="userSpaceOnUse"><stop stop-color="#8393F3"/><stop offset="1" stop-color="#8495F2"/></linearGradient><linearGradient id="paint1_linear" x1="48.5" y1="1" x2="48.5" y2="35" gradientUnits="userSpaceOnUse"><stop stop-color="#8191F4"/><stop offset="1" stop-color="#8C9CEF"/></linearGradient></defs></svg>