<svg width="60" height="60" viewBox="0 0 60 60" fill="none" xmlns="http://www.w3.org/2000/svg"><path d="M59.997 48.758l-.001-.027a.858.858 0 00-.016-.102l-.002-.01a.836.836 0 00-.026-.09l-.008-.023a.85.85 0 00-.033-.078c-.003-.004-.004-.009-.006-.013l-4.7-9.272V8.639c0-.938-.764-1.701-1.702-1.701H6.497c-.938 0-1.701.763-1.701 1.701v30.504L.095 48.415l-.006.013a.892.892 0 00-.067.191l-.003.01a.865.865 0 00-.015.102l-.001.026-.003.055v2.23c0 1.114.906 2.02 2.02 2.02h55.96c1.114 0 2.02-.906 2.02-2.02v-2.23l-.003-.054zM6.553 8.696h46.894v29.778H6.553V8.696zm-.339 31.536h47.572l3.904 7.701H38.38l-.97-3.514a1.66 1.66 0 00-1.595-1.215h-11.63c-.742 0-1.399.5-1.596 1.215l-.97 3.514H2.31l3.905-7.701zm30.342 7.701H23.444l.82-2.971h11.473l.82 2.971zm21.686 3.108a.263.263 0 01-.263.264H2.021a.263.263 0 01-.263-.264v-1.35h56.484v1.35z" fill="url(#paint0_linear)"/><path d="M50.693 25.05a.879.879 0 00-.88.878v8.913H10.187v-8.913a.879.879 0 10-1.758 0v9.293c0 .76.619 1.378 1.379 1.378h40.386a1.38 1.38 0 001.379-1.378v-9.293a.88.88 0 00-.88-.879z" fill="url(#paint1_linear)"/><path d="M50.193 10.57H9.807a1.38 1.38 0 00-1.379 1.379v9.292a.879.879 0 101.758 0v-8.913h39.628v8.913a.879.879 0 101.758 0V11.95a1.38 1.38 0 00-1.379-1.378z" fill="url(#paint2_linear)"/><defs><linearGradient id="paint0_linear" x1="60" y1="29.968" x2="0" y2="29.968" gradientUnits="userSpaceOnUse"><stop offset=".042" stop-color="#8C9CEF"/><stop offset="1" stop-color="#6C7DFF"/></linearGradient><linearGradient id="paint1_linear" x1="51.572" y1="30.816" x2="8.428" y2="30.816" gradientUnits="userSpaceOnUse"><stop offset=".042" stop-color="#8C9CEF"/><stop offset="1" stop-color="#6C7DFF"/></linearGradient><linearGradient id="paint2_linear" x1="51.572" y1="16.337" x2="8.428" y2="16.337" gradientUnits="userSpaceOnUse"><stop offset=".042" stop-color="#8C9CEF"/><stop offset="1" stop-color="#6C7DFF"/></linearGradient></defs></svg>