<svg width="60" height="60" viewBox="0 0 60 60" fill="none" xmlns="http://www.w3.org/2000/svg"><path d="M12.656 17.9c1.231 0 1.261-1.962 0-1.962-1.267 0-1.226 1.962 0 1.962z" fill="url(#paint0_linear)"/><path d="M43.828 0H16.172a4.458 4.458 0 00-4.453 4.453v8.79a.938.938 0 001.875 0v-8.79a2.581 2.581 0 012.578-2.578h27.656a2.581 2.581 0 012.578 2.578v51.094a2.581 2.581 0 01-2.578 2.578H16.172a2.581 2.581 0 01-2.578-2.578v-5.39h29.765a.938.938 0 000-1.876H13.594V20.874a.938.938 0 00-1.875 0v34.673A4.458 4.458 0 0016.172 60h27.656a4.458 4.458 0 004.453-4.453V4.453A4.458 4.458 0 0043.828 0z" fill="url(#paint1_linear)"/><path d="M26.836 54.14A3.168 3.168 0 0030 57.306a3.168 3.168 0 003.164-3.164A3.168 3.168 0 0030 50.977a3.168 3.168 0 00-3.164 3.164zm4.453 0c0 .711-.578 1.29-1.289 1.29a1.29 1.29 0 01-1.29-1.29 1.29 1.29 0 012.578 0z" fill="url(#paint2_linear)"/><path d="M32.695 3.984h-5.39a.938.938 0 000 1.875h5.39a.938.938 0 000-1.875z" fill="url(#paint3_linear)"/><path d="M22.306 21.368l-1.875 1.875a.937.937 0 101.326 1.326l1.875-1.875a.937.937 0 10-1.326-1.326z" fill="url(#paint4_linear)"/><path d="M33.263 18.732l-.557.556a.937.937 0 101.326 1.326l.557-.556a.938.938 0 00-1.326-1.326z" fill="url(#paint5_linear)"/><path d="M22.189 31.132a.938.938 0 001.326 0l7.968-7.969a.938.938 0 00-1.326-1.326l-7.968 7.969a.938.938 0 000 1.326z" fill="url(#paint6_linear)"/><path d="M36.544 24.708l-3.926 3.926a.937.937 0 101.326 1.326l3.926-3.926a.938.938 0 00-1.326-1.326z" fill="url(#paint7_linear)"/><path d="M32.384 37.577a.938.938 0 001.326 0l6.094-6.094a.938.938 0 00-1.326-1.326l-6.094 6.094a.938.938 0 000 1.326z" fill="url(#paint8_linear)"/><defs><linearGradient id="paint0_linear" x1="13.591" y1="16.918" x2="11.721" y2="16.918" gradientUnits="userSpaceOnUse"><stop offset=".042" stop-color="#8C9CEF"/><stop offset="1" stop-color="#6C7DFF"/></linearGradient><linearGradient id="paint1_linear" x1="48.281" y1="29.958" x2="11.719" y2="29.958" gradientUnits="userSpaceOnUse"><stop offset=".042" stop-color="#8C9CEF"/><stop offset="1" stop-color="#6C7DFF"/></linearGradient><linearGradient id="paint2_linear" x1="33.164" y1="54.136" x2="26.836" y2="54.136" gradientUnits="userSpaceOnUse"><stop offset=".042" stop-color="#8C9CEF"/><stop offset="1" stop-color="#6C7DFF"/></linearGradient><linearGradient id="paint3_linear" x1="33.633" y1="4.921" x2="26.367" y2="4.921" gradientUnits="userSpaceOnUse"><stop offset=".042" stop-color="#8C9CEF"/><stop offset="1" stop-color="#6C7DFF"/></linearGradient><linearGradient id="paint4_linear" x1="23.906" y1="22.966" x2="20.156" y2="22.966" gradientUnits="userSpaceOnUse"><stop offset=".042" stop-color="#8C9CEF"/><stop offset="1" stop-color="#6C7DFF"/></linearGradient><linearGradient id="paint5_linear" x1="34.863" y1="19.671" x2="32.432" y2="19.671" gradientUnits="userSpaceOnUse"><stop offset=".042" stop-color="#8C9CEF"/><stop offset="1" stop-color="#6C7DFF"/></linearGradient><linearGradient id="paint6_linear" x1="31.758" y1="26.478" x2="21.914" y2="26.478" gradientUnits="userSpaceOnUse"><stop offset=".042" stop-color="#8C9CEF"/><stop offset="1" stop-color="#6C7DFF"/></linearGradient><linearGradient id="paint7_linear" x1="38.145" y1="27.33" x2="32.344" y2="27.33" gradientUnits="userSpaceOnUse"><stop offset=".042" stop-color="#8C9CEF"/><stop offset="1" stop-color="#6C7DFF"/></linearGradient><linearGradient id="paint8_linear" x1="40.078" y1="33.862" x2="32.109" y2="33.862" gradientUnits="userSpaceOnUse"><stop offset=".042" stop-color="#8C9CEF"/><stop offset="1" stop-color="#6C7DFF"/></linearGradient></defs></svg>