<svg width="60" height="60" viewBox="0 0 60 60" fill="none" xmlns="http://www.w3.org/2000/svg"><path d="M57.234 8.513H2.766a.82.82 0 00-.82.82v36.836a.82.82 0 00.82.82h1.66l-.382 1.616a2.344 2.344 0 004.445 1.442l1.277-3.058h23.595v2.37a2.131 2.131 0 002.13 2.13h13.64a2.128 2.128 0 002.122-2.052l.255.61a2.344 2.344 0 004.445-1.443l-.381-1.615h1.662a.82.82 0 00.82-.82V9.332a.82.82 0 00-.82-.82zm-8.1 7.53h-13.64a2.131 2.131 0 00-2.13 2.13v22.565H3.584V13.025h52.832v27.713h-5.153V18.173a2.132 2.132 0 00-2.13-2.13zm-45.55-5.89h52.832v1.231H3.584v-1.23zm3.39 39.261a.703.703 0 01-1.333-.433l.469-1.992h1.875l-1.01 2.425zm2.246-4.066H3.584v-2.97H33.36v.698a.811.811 0 00-.217-.033h-6.288a.82.82 0 100 1.64h6.288a.811.811 0 00.217-.032v.697H9.22zm40.403 4.01a.49.49 0 01-.49.489h-13.64a.49.49 0 01-.492-.488V18.173a.49.49 0 01.49-.489h13.64a.49.49 0 01.489.489v31.186l.003-.001zm4.734-.375a.703.703 0 01-1.334.433l-1.013-2.425h1.875l.472 1.992zm2.057-3.633h-5.15v-2.972h5.152l-.002 2.972z" fill="url(#paint0_linear)"/><path d="M8.18 43.043h-.993a.82.82 0 100 1.64h.994a.82.82 0 100-1.64z" fill="url(#paint1_linear)"/><path d="M36.827 23.825h2.109a.82.82 0 100-1.64h-2.11a.82.82 0 100 1.64z" fill="url(#paint2_linear)"/><path d="M41.258 23.825h2.11a.82.82 0 100-1.64h-2.11a.82.82 0 100 1.64z" fill="url(#paint3_linear)"/><path d="M47.798 22.184h-2.11a.82.82 0 100 1.641h2.11a.82.82 0 100-1.64z" fill="url(#paint4_linear)"/><path d="M36.827 20.573h2.109a.82.82 0 000-1.641h-2.11a.82.82 0 000 1.64z" fill="url(#paint5_linear)"/><path d="M47.798 18.932h-2.11a.82.82 0 000 1.64h2.11a.82.82 0 000-1.64z" fill="url(#paint6_linear)"/><path d="M36.827 27.078h2.109a.82.82 0 100-1.64h-2.11a.82.82 0 100 1.64z" fill="url(#paint7_linear)"/><path d="M41.258 27.078h2.11a.82.82 0 100-1.64h-2.11a.82.82 0 100 1.64z" fill="url(#paint8_linear)"/><path d="M47.798 25.437h-2.11a.82.82 0 100 1.64h2.11a.82.82 0 100-1.64z" fill="url(#paint9_linear)"/><path d="M36.827 30.328h2.109a.82.82 0 100-1.64h-2.11a.82.82 0 100 1.64z" fill="url(#paint10_linear)"/><path d="M41.258 30.328h2.11a.82.82 0 100-1.64h-2.11a.82.82 0 100 1.64z" fill="url(#paint11_linear)"/><path d="M47.798 28.688h-2.11a.82.82 0 100 1.64h2.11a.82.82 0 100-1.64z" fill="url(#paint12_linear)"/><path d="M42.312 31.837a6.306 6.306 0 106.306 6.306 6.313 6.313 0 00-6.306-6.306zm0 10.971a4.666 4.666 0 110-9.332 4.666 4.666 0 010 9.333z" fill="url(#paint13_linear)"/><path d="M41.825 35.82l.488-.205.487.206a.82.82 0 00.636-1.513l-.805-.339a.821.821 0 00-.636 0l-.805.34a.82.82 0 10.636 1.512z" fill="url(#paint14_linear)"/><path d="M42.8 40.466l-.488.206-.487-.205a.82.82 0 00-.636 1.512l.805.34a.822.822 0 00.636 0l.805-.34a.82.82 0 00-.635-1.512z" fill="url(#paint15_linear)"/><path d="M45.074 36.582a.819.819 0 00-.439 1.074l.206.488-.205.487a.82.82 0 101.512.636l.34-.806a.82.82 0 000-.635l-.34-.806a.82.82 0 00-1.074-.438z" fill="url(#paint16_linear)"/><path d="M39.551 36.582a.818.818 0 00-1.074.438l-.34.805a.82.82 0 000 .636l.34.805a.82.82 0 101.512-.636l-.205-.487.206-.488a.82.82 0 00-.439-1.073z" fill="url(#paint17_linear)"/><path d="M46.289 46.469h-7.953a.82.82 0 000 1.64h7.953a.82.82 0 000-1.64z" fill="url(#paint18_linear)"/><defs><linearGradient id="paint0_linear" x1="58.055" y1="29.973" x2="1.945" y2="29.973" gradientUnits="userSpaceOnUse"><stop offset=".042" stop-color="#8C9CEF"/><stop offset="1" stop-color="#6C7DFF"/></linearGradient><linearGradient id="paint1_linear" x1="9.001" y1="43.862" x2="6.367" y2="43.862" gradientUnits="userSpaceOnUse"><stop offset=".042" stop-color="#8C9CEF"/><stop offset="1" stop-color="#6C7DFF"/></linearGradient><linearGradient id="paint2_linear" x1="39.756" y1="23.004" x2="36.006" y2="23.004" gradientUnits="userSpaceOnUse"><stop offset=".042" stop-color="#8C9CEF"/><stop offset="1" stop-color="#6C7DFF"/></linearGradient><linearGradient id="paint3_linear" x1="44.188" y1="23.004" x2="40.438" y2="23.004" gradientUnits="userSpaceOnUse"><stop offset=".042" stop-color="#8C9CEF"/><stop offset="1" stop-color="#6C7DFF"/></linearGradient><linearGradient id="paint4_linear" x1="48.618" y1="23.004" x2="44.868" y2="23.004" gradientUnits="userSpaceOnUse"><stop offset=".042" stop-color="#8C9CEF"/><stop offset="1" stop-color="#6C7DFF"/></linearGradient><linearGradient id="paint5_linear" x1="39.756" y1="19.751" x2="36.006" y2="19.751" gradientUnits="userSpaceOnUse"><stop offset=".042" stop-color="#8C9CEF"/><stop offset="1" stop-color="#6C7DFF"/></linearGradient><linearGradient id="paint6_linear" x1="48.618" y1="19.751" x2="44.868" y2="19.751" gradientUnits="userSpaceOnUse"><stop offset=".042" stop-color="#8C9CEF"/><stop offset="1" stop-color="#6C7DFF"/></linearGradient><linearGradient id="paint7_linear" x1="39.756" y1="26.256" x2="36.006" y2="26.256" gradientUnits="userSpaceOnUse"><stop offset=".042" stop-color="#8C9CEF"/><stop offset="1" stop-color="#6C7DFF"/></linearGradient><linearGradient id="paint8_linear" x1="44.188" y1="26.256" x2="40.438" y2="26.256" gradientUnits="userSpaceOnUse"><stop offset=".042" stop-color="#8C9CEF"/><stop offset="1" stop-color="#6C7DFF"/></linearGradient><linearGradient id="paint9_linear" x1="48.618" y1="26.256" x2="44.868" y2="26.256" gradientUnits="userSpaceOnUse"><stop offset=".042" stop-color="#8C9CEF"/><stop offset="1" stop-color="#6C7DFF"/></linearGradient><linearGradient id="paint10_linear" x1="39.756" y1="29.507" x2="36.006" y2="29.507" gradientUnits="userSpaceOnUse"><stop offset=".042" stop-color="#8C9CEF"/><stop offset="1" stop-color="#6C7DFF"/></linearGradient><linearGradient id="paint11_linear" x1="44.188" y1="29.507" x2="40.438" y2="29.507" gradientUnits="userSpaceOnUse"><stop offset=".042" stop-color="#8C9CEF"/><stop offset="1" stop-color="#6C7DFF"/></linearGradient><linearGradient id="paint12_linear" x1="48.618" y1="29.507" x2="44.868" y2="29.507" gradientUnits="userSpaceOnUse"><stop offset=".042" stop-color="#8C9CEF"/><stop offset="1" stop-color="#6C7DFF"/></linearGradient><linearGradient id="paint13_linear" x1="48.618" y1="38.134" x2="36.006" y2="38.134" gradientUnits="userSpaceOnUse"><stop offset=".042" stop-color="#8C9CEF"/><stop offset="1" stop-color="#6C7DFF"/></linearGradient><linearGradient id="paint14_linear" x1="43.93" y1="34.895" x2="40.679" y2="34.895" gradientUnits="userSpaceOnUse"><stop offset=".042" stop-color="#8C9CEF"/><stop offset="1" stop-color="#6C7DFF"/></linearGradient><linearGradient id="paint15_linear" x1="43.938" y1="41.391" x2="40.686" y2="41.391" gradientUnits="userSpaceOnUse"><stop offset=".042" stop-color="#8C9CEF"/><stop offset="1" stop-color="#6C7DFF"/></linearGradient><linearGradient id="paint16_linear" x1="46.551" y1="38.141" x2="44.571" y2="38.141" gradientUnits="userSpaceOnUse"><stop offset=".042" stop-color="#8C9CEF"/><stop offset="1" stop-color="#6C7DFF"/></linearGradient><linearGradient id="paint17_linear" x1="40.057" y1="38.145" x2="38.074" y2="38.145" gradientUnits="userSpaceOnUse"><stop offset=".042" stop-color="#8C9CEF"/><stop offset="1" stop-color="#6C7DFF"/></linearGradient><linearGradient id="paint18_linear" x1="47.109" y1="47.288" x2="37.515" y2="47.288" gradientUnits="userSpaceOnUse"><stop offset=".042" stop-color="#8C9CEF"/><stop offset="1" stop-color="#6C7DFF"/></linearGradient></defs></svg>