<svg width="60" height="60" viewBox="0 0 60 60" fill="none" xmlns="http://www.w3.org/2000/svg"><g clip-path="url(#clip0)"><path d="M47.813 0H12.187a5.15 5.15 0 00-5.143 5.144v3.093a.879.879 0 001.757 0V5.144a3.39 3.39 0 013.386-3.386h35.626a3.39 3.39 0 013.386 3.386v49.712a3.39 3.39 0 01-3.386 3.386H12.187a3.39 3.39 0 01-3.386-3.386V11.752a.879.879 0 00-1.757 0v43.104A5.15 5.15 0 0012.187 60h35.626a5.15 5.15 0 005.143-5.144V5.144A5.15 5.15 0 0047.813 0z" fill="url(#paint0_linear)"/><path d="M10.543 7.199V40.4a.879.879 0 101.757 0V8.077h35.4v12.051a.879.879 0 101.758 0V7.198a.879.879 0 00-.88-.878H11.422a.879.879 0 00-.878.879z" fill="url(#paint1_linear)"/><path d="M10.543 50.619c0 .485.393.879.878.879H48.58a.879.879 0 00.879-.88V23.644a.879.879 0 00-1.758 0V49.74H12.3v-5.824a.879.879 0 00-1.757 0v6.703z" fill="url(#paint2_linear)"/><path d="M27.323 54.662A2.68 2.68 0 0030 57.339a2.68 2.68 0 002.677-2.677A2.68 2.68 0 0030 51.985a2.68 2.68 0 00-2.677 2.677zm3.597 0a.92.92 0 01-1.84 0 .92.92 0 011.84 0z" fill="url(#paint3_linear)"/><path d="M33.797 4.9a.879.879 0 100-1.758h-4.005a.879.879 0 000 1.757h4.005z" fill="url(#paint4_linear)"/><path d="M26.437 4.896a.879.879 0 100-1.758.879.879 0 000 1.758z" fill="url(#paint5_linear)"/></g><defs><linearGradient id="paint0_linear" x1="52.956" y1="29.958" x2="7.044" y2="29.958" gradientUnits="userSpaceOnUse"><stop offset=".042" stop-color="#8C9CEF"/><stop offset="1" stop-color="#6C7DFF"/></linearGradient><linearGradient id="paint1_linear" x1="49.458" y1="23.776" x2="10.543" y2="23.776" gradientUnits="userSpaceOnUse"><stop offset=".042" stop-color="#8C9CEF"/><stop offset="1" stop-color="#6C7DFF"/></linearGradient><linearGradient id="paint2_linear" x1="49.458" y1="37.111" x2="10.543" y2="37.111" gradientUnits="userSpaceOnUse"><stop offset=".042" stop-color="#8C9CEF"/><stop offset="1" stop-color="#6C7DFF"/></linearGradient><linearGradient id="paint3_linear" x1="32.677" y1="54.658" x2="27.323" y2="54.658" gradientUnits="userSpaceOnUse"><stop offset=".042" stop-color="#8C9CEF"/><stop offset="1" stop-color="#6C7DFF"/></linearGradient><linearGradient id="paint4_linear" x1="34.676" y1="4.019" x2="28.913" y2="4.019" gradientUnits="userSpaceOnUse"><stop offset=".042" stop-color="#8C9CEF"/><stop offset="1" stop-color="#6C7DFF"/></linearGradient><linearGradient id="paint5_linear" x1="27.316" y1="4.016" x2="25.559" y2="4.016" gradientUnits="userSpaceOnUse"><stop offset=".042" stop-color="#8C9CEF"/><stop offset="1" stop-color="#6C7DFF"/></linearGradient><clipPath id="clip0"><path fill="#fff" d="M0 0h60v60H0z"/></clipPath></defs></svg>