<svg width="60" height="60" viewBox="0 0 60 60" fill="none" xmlns="http://www.w3.org/2000/svg"><path d="M57 46h-2c-1.654 0-3 1.346-3 3v8c0 1.654 1.346 3 3 3h2c1.654 0 3-1.346 3-3v-8c0-1.654-1.346-3-3-3zm1 11a1 1 0 01-1 1h-2a1 1 0 01-1-1v-8a1 1 0 011-1h2a1 1 0 011 1v8z" fill="url(#paint0_linear)"/><path d="M47 46H3c-1.654 0-3 1.346-3 3v8c0 1.654 1.346 3 3 3h44c1.654 0 3-1.346 3-3v-8c0-1.654-1.346-3-3-3zm1 11a1 1 0 01-1 1H3a1 1 0 01-1-1v-8a1 1 0 011-1h44a1 1 0 011 1v8z" fill="url(#paint1_linear)"/><path d="M6 50H5a1 1 0 100 2h1a1 1 0 100-2z" fill="url(#paint2_linear)"/><path d="M6 54H5a1 1 0 100 2h1a1 1 0 100-2z" fill="url(#paint3_linear)"/><path d="M11 52h1a1 1 0 100-2h-1a1 1 0 100 2z" fill="url(#paint4_linear)"/><path d="M30 54H11a1 1 0 100 2h19a1 1 0 100-2z" fill="url(#paint5_linear)"/><path d="M17 52h1a1 1 0 100-2h-1a1 1 0 100 2z" fill="url(#paint6_linear)"/><path d="M23 52h1a1 1 0 100-2h-1a1 1 0 100 2z" fill="url(#paint7_linear)"/><path d="M30 50h-1a1 1 0 100 2h1a1 1 0 100-2z" fill="url(#paint8_linear)"/><path d="M36 50h-1a1 1 0 100 2h1a1 1 0 100-2z" fill="url(#paint9_linear)"/><path d="M36 54h-1a1 1 0 100 2h1a1 1 0 100-2z" fill="url(#paint10_linear)"/><path d="M41 52h3a1 1 0 100-2h-3a1 1 0 100 2z" fill="url(#paint11_linear)"/><path d="M45 54h-4a1 1 0 100 2h4a1 1 0 100-2z" fill="url(#paint12_linear)"/><path d="M57 0H3C1.346 0 0 1.346 0 3v28c0 1.654 1.346 3 3 3h20.18l1.6 8H21a1 1 0 100 2h18a1 1 0 100-2h-3.78l1.6-8H57c1.654 0 3-1.346 3-3V3c0-1.654-1.346-3-3-3zM33.181 42H26.82l-1.6-8h9.561l-1.6 8zM58 31a1 1 0 01-1 1H3a1 1 0 01-1-1v-3h56v3zm0-5H2V3a1 1 0 011-1h54a1 1 0 011 1v23z" fill="url(#paint13_linear)"/><path d="M54 5h-8a1 1 0 100 2h8a1 1 0 100-2z" fill="url(#paint14_linear)"/><path d="M42 5h-1a1 1 0 100 2h1a1 1 0 100-2z" fill="url(#paint15_linear)"/><path d="M29.979 37.999a.979.979 0 100-1.958.979.979 0 000 1.958z" fill="url(#paint16_linear)"/><defs><linearGradient id="paint0_linear" x1="60" y1="52.99" x2="52" y2="52.99" gradientUnits="userSpaceOnUse"><stop offset=".042" stop-color="#8C9CEF"/><stop offset="1" stop-color="#6C7DFF"/></linearGradient><linearGradient id="paint1_linear" x1="50" y1="52.99" x2="0" y2="52.99" gradientUnits="userSpaceOnUse"><stop offset=".042" stop-color="#8C9CEF"/><stop offset="1" stop-color="#6C7DFF"/></linearGradient><linearGradient id="paint2_linear" x1="7" y1="50.999" x2="4" y2="50.999" gradientUnits="userSpaceOnUse"><stop offset=".042" stop-color="#8C9CEF"/><stop offset="1" stop-color="#6C7DFF"/></linearGradient><linearGradient id="paint3_linear" x1="7" y1="54.999" x2="4" y2="54.999" gradientUnits="userSpaceOnUse"><stop offset=".042" stop-color="#8C9CEF"/><stop offset="1" stop-color="#6C7DFF"/></linearGradient><linearGradient id="paint4_linear" x1="13" y1="50.999" x2="10" y2="50.999" gradientUnits="userSpaceOnUse"><stop offset=".042" stop-color="#8C9CEF"/><stop offset="1" stop-color="#6C7DFF"/></linearGradient><linearGradient id="paint5_linear" x1="31" y1="54.999" x2="10" y2="54.999" gradientUnits="userSpaceOnUse"><stop offset=".042" stop-color="#8C9CEF"/><stop offset="1" stop-color="#6C7DFF"/></linearGradient><linearGradient id="paint6_linear" x1="19" y1="50.999" x2="16" y2="50.999" gradientUnits="userSpaceOnUse"><stop offset=".042" stop-color="#8C9CEF"/><stop offset="1" stop-color="#6C7DFF"/></linearGradient><linearGradient id="paint7_linear" x1="25" y1="50.999" x2="22" y2="50.999" gradientUnits="userSpaceOnUse"><stop offset=".042" stop-color="#8C9CEF"/><stop offset="1" stop-color="#6C7DFF"/></linearGradient><linearGradient id="paint8_linear" x1="31" y1="50.999" x2="28" y2="50.999" gradientUnits="userSpaceOnUse"><stop offset=".042" stop-color="#8C9CEF"/><stop offset="1" stop-color="#6C7DFF"/></linearGradient><linearGradient id="paint9_linear" x1="37" y1="50.999" x2="34" y2="50.999" gradientUnits="userSpaceOnUse"><stop offset=".042" stop-color="#8C9CEF"/><stop offset="1" stop-color="#6C7DFF"/></linearGradient><linearGradient id="paint10_linear" x1="37" y1="54.999" x2="34" y2="54.999" gradientUnits="userSpaceOnUse"><stop offset=".042" stop-color="#8C9CEF"/><stop offset="1" stop-color="#6C7DFF"/></linearGradient><linearGradient id="paint11_linear" x1="45" y1="50.999" x2="40" y2="50.999" gradientUnits="userSpaceOnUse"><stop offset=".042" stop-color="#8C9CEF"/><stop offset="1" stop-color="#6C7DFF"/></linearGradient><linearGradient id="paint12_linear" x1="46" y1="54.999" x2="40" y2="54.999" gradientUnits="userSpaceOnUse"><stop offset=".042" stop-color="#8C9CEF"/><stop offset="1" stop-color="#6C7DFF"/></linearGradient><linearGradient id="paint13_linear" x1="60" y1="21.97" x2="0" y2="21.97" gradientUnits="userSpaceOnUse"><stop offset=".042" stop-color="#8C9CEF"/><stop offset="1" stop-color="#6C7DFF"/></linearGradient><linearGradient id="paint14_linear" x1="55" y1="5.999" x2="45" y2="5.999" gradientUnits="userSpaceOnUse"><stop offset=".042" stop-color="#8C9CEF"/><stop offset="1" stop-color="#6C7DFF"/></linearGradient><linearGradient id="paint15_linear" x1="43" y1="5.999" x2="40" y2="5.999" gradientUnits="userSpaceOnUse"><stop offset=".042" stop-color="#8C9CEF"/><stop offset="1" stop-color="#6C7DFF"/></linearGradient><linearGradient id="paint16_linear" x1="30.958" y1="37.019" x2="29" y2="37.019" gradientUnits="userSpaceOnUse"><stop offset=".042" stop-color="#8C9CEF"/><stop offset="1" stop-color="#6C7DFF"/></linearGradient></defs></svg>