<svg width="60" height="60" viewBox="0 0 60 60" fill="none" xmlns="http://www.w3.org/2000/svg"><path d="M55.605 3.047H4.395A4.4 4.4 0 000 7.44v36.915a4.4 4.4 0 004.395 4.394h17.877l-1.057 3.702c-.425 1.487-2.09 2.743-3.637 2.743h-5.742a.879.879 0 000 1.758h36.328a.879.879 0 000-1.758h-5.742c-1.546 0-3.212-1.256-3.636-2.743l-1.058-3.702h17.877A4.4 4.4 0 0060 44.355V7.441a4.4 4.4 0 00-4.395-4.394zm-18.51 49.888c.242.845.72 1.62 1.35 2.26h-16.89c.63-.64 1.108-1.415 1.35-2.26L24.1 48.75h11.8l1.195 4.185zm21.147-8.58a2.64 2.64 0 01-2.636 2.637H4.395a2.64 2.64 0 01-2.637-2.636V7.44a2.64 2.64 0 012.637-2.636h51.21a2.64 2.64 0 012.637 2.636v36.915z" fill="url(#paint0_linear)"/><path d="M56.484 40.84V7.44a.879.879 0 00-.879-.878H4.395a.879.879 0 00-.88.878v14.942a.879.879 0 001.758 0V8.32h49.454v31.64H5.273V25.899a.879.879 0 00-1.757 0V40.84c0 .485.393.879.879.879h51.21a.879.879 0 00.88-.88z" fill="url(#paint1_linear)"/><path d="M55.685 45.231a.879.879 0 100-1.758.879.879 0 000 1.758z" fill="url(#paint2_linear)"/><path d="M52.17 45.231a.879.879 0 100-1.758.879.879 0 000 1.758z" fill="url(#paint3_linear)"/><defs><linearGradient id="paint0_linear" x1="60" y1="29.963" x2="0" y2="29.963" gradientUnits="userSpaceOnUse"><stop offset=".042" stop-color="#8C9CEF"/><stop offset="1" stop-color="#6C7DFF"/></linearGradient><linearGradient id="paint1_linear" x1="56.484" y1="24.116" x2="3.516" y2="24.116" gradientUnits="userSpaceOnUse"><stop offset=".042" stop-color="#8C9CEF"/><stop offset="1" stop-color="#6C7DFF"/></linearGradient><linearGradient id="paint2_linear" x1="56.564" y1="44.351" x2="54.806" y2="44.351" gradientUnits="userSpaceOnUse"><stop offset=".042" stop-color="#8C9CEF"/><stop offset="1" stop-color="#6C7DFF"/></linearGradient><linearGradient id="paint3_linear" x1="53.048" y1="44.351" x2="51.291" y2="44.351" gradientUnits="userSpaceOnUse"><stop offset=".042" stop-color="#8C9CEF"/><stop offset="1" stop-color="#6C7DFF"/></linearGradient></defs></svg>