<svg width="455" height="178" viewBox="0 0 455 178" fill="none" xmlns="http://www.w3.org/2000/svg"><path d="M220.149 153.904l-3.52 2.88 1.12 1.44 2-1.6h.08v8.48h2.24v-11.2h-1.92zm8.561 1.6c1.28 0 2.48 1.2 2.48 3.12a3.217 3.217 0 01-.704.352 4.515 4.515 0 01-1.776.368c-1.36 0-2.24-.88-2.24-1.92s.88-1.92 2.24-1.92zm-.48 9.92c3.024 0 5.28-2.24 5.28-6.08 0-3.664-2.08-5.76-4.8-5.76-2.8 0-4.56 1.744-4.56 3.84s1.76 3.84 4.56 3.84c.72 0 1.312-.192 1.776-.4.256-.112.496-.256.704-.4h.08c-.176 1.76-1.44 3.04-3.2 3.04-.688 0-1.28-.16-1.744-.368a3.477 3.477 0 01-.736-.352l-.96 1.52c.304.208.656.4 1.024.56.64.272 1.536.56 2.576.56zm11.515-1.92c-1.28 0-2.48-1.2-2.48-3.12.208-.144.448-.256.704-.368a4.843 4.843 0 011.776-.352c1.36 0 2.24.88 2.24 1.92s-.88 1.92-2.24 1.92zm.48-9.92c-3.024 0-5.28 2.24-5.28 6.08 0 3.664 2.08 5.76 4.8 5.76 2.8 0 4.56-1.744 4.56-3.84s-1.76-3.84-4.56-3.84c-.72 0-1.312.192-1.776.4a4.248 4.248 0 00-.704.4h-.08c.176-1.76 1.44-3.04 3.2-3.04.688 0 1.28.16 1.744.352.272.112.512.224.736.368l.96-1.52a6.246 6.246 0 00-1.024-.56c-.64-.272-1.536-.56-2.576-.56zm9.915 1.92c1.28 0 2.48 1.2 2.48 3.12a3.217 3.217 0 01-.704.352 4.515 4.515 0 01-1.776.368c-1.36 0-2.24-.88-2.24-1.92s.88-1.92 2.24-1.92zm-.48 9.92c3.024 0 5.28-2.24 5.28-6.08 0-3.664-2.08-5.76-4.8-5.76-2.8 0-4.56 1.744-4.56 3.84s1.76 3.84 4.56 3.84c.72 0 1.312-.192 1.776-.4.256-.112.496-.256.704-.4h.08c-.176 1.76-1.44 3.04-3.2 3.04-.688 0-1.28-.16-1.744-.368a3.477 3.477 0 01-.736-.352l-.96 1.52c.304.208.656.4 1.024.56.64.272 1.536.56 2.576.56zm6.947-6.64v1.92h12.64v-1.92h-12.64zm17.446-5.2a6.535 6.535 0 00-2.88.672 6.97 6.97 0 00-1.12.688l.96 1.52a5.52 5.52 0 01.864-.48 5.28 5.28 0 012.176-.48c1.6 0 2.4.8 2.4 1.76 0 1.04-.64 1.68-1.6 2.4l-4.8 3.6v1.84h8.8v-1.84h-5.44v-.08l2.88-2.16c1.424-1.072 2.48-2.064 2.48-3.84 0-1.92-1.696-3.6-4.72-3.6zm8.554 5.92c0-2.624 1.36-4 2.88-4 1.52 0 2.88 1.376 2.88 4s-1.36 4-2.88 4c-1.52 0-2.88-1.376-2.88-4zm8 0c0-3.664-2.24-5.92-5.12-5.92s-5.12 2.256-5.12 5.92 2.24 5.92 5.12 5.92 5.12-2.256 5.12-5.92zm4.484-5.6l-3.52 2.88 1.12 1.44 2-1.6h.08v8.48h2.24v-11.2h-1.92zm8.561 1.6c1.28 0 2.48 1.2 2.48 3.12a3.217 3.217 0 01-.704.352 4.515 4.515 0 01-1.776.368c-1.36 0-2.24-.88-2.24-1.92s.88-1.92 2.24-1.92zm-.48 9.92c3.024 0 5.28-2.24 5.28-6.08 0-3.664-2.08-5.76-4.8-5.76-2.8 0-4.56 1.744-4.56 3.84s1.76 3.84 4.56 3.84c.72 0 1.312-.192 1.776-.4.256-.112.496-.256.704-.4h.08c-.176 1.76-1.44 3.04-3.2 3.04-.688 0-1.28-.16-1.744-.368a3.477 3.477 0 01-.736-.352l-.96 1.52c.304.208.656.4 1.024.56.64.272 1.536.56 2.576.56z" fill="#8A9AAF"/><path fill-rule="evenodd" clip-rule="evenodd" d="M445.622 66.118c0-2.219 0-4.437-.479-6.656-.159-.475-.479-2.06-.798-2.377-1.437-1.268-10.059-1.268-11.975-1.268h-6.227c-.958 0-2.076 0-2.874.159-1.278.158-2.395.634-3.034 1.901-.798 1.902-.958 6.18-.958 8.24 0 2.06 0 6.18.958 8.082.639 1.268 1.756 1.743 3.034 1.902.958.158 2.075.158 2.874.158h12.454c.958 0 2.076 0 2.874-.158 1.277-.159 2.555-.634 3.034-1.902 1.117-1.901 1.117-6.021 1.117-8.081zm-70.413 3.486v6.338h19.32c.958 0 1.916-.158 2.554-.792.639-.634.799-1.426.799-2.377 0-.95-.16-1.743-.799-2.377-.638-.634-1.596-.792-2.554-.792h-19.32zm-88.456-.793l-6.387-12.201-6.386 12.201h12.773zm167.332-2.694c0 2.219 0 4.438-.16 6.498-.16 1.267-.16 2.852-.639 4.12-1.277 4.278-5.428 6.18-9.58 6.972-1.437.317-2.874.317-4.311.317-2.235.158-4.63.158-6.865.158-2.236 0-4.471 0-6.866-.158-1.437 0-3.034-.159-4.311-.475-4.152-.793-8.303-2.536-9.74-6.973-.319-1.267-.479-2.852-.639-4.12-.159-2.218-.159-4.437-.159-6.655 0-2.219 0-4.437.159-6.497.16-1.268.16-2.853.639-4.12 1.277-4.279 5.429-6.18 9.58-6.973 1.437-.317 2.874-.317 4.311-.475 2.236-.159 4.63-.159 6.866-.159 2.235 0 4.63 0 6.866.159 1.437 0 3.033.158 4.311.475 4.151.792 8.302 2.694 9.58 6.973.319 1.267.479 2.852.638 4.12.32 2.377.32 4.595.32 6.814zm-78.876-9.824v5.388h19.479c7.345 0 11.816 3.644 11.816 11.092s-4.471 11.093-11.816 11.093h-27.941V48.21h36.404v7.923h-27.942v.159zm-23.152 2.852l-16.126 24.72h-4.95l-16.126-24.561v24.561h-8.463V48.211h11.337l15.647 24.562 15.647-24.562h11.337v35.496h-8.303V59.145zm-61.152 17.59h-20.757l-3.832 7.13h-9.58l18.84-35.654h9.74l18.841 35.654h-9.58l-3.672-7.13zm-34.968-5.864c0 3.328-.479 7.131-2.714 9.825-1.916 2.219-4.79 3.011-7.504 3.328-1.118.158-2.236.158-3.353.158h-6.227c-2.395 0-4.631 0-7.026-.158-1.596-.159-3.193-.317-4.79-.792-3.033-.793-5.428-2.694-6.706-5.547-1.437-3.327-1.596-8.081-1.596-11.726 0-3.486.159-8.399 1.596-11.726 1.278-2.853 3.673-4.754 6.706-5.546 1.597-.476 3.194-.634 4.79-.793 2.236-.158 4.631-.158 7.026-.158h6.227c1.117 0 2.235 0 3.353.158 2.714.317 5.588 1.268 7.504 3.328 2.235 2.535 2.714 6.497 2.714 9.825v1.743h-8.462v-1.743c0-.951-.16-4.12-1.118-4.754-1.437-.792-8.462-.792-10.218-.792-1.916 0-3.673 0-5.589.158-.958 0-2.075.158-2.874.317-1.117.317-2.075.792-2.395 1.901-.638 1.902-.638 5.864-.638 7.924 0 2.06 0 5.863.638 7.923.479 1.11 1.278 1.743 2.555 2.06.798.158 1.916.317 2.874.317 1.756.158 3.672.158 5.429.158 1.756 0 8.622 0 10.218-.792 1.118-.475 1.278-3.803 1.278-4.754V68.97h8.462v1.901h-.16z" fill="#0B58BC"/><path fill-rule="evenodd" clip-rule="evenodd" d="M402.688 97.294h11.017v14.527h6.452l15.582-14.527h16.368l-22.506 19.525 22.348 19.837h-16.21l-15.582-14.526h-6.452v14.526h-11.017V97.294zm-71.769 0h21.09l11.804 26.085 11.961-26.085h21.09v39.362h-11.017v-28.584h-3.148l-12.906 28.584h-11.804l-13.063-28.584h-2.99v28.584h-11.017V97.294zm-56.028 39.362h11.489v-26.554l.157-.937.472-.312.473-.469.314-.312h38.56V97.294h-40.448l-2.046.156-1.889.469-1.731.78-1.574 1.407-1.417 1.249-1.101 1.718-.63 1.719-.472 2.03-.157.469v29.365zm-57.604-10.934h38.245l.63-.156.786-.625.158-.624.157-.781v-5.155h-28.959l-1.888-.156-2.047-.781-1.731-.781-1.574-1.094-1.259-1.562-1.101-1.562-.945-1.718-.157-1.874-.315-.937V97.294h11.489v7.966l.158.937.472.625.944.469.787.156h26.126V97.294h11.489v28.897l-.157.937-.472 1.875-.63 1.874-1.101 1.406-1.417 1.562-1.574 1.093-1.731.937-1.889.625-2.046.156h-40.448v-10.934z" fill="#ED1847"/><path opacity=".6" fill-rule="evenodd" clip-rule="evenodd" d="M370.923 27.026h11.405c.877 0 1.503-.248 2.13-.746.627-.497.752-1.244.752-1.99s-.125-1.492-.752-1.99a3.42 3.42 0 00-2.13-.746h-21.181v5.348h9.776v.124zm0-12.562h11.53c2.506 0 5.138.497 7.144 1.99 2.506 1.866 3.383 4.85 3.383 7.836 0 2.985-.752 5.97-3.258 7.836-2.005 1.493-4.637 1.99-7.144 1.99h-28.951V2.772h36.596v7.214h-28.951v4.602h9.651v-.124zM264.935 27.296c.25-.124.501-.995.626-1.244.878-2.488.878-6.468.878-8.955V3.041h32.209v31.345h-7.645V10.13h-16.919v5.473c0 2.363 0 4.602-.251 6.965-.251 2.488-.501 5.225-1.379 7.463-.877 2.24-2.381 4.354-5.013 4.354h-5.765v-7.214h3.259v.124zm40.708-1.617h30.329l.502-.249.501-.497.125-.498.251-.497v-4.105h-23.06l-1.504-.249-1.63-.497-1.378-.747-1.253-.746-1.003-1.244-.877-1.244-.752-1.368-.126-1.617-.125-.622V3.041h9.024v6.344l.125.746.376.498.752.373.627.124h20.804V3.041h9.024v23.011l-.126.622-.376 1.617-.501 1.368-.877 1.244-1.128 1.12-1.128.87-1.504.747-1.504.497-1.629.124h-31.959V25.68zM217.202 3.041h8.773V14.61h5.013l12.408-11.57h13.034l-17.922 15.55 17.796 15.672h-12.908l-12.408-11.567h-5.013V34.26h-8.773V3.041z" fill="#9FADBF"/><path fill-rule="evenodd" clip-rule="evenodd" d="M85.039 174.015c-17.035 0-33.922-9.765-46.11-24.63 11.747 9.182 25.845 14.72 39.942 14.72 27.901 0 46.257-21.861 44.495-50.572l.441 2.186c6.461 32.063-10.867 58.296-38.768 58.296zM3.39 79.429l27.314-27.69c-.147-7.87 2.203-16.032 7.93-24.048 4.552-6.267 10.72-11.368 17.769-15.157-10.867 9.327-16.741 20.695-18.21 32.209 0 .437-.146.728-.146 1.166 0 .437 0 .728-.147 1.166v6.267c0 .291 0 .728.147 1.02v.145c0 .292 0 .73.146 1.02v.146c0 .292.147.73.147 1.02v.292c0 .291.147.583.147 1.02v.292c0 .291.147.728.147 1.02v.146c0 .291.147.583.147.874v.292c0 .291.147.583.294.874v.291c.146.292.146.584.293 1.02l.147.292c.147.292.147.583.294.875l.147.291c.146.292.146.583.293.875l.147.291c.147.291.147.583.294.874l.147.292c.146.291.293.583.293.874l.147.292c.147.291.294.583.44 1.02v.146c.148.291.294.583.441.874l.147.292.44.874.148.292.44.874.147.292.44.874v.146l.441.874.147.146c.147.291.294.583.587.874l.147.292c.147.291.44.583.587.874l.147.146c.147.292.44.583.588.874.147.292.44.584.734.875l.147.146c.147.291.44.583.587.874l.147.146c.294.291.44.583.734.874l.147.146c.294.292.44.583.734.875.294.291.44.582.735.874l.146.146c.294.291.588.583.735.874l.147.146c.293.291.587.583.734.874l.147.146.88.875c.148.145.294.291.588.437.147.145.294.291.588.437.146.146.293.291.587.437.147.146.294.292.587.438.147.145.243.095.588.437.344.342.81.512 1.175.874.364.362.884.614 1.321.875l1.91 1.53 1.908 1.53.147.146.147.146.147.145.147.146.146.146c12.336 9.327 27.461 19.092 32.454 30.605 10.867 24.485-20.412 33.521-42.292 21.424L3.39 94.295c-4.111-4.081-4.111-10.785 0-14.866z" fill="#ED1847"/><path fill-rule="evenodd" clip-rule="evenodd" d="M138.052 146.178c-4.7 6.559-11.161 11.66-18.65 15.595 9.251-9.182 15.566-19.967 17.769-31.626.146-.729.293-1.312.293-2.041v-.145c0-.438.147-.875.147-1.166v-9.182c-.587-8.307-6.608-18.363-14.244-27.108-3.188-3.163-5.896-7.444-9.986-9.473-17.475-13.262-45.523-31.48-31.866-50.135 7.343-10.056 25.258-9.327 37.593-5.538l53.453 54.07c4.112 4.08 4.112 10.785 0 14.865l-26.58 26.963c.441 8.161-1.909 16.76-7.929 24.921zM91.795 0c17.034 0 33.921 9.765 46.11 24.63-11.895-9.18-25.992-14.72-39.943-14.72-27.901 0-46.257 21.862-44.495 50.573l-.44-2.187C46.565 26.088 63.893 0 91.794 0z" fill="#0B58BC"/></svg>