<svg width="244" height="97" viewBox="0 0 244 97" fill="none" xmlns="http://www.w3.org/2000/svg"><path fill-rule="evenodd" clip-rule="evenodd" d="M76.781 81.483c-2.619 3.656-6.22 6.5-10.395 8.693 5.157-5.118 8.677-11.13 9.904-17.63.082-.405.164-.73.164-1.136v-.082c0-.243.082-.487.082-.65V65.56c-.328-4.63-3.684-10.236-7.94-15.11-.328-.325-.655-.731-.982-1.056-.246-.244-.492-.488-.819-.731-.164-.082-.246-.244-.41-.325h-.081c-.164-.082-.246-.244-.41-.325-.163-.082-.327-.244-.409-.325v-.65c-.163-.081-.245-.244-.409-.325l-.082-.081-.41-.325-.081-.082h-.082c-.164-.08-.327-.243-.41-.325l-.081-.08-.41-.326-.163-.162-.082-.082-.245-.08c-9.741-7.394-25.376-17.549-17.763-27.947 4.093-5.606 14.08-5.2 20.955-3.087l29.796 30.14c2.292 2.274 2.292 6.011 0 8.286l-14.816 15.03c.245 4.549-1.064 9.342-4.42 13.891zM50.997 0C60.492 0 69.906 5.443 76.7 13.73c-6.63-5.12-14.49-8.206-22.265-8.206-15.553 0-25.785 12.186-24.803 28.19l-.245-1.218C25.785 14.542 35.444 0 50.997 0z" fill="#0B58BC"/><path fill-rule="evenodd" clip-rule="evenodd" d="M47.231 97c-9.495 0-18.909-5.443-25.703-13.73 6.549 5.119 14.407 8.206 22.265 8.206 15.553 0 25.785-12.186 24.803-28.19l.245 1.218C72.443 82.377 62.784 97 47.231 97zM1.72 44.276L16.944 28.84c-.081-4.387 1.228-8.936 4.42-13.404 2.538-3.494 5.976-6.337 9.905-8.45-6.057 5.2-9.331 11.537-10.15 17.955 0 .244-.082.406-.082.65 0 .243 0 .406-.082.65v3.492c0 .163 0 .407.082.57v.08c0 .163 0 .407.082.57v.08c0 .163.082.407.082.57v.162c0 .162.082.325.082.569v.162c0 .162.082.406.082.569v.08c0 .163.081.326.081.488v.163c0 .162.082.325.164.487v.163c.082.162.082.325.164.569l.082.162c.082.162.082.325.163.487l.082.163c.082.162.082.325.164.487l.082.163c.082.162.082.325.164.487l.081.163c.082.162.164.325.164.487l.082.163c.082.162.164.325.245.568v.081l.246.488.082.162.245.488.082.162.246.488.082.162.245.488v.08l.246.488.082.082c.082.162.163.325.327.487l.082.163c.082.162.246.325.328.487l.081.081c.082.163.246.325.328.488.082.162.245.325.41.487l.081.081c.082.163.245.325.327.488l.082.081c.164.163.246.325.41.487l.081.082c.164.162.246.325.41.487.163.163.245.325.409.488l.082.08c.163.163.327.326.41.488l.08.081c.165.163.328.325.41.488l.082.081.491.488c.082.08.164.162.328.243.081.081.163.163.327.244.082.081.164.163.328.244.081.081.163.162.327.243.082.082.164.163.327.244.082.081.164.163.328.244l.327.244c.082.08.246.162.328.243l.327.244h.082l.327.244h.164l.328.244.327.243.082.081.163.163.082.081.246.244.082.081.082.081.081.082.082.08.082.082.082.081.082.082.082.08.082.082.082.081c6.875 5.2 15.307 10.643 18.09 17.06 6.057 13.649-11.378 18.686-23.575 11.943L1.72 52.562c-2.292-2.274-2.292-6.011 0-8.286z" fill="#ED1847"/><path fill-rule="evenodd" clip-rule="evenodd" d="M238.694 46.55c0-1.137 0-2.274-.246-3.412-.082-.244-.246-1.056-.409-1.218-.737-.65-5.157-.65-6.14-.65h-3.192c-.491 0-1.064 0-1.473.08-.655.082-1.228.326-1.556.976-.409.975-.491 3.168-.491 4.224s0 3.169.491 4.143c.328.65.901.894 1.556.975.491.081 1.064.081 1.473.081h6.385c.491 0 1.064 0 1.473-.08.655-.082 1.31-.326 1.556-.976.573-.974.573-3.087.573-4.143zm-36.099 1.788v3.249h9.905c.491 0 .982-.081 1.309-.406.328-.325.41-.731.41-1.219 0-.487-.082-.893-.41-1.218-.327-.325-.818-.407-1.309-.407h-9.905zm-45.349-.407l-3.274-6.255-3.274 6.255h6.548zm85.786-1.38c0 1.136 0 2.274-.082 3.33-.082.65-.082 1.462-.327 2.112-.655 2.194-2.783 3.169-4.912 3.575-.736.162-1.473.162-2.21.162-1.146.082-2.374.082-3.52.082s-2.292 0-3.519-.082c-.737 0-1.556-.081-2.211-.243-2.128-.407-4.256-1.3-4.993-3.575-.164-.65-.245-1.462-.327-2.112-.082-1.138-.082-2.275-.082-3.412 0-1.138 0-2.275.082-3.331.082-.65.082-1.462.327-2.112.655-2.194 2.783-3.169 4.912-3.575.736-.162 1.473-.162 2.21-.244 1.146-.08 2.374-.08 3.519-.08 1.146 0 2.374 0 3.52.08.737 0 1.556.082 2.21.244 2.129.406 4.257 1.381 4.912 3.575.164.65.245 1.462.327 2.112.164 1.218.164 2.356.164 3.493zm-40.437-5.038v2.763h9.986c3.766 0 6.058 1.868 6.058 5.686 0 3.819-2.292 5.687-6.058 5.687h-14.325V37.37h18.664v4.062h-14.325v.081zm-11.869 1.463l-8.268 12.673h-2.537l-8.268-12.592v12.592h-4.338V37.37h5.812l8.021 12.592 8.022-12.592h5.812v18.198h-4.256V42.976zm-31.351 9.017h-10.642l-1.964 3.656h-4.912l9.659-18.279h4.994l9.659 18.279h-4.912l-1.882-3.656zm-17.927-3.006c0 1.706-.246 3.656-1.392 5.037-.982 1.138-2.455 1.544-3.847 1.706-.573.082-1.146.082-1.719.082h-3.192c-1.228 0-2.374 0-3.602-.082-.818-.081-1.637-.162-2.456-.406-1.555-.406-2.783-1.381-3.438-2.843-.736-1.706-.818-4.144-.818-6.012 0-1.787.082-4.306.818-6.012.655-1.462 1.883-2.437 3.438-2.843.819-.244 1.638-.325 2.456-.406 1.146-.082 2.374-.082 3.602-.082h3.192c.573 0 1.146 0 1.719.082 1.392.162 2.865.65 3.847 1.706 1.146 1.3 1.392 3.33 1.392 5.036v.894h-4.338v-.894c0-.487-.082-2.112-.573-2.437-.737-.406-4.339-.406-5.239-.406-.982 0-1.883 0-2.865.081a8.18 8.18 0 00-1.474.163c-.573.162-1.064.406-1.227.975-.328.975-.328 3.006-.328 4.062 0 1.056 0 3.006.328 4.062.245.568.654.893 1.309 1.056.41.081.983.162 1.474.162.9.081 1.882.081 2.783.081.9 0 4.42 0 5.239-.406.573-.243.654-1.95.654-2.437v-.893h4.339v.974h-.082z" fill="#0B58BC"/><path fill-rule="evenodd" clip-rule="evenodd" d="M217.329 60.523h5.73v7.556h3.356l8.104-7.556h8.513l-11.705 10.155 11.623 10.318h-8.431l-8.104-7.555h-3.356v7.555h-5.73V60.523zm-37.327 0h10.969l6.139 13.567 6.222-13.567H214.3v20.473h-5.73V66.129h-1.637l-6.712 14.867h-6.139l-6.794-14.867h-1.556v14.867h-5.73V60.523zm-29.14 20.473h5.975V67.185l.082-.487.246-.163.245-.244.164-.162h20.055v-5.606h-21.037l-1.065.082-.982.243-.9.407-.819.73-.737.65-.573.894-.327.894-.246 1.056-.081.244v15.273zm-29.96-5.687h19.891l.328-.081.409-.325.082-.325.082-.406V71.49h-15.062l-.982-.082-1.064-.406-.901-.406-.818-.569-.655-.812-.573-.812-.491-.894-.082-.975-.164-.487v-5.525h5.976v4.144l.081.487.246.325.491.244.409.081h13.589v-5.28h5.975v15.029l-.082.487-.245.975-.328.975-.573.731-.736.813-.819.568-.9.488-.983.325-1.064.08h-21.037V75.31z" fill="#ED1847"/><path fill-rule="evenodd" clip-rule="evenodd" d="M228.707 27.865h7.449c.573 0 .982-.162 1.392-.487.409-.325.491-.813.491-1.3 0-.488-.082-.975-.491-1.3a2.237 2.237 0 00-1.392-.487h-13.834v3.493h6.385v.081zm0-8.205h7.531c1.637 0 3.356.325 4.666 1.3 1.637 1.218 2.21 3.168 2.21 5.118 0 1.95-.491 3.9-2.128 5.118-1.31.975-3.029 1.3-4.666 1.3h-18.909V12.023h23.902v4.712h-18.909v3.006h6.303v-.081z" fill="#fff"/><path d="M228.707 27.865h7.449c.573 0 .982-.162 1.392-.487.409-.325.491-.813.491-1.3 0-.488-.082-.975-.491-1.3a2.237 2.237 0 00-1.392-.487h-13.834v3.493h6.385v.081zm0-8.205h7.531c1.637 0 3.356.325 4.666 1.3 1.637 1.218 2.21 3.168 2.21 5.118 0 1.95-.491 3.9-2.128 5.118-1.31.975-3.029 1.3-4.666 1.3h-18.909V12.023h23.902v4.712h-18.909v3.006h6.303v-.081z" stroke="#BCBDC0" stroke-width=".216" stroke-miterlimit="22.926"/><path fill-rule="evenodd" clip-rule="evenodd" d="M154.3 27.865c.163-.081.327-.65.409-.812.573-1.625.573-4.225.573-5.85v-9.18h21.037v20.473h-4.993V16.654h-11.051v3.575c0 1.543 0 3.006-.164 4.549-.163 1.625-.327 3.412-.9 4.874-.573 1.463-1.555 2.844-3.274 2.844h-3.766v-4.712h2.129v.081z" fill="#fff"/><path d="M154.3 27.865c.163-.081.327-.65.409-.812.573-1.625.573-4.225.573-5.85v-9.18h21.037v20.473h-4.993V16.654h-11.051v3.575c0 1.543 0 3.006-.164 4.549-.163 1.625-.327 3.412-.9 4.874-.573 1.463-1.555 2.844-3.274 2.844h-3.766v-4.712h2.129v.081z" stroke="#BCBDC0" stroke-width=".216" stroke-miterlimit="22.926"/><path fill-rule="evenodd" clip-rule="evenodd" d="M183.85 26.809h19.809l.328-.162.327-.325.082-.325.164-.325V22.99h-15.062l-.982-.163-1.064-.325-.901-.487-.818-.487-.655-.813-.573-.812-.491-.894-.082-1.056-.082-.406v-5.525h5.894v4.144l.081.487.246.325.491.244.409.081h13.589v-5.28h5.893v15.029l-.082.406-.245 1.056-.328.894-.573.812-.736.731-.737.569-.982.487-.983.325-1.064.082H183.85v-5.606z" fill="#fff"/><path d="M183.85 26.809h19.809l.328-.162.327-.325.082-.325.164-.325V22.99h-15.062l-.982-.163-1.064-.325-.901-.487-.818-.487-.655-.813-.573-.812-.491-.894-.082-1.056-.082-.406v-5.525h5.894v4.144l.081.487.246.325.491.244.409.081h13.589v-5.28h5.893v15.029l-.082.406-.245 1.056-.328.894-.573.812-.736.731-.737.569-.982.487-.983.325-1.064.082H183.85v-5.606z" stroke="#BCBDC0" stroke-width=".216" stroke-miterlimit="22.926"/><path fill-rule="evenodd" clip-rule="evenodd" d="M120.902 12.023h5.73v7.556h3.274l8.104-7.556h8.513l-11.705 10.155 11.623 10.237h-8.431l-8.104-7.556h-3.274v7.556h-5.73V12.023z" fill="#fff"/><path d="M120.902 12.023h5.73v7.556h3.274l8.104-7.556h8.513l-11.705 10.155 11.623 10.237h-8.431l-8.104-7.556h-3.274v7.556h-5.73V12.023z" stroke="#BCBDC0" stroke-width=".216" stroke-miterlimit="22.926"/></svg>