<svg width="149" height="50" viewBox="0 0 149 50" fill="none" xmlns="http://www.w3.org/2000/svg"><path fill-rule="evenodd" clip-rule="evenodd" d="M38.993 41.62a15.312 15.312 0 01-5.253 4.445c2.626-2.559 4.377-5.657 4.983-9.024.068-.202.068-.404.068-.606v-.068c0-.134 0-.202.067-.336v-2.896c-.202-2.357-1.886-5.253-4.04-7.678-.135-.202-.337-.337-.54-.539-.134-.134-.269-.269-.404-.336a3612650147650.048 3612650147650.048 0 00-.404-.404l-.202-.203c-.067-.067-.134-.134-.202-.134L33 23.773l-.202-.134-.202-.202-.067-.068-.203-.134-.134-.068-.068-.067-.067-.067c-4.983-3.772-12.93-8.958-9.092-14.21 1.684-2.358 5.455-2.627 8.62-2.088 1.213.202 2.29.808 3.166 1.683l13.94 14.21c1.146 1.145 1.146 3.099 0 4.243l-7.475 7.61c.135 2.29-.538 4.782-2.222 7.14zM25.86 0c4.782 0 9.563 2.761 12.998 7.004-3.3-2.626-7.273-4.175-11.247-4.175-7.88 0-13.065 6.263-12.526 14.412-.068-.202-.068-.404-.135-.606C13.132 7.408 18.048 0 25.86 0z" fill="#0B4CA1"/><path fill-rule="evenodd" clip-rule="evenodd" d="M23.974 49.5c-4.781 0-9.563-2.761-12.998-7.004 3.3 2.626 7.274 4.175 11.247 4.175 7.88 0 13.066-6.263 12.527-14.412.067.202.067.404.135.606 1.818 9.16-3.03 16.635-10.91 16.635zM.942 22.629l7.745-7.88c-.068-2.223.606-4.58 2.222-6.802 1.28-1.751 3.03-3.233 5.051-4.31-3.098 2.626-4.714 5.859-5.186 9.159 0 .135 0 .202-.067.337v2.827c0 .068 0 .202.067.27v.067c0 .067 0 .202.068.27v.067c0 .067 0 .202.067.27v.066c0 .068.067.135.067.27v.067c0 .067.068.202.068.27v.067c0 .067.067.202.067.27v.067c0 .067.068.202.068.269v.067c0 .068.067.135.067.27v.067c0 .067.067.202.067.27v.067c0 .067.068.202.068.27v.067c.067.067.067.202.134.269.068.067.068.202.135.27v.067c.067.067.067.202.135.27v.066c.067.068.067.203.134.27l.068.067c.067.067.067.202.134.27v.067c.068.067.068.135.135.27l.067.067c.068.067.068.134.135.269l.067.067c.068.068.135.135.135.27l.067.067c.068.067.135.202.203.27.067.067.134.201.202.269v.067a.93.93 0 01.202.27l.067.067a.925.925 0 01.202.27v.067c.067.067.135.202.202.27a.929.929 0 01.202.268v.068a.93.93 0 01.202.27l.068.066.202.203.269.269a85.532 85.532 0 01.27.27c.067.067.134.067.134.134a9672086550959.277 9672086550959.277 0 01.27.27c.067.067.134.067.134.134l.135.135c.067.067.134.067.134.135l.135.134.135.135.135.135.202.134.134.068.068.067.134.135.068.067h.067l.067.067.068.068.067.067h.067l.068.067.067.068.068.067h.067c3.367 2.425 7.61 5.253 9.092 8.486 2.896 6.6-4.85 9.226-10.91 6.6-.674-.27-1.213-.741-1.752-1.212L.403 27.14c-.606-1.48-.606-3.367.539-4.511z" fill="#ED1847"/><path fill-rule="evenodd" clip-rule="evenodd" d="M146.02 15.54c0-.745 0-1.573-.166-2.318 0-.166-.165-.745-.248-.828-.497-.414-3.56-.497-4.222-.497h-2.235c-.331 0-.745 0-.993.083-.414.083-.828.248-1.077.662-.331.663-.331 2.153-.331 2.898 0 .745 0 2.152.331 2.897.166.414.663.58 1.077.662.331.083.745.083.993.083h4.387c.332 0 .745 0 .994-.083.414-.082.91-.248 1.076-.662.414-.662.414-2.152.414-2.897zm-24.835 1.324V19.1h6.788c.332 0 .663-.082.911-.248.248-.248.331-.497.331-.828 0-.33-.083-.58-.331-.828s-.579-.33-.911-.33h-6.788zm-31.043-.33l-2.235-4.305-2.235 4.304h4.47zM149 15.54c0 .745 0 1.573-.083 2.318 0 .496-.083.993-.248 1.49-.497 1.573-1.904 2.235-3.394 2.483-.497.083-.994.083-1.49.166-.828 0-1.573.083-2.401.083-.828 0-1.573 0-2.401-.083-.496 0-1.076-.083-1.572-.166-1.491-.248-2.981-.91-3.395-2.483-.165-.414-.165-.994-.248-1.49-.083-.745-.083-1.573-.083-2.318 0-.745 0-1.573.083-2.318 0-.497.083-.993.248-1.49.497-1.573 1.904-2.235 3.395-2.484.496-.082 1.076-.165 1.572-.165.828 0 1.573-.083 2.401-.083.828 0 1.573 0 2.401.083.496 0 1.076.083 1.573.165 1.49.249 2.897.91 3.394 2.484.165.414.165.993.248 1.49v2.318zm-27.815-3.477v1.904h6.871c2.566 0 4.139 1.242 4.139 3.973 0 2.65-1.573 3.891-4.139 3.891h-9.768V9.248h12.748v2.815h-9.851zm-8.112 1.076l-5.712 8.775h-1.739l-5.629-8.692v8.692h-2.98V9.248h3.973l5.547 8.693 5.546-8.693h3.974v12.583h-2.98V13.14zm-21.524 6.209h-7.285L82.94 21.83h-3.394l6.622-12.583h3.394l6.623 12.583h-3.394l-1.242-2.483zm-12.251-2.07c0 1.16-.166 2.566-.994 3.477-.662.745-1.656 1.076-2.649 1.242-.414.083-.828.083-1.159.083h-2.235c-.828 0-1.656 0-2.483-.083-.58-.083-1.16-.083-1.656-.249-1.076-.33-1.904-.91-2.318-1.986-.497-1.16-.58-2.898-.58-4.14 0-1.241.083-2.98.58-4.139.414-.993 1.242-1.655 2.318-1.986.497-.166 1.159-.249 1.656-.249.827-.082 1.655-.082 2.483-.082h2.235c.414 0 .828 0 1.16.082.992.083 1.986.414 2.648 1.16.828.91.994 2.317.994 3.476v.662h-2.98v-.662c0-.331 0-1.49-.415-1.655-.496-.249-2.98-.249-3.56-.249h-1.986c-.331 0-.745 0-.993.083-.414.083-.745.331-.828.662-.249.662-.249 2.07-.249 2.815 0 .745 0 2.07.249 2.814.165.414.497.58.91.745.332.083.663.083.994.083h1.904c.58 0 3.063 0 3.56-.248.413-.166.413-1.325.413-1.656v-.662h2.98v.662z" fill="#0B4CA1"/><path fill-rule="evenodd" clip-rule="evenodd" d="M131.367 25.225h3.891v5.216h2.318l5.546-5.216H149l-8.113 7.037 8.03 7.119h-5.795l-5.546-5.215h-2.318v5.215h-3.891V25.225zm-25.662 0h7.533l4.222 9.438 4.222-9.438h7.533v14.156h-3.891V29.116h-1.076l-4.636 10.265h-4.221l-4.636-10.265h-1.076v10.265h-3.974V25.225zm-19.95 14.156h4.056v-9.519l.083-.332.165-.166.166-.165.165-.083h13.659v-3.89H89.645l-.662.082-.745.166-.58.33-.579.415-.496.496-.332.663-.248.58-.166.744-.082.166V39.38zm-20.53-3.891h13.659l.248-.083.166-.248.082-.248.083-.166v-1.904H69.115l-.662-.083-.745-.248-.58-.331-.579-.331-.497-.58-.33-.58-.332-.579-.083-.745-.082-.33v-3.81h4.056v2.898l.083.33.165.25.331.165.332.083h9.271v-3.726h4.056v10.763l-.165.662-.248.663-.414.496-.497.58-.497.414-.662.33-.662.166-.745.083H65.225v-3.89z" fill="#ED1847"/></svg>