<?xml version="1.0" standalone="no"?>
<!DOCTYPE svg PUBLIC "-//W3C//DTD SVG 1.1//EN" "http://www.w3.org/Graphics/SVG/1.1/DTD/svg11.dtd" >
<svg xmlns="http://www.w3.org/2000/svg" xmlns:xlink="http://www.w3.org/1999/xlink" version="1.1">
<metadata></metadata>
<defs>
<font id="aktiv_grotesk_corplight" horiz-adv-x="1212" >
<font-face units-per-em="2048" ascent="1638" descent="-410" />
<missing-glyph horiz-adv-x="458" />
<glyph unicode="&#xfb01;" horiz-adv-x="1050" d="M39 956v99h164v121q0 78 24.5 135t64.5 94t93 55.5t113 18.5q43 0 78.5 -5.5t76.5 -17.5l-24 -100q-33 10 -60.5 14t-58.5 4q-80 0 -134 -42t-54 -152v-125h280v-99h-280v-956h-119v956h-164zM774 1284v178h135v-178h-135zM783 0v1055h118v-1055h-118z" />
<glyph unicode="&#xfb02;" horiz-adv-x="1050" d="M39 956v99h164v121q0 78 24.5 135t64.5 94t93 55.5t113 18.5q43 0 78.5 -5.5t76.5 -17.5l-24 -100q-33 10 -60.5 14t-58.5 4q-80 0 -134 -42t-54 -152v-125h280v-99h-280v-956h-119v956h-164zM783 0v1462h118v-1462h-118z" />
<glyph unicode="&#xfb03;" horiz-adv-x="1683" d="M39 956v99h164v121q0 78 24.5 135t64.5 94t93 55.5t113 18.5q43 0 78.5 -5.5t76.5 -17.5l-24 -100q-33 10 -60.5 14t-58.5 4q-80 0 -134 -42t-54 -152v-125h280v-99h-280v-956h-119v956h-164zM672 956v99h164v121q0 78 24.5 135t64.5 94t93 55.5t113 18.5q43 0 78.5 -5.5 t76.5 -17.5l-24 -100q-33 10 -60.5 14t-58.5 4q-80 0 -134 -42t-54 -152v-125h280v-99h-280v-956h-119v956h-164zM1407 1284v178h135v-178h-135zM1416 0v1055h118v-1055h-118z" />
<glyph unicode="&#xfb04;" horiz-adv-x="1683" d="M39 956v99h164v121q0 78 24.5 135t64.5 94t93 55.5t113 18.5q43 0 78.5 -5.5t76.5 -17.5l-24 -100q-33 10 -60.5 14t-58.5 4q-80 0 -134 -42t-54 -152v-125h280v-99h-280v-956h-119v956h-164zM672 956v99h164v121q0 78 24.5 135t64.5 94t93 55.5t113 18.5q43 0 78.5 -5.5 t76.5 -17.5l-24 -100q-33 10 -60.5 14t-58.5 4q-80 0 -134 -42t-54 -152v-125h280v-99h-280v-956h-119v956h-164zM1416 0v1462h118v-1462h-118z" />
<glyph unicode="&#xd;" horiz-adv-x="458" />
<glyph horiz-adv-x="0" />
<glyph horiz-adv-x="0" />
<glyph unicode=" "  horiz-adv-x="458" />
<glyph unicode="&#x09;" horiz-adv-x="458" />
<glyph unicode="&#xa0;" horiz-adv-x="458" />
<glyph unicode="!" horiz-adv-x="421" d="M137 0v188h148v-188h-148zM150 1462h124l-8 -1067h-108z" />
<glyph unicode="&#x22;" horiz-adv-x="610" d="M88 1454h123l-12 -496h-99zM399 1454h123l-14 -496h-96z" />
<glyph unicode="#" d="M37 379v90h227l78 455h-229v94h245l60 371h112l-63 -371h383l59 371h113l-59 -371h213v-94h-230l-78 -455h232v-90h-246l-61 -379h-113l65 379h-383l-63 -379h-111l62 379h-213zM377 469h383l74 455h-383z" />
<glyph unicode="$" d="M84 354h111q23 -135 108.5 -204.5t247.5 -79.5v602q-106 14 -185 41.5t-131.5 76t-78 120t-25.5 169.5q0 82 32 147.5t88 112.5t133 76t167 35v164h100v-162q111 -6 186.5 -40t125 -83t76 -107.5t38.5 -111.5l-108 -27q-16 49 -39 95.5t-58.5 81t-89 58t-131.5 30.5v-578 l27 -4q195 -25 299 -118t104 -286q0 -82 -27.5 -151.5t-83 -121.5t-135 -84t-184.5 -38v-190h-100v190q-199 10 -324 104.5t-143 282.5zM246 1079q0 -55 10 -102t42 -86t92.5 -66.5t160.5 -42.5v566q-84 -6 -141.5 -31t-94 -60.5t-53 -82t-16.5 -95.5zM651 70q156 10 233 92 t77 205q0 45 -10.5 90t-38 83t-78 66.5t-132.5 40.5l-51 8v-585z" />
<glyph unicode="%" horiz-adv-x="1818" d="M78 1012q0 111 25.5 192.5t71.5 136t109.5 81t137.5 26.5q76 0 139.5 -26.5t108.5 -81t70.5 -136.5t25.5 -192q0 -223 -95 -330t-249 -107q-76 0 -138.5 27t-108.5 80t-71.5 136t-25.5 194zM195 1012q0 -338 227 -338t227 338q0 336 -227 336t-227 -336zM485 0l721 1415 h125l-721 -1415h-125zM1053 393q0 111 25.5 193t71.5 136t109.5 80.5t137.5 26.5q76 0 139 -26.5t108.5 -80.5t71 -136t25.5 -193q0 -223 -95 -329.5t-249 -106.5q-76 0 -138.5 26.5t-108.5 80t-71.5 136.5t-25.5 193zM1169 393q1 -338 228 -338t227 338q0 336 -227 336 t-228 -336z" />
<glyph unicode="&#x26;" horiz-adv-x="1265" d="M78 377q0 84 26.5 150.5t72.5 120.5t106.5 96t128.5 77q-29 33 -56.5 70t-50 80t-37 91t-14.5 103q0 63 23.5 118.5t65.5 95.5t100.5 63.5t127.5 23.5q78 0 136.5 -23.5t97.5 -62.5t58.5 -90t19.5 -108q0 -78 -24.5 -134.5t-66.5 -99.5t-96.5 -78.5t-113.5 -70.5 l397 -469q35 82 49 157.5t19 174.5h118q-4 -119 -34.5 -224.5t-77.5 -195.5l211 -242h-148l-127 150q-72 -86 -180.5 -134.5t-243.5 -48.5q-139 0 -232 33t-149.5 88t-81 130t-24.5 159zM205 391q0 -68 17.5 -127t60.5 -102t114.5 -67.5t180.5 -24.5q117 0 201.5 44 t138.5 113l-441 518q-53 -31 -102 -65.5t-87 -76.5t-60.5 -93t-22.5 -119zM373 1165q0 -88 41 -153.5t102 -139.5q43 23 88 50.5t82 63.5t61.5 81t24.5 102q0 102 -54 152.5t-145 50.5q-96 0 -148 -54t-52 -153z" />
<glyph unicode="'" horiz-adv-x="299" d="M88 1454h123l-12 -496h-99z" />
<glyph unicode="(" horiz-adv-x="499" d="M123 625q0 242 58.5 471t174.5 407h113q-117 -211 -165 -427t-48 -451q0 -236 48 -452t165 -427h-113q-117 178 -175 407.5t-58 471.5z" />
<glyph unicode=")" horiz-adv-x="499" d="M31 -254q117 211 165 427t48 452t-48.5 451.5t-164.5 426.5h112q117 -178 175.5 -407.5t58.5 -470.5q0 -242 -58.5 -471.5t-175.5 -407.5h-112z" />
<glyph unicode="*" horiz-adv-x="770" d="M74 1192l49 108l221 -106l-16 268h118l-16 -268l221 106l45 -108l-243 -82l186 -213l-96 -70l-156 226l-156 -226l-96 70l184 213z" />
<glyph unicode="+" d="M139 643v109h412v438h111v-438h411v-109h-411v-440h-111v440h-412z" />
<glyph unicode="," horiz-adv-x="405" d="M96 -201l58 398h139l-96 -398h-101z" />
<glyph unicode="-" horiz-adv-x="800" d="M102 530v123h596v-123h-596z" />
<glyph unicode="." horiz-adv-x="407" d="M127 0v190h154v-190h-154z" />
<glyph unicode="/" horiz-adv-x="618" d="M16 0l459 1503h127l-459 -1503h-127z" />
<glyph unicode="0" d="M96 707q0 193 36 334t103.5 233t163 136t211.5 44q119 0 212 -44t157.5 -136t99.5 -233.5t35 -333.5q0 -193 -35 -333.5t-100.5 -231.5t-160.5 -135t-216 -44q-240 0 -373 179.5t-133 564.5zM227 707q0 -150 19.5 -267.5t64.5 -198.5t118 -124t177 -43t176 43t117 124 t64.5 198.5t19.5 267.5q0 147 -19.5 265t-64.5 199.5t-116.5 125.5t-176.5 44q-104 0 -177 -44t-118 -125.5t-64.5 -199.5t-19.5 -265z" />
<glyph unicode="1" d="M225 1167l406 248h123v-1415h-123v1290l-355 -215z" />
<glyph unicode="2" d="M145 1092q16 63 49 128.5t88.5 117t138.5 84t202 32.5q102 0 182 -29.5t134 -84t83 -128t29 -159.5q0 -96 -29 -180.5t-87 -167t-148.5 -171t-213.5 -192.5q-63 -53 -132.5 -113.5t-131.5 -113.5h754l-25 -115h-886v111q72 63 165 146t187 165q104 90 183 166t131 147.5 t79 144t27 156.5q0 154 -80 229.5t-228 75.5q-88 0 -148 -19t-101 -54t-67 -86.5t-46 -112.5z" />
<glyph unicode="3" d="M117 358h114q10 -70 33 -123t65 -89.5t107.5 -55t161.5 -18.5q172 0 255 84t83 237q0 80 -23.5 135.5t-66.5 90t-101.5 50t-128.5 15.5h-172v113h172q133 0 211 72.5t78 211.5q0 131 -84 195.5t-231 64.5q-84 0 -141.5 -16t-97.5 -48t-65.5 -80t-45.5 -112l-111 21 q14 61 45 123.5t84 113t136 81t202 30.5q111 0 192.5 -28.5t134 -78t78 -114t25.5 -137.5q0 -129 -51 -209t-158 -133q242 -94 242 -355q0 -94 -30 -174t-89 -138t-146 -91t-200 -33q-139 0 -230.5 37t-144.5 94.5t-75.5 128t-26.5 135.5z" />
<glyph unicode="4" d="M94 371v100l690 944h125v-944h203l-22 -100h-181v-371h-118v371h-697zM223 471h568v784z" />
<glyph unicode="5" d="M150 334h114q14 -70 39 -119t67 -81t100 -47t140 -15q156 0 244 91t88 283q0 74 -17.5 138.5t-56.5 111.5t-101 74t-151 27q-106 0 -186 -32t-145 -101h-107l60 751h745v-112h-647l-45 -519q37 29 72.5 50.5t75.5 36t87 21.5t109 7q115 0 195.5 -36t133 -97t77 -142 t24.5 -173q0 -119 -32 -210t-91 -152.5t-143 -93.5t-189 -32q-213 0 -326.5 95.5t-133.5 275.5z" />
<glyph unicode="6" d="M139 612q0 254 45 418t118 258t167 130t193 36q186 0 276 -80t125 -221l-107 -27q-20 59 -43.5 100.5t-57.5 68t-81 37.5t-112 11q-84 0 -155 -29.5t-125 -104t-87 -202.5t-39 -325q72 115 172 167t236 52q119 0 201.5 -38t133 -102.5t73 -148.5t22.5 -174 q0 -104 -34 -192t-95.5 -150.5t-149.5 -97.5t-194 -35q-147 0 -240.5 58.5t-147 151.5t-74 209t-20.5 230zM285 416q2 -66 25.5 -127.5t64.5 -110.5t102 -78.5t141 -29.5q166 0 259.5 98t93.5 266q0 74 -16.5 140.5t-53.5 116.5t-99.5 79t-154.5 29q-72 0 -139.5 -22.5 t-118.5 -70t-79.5 -120t-24.5 -170.5z" />
<glyph unicode="7" d="M92 1303v112h944v-112q-168 -313 -301 -637t-225 -666h-137q100 340 230 663.5t302 639.5h-813z" />
<glyph unicode="8" d="M96 373q0 84 31 145.5t74 103.5t92 65.5t86 31.5q-45 12 -87 39.5t-76 70.5t-54.5 100.5t-20.5 131.5q0 82 28 154.5t84 125t144 83t211 30.5q121 0 209 -30.5t144.5 -83t84 -125t27.5 -154.5q0 -74 -20.5 -130.5t-53 -98t-75.5 -67.5t-86 -38q39 -10 87 -34.5t91 -67.5 t72.5 -104.5t29.5 -147.5q0 -92 -31.5 -167t-95 -129t-160 -84t-223.5 -30t-223 30t-160.5 84t-96.5 129t-32 167zM225 371q0 -135 91.5 -220t291.5 -85q199 0 290 85t91 220q0 66 -19.5 120t-64.5 92t-117.5 59.5t-179.5 21.5q-109 0 -181.5 -21.5t-117.5 -59.5t-64.5 -92 t-19.5 -120zM260 1061q0 -143 84 -216t264 -73t263 73t83 216q0 59 -19.5 111.5t-61.5 92.5t-107.5 63.5t-157.5 23.5t-158.5 -23.5t-108.5 -63.5t-61.5 -92.5t-19.5 -111.5z" />
<glyph unicode="9" d="M111 979q0 104 33.5 192.5t95 150.5t147.5 97t193 35q141 0 234 -59.5t146.5 -155.5t75 -217t21.5 -242q0 -82 -4 -175t-19.5 -183t-47.5 -173t-86 -146.5t-137 -101.5t-200 -38q-180 0 -287.5 78t-128.5 244h119q27 -121 98.5 -168t196.5 -47q92 0 163 32.5t119 109.5 t71.5 205t23.5 318q-135 -221 -397 -221q-121 0 -203 39t-132 103.5t-72.5 148.5t-22.5 174zM233 983q0 -74 15.5 -140.5t52.5 -115.5t99.5 -77.5t156.5 -28.5q72 0 136.5 21.5t112.5 65.5t75.5 110.5t27.5 156.5q0 68 -19.5 134.5t-59 119.5t-102 86t-146.5 33 q-166 0 -257.5 -98.5t-91.5 -266.5z" />
<glyph unicode=":" horiz-adv-x="407" d="M127 0v190h154v-190h-154zM127 864v190h154v-190h-154z" />
<glyph unicode=";" horiz-adv-x="407" d="M96 -201l58 398h139l-96 -398h-101zM127 864v190h154v-190h-154z" />
<glyph unicode="&#x3c;" d="M162 649v90l909 437v-121l-770 -359l770 -356v-127z" />
<glyph unicode="=" d="M166 412v112h881v-112h-881zM166 870v113h881v-113h-881z" />
<glyph unicode="&#x3e;" d="M141 213v125l764 352l-764 365v121l910 -437v-90z" />
<glyph unicode="?" horiz-adv-x="1013" d="M53 1133q14 66 45 129t84.5 113t131 81t188.5 31q100 0 176 -30t127 -81t76.5 -120.5t25.5 -149.5q0 -121 -47 -205t-117 -149q-39 -37 -75.5 -73t-66.5 -75t-48 -84t-18 -102v-23h-119v23q0 72 22.5 128t58 102t77.5 86t81 81q47 47 88 112.5t43 162.5 q4 131 -66.5 210.5t-219.5 79.5q-147 0 -224 -66.5t-114 -201.5zM399 0v188h152v-188h-152z" />
<glyph unicode="@" horiz-adv-x="1898" d="M88 375q0 178 39 319.5t106.5 250t156.5 186t188.5 127t205 73t203.5 23.5q176 0 328.5 -49.5t266.5 -143.5t178.5 -230t64.5 -310q0 -150 -33 -266.5t-92.5 -197.5t-141 -123t-180.5 -42q-86 0 -145 37t-70 123q-68 -92 -147.5 -132t-177.5 -40q-80 0 -143.5 29.5 t-107.5 80.5t-67.5 120t-23.5 146q0 125 35.5 229.5t99 179.5t151.5 117t195 42q96 0 164.5 -43t109.5 -123q4 31 13.5 71.5t15.5 69.5h109l-121 -663q-2 -10 -3 -18.5t-1 -16.5q0 -119 122 -119q66 0 124.5 31.5t101.5 95t68.5 160t25.5 227.5q0 150 -52 270.5 t-146.5 205.5t-226.5 130t-294 45q-174 0 -317.5 -62.5t-244.5 -176t-157.5 -272t-56.5 -351.5q0 -166 53 -298t149.5 -223t229.5 -140.5t291 -49.5q117 0 201 13.5t146 40t107.5 64.5t84.5 85h131q-53 -80 -118 -138t-145.5 -95t-184 -55.5t-232.5 -18.5q-174 0 -326 53 t-265.5 156.5t-179 253t-65.5 342.5zM618 367q0 -147 66 -218t164 -71q74 0 125 23.5t86 58.5q55 55 83.5 121.5t45.5 158.5l8 45q8 47 8 105q-2 47 -18.5 93t-52.5 85q-29 29 -67 43t-93 14q-72 0 -136.5 -28.5t-112.5 -87t-77 -144.5t-29 -198z" />
<glyph unicode="A" horiz-adv-x="1353" d="M25 0l579 1462h148l577 -1462h-135l-176 446h-688l-174 -446h-131zM375 561h598l-301 764z" />
<glyph unicode="B" horiz-adv-x="1277" d="M168 0v1462h463q154 0 251 -28.5t154.5 -78.5t79 -115.5t21.5 -139.5q0 -111 -51.5 -193t-172.5 -133q78 -27 130.5 -64.5t84 -84.5t45 -101.5t13.5 -109.5q0 -86 -26.5 -162t-88 -132.5t-160 -88t-241.5 -31.5h-502zM291 111h375q117 0 191.5 20.5t118.5 58t61.5 92 t17.5 121.5q0 150 -90.5 228t-292.5 78h-381v-598zM291 821h358q190 0 277.5 68.5t87.5 204.5q0 135 -87 197.5t-300 62.5h-336v-533z" />
<glyph unicode="C" horiz-adv-x="1452" d="M115 727q0 188 51 332.5t138 242t203 147.5t247 50q133 0 229 -34.5t162.5 -97t107.5 -148.5t66 -187l-119 -26q-23 90 -56.5 161.5t-85.5 120.5t-126 76t-178 27q-121 0 -215.5 -49.5t-160 -137.5t-100 -209t-34.5 -264q0 -145 33.5 -265t98 -208t161 -136t221.5 -48 q119 0 199.5 29.5t133 83t82 126t44.5 156.5h122q-14 -109 -56 -201t-113.5 -159.5t-174 -106.5t-237.5 -39q-143 0 -261 49t-203 146.5t-132 240t-47 328.5z" />
<glyph unicode="D" horiz-adv-x="1437" d="M168 0v1462h494q154 0 276.5 -44t207.5 -133t131 -224t46 -320q0 -186 -49 -325.5t-141.5 -231.5t-223.5 -138t-293 -46h-448zM293 111h332q293 0 430 162.5t137 463.5q0 297 -128 457t-402 160h-369v-1243z" />
<glyph unicode="E" horiz-adv-x="1204" d="M168 0v1462h919v-112h-794v-537h754v-117h-754v-581h829l-28 -115h-926z" />
<glyph unicode="F" horiz-adv-x="1132" d="M168 0v1462h879v-112h-754v-555h706v-117h-706v-678h-125z" />
<glyph unicode="G" horiz-adv-x="1456" d="M115 727q0 188 50 332.5t137 242t206 147.5t256 50q229 0 357 -105.5t177 -293.5l-116 -27q-20 70 -52 128.5t-81.5 100t-119 65.5t-165.5 24q-127 0 -224.5 -49.5t-163 -137.5t-99 -209t-33.5 -264q0 -145 32.5 -265t100 -208t169 -136t238.5 -48q117 0 228.5 31.5 t197.5 97.5v407h-417v113h536v-565q-53 -51 -119.5 -88t-137.5 -60.5t-144.5 -35t-143.5 -11.5q-156 0 -279.5 50t-210.5 147.5t-133 240t-46 326.5z" />
<glyph unicode="H" horiz-adv-x="1411" d="M168 0v1462h125v-647h825v647h125v-1462h-125v698h-825v-698h-125z" />
<glyph unicode="I" horiz-adv-x="460" d="M168 0v1462h125v-1462h-125z" />
<glyph unicode="J" horiz-adv-x="1179" d="M51 403h127q10 -70 34 -130t65.5 -104t107.5 -69.5t162 -25.5q197 0 273.5 106.5t76.5 302.5v979h125v-991q0 -256 -124 -382t-347 -126q-207 0 -339 106.5t-161 333.5z" />
<glyph unicode="K" horiz-adv-x="1302" d="M168 0v1462h125v-764l768 764h149l-542 -547l598 -915h-152l-541 834l-280 -277v-557h-125z" />
<glyph unicode="L" horiz-adv-x="1126" d="M168 0v1462h125v-1345h794l-26 -117h-893z" />
<glyph unicode="M" horiz-adv-x="1716" d="M168 0v1462h162l528 -1317l537 1317h153v-1462h-116v1253q-10 -18 -66 -157q-25 -59 -61.5 -150.5t-91 -223.5t-128 -310.5t-170.5 -411.5h-118l-512 1245v-1245h-117z" />
<glyph unicode="N" horiz-adv-x="1413" d="M168 0v1462h137l819 -1265v1265h121v-1462h-135l-821 1270v-1270h-121z" />
<glyph unicode="O" horiz-adv-x="1548" d="M115 727q0 188 50 332.5t139 242t210 147.5t262 50t262 -48t208 -144.5t137.5 -238.5t50.5 -331q0 -190 -49.5 -334.5t-136.5 -242t-208 -147.5t-264 -50q-141 0 -263 48t-210 144.5t-138 240t-50 331.5zM246 731q0 -145 32.5 -266t99 -208t166 -135t232.5 -48 q129 0 227.5 48t165 135t100.5 208t34 266t-35 266t-101.5 208t-165 135.5t-225.5 48.5q-133 0 -232.5 -48.5t-165 -135.5t-99 -207.5t-33.5 -266.5z" />
<glyph unicode="P" horiz-adv-x="1267" d="M168 0v1462h471q160 0 262.5 -33.5t160.5 -91t80.5 -134.5t22.5 -163q0 -90 -23.5 -172t-83 -143t-161.5 -97t-262 -36h-344v-592h-123zM291 700h346q123 0 200.5 24t123 67t61.5 104t16 139q0 82 -18.5 141.5t-64.5 99.5t-123.5 59.5t-196.5 19.5h-344v-654z" />
<glyph unicode="Q" horiz-adv-x="1548" d="M115 727q0 188 50 332.5t139 242t210 147.5t262 50t262 -48t208 -144.5t137.5 -238.5t50.5 -331q0 -203 -54.5 -352t-152.5 -248l180 -211l-86 -76l-182 216q-156 -102 -363 -103q-141 0 -263 48t-210 144.5t-138 240t-50 331.5zM246 731q0 -145 32.5 -266t99 -208 t166 -135t232.5 -48q166 0 285 82l-182 217l86 71l182 -213q78 88 117 215t39 285q0 145 -35 266t-101.5 208t-165 135.5t-225.5 48.5q-133 0 -232.5 -48.5t-165 -135.5t-99 -207.5t-33.5 -266.5z" />
<glyph unicode="R" horiz-adv-x="1271" d="M168 0v1462h459q158 0 259 -34.5t159.5 -90t80 -127t21.5 -145.5q0 -139 -62.5 -237.5t-203.5 -149.5l315 -678h-145l-293 649q-35 -4 -72 -7t-78 -3h-317v-639h-123zM291 750h352q111 0 183.5 21.5t115.5 62t60.5 98t17.5 131.5q0 72 -18.5 126t-64.5 91t-123 55.5 t-193 18.5h-330v-604z" />
<glyph unicode="S" horiz-adv-x="1314" d="M92 383h123q33 -164 141.5 -236.5t323.5 -72.5q111 0 183.5 24.5t115.5 65.5t61.5 96t18.5 117q0 51 -11.5 97t-43 84t-91 66.5t-155.5 45.5l-183 30q-106 18 -189 47t-140.5 75t-87 116t-29.5 170t42 174t112.5 122t166 71.5t201.5 23.5q137 0 229.5 -29.5t152 -79 t92 -111.5t51.5 -126l-115 -33q-20 63 -48 113.5t-74 85.5t-115.5 53.5t-170.5 18.5q-113 0 -188.5 -21.5t-122.5 -59.5t-67.5 -90.5t-20.5 -111.5q0 -61 14.5 -106.5t49 -78t93 -55t146.5 -39.5l207 -36q111 -20 191.5 -53t134 -83.5t79 -120t25.5 -163.5q0 -84 -33 -159 t-97.5 -130t-160.5 -88t-225 -33q-119 0 -220.5 22.5t-178 73t-126 130t-61.5 194.5z" />
<glyph unicode="T" horiz-adv-x="1208" d="M35 1348v114h1139v-114h-506v-1348h-125v1348h-508z" />
<glyph unicode="U" horiz-adv-x="1384" d="M158 582v880h125v-891q0 -248 96 -372.5t317 -124.5q113 0 190 31.5t125 94t69.5 156t21.5 215.5v891h125v-889q0 -162 -36 -277.5t-104.5 -189t-168 -108.5t-224.5 -35q-129 0 -228 35t-168 109.5t-104.5 192.5t-35.5 282z" />
<glyph unicode="V" horiz-adv-x="1329" d="M29 1462h143l496 -1321l501 1321h131l-567 -1462h-135z" />
<glyph unicode="W" horiz-adv-x="1865" d="M27 1462h139l344 -1306l362 1300h136l352 -1298l348 1304h131l-412 -1462h-145l-352 1300l-352 -1300h-138z" />
<glyph unicode="X" horiz-adv-x="1255" d="M29 0l520 774l-479 688h149l408 -604l411 604h133l-477 -698l533 -764h-150l-461 674l-452 -674h-135z" />
<glyph unicode="Y" horiz-adv-x="1204" d="M31 1462h147l428 -723l436 723h132l-506 -829v-633h-125v633z" />
<glyph unicode="Z" horiz-adv-x="1198" d="M72 0v102l901 1248h-885v112h1030v-104l-899 -1243h918l-27 -115h-1038z" />
<glyph unicode="[" horiz-adv-x="520" d="M158 -254v1757h340v-102h-217v-1553h217v-102h-340z" />
<glyph unicode="\" horiz-adv-x="618" d="M16 1503h127l459 -1503h-127z" />
<glyph unicode="]" horiz-adv-x="520" d="M23 -152h217v1553h-217v102h339v-1757h-339v102z" />
<glyph unicode="^" d="M137 627l416 821h106l416 -821h-129l-344 692l-344 -692h-121z" />
<glyph unicode="_" horiz-adv-x="1024" d="M0 -252h1024v-106h-1024v106z" />
<glyph unicode="`" horiz-adv-x="776" d="M195 1483h159l228 -275h-127z" />
<glyph unicode="a" horiz-adv-x="1075" d="M74 293q0 106 45 174t119.5 106.5t170 54t197.5 19.5l205 8v33q0 156 -60.5 227.5t-215.5 71.5q-76 0 -128.5 -12t-87 -36t-55 -55.5t-31.5 -70.5l-108 16q57 258 414 258q111 0 186.5 -26.5t121.5 -76.5t66.5 -123t20.5 -167v-694h-119v150q-27 -33 -63.5 -65 t-83.5 -56.5t-103.5 -39t-124.5 -14.5q-166 0 -266 80t-100 238zM199 295q0 -96 54 -154.5t189 -58.5q68 0 134.5 15.5t109.5 49.5q37 27 60.5 51.5t39 54.5t21.5 66.5t6 86.5v155l-195 -8q-119 -4 -198.5 -21.5t-128.5 -49t-70.5 -78t-21.5 -109.5z" />
<glyph unicode="b" horiz-adv-x="1193" d="M143 0v1462h119v-565q72 90 158 140t209 50q115 0 200.5 -41.5t142 -115.5t84 -174.5t27.5 -216.5q0 -135 -33.5 -240.5t-95 -179.5t-148.5 -113t-196 -39q-96 0 -185 39t-163 137v-143h-119zM258 485q0 -70 7 -122t24.5 -93t44 -72.5t65.5 -58.5q47 -37 96.5 -53 t112.5 -16q76 0 139.5 25.5t109.5 80.5t72.5 144.5t26.5 216.5q0 129 -29.5 215t-76.5 138t-106.5 73.5t-116.5 21.5q-63 0 -114.5 -14.5t-102.5 -52.5q-72 -53 -112 -134.5t-40 -205.5v-93z" />
<glyph unicode="c" horiz-adv-x="1134" d="M111 522q0 129 34.5 233.5t98 178.5t154.5 113.5t206 39.5q174 0 277.5 -89t136.5 -250l-115 -29q-12 57 -34.5 106t-57.5 84t-87 55.5t-124 20.5q-96 0 -163.5 -35t-112.5 -95t-65.5 -144t-20.5 -183q0 -98 20.5 -182t63.5 -145.5t111.5 -96t164.5 -34.5 q154 0 224.5 74.5t95.5 199.5h118q-31 -178 -141.5 -277.5t-300.5 -99.5q-115 0 -205 38t-151.5 110.5t-94 175t-32.5 231.5z" />
<glyph unicode="d" horiz-adv-x="1189" d="M111 516q0 270 125.5 420.5t347.5 150.5q86 0 176 -36.5t168 -139.5v551h119v-1462h-119v158q-68 -88 -155 -139.5t-212 -51.5q-117 0 -202 45t-140 121t-81.5 175.5t-26.5 207.5zM238 520q0 -129 29.5 -216t76.5 -139t105.5 -73.5t117.5 -21.5q63 0 113.5 14t103.5 53 q72 53 111 135t39 205v92q0 72 -8 124t-24.5 92t-44.5 71t-64 59q-49 37 -97.5 53.5t-109.5 16.5q-76 0 -139.5 -25.5t-109.5 -81t-72.5 -143.5t-26.5 -215z" />
<glyph unicode="e" horiz-adv-x="1146" d="M111 516q0 139 35.5 245.5t100 179.5t151.5 109.5t192 36.5q123 0 209 -39.5t140 -108.5t78.5 -163t24.5 -203v-75h-811q0 -90 22.5 -169t68 -137.5t113 -92t155.5 -33.5q80 0 135 15t92 44t58.5 66.5t33.5 84.5h115q-25 -137 -131.5 -223t-302.5 -86q-227 0 -353 146.5 t-126 402.5zM233 600h687q0 86 -18.5 157.5t-57.5 124t-102.5 81t-151.5 28.5q-154 0 -246 -96t-111 -295z" />
<glyph unicode="f" horiz-adv-x="632" d="M39 956v99h164v121q0 78 24.5 135t64.5 94t93 55.5t113 18.5q43 0 78.5 -5.5t76.5 -17.5l-24 -100q-33 10 -60.5 14t-58.5 4q-80 0 -134 -42t-54 -152v-125h280v-99h-280v-956h-119v956h-164z" />
<glyph unicode="g" horiz-adv-x="1187" d="M106 545q0 123 33 223t94.5 171t149.5 109.5t199 38.5q88 0 178 -37.5t166 -138.5v144h118v-1016q0 -213 -109.5 -336t-344.5 -123q-90 0 -167 16.5t-135.5 52.5t-95 94t-47.5 142h113q23 -104 98.5 -154t231.5 -50q174 0 256 84.5t82 285.5v158q-66 -92 -155 -142.5 t-212 -50.5q-117 0 -203 44t-141 118t-82 169t-27 198zM233 547q0 -119 30 -200t77 -131t106.5 -72.5t120.5 -22.5q68 0 115 14.5t100 50.5q72 53 110 136.5t38 207.5v39q0 72 -7.5 124t-24.5 92t-44 71t-63 59q-51 37 -98.5 53.5t-108.5 16.5q-76 0 -139.5 -24.5 t-110.5 -78t-74 -136t-27 -199.5z" />
<glyph unicode="h" horiz-adv-x="1142" d="M143 0v1462h119v-579q86 109 183.5 156.5t207.5 47.5q180 0 266.5 -100t86.5 -285v-702h-119v670q0 166 -59.5 238.5t-188.5 72.5q-61 0 -130 -23.5t-124 -74.5q-61 -53 -92 -109.5t-31 -155.5v-618h-119z" />
<glyph unicode="i" horiz-adv-x="417" d="M141 1284v178h135v-178h-135zM150 0v1055h118v-1055h-118z" />
<glyph unicode="j" horiz-adv-x="417" d="M-170 -350l25 100q29 -10 63.5 -17t85.5 -7q84 0 115 51t31 135v1143h118v-1071q0 -72 -7 -137.5t-32.5 -115.5t-76 -81t-138.5 -31q-70 0 -111.5 9.5t-72.5 21.5zM141 1284v178h135v-178h-135z" />
<glyph unicode="k" horiz-adv-x="1009" d="M143 0v1462h119v-899l543 492h147l-372 -348l419 -707h-143l-369 633l-225 -203v-430h-119z" />
<glyph unicode="l" horiz-adv-x="417" d="M150 0v1462h118v-1462h-118z" />
<glyph unicode="m" horiz-adv-x="1746" d="M143 0v1055h119v-174q78 104 167 155t181 51q121 0 194 -54t107 -152q72 98 168.5 152t206.5 54q152 0 238 -81.5t86 -262.5v-743h-119v700q0 82 -13.5 135.5t-41 86t-68.5 46t-96 13.5q-47 0 -107.5 -17.5t-115.5 -64.5q-49 -39 -81 -94t-32 -129v-676h-119v698 q0 154 -53 218.5t-162 64.5q-61 0 -115.5 -25.5t-107.5 -72.5q-18 -16 -40 -39t-38 -53.5t-27.5 -71.5t-11.5 -94v-625h-119z" />
<glyph unicode="n" horiz-adv-x="1142" d="M143 0v1055h119v-172q86 109 183.5 156.5t207.5 47.5q180 0 266.5 -100t86.5 -285v-702h-119v670q0 166 -59.5 238.5t-188.5 72.5q-61 0 -130 -23.5t-124 -74.5q-61 -53 -92 -109.5t-31 -155.5v-618h-119z" />
<glyph unicode="o" horiz-adv-x="1214" d="M111 522q0 129 35.5 233.5t100 178.5t157 113.5t206.5 39.5q115 0 207 -38.5t155.5 -111.5t97.5 -175.5t34 -226.5q0 -129 -35 -233.5t-99.5 -179.5t-157.5 -115t-210 -40t-208 39t-153.5 111.5t-96 175t-33.5 229.5zM238 528q0 -96 20.5 -180t64.5 -145.5t114.5 -97 t168.5 -35.5q100 0 170 35.5t115 97t65.5 145.5t20.5 182q0 94 -20.5 177.5t-65.5 144.5t-114.5 97t-170.5 36q-98 0 -168.5 -36t-114.5 -97t-64.5 -144t-20.5 -180z" />
<glyph unicode="p" horiz-adv-x="1193" d="M143 -397v1452h119v-158q72 90 158 140t209 50q117 0 201.5 -41.5t141 -115.5t84 -174.5t27.5 -216.5q0 -135 -33.5 -240.5t-95 -179.5t-148.5 -113t-196 -39q-96 0 -185 39t-163 137v-540h-119zM258 485q0 -70 7 -122t24.5 -93t44 -72.5t65.5 -58.5q47 -37 96.5 -53 t112.5 -16q76 0 139.5 25.5t109.5 80.5t72.5 144.5t26.5 216.5q0 129 -29.5 215t-76.5 138t-106.5 73.5t-116.5 21.5q-63 0 -114.5 -14.5t-102.5 -52.5q-72 -53 -112 -134.5t-40 -205.5v-93z" />
<glyph unicode="q" horiz-adv-x="1191" d="M111 516q0 270 125.5 420.5t347.5 150.5q86 0 176 -36.5t168 -139.5v144h121v-1452h-121v555q-68 -88 -155 -139.5t-212 -51.5q-117 0 -202 45t-140 121t-81.5 175.5t-26.5 207.5zM238 520q0 -129 29.5 -216t76.5 -139t105.5 -73.5t117.5 -21.5q63 0 113.5 14t103.5 53 q72 53 111 135t39 205v92q0 72 -8 124t-24.5 92t-44.5 71t-64 59q-49 37 -97.5 53.5t-109.5 16.5q-76 0 -139.5 -25.5t-109.5 -81t-72.5 -143.5t-26.5 -215z" />
<glyph unicode="r" horiz-adv-x="690" d="M143 0v1055h119v-172q63 90 145 139t175 49q23 0 42 -1t42 -5l-15 -113q-37 6 -67 6q-53 0 -108.5 -19t-104.5 -67q-47 -41 -78 -99t-31 -138v-635h-119z" />
<glyph unicode="s" horiz-adv-x="1052" d="M90 293h117q23 -123 104.5 -174t233.5 -51q154 0 217 57t63 143q0 37 -8 69t-31.5 58.5t-67.5 45t-114 30.5l-129 21q-84 14 -150.5 34.5t-112.5 54t-69.5 84t-23.5 123.5q0 70 30.5 126.5t84 94.5t126 58t156.5 20q109 0 181.5 -21.5t118.5 -58t71.5 -86t40.5 -104.5 l-109 -22q-16 47 -37.5 82.5t-54.5 59.5t-82 36t-123 12q-82 0 -137 -15.5t-89 -42t-48.5 -61.5t-14.5 -71q0 -37 8.5 -67t33 -52.5t68.5 -38.5t116 -29l162 -26q166 -29 247.5 -99.5t81.5 -216.5q0 -61 -25.5 -116.5t-75.5 -95.5t-126 -63.5t-174 -23.5q-96 0 -177 18.5 t-140.5 57.5t-96.5 100.5t-45 149.5z" />
<glyph unicode="t" horiz-adv-x="675" d="M39 956v99h164v291h119v-291h299v-99h-299v-690q0 -78 32.5 -132t114.5 -54q53 0 90 8t66 18l24 -96q-31 -12 -75 -22.5t-115 -10.5q-90 0 -141.5 31t-77 81t-31.5 115.5t-6 137.5v614h-164z" />
<glyph unicode="u" horiz-adv-x="1120" d="M139 352v703h119v-670q0 -166 52 -238.5t179 -72.5q63 0 127 24.5t121 73.5q59 53 90 109.5t31 154.5v619h119v-1055h-119v172q-166 -205 -383 -205q-180 0 -258 98.5t-78 286.5z" />
<glyph unicode="v" horiz-adv-x="1015" d="M12 1055h138l358 -926l366 926h130l-426 -1055h-140z" />
<glyph unicode="w" horiz-adv-x="1456" d="M18 1055h132l245 -922l269 916h139l262 -916l246 922h127l-310 -1055h-137l-264 922l-266 -922h-137z" />
<glyph unicode="x" horiz-adv-x="978" d="M27 0l391 561l-357 494h140l291 -414l292 414h129l-348 -498l393 -557h-139l-332 473l-327 -473h-133z" />
<glyph unicode="y" horiz-adv-x="1019" d="M12 1055h138l382 -903l342 903h134l-480 -1194q-25 -59 -50 -107.5t-57 -82t-75 -51t-102 -17.5q-47 0 -79 5t-73 19l29 105q25 -10 52.5 -16.5t57.5 -6.5q37 0 61.5 8.5t45 30t38 55t40.5 86.5l49 125z" />
<glyph unicode="z" horiz-adv-x="919" d="M47 0v100l670 854h-656v101h797v-101l-670 -854h705l-21 -100h-825z" />
<glyph unicode="{" horiz-adv-x="538" d="M61 571v107h5q84 0 112.5 39t28.5 117v442q0 131 61.5 179t173.5 48h86v-100h-98q-59 0 -80.5 -28.5t-21.5 -82.5v-489q0 -156 -115 -178q115 -23 115 -179v-489q0 -53 21.5 -82t80.5 -29h98v-100h-86q-55 0 -99 10.5t-74.5 37t-46 70.5t-15.5 109v443q0 76 -28.5 115.5 t-112.5 39.5h-5z" />
<glyph unicode="|" horiz-adv-x="413" d="M145 -254v1757h123v-1757h-123z" />
<glyph unicode="}" horiz-adv-x="538" d="M10 -154h99q59 0 80.5 29t21.5 82v489q0 156 115 179q-115 23 -115 178v489q0 53 -21.5 82t-80.5 29h-99v100h86q113 0 174.5 -48t61.5 -179v-442q0 -76 28.5 -116t112.5 -40h4v-107h-4q-84 0 -112.5 -38.5t-28.5 -116.5v-443q0 -66 -15.5 -109.5t-46 -70t-74.5 -37 t-100 -10.5h-86v100z" />
<glyph unicode="~" d="M102 541q0 98 24 160.5t61.5 97.5t87 47t98.5 12q76 0 138 -39t118.5 -86t109 -86t109.5 -39q82 0 119 48.5t37 170.5h102q0 -98 -22.5 -161.5t-60.5 -98.5t-86 -48t-97 -13q-76 0 -138.5 40t-119 87t-109.5 87t-108 40q-82 0 -120 -49t-38 -170h-105z" />
<glyph unicode="&#xa1;" horiz-adv-x="421" d="M137 866v189h148v-189h-148zM147 -397l9 1056h108l8 -1056h-125z" />
<glyph unicode="&#xa2;" d="M152 700q0 121 30.5 220.5t89 172t140.5 116.5t184 55v170h100v-168q158 -10 255.5 -97.5t125.5 -232.5l-114 -27q-20 100 -82 170t-185 84v-911q125 12 189.5 84t87.5 178h121q-29 -160 -129.5 -255t-268.5 -109v-168h-100v168q-211 14 -327.5 159.5t-116.5 390.5z M279 705q0 -90 17 -169t56 -139.5t98.5 -98.5t145.5 -46v909q-168 -23 -242.5 -146.5t-74.5 -309.5z" />
<glyph unicode="&#xa3;" d="M154 653v105h135q-10 59 -18.5 122.5t-8.5 137.5q0 109 34 190.5t92 136t135 82t163 27.5q102 0 172 -24.5t116 -67.5t72.5 -99.5t40.5 -119.5l-108 -29q-18 61 -41 105.5t-55.5 74t-79.5 43t-115 13.5q-82 0 -139 -25t-94 -69t-53.5 -104t-16.5 -130q0 -72 6 -135.5 t17 -128.5h479v-105h-465q4 -41 7 -68.5t3 -56.5q0 -51 -3 -104t-13 -106.5t-33 -105.5t-61 -99h802l-24 -113h-907v113q76 78 99 182t23 213q0 31 -4 64.5t-10 80.5h-147z" />
<glyph unicode="&#xa4;" d="M137 256l117 125q-45 59 -69.5 140t-24.5 179q0 102 26.5 185.5t71.5 142.5l-119 129l78 78l121 -131q104 86 266 86q80 0 148.5 -21.5t119.5 -64.5l123 131l78 -78l-123 -131q41 -59 64.5 -138t23.5 -177t-23.5 -180t-66.5 -142l127 -133l-80 -76l-125 127 q-106 -82 -274 -82q-158 0 -262 76l-117 -121zM285 705q0 -80 17 -148t56 -117t98.5 -76.5t143.5 -27.5q86 0 145.5 27.5t97.5 76.5t54 118t16 149t-16 148.5t-54 117.5t-97.5 77.5t-145.5 28.5q-84 0 -143.5 -28.5t-98.5 -78.5t-56 -119t-17 -148z" />
<glyph unicode="&#xa5;" d="M59 1415h142l409 -704l416 704h127l-381 -635h289v-104h-354l-37 -64v-163h391v-103h-391v-346h-121v346h-385v103h385v163l-43 64h-342v104h280z" />
<glyph unicode="&#xa6;" horiz-adv-x="413" d="M145 -254v723h123v-723h-123zM145 815v688h123v-688h-123z" />
<glyph unicode="&#xa7;" horiz-adv-x="1044" d="M88 80h117q23 -123 101.5 -174t234.5 -51q88 0 144 14t89 41t45 62.5t12 76.5q0 33 -8 64.5t-30.5 59.5t-66.5 52.5t-114 42.5l-174 49q-174 47 -257 122t-83 210q0 90 57.5 170t166.5 115q-100 39 -158 97.5t-58 166.5q0 76 33 133.5t89.5 94t132 55t161.5 18.5 q113 0 189.5 -25.5t125 -65.5t73 -89t36.5 -94l-108 -25q-14 43 -35 78t-56.5 61.5t-89 41t-133.5 14.5q-88 0 -146.5 -15.5t-93 -41t-49 -61.5t-14.5 -77q0 -31 8.5 -59.5t32 -54t66.5 -49t114 -42.5l174 -45q176 -45 258 -122.5t82 -213.5q0 -92 -57 -167.5t-162 -110.5 q102 -41 158.5 -107.5t56.5 -177.5q0 -154 -111.5 -226.5t-299.5 -72.5q-94 0 -173 18.5t-139.5 58.5t-96.5 101.5t-44 149.5zM219 647q0 -35 8.5 -65.5t32 -59t67.5 -53.5t115 -45l50 -14q76 -23 139 -13.5t109 40t71 77.5t25 102q0 33 -8.5 65t-32 60.5t-67.5 53 t-116 45.5l-73 20q-78 20 -137.5 10t-99.5 -41.5t-61.5 -79t-21.5 -102.5z" />
<glyph unicode="&#xa8;" horiz-adv-x="776" d="M156 1268v174h133v-174h-133zM483 1268v174h135v-174h-135z" />
<glyph unicode="&#xa9;" horiz-adv-x="1581" d="M92 731q0 166 54.5 301t149.5 230.5t222 147.5t273 52q154 0 281.5 -52t219.5 -147.5t142.5 -230.5t50.5 -301t-54.5 -301t-147.5 -230.5t-220 -147.5t-272 -52q-154 0 -283 52t-221 147.5t-143.5 230.5t-51.5 301zM211 731q0 -141 42 -257t119 -198.5t182 -128 t234 -45.5q127 0 232.5 45.5t182.5 128t120 198.5t43 257t-43 257t-120 198t-182.5 127t-232.5 45q-129 0 -234 -45t-182 -127t-119 -198t-42 -257zM414 727q0 96 26.5 175t76.5 134.5t121 86t159 30.5q137 0 217 -67.5t104 -190.5l-102 -21q-20 86 -69.5 136.5t-151.5 50.5 q-70 0 -120 -24.5t-82 -69.5t-46.5 -105.5t-14.5 -132.5q0 -70 14.5 -130t46.5 -104t81 -70t119 -26q104 0 158.5 52.5t70.5 144.5h113q-25 -135 -111 -213t-233 -78q-178 0 -277.5 111.5t-99.5 310.5z" />
<glyph unicode="&#xaa;" horiz-adv-x="868" d="M94 922q0 80 33 129t87 77.5t126 40t152 15.5l141 6v16q0 100 -39 153.5t-152 53.5q-53 0 -90 -9t-61.5 -25.5t-38.5 -40t-23 -52.5l-90 14q20 98 94 148.5t213 50.5q164 0 230.5 -78t66.5 -213v-503h-106v94q-43 -47 -110.5 -80t-149.5 -33q-129 0 -206 60.5t-77 175.5z M207 924q0 -66 38 -105t134 -39q39 0 81 8.5t91 36.5q49 29 66.5 71t17.5 103v107l-135 -6q-84 -4 -140.5 -15.5t-90 -33t-48 -53t-14.5 -74.5z" />
<glyph unicode="&#xab;" horiz-adv-x="960" d="M98 526l291 453h115l-268 -451l268 -458h-119zM485 526l291 453h115l-268 -451l268 -458h-119z" />
<glyph unicode="&#xac;" d="M127 768v106h917v-544h-108v438h-809z" />
<glyph unicode="&#xad;" horiz-adv-x="800" d="M102 530v123h596v-123h-596z" />
<glyph unicode="&#xae;" horiz-adv-x="983" d="M72 1061q0 100 32.5 182t89 138.5t133 87t162.5 30.5q94 0 171 -30.5t132.5 -87t85 -138.5t29.5 -182q0 -102 -32.5 -183t-89 -137.5t-133.5 -87t-163 -30.5q-92 0 -168.5 30.5t-132 87t-86 137t-30.5 183.5zM166 1061q0 -170 88 -263t233 -93t235.5 93t90.5 263t-90 263 t-236 93q-145 0 -233 -93t-88 -263zM332 862v414h153q55 0 89 -11.5t53.5 -28.5t25.5 -39.5t6 -47.5q0 -45 -15 -70.5t-56 -42.5l90 -174h-92l-78 156h-92v-156h-84zM416 1090h78q55 0 68 19t13 46q0 23 -17 38t-77 15h-65v-118z" />
<glyph unicode="&#xaf;" horiz-adv-x="776" d="M137 1284v105h500v-105h-500z" />
<glyph unicode="&#xb0;" horiz-adv-x="647" d="M51 1186q0 57 20.5 106t57.5 85t87 56.5t110 20.5q57 0 106 -20.5t86 -56.5t57.5 -85t20.5 -106q0 -59 -20.5 -108.5t-57.5 -86.5t-86 -57.5t-106 -20.5q-59 0 -109.5 20.5t-87.5 57.5t-57.5 86.5t-20.5 108.5zM156 1184q0 -82 46 -130t124 -48q74 0 120 48t46 130 q0 78 -46.5 128t-119.5 50q-78 0 -124 -50t-46 -128z" />
<glyph unicode="&#xb1;" d="M137 0v111h938v-111h-938zM139 643v109h412v438h111v-438h411v-109h-411v-440h-111v440h-412z" />
<glyph unicode="&#xb2;" horiz-adv-x="843" d="M125 1214q12 43 31.5 84t53.5 75t86 54.5t128 20.5q70 0 122 -19.5t86 -53.5t50 -77t16 -90q0 -57 -14 -105t-46 -94t-84 -94.5t-128 -109.5q-31 -25 -62.5 -49.5t-66.5 -53.5h410l-23 -98h-553v86q53 47 105.5 87t105.5 85q61 53 107.5 92t76 76t44 76t14.5 92 q0 72 -40 113t-118 41q-88 0 -130 -38t-67 -118z" />
<glyph unicode="&#xb3;" horiz-adv-x="843" d="M111 831h96q6 -35 18.5 -64.5t36 -53t59 -36.5t89.5 -13q96 0 141 43t45 122q0 86 -48 120t-122 34h-102v88h102q66 0 110 38t44 112q0 70 -45.5 104.5t-124.5 34.5q-92 0 -135.5 -43t-63.5 -109l-96 21q8 35 26.5 73.5t52 70.5t86 53.5t126.5 21.5q141 0 209.5 -60.5 t68.5 -156.5q0 -72 -27.5 -115t-78.5 -78q70 -33 98.5 -83t28.5 -121q0 -115 -71 -187t-220 -72q-90 0 -147.5 27t-91.5 65t-48 83t-16 81z" />
<glyph unicode="&#xb4;" horiz-adv-x="776" d="M195 1208l227 275h160l-260 -275h-127z" />
<glyph unicode="&#xb5;" horiz-adv-x="1120" d="M139 -399v1454h119v-682q0 -166 61.5 -232.5t188.5 -66.5q55 0 110.5 22.5t120.5 75.5q53 43 86 101.5t33 134.5v647h119v-1055h-119v168q-86 -109 -179 -155t-196 -46q-68 0 -125 14.5t-100 65.5v-446h-119z" />
<glyph unicode="&#xb6;" horiz-adv-x="1193" d="M51 1053q0 84 26.5 158.5t90 130t168 88t258.5 32.5h448v-1747h-127v1641h-280v-1641h-127v930q-129 0 -216 34t-141.5 90t-77 130t-22.5 154z" />
<glyph unicode="&#xb7;" horiz-adv-x="407" d="M127 670v190h154v-190h-154z" />
<glyph unicode="&#xb8;" horiz-adv-x="776" d="M209 -315q31 -4 56.5 -6.5t53.5 -2.5q70 0 102 17.5t32 58.5q0 39 -35 55.5t-127 16.5h-25l64 182h94l-39 -106q106 -12 144 -55.5t38 -100.5q0 -92 -67.5 -126t-177.5 -34q-29 0 -56.5 2t-56.5 6v93z" />
<glyph unicode="&#xb9;" horiz-adv-x="843" d="M166 1286l244 133h120v-815h-118v696l-201 -100z" />
<glyph unicode="&#xba;" horiz-adv-x="884" d="M74 1090q0 92 27.5 167.5t76.5 130t116.5 83t149.5 28.5q170 0 268.5 -108.5t98.5 -294.5q0 -92 -25.5 -169t-74.5 -130.5t-118 -83t-155 -29.5q-84 0 -150.5 28.5t-114.5 82t-73.5 128t-25.5 167.5zM184 1090q0 -68 14.5 -124.5t45 -98.5t79.5 -65.5t119 -23.5t119 23.5 t80 65.5t45 99.5t14 125.5q0 66 -14 123t-45 100t-80 67.5t-119 24.5t-119 -24.5t-79.5 -67.5t-45 -100.5t-14.5 -124.5z" />
<glyph unicode="&#xbb;" horiz-adv-x="980" d="M70 70l268 450l-268 459h118l287 -457l-291 -452h-114zM477 70l268 450l-268 459h119l287 -457l-291 -452h-115z" />
<glyph unicode="&#xbc;" horiz-adv-x="1837" d="M86 1286l244 133h120v-815h-118v696l-201 -100zM457 0l721 1415h125l-721 -1415h-125zM1095 207v74l422 536h101v-520h106l-20 -90h-86v-205h-103v205h-420zM1216 297h299v381z" />
<glyph unicode="&#xbd;" horiz-adv-x="1837" d="M86 1286l244 133h120v-815h-118v696l-201 -100zM410 0l721 1415h125l-721 -1415h-125zM1118 612q12 43 31.5 84t53.5 75t86 54.5t128 20.5q70 0 122 -19.5t86 -53.5t50 -77t16 -90q0 -57 -14 -105t-46 -94t-84 -94.5t-128 -109.5q-31 -25 -62.5 -49.5t-66.5 -53.5h410 l-23 -98h-553v86q53 47 105.5 87t105.5 85q61 53 107.5 92t76 76t44 76t14.5 92q0 72 -40 113t-118 41q-88 0 -130 -38t-67 -118z" />
<glyph unicode="&#xbe;" horiz-adv-x="1837" d="M111 831h96q6 -35 18.5 -64.5t36 -53t59 -36.5t89.5 -13q96 0 141 43t45 122q0 86 -48 120t-122 34h-102v88h102q66 0 110 38t44 112q0 70 -45.5 104.5t-124.5 34.5q-92 0 -135.5 -43t-63.5 -109l-96 21q8 35 26.5 73.5t52 70.5t86 53.5t126.5 21.5q141 0 209.5 -60.5 t68.5 -156.5q0 -72 -27.5 -115t-78.5 -78q70 -33 98.5 -83t28.5 -121q0 -115 -71 -187t-220 -72q-90 0 -147.5 27t-91.5 65t-48 83t-16 81zM551 0l721 1415h125l-721 -1415h-125zM1095 207v74l422 536h101v-520h106l-20 -90h-86v-205h-103v205h-420zM1216 297h299v381z" />
<glyph unicode="&#xbf;" horiz-adv-x="1009" d="M121 -47q0 121 47 204t117 148q39 37 75.5 72t66.5 73.5t48.5 84t18.5 102.5v22h118v-22q0 -72 -22.5 -127t-58 -101.5t-77.5 -86t-81 -80.5q-47 -47 -88 -111.5t-43 -161.5q-4 -131 66.5 -208.5t219.5 -77.5q147 0 224 66.5t114 201.5l109 -21q-14 -66 -45 -129 t-84 -113t-131 -81t-189 -31q-100 0 -176 28.5t-127 79t-76.5 120t-25.5 149.5zM477 866v189h152v-189h-152z" />
<glyph unicode="&#xc0;" horiz-adv-x="1353" d="M25 0l579 1462h148l577 -1462h-135l-176 446h-688l-174 -446h-131zM375 561h598l-301 764zM420 1849h161l228 -264h-129z" />
<glyph unicode="&#xc1;" horiz-adv-x="1353" d="M25 0l579 1462h148l577 -1462h-135l-176 446h-688l-174 -446h-131zM375 561h598l-301 764zM545 1585l227 264h162l-260 -264h-129z" />
<glyph unicode="&#xc2;" horiz-adv-x="1353" d="M25 0l579 1462h148l577 -1462h-135l-176 446h-688l-174 -446h-131zM375 561h598l-301 764zM387 1585l232 264h116l230 -264h-125l-164 170l-164 -170h-125z" />
<glyph unicode="&#xc3;" horiz-adv-x="1353" d="M25 0l579 1462h148l577 -1462h-135l-176 446h-688l-174 -446h-131zM328 1602q0 100 51 157.5t143 57.5q55 0 95.5 -18.5t73 -41t64.5 -41t73 -18.5q59 0 79.5 34.5t20.5 82.5h98q0 -102 -51 -159t-143 -57q-55 0 -95 18.5t-73 40t-66 40t-71 18.5q-59 0 -80 -33.5 t-21 -80.5h-98zM375 561h598l-301 764z" />
<glyph unicode="&#xc4;" horiz-adv-x="1353" d="M25 0l579 1462h148l577 -1462h-135l-176 446h-688l-174 -446h-131zM375 561h598l-301 764zM439 1628v178h137v-178h-137zM774 1628v178h140v-178h-140z" />
<glyph unicode="&#xc5;" horiz-adv-x="1353" d="M25 0l555 1401q-43 23 -71 65.5t-28 108.5q0 98 58.5 147.5t136.5 49.5q39 0 73.5 -12.5t62.5 -37t44 -61.5t16 -86q0 -63 -27.5 -106.5t-70.5 -65.5l555 -1403h-135l-176 446h-688l-174 -446h-131zM375 561h598l-301 764zM571 1575q0 -57 29 -84t76 -27q49 0 76.5 27 t27.5 84q0 59 -27.5 87t-76.5 28q-47 0 -76 -28t-29 -87z" />
<glyph unicode="&#xc6;" horiz-adv-x="2072" d="M10 0l875 1462h1071v-112h-744v-537h703v-117h-703v-581h779l-29 -115h-868v510h-641l-306 -510h-137zM520 625h574v725h-146z" />
<glyph unicode="&#xc7;" horiz-adv-x="1452" d="M115 727q0 188 51 332.5t138 242t203 147.5t247 50q133 0 229 -34.5t162.5 -97t107.5 -148.5t66 -187l-119 -26q-23 90 -56.5 161.5t-85.5 120.5t-126 76t-178 27q-121 0 -215.5 -49.5t-160 -137.5t-100 -209t-34.5 -264q0 -145 33.5 -265t98 -208t161 -136t221.5 -48 q119 0 199.5 29.5t133 83t82 126t44.5 156.5h122q-14 -104 -54 -195.5t-108.5 -159t-165 -107.5t-225.5 -44l-28 -78q111 -12 149.5 -58t38.5 -106q0 -47 -18.5 -79.5t-52 -52t-80.5 -27.5t-103 -8q-31 0 -58.5 2t-58.5 6v94q33 -4 58.5 -6t56.5 -2q137 0 137 82 q0 41 -36.5 59t-128.5 18h-27l55 160q-129 10 -235.5 64.5t-181 151t-116.5 232.5t-42 312z" />
<glyph unicode="&#xc8;" horiz-adv-x="1204" d="M168 0v1462h919v-112h-794v-537h754v-117h-754v-581h829l-28 -115h-926zM398 1849h161l228 -264h-129z" />
<glyph unicode="&#xc9;" horiz-adv-x="1204" d="M168 0v1462h919v-112h-794v-537h754v-117h-754v-581h829l-28 -115h-926zM490 1585l227 264h162l-260 -264h-129z" />
<glyph unicode="&#xca;" horiz-adv-x="1204" d="M168 0v1462h919v-112h-794v-537h754v-117h-754v-581h829l-28 -115h-926zM344 1585l232 264h116l230 -264h-125l-164 170l-164 -170h-125z" />
<glyph unicode="&#xcb;" horiz-adv-x="1204" d="M168 0v1462h919v-112h-794v-537h754v-117h-754v-581h829l-28 -115h-926zM396 1628v178h137v-178h-137zM731 1628v178h140v-178h-140z" />
<glyph unicode="&#xcc;" horiz-adv-x="460" d="M-45 1849h161l228 -264h-129zM168 0v1462h125v-1462h-125z" />
<glyph unicode="&#xcd;" horiz-adv-x="460" d="M121 1585l227 264h162l-260 -264h-129zM168 0v1462h125v-1462h-125z" />
<glyph unicode="&#xce;" horiz-adv-x="460" d="M-58 1585l232 264h116l230 -264h-125l-164 170l-164 -170h-125zM168 0v1462h125v-1462h-125z" />
<glyph unicode="&#xcf;" horiz-adv-x="460" d="M-6 1628v178h137v-178h-137zM168 0v1462h125v-1462h-125zM329 1628v178h140v-178h-140z" />
<glyph unicode="&#xd0;" horiz-adv-x="1458" d="M20 700v111h168v651h494q154 0 276.5 -44t207.5 -133t131 -224t46 -320q0 -186 -49 -325.5t-141 -231.5t-223 -138t-293 -46h-449v700h-168zM313 111h332q293 0 430 162.5t137 463.5q0 297 -128 457t-402 160h-369v-543h408v-111h-408v-589z" />
<glyph unicode="&#xd1;" horiz-adv-x="1413" d="M168 0v1462h137l819 -1265v1265h121v-1462h-135l-821 1270v-1270h-121zM373 1602q0 100 51 157.5t143 57.5q55 0 95.5 -18.5t73 -41t64.5 -41t73 -18.5q59 0 79.5 34.5t20.5 82.5h98q0 -102 -51 -159t-143 -57q-55 0 -95 18.5t-73 40t-66 40t-71 18.5q-59 0 -80 -33.5 t-21 -80.5h-98z" />
<glyph unicode="&#xd2;" horiz-adv-x="1548" d="M115 727q0 188 50 332.5t139 242t210 147.5t262 50t262 -48t208 -144.5t137.5 -238.5t50.5 -331q0 -190 -49.5 -334.5t-136.5 -242t-208 -147.5t-264 -50q-141 0 -263 48t-210 144.5t-138 240t-50 331.5zM246 731q0 -145 32.5 -266t99 -208t166 -135t232.5 -48 q129 0 227.5 48t165 135t100.5 208t34 266t-35 266t-101.5 208t-165 135.5t-225.5 48.5q-133 0 -232.5 -48.5t-165 -135.5t-99 -207.5t-33.5 -266.5zM525 1849h161l228 -264h-129z" />
<glyph unicode="&#xd3;" horiz-adv-x="1548" d="M115 727q0 188 50 332.5t139 242t210 147.5t262 50t262 -48t208 -144.5t137.5 -238.5t50.5 -331q0 -190 -49.5 -334.5t-136.5 -242t-208 -147.5t-264 -50q-141 0 -263 48t-210 144.5t-138 240t-50 331.5zM246 731q0 -145 32.5 -266t99 -208t166 -135t232.5 -48 q129 0 227.5 48t165 135t100.5 208t34 266t-35 266t-101.5 208t-165 135.5t-225.5 48.5q-133 0 -232.5 -48.5t-165 -135.5t-99 -207.5t-33.5 -266.5zM635 1585l227 264h162l-260 -264h-129z" />
<glyph unicode="&#xd4;" horiz-adv-x="1548" d="M115 727q0 188 50 332.5t139 242t210 147.5t262 50t262 -48t208 -144.5t137.5 -238.5t50.5 -331q0 -190 -49.5 -334.5t-136.5 -242t-208 -147.5t-264 -50q-141 0 -263 48t-210 144.5t-138 240t-50 331.5zM246 731q0 -145 32.5 -266t99 -208t166 -135t232.5 -48 q129 0 227.5 48t165 135t100.5 208t34 266t-35 266t-101.5 208t-165 135.5t-225.5 48.5q-133 0 -232.5 -48.5t-165 -135.5t-99 -207.5t-33.5 -266.5zM485 1585l232 264h116l230 -264h-125l-164 170l-164 -170h-125z" />
<glyph unicode="&#xd5;" horiz-adv-x="1548" d="M115 727q0 188 50 332.5t139 242t210 147.5t262 50t262 -48t208 -144.5t137.5 -238.5t50.5 -331q0 -190 -49.5 -334.5t-136.5 -242t-208 -147.5t-264 -50q-141 0 -263 48t-210 144.5t-138 240t-50 331.5zM246 731q0 -145 32.5 -266t99 -208t166 -135t232.5 -48 q129 0 227.5 48t165 135t100.5 208t34 266t-35 266t-101.5 208t-165 135.5t-225.5 48.5q-133 0 -232.5 -48.5t-165 -135.5t-99 -207.5t-33.5 -266.5zM426 1602q0 100 51 157.5t143 57.5q55 0 95.5 -18.5t73 -41t64.5 -41t73 -18.5q59 0 79.5 34.5t20.5 82.5h98 q0 -102 -51 -159t-143 -57q-55 0 -95 18.5t-73 40t-66 40t-71 18.5q-59 0 -80 -33.5t-21 -80.5h-98z" />
<glyph unicode="&#xd6;" horiz-adv-x="1548" d="M115 727q0 188 50 332.5t139 242t210 147.5t262 50t262 -48t208 -144.5t137.5 -238.5t50.5 -331q0 -190 -49.5 -334.5t-136.5 -242t-208 -147.5t-264 -50q-141 0 -263 48t-210 144.5t-138 240t-50 331.5zM246 731q0 -145 32.5 -266t99 -208t166 -135t232.5 -48 q129 0 227.5 48t165 135t100.5 208t34 266t-35 266t-101.5 208t-165 135.5t-225.5 48.5q-133 0 -232.5 -48.5t-165 -135.5t-99 -207.5t-33.5 -266.5zM537 1628v178h137v-178h-137zM872 1628v178h140v-178h-140z" />
<glyph unicode="&#xd7;" d="M176 1044l74 74l356 -352l357 352l73 -74l-358 -356l336 -334l-74 -78l-334 336l-336 -336l-71 78l336 334z" />
<glyph unicode="&#xd8;" horiz-adv-x="1548" d="M115 727q0 188 50 332.5t139 242t210 147.5t262 50q213 0 371 -108l110 168l93 -62l-117 -178q94 -96 147.5 -240.5t53.5 -341.5q0 -190 -49.5 -334.5t-136.5 -242t-207.5 -147.5t-264.5 -50q-213 0 -373 107l-108 -164l-90 59l114 174q-98 96 -151 242.5t-53 345.5z M246 731q0 -154 35.5 -276.5t107.5 -210.5l692 1046q-127 98 -305 99q-133 0 -232.5 -48.5t-165 -135.5t-99 -207.5t-33.5 -266.5zM467 166q127 -92 309 -92q129 0 227.5 48t165 135t100.5 208t34 266q0 147 -36 270t-106 211z" />
<glyph unicode="&#xd9;" horiz-adv-x="1384" d="M158 582v880h125v-891q0 -248 96 -372.5t317 -124.5q113 0 190 31.5t125 94t69.5 156t21.5 215.5v891h125v-889q0 -162 -36 -277.5t-104.5 -189t-168 -108.5t-224.5 -35q-129 0 -228 35t-168 109.5t-104.5 192.5t-35.5 282zM437 1849h161l228 -264h-129z" />
<glyph unicode="&#xda;" horiz-adv-x="1384" d="M158 582v880h125v-891q0 -248 96 -372.5t317 -124.5q113 0 190 31.5t125 94t69.5 156t21.5 215.5v891h125v-889q0 -162 -36 -277.5t-104.5 -189t-168 -108.5t-224.5 -35q-129 0 -228 35t-168 109.5t-104.5 192.5t-35.5 282zM562 1585l227 264h162l-260 -264h-129z" />
<glyph unicode="&#xdb;" horiz-adv-x="1384" d="M158 582v880h125v-891q0 -248 96 -372.5t317 -124.5q113 0 190 31.5t125 94t69.5 156t21.5 215.5v891h125v-889q0 -162 -36 -277.5t-104.5 -189t-168 -108.5t-224.5 -35q-129 0 -228 35t-168 109.5t-104.5 192.5t-35.5 282zM403 1585l232 264h116l230 -264h-125l-164 170 l-164 -170h-125z" />
<glyph unicode="&#xdc;" horiz-adv-x="1384" d="M158 582v880h125v-891q0 -248 96 -372.5t317 -124.5q113 0 190 31.5t125 94t69.5 156t21.5 215.5v891h125v-889q0 -162 -36 -277.5t-104.5 -189t-168 -108.5t-224.5 -35q-129 0 -228 35t-168 109.5t-104.5 192.5t-35.5 282zM455 1628v178h137v-178h-137zM790 1628v178 h140v-178h-140z" />
<glyph unicode="&#xdd;" horiz-adv-x="1204" d="M31 1462h147l428 -723l436 723h132l-506 -829v-633h-125v633zM469 1585l227 264h162l-260 -264h-129z" />
<glyph unicode="&#xde;" horiz-adv-x="1267" d="M168 0v1462h123v-284h348q160 0 262.5 -34t160.5 -91.5t80.5 -134t22.5 -162.5q0 -92 -23.5 -173t-83 -142.5t-161.5 -97.5t-262 -36h-344v-307h-123zM291 416h346q123 0 200.5 23.5t123 66.5t61.5 104.5t16 139.5q0 82 -18.5 141t-64.5 99t-123.5 59.5t-196.5 19.5h-344 v-653z" />
<glyph unicode="&#xdf;" horiz-adv-x="1148" d="M147 0v1075q0 186 106.5 295t293.5 109q104 0 179 -26t123 -72t70.5 -109.5t22.5 -136.5q0 -123 -49 -206t-156 -126q59 -10 118.5 -40t107 -80t77 -119.5t29.5 -162.5q0 -88 -23.5 -164.5t-75.5 -135t-137 -92.5t-206 -34q-70 0 -131.5 12.5t-92.5 24.5l25 101 q29 -10 84 -22.5t115 -12.5q94 0 155.5 24.5t97 67.5t50 102.5t14.5 128.5q0 84 -28.5 146.5t-79 103.5t-121 60.5t-154.5 19.5h-121v105h95q141 0 213.5 75.5t72.5 218.5q0 51 -14 97.5t-47 80t-83 53t-122 19.5q-141 0 -215 -76.5t-74 -220.5v-1083h-119z" />
<glyph unicode="&#xe0;" horiz-adv-x="1075" d="M74 293q0 106 45 174t119.5 106.5t170 54t197.5 19.5l205 8v33q0 156 -60.5 227.5t-215.5 71.5q-76 0 -128.5 -12t-87 -36t-55 -55.5t-31.5 -70.5l-108 16q57 258 414 258q111 0 186.5 -26.5t121.5 -76.5t66.5 -123t20.5 -167v-694h-119v150q-27 -33 -63.5 -65 t-83.5 -56.5t-103.5 -39t-124.5 -14.5q-166 0 -266 80t-100 238zM199 295q0 -96 54 -154.5t189 -58.5q68 0 134.5 15.5t109.5 49.5q37 27 60.5 51.5t39 54.5t21.5 66.5t6 86.5v155l-195 -8q-119 -4 -198.5 -21.5t-128.5 -49t-70.5 -78t-21.5 -109.5zM306 1483h159l228 -275 h-127z" />
<glyph unicode="&#xe1;" horiz-adv-x="1075" d="M74 293q0 106 45 174t119.5 106.5t170 54t197.5 19.5l205 8v33q0 156 -60.5 227.5t-215.5 71.5q-76 0 -128.5 -12t-87 -36t-55 -55.5t-31.5 -70.5l-108 16q57 258 414 258q111 0 186.5 -26.5t121.5 -76.5t66.5 -123t20.5 -167v-694h-119v150q-27 -33 -63.5 -65 t-83.5 -56.5t-103.5 -39t-124.5 -14.5q-166 0 -266 80t-100 238zM199 295q0 -96 54 -154.5t189 -58.5q68 0 134.5 15.5t109.5 49.5q37 27 60.5 51.5t39 54.5t21.5 66.5t6 86.5v155l-195 -8q-119 -4 -198.5 -21.5t-128.5 -49t-70.5 -78t-21.5 -109.5zM408 1208l227 275h160 l-260 -275h-127z" />
<glyph unicode="&#xe2;" horiz-adv-x="1075" d="M74 293q0 106 45 174t119.5 106.5t170 54t197.5 19.5l205 8v33q0 156 -60.5 227.5t-215.5 71.5q-76 0 -128.5 -12t-87 -36t-55 -55.5t-31.5 -70.5l-108 16q57 258 414 258q111 0 186.5 -26.5t121.5 -76.5t66.5 -123t20.5 -167v-694h-119v150q-27 -33 -63.5 -65 t-83.5 -56.5t-103.5 -39t-124.5 -14.5q-166 0 -266 80t-100 238zM199 295q0 -96 54 -154.5t189 -58.5q68 0 134.5 15.5t109.5 49.5q37 27 60.5 51.5t39 54.5t21.5 66.5t6 86.5v155l-195 -8q-119 -4 -198.5 -21.5t-128.5 -49t-70.5 -78t-21.5 -109.5zM250 1208l232 275h116 l230 -275h-121l-168 185l-168 -185h-121z" />
<glyph unicode="&#xe3;" horiz-adv-x="1075" d="M74 293q0 106 45 174t119.5 106.5t170 54t197.5 19.5l205 8v33q0 156 -60.5 227.5t-215.5 71.5q-76 0 -128.5 -12t-87 -36t-55 -55.5t-31.5 -70.5l-108 16q57 258 414 258q111 0 186.5 -26.5t121.5 -76.5t66.5 -123t20.5 -167v-694h-119v150q-27 -33 -63.5 -65 t-83.5 -56.5t-103.5 -39t-124.5 -14.5q-166 0 -266 80t-100 238zM186 1241q0 100 51 156.5t140 56.5q55 0 94 -18.5t71.5 -40t64.5 -40t71 -18.5q57 0 76.5 34t19.5 79h98q0 -100 -51 -156.5t-139 -56.5q-55 0 -94 18.5t-72 40t-64.5 40t-70.5 18.5q-57 0 -77 -34t-20 -79 h-98zM199 295q0 -96 54 -154.5t189 -58.5q68 0 134.5 15.5t109.5 49.5q37 27 60.5 51.5t39 54.5t21.5 66.5t6 86.5v155l-195 -8q-119 -4 -198.5 -21.5t-128.5 -49t-70.5 -78t-21.5 -109.5z" />
<glyph unicode="&#xe4;" horiz-adv-x="1075" d="M74 293q0 106 45 174t119.5 106.5t170 54t197.5 19.5l205 8v33q0 156 -60.5 227.5t-215.5 71.5q-76 0 -128.5 -12t-87 -36t-55 -55.5t-31.5 -70.5l-108 16q57 258 414 258q111 0 186.5 -26.5t121.5 -76.5t66.5 -123t20.5 -167v-694h-119v150q-27 -33 -63.5 -65 t-83.5 -56.5t-103.5 -39t-124.5 -14.5q-166 0 -266 80t-100 238zM199 295q0 -96 54 -154.5t189 -58.5q68 0 134.5 15.5t109.5 49.5q37 27 60.5 51.5t39 54.5t21.5 66.5t6 86.5v155l-195 -8q-119 -4 -198.5 -21.5t-128.5 -49t-70.5 -78t-21.5 -109.5zM299 1268v174h133v-174 h-133zM626 1268v174h135v-174h-135z" />
<glyph unicode="&#xe5;" horiz-adv-x="1075" d="M74 293q0 106 45 174t119.5 106.5t170 54t197.5 19.5l205 8v33q0 156 -60.5 227.5t-215.5 71.5q-76 0 -128.5 -12t-87 -36t-55 -55.5t-31.5 -70.5l-108 16q57 258 414 258q111 0 186.5 -26.5t121.5 -76.5t66.5 -123t20.5 -167v-694h-119v150q-27 -33 -63.5 -65 t-83.5 -56.5t-103.5 -39t-124.5 -14.5q-166 0 -266 80t-100 238zM199 295q0 -96 54 -154.5t189 -58.5q68 0 134.5 15.5t109.5 49.5q37 27 60.5 51.5t39 54.5t21.5 66.5t6 86.5v155l-195 -8q-119 -4 -198.5 -21.5t-128.5 -49t-70.5 -78t-21.5 -109.5zM340 1399q0 96 57 145 t135 49q37 0 73 -12t62.5 -36.5t43 -61.5t16.5 -84q0 -49 -16.5 -85t-43 -59.5t-62.5 -36t-73 -12.5q-78 0 -135 48.5t-57 144.5zM430 1399q0 -57 27.5 -85t74.5 -28t74.5 27.5t27.5 85.5q0 57 -27.5 84.5t-74.5 27.5t-74.5 -27.5t-27.5 -84.5z" />
<glyph unicode="&#xe6;" horiz-adv-x="1822" d="M74 293q0 106 44 174t116.5 106.5t167 54t192.5 19.5l205 8v33q0 78 -13.5 134.5t-44 93t-83 54t-130.5 17.5q-145 0 -209.5 -48t-85.5 -126l-108 16q57 258 407 258q158 0 241 -52t118 -150q66 100 164 151t217 51q121 0 206 -39.5t138 -108.5t77.5 -163t24.5 -203v-75 h-798q0 -90 22.5 -169t67.5 -137.5t110.5 -92t151.5 -33.5q76 0 130 15t91 44t58.5 66.5t33.5 84.5h115q-25 -137 -130.5 -223t-297.5 -86q-80 0 -145.5 19.5t-115.5 53.5t-87 79t-60 94q-20 -37 -54 -79t-86 -78t-122 -58.5t-160 -22.5q-82 0 -149.5 20.5t-116.5 60.5 t-75.5 99.5t-26.5 137.5zM199 295q0 -96 55 -154.5t190 -58.5q68 0 129.5 15.5t104.5 49.5q37 27 60.5 51.5t36.5 54.5t19.5 66.5t6.5 86.5v155l-195 -8q-117 -4 -194.5 -21.5t-124.5 -49t-67.5 -78t-20.5 -109.5zM922 600h673q0 86 -18 157.5t-57 124t-100.5 81 t-147.5 28.5q-150 0 -240 -96t-110 -295z" />
<glyph unicode="&#xe7;" horiz-adv-x="1134" d="M111 522q0 129 34.5 233.5t98 178.5t154.5 113.5t206 39.5q174 0 277.5 -89t136.5 -250l-115 -29q-12 57 -34.5 106t-57.5 84t-87 55.5t-124 20.5q-96 0 -163.5 -35t-112.5 -95t-65.5 -144t-20.5 -183q0 -98 20.5 -182t63.5 -145.5t111.5 -96t164.5 -34.5 q154 0 224.5 74.5t95.5 199.5h118q-31 -178 -141.5 -277.5t-300.5 -99.5h-4l-25 -67q106 -12 144.5 -55.5t38.5 -100.5q0 -92 -68 -126t-178 -34q-29 0 -56.5 2t-56.5 6v93q31 -4 56.5 -6.5t54.5 -2.5q70 0 101.5 17.5t31.5 58.5q0 39 -35 55.5t-127 16.5h-25l52 151 q-186 29 -286.5 172.5t-100.5 374.5z" />
<glyph unicode="&#xe8;" horiz-adv-x="1146" d="M111 516q0 139 35.5 245.5t100 179.5t151.5 109.5t192 36.5q123 0 209 -39.5t140 -108.5t78.5 -163t24.5 -203v-75h-811q0 -90 22.5 -169t68 -137.5t113 -92t155.5 -33.5q80 0 135 15t92 44t58.5 66.5t33.5 84.5h115q-25 -137 -131.5 -223t-302.5 -86q-227 0 -353 146.5 t-126 402.5zM233 600h687q0 86 -18.5 157.5t-57.5 124t-102.5 81t-151.5 28.5q-154 0 -246 -96t-111 -295zM340 1483h159l228 -275h-127z" />
<glyph unicode="&#xe9;" horiz-adv-x="1146" d="M111 516q0 139 35.5 245.5t100 179.5t151.5 109.5t192 36.5q123 0 209 -39.5t140 -108.5t78.5 -163t24.5 -203v-75h-811q0 -90 22.5 -169t68 -137.5t113 -92t155.5 -33.5q80 0 135 15t92 44t58.5 66.5t33.5 84.5h115q-25 -137 -131.5 -223t-302.5 -86q-227 0 -353 146.5 t-126 402.5zM233 600h687q0 86 -18.5 157.5t-57.5 124t-102.5 81t-151.5 28.5q-154 0 -246 -96t-111 -295zM461 1208l227 275h160l-260 -275h-127z" />
<glyph unicode="&#xea;" horiz-adv-x="1146" d="M111 516q0 139 35.5 245.5t100 179.5t151.5 109.5t192 36.5q123 0 209 -39.5t140 -108.5t78.5 -163t24.5 -203v-75h-811q0 -90 22.5 -169t68 -137.5t113 -92t155.5 -33.5q80 0 135 15t92 44t58.5 66.5t33.5 84.5h115q-25 -137 -131.5 -223t-302.5 -86q-227 0 -353 146.5 t-126 402.5zM233 600h687q0 86 -18.5 157.5t-57.5 124t-102.5 81t-151.5 28.5q-154 0 -246 -96t-111 -295zM293 1208l232 275h116l230 -275h-121l-168 185l-168 -185h-121z" />
<glyph unicode="&#xeb;" horiz-adv-x="1146" d="M111 516q0 139 35.5 245.5t100 179.5t151.5 109.5t192 36.5q123 0 209 -39.5t140 -108.5t78.5 -163t24.5 -203v-75h-811q0 -90 22.5 -169t68 -137.5t113 -92t155.5 -33.5q80 0 135 15t92 44t58.5 66.5t33.5 84.5h115q-25 -137 -131.5 -223t-302.5 -86q-227 0 -353 146.5 t-126 402.5zM233 600h687q0 86 -18.5 157.5t-57.5 124t-102.5 81t-151.5 28.5q-154 0 -246 -96t-111 -295zM351 1268v174h133v-174h-133zM678 1268v174h135v-174h-135z" />
<glyph unicode="&#xec;" horiz-adv-x="417" d="M-96 1483h159l228 -275h-127zM150 0v1055h118v-1055h-118z" />
<glyph unicode="&#xed;" horiz-adv-x="417" d="M136 1208l227 275h160l-260 -275h-127zM150 0v1055h118v-1055h-118z" />
<glyph unicode="&#xee;" horiz-adv-x="417" d="M-78 1208l232 275h116l230 -275h-121l-168 185l-168 -185h-121zM150 0v1055h118v-1055h-118z" />
<glyph unicode="&#xef;" horiz-adv-x="417" d="M-20 1268v174h133v-174h-133zM150 0v1055h118v-1055h-118zM307 1268v174h135v-174h-135z" />
<glyph unicode="&#xf0;" horiz-adv-x="1214" d="M111 481q0 113 35.5 208t100 166t155 111t198.5 40q119 0 194.5 -34t145.5 -100q-31 152 -107.5 254.5t-193.5 163.5l-162 -160l-69 70l131 131q-117 41 -269 51l21 101q92 -8 174 -25.5t153 -46.5l136 133l69 -71l-110 -109q197 -113 294 -317.5t97 -489.5 q0 -137 -35 -246.5t-99.5 -185.5t-157.5 -117t-210 -41t-208 39t-153.5 107.5t-96 163t-33.5 204.5zM238 487q0 -80 20.5 -154.5t64.5 -133t114.5 -93t168.5 -34.5q100 0 170 33.5t115 92t65.5 133.5t20.5 158v39q0 152 -80 248q-53 66 -126 96.5t-175 30.5 q-94 0 -161.5 -34.5t-111.5 -93t-64.5 -133.5t-20.5 -155z" />
<glyph unicode="&#xf1;" horiz-adv-x="1142" d="M143 0v1055h119v-172q86 109 183.5 156.5t207.5 47.5q180 0 266.5 -100t86.5 -285v-702h-119v670q0 166 -59.5 238.5t-188.5 72.5q-61 0 -130 -23.5t-124 -74.5q-61 -53 -92 -109.5t-31 -155.5v-618h-119zM248 1241q0 100 51 156.5t140 56.5q55 0 94 -18.5t71.5 -40 t64.5 -40t71 -18.5q57 0 76.5 34t19.5 79h98q0 -100 -51 -156.5t-139 -56.5q-55 0 -94 18.5t-72 40t-64.5 40t-70.5 18.5q-57 0 -77 -34t-20 -79h-98z" />
<glyph unicode="&#xf2;" horiz-adv-x="1214" d="M111 522q0 129 35.5 233.5t100 178.5t157 113.5t206.5 39.5q115 0 207 -38.5t155.5 -111.5t97.5 -175.5t34 -226.5q0 -129 -35 -233.5t-99.5 -179.5t-157.5 -115t-210 -40t-208 39t-153.5 111.5t-96 175t-33.5 229.5zM238 528q0 -96 20.5 -180t64.5 -145.5t114.5 -97 t168.5 -35.5q100 0 170 35.5t115 97t65.5 145.5t20.5 182q0 94 -20.5 177.5t-65.5 144.5t-114.5 97t-170.5 36q-98 0 -168.5 -36t-114.5 -97t-64.5 -144t-20.5 -180zM363 1483h159l228 -275h-127z" />
<glyph unicode="&#xf3;" horiz-adv-x="1214" d="M111 522q0 129 35.5 233.5t100 178.5t157 113.5t206.5 39.5q115 0 207 -38.5t155.5 -111.5t97.5 -175.5t34 -226.5q0 -129 -35 -233.5t-99.5 -179.5t-157.5 -115t-210 -40t-208 39t-153.5 111.5t-96 175t-33.5 229.5zM238 528q0 -96 20.5 -180t64.5 -145.5t114.5 -97 t168.5 -35.5q100 0 170 35.5t115 97t65.5 145.5t20.5 182q0 94 -20.5 177.5t-65.5 144.5t-114.5 97t-170.5 36q-98 0 -168.5 -36t-114.5 -97t-64.5 -144t-20.5 -180zM496 1208l227 275h160l-260 -275h-127z" />
<glyph unicode="&#xf4;" horiz-adv-x="1214" d="M111 522q0 129 35.5 233.5t100 178.5t157 113.5t206.5 39.5q115 0 207 -38.5t155.5 -111.5t97.5 -175.5t34 -226.5q0 -129 -35 -233.5t-99.5 -179.5t-157.5 -115t-210 -40t-208 39t-153.5 111.5t-96 175t-33.5 229.5zM238 528q0 -96 20.5 -180t64.5 -145.5t114.5 -97 t168.5 -35.5q100 0 170 35.5t115 97t65.5 145.5t20.5 182q0 94 -20.5 177.5t-65.5 144.5t-114.5 97t-170.5 36q-98 0 -168.5 -36t-114.5 -97t-64.5 -144t-20.5 -180zM317 1208l232 275h116l230 -275h-121l-168 185l-168 -185h-121z" />
<glyph unicode="&#xf5;" horiz-adv-x="1214" d="M111 522q0 129 35.5 233.5t100 178.5t157 113.5t206.5 39.5q115 0 207 -38.5t155.5 -111.5t97.5 -175.5t34 -226.5q0 -129 -35 -233.5t-99.5 -179.5t-157.5 -115t-210 -40t-208 39t-153.5 111.5t-96 175t-33.5 229.5zM238 528q0 -96 20.5 -180t64.5 -145.5t114.5 -97 t168.5 -35.5q100 0 170 35.5t115 97t65.5 145.5t20.5 182q0 94 -20.5 177.5t-65.5 144.5t-114.5 97t-170.5 36q-98 0 -168.5 -36t-114.5 -97t-64.5 -144t-20.5 -180zM264 1241q0 100 51 156.5t140 56.5q55 0 94 -18.5t71.5 -40t64.5 -40t71 -18.5q57 0 76.5 34t19.5 79h98 q0 -100 -51 -156.5t-139 -56.5q-55 0 -94 18.5t-72 40t-64.5 40t-70.5 18.5q-57 0 -77 -34t-20 -79h-98z" />
<glyph unicode="&#xf6;" horiz-adv-x="1214" d="M111 522q0 129 35.5 233.5t100 178.5t157 113.5t206.5 39.5q115 0 207 -38.5t155.5 -111.5t97.5 -175.5t34 -226.5q0 -129 -35 -233.5t-99.5 -179.5t-157.5 -115t-210 -40t-208 39t-153.5 111.5t-96 175t-33.5 229.5zM238 528q0 -96 20.5 -180t64.5 -145.5t114.5 -97 t168.5 -35.5q100 0 170 35.5t115 97t65.5 145.5t20.5 182q0 94 -20.5 177.5t-65.5 144.5t-114.5 97t-170.5 36q-98 0 -168.5 -36t-114.5 -97t-64.5 -144t-20.5 -180zM375 1268v174h133v-174h-133zM702 1268v174h135v-174h-135z" />
<glyph unicode="&#xf7;" d="M166 641v113h881v-113h-881zM532 236v176h146v-176h-146zM532 981v176h146v-176h-146z" />
<glyph unicode="&#xf8;" horiz-adv-x="1214" d="M111 522q0 129 35.5 233.5t100 178.5t157 113.5t206.5 39.5q154 0 267 -71l90 135l84 -57l-95 -142q72 -72 110 -178t38 -239q0 -129 -35 -233.5t-99.5 -179.5t-157.5 -115t-210 -40q-152 0 -260 66l-90 -137l-84 57l94 141q-152 147 -151 428zM238 528q0 -100 21.5 -186 t68.5 -147l489 731q-84 59 -211 59q-98 0 -168.5 -36t-114.5 -97t-64.5 -144t-20.5 -180zM403 123q82 -53 203 -53q100 0 170 35.5t115 97t65.5 145.5t20.5 182q0 96 -20.5 179.5t-65.5 144.5z" />
<glyph unicode="&#xf9;" horiz-adv-x="1120" d="M139 352v703h119v-670q0 -166 52 -238.5t179 -72.5q63 0 127 24.5t121 73.5q59 53 90 109.5t31 154.5v619h119v-1055h-119v172q-166 -205 -383 -205q-180 0 -258 98.5t-78 286.5zM285 1483h159l228 -275h-127z" />
<glyph unicode="&#xfa;" horiz-adv-x="1120" d="M139 352v703h119v-670q0 -166 52 -238.5t179 -72.5q63 0 127 24.5t121 73.5q59 53 90 109.5t31 154.5v619h119v-1055h-119v172q-166 -205 -383 -205q-180 0 -258 98.5t-78 286.5zM451 1208l227 275h160l-260 -275h-127z" />
<glyph unicode="&#xfb;" horiz-adv-x="1120" d="M139 352v703h119v-670q0 -166 52 -238.5t179 -72.5q63 0 127 24.5t121 73.5q59 53 90 109.5t31 154.5v619h119v-1055h-119v172q-166 -205 -383 -205q-180 0 -258 98.5t-78 286.5zM272 1208l232 275h116l230 -275h-121l-168 185l-168 -185h-121z" />
<glyph unicode="&#xfc;" horiz-adv-x="1120" d="M139 352v703h119v-670q0 -166 52 -238.5t179 -72.5q63 0 127 24.5t121 73.5q59 53 90 109.5t31 154.5v619h119v-1055h-119v172q-166 -205 -383 -205q-180 0 -258 98.5t-78 286.5zM326 1268v174h133v-174h-133zM653 1268v174h135v-174h-135z" />
<glyph unicode="&#xfd;" horiz-adv-x="1019" d="M12 1055h138l382 -903l342 903h134l-480 -1194q-25 -59 -50 -107.5t-57 -82t-75 -51t-102 -17.5q-47 0 -79 5t-73 19l29 105q25 -10 52.5 -16.5t57.5 -6.5q37 0 61.5 8.5t45 30t38 55t40.5 86.5l49 125zM379 1208l227 275h160l-260 -275h-127z" />
<glyph unicode="&#xfe;" horiz-adv-x="1193" d="M143 -397v1859h119v-565q72 90 158 140t209 50q117 0 201.5 -41.5t141 -115.5t84 -174.5t27.5 -216.5q0 -135 -33.5 -240.5t-95 -179.5t-148.5 -113t-196 -39q-96 0 -185 39t-163 137v-540h-119zM258 485q0 -70 7 -122t24.5 -93t44 -72.5t65.5 -58.5q47 -37 96.5 -53 t112.5 -16q76 0 139.5 25.5t109.5 80.5t72.5 144.5t26.5 216.5q0 129 -29.5 215t-76.5 138t-106.5 73.5t-116.5 21.5q-63 0 -114.5 -14.5t-102.5 -52.5q-72 -53 -112 -134.5t-40 -205.5v-93z" />
<glyph unicode="&#xff;" horiz-adv-x="1019" d="M12 1055h138l382 -903l342 903h134l-480 -1194q-25 -59 -50 -107.5t-57 -82t-75 -51t-102 -17.5q-47 0 -79 5t-73 19l29 105q25 -10 52.5 -16.5t57.5 -6.5q37 0 61.5 8.5t45 30t38 55t40.5 86.5l49 125zM279 1268v174h133v-174h-133zM606 1268v174h135v-174h-135z" />
<glyph unicode="&#x131;" horiz-adv-x="417" d="M150 0v1055h118v-1055h-118z" />
<glyph unicode="&#x152;" horiz-adv-x="2217" d="M115 727q0 188 50 332.5t136 242t199.5 147.5t242.5 50q170 0 289 -70.5t207 -216.5v250h862v-112h-741v-537h700v-117h-700v-581h776l-29 -115h-868v262q-88 -147 -206 -223t-290 -76q-129 0 -243.5 48t-199.5 144.5t-135 240t-50 331.5zM246 731q0 -145 32.5 -267 t96 -210t155.5 -136t213 -48q117 0 209 48t155.5 136t97.5 210t34 267t-34 267t-98.5 209t-155.5 136.5t-208 49.5q-119 0 -212 -49.5t-156.5 -136.5t-96 -208.5t-32.5 -267.5z" />
<glyph unicode="&#x153;" horiz-adv-x="1992" d="M111 522q0 129 35.5 233.5t100 178.5t156 113.5t201.5 39.5q147 0 256 -68.5t166 -197.5q59 131 168 198.5t248 67.5q119 0 204 -39.5t139 -108.5t78.5 -163t24.5 -203v-75h-798q0 -90 22.5 -169t67.5 -137.5t110.5 -92t151.5 -33.5q76 0 130 15t91 44t58.5 66.5 t33.5 84.5h115q-25 -137 -130.5 -223t-297.5 -86q-156 0 -258.5 74t-157.5 203q-61 -135 -168.5 -206t-261.5 -71q-115 0 -204 39t-152.5 111.5t-96 175t-32.5 229.5zM238 528q0 -96 20.5 -180t64.5 -145.5t112.5 -97t164.5 -35.5q98 0 167 35.5t113 97t64.5 145.5t20.5 182 q0 94 -20.5 177.5t-64.5 144.5t-113 97t-167 36q-96 0 -164.5 -36t-112.5 -97t-64.5 -144t-20.5 -180zM1092 600h673q0 86 -18 157.5t-57 124t-100.5 81t-147.5 28.5q-150 0 -241 -96t-109 -295z" />
<glyph unicode="&#x178;" horiz-adv-x="1204" d="M31 1462h147l428 -723l436 723h132l-506 -829v-633h-125v633zM345 1628v178h137v-178h-137zM680 1628v178h140v-178h-140z" />
<glyph unicode="&#x192;" d="M-25 -326l31 99q63 -27 129 -27q45 0 79 8t56.5 30.5t39 61.5t28.5 101l190 977h-166l19 104h168l22 121q29 156 105 230.5t231 74.5q53 0 91 -9t71 -24l-31 -98q-29 12 -60.5 20.5t-72.5 8.5q-96 0 -144 -42t-71 -161l-22 -121h282l-20 -104h-283l-190 -977 q-14 -78 -38 -135.5t-62 -95.5t-92 -56t-132 -18q-47 0 -86 9t-72 23z" />
<glyph unicode="&#x2c6;" horiz-adv-x="776" d="M98 1208l232 275h116l230 -275h-121l-168 185l-168 -185h-121z" />
<glyph unicode="&#x2c7;" horiz-adv-x="776" d="M98 1487h121l168 -184l168 184h121l-232 -275h-116z" />
<glyph unicode="&#x2d8;" horiz-adv-x="776" d="M129 1475h98q0 -90 45 -135.5t115 -45.5q68 0 114 45t46 136h98q0 -127 -67.5 -198t-190.5 -71t-190.5 71t-67.5 198z" />
<glyph unicode="&#x2d9;" horiz-adv-x="776" d="M319 1266v178h136v-178h-136z" />
<glyph unicode="&#x2da;" horiz-adv-x="776" d="M195 1399q0 96 57 145t135 49q37 0 73 -12t62.5 -36.5t43 -61.5t16.5 -84q0 -49 -16.5 -85t-43 -59.5t-62.5 -36t-73 -12.5q-78 0 -135 48.5t-57 144.5zM285 1399q0 -57 27.5 -85t74.5 -28t74.5 27.5t27.5 85.5q0 57 -27.5 84.5t-74.5 27.5t-74.5 -27.5t-27.5 -84.5z" />
<glyph unicode="&#x2db;" horiz-adv-x="776" d="M258 -199q0 49 30.5 100.5t94.5 98.5h117q-125 -98 -125 -180q0 -47 27.5 -61.5t70.5 -14.5h16.5t24.5 2v-94q-16 -4 -30.5 -4h-24.5q-201 0 -201 153z" />
<glyph unicode="&#x2dc;" horiz-adv-x="776" d="M45 1241q0 100 51 156.5t140 56.5q55 0 94 -18.5t71.5 -40t64.5 -40t71 -18.5q57 0 76.5 34t19.5 79h98q0 -100 -51 -156.5t-139 -56.5q-55 0 -94 18.5t-72 40t-64.5 40t-70.5 18.5q-57 0 -77 -34t-20 -79h-98z" />
<glyph unicode="&#x2dd;" horiz-adv-x="776" d="M39 1208l211 275h156l-244 -275h-123zM369 1208l211 275h155l-246 -275h-120z" />
<glyph unicode="&#x3a9;" horiz-adv-x="1529" d="M96 0v113h332q-59 49 -110.5 115.5t-89.5 148.5t-59.5 176t-21.5 199q0 184 46.5 324.5t129.5 233.5t196.5 141t250.5 48q135 0 247.5 -46t193.5 -138t126 -230.5t45 -322.5q0 -205 -79.5 -373t-208.5 -276h348l-25 -113h-502v92q180 121 258 280.5t78 383.5 q0 145 -28.5 263t-89 199.5t-150.5 126t-213 44.5q-127 0 -220 -44.5t-153.5 -126t-89 -199.5t-28.5 -263q0 -221 80.5 -382t252.5 -282v-92h-516z" />
<glyph unicode="&#x3c0;" horiz-adv-x="1187" d="M33 952v103h1097v-103h-212v-690q0 -104 29.5 -144t88.5 -40q27 0 45.5 2t28.5 6l12 -96q-12 -4 -38.5 -9.5t-63.5 -5.5q-117 0 -169 72t-52 213v692h-445v-952h-118v952h-203z" />
<glyph unicode="&#x400;" horiz-adv-x="1204" d="M168 0v1462h919v-112h-794v-537h754v-117h-754v-581h829l-28 -115h-926zM398 1849h161l228 -264h-129z" />
<glyph unicode="&#x401;" horiz-adv-x="1204" d="M168 0v1462h919v-112h-794v-537h754v-117h-754v-581h829l-28 -115h-926zM394 1628v178h137v-178h-137zM729 1628v178h140v-178h-140z" />
<glyph unicode="&#x402;" horiz-adv-x="1552" d="M25 1352v110h1052v-110h-528v-523q78 33 178 51.5t199 18.5q160 0 263 -39t163.5 -101.5t83 -144.5t22.5 -168q0 -96 -28.5 -177t-94 -141t-175 -94t-269.5 -34h-92v109h114q223 0 320.5 80.5t97.5 252.5q0 82 -20.5 146.5t-68.5 109.5t-128 69t-201 24q-92 0 -187 -16.5 t-177 -49.5v-725h-123v1352h-401z" />
<glyph unicode="&#x403;" horiz-adv-x="1060" d="M168 0v1462h868v-112h-743v-1350h-125zM474 1585l227 264h162l-260 -264h-129z" />
<glyph unicode="&#x404;" horiz-adv-x="1466" d="M115 727q0 188 51 332.5t138 242t203 147.5t247 50q121 0 215 -30.5t162.5 -86t111.5 -132t66 -171.5l-119 -26q-41 166 -145.5 252t-290.5 86q-113 0 -204 -43t-155.5 -121t-103.5 -185.5t-47 -236.5h684v-109h-686q4 -137 39.5 -251.5t101.5 -196.5t160 -128t215 -46 q111 0 189.5 24.5t132 70.5t84 110.5t44.5 144.5h123q-29 -209 -174 -335t-399 -126q-143 0 -261 49t-203 146.5t-132 240t-47 328.5z" />
<glyph unicode="&#x405;" horiz-adv-x="1314" d="M92 383h123q33 -164 141.5 -236.5t323.5 -72.5q111 0 183.5 24.5t115.5 65.5t61.5 96t18.5 117q0 51 -11.5 97t-43 84t-91 66.5t-155.5 45.5l-183 30q-106 18 -189 47t-140.5 75t-87 116t-29.5 170t42 174t112.5 122t166 71.5t201.5 23.5q137 0 229.5 -29.5t152 -79 t92 -111.5t51.5 -126l-115 -33q-20 63 -48 113.5t-74 85.5t-115.5 53.5t-170.5 18.5q-113 0 -188.5 -21.5t-122.5 -59.5t-67.5 -90.5t-20.5 -111.5q0 -61 14.5 -106.5t49 -78t93 -55t146.5 -39.5l207 -36q111 -20 191.5 -53t134 -83.5t79 -120t25.5 -163.5q0 -84 -33 -159 t-97.5 -130t-160.5 -88t-225 -33q-119 0 -220.5 22.5t-178 73t-126 130t-61.5 194.5z" />
<glyph unicode="&#x406;" horiz-adv-x="460" d="M168 0v1462h125v-1462h-125z" />
<glyph unicode="&#x407;" horiz-adv-x="460" d="M-6 1628v178h137v-178h-137zM168 0v1462h125v-1462h-125zM329 1628v178h140v-178h-140z" />
<glyph unicode="&#x408;" horiz-adv-x="1179" d="M51 403h127q10 -70 34 -130t65.5 -104t107.5 -69.5t162 -25.5q197 0 273.5 106.5t76.5 302.5v979h125v-991q0 -256 -124 -382t-347 -126q-207 0 -339 106.5t-161 333.5z" />
<glyph unicode="&#x409;" horiz-adv-x="2213" d="M10 -10v114h25q72 0 133 30t111.5 110t89.5 221t67 366l78 631h719v-571h375q154 0 252 -37t156.5 -99.5t81 -143.5t22.5 -167q0 -90 -23.5 -170.5t-84 -141t-163 -96.5t-262.5 -36h-477v1352h-483l-72 -582q-29 -227 -76 -377.5t-112.5 -240t-148.5 -126t-181 -36.5h-27 zM1233 109h377q111 0 183.5 20.5t117.5 62t63.5 103t18.5 143.5q0 78 -17.5 141.5t-63.5 108.5t-129 69.5t-214 24.5h-336v-673z" />
<glyph unicode="&#x40a;" horiz-adv-x="2140" d="M168 0v1462h125v-624h747v624h125v-624h369q154 0 252 -37t156.5 -96.5t81 -134t22.5 -152.5q0 -84 -23.5 -159t-84 -133t-163 -92t-262.5 -34h-473v725h-747v-725h-125zM1165 109h371q111 0 183.5 20.5t117.5 59t63.5 95t18.5 128.5t-17.5 130t-62.5 100t-122 64.5 t-195 22.5h-357v-620z" />
<glyph unicode="&#x40b;" horiz-adv-x="1507" d="M25 1354v108h1022v-108h-527v-561q78 33 161 51t177 18q133 0 225.5 -29.5t148.5 -86t81.5 -140.5t25.5 -190v-416h-122v371q0 98 -16.5 169.5t-57.5 119t-113 71t-184 23.5q-86 0 -165 -16.5t-161 -49.5v-688h-125v1354h-370z" />
<glyph unicode="&#x40c;" horiz-adv-x="1265" d="M168 0v1462h123v-643h125q111 0 185.5 62.5t131.5 183.5l88 184q29 61 60.5 102.5t66.5 66t77 34.5t91 10q16 0 32.5 -2t31.5 -4q16 -4 30 -6l-12 -107q-10 2 -20 5q-10 2 -22.5 3t-29.5 1q-35 0 -62.5 -5.5t-52 -21.5t-47 -47t-46.5 -84l-93 -193q-80 -166 -198 -223 q59 -16 102 -59t102 -127l414 -592h-149l-348 502q-39 57 -72 95t-65.5 61.5t-71.5 33.5t-90 10h-158v-702h-123zM519 1585l227 264h162l-260 -264h-129z" />
<glyph unicode="&#x40d;" horiz-adv-x="1384" d="M168 0v1462h123v-1276l788 1276h138v-1462h-121v1278l-791 -1278h-137zM422 1849h161l228 -264h-129z" />
<glyph unicode="&#x40e;" horiz-adv-x="1144" d="M25 1462h143l446 -946l373 946h133l-458 -1106q-43 -104 -86.5 -179t-92.5 -123t-110.5 -69.5t-141.5 -21.5q-55 0 -102 12.5t-76 26.5l29 104q23 -10 63.5 -22t100.5 -12q45 0 80.5 13t66.5 41t59.5 72t57.5 107l41 88zM272 1854h98q4 -78 54.5 -129t146.5 -51t146.5 51 t54.5 129h98q0 -53 -19.5 -102.5t-57.5 -86t-94 -58t-130 -21.5t-130 21.5t-93 58t-55.5 86t-18.5 102.5z" />
<glyph unicode="&#x40f;" horiz-adv-x="1376" d="M168 0v1462h125v-1349h790v1349h125v-1462h-444v-354h-119v354h-477z" />
<glyph unicode="&#x410;" horiz-adv-x="1353" d="M25 0l579 1462h148l577 -1462h-135l-176 446h-688l-174 -446h-131zM375 561h598l-301 764z" />
<glyph unicode="&#x411;" horiz-adv-x="1271" d="M170 0v1462h852v-112h-729v-480h373q152 0 251 -35.5t157.5 -96t81 -140.5t22.5 -166q0 -90 -24 -169t-84 -137t-162.5 -92t-262.5 -34h-475zM293 109h375q111 0 183.5 19t117.5 59t63.5 99.5t18.5 139.5q0 76 -19.5 138.5t-68 106.5t-130 67.5t-206.5 23.5h-334v-653z " />
<glyph unicode="&#x412;" horiz-adv-x="1277" d="M168 0v1462h463q154 0 251 -28.5t154.5 -78.5t79 -115.5t21.5 -139.5q0 -111 -51.5 -193t-172.5 -133q78 -27 130.5 -64.5t84 -84.5t45 -101.5t13.5 -109.5q0 -86 -26.5 -162t-88 -132.5t-160 -88t-241.5 -31.5h-502zM291 111h375q117 0 191.5 20.5t118.5 58t61.5 92 t17.5 121.5q0 150 -90.5 228t-292.5 78h-381v-598zM291 821h358q190 0 277.5 68.5t87.5 204.5q0 135 -87 197.5t-300 62.5h-336v-533z" />
<glyph unicode="&#x413;" horiz-adv-x="1060" d="M168 0v1462h868v-112h-743v-1350h-125z" />
<glyph unicode="&#x414;" horiz-adv-x="1413" d="M0 113h106q113 98 195 352t127 704l29 293h780v-1349h129v-467h-119v354h-1128v-354h-119v467zM258 113h854v1239h-543l-24 -244q-20 -199 -49 -356.5t-65 -278.5t-80 -210t-93 -150z" />
<glyph unicode="&#x415;" horiz-adv-x="1204" d="M168 0v1462h919v-112h-794v-537h754v-117h-754v-581h829l-28 -115h-926z" />
<glyph unicode="&#x416;" horiz-adv-x="1990" d="M20 0l406 590q57 84 102 127t105 59q-66 29 -113 84t-82 139l-92 213q-20 47 -39.5 75t-42 42t-49.5 18.5t-59 4.5q-16 0 -31.5 -2t-26.5 -4q-14 -2 -24 -5l-13 107q14 2 33 6q14 4 32.5 6t35.5 2q49 0 90 -7t74.5 -27.5t63.5 -58.5t56 -101l89 -203 q53 -123 125.5 -184.5t183.5 -61.5h90v643h123v-643h88q111 0 185.5 60.5t129.5 183.5l84 184q57 125 127 170t170 45q16 0 32.5 -2t31.5 -4q16 -4 30 -6l-12 -107q-10 2 -20 5q-10 2 -22.5 3t-29.5 1q-35 0 -63.5 -5.5t-53 -21.5t-47 -48t-47.5 -85l-88 -195 q-39 -84 -88 -137t-108 -82q31 -8 55.5 -22.5t48 -37t48 -53t53.5 -73.5l409 -592h-149l-344 502q-39 57 -72 95t-65.5 61.5t-71.5 33.5t-90 10h-121v-702h-123v702h-127q-51 0 -90 -10t-73 -33.5t-66.5 -61.5t-71.5 -95l-344 -502h-142z" />
<glyph unicode="&#x417;" horiz-adv-x="1230" d="M92 358h119q23 -141 121 -213.5t284 -72.5q195 0 288 84t93 243q0 84 -24.5 142.5t-68.5 95.5t-106.5 53.5t-138.5 16.5h-237v112h237q133 0 220.5 73t87.5 224q0 135 -92.5 204t-253.5 69q-88 0 -153 -16.5t-112 -49.5t-78.5 -81t-52.5 -112l-116 21q14 61 50 123.5 t99.5 113t155.5 81t219 30.5q113 0 199 -29.5t143 -80t86 -117t29 -142.5q0 -117 -49.5 -209t-161.5 -145q123 -45 183 -141t60 -236q0 -94 -30.5 -174t-94 -138t-160 -91t-225.5 -33q-147 0 -245.5 37t-159 93.5t-86 127t-29.5 137.5z" />
<glyph unicode="&#x418;" horiz-adv-x="1384" d="M168 0v1462h123v-1276l788 1276h138v-1462h-121v1278l-791 -1278h-137z" />
<glyph unicode="&#x419;" horiz-adv-x="1384" d="M168 0v1462h123v-1276l788 1276h138v-1462h-121v1278l-791 -1278h-137zM391 1854h98q4 -78 54.5 -129t146.5 -51t146.5 51t54.5 129h98q0 -53 -19.5 -102.5t-57.5 -86t-94 -58t-130 -21.5t-130 21.5t-93 58t-55.5 86t-18.5 102.5z" />
<glyph unicode="&#x41a;" horiz-adv-x="1265" d="M168 0v1462h123v-643h125q111 0 185.5 62.5t131.5 183.5l88 184q29 61 60.5 102.5t66.5 66t77 34.5t91 10q16 0 32.5 -2t31.5 -4q16 -4 30 -6l-12 -107q-10 2 -20 5q-10 2 -22.5 3t-29.5 1q-35 0 -62.5 -5.5t-52 -21.5t-47 -47t-46.5 -84l-93 -193q-80 -166 -198 -223 q59 -16 102 -59t102 -127l414 -592h-149l-348 502q-39 57 -72 95t-65.5 61.5t-71.5 33.5t-90 10h-158v-702h-123z" />
<glyph unicode="&#x41b;" horiz-adv-x="1456" d="M10 -10v114h25q72 0 133 30t111.5 110t89.5 221t67 366l78 631h774v-1462h-125v1352h-536l-72 -582q-29 -227 -76 -377.5t-112.5 -240t-148.5 -126t-181 -36.5h-27z" />
<glyph unicode="&#x41c;" horiz-adv-x="1716" d="M168 0v1462h162l528 -1317l537 1317h153v-1462h-116v1253q-10 -18 -66 -157q-25 -59 -61.5 -150.5t-91 -223.5t-128 -310.5t-170.5 -411.5h-118l-512 1245v-1245h-117z" />
<glyph unicode="&#x41d;" horiz-adv-x="1411" d="M168 0v1462h125v-647h825v647h125v-1462h-125v698h-825v-698h-125z" />
<glyph unicode="&#x41e;" horiz-adv-x="1548" d="M115 727q0 188 50 332.5t139 242t210 147.5t262 50t262 -48t208 -144.5t137.5 -238.5t50.5 -331q0 -190 -49.5 -334.5t-136.5 -242t-208 -147.5t-264 -50q-141 0 -263 48t-210 144.5t-138 240t-50 331.5zM246 731q0 -145 32.5 -266t99 -208t166 -135t232.5 -48 q129 0 227.5 48t165 135t100.5 208t34 266t-35 266t-101.5 208t-165 135.5t-225.5 48.5q-133 0 -232.5 -48.5t-165 -135.5t-99 -207.5t-33.5 -266.5z" />
<glyph unicode="&#x41f;" horiz-adv-x="1388" d="M168 0v1462h1053v-1462h-125v1350h-803v-1350h-125z" />
<glyph unicode="&#x420;" horiz-adv-x="1267" d="M168 0v1462h471q160 0 262.5 -33.5t160.5 -91t80.5 -134.5t22.5 -163q0 -90 -23.5 -172t-83 -143t-161.5 -97t-262 -36h-344v-592h-123zM291 700h346q123 0 200.5 24t123 67t61.5 104t16 139q0 82 -18.5 141.5t-64.5 99.5t-123.5 59.5t-196.5 19.5h-344v-654z" />
<glyph unicode="&#x421;" horiz-adv-x="1452" d="M115 727q0 188 51 332.5t138 242t203 147.5t247 50q133 0 229 -34.5t162.5 -97t107.5 -148.5t66 -187l-119 -26q-23 90 -56.5 161.5t-85.5 120.5t-126 76t-178 27q-121 0 -215.5 -49.5t-160 -137.5t-100 -209t-34.5 -264q0 -145 33.5 -265t98 -208t161 -136t221.5 -48 q119 0 199.5 29.5t133 83t82 126t44.5 156.5h122q-14 -109 -56 -201t-113.5 -159.5t-174 -106.5t-237.5 -39q-143 0 -261 49t-203 146.5t-132 240t-47 328.5z" />
<glyph unicode="&#x422;" horiz-adv-x="1208" d="M35 1348v114h1139v-114h-506v-1348h-125v1348h-508z" />
<glyph unicode="&#x423;" horiz-adv-x="1144" d="M25 1462h143l446 -946l373 946h133l-458 -1106q-43 -104 -86.5 -179t-92.5 -123t-110.5 -69.5t-141.5 -21.5q-55 0 -102 12.5t-76 26.5l29 104q23 -10 63.5 -22t100.5 -12q45 0 80.5 13t66.5 41t59.5 72t57.5 107l41 88z" />
<glyph unicode="&#x424;" horiz-adv-x="1654" d="M104 768q0 135 46.5 241.5t131.5 182.5t206.5 118t275.5 48v166h125v-166q154 -6 275.5 -48t206.5 -117t131 -181.5t46 -241.5q0 -145 -50 -251.5t-138 -177.5t-209 -108.5t-262 -46.5v-186h-125v186q-141 8 -262 44t-209 107t-138.5 177.5t-50.5 253.5zM236 772 q0 -123 34.5 -211t102 -146.5t166 -89t225.5 -38.5v970q-139 -6 -238.5 -42.5t-164 -100t-95 -151t-30.5 -191.5zM889 287q127 8 225 38.5t166 89t102.5 147.5t34.5 212q0 211 -130 341t-398 142v-970z" />
<glyph unicode="&#x425;" horiz-adv-x="1255" d="M29 0l520 774l-479 688h149l408 -604l411 604h133l-477 -698l533 -764h-150l-461 674l-452 -674h-135z" />
<glyph unicode="&#x426;" horiz-adv-x="1349" d="M168 0v1462h125v-1349h756v1349h125v-1349h129v-467h-119v354h-1016z" />
<glyph unicode="&#x427;" horiz-adv-x="1263" d="M102 1055v407h123v-362q0 -98 18.5 -170t62.5 -119t121 -70.5t194 -23.5q184 0 350 65v680h125v-1462h-125v678q-78 -33 -171 -51.5t-192 -18.5q-137 0 -233 30t-156.5 86t-88.5 139t-28 192z" />
<glyph unicode="&#x428;" horiz-adv-x="1910" d="M168 0v1462h125v-1349h600v1349h125v-1349h600v1349h125v-1462h-1575z" />
<glyph unicode="&#x429;" horiz-adv-x="1918" d="M168 0v1462h125v-1349h600v1349h125v-1349h600v1349h125v-1349h129v-467h-119v354h-1585z" />
<glyph unicode="&#x42a;" horiz-adv-x="1417" d="M6 1350v112h432v-571h353q160 0 263 -37t163.5 -99.5t83 -143.5t22.5 -169q0 -96 -25.5 -177t-88 -139t-168 -92t-265.5 -34h-461v1350h-309zM438 109h361q111 0 187.5 19t122.5 60t66.5 102.5t20.5 147.5q0 82 -20.5 146.5t-68.5 108.5t-128 66.5t-201 22.5h-340v-673z " />
<glyph unicode="&#x42b;" horiz-adv-x="1687" d="M168 0v1462h123v-571h352q160 0 263.5 -37t163.5 -99.5t83 -143.5t23 -169q0 -96 -26 -177t-88.5 -139t-168 -92t-264.5 -34h-461zM291 109h360q111 0 187.5 19t123 60t67 102.5t20.5 147.5q0 82 -20.5 146.5t-69 108.5t-128 66.5t-200.5 22.5h-340v-673zM1395 0v1462 h125v-1462h-125z" />
<glyph unicode="&#x42c;" horiz-adv-x="1294" d="M168 0v1462h123v-571h377q160 0 263 -37t163.5 -99.5t83 -143.5t22.5 -169q0 -96 -25.5 -177t-88 -139t-168 -92t-265.5 -34h-485zM291 109h385q111 0 187.5 19t122.5 60t66.5 102.5t20.5 147.5q0 82 -20.5 146.5t-68.5 108.5t-128 66.5t-201 22.5h-364v-673z" />
<glyph unicode="&#x42d;" horiz-adv-x="1454" d="M137 424h121q12 -70 38 -133.5t77 -111.5t132 -76.5t208 -28.5q246 0 366.5 159.5t130.5 462.5h-684v109h684q-6 123 -38.5 230.5t-91 186t-143.5 124t-196 45.5q-188 0 -303.5 -78t-171.5 -260l-116 26q27 92 75.5 170t120.5 133.5t169 86t224 30.5q129 0 238.5 -49 t190.5 -143.5t126 -234.5t45 -320q0 -190 -44 -337t-124.5 -247t-193.5 -152.5t-250 -52.5q-166 0 -276.5 40t-177 105.5t-97.5 147.5t-39 168z" />
<glyph unicode="&#x42e;" horiz-adv-x="1984" d="M168 0v1462h125v-649h305q10 170 60.5 298t133 214t195.5 130t246 44q141 0 258 -48t202 -143.5t131 -237.5t46 -333q0 -193 -46 -337t-129 -241.5t-201 -146.5t-261 -49q-139 0 -255 46t-200 137.5t-132 229.5t-50 322h-303v-698h-125zM719 731q0 -147 30.5 -269 t93 -208t160 -133t230.5 -47q129 0 223 47t157.5 133t94.5 208t31 269t-32 268t-94.5 208t-157.5 134.5t-222 47.5q-133 0 -229.5 -47.5t-160 -134.5t-94 -207.5t-30.5 -268.5z" />
<glyph unicode="&#x42f;" horiz-adv-x="1325" d="M82 0l213 457q31 66 69.5 120t106.5 91l-27 10q-141 51 -203.5 145.5t-62.5 220.5q0 82 25.5 157t87 133.5t164 93t256.5 34.5h446v-1462h-123v639h-291q-127 0 -207.5 -59.5t-136.5 -182.5l-180 -397h-137zM305 1063q0 -154 98.5 -236t278.5 -82h352v609h-329 q-115 0 -191 -21.5t-123 -60.5t-66.5 -92.5t-19.5 -116.5z" />
<glyph unicode="&#x430;" horiz-adv-x="1077" d="M74 297q0 106 45 174t119.5 107.5t170 56t197.5 20.5l205 9v32q0 156 -60.5 228.5t-215.5 72.5q-76 0 -128.5 -12t-87 -35.5t-55 -55.5t-31.5 -71l-108 17q57 258 414 258q111 0 186.5 -27t121.5 -78t66.5 -123.5t20.5 -167.5v-702h-119v150q-27 -33 -63.5 -65 t-83.5 -56.5t-103.5 -39t-124.5 -14.5q-166 0 -266 82t-100 240zM199 299q0 -96 54 -156.5t189 -60.5q156 0 246 68q37 27 60.5 52t38 55t20.5 66.5t6 86.5v159l-195 -8q-119 -4 -198.5 -22.5t-128.5 -50t-70.5 -79t-21.5 -110.5z" />
<glyph unicode="&#x431;" horiz-adv-x="1196" d="M115 614q0 139 13 239.5t37.5 173.5t58.5 126t77 98q66 70 184.5 125.5t313.5 87.5l157 27l15 -100l-183 -33q-92 -16 -158.5 -37t-114.5 -43.5t-81 -47t-59 -50.5q-59 -63 -97 -171t-45 -243q68 109 168.5 173.5t239.5 64.5q100 0 182 -33t140.5 -97.5t90 -158.5 t31.5 -217q0 -117 -28.5 -214.5t-87 -169t-147.5 -111.5t-208 -40q-143 0 -239 53.5t-153.5 142.5t-82 207.5t-24.5 247.5zM252 535q0 -106 19.5 -192.5t63.5 -148t113.5 -95t167.5 -33.5q90 0 155 30.5t107 86t61 134t19 177.5q0 188 -76.5 297.5t-248.5 109.5 q-74 0 -141.5 -24.5t-118.5 -73.5q-53 -51 -87 -116.5t-34 -151.5z" />
<glyph unicode="&#x432;" horiz-adv-x="1091" d="M143 0v1067h432q121 0 198 -24.5t121 -63.5t60.5 -87t16.5 -95q0 -82 -36 -144.5t-124 -99.5q102 -29 148.5 -99.5t46.5 -152.5q0 -63 -20.5 -117.5t-69 -95.5t-124 -64.5t-186.5 -23.5h-463zM262 100h342q152 0 215.5 50.5t63.5 146.5q0 98 -70 150.5t-205 52.5h-346 v-400zM262 600h330q135 0 196.5 46t61.5 138t-65.5 137.5t-209.5 45.5h-313v-367z" />
<glyph unicode="&#x433;" horiz-adv-x="845" d="M143 0v1067h682v-106h-563v-961h-119z" />
<glyph unicode="&#x434;" horiz-adv-x="1120" d="M10 104h99q37 39 69.5 97.5t60 146.5t49 212t36.5 294l18 213h621v-963h120v-391h-108v287h-856v-287h-109v391zM246 104h598v861h-398l-16 -162q-14 -145 -32.5 -257t-41 -195t-50 -143.5t-60.5 -103.5z" />
<glyph unicode="&#x435;" horiz-adv-x="1146" d="M111 522q0 139 35.5 247t100 181.5t151.5 111.5t192 38q123 0 209 -41t140 -111.5t78.5 -165t24.5 -202.5v-76h-811q0 -90 22.5 -170t68 -139.5t113 -94t155.5 -34.5q80 0 135 15t92 44t58.5 66.5t33.5 84.5h115q-25 -137 -131.5 -223t-302.5 -86q-113 0 -202 39 t-150.5 110.5t-94 175t-32.5 230.5zM233 606h687q0 88 -18.5 162t-57.5 126t-102.5 81t-151.5 29q-154 0 -246 -98.5t-111 -299.5z" />
<glyph unicode="&#x436;" horiz-adv-x="1497" d="M20 0l295 428q35 47 66 77t72 46q-43 16 -77 53t-65 103l-75 163q-10 25 -20.5 43.5t-23 30.5t-30 18.5t-43.5 6.5q-12 0 -23.5 -1t-21.5 -3t-23 -4l-12 96l24 4q10 2 24.5 4t31.5 2q51 0 85 -10t58.5 -31.5t43 -54.5t38.5 -78l66 -145q39 -86 92 -123t133 -37h57v479 h115v-479h53q86 0 137.5 37t89.5 123l66 143q41 90 89 133t144 43q14 0 29 -2t25 -4l24 -4l-12 -96l-20 4t-22.5 3t-23.5 1q-61 0 -87.5 -30t-49.5 -83l-67 -149q-27 -59 -59.5 -94t-78.5 -60q41 -16 72 -47t66 -78l295 -428h-144l-270 395q-37 53 -77 77t-112 24h-67v-496 h-115v496h-71q-72 0 -114 -23.5t-79 -77.5l-270 -395h-138z" />
<glyph unicode="&#x437;" horiz-adv-x="1042" d="M72 289h114q23 -121 101 -171t225 -50q168 0 235.5 61t67.5 160q0 104 -70.5 161.5t-199.5 57.5h-211v98h219q121 0 181.5 53.5t60.5 143.5q0 96 -68 146t-209 50q-82 0 -136 -12t-90 -36.5t-58.5 -61.5t-38.5 -84l-105 22q14 57 44 106.5t80 86.5t126 58.5t182 21.5 q102 0 177 -22.5t123 -61.5t70.5 -90.5t22.5 -108.5q0 -94 -51 -158.5t-127 -95.5q98 -31 150.5 -101.5t52.5 -174.5q0 -66 -24.5 -124.5t-77 -101.5t-135 -68.5t-197.5 -25.5q-92 0 -169 18.5t-133.5 57.5t-90 99.5t-41.5 146.5z" />
<glyph unicode="&#x438;" horiz-adv-x="1130" d="M143 0v1067h115v-897l600 897h129v-1067h-115v897l-604 -897h-125z" />
<glyph unicode="&#x439;" horiz-adv-x="1130" d="M143 0v1067h115v-897l600 897h129v-1067h-115v897l-604 -897h-125zM256 1477h98q4 -78 54.5 -129t146.5 -51t146.5 51t54.5 129h98q0 -53 -19.5 -102.5t-57.5 -86t-94 -58t-130 -21.5t-130 21.5t-93 58t-55.5 86t-18.5 102.5z" />
<glyph unicode="&#x43a;" horiz-adv-x="980" d="M143 0v1067h119v-479h80q86 0 137 37t90 123l66 143q41 90 90 133t145 43q14 0 28.5 -2t25.5 -4l24 -4l-12 -96q-10 2 -21 4q-10 2 -22 3t-23 1q-61 0 -87.5 -30t-49.5 -83l-67 -149q-27 -59 -60 -94t-78 -60q41 -16 72 -47t66 -78l295 -428h-144l-270 395q-37 53 -77 77 t-112 24h-96v-496h-119z" />
<glyph unicode="&#x43b;" horiz-adv-x="1140" d="M0 -10v104h16q57 0 103.5 21.5t82.5 81t62.5 164t44.5 270.5l49 436h639v-1067h-118v965h-414l-49 -408q-18 -154 -50 -262.5t-79 -176t-112.5 -98t-151.5 -30.5h-23z" />
<glyph unicode="&#x43c;" horiz-adv-x="1409" d="M145 0v1067h164l389 -948l402 948h164v-1067h-115v918l-399 -918h-115l-375 901v-901h-115z" />
<glyph unicode="&#x43d;" horiz-adv-x="1159" d="M143 0v1067h119v-455h635v455h119v-1067h-119v508h-635v-508h-119z" />
<glyph unicode="&#x43e;" horiz-adv-x="1214" d="M111 528q0 129 35.5 233.5t100 180.5t157 117t206.5 41q115 0 207 -40t155.5 -114t97.5 -177t34 -228q0 -129 -35 -234.5t-99.5 -181.5t-157.5 -117t-210 -41t-208 40t-153.5 114t-96 177t-33.5 230zM238 535q0 -98 20.5 -183.5t64.5 -148t114.5 -98t168.5 -35.5 q100 0 170 35.5t115 98t65.5 147.5t20.5 186q0 96 -20.5 180t-65.5 146.5t-114.5 98t-170.5 35.5q-98 0 -168.5 -35.5t-114.5 -98t-64.5 -146.5t-20.5 -182z" />
<glyph unicode="&#x43f;" horiz-adv-x="1130" d="M143 0v1067h844v-1067h-119v961h-606v-961h-119z" />
<glyph unicode="&#x440;" horiz-adv-x="1193" d="M143 -397v1464h119v-158q72 90 158 140.5t209 50.5q117 0 201.5 -43t141 -118t84 -176t27.5 -218q0 -135 -33.5 -242.5t-95 -182.5t-148.5 -114t-196 -39q-96 0 -185 39t-163 137v-540h-119zM258 492q0 -70 7 -123.5t24.5 -94.5t44 -73.5t65.5 -61.5q49 -35 97.5 -52 t111.5 -17q76 0 139.5 25.5t109.5 81.5t72.5 146.5t26.5 219.5q0 131 -29.5 218t-76.5 139t-106.5 74.5t-116.5 22.5q-63 0 -114.5 -14t-102.5 -53q-72 -53 -112 -137t-40 -209v-92z" />
<glyph unicode="&#x441;" horiz-adv-x="1134" d="M111 528q0 129 34.5 234.5t98 180.5t154.5 116t206 41q174 0 277.5 -89t136.5 -251l-115 -29q-12 57 -34.5 106.5t-57.5 84t-87 55t-124 20.5q-96 0 -163.5 -34.5t-112.5 -96t-65.5 -146.5t-20.5 -185t20.5 -185.5t63.5 -148t111.5 -97t164.5 -34.5q154 0 224.5 74.5 t95.5 199.5h118q-31 -178 -141.5 -277.5t-300.5 -99.5q-115 0 -205 39t-151.5 111.5t-94 176t-32.5 234.5z" />
<glyph unicode="&#x442;" horiz-adv-x="921" d="M20 963v104h881v-104h-379v-963h-119v963h-383z" />
<glyph unicode="&#x443;" horiz-adv-x="1024" d="M12 1067h140l383 -915l346 915h131l-482 -1206q-47 -121 -112.5 -189.5t-171.5 -68.5q-66 0 -99.5 9t-66.5 21l29 105q25 -10 58.5 -19.5t65.5 -9.5q33 0 57.5 8.5t45 30t40 55t42.5 86.5l51 121z" />
<glyph unicode="&#x444;" horiz-adv-x="1515" d="M111 524q0 111 43 205t119.5 164t185 112t239.5 48v409h115v-409q156 -8 266.5 -49t182 -109t105.5 -161t34 -206q0 -115 -43 -208t-120 -162.5t-185.5 -110.5t-239.5 -47v-397h-115v399q-158 8 -269.5 47t-182 106.5t-103 161t-32.5 207.5zM238 535q0 -217 114.5 -320.5 t345.5 -114.5v852q-211 -14 -335.5 -119t-124.5 -298zM813 100q211 14 336 119.5t125 300.5q0 215 -117 318.5t-344 113.5v-852z" />
<glyph unicode="&#x445;" horiz-adv-x="983" d="M27 0l393 567l-359 500h140l293 -420l294 420h130l-351 -504l396 -563h-140l-334 479l-329 -479h-133z" />
<glyph unicode="&#x446;" horiz-adv-x="1114" d="M143 0v1067h119v-963h576v963h118v-963h121v-391h-108v287h-826z" />
<glyph unicode="&#x447;" horiz-adv-x="1021" d="M82 750v317h115v-276q0 -150 64.5 -219.5t221.5 -69.5q147 0 277 51v514h119v-1067h-119v453q-61 -25 -139 -39.5t-158 -14.5q-109 0 -181.5 29t-117.5 76t-63.5 110.5t-18.5 135.5z" />
<glyph unicode="&#x448;" horiz-adv-x="1603" d="M143 0v1067h119v-963h479v963h119v-963h481v963h119v-1067h-1317z" />
<glyph unicode="&#x449;" horiz-adv-x="1615" d="M143 0v1067h119v-963h479v963h119v-963h479v963h119v-963h121v-391h-109v287h-1327z" />
<glyph unicode="&#x44a;" horiz-adv-x="1140" d="M0 967v100h367v-420h352q94 0 162.5 -24.5t112.5 -67.5t64.5 -101.5t20.5 -127.5q0 -154 -99 -240t-282 -86h-450v967h-248zM367 100h344q127 0 185 56.5t58 160.5q0 113 -55 171.5t-203 58.5h-329v-447z" />
<glyph unicode="&#x44b;" horiz-adv-x="1384" d="M143 0v1067h119v-420h352q96 0 165 -24.5t112 -67.5t63.5 -101.5t20.5 -125.5q0 -145 -94.5 -236.5t-294.5 -91.5h-443zM262 100h340q133 0 190.5 57.5t57.5 161.5q0 111 -55.5 169.5t-202.5 58.5h-330v-447zM1122 0v1067h119v-1067h-119z" />
<glyph unicode="&#x44c;" horiz-adv-x="1060" d="M143 0v1067h119v-420h379q94 0 161.5 -24.5t111.5 -67.5t64.5 -101.5t20.5 -125.5q0 -145 -96 -236.5t-291 -91.5h-469zM262 100h361q133 0 192 54.5t59 164.5q0 53 -12 95.5t-40.5 72t-79 45t-126.5 15.5h-354v-447z" />
<glyph unicode="&#x44d;" horiz-adv-x="1124" d="M113 307h114q6 -49 25.5 -92t56.5 -76t96.5 -51t145.5 -18t148.5 32.5t103.5 89t62.5 134t25.5 168.5h-494v100h492q-14 193 -98 298t-238 105q-137 0 -209 -52t-113 -169l-110 25q41 135 147.5 217t288.5 82q113 0 199 -43t143 -118t86 -178.5t29 -225.5 q0 -121 -30 -224.5t-90 -180.5t-149.5 -120t-205.5 -43q-104 0 -182 28t-130.5 75t-80 108.5t-33.5 128.5z" />
<glyph unicode="&#x44e;" horiz-adv-x="1566" d="M143 0v1067h119v-477h244q8 117 44 211t97.5 160.5t146.5 102.5t189 36q113 0 201 -40t148.5 -113t92 -176t31.5 -230q0 -131 -32.5 -236.5t-94 -180.5t-150.5 -116t-204 -41q-109 0 -195 37t-145.5 104.5t-93 164t-37.5 216.5h-242v-489h-119zM627 535 q0 -98 19.5 -183.5t61.5 -148t108.5 -98t162.5 -35.5t162.5 35.5t108.5 98t60.5 148.5t18.5 185q0 96 -18.5 180t-60.5 146.5t-108.5 98t-162.5 35.5t-162.5 -35.5t-108.5 -98t-61.5 -146.5t-19.5 -182z" />
<glyph unicode="&#x44f;" horiz-adv-x="1087" d="M61 0l205 354q23 41 48.5 72t52.5 47q-14 2 -33 10q-100 35 -146.5 109t-46.5 172q0 57 18.5 112.5t64.5 97.5t122 67.5t193 25.5h405v-1067h-119v457h-198q-57 0 -94 -6.5t-65 -21.5t-49.5 -43t-45.5 -73l-174 -313h-138zM266 774q0 -115 64.5 -166t197.5 -51h297v410 h-280q-147 0 -213 -47.5t-66 -145.5z" />
<glyph unicode="&#x450;" horiz-adv-x="1146" d="M111 522q0 139 35.5 247t100 181.5t151.5 111.5t192 38q123 0 209 -41t140 -111.5t78.5 -165t24.5 -202.5v-76h-811q0 -90 22.5 -170t68 -139.5t113 -94t155.5 -34.5q80 0 135 15t92 44t58.5 66.5t33.5 84.5h115q-25 -137 -131.5 -223t-302.5 -86q-113 0 -202 39 t-150.5 110.5t-94 175t-32.5 230.5zM233 606h687q0 88 -18.5 162t-57.5 126t-102.5 81t-151.5 29q-154 0 -246 -98.5t-111 -299.5zM340 1483h159l228 -275h-127z" />
<glyph unicode="&#x451;" horiz-adv-x="1146" d="M111 522q0 139 35.5 247t100 181.5t151.5 111.5t192 38q123 0 209 -41t140 -111.5t78.5 -165t24.5 -202.5v-76h-811q0 -90 22.5 -170t68 -139.5t113 -94t155.5 -34.5q80 0 135 15t92 44t58.5 66.5t33.5 84.5h115q-25 -137 -131.5 -223t-302.5 -86q-113 0 -202 39 t-150.5 110.5t-94 175t-32.5 230.5zM233 606h687q0 88 -18.5 162t-57.5 126t-102.5 81t-151.5 29q-154 0 -246 -98.5t-111 -299.5zM342 1268v174h133v-174h-133zM669 1268v174h135v-174h-135z" />
<glyph unicode="&#x452;" horiz-adv-x="1187" d="M0 1202v90h188v170h119v-170h391v-90h-391v-362q86 109 183.5 156.5t207.5 47.5q180 0 266.5 -100t86.5 -285v-675q0 -72 -7.5 -137.5t-33 -115.5t-75.5 -81t-138 -31q-70 0 -112 9.5t-73 21.5l25 100q29 -10 63.5 -17t85.5 -7q84 0 115 51t31 135v715q0 166 -59.5 238.5 t-188.5 72.5q-61 0 -130 -23.5t-124 -74.5q-61 -53 -92 -109.5t-31 -155.5v-575h-119v1202h-188z" />
<glyph unicode="&#x453;" horiz-adv-x="845" d="M143 0v1067h682v-106h-563v-961h-119zM340 1208l227 275h160l-260 -275h-127z" />
<glyph unicode="&#x454;" horiz-adv-x="1124" d="M111 518q0 129 32.5 235.5t96 183.5t155.5 120t211 43q172 0 266.5 -79t131.5 -220l-111 -25q-12 47 -33.5 88t-56.5 71t-85 46t-122 16q-88 0 -152.5 -30.5t-108.5 -85t-68.5 -128t-30.5 -159.5h491v-100h-494q2 -92 24 -170t66 -134.5t111.5 -88t163.5 -31.5 q127 0 207 58t102 179h113q-25 -160 -139.5 -250t-288.5 -90q-119 0 -209 39t-150.5 111.5t-91 174t-30.5 226.5z" />
<glyph unicode="&#x455;" horiz-adv-x="1052" d="M90 293h117q23 -123 104.5 -174t233.5 -51q154 0 217 59t63 145q0 37 -8 69t-31.5 58.5t-67.5 45t-114 30.5l-129 21q-84 14 -150.5 35.5t-112.5 56.5t-69.5 86t-23.5 125q0 70 30.5 126t84 95t126 59.5t156.5 20.5q109 0 181.5 -21.5t118.5 -58.5t71.5 -86t40.5 -105 l-109 -22q-16 47 -37.5 83t-54.5 59.5t-82 35.5t-123 12q-82 0 -137 -16t-89 -43t-48.5 -61.5t-14.5 -71.5t8.5 -67.5t33 -54.5t68.5 -41t116 -30l162 -26q166 -29 247.5 -99.5t81.5 -216.5q0 -61 -25.5 -116.5t-75.5 -97.5t-126 -65.5t-174 -23.5q-96 0 -177 18.5 t-140.5 57.5t-96.5 100.5t-45 149.5z" />
<glyph unicode="&#x456;" horiz-adv-x="417" d="M141 1284v178h135v-178h-135zM150 0v1067h118v-1067h-118z" />
<glyph unicode="&#x457;" horiz-adv-x="417" d="M-23 1268v174h134v-174h-134zM150 0v1067h118v-1067h-118zM305 1268v174h135v-174h-135z" />
<glyph unicode="&#x458;" horiz-adv-x="417" d="M-170 -350l25 100q29 -10 63.5 -17t85.5 -7q84 0 115 51t31 135v1155h118v-1083q0 -72 -7 -137.5t-32.5 -115.5t-76 -81t-138.5 -31q-70 0 -111.5 9.5t-72.5 21.5zM141 1284v178h135v-178h-135z" />
<glyph unicode="&#x459;" horiz-adv-x="1714" d="M0 -10v104h16q57 0 103.5 21.5t82.5 81t62.5 164t44.5 270.5l49 436h596v-420h340q94 0 162 -24.5t112 -67.5t64.5 -101.5t20.5 -125.5q0 -145 -96.5 -236.5t-290.5 -91.5h-430v965h-371l-49 -408q-18 -154 -50 -262.5t-79 -176t-112.5 -98t-151.5 -30.5h-23zM954 100 h322q133 0 192.5 54.5t59.5 164.5q0 53 -12.5 95.5t-41 72t-78.5 45t-126 15.5h-316v-447z" />
<glyph unicode="&#x45a;" horiz-adv-x="1714" d="M143 0v1067h119v-430h574v430h118v-432h340q94 0 162 -23.5t112 -65.5t64.5 -99.5t20.5 -124.5q0 -147 -95.5 -234.5t-291.5 -87.5h-430v532h-574v-532h-119zM954 100h322q133 0 192.5 54.5t59.5 158.5q0 53 -12.5 94.5t-41 70t-78.5 43t-126 14.5h-316v-435z" />
<glyph unicode="&#x45b;" horiz-adv-x="1202" d="M0 1202v90h203v170h119v-170h432v-90h-432v-362q86 109 183 156.5t208 47.5q180 0 266 -100t86 -285v-659h-119v627q0 166 -59.5 238.5t-188.5 72.5q-61 0 -129.5 -23.5t-124.5 -74.5q-61 -53 -91.5 -109.5t-30.5 -155.5v-575h-119v1202h-203z" />
<glyph unicode="&#x45c;" horiz-adv-x="980" d="M143 0v1067h119v-479h80q86 0 137 37t90 123l66 143q41 90 90 133t145 43q14 0 28.5 -2t25.5 -4l24 -4l-12 -96q-10 2 -21 4q-10 2 -22 3t-23 1q-61 0 -87.5 -30t-49.5 -83l-67 -149q-27 -59 -60 -94t-78 -60q41 -16 72 -47t66 -78l295 -428h-144l-270 395q-37 53 -77 77 t-112 24h-96v-496h-119zM383 1208l227 275h160l-260 -275h-127z" />
<glyph unicode="&#x45d;" horiz-adv-x="1130" d="M143 0v1067h115v-897l600 897h129v-1067h-115v897l-604 -897h-125zM306 1483h159l228 -275h-127z" />
<glyph unicode="&#x45e;" horiz-adv-x="1024" d="M12 1067h140l383 -915l346 915h131l-482 -1206q-47 -121 -112.5 -189.5t-171.5 -68.5q-66 0 -99.5 9t-66.5 21l29 105q25 -10 58.5 -19.5t65.5 -9.5q33 0 57.5 8.5t45 30t40 55t42.5 86.5l51 121zM217 1477h98q4 -78 54.5 -129t146.5 -51t146.5 51t54.5 129h98 q0 -53 -19.5 -102.5t-57.5 -86t-94 -58t-130 -21.5t-130 21.5t-93 58t-55.5 86t-18.5 102.5z" />
<glyph unicode="&#x45f;" horiz-adv-x="1130" d="M143 0v1067h119v-961h606v961h119v-1067h-366v-287h-109v287h-369z" />
<glyph unicode="&#x462;" horiz-adv-x="1472" d="M25 1200v105h344v215h123v-215h505v-105h-505v-309h354q160 0 263 -37t163.5 -99.5t83 -143.5t22.5 -169q0 -96 -25.5 -177t-88 -139t-168 -92t-265.5 -34h-462v1200h-344zM492 109h362q111 0 187.5 19t122.5 60t66.5 102.5t20.5 147.5q0 82 -20.5 146.5t-68.5 108.5 t-128 66.5t-200 22.5h-342v-673z" />
<glyph unicode="&#x463;" horiz-adv-x="1210" d="M16 956v99h265v444h118v-444h455v-99h-455v-309h379q94 0 162 -24.5t112 -67.5t64.5 -101.5t20.5 -125.5q0 -145 -96.5 -236.5t-290.5 -91.5h-469v956h-265zM399 100h361q133 0 192.5 54.5t59.5 164.5q0 53 -12.5 95.5t-41 72t-79 45t-125.5 15.5h-355v-447z" />
<glyph unicode="&#x472;" horiz-adv-x="1548" d="M115 727q0 188 50 332.5t139 242t210 147.5t262 50t262 -48t208 -144.5t137.5 -238.5t50.5 -331q0 -190 -49.5 -334.5t-136.5 -242t-208 -147.5t-264 -50q-141 0 -263 48t-210 144.5t-138 240t-50 331.5zM246 707q2 -141 36.5 -257t100.5 -200t164 -130t229 -46 q119 0 212 42t159.5 117.5t104.5 183t48 236.5q-51 -31 -107.5 -48t-117.5 -17q-90 0 -165.5 31.5t-144.5 69.5t-137.5 70t-144.5 32q-66 0 -125 -21.5t-112 -62.5zM248 817q53 35 113.5 56.5t130.5 21.5q88 0 162.5 -32t143 -69.5t138.5 -69.5t147 -32q57 0 112.5 18.5 t107.5 51.5q-4 139 -40 253.5t-103.5 197.5t-164 129.5t-219.5 46.5t-217 -42t-159.5 -117t-104.5 -180.5t-47 -232.5z" />
<glyph unicode="&#x473;" horiz-adv-x="1214" d="M111 528q0 129 35.5 233.5t100 180.5t157 117t206.5 41q115 0 207 -40t155.5 -114t97.5 -177t34 -228q0 -129 -35 -234.5t-99.5 -181.5t-157.5 -117t-210 -41t-208 40t-153.5 114t-96 177t-33.5 230zM231 516q2 -96 25 -177t68 -141.5t115.5 -94t166.5 -33.5 q90 0 156.5 28.5t112 79.5t71 123t33.5 156q-76 -41 -164 -41q-61 0 -113.5 22.5t-100.5 50t-97 50t-107 22.5q-90 0 -166 -45zM233 614q39 20 81 31.5t87 11.5q70 0 123.5 -22.5t100.5 -49t93 -49t101 -22.5q47 0 86 10.5t78 32.5q-2 94 -24.5 174t-68.5 139.5t-117 93 t-167 33.5q-90 0 -155.5 -28.5t-111.5 -79.5t-71.5 -122t-34.5 -153z" />
<glyph unicode="&#x474;" horiz-adv-x="1513" d="M29 1462h143l496 -1321l391 1104q25 68 56.5 114t69.5 73.5t82 39t91 11.5q117 0 196 -66l-53 -96q-35 27 -66.5 39t-72.5 12q-70 0 -114 -39t-81 -141l-434 -1192h-135z" />
<glyph unicode="&#x475;" horiz-adv-x="1159" d="M12 1067h138l358 -938l280 772q68 186 242 186q53 0 90 -12t72 -41l-49 -92q-29 20 -51.5 27.5t-53.5 7.5q-55 0 -86.5 -27.5t-60.5 -105.5l-313 -844h-140z" />
<glyph unicode="&#x48a;" horiz-adv-x="1380" d="M168 0v1462h123v-1276l788 1276h138v-1349h116q0 -88 -18.5 -163t-51 -135.5t-74.5 -107.5t-91 -80l-72 90q66 51 111 121t63 162h-104v1278l-791 -1278h-137zM391 1853h98q4 -78 54.5 -129t146.5 -51t146.5 51.5t54.5 128.5h98q0 -53 -19.5 -102t-57.5 -86t-94 -58.5 t-130 -21.5t-130 21.5t-93 58.5t-55.5 86t-18.5 102z" />
<glyph unicode="&#x48b;" horiz-adv-x="1132" d="M145 0v1067h115v-897l600 897h129v-963h107q0 -84 -15.5 -145t-42 -107.5t-62.5 -81t-77 -61.5l-57 78q111 86 137 213h-105v897l-604 -897h-125zM256 1475h98q4 -78 54.5 -129.5t146.5 -51.5t146.5 51.5t54.5 129.5h98q0 -53 -19.5 -102.5t-57.5 -86.5t-94 -58.5 t-130 -21.5t-130 21.5t-93 58.5t-55.5 86t-18.5 103z" />
<glyph unicode="&#x48c;" horiz-adv-x="1290" d="M20 1145v104h168v213h123v-213h400v-104h-400v-275h371q154 0 253 -35.5t157.5 -96t81 -140.5t22.5 -166q0 -90 -23.5 -169t-84 -137t-164 -92t-262.5 -34h-474v1145h-168zM311 109h373q106 0 180 19t120 58t65.5 98.5t19.5 141.5q0 80 -18.5 142.5t-66.5 105.5 t-131 65.5t-210 22.5h-332v-653z" />
<glyph unicode="&#x48d;" horiz-adv-x="1142" d="M20 831v99h207v157h117v-157h397v-99h-397v-194h379q94 0 161.5 -23.5t111.5 -65.5t64.5 -99.5t20.5 -122.5q0 -141 -96 -233.5t-291 -92.5h-467v831h-207zM344 100h361q133 0 192 55.5t59 166.5q0 51 -12 92t-41 68.5t-79 42t-126 14.5h-354v-439z" />
<glyph unicode="&#x48e;" horiz-adv-x="1267" d="M168 0v1462h471q160 0 262.5 -33.5t160.5 -91t80.5 -134.5t22.5 -163q0 -63 -11 -122.5t-37.5 -110.5t-71 -93t-109.5 -71l115 -180l-90 -57l-132 204q-84 -18 -194 -18h-344v-592h-123zM291 700h346q37 0 69.5 2.5t61.5 6.5l-147 235l90 57l166 -264q96 39 128.5 115 t32.5 182q0 82 -18.5 141.5t-64.5 99.5t-123.5 59.5t-196.5 19.5h-344v-654z" />
<glyph unicode="&#x48f;" horiz-adv-x="1193" d="M143 -397v1464h119v-158q72 90 158 140.5t209 50.5q117 0 201.5 -43t141 -118t84 -176t27.5 -218q0 -172 -51 -296t-145 -196l123 -192l-84 -54l-125 197q-86 -37 -191 -37q-96 0 -185 39t-163 137v-540h-119zM258 492q0 -70 7 -123.5t24.5 -95.5t44 -74.5t65.5 -59.5 q47 -37 96.5 -53t112.5 -16q74 0 135 24l-157 252l84 51l157 -252q59 53 94 150.5t35 247.5q0 131 -29.5 218t-76.5 139t-106.5 74.5t-116.5 22.5q-63 0 -114.5 -14t-102.5 -53q-72 -53 -112 -137t-40 -209v-92z" />
<glyph unicode="&#x490;" horiz-adv-x="1060" d="M168 0v1462h750v203h118v-315h-743v-1350h-125z" />
<glyph unicode="&#x491;" horiz-adv-x="845" d="M143 0v1067h574v174h108v-280h-563v-961h-119z" />
<glyph unicode="&#x492;" horiz-adv-x="1101" d="M20 694v113h189v655h868v-112h-743v-543h448v-113h-448v-694h-125v694h-189z" />
<glyph unicode="&#x493;" horiz-adv-x="886" d="M39 496v102h145v469h682v-106h-563v-363h344v-102h-344v-496h-119v496h-145z" />
<glyph unicode="&#x494;" horiz-adv-x="1277" d="M168 0v1462h809v-112h-686v-521q78 33 171 51.5t191 18.5q156 0 258.5 -50t163 -135t85 -196.5t24.5 -232.5q0 -127 -31 -237.5t-99.5 -194.5t-179 -132.5t-270.5 -48.5h-80v109h103q223 0 326.5 134t103.5 366q0 119 -21.5 214t-71 160.5t-128 100.5t-195.5 35 q-184 0 -350 -66v-725h-123z" />
<glyph unicode="&#x495;" horiz-adv-x="1048" d="M143 0v1067h699v-106h-580v-386q68 29 137.5 44.5t147.5 15.5q127 0 211 -40t135 -109.5t71.5 -163t20.5 -199.5q0 -111 -26.5 -208t-86 -170t-152.5 -116t-226 -43h-70v101h82q184 0 269 115.5t85 316.5q0 209 -70.5 311t-252.5 102q-72 0 -137.5 -14t-137.5 -43v-475 h-119z" />
<glyph unicode="&#x496;" horiz-adv-x="2054" d="M20 0l406 590q57 84 102.5 127t104.5 59q-66 29 -113 84t-82 139l-92 213q-20 47 -39.5 75t-42 42t-49.5 18.5t-59 4.5q-16 0 -31.5 -2t-26.5 -4q-14 -2 -24 -5l-13 107q14 2 33 6q14 4 32.5 6t35.5 2q49 0 90 -7t74.5 -27.5t63.5 -58.5t56 -101l89 -203 q53 -123 125.5 -184.5t183.5 -61.5h90v643h123v-643h88q111 0 185.5 60.5t129.5 183.5l84 184q57 125 127 170t170 45q16 0 32.5 -2t31.5 -4q16 -4 30 -6l-12 -107q-10 2 -20 5q-10 2 -22.5 3t-29.5 1q-35 0 -63.5 -5.5t-53 -21.5t-47 -48t-47.5 -85l-88 -195 q-39 -84 -88 -137t-108 -82q31 -8 55.5 -22.5t48 -37t48 -53t53.5 -73.5l331 -479h115v-467h-119v354h-67l-344 502q-39 57 -72 95t-65.5 61.5t-71.5 33.5t-90 10h-121v-702h-123v702h-127q-51 0 -90 -10t-73 -33.5t-66.5 -61.5t-71.5 -95l-344 -502h-142z" />
<glyph unicode="&#x497;" horiz-adv-x="1546" d="M20 0l295 428q35 47 66 77t72 46q-43 16 -78 53t-64 103l-73 159q-23 51 -44.5 77t-74.5 26q-12 0 -23.5 -1t-21.5 -3t-23 -4l-12 96l24 4q10 2 24.5 4t31.5 2q51 0 85 -10t58.5 -31.5t43 -54.5t38.5 -78l66 -145q39 -86 92 -123t133 -37h57v479h115v-479h53 q86 0 137.5 37t89.5 123l66 143q41 90 89 133t144 43q14 0 29 -2t25 -4l24 -4l-12 -96l-20 4t-22.5 3t-23.5 1q-61 0 -87.5 -30t-49.5 -83l-67 -149q-27 -59 -59.5 -94t-78.5 -60q41 -16 72 -47t66 -78l223 -324h104v-391h-108v287h-68l-270 395q-37 53 -77 77t-112 24h-67 v-496h-115v496h-71q-72 0 -114 -23.5t-79 -77.5l-270 -395h-138z" />
<glyph unicode="&#x498;" horiz-adv-x="1230" d="M92 358h119q23 -141 121 -213.5t284 -72.5q195 0 288 84t93 243q0 84 -24.5 142.5t-68.5 95.5t-106.5 53.5t-138.5 16.5h-237v112h237q133 0 220.5 73t87.5 224q0 135 -92.5 204t-253.5 69q-88 0 -153 -16.5t-112 -49.5t-78.5 -81t-52.5 -112l-116 21q14 61 50 123.5 t99.5 113t155.5 81t219 30.5q113 0 199 -29.5t143 -80t86 -117t29 -142.5q0 -117 -49.5 -209t-161.5 -145q123 -45 183 -141t60 -236q0 -88 -27.5 -163.5t-83 -133t-140.5 -93.5t-197 -44l-31 -80q111 -12 149.5 -58t38.5 -106q0 -47 -18 -79.5t-52 -52t-81 -27.5t-102 -8 q-31 0 -58.5 2t-58.5 6v94q33 -4 58.5 -6t55.5 -2q137 0 138 82q0 41 -37 59t-129 18h-27l55 156q-137 6 -228 44t-146.5 94.5t-80 124t-28.5 132.5z" />
<glyph unicode="&#x499;" horiz-adv-x="1042" d="M72 289h114q23 -121 101 -171t225 -50q168 0 235.5 61t67.5 160q0 104 -70.5 161.5t-199.5 57.5h-211v98h219q121 0 181.5 53.5t60.5 143.5q0 96 -68 146t-209 50q-82 0 -136 -12t-90 -36.5t-58.5 -61.5t-38.5 -84l-105 22q14 57 44 106.5t80 86.5t126 58.5t182 21.5 q102 0 177 -22.5t123 -61.5t70.5 -90.5t22.5 -108.5q0 -94 -51 -158.5t-127 -95.5q98 -31 150.5 -101.5t52.5 -174.5q0 -63 -22.5 -119.5t-70.5 -99.5t-124 -69t-180 -30l-25 -69q106 -12 144 -55.5t38 -100.5q0 -92 -67.5 -126t-177.5 -34q-29 0 -56.5 2t-56.5 6v93 q31 -4 56.5 -6.5t54.5 -2.5q70 0 101.5 17.5t31.5 58.5q0 39 -35 55.5t-127 16.5h-25l50 145q-162 10 -262.5 85t-114.5 235z" />
<glyph unicode="&#x49a;" horiz-adv-x="1331" d="M168 0v1462h123v-643h125q111 0 185.5 62.5t131.5 183.5l88 184q29 61 60.5 102.5t66.5 66t77 34.5t91 10q16 0 32.5 -2t31.5 -4q16 -4 30 -6l-12 -107q-10 2 -20 5q-10 2 -22.5 3t-29.5 1q-35 0 -62.5 -5.5t-52 -21.5t-47 -47t-46.5 -84l-93 -193q-80 -166 -198 -223 q59 -16 102 -59t102 -127l334 -479h119v-467h-119v354h-69l-348 502q-39 57 -72 95t-65.5 61.5t-71.5 33.5t-90 10h-158v-702h-123z" />
<glyph unicode="&#x49b;" horiz-adv-x="1030" d="M143 0v1067h119v-479h80q86 0 137 37t90 123l66 143q41 90 90 133t145 43q14 0 28.5 -2t25.5 -4l24 -4l-12 -96q-10 2 -21 4q-10 2 -22 3t-23 1q-61 0 -87.5 -30t-49.5 -83l-67 -149q-27 -59 -60 -94t-78 -60q41 -16 72 -47t66 -78l223 -324h104v-391h-108v287h-68 l-270 395q-37 53 -77 77t-112 24h-96v-496h-119z" />
<glyph unicode="&#x49c;" horiz-adv-x="1306" d="M168 0v1462h123v-643h158v281h104v-266q72 23 124 81t97 150l88 184q29 61 60.5 102.5t66.5 66t77 34.5t91 10q16 0 32.5 -2t31.5 -4q16 -4 30 -6l-12 -107q-10 2 -20 5q-10 2 -22.5 3t-29.5 1q-35 0 -62.5 -5.5t-52 -21.5t-47 -47t-47.5 -84l-92 -193 q-80 -166 -198 -223q59 -16 102 -59t102 -127l414 -592h-149l-349 502q-66 94 -115.5 139t-119.5 57v-254h-104v258h-158v-702h-123z" />
<glyph unicode="&#x49d;" horiz-adv-x="1032" d="M143 0v1067h119v-479h119v221h90v-211q49 14 85 50t65 100l65 143q41 90 90 133t146 43q14 0 28.5 -2t24.5 -4l24 -4l-12 -96l-20 4t-22.5 3t-22.5 1q-61 0 -88 -30t-50 -83l-67 -149q-27 -59 -59.5 -94t-77.5 -60q41 -16 71.5 -47t65.5 -78l295 -428h-144l-270 395 q-29 39 -57.5 61.5t-69.5 32.5v-208h-90v215h-119v-496h-119z" />
<glyph unicode="&#x49e;" horiz-adv-x="1306" d="M41 1100v108h168v254h123v-254h225v-108h-225v-281h125q111 0 185.5 62.5t131.5 183.5l88 184q29 61 60.5 102.5t66.5 66t77 34.5t91 10q16 0 32.5 -2t31.5 -4q16 -4 30 -6l-12 -107q-10 2 -20 5q-10 2 -22.5 3t-29.5 1q-35 0 -62.5 -5.5t-52 -21.5t-47 -47t-47.5 -84 l-92 -193q-80 -166 -198 -223q59 -16 102 -59t102 -127l414 -592h-149l-349 502q-39 57 -71.5 95t-65.5 61.5t-71.5 33.5t-90.5 10h-157v-702h-123v1100h-168z" />
<glyph unicode="&#x49f;" horiz-adv-x="1036" d="M53 801v96h146v170h118v-170h195v-96h-195v-213h80q86 0 137.5 37t90.5 123l65 143q41 90 90 133t146 43q14 0 28.5 -2t24.5 -4q12 -2 25 -4l-13 -96l-20 4t-22.5 3t-22.5 1q-61 0 -88 -30t-50 -83l-67 -149q-27 -59 -59.5 -94t-77.5 -60q41 -16 71.5 -47t65.5 -78 l295 -428h-144l-270 395q-37 53 -77 77t-111 24h-97v-496h-118v801h-146z" />
<glyph unicode="&#x4a0;" horiz-adv-x="1404" d="M25 1352v110h405v-643h125q111 0 185.5 62.5t131.5 183.5l89 184q29 61 60.5 102.5t66 66t76.5 34.5t91 10q16 0 33 -2t31 -4q16 -4 31 -6l-13 -107q-10 2 -20 5q-10 2 -22.5 3t-28.5 1q-35 0 -62.5 -5.5t-52.5 -21.5t-47.5 -47t-46.5 -84l-92 -193q-80 -166 -199 -223 q59 -16 102 -59t103 -127l413 -592h-149l-348 502q-39 57 -72 95t-65.5 61.5t-71.5 33.5t-90 10h-158v-702h-123v1352h-282z" />
<glyph unicode="&#x4a1;" horiz-adv-x="1093" d="M20 965v102h355v-479h80q86 0 137 37t90 123l66 143q41 90 90 133t145 43q14 0 28.5 -2t24.5 -4q12 -2 25 -4l-12 -96q-10 2 -21 4q-10 2 -22.5 3t-22.5 1q-61 0 -88 -30t-49 -83l-68 -149q-27 -59 -59.5 -94t-77.5 -60q41 -16 71.5 -47t65.5 -78l295 -428h-143l-271 395 q-37 53 -76.5 77t-111.5 24h-96v-496h-119v965h-236z" />
<glyph unicode="&#x4a2;" horiz-adv-x="1419" d="M168 0v1462h125v-647h825v647h125v-1349h129v-467h-119v354h-135v698h-825v-698h-125z" />
<glyph unicode="&#x4a3;" horiz-adv-x="1173" d="M143 0v1067h119v-455h635v455h119v-963h121v-391h-109v287h-131v508h-635v-508h-119z" />
<glyph unicode="&#x4a4;" horiz-adv-x="1546" d="M168 0v1462h125v-647h825v647h406v-110h-281v-1352h-125v698h-825v-698h-125z" />
<glyph unicode="&#x4a5;" horiz-adv-x="1269" d="M143 0v1067h119v-455h635v455h354v-102h-235v-965h-119v508h-635v-508h-119z" />
<glyph unicode="&#x4a6;" horiz-adv-x="2172" d="M168 0v1462h1018v-633q78 33 171 51.5t191 18.5q156 0 258.5 -50t163 -135t85 -196.5t24.5 -232.5q0 -127 -31 -237.5t-99.5 -194.5t-179 -132.5t-270.5 -48.5h-80v109h103q223 0 326.5 134t103.5 366q0 119 -21.5 214t-71 160.5t-128 100.5t-195.5 35q-184 0 -350 -66 v-725h-127v1350h-766v-1350h-125z" />
<glyph unicode="&#x4a7;" horiz-adv-x="1761" d="M143 0v1067h828v-492q68 29 137.5 44.5t146.5 15.5q127 0 211 -40t135.5 -109.5t72 -163t20.5 -199.5q0 -111 -27 -208t-86 -170t-152.5 -116t-226.5 -43h-69v101h81q184 0 269.5 115.5t85.5 316.5q0 209 -71 311t-253 102q-72 0 -137.5 -14t-136.5 -43v-475h-119v961 h-590v-961h-119z" />
<glyph unicode="&#x4a8;" horiz-adv-x="1673" d="M115 735q0 180 51 322.5t139 241t208 149.5t257 51q80 0 144.5 -13t117.5 -38l-39 -109q-55 25 -104 37.5t-119 12.5q-119 0 -216 -44.5t-166 -127t-106.5 -200.5t-37.5 -267q0 -324 151.5 -502t431.5 -178q53 0 103.5 6t75.5 14q-123 90 -192 237.5t-69 344.5 q0 123 30 224t84 174t132 113t176 40q86 0 158 -32t124 -96.5t81 -164t29 -234.5q0 -205 -89.5 -361.5t-226.5 -252.5q31 -8 70 -12t88 -4q53 0 102 8t92 22l19 -100q-61 -20 -124 -26.5t-120 -6.5q-70 0 -135.5 15.5t-116.5 39.5q-25 -12 -59.5 -21t-74.5 -17.5t-81 -12.5 t-78 -4q-197 0 -332 64.5t-220 172t-121.5 247t-36.5 288.5zM868 674q0 -188 65.5 -332.5t194.5 -212.5q68 33 124.5 89t97.5 130t63.5 160t22.5 180q0 225 -69 327.5t-204 102.5q-143 0 -219 -116.5t-76 -327.5z" />
<glyph unicode="&#x4a9;" horiz-adv-x="1282" d="M111 528q0 133 35.5 238.5t100 179.5t153.5 114t196 40q104 0 180 -35l-35 -98q-68 31 -151 30q-76 0 -140.5 -28.5t-112.5 -86t-76 -143.5t-28 -200q0 -119 30 -208t82 -148.5t126 -89.5t160 -30q55 0 104 7q-78 63 -125 165.5t-47 243.5q0 82 19.5 154t58.5 126 t98.5 84.5t137.5 30.5q68 0 123 -27.5t95 -78.5t61.5 -123t21.5 -160q0 -72 -18.5 -137t-49.5 -119.5t-72 -97.5t-86 -70q10 -4 36 -5t46 -1q35 0 64.5 4t52.5 11q25 8 47 16l23 -84q-20 -12 -50 -20q-25 -8 -62.5 -13.5t-88.5 -5.5q-45 0 -97.5 8.5t-86.5 24.5 q-53 -16 -107.5 -22.5t-116.5 -6.5q-123 0 -217 43t-157.5 118t-95 177.5t-31.5 222.5zM680 477q0 -129 46 -230.5t122 -146.5q41 18 79 48t67.5 76t48 108.5t18.5 144.5q0 145 -44 223t-143 78q-100 0 -147 -83t-47 -218z" />
<glyph unicode="&#x4aa;" horiz-adv-x="1452" d="M115 727q0 188 51 332.5t138 242t203 147.5t247 50q133 0 229 -34.5t162.5 -97t107.5 -148.5t66 -187l-119 -26q-23 90 -56.5 161.5t-85.5 120.5t-126 76t-178 27q-121 0 -215.5 -49.5t-160 -137.5t-100 -209t-34.5 -264q0 -145 33.5 -265t98 -208t161 -136t221.5 -48 q119 0 199.5 29.5t133 83t82 126t44.5 156.5h122q-14 -104 -54 -195.5t-108.5 -159t-165 -107.5t-225.5 -44l-28 -78q111 -12 149.5 -58t38.5 -106q0 -47 -18.5 -79.5t-52 -52t-80.5 -27.5t-103 -8q-31 0 -58.5 2t-58.5 6v94q33 -4 58.5 -6t56.5 -2q137 0 137 82 q0 41 -36.5 59t-128.5 18h-27l55 160q-129 10 -235.5 64.5t-181 151t-116.5 232.5t-42 312z" />
<glyph unicode="&#x4ab;" horiz-adv-x="1134" d="M111 528q0 129 34.5 234.5t98 180.5t154.5 116t206 41q174 0 277.5 -89t136.5 -251l-115 -29q-12 57 -34.5 106.5t-57.5 84t-87 55t-124 20.5q-96 0 -163.5 -34.5t-112.5 -96t-65.5 -146.5t-20.5 -185t20.5 -185.5t63.5 -148t111.5 -97t164.5 -34.5q154 0 224.5 74.5 t95.5 199.5h118q-31 -178 -142.5 -277.5t-303.5 -99.5l-25 -67q106 -12 144.5 -55.5t38.5 -100.5q0 -92 -68 -126t-178 -34q-29 0 -56.5 2t-56.5 6v93q31 -4 56.5 -6.5t54.5 -2.5q70 0 101.5 17.5t31.5 58.5q0 39 -35 55.5t-127 16.5h-25l52 151q-186 29 -286.5 173.5 t-100.5 379.5z" />
<glyph unicode="&#x4ac;" horiz-adv-x="1208" d="M35 1348v114h1139v-114h-506v-1235h129v-467h-119v354h-135v1348h-508z" />
<glyph unicode="&#x4ad;" horiz-adv-x="921" d="M20 963v104h881v-104h-379v-859h121v-391h-108v287h-132v963h-383z" />
<glyph unicode="&#x4ae;" horiz-adv-x="1204" d="M31 1462h147l428 -723l436 723h132l-506 -829v-633h-125v633z" />
<glyph unicode="&#x4af;" horiz-adv-x="1019" d="M12 1067h138l382 -895l342 895h134l-422 -1044v-420h-119v426z" />
<glyph unicode="&#x4b0;" horiz-adv-x="1204" d="M31 1462h147l428 -723l436 723h132l-496 -813h311v-110h-321v-539h-125v539h-320v110h309z" />
<glyph unicode="&#x4b1;" horiz-adv-x="1019" d="M12 1067h138l382 -899l342 899h134l-392 -967h232v-100h-262v-397h-119v397h-262v100h229z" />
<glyph unicode="&#x4b2;" horiz-adv-x="1275" d="M29 0l520 774l-479 688h149l408 -604l411 604h133l-477 -698l459 -660h102v-391h-108v287h-70l-461 674l-452 -674h-135z" />
<glyph unicode="&#x4b3;" horiz-adv-x="1032" d="M27 0l393 567l-359 500h140l293 -420l294 420h130l-351 -504l322 -459h106v-391h-108v287h-64l-334 479l-329 -479h-133z" />
<glyph unicode="&#x4b4;" horiz-adv-x="1552" d="M16 1354v108h957v-108h-477v-1241h755v1349h125v-1349h129v-467h-119v354h-1015v1354h-355z" />
<glyph unicode="&#x4b5;" horiz-adv-x="1210" d="M20 963v104h654v-104h-316v-859h576v963h119v-963h121v-391h-109v287h-825v963h-220z" />
<glyph unicode="&#x4b6;" horiz-adv-x="1271" d="M102 1055v407h123v-362q0 -98 18.5 -170t62.5 -119t121 -70.5t194 -23.5q184 0 350 65v680h125v-1349h129v-467h-119v354h-135v678q-78 -33 -171 -51.5t-192 -18.5q-137 0 -233 30t-156.5 86t-88.5 139t-28 192z" />
<glyph unicode="&#x4b7;" horiz-adv-x="1036" d="M82 750v317h115v-276q0 -150 64.5 -219.5t221.5 -69.5q147 0 277 51v514h119v-963h120v-391h-108v287h-131v453q-61 -25 -139 -39.5t-158 -14.5q-109 0 -181.5 29t-117.5 76t-63.5 110.5t-18.5 135.5z" />
<glyph unicode="&#x4b8;" horiz-adv-x="1263" d="M102 1055v407h123v-362q0 -90 14.5 -158t50.5 -115t97.5 -73.5t153.5 -34.5v282h104v-284q170 4 326 65v680h125v-1462h-125v678q-72 -29 -155 -47.5t-171 -22.5v-262h-104v264q-238 14 -338.5 129t-100.5 316z" />
<glyph unicode="&#x4b9;" horiz-adv-x="1021" d="M82 750v317h115v-276q0 -137 52 -207t181 -80v219h94v-221q125 6 236 51v514h119v-1067h-119v453q-51 -20 -110.5 -33.5t-125.5 -18.5v-206h-94v204q-98 4 -165.5 34t-107.5 78t-57.5 109.5t-17.5 129.5z" />
<glyph unicode="&#x4ba;" horiz-adv-x="1263" d="M168 0v1462h125v-639q78 33 171 51.5t191 18.5q137 0 233.5 -29.5t157 -86t88 -140.5t27.5 -191v-446h-123v401q0 98 -18.5 170t-62.5 119t-120.5 70.5t-193.5 23.5q-184 0 -350 -65v-719h-125z" />
<glyph unicode="&#x4bb;" horiz-adv-x="1142" d="M143 0v1462h119v-579q86 109 183.5 156.5t207.5 47.5q180 0 266.5 -100t86.5 -285v-702h-119v670q0 166 -59.5 238.5t-188.5 72.5q-61 0 -130 -23.5t-124 -74.5q-61 -53 -92 -109.5t-31 -155.5v-618h-119z" />
<glyph unicode="&#x4bc;" horiz-adv-x="1818" d="M51 958q0 94 43 172l101 -24q-29 -68 -29 -127q0 -41 10 -73t35 -55.5t69 -36.5t111 -15q12 166 65.5 297t137.5 220t194.5 136t237.5 47q166 0 280.5 -56.5t185.5 -153.5t102.5 -227t31.5 -278v-94h-1108q0 -111 28.5 -221.5t91 -198.5t160 -142t236.5 -54 q109 0 185.5 24.5t129 67.5t84 100.5t48.5 122.5h121q-20 -92 -63.5 -170t-113 -134t-169 -89t-232.5 -33q-145 0 -262 52.5t-199 147.5t-127 229t-47 298q-92 0 -156.5 20.5t-104.5 57.5t-58.5 86t-18.5 104zM520 799h977q0 129 -24.5 237.5t-81 187.5t-146.5 123t-219 44 q-215 0 -348 -153t-158 -439z" />
<glyph unicode="&#x4bd;" horiz-adv-x="1325" d="M31 733q0 80 37 146l92 -21q-10 -29 -17.5 -54.5t-7.5 -53.5q0 -63 32 -99.5t124 -44.5q10 119 50 211t103.5 154.5t145.5 95.5t178 33q123 0 209 -41t140 -111.5t79 -165t25 -202.5v-76h-815q0 -90 23.5 -170t69.5 -139.5t113.5 -94t155.5 -34.5q80 0 135 15t92 44 t58.5 66.5t33.5 84.5h115q-25 -137 -131 -223t-303 -86q-111 0 -199 38t-149.5 107.5t-95 169t-35.5 222.5q-141 8 -199.5 72.5t-58.5 156.5zM408 606h690q0 88 -18.5 162t-57.5 126t-102.5 81t-151.5 29q-154 0 -248 -98.5t-112 -299.5z" />
<glyph unicode="&#x4be;" horiz-adv-x="1818" d="M51 958q0 94 43 172l101 -24q-29 -68 -29 -127q0 -41 10 -73t35 -55.5t69 -36.5t111 -15q12 166 65.5 297t137.5 220t194.5 136t237.5 47q166 0 280.5 -56.5t185.5 -153.5t102.5 -227t31.5 -278v-94h-1108q0 -111 28.5 -221.5t91 -198.5t160 -142t236.5 -54 q109 0 185.5 24.5t129 67.5t84 100.5t48.5 122.5h121q-18 -86 -57.5 -159.5t-102 -130t-150.5 -91.5t-205 -43v-319h-120v319q-133 10 -238.5 66.5t-180.5 152t-116 223.5t-43 283q-92 0 -156.5 20.5t-104.5 57.5t-58.5 86t-18.5 104zM520 799h977q0 129 -24.5 237.5 t-81 187.5t-146.5 123t-219 44q-215 0 -348 -153t-158 -439z" />
<glyph unicode="&#x4bf;" horiz-adv-x="1325" d="M31 733q0 80 37 146l92 -21q-10 -29 -17.5 -54.5t-7.5 -53.5q0 -63 32 -99.5t124 -44.5q10 119 50 211t103.5 154.5t145.5 95.5t178 33q123 0 209 -41t140 -111.5t79 -165t25 -202.5v-76h-815q0 -90 23.5 -170t69.5 -139.5t113.5 -94t155.5 -34.5q80 0 135 15t92 44 t58.5 66.5t33.5 84.5h115q-23 -129 -120 -212.5t-271 -94.5v-256h-109v258q-193 23 -301 163t-112 370q-141 8 -199.5 72.5t-58.5 156.5zM408 606h690q0 88 -18.5 162t-57.5 126t-102.5 81t-151.5 29q-154 0 -248 -98.5t-112 -299.5z" />
<glyph unicode="&#x4c0;" horiz-adv-x="460" d="M168 0v1462h125v-1462h-125z" />
<glyph unicode="&#x4c1;" horiz-adv-x="1990" d="M20 0l406 590q57 84 102 127t105 59q-66 29 -112 84t-83 139l-94 211q-20 47 -39.5 75t-43 43t-50.5 19.5t-64 4.5q-16 0 -29.5 -1t-23.5 -3q-12 -2 -22 -5l-13 107q14 2 31 6q14 2 30.5 4t33.5 2q51 0 92 -7t75.5 -28.5t64.5 -60.5t58 -100l91 -201 q53 -123 125.5 -184.5t183.5 -61.5h90v643h123v-643h88q111 0 185.5 60.5t129.5 183.5l84 184q57 125 127 170t170 45q16 0 32.5 -2t31.5 -4q16 -4 30 -6l-12 -107q-10 2 -20 5q-10 2 -22.5 3t-29.5 1q-35 0 -63.5 -5.5t-53 -21.5t-47 -48t-47.5 -85l-88 -195 q-39 -84 -88 -137t-108 -82q31 -8 55.5 -22.5t48 -37t48 -53t53.5 -73.5l409 -592h-149l-344 502q-39 57 -72 95t-65.5 61.5t-71.5 33.5t-90 10h-121v-702h-123v702h-127q-51 0 -90 -10t-73 -33.5t-66.5 -61.5t-71.5 -95l-344 -502h-142zM694 1853h99q4 -78 54 -129t146 -51 t146.5 51.5t54.5 128.5h98q0 -53 -19.5 -102t-57 -86t-94 -58.5t-130.5 -21.5t-130 21.5t-93 58.5t-55.5 86t-18.5 102z" />
<glyph unicode="&#x4c2;" horiz-adv-x="1497" d="M20 0l295 428q35 47 66 77t72 46q-43 16 -77 53t-65 103l-75 163q-10 25 -20.5 43.5t-23 30.5t-30 18.5t-43.5 6.5q-12 0 -23.5 -1t-21.5 -3t-23 -4l-12 96l24 4q10 2 24.5 4t31.5 2q51 0 85 -10t58.5 -31.5t43 -54.5t38.5 -78l66 -145q39 -86 92 -123t133 -37h57v479 h115v-479h53q86 0 137.5 37t89.5 123l66 143q41 90 89 133t144 43q14 0 29 -2t25 -4l24 -4l-12 -96l-20 4t-22.5 3t-23.5 1q-61 0 -87.5 -30t-49.5 -83l-67 -149q-27 -59 -59.5 -94t-78.5 -60q41 -16 72 -47t66 -78l295 -428h-144l-270 395q-37 53 -77 77t-112 24h-67v-496 h-115v496h-71q-72 0 -114 -23.5t-79 -77.5l-270 -395h-138zM442 1477h98q4 -78 54.5 -129t146.5 -51t146.5 51t54.5 129h98q0 -53 -19.5 -102.5t-57.5 -86t-94 -58t-130 -21.5t-130 21.5t-93 58t-55.5 86t-18.5 102.5z" />
<glyph unicode="&#x4c3;" horiz-adv-x="1277" d="M168 0v1462h123v-643h119q111 0 175 62.5t122 183.5l86 184q29 61 59.5 102.5t66 66t76.5 34.5t90 10q16 0 33 -2t31 -4q16 -4 31 -6l-13 -107q-10 2 -20 5q-10 2 -22.5 3t-28.5 1q-35 0 -62.5 -5.5t-51.5 -21.5t-47.5 -47t-47.5 -84l-92 -195q-20 -43 -53 -99t-99 -93 q154 -8 257.5 -53t165.5 -120t90 -174.5t28 -215.5q0 -119 -31 -222.5t-99.5 -181.5t-179 -123t-270.5 -45h-80v109h103q223 0 326.5 121t103.5 338q0 250 -120 356t-378 106h-268v-702h-123z" />
<glyph unicode="&#x4c4;" horiz-adv-x="1009" d="M143 0v1067h119v-473h141q53 12 89 49t67 105l66 143q41 90 90 133t145 43q14 0 28.5 -2t24.5 -4q12 -2 25 -4l-12 -92q-10 2 -21 4q-10 2 -22.5 3t-22.5 1q-61 0 -88 -32t-49 -85l-68 -149q-35 -78 -86 -119q104 -12 177 -54t119 -105.5t66.5 -146.5t20.5 -180 q0 -111 -26.5 -205t-86 -162.5t-152.5 -108.5t-226 -40h-70v101h82q186 0 270 104.5t84 306.5q0 209 -82.5 301.5t-265.5 92.5h-217v-492h-119z" />
<glyph unicode="&#x4c5;" horiz-adv-x="1441" d="M0 -10v114h25q72 0 133 30t111 110t89 221t68 366l78 631h774v-1349h117q0 -88 -18.5 -163t-51.5 -135.5t-75 -107.5t-91 -80l-72 90q66 51 111 121t64 162h-109v1352h-537l-71 -582q-29 -227 -76 -377.5t-112.5 -240t-148.5 -126t-181 -36.5h-27z" />
<glyph unicode="&#x4c6;" horiz-adv-x="1140" d="M0 -10v104h16q57 0 103.5 21.5t82.5 81t62.5 164t44.5 270.5l49 436h639v-963h107q0 -84 -15.5 -145t-42 -107.5t-62.5 -81t-77 -61.5l-57 78q111 86 137 213h-108v965h-414l-49 -408q-18 -154 -50 -262.5t-79 -176t-112.5 -98t-151.5 -30.5h-23z" />
<glyph unicode="&#x4c7;" horiz-adv-x="1411" d="M168 0v1462h125v-647h825v647h125v-1534q0 -72 -9 -134t-38 -110.5t-82 -76t-141 -27.5q-70 0 -112 9.5t-73 19.5l25 102q29 -10 63.5 -16t86.5 -6q74 0 114.5 47t40.5 139v823h-825v-698h-125z" />
<glyph unicode="&#x4c8;" horiz-adv-x="1159" d="M143 0v1067h119v-455h635v455h119v-1122q0 -72 -7.5 -137.5t-33 -115.5t-75.5 -81t-138 -31q-70 0 -112 9.5t-72 21.5l24 100q29 -10 63.5 -17t86.5 -7q84 0 114.5 51t30.5 135v635h-635v-508h-119z" />
<glyph unicode="&#x4c9;" horiz-adv-x="1406" d="M168 0v1462h125v-647h825v647h125v-1349h117q0 -88 -18.5 -163t-51.5 -135.5t-74.5 -107.5t-91.5 -80l-71 90q66 51 110.5 121t63.5 162h-109v698h-825v-698h-125z" />
<glyph unicode="&#x4ca;" horiz-adv-x="1159" d="M143 0v1067h119v-455h635v455h119v-963h106q0 -84 -15 -145t-42 -107.5t-62.5 -81t-76.5 -61.5l-58 78q111 86 138 213h-109v508h-635v-508h-119z" />
<glyph unicode="&#x4cb;" horiz-adv-x="1263" d="M102 1055v407h123v-362q0 -98 18.5 -170t62.5 -119t121 -70.5t194 -23.5q184 0 350 65v680h125v-1462h-135v-354h-119v467h129v565q-78 -33 -171 -51.5t-192 -18.5q-137 0 -233 30t-156.5 86t-88.5 139t-28 192z" />
<glyph unicode="&#x4cc;" horiz-adv-x="1021" d="M82 750v317h115v-276q0 -150 64.5 -219.5t221.5 -69.5q147 0 277 51v514h119v-1067h-131v-287h-109v391h121v349q-61 -25 -139 -39.5t-158 -14.5q-109 0 -181.5 29t-117.5 76t-63.5 110.5t-18.5 135.5z" />
<glyph unicode="&#x4cd;" horiz-adv-x="1712" d="M168 0v1462h162l528 -1317l537 1317h153v-1349h117q0 -88 -18.5 -163t-51 -135.5t-74.5 -107.5t-91 -80l-72 90q66 51 110.5 121t63.5 162h-100v1249l-6 -11q-5 -11 -21 -51t-49 -119t-90.5 -218t-143.5 -347t-207 -503h-118l-512 1245v-1245h-117z" />
<glyph unicode="&#x4ce;" horiz-adv-x="1406" d="M145 0v1067h164l389 -948l402 948h164v-963h106q0 -84 -15.5 -145t-42 -107.5t-62.5 -81t-76 -61.5l-58 78q111 86 137 213h-104v918l-399 -918h-115l-375 901v-901h-115z" />
<glyph unicode="&#x4cf;" horiz-adv-x="460" d="M168 0v1462h125v-1462h-125z" />
<glyph unicode="&#x4d0;" horiz-adv-x="1353" d="M25 0l579 1462h148l577 -1462h-135l-176 446h-688l-174 -446h-131zM375 561h598l-301 764zM377 1854h98q4 -78 54.5 -129t146.5 -51t146.5 51t54.5 129h98q0 -53 -19.5 -102.5t-57.5 -86t-94 -58t-130 -21.5t-130 21.5t-93 58t-55.5 86t-18.5 102.5z" />
<glyph unicode="&#x4d1;" horiz-adv-x="1077" d="M74 297q0 106 45 174t119.5 107.5t170 56t197.5 20.5l205 9v32q0 156 -60.5 228.5t-215.5 72.5q-76 0 -128.5 -12t-87 -35.5t-55 -55.5t-31.5 -71l-108 17q57 258 414 258q111 0 186.5 -27t121.5 -78t66.5 -123.5t20.5 -167.5v-702h-119v150q-27 -33 -63.5 -65 t-83.5 -56.5t-103.5 -39t-124.5 -14.5q-166 0 -266 82t-100 240zM199 299q0 -96 54 -156.5t189 -60.5q156 0 246 68q37 27 60.5 52t38 55t20.5 66.5t6 86.5v159l-195 -8q-119 -4 -198.5 -22.5t-128.5 -50t-70.5 -79t-21.5 -110.5zM236 1477h98q4 -78 54.5 -129t146.5 -51 t146.5 51t54.5 129h98q0 -53 -19.5 -102.5t-57.5 -86t-94 -58t-130 -21.5t-130 21.5t-93 58t-55.5 86t-18.5 102.5z" />
<glyph unicode="&#x4d2;" horiz-adv-x="1353" d="M25 0l579 1462h148l577 -1462h-135l-176 446h-688l-174 -446h-131zM375 561h598l-301 764zM437 1628v178h137v-178h-137zM772 1628v178h140v-178h-140z" />
<glyph unicode="&#x4d3;" horiz-adv-x="1077" d="M74 297q0 106 45 174t119.5 107.5t170 56t197.5 20.5l205 9v32q0 156 -60.5 228.5t-215.5 72.5q-76 0 -128.5 -12t-87 -35.5t-55 -55.5t-31.5 -71l-108 17q57 258 414 258q111 0 186.5 -27t121.5 -78t66.5 -123.5t20.5 -167.5v-702h-119v150q-27 -33 -63.5 -65 t-83.5 -56.5t-103.5 -39t-124.5 -14.5q-166 0 -266 82t-100 240zM199 299q0 -96 54 -156.5t189 -60.5q156 0 246 68q37 27 60.5 52t38 55t20.5 66.5t6 86.5v159l-195 -8q-119 -4 -198.5 -22.5t-128.5 -50t-70.5 -79t-21.5 -110.5zM308 1268v174h133v-174h-133zM635 1268v174 h135v-174h-135z" />
<glyph unicode="&#x4d4;" horiz-adv-x="2072" d="M10 0l875 1462h1071v-112h-744v-537h703v-117h-703v-581h779l-29 -115h-868v510h-641l-306 -510h-137zM520 625h574v725h-146z" />
<glyph unicode="&#x4d5;" horiz-adv-x="1822" d="M74 297q0 106 44 174t116.5 107.5t167 56t192.5 20.5l205 9v34q0 78 -13.5 134.5t-44 93.5t-83 54t-130.5 17q-145 0 -209.5 -48t-85.5 -126l-108 17q57 258 407 258q158 0 241 -51.5t118 -149.5q66 100 164 151.5t217 51.5q121 0 206 -40t138 -110.5t77.5 -165 t24.5 -202.5v-76h-798q0 -90 22.5 -170t67.5 -140.5t110.5 -95t151.5 -34.5q76 0 130 15t91 44t58.5 66.5t33.5 84.5h115q-25 -137 -130.5 -223t-297.5 -86q-80 0 -145.5 19.5t-115.5 53.5t-87 79t-60 94q-20 -37 -54 -79t-86 -78t-122 -58.5t-160 -22.5q-166 0 -267 82 t-101 240zM199 299q0 -96 55 -156.5t190 -60.5q72 0 133.5 16.5t104.5 51.5q37 29 59.5 54t36 55t18.5 65.5t5 85.5v159l-195 -8q-117 -4 -194.5 -22.5t-124.5 -50t-67.5 -79t-20.5 -110.5zM922 608h673q0 86 -18 159t-57 125t-100.5 82t-147.5 30q-150 0 -240 -98.5 t-110 -297.5z" />
<glyph unicode="&#x4d6;" horiz-adv-x="1204" d="M168 0v1462h919v-112h-794v-537h754v-117h-754v-581h829l-28 -115h-926zM346 1854h98q4 -78 54.5 -129t146.5 -51t146.5 51t54.5 129h98q0 -53 -19.5 -102.5t-57.5 -86t-94 -58t-130 -21.5t-130 21.5t-93 58t-55.5 86t-18.5 102.5z" />
<glyph unicode="&#x4d7;" horiz-adv-x="1146" d="M111 522q0 139 35.5 247t100 181.5t151.5 111.5t192 38q123 0 209 -41t140 -111.5t78.5 -165t24.5 -202.5v-76h-811q0 -90 22.5 -170t68 -139.5t113 -94t155.5 -34.5q80 0 135 15t92 44t58.5 66.5t33.5 84.5h115q-25 -137 -131.5 -223t-302.5 -86q-113 0 -202 39 t-150.5 110.5t-94 175t-32.5 230.5zM233 606h687q0 88 -18.5 162t-57.5 126t-102.5 81t-151.5 29q-154 0 -246 -98.5t-111 -299.5zM293 1477h98q4 -78 54.5 -129t146.5 -51t146.5 51t54.5 129h98q0 -53 -19.5 -102.5t-57.5 -86t-94 -58t-130 -21.5t-130 21.5t-93 58 t-55.5 86t-18.5 102.5z" />
<glyph unicode="&#x4d8;" horiz-adv-x="1515" d="M131 678v94h1108q0 111 -26.5 221.5t-86 198.5t-152.5 142.5t-226 54.5q-115 0 -194 -21.5t-132 -61.5t-86 -94.5t-57 -121.5l-115 20q27 80 71 151.5t113.5 124t166.5 83t233 30.5q147 0 262.5 -53t195.5 -151.5t121 -235.5t41 -303q0 -188 -45 -336t-127 -249 t-194.5 -154.5t-247.5 -53.5q-166 0 -285 56.5t-193.5 153.5t-109.5 227t-35 278zM260 664q0 -129 28.5 -238t88 -187.5t154 -122.5t223.5 -44q215 0 336.5 152.5t146.5 439.5h-977z" />
<glyph unicode="&#x4d9;" horiz-adv-x="1165" d="M127 481v76h813q0 90 -21.5 169t-65.5 137.5t-110.5 92t-154.5 33.5q-80 0 -135.5 -15.5t-93 -44t-61.5 -68.5t-40 -87l-111 17q31 133 140.5 214.5t302.5 81.5q111 0 199 -41.5t147 -115.5t91 -174.5t32 -216.5q0 -139 -34 -246t-95.5 -179.5t-147.5 -109.5t-190 -37 q-123 0 -210 40t-144.5 109.5t-84 163t-26.5 201.5zM250 455q0 -86 20.5 -158t62.5 -124t107.5 -81t155.5 -29q305 0 342 392h-688z" />
<glyph unicode="&#x4da;" horiz-adv-x="1515" d="M131 678v94h1108q0 111 -26.5 221.5t-86 198.5t-152.5 142.5t-226 54.5q-115 0 -194 -21.5t-132 -61.5t-86 -94.5t-57 -121.5l-115 20q27 80 71 151.5t113.5 124t166.5 83t233 30.5q147 0 262.5 -53t195.5 -151.5t121 -235.5t41 -303q0 -188 -45 -336t-127 -249 t-194.5 -154.5t-247.5 -53.5q-166 0 -285 56.5t-193.5 153.5t-109.5 227t-35 278zM260 664q0 -129 28.5 -238t88 -187.5t154 -122.5t223.5 -44q215 0 336.5 152.5t146.5 439.5h-977zM492 1628v178h137v-178h-137zM827 1628v178h140v-178h-140z" />
<glyph unicode="&#x4db;" horiz-adv-x="1165" d="M127 481v76h813q0 90 -21.5 169t-65.5 137.5t-110.5 92t-154.5 33.5q-80 0 -135.5 -15.5t-93 -44t-61.5 -68.5t-40 -87l-111 17q31 133 140.5 214.5t302.5 81.5q111 0 199 -41.5t147 -115.5t91 -174.5t32 -216.5q0 -139 -34 -246t-95.5 -179.5t-147.5 -109.5t-190 -37 q-123 0 -210 40t-144.5 109.5t-84 163t-26.5 201.5zM250 455q0 -86 20.5 -158t62.5 -124t107.5 -81t155.5 -29q305 0 342 392h-688zM342 1268v174h133v-174h-133zM669 1268v174h135v-174h-135z" />
<glyph unicode="&#x4dc;" horiz-adv-x="1990" d="M20 0l406 590q57 84 102 127t105 59q-66 29 -113 84t-82 139l-92 213q-20 47 -39.5 75t-42 42t-49.5 18.5t-59 4.5q-16 0 -31.5 -2t-26.5 -4q-14 -2 -24 -5l-13 107q14 2 33 6q14 4 32.5 6t35.5 2q49 0 90 -7t74.5 -27.5t63.5 -58.5t56 -101l89 -203 q53 -123 125.5 -184.5t183.5 -61.5h90v643h123v-643h88q111 0 185.5 60.5t129.5 183.5l84 184q57 125 127 170t170 45q16 0 32.5 -2t31.5 -4q16 -4 30 -6l-12 -107q-10 2 -20 5q-10 2 -22.5 3t-29.5 1q-35 0 -63.5 -5.5t-53 -21.5t-47 -48t-47.5 -85l-88 -195 q-39 -84 -88 -137t-108 -82q31 -8 55.5 -22.5t48 -37t48 -53t53.5 -73.5l409 -592h-149l-344 502q-39 57 -72 95t-65.5 61.5t-71.5 33.5t-90 10h-121v-702h-123v702h-127q-51 0 -90 -10t-73 -33.5t-66.5 -61.5t-71.5 -95l-344 -502h-142zM754 1628v178h137v-178h-137z M1089 1628v178h140v-178h-140z" />
<glyph unicode="&#x4dd;" horiz-adv-x="1497" d="M20 0l295 428q35 47 66 77t72 46q-43 16 -77 53t-65 103l-75 163q-10 25 -20.5 43.5t-23 30.5t-30 18.5t-43.5 6.5q-12 0 -23.5 -1t-21.5 -3t-23 -4l-12 96l24 4q10 2 24.5 4t31.5 2q51 0 85 -10t58.5 -31.5t43 -54.5t38.5 -78l66 -145q39 -86 92 -123t133 -37h57v479 h115v-479h53q86 0 137.5 37t89.5 123l66 143q41 90 89 133t144 43q14 0 29 -2t25 -4l24 -4l-12 -96l-20 4t-22.5 3t-23.5 1q-61 0 -87.5 -30t-49.5 -83l-67 -149q-27 -59 -59.5 -94t-78.5 -60q41 -16 72 -47t66 -78l295 -428h-144l-270 395q-37 53 -77 77t-112 24h-67v-496 h-115v496h-71q-72 0 -114 -23.5t-79 -77.5l-270 -395h-138zM510 1268v174h133v-174h-133zM837 1268v174h135v-174h-135z" />
<glyph unicode="&#x4de;" horiz-adv-x="1230" d="M92 358h119q23 -141 121 -213.5t284 -72.5q195 0 288 84t93 243q0 84 -24.5 142.5t-68.5 95.5t-106.5 53.5t-138.5 16.5h-237v112h237q133 0 220.5 73t87.5 224q0 135 -92.5 204t-253.5 69q-88 0 -153 -16.5t-112 -49.5t-78.5 -81t-52.5 -112l-116 21q14 61 50 123.5 t99.5 113t155.5 81t219 30.5q113 0 199 -29.5t143 -80t86 -117t29 -142.5q0 -117 -49.5 -209t-161.5 -145q123 -45 183 -141t60 -236q0 -94 -30.5 -174t-94 -138t-160 -91t-225.5 -33q-147 0 -245.5 37t-159 93.5t-86 127t-29.5 137.5zM388 1628v178h137v-178h-137z M723 1628v178h140v-178h-140z" />
<glyph unicode="&#x4df;" horiz-adv-x="1042" d="M72 289h114q23 -121 101 -171t225 -50q168 0 235.5 61t67.5 160q0 104 -70.5 161.5t-199.5 57.5h-211v98h219q121 0 181.5 53.5t60.5 143.5q0 96 -68 146t-209 50q-82 0 -136 -12t-90 -36.5t-58.5 -61.5t-38.5 -84l-105 22q14 57 44 106.5t80 86.5t126 58.5t182 21.5 q102 0 177 -22.5t123 -61.5t70.5 -90.5t22.5 -108.5q0 -94 -51 -158.5t-127 -95.5q98 -31 150.5 -101.5t52.5 -174.5q0 -66 -24.5 -124.5t-77 -101.5t-135 -68.5t-197.5 -25.5q-92 0 -169 18.5t-133.5 57.5t-90 99.5t-41.5 146.5zM291 1268v174h133v-174h-133zM618 1268v174 h135v-174h-135z" />
<glyph unicode="&#x4e0;" horiz-adv-x="1167" d="M61 358h115q16 -137 114.5 -210.5t287.5 -73.5q203 0 290.5 84t87.5 245q0 168 -95 250t-318 82h-152v96l477 521h-762v110h910v-102l-484 -522h15q121 0 220 -23.5t170 -76t109.5 -135.5t38.5 -200q0 -94 -30.5 -173.5t-93 -139t-158.5 -93.5t-225 -34q-152 0 -249.5 37 t-155.5 93.5t-82.5 127t-29.5 137.5z" />
<glyph unicode="&#x4e1;" horiz-adv-x="972" d="M0 -55h117q8 -57 27.5 -105.5t59.5 -84.5t101.5 -55t151.5 -19q168 0 249.5 88t81.5 247q0 82 -19 144.5t-64.5 103.5t-121 62.5t-186.5 21.5h-121v90l447 529h-666v100h797v-102l-442 -516h8q242 0 366.5 -106.5t124.5 -322.5q0 -94 -27.5 -173.5t-85 -139t-145.5 -93.5 t-207 -34q-127 0 -209.5 33t-134 85t-74 116.5t-28.5 130.5z" />
<glyph unicode="&#x4e2;" horiz-adv-x="1384" d="M168 0v1462h123v-1276l788 1276h138v-1462h-121v1278l-791 -1278h-137zM401 1634v109h578v-109h-578z" />
<glyph unicode="&#x4e3;" horiz-adv-x="1130" d="M143 0v1067h115v-897l600 897h129v-1067h-115v897l-604 -897h-125zM317 1284v105h500v-105h-500z" />
<glyph unicode="&#x4e4;" horiz-adv-x="1384" d="M168 0v1462h123v-1276l788 1276h138v-1462h-121v1278l-791 -1278h-137zM459 1628v178h137v-178h-137zM794 1628v178h140v-178h-140z" />
<glyph unicode="&#x4e5;" horiz-adv-x="1130" d="M143 0v1067h115v-897l600 897h129v-1067h-115v897l-604 -897h-125zM330 1268v174h133v-174h-133zM657 1268v174h135v-174h-135z" />
<glyph unicode="&#x4e6;" horiz-adv-x="1548" d="M115 727q0 188 50 332.5t139 242t210 147.5t262 50t262 -48t208 -144.5t137.5 -238.5t50.5 -331q0 -190 -49.5 -334.5t-136.5 -242t-208 -147.5t-264 -50q-141 0 -263 48t-210 144.5t-138 240t-50 331.5zM246 731q0 -145 32.5 -266t99 -208t166 -135t232.5 -48 q129 0 227.5 48t165 135t100.5 208t34 266t-35 266t-101.5 208t-165 135.5t-225.5 48.5q-133 0 -232.5 -48.5t-165 -135.5t-99 -207.5t-33.5 -266.5zM539 1628v178h137v-178h-137zM874 1628v178h140v-178h-140z" />
<glyph unicode="&#x4e7;" horiz-adv-x="1214" d="M111 528q0 129 35.5 233.5t100 180.5t157 117t206.5 41q115 0 207 -40t155.5 -114t97.5 -177t34 -228q0 -129 -35 -234.5t-99.5 -181.5t-157.5 -117t-210 -41t-208 40t-153.5 114t-96 177t-33.5 230zM238 535q0 -98 20.5 -183.5t64.5 -148t114.5 -98t168.5 -35.5 q100 0 170 35.5t115 98t65.5 147.5t20.5 186q0 96 -20.5 180t-65.5 146.5t-114.5 98t-170.5 35.5q-98 0 -168.5 -35.5t-114.5 -98t-64.5 -146.5t-20.5 -182zM375 1268v174h133v-174h-133zM702 1268v174h135v-174h-135z" />
<glyph unicode="&#x4e8;" horiz-adv-x="1548" d="M115 727q0 188 50 332.5t139 242t210 147.5t262 50t262 -48t208 -144.5t137.5 -238.5t50.5 -331q0 -190 -49.5 -334.5t-136.5 -242t-208 -147.5t-264 -50q-141 0 -263 48t-210 144.5t-138 240t-50 331.5zM244 690q4 -137 39.5 -250.5t102.5 -194.5t164 -126t226 -45 q123 0 219.5 45t164 126t104 194.5t41.5 250.5h-1061zM246 803h1057q-8 131 -47 238.5t-106 184.5t-161 120t-213 43q-123 0 -219 -43t-162.5 -120t-103.5 -184.5t-45 -238.5z" />
<glyph unicode="&#x4e9;" horiz-adv-x="1214" d="M111 528q0 129 35.5 233.5t100 180.5t157 117t206.5 41q115 0 207 -40t155.5 -114t97.5 -177t34 -228q0 -129 -35 -234.5t-99.5 -181.5t-157.5 -117t-210 -41t-208 40t-153.5 114t-96 177t-33.5 230zM236 496q4 -92 26.5 -170t67.5 -134.5t113.5 -89t162.5 -32.5 t163 31.5t114 89t67.5 135t26.5 170.5h-741zM238 598h739q-6 86 -30.5 158.5t-70 126t-112 84t-158.5 30.5t-158.5 -30.5t-110.5 -84t-68.5 -126t-30.5 -158.5z" />
<glyph unicode="&#x4ea;" horiz-adv-x="1548" d="M115 727q0 188 50 332.5t139 242t210 147.5t262 50t262 -48t208 -144.5t137.5 -238.5t50.5 -331q0 -190 -49.5 -334.5t-136.5 -242t-208 -147.5t-264 -50q-141 0 -263 48t-210 144.5t-138 240t-50 331.5zM244 690q4 -137 39.5 -250.5t102.5 -194.5t164 -126t226 -45 q123 0 219.5 45t164 126t104 194.5t41.5 250.5h-1061zM246 803h1057q-8 131 -47 238.5t-106 184.5t-161 120t-213 43q-123 0 -219 -43t-162.5 -120t-103.5 -184.5t-45 -238.5zM539 1628v178h137v-178h-137zM874 1628v178h140v-178h-140z" />
<glyph unicode="&#x4eb;" horiz-adv-x="1214" d="M111 528q0 129 35.5 233.5t100 180.5t157 117t206.5 41q115 0 207 -40t155.5 -114t97.5 -177t34 -228q0 -129 -35 -234.5t-99.5 -181.5t-157.5 -117t-210 -41t-208 40t-153.5 114t-96 177t-33.5 230zM236 496q4 -92 26.5 -170t67.5 -134.5t113.5 -89t162.5 -32.5 t163 31.5t114 89t67.5 135t26.5 170.5h-741zM238 598h739q-6 86 -30.5 158.5t-70 126t-112 84t-158.5 30.5t-158.5 -30.5t-110.5 -84t-68.5 -126t-30.5 -158.5zM377 1268v174h133v-174h-133zM704 1268v174h135v-174h-135z" />
<glyph unicode="&#x4ec;" horiz-adv-x="1454" d="M137 424h121q12 -70 38 -133.5t77 -111.5t132 -76.5t208 -28.5q246 0 366.5 159.5t130.5 462.5h-684v109h684q-6 123 -38.5 230.5t-91 186t-143.5 124t-196 45.5q-188 0 -303.5 -78t-171.5 -260l-116 26q27 92 75.5 170t120.5 133.5t169 86t224 30.5q129 0 238.5 -49 t190.5 -143.5t126 -234.5t45 -320q0 -190 -44 -337t-124.5 -247t-193.5 -152.5t-250 -52.5q-166 0 -276.5 40t-177 105.5t-97.5 147.5t-39 168zM484 1628v178h137v-178h-137zM819 1628v178h140v-178h-140z" />
<glyph unicode="&#x4ed;" horiz-adv-x="1124" d="M113 307h114q6 -49 25.5 -92t56.5 -76t96.5 -51t145.5 -18t148.5 32.5t103.5 89t62.5 134t25.5 168.5h-494v100h492q-14 193 -98 298t-238 105q-137 0 -209 -52t-113 -169l-110 25q41 135 147.5 217t288.5 82q113 0 199 -43t143 -118t86 -178.5t29 -225.5 q0 -121 -30 -224.5t-90 -180.5t-149.5 -120t-205.5 -43q-104 0 -182 28t-130.5 75t-80 108.5t-33.5 128.5zM330 1268v174h133v-174h-133zM657 1268v174h135v-174h-135z" />
<glyph unicode="&#x4ee;" horiz-adv-x="1144" d="M25 1462h143l446 -946l373 946h133l-458 -1106q-43 -104 -86.5 -179t-92.5 -123t-110.5 -69.5t-141.5 -21.5q-55 0 -102 12.5t-76 26.5l29 104q23 -10 63.5 -22t100.5 -12q45 0 80.5 13t66.5 41t59.5 72t57.5 107l41 88zM282 1634v109h578v-109h-578z" />
<glyph unicode="&#x4ef;" horiz-adv-x="1024" d="M12 1067h140l383 -915l346 915h131l-482 -1206q-47 -121 -112.5 -189.5t-171.5 -68.5q-66 0 -99.5 9t-66.5 21l29 105q25 -10 58.5 -19.5t65.5 -9.5q33 0 57.5 8.5t45 30t40 55t42.5 86.5l51 121zM274 1284v105h500v-105h-500z" />
<glyph unicode="&#x4f0;" horiz-adv-x="1144" d="M25 1462h143l446 -946l373 946h133l-458 -1106q-43 -104 -86.5 -179t-92.5 -123t-110.5 -69.5t-141.5 -21.5q-55 0 -102 12.5t-76 26.5l29 104q23 -10 63.5 -22t100.5 -12q45 0 80.5 13t66.5 41t59.5 72t57.5 107l41 88zM330 1628v178h137v-178h-137zM665 1628v178h140 v-178h-140z" />
<glyph unicode="&#x4f1;" horiz-adv-x="1024" d="M12 1067h140l383 -915l346 915h131l-482 -1206q-47 -121 -112.5 -189.5t-171.5 -68.5q-66 0 -99.5 9t-66.5 21l29 105q25 -10 58.5 -19.5t65.5 -9.5q33 0 57.5 8.5t45 30t40 55t42.5 86.5l51 121zM293 1268v174h133v-174h-133zM620 1268v174h135v-174h-135z" />
<glyph unicode="&#x4f2;" horiz-adv-x="1144" d="M25 1462h143l446 -946l373 946h133l-458 -1106q-43 -104 -86.5 -179t-92.5 -123t-110.5 -69.5t-141.5 -21.5q-55 0 -102 12.5t-76 26.5l29 104q23 -10 63.5 -22t100.5 -12q45 0 80.5 13t66.5 41t59.5 72t57.5 107l41 88zM301 1585l211 264h149l-243 -264h-117zM631 1585 l211 264h149l-246 -264h-114z" />
<glyph unicode="&#x4f3;" horiz-adv-x="1024" d="M12 1067h140l383 -915l346 915h131l-482 -1206q-47 -121 -112.5 -189.5t-171.5 -68.5q-66 0 -99.5 9t-66.5 21l29 105q25 -10 58.5 -19.5t65.5 -9.5q33 0 57.5 8.5t45 30t40 55t42.5 86.5l51 121zM246 1208l211 275h156l-244 -275h-123zM576 1208l211 275h155l-246 -275 h-120z" />
<glyph unicode="&#x4f4;" horiz-adv-x="1263" d="M102 1055v407h123v-362q0 -98 18.5 -170t62.5 -119t121 -70.5t194 -23.5q184 0 350 65v680h125v-1462h-125v678q-78 -33 -171 -51.5t-192 -18.5q-137 0 -233 30t-156.5 86t-88.5 139t-28 192zM373 1628v178h137v-178h-137zM708 1628v178h140v-178h-140z" />
<glyph unicode="&#x4f5;" horiz-adv-x="1021" d="M82 750v317h115v-276q0 -150 64.5 -219.5t221.5 -69.5q147 0 277 51v514h119v-1067h-119v453q-61 -25 -139 -39.5t-158 -14.5q-109 0 -181.5 29t-117.5 76t-63.5 110.5t-18.5 135.5zM242 1268v174h133v-174h-133zM569 1268v174h135v-174h-135z" />
<glyph unicode="&#x4f6;" horiz-adv-x="1060" d="M168 0v1462h868v-112h-743v-1237h129v-467h-119v354h-135z" />
<glyph unicode="&#x4f7;" horiz-adv-x="845" d="M143 0v1067h682v-106h-563v-857h121v-391h-109v287h-131z" />
<glyph unicode="&#x4f8;" horiz-adv-x="1687" d="M168 0v1462h123v-571h352q160 0 263.5 -37t163.5 -99.5t83 -143.5t23 -169q0 -96 -26 -177t-88.5 -139t-168 -92t-264.5 -34h-461zM291 109h360q111 0 187.5 19t123 60t67 102.5t20.5 147.5q0 82 -20.5 146.5t-69 108.5t-128 66.5t-200.5 22.5h-340v-673zM605 1628v178 h137v-178h-137zM940 1628v178h140v-178h-140zM1395 0v1462h125v-1462h-125z" />
<glyph unicode="&#x4f9;" horiz-adv-x="1384" d="M143 0v1067h119v-420h352q96 0 165 -24.5t112 -67.5t63.5 -101.5t20.5 -125.5q0 -145 -94.5 -236.5t-294.5 -91.5h-443zM262 100h340q133 0 190.5 57.5t57.5 161.5q0 111 -55.5 169.5t-202.5 58.5h-330v-447zM465 1268v174h133v-174h-133zM792 1268v174h135v-174h-135z M1122 0v1067h119v-1067h-119z" />
<glyph unicode="&#x2000;" horiz-adv-x="927" />
<glyph unicode="&#x2001;" horiz-adv-x="1854" />
<glyph unicode="&#x2002;" horiz-adv-x="927" />
<glyph unicode="&#x2003;" horiz-adv-x="1854" />
<glyph unicode="&#x2004;" horiz-adv-x="618" />
<glyph unicode="&#x2005;" horiz-adv-x="463" />
<glyph unicode="&#x2006;" horiz-adv-x="309" />
<glyph unicode="&#x2007;" horiz-adv-x="309" />
<glyph unicode="&#x2008;" horiz-adv-x="231" />
<glyph unicode="&#x2009;" horiz-adv-x="370" />
<glyph unicode="&#x200a;" horiz-adv-x="103" />
<glyph unicode="&#x2010;" horiz-adv-x="800" d="M102 530v123h596v-123h-596z" />
<glyph unicode="&#x2011;" horiz-adv-x="800" d="M102 530v123h596v-123h-596z" />
<glyph unicode="&#x2012;" horiz-adv-x="800" d="M102 530v123h596v-123h-596z" />
<glyph unicode="&#x2013;" horiz-adv-x="1024" d="M0 530v123h1024v-123h-1024z" />
<glyph unicode="&#x2014;" horiz-adv-x="2048" d="M0 530v123h2048v-123h-2048z" />
<glyph unicode="&#x2018;" horiz-adv-x="387" d="M100 1065l101 397h96l-53 -397h-144z" />
<glyph unicode="&#x2019;" horiz-adv-x="387" d="M90 1065l53 397h144l-101 -397h-96z" />
<glyph unicode="&#x201a;" horiz-adv-x="387" d="M80 -201l57 398h139l-96 -398h-100z" />
<glyph unicode="&#x201c;" horiz-adv-x="667" d="M100 1065l101 397h96l-53 -397h-144zM381 1065l101 397h96l-53 -397h-144z" />
<glyph unicode="&#x201d;" horiz-adv-x="667" d="M90 1065l53 397h144l-101 -397h-96zM371 1065l53 397h144l-101 -397h-96z" />
<glyph unicode="&#x201e;" horiz-adv-x="663" d="M80 -201l57 398h139l-96 -398h-100zM356 -201l57 398h139l-96 -398h-100z" />
<glyph unicode="&#x2020;" horiz-adv-x="942" d="M43 954v101h371v407h118v-407h367v-101h-367v-1132h-118v1132h-371z" />
<glyph unicode="&#x2021;" horiz-adv-x="942" d="M43 250v104h371v600h-371v101h371v407h118v-407h367v-101h-367v-600h367v-104h-367v-428h-118v428h-371z" />
<glyph unicode="&#x2022;" horiz-adv-x="696" d="M82 748q0 57 20.5 106t56.5 84t85 54.5t106 19.5q55 0 104.5 -19.5t84 -54.5t55 -84t20.5 -106q0 -59 -20.5 -109.5t-55 -85.5t-83.5 -54.5t-105 -19.5q-57 0 -106 19.5t-85 54.5t-56.5 85.5t-20.5 109.5z" />
<glyph unicode="&#x2026;" horiz-adv-x="1624" d="M127 0v190h154v-190h-154zM735 0v190h154v-190h-154zM1344 0v190h154v-190h-154z" />
<glyph unicode="&#x202f;" horiz-adv-x="370" />
<glyph unicode="&#x2030;" horiz-adv-x="2633" d="M78 1012q0 111 25.5 192.5t71.5 136t109.5 81t137.5 26.5q76 0 139.5 -26.5t108.5 -81t70.5 -136.5t25.5 -192q0 -223 -95 -330t-249 -107q-76 0 -138.5 27t-108.5 80t-71.5 136t-25.5 194zM195 1012q0 -338 227 -338t227 338q0 336 -227 336t-227 -336zM485 0l721 1415 h125l-721 -1415h-125zM1053 393q0 111 25.5 193t71.5 136t109.5 80.5t137.5 26.5q76 0 139 -26.5t108.5 -80.5t71 -136t25.5 -193q0 -223 -95 -329.5t-249 -106.5q-76 0 -138.5 26.5t-108.5 80t-71.5 136.5t-25.5 193zM1169 393q1 -338 228 -338t227 338q0 336 -227 336 t-228 -336zM1868 393q0 111 25.5 193t71.5 136t109.5 80.5t137.5 26.5q76 0 139.5 -26.5t108.5 -80.5t70.5 -136t25.5 -193q0 -223 -95 -329.5t-249 -106.5q-76 0 -138.5 26.5t-108.5 80t-71.5 136.5t-25.5 193zM1985 393q0 -338 227 -338t227 338q0 336 -227 336t-227 -336 z" />
<glyph unicode="&#x2039;" horiz-adv-x="573" d="M98 526l291 453h115l-268 -451l268 -458h-119z" />
<glyph unicode="&#x203a;" horiz-adv-x="573" d="M70 70l268 450l-268 459h118l287 -457l-291 -452h-114z" />
<glyph unicode="&#x2044;" horiz-adv-x="149" d="M-350 0l721 1415h125l-721 -1415h-125z" />
<glyph unicode="&#x205f;" horiz-adv-x="463" />
<glyph unicode="&#x20ac;" d="M47 489l25 105h114q-2 27 -3 53.5t-1 54.5q0 35 1 64t5 57h-141l25 101h129q20 129 67 228t112.5 166.5t148.5 101.5t176 34q104 0 181 -23.5t130 -69.5t88 -116.5t55 -163.5l-110 -22q-18 82 -48 138t-71 90t-97.5 48.5t-130.5 14.5q-158 0 -251 -116t-125 -310h559 l-25 -101h-547q-6 -55 -6 -116t6 -113h512l-24 -105h-477q29 -190 123 -305.5t258 -115.5q94 0 157.5 20.5t103.5 62.5t61.5 103t33.5 143h117q-29 -211 -138.5 -322.5t-334.5 -111.5q-209 0 -340.5 134t-165.5 392h-152z" />
<glyph unicode="&#x2122;" horiz-adv-x="1839" d="M31 1368v94h669v-94h-280v-725h-107v725h-282zM829 643v819h136l290 -694l293 694h133v-819h-94v672l-291 -672h-86l-286 670v-670h-95z" />
<glyph unicode="&#x2202;" d="M86 381q0 92 27.5 184t86 165t151.5 118t222 45q139 0 231.5 -55.5t145.5 -157.5q2 31 3 69.5t1 67.5q0 160 -26.5 263.5t-71.5 163t-105.5 83t-125.5 23.5q-59 0 -105.5 -11.5t-83.5 -39t-64.5 -73.5t-49.5 -114l-101 25q45 172 151.5 244.5t254.5 72.5 q88 0 167.5 -28.5t139 -100.5t95.5 -193.5t36 -306.5q0 -147 -24.5 -299.5t-87 -277.5t-170 -205t-271.5 -80q-102 0 -182 34t-134.5 90t-82 132t-27.5 162zM211 389q0 -66 20.5 -124t61.5 -101t99 -68.5t136 -25.5q86 0 155 36.5t117 96t72.5 134.5t24.5 148 q0 80 -27.5 137.5t-72.5 94.5t-102.5 55.5t-116.5 18.5q-100 0 -170 -34t-114 -90.5t-63.5 -129t-19.5 -148.5z" />
<glyph unicode="&#x2206;" horiz-adv-x="1318" d="M27 0l563 1462h137l565 -1462h-1265zM195 115h921l-461 1212z" />
<glyph unicode="&#x220f;" horiz-adv-x="1349" d="M158 0v1462h1034v-1462h-125v1352h-784v-1352h-125z" />
<glyph unicode="&#x2211;" horiz-adv-x="1161" d="M80 -109l483 742l-483 725v104h1026v-108h-885l471 -715l-483 -737h921l-26 -111h-1024v100z" />
<glyph unicode="&#x221a;" horiz-adv-x="1204" d="M113 655v109h247l252 -643l467 1376h131l-522 -1497h-149l-265 655h-161z" />
<glyph unicode="&#x221e;" d="M59 700q0 168 77 249t190 81q57 0 101 -17.5t78 -45t58.5 -63.5t42.5 -73q18 37 43 73t58.5 63.5t77.5 45t102 17.5q113 0 189.5 -81t76.5 -249t-77 -248.5t-189 -80.5q-57 0 -101.5 18.5t-78 48t-58.5 66.5t-43 74q-18 -37 -42.5 -74t-58.5 -66.5t-78 -48t-101 -18.5 q-113 0 -190 80.5t-77 248.5zM170 700q0 -115 44 -174t116 -59q49 0 88 21.5t66.5 55.5t44 77t24.5 84q-8 39 -24.5 78.5t-44 73.5t-66.5 55.5t-88 21.5q-72 0 -116 -59.5t-44 -174.5zM659 696q8 -39 24.5 -78.5t44.5 -73.5t67 -55.5t88 -21.5q72 0 115.5 59.5t43.5 173.5 q0 115 -44 174.5t-115 59.5q-49 0 -88 -21.5t-67 -55.5t-44.5 -77t-24.5 -84z" />
<glyph unicode="&#x222b;" horiz-adv-x="636" d="M78 -219l24 94q35 -14 57.5 -18t49.5 -4q51 0 79.5 17t40 48t10.5 72t-7 88l-146 1071q-8 66 -0.5 125t35 105t78.5 73t131 27q41 0 66.5 -6.5t68.5 -20.5l-24 -94q-35 14 -57.5 18t-49.5 4q-53 0 -81.5 -17t-41 -48t-12.5 -72t6 -88l146 -1071q8 -66 1.5 -125 t-33 -105.5t-76.5 -73t-130 -26.5q-41 0 -66.5 6.5t-68.5 20.5z" />
<glyph unicode="&#x2248;" d="M102 293q0 98 24 160.5t61.5 97.5t87 47t98.5 12q76 0 138 -39t118.5 -86t109 -86t109.5 -39q82 0 119 48.5t37 171.5h102q0 -98 -22.5 -162t-60.5 -98.5t-86 -48t-97 -13.5q-76 0 -138.5 40t-119 87t-109.5 87t-108 40q-82 0 -120 -49t-38 -170h-105zM102 768 q0 98 24 160.5t61.5 97.5t87 47t98.5 12q76 0 138 -38.5t118.5 -86t109 -86t109.5 -38.5q82 0 119 48t37 171h102q0 -98 -22.5 -162t-60.5 -98.5t-86 -48t-97 -13.5q-76 0 -138.5 40t-119 87t-109.5 87t-108 40q-82 0 -120 -49t-38 -170h-105z" />
<glyph unicode="&#x2260;" d="M166 412v112h276l209 346h-485v113h551l125 207h119l-125 -207h211v-113h-277l-209 -346h486v-112h-553l-123 -209h-119l125 209h-211z" />
<glyph unicode="&#x2264;" d="M162 0v111h909v-111h-909zM162 649v90l909 437v-121l-770 -359l770 -356v-127z" />
<glyph unicode="&#x2265;" d="M141 0v111h910v-111h-910zM141 213v125l764 352l-764 365v121l910 -437v-90z" />
<glyph unicode="&#x25ca;" horiz-adv-x="1204" d="M92 731l451 731h129l446 -731l-446 -731h-129zM227 731l377 -620l383 620l-383 623z" />
<glyph unicode="&#x25fc;" horiz-adv-x="1054" d="M0 0v1055h1055v-1055h-1055z" />
</font>
</defs>
</svg>
