<svg width="23" height="23" viewBox="0 0 23 23" fill="none" xmlns="http://www.w3.org/2000/svg"><path d="M20.98 13.796L16.575 9.39a5.028 5.028 0 00-1.802-1.162 5.029 5.029 0 00-1.163-1.802L9.204 2.02A5.047 5.047 0 005.612.532 5.047 5.047 0 002.02 2.02 5.046 5.046 0 00.532 5.612c0 1.357.528 2.633 1.488 3.592l4.406 4.406a5.03 5.03 0 001.802 1.163 5.029 5.029 0 001.162 1.802l4.406 4.405a5.047 5.047 0 003.592 1.488 5.047 5.047 0 003.592-1.488 5.086 5.086 0 000-7.184zM6.915 13.12L2.51 8.715a4.36 4.36 0 01-1.285-3.103A4.36 4.36 0 012.51 2.51a4.36 4.36 0 013.103-1.286A4.36 4.36 0 018.715 2.51l4.406 4.405c.32.32.584.68.788 1.072l-.07-.012-.047-.008a5.054 5.054 0 00-.184-.026l-.018-.002a5.062 5.062 0 00-.382-.031l-.023-.001a5.068 5.068 0 00-.189-.004h-.039c-.06 0-.12.002-.18.004l-.036.001-.019.001a3.478 3.478 0 00-.316-.364L8.085 3.224a3.415 3.415 0 00-2.43-1.007c-.936 0-1.81.37-2.463 1.04-1.305 1.339-1.276 3.52.064 4.86l4.29 4.29c.112.111.233.216.36.312l-.001.008.172.114a3.417 3.417 0 00.875.416l.007.002c.032.01.065.02.097.028l.021.006.09.023.029.007.083.018.037.008.071.012.05.009.057.008.065.009.046.005.077.008.036.002.087.006h.026l.097.004h.002l.355-.002v-.01a3.406 3.406 0 002.121-.993 3.405 3.405 0 00.99-2.1l.02.002.087.014.031.005a2.767 2.767 0 01.227.053l.033.01a2.994 2.994 0 01.215.071l.008.003.108.045.028.013.08.037.03.016c.03.014.058.03.086.045l.014.007a4.392 4.392 0 01-7.448 2.493zm4.986-5.102a5.095 5.095 0 00-2.51 1.371A5.089 5.089 0 008.019 11.9L3.746 7.628c-1.075-1.075-1.1-2.82-.059-3.889a2.724 2.724 0 011.967-.83c.733 0 1.423.286 1.941.804l4.306 4.306zM10.3 12.7c.07-.61.341-1.175.783-1.616a2.722 2.722 0 011.618-.784 2.719 2.719 0 01-.784 1.617 2.723 2.723 0 01-1.617.783zm4.68-1.601l4.274 4.274c1.075 1.074 1.101 2.818.059 3.888-.522.535-1.22.83-1.967.83a2.727 2.727 0 01-1.941-.804l-4.306-4.306a5.088 5.088 0 002.51-1.371 5.088 5.088 0 001.372-2.511zm5.51 9.392a4.36 4.36 0 01-3.102 1.285 4.36 4.36 0 01-3.103-1.285L9.88 16.085a4.36 4.36 0 01-.79-1.072l.07.012.049.008c.06.01.12.019.182.026l.027.003a4.865 4.865 0 00.362.03l.039.002c.06.002.12.003.181.003h.128l.137-.005h.013c.096.127.202.25.316.363l4.322 4.321a3.414 3.414 0 002.43 1.007 3.41 3.41 0 002.462-1.039c1.305-1.34 1.276-3.52-.064-4.86l-4.29-4.29a3.474 3.474 0 00-.36-.312l.001-.008-.171-.115a3.643 3.643 0 00-.104-.066l-.038-.022-.068-.04-.056-.03-.052-.029-.067-.033-.042-.02-.072-.033c-.013-.006-.026-.013-.04-.018l-.074-.031-.039-.016c-.024-.01-.05-.018-.074-.027l-.04-.015-.075-.025-.041-.013-.075-.022-.043-.012-.07-.018-.048-.012-.067-.014-.053-.011-.063-.011-.058-.01-.057-.009-.065-.009-.051-.005-.072-.007-.045-.003-.078-.006h-.04l-.08-.004h-.053c-.918 0-1.781.357-2.43 1.006a3.405 3.405 0 00-.99 2.1 1.438 1.438 0 01-.106-.016l-.033-.006a2.723 2.723 0 01-.113-.023l-.008-.002a2.7 2.7 0 01-.104-.027l-.034-.01a2.754 2.754 0 01-.08-.024l-.034-.011a2.853 2.853 0 01-.099-.036l-.01-.004a2.804 2.804 0 01-.215-.094l-.032-.016a2.51 2.51 0 01-.084-.044l-.015-.008a4.392 4.392 0 017.448-2.493l4.406 4.405a4.393 4.393 0 010 6.206zM19.434 3.075l-2.608 2.609.49.489 2.608-2.608-.49-.49zM13.545 0h-.692v3.689h.692V0zM23 9.455h-3.69v.692H23v-.692zM5.683 16.826l-2.608 2.608.49.49 2.608-2.609-.49-.49zm-1.994-3.972H0v.692h3.689v-.692zm6.458 6.457h-.692V23h.692v-3.69z" fill="#FF9800"/></svg>