<svg width="23" height="28" viewBox="0 0 23 28" fill="none" xmlns="http://www.w3.org/2000/svg"><rect x=".5" y=".5" width="18" height="21" rx="1.5" stroke="#5C70CF"/><path d="M4.758 6.516A1.76 1.76 0 013 4.758a1.76 1.76 0 013.516 0 1.76 1.76 0 01-1.758 1.758zm0-2.344a.587.587 0 10.001 1.173.587.587 0 00-.001-1.173zm11.111 1.172H8.245a.586.586 0 110-1.172h7.624a.586.586 0 110 1.172zM4.758 11.262A1.76 1.76 0 013 9.504c0-.97.789-1.758 1.758-1.758.97 0 1.758.789 1.758 1.758a1.76 1.76 0 01-1.758 1.758zm0-2.344a.587.587 0 10.001 1.174.587.587 0 00-.001-1.174zm8.76 1.172H8.245a.586.586 0 110-1.172h5.273a.586.586 0 110 1.172zm-8.76 5.86A1.76 1.76 0 013 14.19a1.759 1.759 0 013.516 0 1.76 1.76 0 01-1.758 1.758zm0-2.345a.587.587 0 10.001 1.174.587.587 0 00-.001-1.174zm11.111 1.172H8.245a.586.586 0 110-1.171h7.624a.586.586 0 110 1.171z" fill="#5C70CF"/><path d="M22.25 22.933a.5.5 0 000-.866L15.5 18.17a.5.5 0 00-.75.433v7.794a.5.5 0 00.75.433l6.75-3.897z" fill="#FEFEFE" stroke="#5C70CF" stroke-linejoin="round"/></svg>