<svg width="30" height="30" viewBox="0 0 30 30" fill="none" xmlns="http://www.w3.org/2000/svg"><g clip-path="url(#clip0)" fill="#5C70CF"><path d="M20.278 9.066v1.214a.44.44 0 10.88 0V9.066c0-.244.197-.442.441-.442h1.454c.009 0 .016.007.016.016v.881a.016.016 0 01-.016.016h-.455a.44.44 0 00-.44.44v2.056c0 .243.197.44.44.44h3.878a.44.44 0 00.44-.44V9.976a.44.44 0 00-.44-.44h-.456a.016.016 0 01-.015-.015V8.64c0-.01.007-.016.015-.016h1.455c.243 0 .442.198.442.442v4.496h-6.76v-1.35a.44.44 0 00-.879 0v1.35h-7.39a14.049 14.049 0 00-2.203-3.06.44.44 0 00-.636.607c.74.774 1.39 1.662 1.94 2.642-.427.244-.72.7-.73 1.222-.007.382.14.744.412 1.022.096.098.205.18.322.248-1.997 3.555-5.168 5.47-7.208 5.47-2.154 0-3.906-1.63-3.906-3.633 0-1.05.489-2.048 1.341-2.739a.44.44 0 000-.682c-.852-.691-1.341-1.69-1.341-2.74 0-2.002 1.752-3.632 3.906-3.632 1.107 0 2.555.592 3.873 1.582a.44.44 0 00.528-.703c-1.487-1.117-3.09-1.757-4.401-1.757C2.147 7.409 0 9.432 0 11.919A4.37 4.37 0 001.29 15 4.37 4.37 0 000 18.08c0 2.488 2.147 4.512 4.785 4.512 2.396 0 5.93-2.114 8.103-6.154h3.647a.44.44 0 100-.879h-3.812a.6.6 0 01-.425-.18.537.537 0 01-.16-.39.562.562 0 01.56-.548h16.275c.082 0 .148.066.148.148v.822a.148.148 0 01-.148.148H18.468a.44.44 0 100 .88h10.505A1.03 1.03 0 0030 15.411v-.822c0-.566-.46-1.027-1.027-1.027h-.177V9.066c0-.729-.593-1.321-1.321-1.321H26.02a.896.896 0 00-.894.895v.881c0 .493.401.895.894.895h.016v1.177h-2.999v-1.177h.016a.896.896 0 00.895-.895V8.64a.896.896 0 00-.895-.895H21.6c-.728 0-1.32.592-1.32 1.32z"/><path d="M6.392 17.411a2.413 2.413 0 002.411-2.41 2.414 2.414 0 00-2.41-2.412A2.414 2.414 0 003.98 15a2.414 2.414 0 002.411 2.411zm0-3.943c.845 0 1.532.687 1.532 1.532s-.687 1.532-1.532 1.532A1.534 1.534 0 014.86 15c0-.845.687-1.532 1.532-1.532z"/></g><defs><clipPath id="clip0"><path fill="#fff" transform="rotate(-90 15 15)" d="M0 0h30v30H0z"/></clipPath></defs></svg>