<svg width="30" height="30" viewBox="0 0 30 30" fill="none" xmlns="http://www.w3.org/2000/svg"><path d="M15.693 9.737a.974.974 0 10-1.376 0c.38.38.995.38 1.376 0zM13.255 7.3a.5.5 0 11-.706-.707 3.477 3.477 0 014.912 0 .5.5 0 01-.707.707 2.477 2.477 0 00-3.499 0zm-2.714-2.008a.5.5 0 010-.706 6.308 6.308 0 018.927 0 .5.5 0 01-.707.706 5.31 5.31 0 00-7.513 0 .5.5 0 01-.707 0zm16.328 21.49a5.322 5.322 0 01-6.347-1.515.5.5 0 01.78-.626 4.323 4.323 0 005.155 1.231 4.303 4.303 0 002.3-5.366l-2.631-7.54a5.32 5.32 0 00-3.505-3.35 27.097 27.097 0 00-2.432-.594.5.5 0 11.192-.981c.847.166 1.695.373 2.522.617a6.322 6.322 0 014.167 3.98l2.631 7.538a5.325 5.325 0 01-2.832 6.607zM7.476 16.974v-1.527H5.95a.5.5 0 010-1h1.527v-1.528a.5.5 0 111 0v1.528h1.528a.5.5 0 110 1H8.476v1.527a.5.5 0 11-1 0zm14.422.906a.906.906 0 000-1.81.906.906 0 000 1.81zm-2.933-2.933a.906.906 0 001.811 0 .906.906 0 00-1.81 0zm2.933-1.122a.906.906 0 000-1.811.906.906 0 000 1.81zm2.933 1.122a.906.906 0 00-1.81 0 .906.906 0 001.81 0zm-14.137 3.987a2.375 2.375 0 00-1.242 4.397c-.18.366-.693 1.91-2.546 2.631-3.384 1.32-6.89-1.915-5.654-5.455l2.631-7.539a5.34 5.34 0 013.53-3.357 27.174 27.174 0 012.672-.639.5.5 0 10-.182-.983 28.03 28.03 0 00-2.77.663 6.342 6.342 0 00-4.193 3.987L.308 20.176c-1.501 4.3 2.752 8.357 6.961 6.717 2.262-.882 2.87-2.728 3.134-3.23a2.376 2.376 0 002.665-2.355 2.377 2.377 0 00-2.374-2.375zm0 3.75a1.376 1.376 0 01-1.375-1.375c0-.758.617-1.375 1.375-1.375s1.374.617 1.374 1.375-.616 1.374-1.374 1.374zm10.996-1.375a2.377 2.377 0 00-2.374-2.375c-.977 0-1.818.593-2.182 1.439-.988-.321-1.68-.284-2.466-.284a.5.5 0 000 1c.748 0 1.38-.041 2.275.275a2.377 2.377 0 002.373 2.319 2.377 2.377 0 002.374-2.374zm-2.374 1.374a1.376 1.376 0 01-1.375-1.374c0-.758.617-1.375 1.375-1.375s1.375.617 1.375 1.375-.617 1.374-1.375 1.374z" fill="#FF9800"/></svg>