<svg width="26" height="26" viewBox="0 0 26 26" fill="none" xmlns="http://www.w3.org/2000/svg"><g clip-path="url(#clip0)" fill="#FF9800"><path d="M24.76 15.229h-.389v-3.505c0-.555-.276-1.046-.697-1.344v-.477c0-.693-.564-1.256-1.256-1.256h-.29l1.111-1.63a1.201 1.201 0 00-.316-1.668L15.381.209a1.191 1.191 0 00-.9-.188c-.314.06-.587.239-.768.504l-6.51 9.553H5.392l.437-4.425a.131.131 0 01.082-.11 2.817 2.817 0 001.374-1.116.13.13 0 01.123-.058l2.842.28a.37.37 0 00.073-.737l-2.842-.28a.867.867 0 00-.82.397 2.07 2.07 0 01-1.011.82.866.866 0 00-.559.731l-.444 4.498h-.472l.69-6.998a.46.46 0 01.503-.412l5.742.567a.37.37 0 00.073-.737L5.44 1.931a1.201 1.201 0 00-1.312 1.076l-.558 5.64h-.948c-.693 0-1.256.563-1.256 1.256v.325c-.566.26-.96.833-.96 1.496v12.63c0 .907.738 1.646 1.646 1.646h20.672c.908 0 1.646-.739 1.646-1.647V20.85h.39a.833.833 0 00.832-.833v-3.954a.834.834 0 00-.832-.833zm-2.342-5.84c.284 0 .515.23.515.514v.188a1.656 1.656 0 00-.208-.013h-1.572l.47-.69h.795zM14.326.941a.456.456 0 01.637-.121l7.543 5.14a.46.46 0 01.121.638l-2.37 3.479h-.57l1.163-1.706a.866.866 0 00.04-.919 2.07 2.07 0 01-.248-1.278.867.867 0 00-.375-.831l-3.91-2.665a.866.866 0 00-.911-.044 2.071 2.071 0 01-1.28.236.877.877 0 00-.84.374l-4.657 6.833h-.57L14.327.942zm.163 6.291a3.057 3.057 0 00-3.046 2.845H9.565l4.373-6.416a.132.132 0 01.125-.057 2.817 2.817 0 001.741-.322.13.13 0 01.136.009l3.91 2.664c.04.028.063.076.057.123a2.816 2.816 0 00.338 1.738.132.132 0 01-.008.138l-1.446 2.123h-1.256a3.057 3.057 0 00-3.046-2.845zm2.303 2.845h-4.606a2.315 2.315 0 012.303-2.104c1.205 0 2.197.926 2.303 2.104zM2.108 9.903c0-.284.23-.515.515-.515h.875l-.068.69H2.108v-.175zm-.96 1.821c0-.5.406-.905.905-.905h20.672c.5 0 .905.406.905.905v1.028H1.148v-1.028zm22.482 12.63a.906.906 0 01-.905.905H2.053a.907.907 0 01-.905-.906v-1.028h1.997a.37.37 0 100-.74H1.148v-9.092H23.63v1.736h-3.522c-1.11 0-2.071.647-2.528 1.583l-.004.01-.012.024a2.806 2.806 0 00-.14.358v.001a2.813 2.813 0 002.684 3.643h3.522v1.736H5.518a.37.37 0 000 .741H23.63v1.028zm1.222-4.338c0 .05-.04.092-.091.092h-4.653a2.07 2.07 0 01-1.819-3.055 2.07 2.07 0 011.819-1.083h4.652c.051 0 .092.041.092.092v3.954z"/><path d="M20.195 16.536a1.504 1.504 0 10.001 3.007 1.504 1.504 0 00-.001-3.007zm0 2.265a.763.763 0 11.001-1.526.763.763 0 01-.001 1.526z"/></g><defs><clipPath id="clip0"><path fill="#fff" d="M0 0h26v26H0z"/></clipPath></defs></svg>