<svg width="142" height="124" viewBox="0 0 142 124" fill="none" xmlns="http://www.w3.org/2000/svg"><path d="M84.5 33.611L74.192 41.23m66.326-20.167h-11.771c-4.957 0-9.913 6.343-13.63 10.782-3.717 4.44-19.825 6.977-24.781 7.611-4.957.634-17.347 10.148-18.586 8.245-.434-.581-.67-1.088-.758-1.541" stroke="#2D2C2C" stroke-width="1.6" stroke-linecap="round"/><path d="M52.734 48.63c6.474-.989 14.733-2.059 18.053-2.47-1.245 8.025 9.96 19.137 6.225 27.78-3.735 8.643-14.317 6.791-18.053 3.704-2.988-2.469-2.905-9.26-2.49-12.347-.65 1.478-2.345 4.847-7.372 5.51-4.832.639-12.548-.57-12.548-9.831 0-9.26 8.093-11.112 16.185-12.347z" fill="#F53"/><path d="M1.592 99.599c1.492-.982 17.199-2.046 24.866-2.455 3.523-2.863 12.806-7.977 21.758-5.522 11.19 3.068 16.785 6.75 25.488 5.522 8.704-1.227 17.407-4.295 18.65 0 1.243 4.295-14.92 6.75-18.65 7.363-3.73.614-11.19 4.295-14.298 7.363m9.947-4.908c2.9 1.227 9.822 3.313 14.298 1.84 5.595-1.84 19.271-15.34 21.758-15.34 2.487 0 5.595 0 4.352 1.841-1.244 1.841-16.164 19.022-17.407 19.635-1.243.614-19.893 6.75-25.488 7.364-5.595.613-26.11-5.523-34.191-5.523-6.465 0-14.713 1.636-18.028 2.455" stroke="#2D2C2C" stroke-width="1.6" stroke-linecap="round"/><path d="M73.325 97.281c-.82-3.177-1.844-10.168.615-12.71 3.074-3.178 3.074 10.168 4.919 11.44m4.304-.636c-1.845-4.237-4.673-13.728-1.23-17.795 1.23-1.907 3.689 3.813 4.304 6.99.492 2.543 1.844 6.144 2.46 7.627m.614 2.542c-.205-4.237-.246-13.6 1.23-17.16 1.844-4.448 4.918.001 4.918 4.45 0 4.448 1.23 15.252-1.844 19.701m28.978-99.079c-5.612 0-26.81-2.47-29.927-.617-.908.54-2.239 1.917-3.654 3.705m23.273 8.602c-4.157.412-12.387-2.055-13.384-3.043-1.247 1.852-10.6 8.646-10.6 9.881 0 1.235 8.106 12.97 4.365 12.97-.575 0-1.208-.233-1.87-.644M89.011 5.74c-3.444 4.353-7.387 11.14-6.945 14.205.528 3.66 5.075 11.3 8.728 13.561M89.012 5.74c-2.206-.54-6.914-.23-10.063 4.483m11.846 23.283c-.415.42-1.365 1.899-3.606 1.003-3.622-1.45-8.08-5.106-11.357-7.53m3.117-16.756a14.535 14.535 0 00-1.246 2.31c-3.741 8.647-4.365 12.97-3.118 13.588.196.097.637.407 1.247.858m3.117-16.756c-1.971.8-5.337 2.712-7.456 5.399m4.34 11.357c-.417 2.39-1.248 8.035-1.248 11.494 0 4.323-4.988 9.881-5.611 6.793-.467-2.31-.235-11.885.172-19.145m2.347-10.5c-1.009 1.278-1.735 2.732-1.896 4.324-.157 1.554-.313 3.734-.45 6.176m2.346-10.5c-4.58 1.03-12.386 3.375-13.883 6.34-2.304 4.563-8.48 13.486-7.233 16.574 1.086 2.69 6.702-4.073 9.727-7.928 1.409-1.795 2.91-4.118 3.117-4.94l5.925.454" stroke="#2D2C2C" stroke-width="1.6" stroke-linecap="round"/></svg>