<svg width="223" height="161" viewBox="0 0 223 161" fill="none" xmlns="http://www.w3.org/2000/svg"><path d="M123.032 74.456L96.036 90.042m78.689-45.431l26.996-15.586M164.829 85.17l7.295 12.636m-37.14-64.329l-11.441-19.816" stroke="#F53" stroke-width="1.6" stroke-linecap="round"/><circle cx="150.731" cy="59.193" r="22.745" transform="rotate(-75 150.731 59.193)" fill="#F53" stroke="#F53" stroke-width="1.6" stroke-linecap="round"/><path d="M180.6 66.877l30.11 8.068m-87.767-23.517L92.834 43.36m65.787-13.613l3.776-14.093m-19.225 71.75l-5.922 22.101" stroke="#F53" stroke-width="1.6" stroke-linecap="round"/><path d="M102.672 68.492c0-17.831-11.841-20.69-14.852-20.562 1.372-3.539-1.909-9.365-8.66-8.077-6.751 1.287-9.992 0-15.395.001-24.052-.62-35.016 16.835-37.287 31.882-1.241 8.224.677 26.791-17.168 48.671-14.276 17.503-8.77 36.169 5.82 40.189h49.887c-1.344-6.051-5.863-14.742-2.793-23.431 5.901-16.695 6.404-25.344 4.783-34.146h4.806c1.556-2.551 4.5-5.067 3.826 5.281-.841 12.935 1.503 15.007 4.794 17.839 3.291 2.831 15.182 5.046 22.377 5.122 7.194.077 10.735 2.337 11.883 3.868-.46-2.296 3.548-13.957-4.459-23.308-10.263-11.986-7.562-28.833-7.562-43.329z" fill="#2D2C2C"/><path d="M88.648 67.928c.749-4.385-2.563-9.025-4.313-10.797.207 11.416-15.084 20.811-21.486 22.986-.934-3.451-4.376-5.059-7.076-3.547-6.76 4.042 1.47 14.473 3.088 14.85 1.295.301 2.336-.673 2.694-1.197 1.358 2.693 4.328 8.992 5.342 12.642 1.268 4.563 15.184 4.628 18.611 5.115 3.428.487 5.502-1.587 6.357-3.81.856-2.224-1.864-5.368.242-6.163 1.504-.569 1.46-2.542.628-2.412-.058-.08-.09-.143-.148-.208.122-.095.033-.194.148-.372.67-.26.732-1.443-.14-2.45-1.166-1.343-1.167-2.96-1.022-3.6.737-.397 2.473-1.54 3.516-2.925 1.305-1.732-1.387-3.234-3.114-4.902-4.164-4.908-4.262-7.73-3.327-13.21z" fill="#fff"/><path d="M83.456 80.469c-4.29 1.457-6.586-.86-7.925-2.103 1.068.48 3.008 1.647 4.735 1.565 1.727-.08 4.194-1.65 4.898-2.31l1.506.604c.231.206-.008 1.155-3.214 2.244z" fill="#2D2C2C"/><path d="M112.559 131.937c4.711 3.818 14.133 14.926 14.133 28.81" stroke="#2D2C2C" stroke-width="1.6"/><path d="M93.1 94.86c-4.07 1.812-8.723-.74-8.946-.89 2.782 1.935 6.088 2.806 8.611 1.614l.335-.724z" fill="#2D2C2C"/></svg>