<svg width="144" height="146" viewBox="0 0 144 146" fill="none" xmlns="http://www.w3.org/2000/svg"><path d="M130.127 47.597c1.511-12.352-4.572-15.167-7.802-15.03 1.472-3.797-1.961-7.873-9.293-8.667-5.866-.636-12.547-4.135-15.154-5.805-3.324-2.08-11.67-6.24-18.463-6.24-25.81-.667-35.528 22.65-37.966 38.797-1.332 8.826-4.662 24.977-23.811 48.456C2.318 117.891.043 135.686.82 142.235h76.597c-1.444-6.494-6.293-15.82-2.998-25.143 6.333-17.916 8.54-33.698 8.73-36.642h1.56c1.67-2.738 4.829-5.438 4.106 5.667-.903 13.88.247 18.315 3.778 21.354 3.532 3.039 17.658 3.203 25.379 3.285 7.72.082 11.909 1.643 13.141 3.285-.493-2.464-2.3-11.252-5.175-24.146-2.874-12.895 2.3-26.857 4.189-42.298z" fill="#2D2C2C"/><path d="M117.397 52.01c2.274-4.198.51-10.056-.656-12.46-3.73 11.67-22.51 15.94-29.765 15.94.242-3.83-2.7-6.651-5.966-6.047-8.263 1.774-3.501 15.213-1.987 16.154 1.211.753 2.605.123 3.15-.286.45 3.205 1.293 10.63 1.064 14.69-.286 5.073 13.83 9.943 17.145 11.62 3.315 1.678 6.138.287 7.775-1.677 1.636-1.964-.042-6.097 2.373-6.179 1.931-.065 1.732-1.691 1.391-2.496.627-.218 1.702-1.097.982-2.864-.721-1.768-.164-3.41.204-4.01.887-.15 3.045-.712 4.583-1.76 1.923-1.31-.293-3.764-1.473-6.056-2.536-6.424-1.662-9.324 1.18-14.57z" fill="#fff"/><path d="M128.693 111.777c3.324 2.2 10.7 11.992 13.621 33.561" stroke="#2D2C2C" stroke-width="2"/><path d="M107.789 62.96c-4.862 0-6.395-3.148-7.326-4.872.919.856 2.488 2.71 4.271 3.224 1.782.514 4.83-.228 5.774-.656l1.322 1.133c.163.29-.408 1.17-4.041 1.17z" fill="#2D2C2C"/><mask id="a" fill="#fff"><path d="M90.275 50.31a.339.339 0 00.074.012c.659.024 1.42-1.382 2.06-1.485.177-.03.38-.004.593.047.29.07.603.184.9.256.274.066.536.095.748.012.616-.232 1.05-1.213 1.606-1.56.556-.348-.16-2.255.323-2.71.481-.45 1.011-.507 1.405-1.05.382-.535 1.794-.357 2.073-.967.268-.59 1.495-1.011 1.654-1.673.159-.66-1.89-1.635-1.86-2.288.03-.67 1.057-1.313.961-1.963-.099-.661.497-1.61.273-2.228-.223-.625-.378-1.513-.715-2.075-.337-.562-1.563-.622-2.001-1.108-.438-.486-1.14-.694-1.672-1.085-.523-.383-1.183-.447-1.78-.725a.86.86 0 00-.158-.055c-.55-.132-1.19.268-1.782.126-.648-.157-1.094.072-1.737.052-.027-.001-.053-.008-.079-.014-.581-.14-1.16-1.521-1.726-1.657a.45.45 0 00-.147-.008c-.651.106-1.23.661-1.84.89-.615.232-1.761-.391-2.317-.043-.556.347-.019 2.245-.502 2.7-.481.449-1.287.49-1.676 1.034-.382.535-1.174.86-1.452 1.47-.27.595-.28 1.342-.438 2.003-.16.662.854 1.381.823 2.034-.03.67-.669 1.25-.566 1.895.099.662-.517 1.532-.298 2.15.076.209.325.319.636.394.353.085.787.128 1.146.214.28.067.51.162.612.332.337.562.672.81 1.115 1.298.438.486.51 1.034 1.04 1.43.13.1.27.155.41.189.338.081.694.038 1.052.124.088.022.18.05.269.093.578.268.555 1.846 1.204 2.002.623.15 1.162 1.79 1.77 1.937z"/></mask><path d="M87.905 47.333l-.949.315v.001l.95-.316zm-.585-1.014l.423-.906-.015-.006-.015-.007-.393.92zm-.834-.161l.058-.998-.011-.001-.047.999zm-.888-.236l.595-.804-.003-.002-.592.806zm-.599-.776l.881-.474-.004-.007-.003-.007-.874.487zm-.432-.647l-.74.672.004.004.736-.676zm-.368-.386l-.719.696.004.004.715-.7zm-.738-.904l.858-.515-.858.514zm-2.392-.923l.945-.328-.005-.013-.94.341zm.131-1.116l.955.297.002-.006-.957-.29zm.17-1.027l.991-.138-.001-.009-.002-.009-.987.156zm.27-.982l-.898-.44-.002.003.9.437zm-.124-1.882l-.834.552.002.004.832-.556zm-.262-1.787l.988.15-.988-.15zm.3-1.248l-.91-.414-.003.006.913.408zm.782-.83l.617.787.003-.003-.62-.785zm.668-.629l.81.587v-.002l-.81-.585zm.88-.577l-.395-.919h-.002l.397.919zm.788-.448l.682.731.007-.006-.689-.725zm.242-1.37l1-.004v-.004l-1 .009zm.252-1.32l.52.854.01-.007-.53-.848zm1.181-.002l.195-.98-.008-.002-.187.982zm1.126.047l.348.937.004-.001-.353-.936zm.748-.396l.52.855.002-.002-.522-.853zm1.08-.49l.163.986.011-.002-.175-.984zm.947.81l-.797.604.001.001.796-.605zm1 .867l-.036 1h.008l.027-1zm.715-.052l.137.99-.137-.99zm1.953-.061l-.21-.978-.008.002.218.976zm.98-.011l-.443.897.012.006.43-.903zm.727.265l.3-.954-.003-.002-.297.956zm1.043.458l-.6.8.007.005.593-.805zm.692.412l.466-.884-.466.884zm.971.665l.743-.67-.003-.003-.74.673zm.97.508l.34-.941-.34.94zm1.027.593l-.857.515.857-.514zm.49 1.344l-.964.265.004.014.96-.28zm.216.723l-.948.319.004.01.004.012.94-.34zm-.121 1.163l-.963-.27-.002.009.965.261zm-.155 1.054l.989-.152-.001-.007-.988.16zm-.461.98l-.79-.612-.002.003.792.61zm.438 2.109l-.641.768.008.007.01.007.623-.782zm.075 2.016l-.585-.812-.004.004.589.808zm-.802.775l.908.42.004-.01-.912-.41zm-1.026.497l-.217-.976-.005.001.222.975zm-1.039.461l.814.582v-.001l-.814-.58zm-.754.602l-.49-.872.49.872zm-.638.44l.679.734.01-.01-.69-.724zm-.154 1.39l.997-.083v-.009l-.997.092zm-.876 2.044l-.778-.628-.002.003.78.625zm-.884.822l.345.94.007-.004-.352-.936zm-1.169-.14l-.301.953.016.005.017.005.268-.964zm-1.066-.179l-.145-.99-.01.002-.011.002.166.986zm-.986.742l.714.7.004-.004-.718-.696zm-1.064.746l-.234.972.098.024.101.003.035-1zm-1.597-2.924c.141.034.23.106.27.145.032.034.034.047.012.007a1.609 1.609 0 01-.078-.183 8.91 8.91 0 01-.103-.3l-1.898.632c.067.201.169.516.311.786.13.245.426.715 1.018.857l.468-1.944zm.101-.33c-.065-.197-.16-.49-.29-.75-.124-.247-.364-.641-.82-.855l-.848 1.812a.426.426 0 01-.142-.102c-.01-.012-.001-.005.022.042.023.044.049.107.08.193.032.086.063.179.1.29l1.898-.63zm-1.14-1.618a2.726 2.726 0 00-.44-.148l-.467 1.944a.746.746 0 01.12.043l.786-1.839zm-.44-.148c-.287-.07-.559-.083-.73-.093l-.117 1.997c.197.012.293.02.38.04l.468-1.944zm-.741-.093a1.783 1.783 0 01-.31-.031l-.468 1.944c.255.061.505.076.683.085l.095-1.998zm-.31-.031a.158.158 0 01-.03-.01c-.001 0 0 0 0 0l-1.19 1.607c.229.17.483.282.752.347l.468-1.944zm-.033-.012c-.092-.067-.15-.147-.31-.444l-1.761.947c.15.282.39.744.886 1.108l1.185-1.61zm-.317-.458c-.108-.193-.284-.526-.57-.836l-1.472 1.353c.098.107.165.224.295.458l1.747-.975zm-.566-.832c-.145-.16-.284-.3-.394-.412l-1.429 1.399c.12.122.228.232.343.358l1.48-1.345zm-.39-.408c-.274-.283-.43-.443-.598-.724l-1.716 1.028c.302.504.614.816.877 1.087l1.437-1.391zm-.598-.724c-.311-.518-.861-.716-1.269-.814l-.468 1.944c.059.014.1.027.129.037.028.01.038.017.036.015a.516.516 0 01-.144-.154l1.716-1.028zm-1.269-.814a8.033 8.033 0 00-.66-.122l-.305 1.976c.202.032.363.058.497.09l.468-1.944zm-.66-.122a6.364 6.364 0 01-.487-.087l-.468 1.944c.225.054.463.09.65.12l.306-1.977zm-.487-.087a1.38 1.38 0 01-.125-.036c-.026-.01-.026-.012-.01-.003a.615.615 0 01.245.326l-1.889.656c.13.37.393.602.623.738.221.132.466.21.689.263l.467-1.944zm.106.274c.026.072.004.088.022-.022.019-.111.058-.245.124-.456l-1.91-.593c-.057.184-.14.45-.186.717-.045.269-.072.645.07 1.036l1.88-.682zm.148-.484c.088-.289.284-.877.204-1.456l-1.981.275s.002.012 0 .042a.99.99 0 01-.019.126 4.798 4.798 0 01-.118.432l1.914.58zm.201-1.474c.007.043-.007.05.016-.02.012-.036.03-.083.059-.146.03-.066.063-.134.106-.223l-1.799-.874c-.12.249-.468.87-.357 1.574l1.975-.31zm.18-.386c.117-.24.38-.732.4-1.306l-1.998-.072c-.003.07-.036.166-.198.497l1.795.882zm.4-1.306a2.04 2.04 0 00-.227-.965c-.115-.235-.262-.454-.364-.607l-1.662 1.112c.111.167.182.277.228.372.047.097.024.09.027.016l1.998.072zm-.588-1.568a8.524 8.524 0 01-.154-.237c-.043-.07-.07-.12-.086-.157-.04-.088.017-.013-.02.138l-1.944-.467c-.115.479.025.898.144 1.16.12.261.288.51.392.667l1.668-1.104zm-.26-.256c.07-.29.115-.586.152-.828l-1.977-.301a8.055 8.055 0 01-.119.662l1.945.467zm.153-.829c.07-.461.123-.763.224-.99l-1.826-.816c-.232.52-.315 1.104-.376 1.506l1.978.3zm.221-.984c.032-.07.132-.177.489-.457l-1.234-1.575c-.265.209-.804.608-1.075 1.204l1.82.828zm.492-.46c.217-.172.588-.455.857-.826l-1.62-1.174c-.075.105-.206.217-.477.431l1.24 1.569zm.859-.828a.513.513 0 01.087-.064c.084-.051.19-.1.378-.18l-.793-1.836c-.292.126-.899.36-1.295.91l1.623 1.17zm.463-.243c.24-.103.706-.29 1.076-.636l-1.363-1.463c-.07.064-.19.127-.502.261l.79 1.838zm1.083-.642c.391-.372.484-.874.52-1.158.038-.316.034-.67.033-.94l-2 .008c.001.313.001.525-.019.688-.01.076-.019.103-.018.1.002-.004.027-.072.107-.148l1.377 1.45zm.553-2.103c-.001-.147-.002-.275 0-.396.002-.122.008-.214.017-.283.01-.075.018-.082.006-.053a.617.617 0 01-.251.274l-1.04-1.71a1.391 1.391 0 00-.553.662 2.215 2.215 0 00-.146.572c-.04.322-.035.688-.033.952l2-.018zm-.218-.465a.368.368 0 01-.127.054c-.004 0 .017-.003.073 0 .125.006.28.034.519.08l.373-1.965c-.204-.039-.5-.097-.785-.112-.27-.015-.71-.005-1.113.247l1.06 1.696zm.456.132c.195.039.456.09.715.111.252.02.603.023.954-.108l-.697-1.874c.05-.019.04 0-.095-.011a4.524 4.524 0 01-.487-.08l-.39 1.962zm1.673.002c.357-.135.689-.34.915-.477l-1.037-1.71c-.263.16-.432.258-.583.315l.705 1.872zm.918-.48c.383-.233.575-.332.72-.356l-.326-1.973c-.598.1-1.124.432-1.438.624l1.044 1.706zm.732-.358a.754.754 0 01-.284-.005l.468-1.944a1.29 1.29 0 00-.533-.02l.35 1.97zm-.284-.005a.544.544 0 01-.156-.064l.018.015c.013.012.03.028.05.05.095.102.2.24.348.434l1.594-1.209c-.129-.169-.302-.4-.484-.593-.153-.164-.463-.471-.902-.577l-.468 1.944zm.261.436c.136.179.321.425.521.632.184.19.504.484.95.591l.467-1.944c.076.018.112.046.104.04a.654.654 0 01-.081-.075 5.447 5.447 0 01-.37-.455l-1.59 1.211zm1.47 1.223c.132.032.245.037.29.038l.07-1.999.025.002a.642.642 0 01.083.015l-.468 1.944zm.298.038c.349.01.649-.028.88-.06l-.274-1.982c-.213.03-.377.048-.552.043l-.054 2zm.88-.06c.33-.047.465-.058.639-.016l.467-1.945c-.584-.14-1.064-.065-1.382-.02l.277 1.98zm.639-.016c.573.138 1.12 0 1.395-.06l-.436-1.952a3.291 3.291 0 01-.36.067.415.415 0 01-.132 0l-.468 1.945zm1.386-.059c.158-.034.252-.053.332-.061.076-.009.084 0 .058-.007l.468-1.944c-.518-.125-1.042.006-1.276.057l.418 1.955zm.39-.068a.244.244 0 01-.062-.023l.886-1.793c-.12-.06-.241-.1-.356-.128l-.468 1.944zm-.05-.018c.313.15.635.247.861.318l.594-1.91a4.487 4.487 0 01-.593-.212l-.862 1.805zm.858.316c.417.131.598.196.743.304l1.2-1.599c-.469-.353-1.004-.506-1.343-.612l-.6 1.907zm.75.31c.283.208.588.37.818.492l.933-1.77a4.566 4.566 0 01-.565-.333l-1.186 1.61zm.818.492c.378.199.575.317.698.453l1.48-1.346c-.398-.438-.921-.705-1.245-.876l-.933 1.769zm.695.449c.234.26.519.421.738.526.222.105.461.19.637.253l.678-1.881a5.238 5.238 0 01-.456-.178c-.12-.057-.133-.082-.111-.058l-1.486 1.338zm1.374.78c.226.08.375.136.49.194a.516.516 0 01.077.046c.003.002-.026-.02-.058-.073l1.715-1.029c-.229-.383-.58-.6-.822-.724-.251-.128-.53-.226-.723-.296l-.679 1.881zm.509.167c.131.219.241.579.383 1.094l1.928-.53c-.122-.444-.296-1.093-.596-1.593l-1.715 1.029zm.387 1.108c.068.236.145.517.228.763l1.896-.637c-.065-.193-.122-.403-.204-.684l-1.92.558zm.236.785c-.026-.07-.002-.077-.022.056a4.64 4.64 0 01-.122.496l1.926.54c.055-.194.132-.466.173-.738.04-.265.066-.647-.075-1.035l-1.88.68zm-.146.56c-.045.167-.11.398-.152.627a2.51 2.51 0 00-.025.848l1.975-.318c0 .004-.006-.04.018-.17.023-.128.061-.267.114-.463l-1.93-.523zm-.178 1.469c-.023-.15.037-.222-.003-.148a1.425 1.425 0 01-.092.141c-.047.066-.1.135-.168.222l1.581 1.225c.119-.154.301-.385.435-.632.137-.251.296-.644.224-1.113l-1.977.305zm-.265.218c-.111.144-.275.355-.408.583-.133.23-.283.556-.301.951l1.998.091c-.003.058-.021.055.033-.038.055-.095.134-.2.263-.368l-1.585-1.22zm-.71 1.534c-.027.61.358 1.063.544 1.265.23.25.524.494.755.687l1.282-1.535a6.363 6.363 0 01-.564-.505c-.058-.064-.071-.09-.067-.08a.507.507 0 01.049.26l-1.998-.092zm1.317 1.966c.254.203.445.362.565.492.06.064.062.08.047.05a.644.644 0 01-.035-.434l1.945.468a1.366 1.366 0 00-.124-.934 2.267 2.267 0 00-.366-.51 7.251 7.251 0 00-.786-.696l-1.246 1.564zm.577.108c.016-.066.039-.098.037-.094a.586.586 0 01-.066.07 4.33 4.33 0 01-.435.338l1.169 1.623c.179-.128.428-.307.641-.508.202-.192.49-.511.599-.961l-1.945-.468zm-.468.318c-.162.117-.374.27-.56.438a2.238 2.238 0 00-.565.734l1.824.822c-.018.04-.022.02.075-.067.096-.086.219-.176.404-.311l-1.178-1.616zm-1.12 1.163a.494.494 0 01.139-.182c.026-.02.03-.017-.01 0a1.534 1.534 0 01-.178.056 7.49 7.49 0 01-.287.067l.434 1.953c.2-.045.508-.111.784-.224.264-.107.703-.334.933-.83l-1.816-.84zm-.34-.058c-.194.044-.478.107-.739.207-.255.096-.629.278-.893.649l1.629 1.16a.333.333 0 01-.082.085c-.005.003.01-.007.057-.025.046-.018.108-.037.19-.059.085-.022.174-.042.281-.066l-.444-1.95zm-1.63.854c-.07.098-.14.15-.431.312l.978 1.744c.269-.15.718-.388 1.079-.892l-1.627-1.164zm-.431.312c-.204.114-.53.294-.839.587l1.379 1.45c.104-.1.223-.172.438-.293l-.978-1.744zm-.829.578c-.43.399-.495.948-.511 1.24-.019.33.016.695.041.975l1.992-.183a5.255 5.255 0 01-.036-.684c.004-.072.012-.09.007-.075a.482.482 0 01-.134.195l-1.359-1.468zm-.47 2.207c.012.143.022.27.028.388.007.119.008.209.004.275-.004.072-.012.073.002.034a.65.65 0 01.27-.318l1.061 1.696c.32-.2.476-.492.553-.707.076-.213.1-.424.11-.589.02-.323-.014-.688-.035-.945l-1.993.166zm.305.379c-.434.27-.779.725-.963.954l1.556 1.256c.27-.334.384-.463.467-.514l-1.06-1.696zm-.965.957a5.52 5.52 0 01-.353.415c-.106.106-.138.11-.104.097l.706 1.871c.36-.136.632-.372.819-.56.19-.193.364-.412.492-.572l-1.56-1.251zm-.45.509c.053-.02.082-.016.062-.017a.938.938 0 01-.203-.034l-.468 1.945c.392.094.85.149 1.3-.017l-.69-1.877zm-.141-.05c-.125-.03-.218-.062-.414-.116l-.536 1.927c.103.028.316.093.482.133l.468-1.944zm-.38-.106a7.742 7.742 0 00-.521-.145l-.468 1.945c.129.03.26.067.386.107l.602-1.907zm-.521-.145a2.632 2.632 0 00-.992-.07l.289 1.98c-.011.001.052-.01.235.035l.468-1.945zm-1.013-.066c-.42.07-.747.304-.95.471-.217.178-.425.393-.588.56l1.436 1.393c.18-.186.308-.315.42-.407a.704.704 0 01.093-.067c.01-.006-.018.012-.08.022l-.331-1.972zM90.7 48.826a5.407 5.407 0 01-.45.431c-.056.043-.077.053-.07.049a.465.465 0 01.205-.034l-.07 2c.542.018.962-.279 1.172-.444.24-.19.474-.431.641-.602l-1.428-1.4zm-.116.474l-.062-.015-.468 1.944.062.015.468-1.944zm-.235 1.022l.073-1.999h-.003l-.07 1.999zm2.06-1.485l.319 1.974.007-.001.008-.002-.334-1.971zm2.241.315l-.705-1.871-.012.004-.013.005.73 1.862zm1.929-4.27l-1.365-1.462-.007.006 1.372 1.456zm1.405-1.05l1.619 1.175.005-.007.005-.007-1.629-1.16zm2.073-.967l1.819.83.001-.002-1.82-.828zm-.206-3.961l1.998.094v-.006l-1.998-.088zm.961-1.963l1.979-.293-.001-.002-1.978.295zm.273-2.228l-1.884.673.004.008 1.88-.681zm-4.388-4.268l1.184-1.612-.002-.001-1.182 1.613zm-1.78-.725l-.847 1.812.003.001.843-1.813zm-3.677.123l-.07 1.998h.007l.063-1.998zm-1.952-1.679l-.182-1.992-.07.007-.07.011.322 1.974zm-1.84.89l-.7-1.874-.005.002.706 1.871zM84.63 31.71l1.365 1.462.007-.006-1.372-1.456zm-1.676 1.035l-1.627-1.163-.002.002 1.629 1.16zm-1.452 1.47l-1.82-.832-.002.006 1.822.825zm.385 4.037l-1.998-.094v.006l1.998.088zm-.566 1.895l1.978-.295-.001-.01-.002-.009-1.975.314zm-.298 2.15l-1.885.669.003.008.004.009 1.878-.686zm2.394.94l1.715-1.028-1.715 1.028zm1.115 1.298l1.486-1.339-.006-.007-1.48 1.346zm1.04 1.43l1.207-1.594-.01-.008-1.197 1.603zm1.73.406l-.885 1.793.023.011.022.01.84-1.814zm2.506 5.883c.017.004.219.058.472.067l.14-3.998c.2.007.36.05.324.042l-.936 3.89zm.469.067c.865.031 1.501-.396 1.78-.604.317-.237.597-.524.762-.693.212-.218.306-.315.388-.385.12-.103-.066.105-.478.172l-.638-3.949a2.72 2.72 0 00-.93.339 3.755 3.755 0 00-.546.391c-.261.223-.52.495-.66.639a7.199 7.199 0 01-.268.262.63.63 0 01-.025.02l.009-.006a.974.974 0 01.145-.077c.111-.047.324-.117.608-.107l-.147 3.998zm2.467-1.512a.927.927 0 01-.236.012c-.025-.002-.02-.004.027.008l.935-3.89c-.299-.072-.816-.172-1.394-.074l.668 3.944zm-.21.02c.077.018.168.045.332.095.141.043.352.108.568.16l.936-3.889a6.247 6.247 0 01-.336-.096c-.139-.043-.349-.108-.564-.16l-.935 3.89zm.9.255c.322.078 1.118.255 1.948-.07l-1.46-3.724c.227-.09.405-.089.461-.086.055.002.06.009-.013-.009l-.936 3.89zm1.923-.06a3.3 3.3 0 001.11-.72c.238-.228.438-.473.57-.638.16-.2.232-.294.316-.388.081-.091.064-.053-.036.009l-2.12-3.392a3.891 3.891 0 00-.833.725c-.173.195-.353.425-.447.543a2.874 2.874 0 01-.215.25c-.036.035.047-.058.244-.132l1.411 3.742zm1.96-1.737c.525-.328.806-.789.95-1.15.139-.345.183-.671.2-.894.035-.43-.007-.885-.028-1.136a5.91 5.91 0 01-.037-.583c.002-.038.004.026-.03.143a1.509 1.509 0 01-.421.67l-2.743-2.911a2.496 2.496 0 00-.68 1.136c-.09.31-.115.6-.123.81-.015.4.028.836.048 1.075a9.24 9.24 0 01.028.45v.03a1.196 1.196 0 01.074-.277c.075-.189.257-.514.642-.755l2.12 3.392zm.627-2.943c.026-.025.015-.016.364-.215.314-.18.845-.501 1.296-1.122l-3.237-2.35c.056-.077.125-.098-.044-.001-.135.077-.653.339-1.108.764l2.729 2.924zm1.67-1.35c-.263.368-.574.454-.51.43a4.56 4.56 0 01.398-.097c.196-.044.591-.131.968-.296.378-.165 1.042-.536 1.407-1.335l-3.639-1.662c.226-.494.609-.659.632-.669.022-.01-.012.007-.252.061-.16.036-.528.113-.86.232-.317.113-.948.377-1.401 1.013l3.257 2.322zm2.264-1.301c-.116.256-.259.35-.171.274.077-.066.169-.13.395-.294.177-.128.471-.344.737-.61.26-.26.655-.724.818-1.403l-3.89-.935a1.238 1.238 0 01.22-.464.279.279 0 01.023-.025l-.016.015-.052.042a5.521 5.521 0 01-.192.144c-.134.098-.41.291-.643.49-.223.191-.62.559-.87 1.11l3.641 1.656zm1.779-2.033c.154-.64.004-1.19-.154-1.545a3.195 3.195 0 00-.51-.78c-.293-.337-.661-.642-.881-.825a7.445 7.445 0 01-.516-.45c-.039-.04.002-.006.061.094.053.09.214.395.193.844l-3.996-.188c-.028.612.19 1.09.349 1.36.164.282.359.505.505.657.282.294.637.583.84.754.27.224.382.327.428.38.019.022-.053-.053-.125-.214a1.603 1.603 0 01-.083-1.022l3.889.935zm-1.807-2.668c-.014.315-.134.488-.108.445.028-.046.071-.103.227-.308.115-.15.342-.445.518-.787.181-.353.414-.954.305-1.694l-3.957.586a1.219 1.219 0 01.094-.72c.01-.018-.005.011-.139.187-.092.12-.305.39-.476.674-.172.286-.431.79-.46 1.441l3.996.175zm.941-2.346c.026.17-.005.25.015.149.021-.104.052-.208.12-.456.054-.199.141-.521.183-.867a3.1 3.1 0 00-.143-1.44l-3.76 1.362c-.094-.258-.064-.435-.067-.408a2.656 2.656 0 01-.072.297c-.04.15-.126.445-.182.724a3.568 3.568 0 00-.05 1.23l3.956-.591zm.178-2.606c-.087-.243-.135-.46-.279-.95-.111-.381-.292-.96-.603-1.48l-3.431 2.056.005.01a1.736 1.736 0 01.063.146c.039.102.08.23.128.393.053.18.09.32.152.536.053.189.12.414.198.635l3.767-1.346zm-.882-2.43c-.346-.578-.839-.9-1.151-1.07a6.089 6.089 0 00-.847-.365c-.25-.091-.352-.126-.44-.166-.096-.044.042-.001.207.182l-2.972 2.678c.384.426.84.658 1.108.78.275.125.583.232.736.287a5.56 5.56 0 01.275.107l.017.009a.86.86 0 01-.106-.076 1.24 1.24 0 01-.258-.31l3.431-2.056zm-2.231-1.419c-.463-.514-1.01-.821-1.33-.996-.414-.225-.522-.272-.644-.362l-2.369 3.223c.23.17.455.302.636.403.135.075.394.211.464.25.273.148.296.188.271.16l2.972-2.678zm-1.976-1.36c-.533-.39-1.086-.58-1.43-.691-.424-.137-.538-.163-.689-.233l-1.687 3.626c.247.115.481.2.671.262l.265.085c.082.025.147.045.21.066.268.086.306.12.296.112l2.364-3.226zm-2.116-.923a2.861 2.861 0 00-.536-.187l-.936 3.889a1.122 1.122 0 01-.221-.078l1.693-3.624zm-.536-.187a3.216 3.216 0 00-1.12-.06c-.267.031-.523.09-.647.116a2.64 2.64 0 01-.234.046c-.01 0 .08-.01.22.023l-.936 3.889a3.33 3.33 0 001.12.067c.28-.028.54-.086.678-.116.178-.039.223-.047.25-.05.012-.001-.098.014-.267-.026l.936-3.89zm-1.782.125a4.26 4.26 0 00-1.594-.064c-.408.052-.435.065-.547.062l-.127 3.998c.531.017 1.048-.075 1.185-.093.1-.012.135-.014.149-.013h.002l-.004-.001.936-3.889zm-2.134-.002c.115.004.206.018.258.028l.06.013-.936 3.889c.005 0 .067.016.139.03.078.014.195.032.338.037l.14-3.997zm.318.04c.442.107.633.358.541.263a4.79 4.79 0 01-.284-.357c-.125-.164-.339-.45-.573-.697a3.53 3.53 0 00-.499-.441 2.612 2.612 0 00-.911-.425l-.936 3.889a1.393 1.393 0 01-.486-.215c-.066-.048-.091-.078-.071-.057.052.055.125.148.289.364.127.168.343.455.582.705.199.208.68.684 1.412.86l.936-3.888zm-1.726-1.657a2.445 2.445 0 00-.797-.055l.365 3.984a1.561 1.561 0 01-.504-.04l.936-3.889zm-.936-.037c-.738.12-1.334.473-1.64.656-.425.254-.495.303-.58.334l1.403 3.746c.296-.11.552-.247.744-.356.167-.096.39-.233.484-.29.299-.178.318-.156.232-.142l-.643-3.948zm-2.224.992c.28-.105.463-.066.361-.076-.089-.01-.191-.03-.46-.081a5.776 5.776 0 00-.943-.12c-.366-.012-1.006.02-1.63.41l2.12 3.391c-.178.112-.34.16-.444.18a.703.703 0 01-.166.016c-.006 0 .015 0 .075.01.059.008.131.021.234.04.165.032.5.102.816.134.304.03.86.06 1.449-.161l-1.412-3.743zm-2.672.133a2.435 2.435 0 00-.92 1.059c-.146.319-.21.625-.243.842-.063.418-.057.864-.055 1.12.003.336.003.492-.008.599-.005.043-.005-.004.028-.1.03-.091.129-.339.385-.58l2.743 2.911c.377-.355.564-.762.66-1.045.098-.289.14-.561.161-.765.041-.387.033-.813.03-1.052a9.33 9.33 0 01.008-.451l.002-.03.001-.01a.325.325 0 01-.011.053 1.107 1.107 0 01-.065.175 1.567 1.567 0 01-.596.665l-2.12-3.391zm-.806 2.933c.069-.064.11-.077.052-.048-.08.04-.143.065-.356.157-.294.127-1.084.454-1.635 1.225l3.254 2.326c-.162.227-.355.26-.028.12.097-.043.35-.147.57-.258.24-.122.562-.309.872-.598l-2.729-2.924zm-1.94 1.336c.032-.047.041-.043-.034.022-.09.078-.166.135-.352.283-.26.21-.897.705-1.257 1.494l3.638 1.662c-.051.112-.102.16-.084.141.022-.024.073-.07.201-.172.095-.076.306-.24.48-.392.19-.164.44-.402.664-.716l-3.257-2.322zm-1.646 1.805c-.25.553-.352 1.11-.413 1.481-.075.46-.092.647-.148.88l3.89.936c.102-.427.17-.945.206-1.173.052-.316.09-.43.109-.474l-3.644-1.65zm-.56 2.362c-.179.74.006 1.37.167 1.751.155.367.368.684.476.846.15.224.187.28.211.326.024.047-.102-.161-.085-.516l3.995.188c.033-.681-.209-1.224-.36-1.517-.153-.292-.353-.58-.433-.7-.122-.183-.13-.21-.12-.184.018.04.136.332.037.741l-3.889-.935zm.769 2.413c.006-.134.039-.2.021-.157-.025.065-.054.12-.154.326-.123.252-.574 1.101-.41 2.128l3.95-.628a.954.954 0 01-.016.406c-.005.019 0-.004.072-.155.05-.103.181-.359.28-.611.108-.274.232-.664.253-1.133l-3.996-.176zm-.546 2.279c-.027-.18.006-.275-.011-.196-.02.087-.047.175-.12.413a5.737 5.737 0 00-.201.853c-.05.353-.076.881.127 1.453l3.77-1.338c.047.134.063.247.067.324a.653.653 0 01-.004.122c0 .005.002-.012.014-.06.013-.05.03-.109.056-.196.042-.14.136-.432.198-.714.063-.29.136-.74.06-1.252l-3.956.59zm-.198 2.54a2.476 2.476 0 001.118 1.299c.35.2.7.298.928.353l.936-3.889c-.084-.02-.013-.013.116.06.144.082.482.32.66.806l-3.758 1.37zm2.046 1.652c.263.064.538.107.718.136.214.035.335.056.428.078l.936-3.889c-.266-.063-.541-.107-.722-.137a6.403 6.403 0 01-.424-.077l-.936 3.89zm1.146.214c.073.018.03.015-.063-.032a1.45 1.45 0 01-.573-.552l3.431-2.056a2.558 2.558 0 00-1.05-.96 3.715 3.715 0 00-.81-.289l-.935 3.89zm-.636-.584c.472.787 1.145 1.388 1.351 1.615l2.96-2.69a13.052 13.052 0 00-.368-.387c-.112-.114-.181-.183-.25-.257a1.825 1.825 0 01-.262-.337l-3.43 2.056zm1.345 1.609c.03.032.026.03.227.389.175.312.492.85 1.102 1.305l2.393-3.205c.08.06.096.125-.007-.058-.077-.137-.335-.656-.743-1.109l-2.972 2.678zm1.319 1.686c.4.303.81.457 1.15.538l.935-3.889c.06.015.19.057.329.162l-2.414 3.19zm1.15.538c.373.09.73.105.87.113.197.011.202.017.181.012l.936-3.89c-.379-.09-.73-.106-.886-.115-.213-.013-.202-.017-.166-.009l-.936 3.89zm1.051.125l-.03-.01a.945.945 0 01-.119-.049l1.772-3.586a3.264 3.264 0 00-.687-.244l-.936 3.889zm-.104-.037a1.463 1.463 0 01-.522-.4 1.024 1.024 0 01-.082-.116l-.016-.028-.005-.01.003.008a2.417 2.417 0 01.04.108c.03.082.056.163.1.293.064.198.195.603.404.973.202.358.69 1.072 1.655 1.304l.936-3.89c.64.155.888.612.894.622.012.022-.009-.013-.091-.263-.054-.164-.171-.54-.328-.87-.137-.288-.5-.987-1.306-1.36l-1.682 3.629zm1.577 2.132a1.403 1.403 0 01-.54-.253c-.071-.057-.096-.092-.075-.066.055.065.132.179.293.428.125.194.336.526.57.812.124.15.296.339.516.515.218.173.554.392 1.005.5l.936-3.889c.3.072.486.208.555.263.072.057.098.093.075.066a5.462 5.462 0 01-.296-.435c-.128-.198-.34-.532-.58-.82a3.509 3.509 0 00-.523-.517 2.602 2.602 0 00-1-.493l-.936 3.889z" fill="#F53" mask="url(#a)"/><path d="M90.83 43.388l.027.005c.235.008.506-.493.735-.53a.541.541 0 01.211.017c.104.024.215.065.321.09a.458.458 0 00.267.005c.22-.083.375-.433.573-.557.198-.124-.057-.804.115-.966.172-.16.361-.181.502-.375.136-.19.64-.127.74-.345.095-.21.533-.36.59-.596.056-.236-.675-.584-.664-.817.01-.24.377-.468.343-.7-.036-.236.177-.574.097-.795-.08-.223-.135-.54-.255-.74-.12-.201-.558-.223-.714-.396-.156-.173-.407-.247-.597-.387-.186-.137-.422-.16-.635-.259a.308.308 0 00-.056-.02c-.196-.046-.425.096-.636.046-.231-.056-.39.026-.62.018a.134.134 0 01-.028-.005c-.207-.05-.414-.542-.615-.591a.163.163 0 00-.053-.003c-.232.038-.438.236-.656.318-.22.083-.629-.14-.827-.016-.198.124-.007.801-.179.963-.172.16-.46.175-.598.37-.136.19-.419.306-.518.524-.096.212-.1.479-.156.715-.057.236.304.492.293.725-.01.24-.238.446-.202.677.036.236-.184.546-.106.767.027.074.116.113.227.14.126.03.281.046.409.076.1.024.182.058.218.119.12.2.24.29.398.463.156.173.182.369.371.51a.388.388 0 00.146.068c.12.029.248.013.376.044a.454.454 0 01.096.033c.206.096.198.659.43.714.221.054.414.64.63.691z" fill="#F53"/><mask id="b" fill="#fff"><path d="M89.492 60.122a.68.68 0 00.141.023c1.26.046 2.715-2.642 3.939-2.84.339-.057.726-.007 1.132.091.556.134 1.155.353 1.72.489.526.126 1.027.183 1.433.023 1.178-.444 2.007-2.32 3.07-2.984 1.063-.664-.307-4.31.616-5.18.921-.859 1.934-.968 2.688-2.006.729-1.023 3.43-.684 3.962-1.85.513-1.128 2.859-1.933 3.164-3.197.304-1.265-3.616-3.128-3.557-4.376.056-1.281 2.021-2.51 1.837-3.752-.189-1.265.951-3.077.522-4.261-.427-1.194-.722-2.891-1.366-3.966-.645-1.076-2.99-1.19-3.827-2.12-.837-.928-2.179-1.326-3.196-2.074-1-.732-2.262-.854-3.404-1.386a1.626 1.626 0 00-.3-.104c-1.053-.254-2.276.511-3.408.24-1.24-.3-2.091.138-3.32.099-.053-.002-.102-.014-.152-.026-1.111-.267-2.219-2.909-3.3-3.17a.862.862 0 00-.28-.013c-1.246.203-2.352 1.264-3.517 1.7-1.178.444-3.37-.747-4.433-.082-1.062.664-.035 4.292-.958 5.162-.92.858-2.462.937-3.206 1.978-.729 1.023-2.243 1.643-2.776 2.809-.515 1.138-.533 2.568-.838 3.832-.304 1.264 1.633 2.64 1.574 3.888-.056 1.28-1.278 2.388-1.082 3.623.19 1.265-.988 2.93-.569 4.11.146.4.62.61 1.216.753.675.162 1.505.245 2.19.41.536.128.976.309 1.17.634.645 1.075 1.286 1.55 2.133 2.482.837.929.973 1.978 1.987 2.735.25.189.517.296.785.36.645.156 1.327.074 2.011.238.17.04.345.094.514.178 1.106.511 1.062 3.529 2.303 3.827 1.19.287 2.22 3.423 3.382 3.703z"/></mask><path d="M84.96 54.431l-.948.315.949-.315zm-1.118-1.938l.423-.906-.015-.007-.015-.007-.393.92zm-1.596-.31l.059-.998h-.011l-.047.999zm-1.697-.45l.595-.804-.002-.002-.593.806zm-1.144-1.485l.88-.473-.003-.007-.004-.007-.873.487zm-.826-1.236l-.74.673.004.003.736-.676zm-.705-.737l-.718.696.004.004.714-.7zm-1.41-1.73l.858-.514-.858.514zm-4.573-1.764l.944-.328-.004-.012-.94.34zm.25-2.133l.955.296.002-.005-.957-.29zm.326-1.965l.99-.137v-.01l-.002-.008-.988.155zm.515-1.877l-.898-.44-.002.003.9.437zm-.237-3.598l-.834.552.003.004.831-.556zm-.501-3.416l.989.15-.989-.15zm.574-2.387l-.91-.414-.003.007.913.407zm1.495-1.587l.617.787.003-.003-.62-.784zm1.276-1.202l.81.587.002-.002-.812-.585zm1.683-1.103l-.394-.919-.002.001.396.918zm1.508-.857l.682.732.007-.007-.689-.725zm.462-2.617l1-.004v-.005l-1 .009zm.482-2.527l.52.855.01-.007-.53-.848zm2.258-.002l.195-.98-.009-.002-.186.982zm2.152.09l.348.937.004-.002-.352-.935zm1.431-.758l.519.855.003-.002-.522-.853zm2.063-.937l.164.987.01-.002-.174-.985zm1.811 1.548l-.796.605v.001l.796-.606zm1.911 1.659l-.035.999h.008l.027-1zm1.368-.1l.137.991h.001l-.138-.99zm3.735-.117l-.21-.978-.009.002.219.976zm1.873-.02l-.443.897.013.006.43-.903zm1.39.506l.301-.954-.004-.001-.296.955zm1.995.875l-.601.8.008.006.593-.806zm1.322.79l.467-.885-.467.884zm1.857 1.27l.743-.67-.003-.003-.74.673zm1.856.97l.339-.94-.339.94zm1.963 1.136l-.858.514.858-.514zm.936 2.569l-.965.265.004.013.961-.278zm.412 1.383l-.948.318.004.011.004.011.94-.34zm-.23 2.223l-.963-.27-.002.009.965.261zm-.296 2.015l.988-.153-.001-.006-.987.16zm-.881 1.874l-.791-.612-.002.003.793.61zm.836 4.032l-.642.767.009.008.009.007.624-.782zm.143 3.854l-.584-.812-.005.004.589.808zm-1.532 1.482l.907.42.004-.01-.911-.41zm-1.962.951l-.217-.976h-.005l.222.976zm-1.986.88l.813.583.001-.002-.814-.58zm-1.442 1.152l-.489-.873.489.873zm-1.221.84l.679.734.01-.01-.689-.724zm-.293 2.658l.997-.083-.001-.009-.996.092zm-1.675 3.908l-.778-.628-.002.003.78.625zm-1.691 1.573l.345.938.008-.003-.353-.935zm-2.234-.27l-.302.953.017.005.017.005.267-.964zm-2.04-.341l-.144-.99-.01.002-.011.002.166.986zm-1.884 1.419l.714.7.004-.004-.718-.697zm-2.034 1.425l-.234.973.099.023.1.004.035-1zm-3.267-4.703c.138.033.097.113-.053-.17-.136-.258-.254-.607-.406-1.06l-1.897.63c.135.407.306.93.535 1.365.217.41.62 1.003 1.353 1.18l.468-1.945zm-.458-1.23c-.13-.394-.292-.887-.505-1.313-.207-.413-.548-.94-1.14-1.216l-.847 1.812c-.026-.012.057.017.199.301.136.27.251.614.394 1.046l1.899-.63zm-1.675-2.543a4.303 4.303 0 00-.693-.234l-.468 1.944c.118.029.237.07.374.13l.787-1.84zm-.693-.234c-.458-.11-.898-.134-1.237-.154l-.117 1.997c.365.021.629.04.886.101l.468-1.944zm-1.248-.154a4.204 4.204 0 01-.763-.084l-.468 1.944c.397.096.8.122 1.136.138l.095-1.998zm-.763-.084c-.17-.041-.29-.1-.387-.172l-1.19 1.607c.331.246.703.411 1.109.51l.468-1.945zm-.39-.174c-.36-.265-.554-.591-.855-1.152l-1.762.947c.293.545.669 1.254 1.433 1.816l1.185-1.61zm-.863-1.166c-.216-.387-.503-.926-.963-1.426l-1.472 1.353c.272.297.45.62.689 1.047l1.746-.974zm-.96-1.422c-.263-.29-.515-.545-.729-.763l-1.43 1.399c.225.229.446.452.68.71l1.48-1.346zm-.725-.76c-.519-.535-.889-.91-1.271-1.548l-1.716 1.028c.516.862 1.042 1.387 1.55 1.912l1.437-1.391zm-1.271-1.548c-.397-.662-1.132-.966-1.857-1.14l-.468 1.945c.28.067.45.136.546.189.09.05.084.07.063.034l1.716-1.028zm-1.857-1.14c-.394-.095-.82-.161-1.187-.218l-.306 1.977c.381.059.725.113 1.026.186l.467-1.945zm-1.187-.218c-.384-.06-.716-.111-1.006-.181l-.467 1.944c.385.093.802.157 1.167.214l.306-1.977zm-1.006-.181c-.291-.07-.443-.136-.51-.176-.06-.035.025-.003.073.137l-1.89.656c.155.444.476.737.796.926.311.186.68.31 1.064.401l.467-1.944zm-.441-.051c-.027-.074-.047-.222 0-.505.048-.284.144-.6.265-.992l-1.91-.592c-.113.364-.253.811-.327 1.252-.074.442-.103.982.091 1.518l1.88-.681zm.267-1.502c.184-.608.48-1.523.36-2.393l-1.981.275c.048.348-.072.808-.293 1.537l1.914.58zm.357-2.41c-.041-.263.072-.557.426-1.286l-1.799-.874c-.27.555-.76 1.464-.603 2.47l1.976-.31zm.424-1.282c.246-.5.643-1.26.674-2.129l-1.998-.071c-.013.362-.18.728-.471 1.319l1.795.881zm.674-2.129c.02-.541-.156-1.03-.343-1.413a9.207 9.207 0 00-.634-1.053l-1.662 1.112c.209.313.379.574.498.819.121.247.145.39.143.464l1.998.071zm-.974-2.462c-.236-.357-.415-.628-.528-.877a1.124 1.124 0 01-.09-.258.308.308 0 01-.004-.07l-1.944-.468c-.151.63.026 1.205.218 1.627.193.421.47.832.68 1.15l1.668-1.104zm-.622-1.205c.124-.513.204-1.04.276-1.508l-1.978-.301c-.073.48-.142.924-.242 1.341l1.944.468zm.276-1.509c.13-.855.245-1.56.498-2.129l-1.826-.815c-.384.861-.529 1.848-.65 2.644l1.978.3zm.495-2.122c.17-.374.561-.712 1.202-1.215l-1.234-1.574c-.55.43-1.379 1.061-1.788 1.96l1.82.829zm1.205-1.218c.44-.347 1.04-.81 1.466-1.399l-1.62-1.173c-.233.322-.592.613-1.086 1.004l1.24 1.568zm1.468-1.401c.204-.284.543-.457 1.268-.77l-.793-1.836c-.612.264-1.514.626-2.098 1.437l1.623 1.169zm1.266-.77c.49-.21 1.225-.512 1.795-1.043l-1.364-1.463c-.269.25-.657.427-1.22.67l.789 1.837zm1.802-1.05c.505-.48.653-1.161.715-1.663.066-.535.06-1.148.058-1.683l-2 .009c.002.577.004 1.047-.043 1.43-.051.414-.136.484-.107.457l1.377 1.45zm.773-3.351c-.005-.569-.008-1.048.04-1.422a1.4 1.4 0 01.075-.338c.02-.05.001.027-.114.097l-1.039-1.71a1.75 1.75 0 00-.692.839 3.324 3.324 0 00-.214.857c-.069.54-.06 1.17-.056 1.695l2-.018zm.012-1.67c-.006.004.016-.012.092-.024a1.53 1.53 0 01.337-.01c.312.016.673.083 1.112.166l.373-1.964c-.404-.077-.906-.175-1.379-.2-.457-.024-1.065.005-1.595.336l1.06 1.696zm1.533.13c.379.076.827.164 1.263.2.428.034.943.029 1.432-.153l-.697-1.874c-.088.032-.263.058-.573.033a9.427 9.427 0 01-1.035-.167l-.39 1.962zm2.7.046c.587-.222 1.148-.566 1.597-.839l-1.037-1.71c-.486.295-.884.533-1.266.677l.705 1.871zm1.6-.84c.7-.429 1.22-.724 1.705-.804l-.327-1.973c-.937.155-1.791.684-2.422 1.07l1.044 1.706zm1.716-.806a.532.532 0 01-.128.007c-.034-.002-.052-.007-.043-.005l.468-1.945a1.552 1.552 0 00-.646-.027l.349 1.97zm-.17.002c-.055-.013.034-.001.283.264.221.236.454.542.727.902l1.593-1.209c-.253-.334-.554-.733-.862-1.061-.279-.298-.714-.706-1.274-.84l-.468 1.944zm1.01 1.167c.27.354.59.778.928 1.128.321.333.782.735 1.372.877l.468-1.945c.003 0-.032-.007-.11-.062a2.07 2.07 0 01-.29-.258c-.24-.25-.487-.571-.776-.951l-1.591 1.211zm2.3 2.005c.16.038.302.044.372.047l.07-1.999h-.015a.427.427 0 01.04.008l-.467 1.944zm.38.047a9.077 9.077 0 001.532-.108l-.274-1.98c-.414.056-.79.1-1.204.089l-.054 2zm1.533-.108c.626-.087 1.04-.139 1.559-.014l.468-1.944c-.93-.224-1.69-.108-2.303-.023l.276 1.981zm1.559-.014c.857.207 1.695.007 2.256-.118l-.437-1.952c-.637.142-1.018.206-1.351.126l-.468 1.944zm2.247-.116c.625-.134.928-.179 1.15-.125l.468-1.945c-.75-.18-1.533.006-2.037.114l.42 1.956zm1.15-.125a.315.315 0 01.072.024l.885-1.794a2.356 2.356 0 00-.49-.175l-.467 1.945zm.084.03c.528.252 1.078.42 1.524.558l.593-1.91c-.473-.147-.88-.274-1.256-.453l-.861 1.805zm1.52.557c.762.24 1.27.402 1.694.721l1.201-1.6c-.749-.562-1.611-.814-2.294-1.03l-.6 1.909zm1.702.727c.478.352 1.005.634 1.448.868l.934-1.77c-.451-.237-.854-.457-1.196-.709l-1.186 1.61zm1.448.868c.698.368 1.224.662 1.584 1.059l1.48-1.346c-.636-.699-1.487-1.143-2.13-1.482l-.934 1.769zm1.581 1.055c.331.367.752.614 1.125.792.377.179.789.326 1.135.45l.678-1.881a10.856 10.856 0 01-.953-.375c-.274-.13-.424-.24-.499-.324l-1.486 1.338zm2.259 1.242c.418.15.761.276 1.042.42.29.148.382.254.403.29l1.716-1.029c-.309-.514-.798-.832-1.207-1.041-.417-.214-.89-.382-1.275-.521l-.679 1.881zm1.445.71c.328.547.568 1.366.83 2.319l1.928-.53c-.242-.881-.546-1.99-1.042-2.818l-1.716 1.028zm.833 2.332c.137.473.276.978.425 1.423l1.896-.637c-.131-.392-.25-.826-.4-1.343l-1.921.557zm.433 1.445c.028.076.05.24.002.554-.046.308-.14.65-.255 1.06l1.926.54c.107-.384.239-.849.307-1.302.068-.447.094-.999-.099-1.533l-1.881.681zm-.255 1.622c-.09.331-.202.73-.273 1.123-.072.392-.12.85-.045 1.312l1.974-.318c-.022-.14-.016-.342.038-.634.053-.291.138-.6.236-.96l-1.93-.523zm-.319 2.429v.013c-.001.009-.002.024-.008.048-.013.05-.041.125-.099.23-.124.228-.313.478-.577.818l1.581 1.225c.239-.31.537-.69.753-1.086.217-.4.421-.938.326-1.553l-1.976.305zm-.686 1.112c-.22.286-.496.641-.713 1.016-.22.377-.429.854-.454 1.403l1.998.09c.004-.096.046-.249.185-.488.141-.243.331-.492.569-.802l-1.585-1.22zm-1.167 2.42c-.035.763.453 1.382.799 1.758.39.424.902.851 1.355 1.23l1.283-1.535c-.482-.402-.883-.74-1.165-1.048-.326-.355-.269-.433-.274-.315l-1.998-.09zm2.172 3.003c.48.382.899.728 1.182 1.033.142.153.21.254.236.306.027.054-.036-.037.005-.206l1.945.468c.111-.463-.02-.876-.164-1.162a3.426 3.426 0 00-.555-.765c-.402-.434-.939-.87-1.402-1.238l-1.247 1.564zm1.423 1.133c-.008.035-.065.166-.315.403-.24.228-.552.456-.925.724l1.168 1.623c.352-.252.777-.558 1.132-.894.344-.326.74-.787.885-1.389l-1.945-.467zm-1.245 1.13c-.319.233-.685.498-1 .78-.314.28-.648.641-.855 1.1l1.823.822c.041-.091.142-.231.367-.433.224-.2.5-.402.843-.652l-1.178-1.616zm-1.851 1.871c.029-.063.039.001-.236.113-.262.106-.6.185-1.035.282l.434 1.952c.398-.088.908-.2 1.354-.381.432-.176 1.006-.495 1.298-1.126l-1.815-.84zm-1.276.396c-.383.087-.861.194-1.29.357-.422.16-.937.426-1.288.918l1.628 1.161c.014-.018.092-.103.371-.21.274-.103.607-.181 1.023-.276l-.444-1.95zm-2.577 1.274c-.266.372-.574.555-1.118.86l.978 1.745c.523-.294 1.21-.663 1.766-1.441l-1.626-1.164zm-1.118.86c-.395.222-.924.516-1.421.989l1.378 1.448c.293-.278.614-.464 1.021-.692l-.978-1.745zm-1.411.98c-.547.505-.659 1.236-.687 1.75-.031.552.027 1.18.077 1.732l1.992-.183c-.054-.586-.093-1.061-.072-1.44.023-.42.109-.448.048-.392l-1.358-1.468zm-.611 3.474c.047.557.085 1.028.063 1.396a1.27 1.27 0 01-.047.318c-.013.037.011-.06.142-.141l1.061 1.696c.378-.237.576-.59.681-.883.104-.292.144-.6.16-.874.031-.54-.024-1.166-.066-1.678l-1.994.166zm.158 1.573c-.67.419-1.223 1.14-1.614 1.624l1.556 1.256c.476-.59.8-.985 1.119-1.184l-1.061-1.696zm-1.617 1.627c-.27.338-.503.628-.738.865-.239.241-.41.354-.525.397l.706 1.871c.508-.191.92-.538 1.24-.86.323-.327.624-.706.878-1.022l-1.56-1.251zm-1.255 1.26c-.058.02-.254.065-.8-.067l-.467 1.945c.685.165 1.347.223 1.957-.002l-.69-1.877zm-.8-.067c-.257-.062-.49-.137-.822-.229l-.535 1.927c.238.066.592.175.89.247l.468-1.945zm-.788-.219a13.894 13.894 0 00-.934-.26l-.467 1.945c.265.064.538.14.798.222l.603-1.907zm-.934-.26c-.557-.133-1.076-.186-1.55-.117l.288 1.98c.134-.02.38-.018.795.082l.467-1.944zm-1.572-.113c-.564.094-1.037.416-1.39.706-.367.3-.728.673-1.047 1.002l1.436 1.393c.337-.348.617-.634.879-.848.274-.226.415-.275.454-.281l-.332-1.972zm-2.433 1.704c-.363.37-.666.68-.948.902-.314.247-.403.223-.337.225l-.07 1.999c.691.024 1.27-.358 1.644-.653.405-.318.806-.733 1.139-1.072l-1.428-1.4zm-1.086 1.154c-.032-.008-.087-.02-.119-.029l-.468 1.945c.032.008.088.02.12.029l.467-1.945zm-.236 1.068l.074-1.998h-.003l-.07 1.998zm3.939-2.84l.319 1.975.007-.002h.007l-.334-1.973zm4.285.603l-.706-1.87-.012.004-.012.005.73 1.861zm3.686-8.164l-1.364-1.462-.007.006 1.371 1.456zm2.688-2.006l1.618 1.175.006-.007.005-.008-1.629-1.16zm3.962-1.85l1.82.83.001-.002-1.821-.828zm-.393-7.573l1.998.094v-.006l-1.998-.088zm1.837-3.752l1.979-.293-.001-.003-1.978.296zm.522-4.261l-1.884.673.003.008 1.881-.681zm-8.389-8.16l1.184-1.611-.002-.002-1.182 1.613zm-3.404-1.386l-.847 1.812.003.001.843-1.813zm-7.029.235l-.07 1.999h.007l.063-2zm-3.732-3.21l-.182-1.99-.07.006-.07.01.322 1.975zm-3.517 1.7l-.7-1.872-.005.002.706 1.87zm-5.39 5.08l1.365 1.463.006-.007-1.371-1.456zm-3.206 1.979l-1.627-1.163-.001.002 1.628 1.16zm-2.776 2.809l-1.819-.83-.003.005 1.822.825zm.736 7.72l-1.998-.095v.007l1.998.088zm-1.082 3.623l1.978-.295v-.01l-.002-.009-1.976.314zm-.569 4.11l-1.885.67.004.008.003.008 1.878-.685zm4.576 1.797l1.716-1.028-1.716 1.028zm2.133 2.482l1.486-1.339-.006-.007-1.48 1.346zm1.987 2.735l1.208-1.594-.01-.008-1.197 1.602zm3.31.776l-.885 1.793.022.01.023.011.84-1.814zm5.217 9.474c.04.01.261.068.54.078l.14-3.998c.174.007.315.045.256.031l-.936 3.89zm.536.078c1.015.037 1.808-.466 2.245-.793.476-.356.917-.804 1.242-1.138.374-.382.627-.648.866-.85.277-.237.243-.126-.022-.083l-.639-3.95c-.877.143-1.552.663-1.93.986-.419.355-.837.796-1.138 1.104-.348.357-.584.585-.773.727-.228.17-.09-.015.296 0l-.147 3.997zm4.345-2.867c-.044.008-.043 0 .023.007.066.006.165.022.309.057l.935-3.89c-.493-.118-1.195-.243-1.934-.118l.667 3.944zm.332.064c.208.05.438.12.74.211.279.086.628.193.98.277l.935-3.889a13.338 13.338 0 01-.747-.213c-.278-.085-.626-.192-.973-.275l-.935 3.889zm1.72.488c.573.138 1.607.343 2.63-.059l-1.46-3.723c.131-.052.2-.04.142-.041a1.2 1.2 0 01-.137-.016 3.236 3.236 0 01-.24-.05l-.935 3.89zm2.606-.05c1.187-.447 2.013-1.506 2.432-2.029.277-.344.463-.587.664-.813.198-.223.301-.3.328-.317l-2.12-3.392c-.504.315-.904.722-1.197 1.051-.29.327-.584.705-.795.968-.24.299-.416.506-.573.656-.16.153-.207.155-.15.134l1.41 3.743zm3.424-3.16c1.15-.718 1.308-1.992 1.349-2.505.05-.643-.012-1.358-.056-1.873-.051-.602-.087-1.016-.074-1.338.017-.446.111-.082-.292.297l-2.742-2.912c-.864.814-.944 1.96-.963 2.463-.024.627.043 1.329.086 1.83.05.588.073.963.053 1.218-.03.385-.1-.184.519-.57l2.12 3.39zm.921-5.413c.246-.229.465-.336 1.034-.662.536-.305 1.277-.763 1.907-1.631l-3.236-2.35c-.124.17-.266.286-.656.509-.355.203-1.103.58-1.778 1.21l2.729 2.925zm2.952-2.308c-.176.247-.342.252-.103.166.221-.079.497-.14.971-.247.394-.09.985-.224 1.524-.459.54-.236 1.332-.7 1.761-1.64l-3.639-1.66c.162-.356.417-.426.278-.366-.14.061-.37.125-.808.224-.359.081-.928.2-1.435.382-.489.175-1.266.52-1.807 1.279l3.258 2.322zm4.154-2.182c-.055.121-.082.09.147-.106.219-.187.478-.368.868-.652.341-.248.797-.584 1.192-.98.389-.388.881-.99 1.08-1.82l-3.889-.935c.048-.198.132-.225-.02-.072-.147.147-.367.319-.714.571-.299.217-.742.528-1.117.848-.364.312-.877.804-1.188 1.49l3.641 1.656zm3.287-3.558a2.77 2.77 0 00-.186-1.784 4.271 4.271 0 00-.685-1.038c-.447-.514-1.035-1.005-1.478-1.375-.508-.423-.876-.728-1.134-.997-.124-.13-.153-.18-.142-.163.005.008.14.233.122.608l-3.996-.188c-.032.687.213 1.243.419 1.597.213.363.478.672.709.913.45.47 1.032.945 1.459 1.301.492.41.823.7 1.023.93.097.11.085.122.051.045a1.246 1.246 0 01-.051-.784l3.889.935zm-3.503-4.755c-.007.162-.063.184.053-.01.118-.195.278-.401.548-.755.227-.298.564-.74.816-1.23.257-.502.532-1.25.401-2.138l-3.957.586c-.039-.266.059-.396-.002-.277-.067.13-.19.307-.438.632-.205.269-.535.688-.796 1.121-.262.436-.586 1.092-.621 1.895l3.996.176zm1.817-4.136c.003.02-.01-.067.045-.344.056-.278.14-.564.257-.994.104-.38.237-.882.3-1.397s.079-1.203-.178-1.912l-3.761 1.363c-.042-.117-.007-.134-.032.064a6.176 6.176 0 01-.187.827c-.09.33-.229.808-.32 1.262-.092.456-.177 1.07-.08 1.722l3.956-.59zm.427-4.638c-.188-.527-.323-1.09-.566-1.918-.21-.718-.503-1.628-.968-2.403l-3.431 2.056c.18.3.357.775.561 1.473.173.588.399 1.471.637 2.138l3.767-1.346zm-1.534-4.322c-.423-.706-1.043-1.127-1.51-1.381-.473-.258-.985-.448-1.366-.585-.434-.158-.722-.257-.977-.373-.261-.119-.268-.163-.203-.09l-2.972 2.677c.484.537 1.084.856 1.518 1.054.441.2.936.37 1.273.493.391.141.638.24.812.335.18.099.095.095-.006-.073l3.431-2.056zm-4.056-2.43c-.662-.734-1.469-1.2-2.06-1.522-.684-.373-1.073-.556-1.438-.824l-2.369 3.223c.653.48 1.443.868 1.894 1.114.544.296.827.494 1.001.687l2.972-2.677zm-3.5-2.348c-.772-.566-1.595-.858-2.216-1.058-.703-.227-1.103-.331-1.527-.528l-1.687 3.626c.719.335 1.52.558 1.984.708.546.176.853.311 1.081.478l2.365-3.226zm-3.74-1.585a3.628 3.628 0 00-.679-.237l-.936 3.89a.376.376 0 01-.078-.03l1.693-3.623zm-.679-.237c-1.059-.255-2.115.02-2.566.117a6.172 6.172 0 01-.65.12c-.148.014-.195.002-.19.003l-.937 3.889c1.084.26 2.126.005 2.625-.103.707-.153.79-.135.782-.137l.936-3.889zm-3.407.24c-.967-.233-1.771-.166-2.388-.087-.656.085-.932.145-1.337.132l-.127 3.998c.824.026 1.589-.113 1.975-.163.427-.055.668-.057.941.009l.936-3.89zm-3.718.045c.103.004.181.017.221.024.033.006.058.013.025.005l-.936 3.889c.02.004.263.07.55.08l.14-3.998zm.246.029c.31.074.368.223.144-.01-.182-.191-.388-.457-.68-.842-.256-.338-.6-.797-.965-1.181-.32-.338-.931-.928-1.8-1.137l-.935 3.89c-.328-.08-.396-.242-.169-.002.183.192.387.459.682.847.26.342.606.803.978 1.19.33.346.944.925 1.81 1.134l.935-3.89zm-3.3-3.17a2.85 2.85 0 00-.931-.06l.365 3.982a1.165 1.165 0 01-.37-.033l.935-3.889zm-1.07-.043c-1.035.168-1.911.672-2.493 1.02-.7.418-1.041.645-1.404.781l1.403 3.746c.803-.3 1.597-.822 2.052-1.093.574-.343.874-.472 1.085-.506l-.644-3.948zm-3.901 1.803c.14-.053.151-.01-.135-.038-.274-.027-.576-.09-1.041-.179-.404-.077-.96-.181-1.515-.198-.544-.017-1.345.038-2.096.508l2.12 3.392c-.219.137-.347.092-.144.098.192.006.456.047.88.128.362.07.896.18 1.398.231.488.049 1.216.075 1.944-.2l-1.411-3.742zm-4.787.093c-1.073.671-1.308 1.846-1.385 2.362-.096.63-.09 1.335-.086 1.854.005.598.01 1.018-.026 1.35-.047.442-.115.159.228-.165l2.742 2.912c.805-.757.954-1.82 1.008-2.325.065-.612.052-1.303.048-1.804-.005-.58.001-.962.04-1.225.058-.378.094.094-.448.433l-2.12-3.392zm-1.262 5.395c-.145.135-.35.224-1.1.548-.578.25-1.64.71-2.369 1.73l3.254 2.326c.015-.021.096-.121.705-.385.437-.19 1.462-.57 2.239-1.294l-2.73-2.925zm-3.47 2.28c-.16.223-.418.418-1.082.95-.517.412-1.397 1.122-1.885 2.19l3.639 1.66c.045-.098.188-.282.743-.726.409-.327 1.272-.952 1.842-1.752l-3.257-2.322zm-2.97 3.145c-.373.824-.538 1.687-.65 2.372-.126.774-.181 1.281-.31 1.817l3.889.936c.175-.729.281-1.568.37-2.11.102-.63.203-1.05.345-1.365l-3.644-1.65zm-.96 4.189c-.214.89.001 1.675.228 2.212.221.522.535.997.747 1.316.254.38.4.592.505.794.104.2.03.146.04-.06l3.996.188c.04-.83-.254-1.526-.487-1.973-.232-.447-.54-.892-.726-1.17-.226-.338-.336-.523-.39-.653-.05-.115.038.023-.024.282l-3.89-.936zm1.52 4.268c-.005.128-.071.292-.435 1.041-.26.534-.834 1.663-.624 2.984l3.95-.628c.014.087-.046.044.27-.605.211-.434.785-1.464.835-2.617l-3.996-.175zm-1.062 4.007c-.004-.03.01.038-.043.286-.056.254-.14.516-.264.926-.108.359-.253.849-.325 1.36-.073.515-.096 1.198.156 1.911l3.77-1.337c.043.122.01.154.034-.014.025-.173.084-.4.194-.762.094-.312.243-.778.342-1.228.1-.457.191-1.071.093-1.733l-3.957.59zm-.47 4.5c.288.79.863 1.26 1.328 1.524.45.257.929.398 1.299.488l.936-3.89a2.308 2.308 0 01-.223-.063c-.05-.017-.055-.023-.031-.01.042.024.307.19.45.58l-3.758 1.371zM72.55 47.5c.424.102.878.174 1.238.233.394.064.696.114.952.176l.936-3.89c-.429-.102-.885-.175-1.246-.234a13.648 13.648 0 01-.944-.174L72.55 47.5zm2.19.409c.093.022.163.042.213.06.052.017.07.026.064.023a.636.636 0 01-.115-.08 1.133 1.133 0 01-.24-.285l3.432-2.056c-.358-.597-.87-.944-1.27-1.147a5.282 5.282 0 00-1.148-.404l-.936 3.889zm-.077-.282c.778 1.3 1.758 2.128 2.368 2.8l2.96-2.692c-1.084-1.19-1.387-1.313-1.897-2.164l-3.431 2.056zm2.362 2.792c.23.255.341.489.669 1.073.302.537.756 1.29 1.608 1.927l2.393-3.205c-.162-.121-.283-.271-.513-.68-.203-.362-.577-1.117-1.185-1.792l-2.972 2.678zm2.267 2.992a4.08 4.08 0 001.523.71l.936-3.889a.346.346 0 01-.056-.017h.002a.074.074 0 01.008.007l-2.413 3.19zm1.523.71c.528.127 1.044.15 1.344.167.357.021.525.037.668.07l.935-3.888c-.542-.13-1.057-.157-1.373-.175-.373-.021-.52-.035-.638-.063l-.936 3.889zm2.012.238c.046.011.075.02.091.025.017.005.016.006.005 0l1.771-3.586a4.43 4.43 0 00-.932-.328l-.935 3.889zm.14.047c-.385-.178-.437-.444-.314-.184.104.218.196.503.356.99.133.402.333 1.008.632 1.537.291.517.89 1.347 2.002 1.615l.936-3.89c.492.12.63.46.546.311-.077-.136-.167-.373-.317-.826-.121-.368-.303-.952-.541-1.453-.219-.46-.68-1.295-1.618-1.73l-1.681 3.63zm2.676 3.958c-.373-.09-.44-.291-.201-.004.189.227.398.544.69.998.257.397.599.934.967 1.38.314.38.954 1.095 1.926 1.328l.936-3.889c.391.094.467.311.224.017-.189-.23-.397-.548-.691-1.005-.26-.402-.604-.94-.98-1.39-.324-.39-.968-1.091-1.936-1.324l-.935 3.889z" fill="#F53" mask="url(#b)"/><mask id="c" fill="#fff"><path d="M88.53 72.082c.078.019.14.034.223.037 1.991.073 4.293-4.178 6.228-4.491.536-.09 1.148-.011 1.791.144.88.211 1.825.557 2.72.772.832.2 1.624.29 2.266.038 1.862-.702 3.174-3.67 4.854-4.72 1.681-1.05-.485-6.816.975-8.19 1.456-1.36 3.058-1.532 4.25-3.174 1.153-1.617 5.424-1.08 6.266-2.925.811-1.784 4.521-3.057 5.002-5.056.481-2-5.717-4.946-5.624-6.92.089-2.026 3.197-3.968 2.906-5.933-.299-2 1.503-4.866.824-6.738-.675-1.888-1.141-4.572-2.16-6.272-1.019-1.7-4.728-1.882-6.051-3.351-1.324-1.469-3.447-2.098-5.055-3.28-1.581-1.159-3.577-1.352-5.383-2.192a2.598 2.598 0 00-.475-.165c-1.664-.4-3.599.809-5.388.378-1.962-.472-3.307.22-5.251.158a1.198 1.198 0 01-.24-.04C89.451 9.737 87.7 5.56 85.99 5.148a1.361 1.361 0 00-.443-.022c-1.97.321-3.719 1.999-5.562 2.689-1.862.702-5.327-1.18-7.008-.13-1.68 1.05-.056 6.788-1.516 8.162-1.456 1.359-3.893 1.483-5.07 3.129-1.152 1.617-3.547 2.598-4.389 4.442-.815 1.8-.844 4.06-1.325 6.06-.481 1.999 2.582 4.174 2.489 6.148-.09 2.026-2.021 3.777-1.71 5.73.298 2-1.564 4.632-.9 6.5.23.63.98.963 1.921 1.19 1.067.257 2.38.387 3.464.647.847.204 1.542.49 1.85 1.004 1.02 1.7 2.034 2.451 3.373 3.924 1.323 1.469 1.538 3.128 3.143 4.326.393.298.817.468 1.241.57 1.02.245 2.097.115 3.18.376.267.064.546.148.813.28 1.748.81 1.679 5.58 3.64 6.053 1.884.453 3.513 5.413 5.35 5.855z"/></mask><path d="M81.364 63.083l-.95.315.95-.315zm-1.77-3.065l.424-.906-.015-.007-.015-.007-.394.92zm-2.522-.489l.058-.998h-.01l-.048.998zm-2.684-.713l.595-.804-.003-.002-.592.806zm-1.81-2.348l.881-.473-.004-.007-.003-.007-.874.487zm-1.306-1.955l-.74.673.004.004.736-.677zm-1.114-1.165l-.719.696.004.004.715-.7zm-2.23-2.736l.857-.514-.858.514zm-7.233-2.789l.945-.328-.005-.013-.94.341zm.397-3.373l.955.296.002-.006-.957-.29zm.515-3.107l.99-.138v-.009l-.002-.008-.988.155zm.814-2.968l-.898-.441-.002.003.9.438zm-.374-5.69l-.834.552.002.003.831-.556zm-.793-5.402l.989.15-.989-.15zm.908-3.774l-.91-.415-.003.007.913.408zm2.364-2.51l.617.786.004-.003-.62-.784zm2.018-1.9l.81.586.002-.002-.812-.585zm2.662-1.746l-.395-.919-.002.001.397.918zm2.384-1.355l.682.732.007-.007-.689-.725zm.73-4.139l1-.004v-.005l-1 .01zm.763-3.995l.52.854.01-.006-.53-.848zm3.57-.004l.195-.98-.008-.002-.187.982zm3.403.142l.348.937.005-.001-.353-.936zm2.264-1.198l.519.855.003-.002-.522-.853zm3.262-1.482l.164.987.01-.002-.174-.985zm2.864 2.449l-.796.604v.002l.796-.606zm3.022 2.622l-.035 1h.008l.027-1zm2.163-.157l.137.991h.001l-.138-.99zm5.906-.186l-.21-.978-.008.002.218.976zm2.963-.031l-.443.896.012.006.431-.902zm2.198.8l.3-.955h-.003l-.297.954zm3.154 1.384l-.601.8.008.005.593-.805zm2.09 1.248l.467-.885-.467.885zm2.937 2.009l.743-.67-.003-.003-.74.673zm2.935 1.535l.339-.94-.339.94zm3.104 1.796l-.858.514.858-.514zm1.48 4.061l-.964.265.004.014.96-.279zm.653 2.188l-.948.318.004.011.004.011.94-.34zm-.365 3.516l-.963-.27-.002.008.965.262zm-.468 3.186l.989-.152-.001-.007-.988.16zm-1.393 2.964l-.791-.612-.002.002.793.61zm1.321 6.375l-.641.767.009.008.009.007.623-.782zm.227 6.094l-.584-.811-.005.003.589.809zm-2.423 2.344l.908.42.004-.009-.912-.41zm-3.101 1.504l-.218-.976-.004.001.222.975zm-3.142 1.393l.814.582.001-.001-.815-.58zm-2.28 1.82l-.49-.872.49.872zm-1.931 1.329l.68.734.01-.01-.69-.724zm-.463 4.203l.997-.083-.001-.009-.996.092zm-2.649 6.18l-.779-.628-.002.003.781.626zm-2.674 2.487l.345.939.008-.003-.353-.936zm-3.533-.427l-.302.953.017.006.017.004.268-.963zm-3.225-.539l-.144-.99-.01.002-.012.002.166.986zm-2.98 2.244l.714.7.004-.004-.718-.696zm-3.216 2.254l-.234.973.098.023.101.004.035-1zm-5.303-6.872c-.035-.009-.205-.078-.46-.562-.244-.46-.446-1.062-.68-1.766l-1.898.631c.218.657.473 1.434.81 2.07.323.611.854 1.353 1.76 1.571l.468-1.944zm-1.14-2.327c-.21-.634-.451-1.37-.767-1.999-.309-.615-.772-1.304-1.528-1.657l-.847 1.812c.139.065.344.256.588.742.237.473.433 1.06.656 1.732l1.898-.63zm-2.325-3.67a6.236 6.236 0 00-1.004-.34l-.468 1.944c.228.055.448.134.685.235l.787-1.839zm-1.004-.34c-.665-.16-1.31-.196-1.854-.227l-.116 1.996c.569.034 1.038.063 1.502.175l.468-1.944zm-1.865-.228c-.52-.024-.944-.059-1.315-.148l-.468 1.944c.57.137 1.158.177 1.689.202l.094-1.998zm-1.315-.148a2.212 2.212 0 01-.821-.37l-1.19 1.607c.455.338.97.57 1.543.707l.468-1.944zm-.824-.372c-.687-.505-1.047-1.133-1.521-2.015l-1.761.947c.466.867 1.007 1.877 2.097 2.68l1.185-1.612zm-1.528-2.029c-.349-.624-.77-1.413-1.444-2.145l-1.472 1.354c.485.528.798 1.1 1.169 1.765l1.747-.974zm-1.44-2.14c-.41-.45-.798-.843-1.14-1.192l-1.429 1.399c.352.36.71.721 1.09 1.138l1.479-1.346zm-1.136-1.188c-.816-.844-1.447-1.48-2.091-2.555l-1.716 1.028c.778 1.298 1.565 2.085 2.37 2.918l1.437-1.391zm-2.091-2.555c-.501-.836-1.461-1.269-2.573-1.536l-.468 1.944c.992.239 1.258.507 1.325.62l1.716-1.028zm-2.573-1.536a23.142 23.142 0 00-1.83-.336l-.306 1.977c.599.093 1.166.182 1.668.303l.468-1.944zm-1.83-.336c-.602-.093-1.151-.178-1.637-.295l-.468 1.944c.581.14 1.216.238 1.799.328l.306-1.977zm-1.637-.295c-.488-.118-.792-.239-.97-.344-.169-.1-.153-.144-.135-.092l-1.89.656c.185.531.575.9 1.005 1.155.422.25.943.43 1.522.569l.468-1.944zm-1.11-.449c-.09-.25-.109-.598-.026-1.092.084-.495.248-1.031.438-1.644l-1.91-.592c-.182.584-.39 1.252-.5 1.904-.11.652-.14 1.393.118 2.106l1.88-.682zm.414-2.742c.302-.995.718-2.311.548-3.535l-1.98.275c.097.702-.143 1.563-.482 2.68l1.914.58zm.546-3.553c-.1-.63.19-1.274.725-2.375l-1.799-.875c-.45.929-1.118 2.187-.902 3.56l1.976-.31zm.723-2.372c.401-.817.963-1.905 1.007-3.13l-1.999-.072c-.026.72-.357 1.413-.803 2.32l1.795.882zm1.007-3.13c.026-.721-.208-1.393-.485-1.96-.277-.568-.643-1.12-.962-1.596l-1.663 1.111c.328.491.62.935.828 1.363.21.43.292.757.283 1.01l1.999.071zm-1.445-3.553c-.366-.552-.676-1.021-.879-1.465-.202-.443-.227-.717-.184-.897l-1.944-.468c-.196.811.027 1.579.309 2.195.28.616.69 1.226 1.03 1.74l1.668-1.105zm-1.063-2.362c.189-.784.312-1.592.426-2.337l-1.977-.3c-.116.756-.228 1.481-.393 2.17l1.944.467zm.426-2.337c.202-1.335.393-2.532.832-3.517l-1.826-.815c-.57 1.277-.79 2.755-.983 4.032l1.977.3zm.83-3.51c.338-.744 1.083-1.364 2.07-2.138l-1.234-1.574c-.895.702-2.08 1.614-2.657 2.883l1.82.829zm2.074-2.14c.71-.563 1.588-1.245 2.207-2.098l-1.62-1.174c-.425.587-1.063 1.098-1.828 1.703l1.24 1.569zm2.209-2.1c.433-.602 1.133-.931 2.246-1.412l-.793-1.836c-1 .432-2.263.95-3.076 2.079l1.623 1.169zm2.244-1.411c.797-.342 1.858-.784 2.672-1.542l-1.364-1.463c-.513.478-1.227.794-2.097 1.167l.79 1.838zm2.679-1.549c.643-.611.86-1.511.954-2.28.1-.801.091-1.728.087-2.588l-2 .009c.005.902.008 1.686-.072 2.335-.084.681-.236.97-.346 1.074l1.377 1.45zm1.041-4.873c-.007-.886-.014-1.688.069-2.328.04-.316.097-.54.158-.685.061-.146.097-.144.055-.119L72.563 7.01c-.44.268-.701.675-.86 1.054a4.68 4.68 0 00-.298 1.204c-.103.805-.092 1.758-.085 2.601l2-.018zm.293-3.138c.156-.098.46-.173 1.017-.143.54.028 1.152.144 1.837.274l.373-1.965c-.65-.124-1.403-.27-2.104-.307-.686-.036-1.499.017-2.183.445l1.06 1.696zm2.845.129c.603.12 1.28.252 1.931.305.643.052 1.36.037 2.015-.207l-.697-1.874c-.255.095-.63.13-1.156.088-.518-.043-1.086-.15-1.703-.274l-.39 1.962zm3.95.097c.87-.328 1.71-.841 2.43-1.279l-1.037-1.71c-.757.46-1.434.867-2.098 1.117l.706 1.872zm2.434-1.28c1.086-.666 2.006-1.2 2.904-1.35l-.327-1.972c-1.35.223-2.604.993-3.621 1.615l1.044 1.706zm2.915-1.351a.275.275 0 01-.062.003c-.011 0-.006-.001.03.007l.467-1.944a1.874 1.874 0 00-.785-.036l.35 1.97zm-.032.01c.093.023.334.157.737.586.374.4.762.911 1.188 1.472l1.593-1.208c-.406-.536-.862-1.141-1.323-1.633-.433-.461-1.02-.991-1.728-1.161l-.467 1.944zm1.926 2.06c.431.566.916 1.207 1.421 1.731.49.508 1.122 1.04 1.888 1.225l.468-1.945c-.192-.046-.492-.228-.916-.668-.408-.423-.818-.962-1.27-1.555l-1.591 1.212zm3.309 2.956c.194.047.373.056.473.06l.07-2a.964.964 0 01-.064-.003l-.011-.002-.468 1.945zm.481.06c.879.023 1.648-.072 2.327-.166l-.274-1.981c-.66.091-1.294.166-1.999.147l-.054 2zm2.328-.166c.986-.138 1.74-.237 2.681-.011l.468-1.945c-1.35-.325-2.452-.16-3.425-.025l.276 1.98zm2.681-.011c1.204.29 2.396.014 3.305-.19l-.436-1.952c-.986.22-1.721.361-2.4.197l-.469 1.945zm3.296-.188c.954-.204 1.571-.316 2.076-.194l.468-1.945c-1.033-.249-2.13.005-2.963.183l.42 1.956zm2.076-.194c.095.022.176.052.235.081l.886-1.793a3.152 3.152 0 00-.653-.233l-.468 1.945zm.247.087c.791.378 1.62.631 2.333.852l.593-1.91c-.74-.23-1.426-.442-2.065-.747l-.861 1.805zm2.329.851c1.181.372 2.087.656 2.853 1.23l1.201-1.598c-1.09-.82-2.35-1.192-3.454-1.54l-.6 1.908zm2.861 1.236c.716.528 1.513.956 2.217 1.327l.933-1.769c-.711-.375-1.383-.74-1.965-1.168l-1.185 1.61zm2.217 1.327c1.088.574 2.013 1.083 2.663 1.798l1.48-1.346c-.925-1.017-2.176-1.675-3.21-2.22l-.933 1.768zm2.66 1.794c.449.499 1.036.849 1.597 1.116.566.269 1.188.491 1.742.69l.678-1.88c-.577-.208-1.101-.397-1.56-.616-.462-.22-.778-.434-.971-.648l-1.486 1.338zm3.338 1.807c.651.234 1.232.444 1.716.692.493.253.753.482.87.677l1.716-1.028c-.404-.674-1.062-1.115-1.674-1.428-.62-.319-1.331-.572-1.949-.794l-.679 1.88zm2.586 1.37c.568.946.966 2.326 1.374 3.811l1.928-.53c-.388-1.413-.85-3.082-1.586-4.31l-1.716 1.028zm1.378 3.825c.22.76.434 1.538.665 2.227l1.896-.637c-.214-.636-.407-1.343-.64-2.147l-1.921.557zm.673 2.25c.091.252.112.624.031 1.16-.08.529-.239 1.106-.419 1.745l1.926.54c.172-.614.369-1.313.471-1.987.101-.669.129-1.429-.129-2.14l-1.88.681zm-.39 2.913c-.144.534-.313 1.138-.421 1.73-.108.59-.171 1.24-.069 1.877l1.975-.318c-.051-.314-.029-.708.061-1.2.09-.49.232-1.003.384-1.566l-1.93-.523zm-.491 3.6c.027.174-.013.426-.233.83-.222.407-.553.84-.963 1.37l1.581 1.224c.385-.497.825-1.063 1.139-1.638.316-.581.575-1.297.453-2.09l-1.977.305zm-1.198 2.202c-.354.46-.764.99-1.086 1.545-.324.557-.606 1.216-.64 1.953l1.998.09c.013-.283.128-.62.371-1.038.245-.422.571-.848.942-1.33l-1.585-1.22zm-1.726 3.498c-.043.952.57 1.773 1.111 2.362.585.637 1.363 1.286 2.088 1.892l1.282-1.535c-.753-.63-1.419-1.19-1.897-1.71-.521-.567-.589-.849-.586-.918l-1.998-.09zm3.217 4.269c.754.6 1.451 1.173 1.933 1.694.241.26.389.466.465.617.077.153.035.155.055.071l1.944.468c.132-.548-.019-1.054-.213-1.44-.195-.387-.482-.75-.783-1.075-.602-.65-1.417-1.312-2.155-1.9l-1.246 1.565zm2.453 2.382c-.053.22-.241.524-.664.925-.413.39-.94.774-1.523 1.194l1.169 1.623c.561-.404 1.201-.865 1.729-1.365.517-.49 1.044-1.122 1.233-1.91l-1.944-.467zm-2.192 2.122c-.511.373-1.064.773-1.535 1.196-.471.421-.932.926-1.211 1.546l1.824.821c.113-.25.34-.536.721-.878.381-.341.844-.678 1.379-1.068l-1.178-1.617zm-2.742 2.733c-.047.101-.201.277-.682.472-.467.19-1.052.325-1.729.475l.435 1.952c.639-.142 1.396-.31 2.047-.574.638-.26 1.376-.69 1.745-1.486l-1.816-.84zm-2.415.948c-.616.14-1.33.301-1.963.542-.626.238-1.314.604-1.771 1.246l1.629 1.16c.119-.167.37-.353.853-.537.478-.181 1.047-.313 1.695-.46l-.443-1.95zm-3.733 1.786c-.505.707-1.101 1.05-1.957 1.53l.979 1.744c.833-.467 1.809-.998 2.605-2.11l-1.627-1.164zm-1.957 1.53c-.627.352-1.403.785-2.13 1.477l1.379 1.448c.522-.497 1.091-.822 1.73-1.18l-.979-1.745zm-2.12 1.467c-.688.637-.858 1.589-.901 2.373-.045.824.04 1.773.121 2.655l1.992-.183c-.084-.917-.152-1.713-.116-2.363.038-.69.182-.94.263-1.014l-1.359-1.468zm-.781 5.02c.073.868.138 1.658.101 2.29-.019.313-.06.528-.108.664-.048.133-.073.112-.014.075l1.06 1.696c.45-.282.699-.709.838-1.1.138-.387.197-.814.22-1.219.047-.803-.035-1.75-.103-2.572l-1.994.166zm-.021 3.029c-.957.598-1.766 1.643-2.41 2.44l1.557 1.257c.728-.903 1.307-1.622 1.913-2.001l-1.06-1.696zm-2.412 2.443c-.423.528-.811 1.013-1.208 1.414-.401.405-.742.65-1.038.762l.706 1.872c.69-.26 1.271-.74 1.753-1.227.485-.49.941-1.063 1.348-1.57l-1.561-1.251zm-2.238 2.174c-.253.092-.698.132-1.6-.085l-.469 1.945c1.044.25 1.955.313 2.759.017l-.69-1.877zm-1.6-.085c-.42-.1-.823-.229-1.32-.368l-.536 1.927c.404.113.928.275 1.387.386l.468-1.945zm-1.287-.358a21.59 21.59 0 00-1.437-.399l-.468 1.945c.433.104.878.227 1.302.361l.603-1.907zm-1.437-.399c-.84-.202-1.58-.27-2.233-.176l.288 1.98c.312-.046.78-.027 1.477.14l.468-1.944zm-2.255-.172c-.738.124-1.39.554-1.926.993-.548.45-1.096 1.015-1.606 1.54l1.436 1.393c.528-.544.994-1.022 1.439-1.386.456-.375.776-.532.99-.568l-.333-1.972zm-3.528 2.53c-.565.576-1.073 1.096-1.555 1.475-.513.404-.796.484-.912.48l-.07 1.999c.873.03 1.647-.456 2.22-.907.604-.477 1.21-1.101 1.745-1.647l-1.428-1.4zm-2.268 1.982l-.188-.045-.468 1.944.188.046.468-1.945zm-.237 1.124l.073-1.999h-.003l-.07 1.999zm6.228-4.491l.319 1.974h.007l.007-.002-.333-1.972zm6.777.954l-.706-1.871-.012.004-.013.005.731 1.862zm5.829-12.91l-1.365-1.463-.006.006 1.371 1.456zm4.25-3.174l1.619 1.175.005-.007.005-.007-1.629-1.16zm6.266-2.925l1.819.83.002-.002-1.821-.828zm-.622-11.976l1.998.094v-.006l-1.998-.088zm2.906-5.933l1.978-.293v-.002l-1.978.295zm.824-6.738l-1.883.673.003.009 1.88-.682zm-13.266-12.903l1.184-1.612-.002-.002-1.182 1.614zm-5.383-2.192l-.847 1.812h.003l.844-1.812zm-11.114.37l-.07 2h.006l.064-2zm-5.902-5.074l-.182-1.991-.07.006-.07.011.322 1.974zm-5.562 2.689l-.7-1.873-.005.001.706 1.872zm-8.524 8.032l1.365 1.463.006-.007-1.37-1.456zm-5.07 3.129l-1.626-1.163-.002.002 1.629 1.16zm-4.389 4.442l-1.82-.83-.002.005 1.822.825zm1.164 12.208l-1.998-.095v.007l1.998.088zm-1.71 5.73l1.977-.296-.001-.01-.002-.009-1.975.315zm-.9 6.5l-1.886.669.003.008.003.008 1.88-.685zm7.235 2.84l1.716-1.027-1.716 1.028zm3.373 3.925l1.486-1.339-.006-.006-1.48 1.345zm3.143 4.326l1.207-1.595-.01-.007-1.197 1.602zm5.234 1.226l-.886 1.793.023.011.022.01.841-1.814zm8.521 13.852c.07.017.313.08.622.092l.14-3.998a1.24 1.24 0 01.196.023l.006.001-.005-.001-.023-.006-.936 3.89zm.619.092c1.198.044 2.18-.553 2.811-1.024.67-.5 1.307-1.145 1.829-1.68.569-.583 1.018-1.053 1.447-1.419.468-.398.62-.407.533-.393l-.639-3.948c-1.055.17-1.916.81-2.486 1.294-.608.518-1.222 1.164-1.719 1.673-.544.559-.976.983-1.36 1.269-.42.315-.472.223-.27.23l-.146 3.998zm6.634-4.518c.136-.023.433-.018.99.116l.936-3.889c-.73-.176-1.656-.33-2.593-.17l.667 3.943zm.99.116c.37.09.768.21 1.238.353.448.137.966.296 1.482.42l.936-3.89c-.379-.09-.78-.212-1.25-.355-.446-.136-.961-.295-1.47-.417l-.935 3.889zm2.72.773c.879.211 2.205.449 3.464-.045l-1.461-3.724c.014-.005-.049.023-.248.014a4.428 4.428 0 01-.82-.134l-.935 3.889zm3.439-.036c1.53-.576 2.647-1.972 3.35-2.849.418-.521.744-.944 1.088-1.33.341-.384.59-.602.771-.716l-2.12-3.392c-.658.412-1.204.959-1.64 1.45-.433.486-.866 1.046-1.219 1.485-.838 1.046-1.308 1.484-1.641 1.61l1.411 3.742zm5.209-4.895c1.305-.815 1.529-2.294 1.59-3.068.072-.904-.015-1.936-.087-2.772-.079-.922-.144-1.66-.121-2.259.027-.722.173-.585-.096-.332l-2.742-2.912c-.999.94-1.13 2.314-1.159 3.092-.035.903.063 1.93.133 2.751.077.91.125 1.601.085 2.117-.052.646-.187.282.277-.009l2.12 3.392zm1.279-8.424c.514-.48 1.014-.727 1.853-1.207.804-.46 1.802-1.084 2.652-2.254l-3.237-2.35c-.343.472-.742.755-1.401 1.132-.624.357-1.653.875-2.596 1.754l2.729 2.925zm4.515-3.475c-.07.098-.058.003.392-.158.433-.155.955-.267 1.671-.43.636-.144 1.466-.336 2.202-.657.737-.322 1.685-.902 2.191-2.01l-3.638-1.662c.085-.185.183-.14-.153.006-.338.147-.806.268-1.487.422-.6.136-1.415.308-2.134.565-.701.25-1.655.696-2.301 1.602l3.257 2.322zm6.458-3.258c.019-.043.133-.226.535-.57.392-.335.854-.659 1.444-1.088.542-.393 1.194-.877 1.746-1.43.546-.546 1.157-1.315 1.401-2.328l-3.889-.936c.003-.014-.031.126-.341.436-.304.305-.72.625-1.268 1.022-.498.363-1.145.816-1.693 1.285-.537.459-1.19 1.103-1.577 1.953l3.642 1.656zm5.126-5.416c.194-.808.015-1.536-.226-2.075-.236-.527-.578-.984-.899-1.353-.635-.73-1.49-1.449-2.205-2.045-.779-.65-1.423-1.181-1.887-1.665a2.844 2.844 0 01-.39-.476c-.054-.092.049.036.036.32l-3.995-.188c-.037.778.239 1.43.505 1.885.271.464.621.877.955 1.226.657.685 1.515 1.386 2.213 1.97.764.636 1.362 1.152 1.751 1.599.19.219.253.336.264.36.005.012-.085-.186-.011-.494l3.889.936zm-5.571-7.3c.001-.024.022-.186.249-.562.227-.38.53-.767.938-1.301.366-.48.836-1.102 1.181-1.773.35-.68.676-1.61.518-2.678l-3.957.586c-.013-.085.035-.035-.119.264-.159.31-.416.668-.802 1.173-.344.45-.817 1.05-1.187 1.667-.373.62-.773 1.46-.817 2.449l3.996.175zm2.886-6.316c-.025-.165-.018-.456.081-.945.098-.491.247-1 .424-1.65.164-.6.353-1.322.442-2.044.088-.722.099-1.605-.221-2.486l-3.76 1.364c.02.055.06.232.01.637-.049.403-.165.874-.329 1.474-.151.55-.354 1.251-.488 1.918-.135.67-.24 1.487-.115 2.323l3.956-.591zm.729-7.116c-.312-.874-.551-1.857-.915-3.096-.331-1.13-.761-2.443-1.413-3.531l-3.431 2.056c.367.612.68 1.491 1.006 2.6.293 1 .624 2.303.987 3.317l3.766-1.346zm-2.328-6.627c-.516-.863-1.292-1.405-1.947-1.762-.661-.36-1.394-.634-1.999-.853-.659-.238-1.175-.416-1.631-.624-.463-.211-.647-.36-.703-.423l-2.972 2.678c.606.672 1.382 1.096 2.018 1.386.643.292 1.366.541 1.927.744.615.223 1.083.406 1.445.603.368.201.439.32.431.307l3.431-2.056zm-6.28-3.662c-.906-1.005-2.03-1.664-2.95-2.165-1.014-.553-1.746-.903-2.407-1.388l-2.369 3.223c.949.697 2.082 1.253 2.863 1.678.874.476 1.473.866 1.891 1.33l2.972-2.678zm-5.359-3.555c-1.062-.778-2.214-1.194-3.174-1.505-1.042-.336-1.792-.535-2.548-.887l-1.687 3.627c1.051.489 2.202.807 3.005 1.066.884.286 1.521.546 2.04.926l2.364-3.226zm-5.719-2.39a4.545 4.545 0 00-.854-.298l-.935 3.889a.581.581 0 01.054.016l.042.017 1.693-3.624zm-.854-.298c-1.364-.328-2.75.02-3.538.19-.995.216-1.472.28-1.85.189l-.935 3.889c1.413.34 2.797.013 3.633-.168 1.043-.226 1.456-.283 1.755-.211l.935-3.889zm-5.387.379c-1.328-.32-2.436-.233-3.356-.114-.96.123-1.537.241-2.3.217l-.127 3.998c1.182.037 2.249-.16 2.938-.248.73-.094 1.275-.117 1.91.036l.935-3.89zm-5.65.103c.089.003.153.014.178.019l.016.003a3.003 3.003 0 01-.035-.008l-.935 3.889c.047.011.32.084.637.095l.14-3.998zm.16.014c.147.035.044.059-.34-.343-.344-.359-.71-.835-1.163-1.432-.416-.548-.92-1.219-1.443-1.771-.479-.505-1.248-1.22-2.274-1.466l-.936 3.889c-.17-.041-.08-.079.306.328.341.36.706.838 1.16 1.438.42.552.928 1.225 1.46 1.78.492.514 1.267 1.219 2.294 1.466l.935-3.89zm-5.22-5.012a3.349 3.349 0 00-1.093-.07l.364 3.984h-.037a.886.886 0 01-.17-.025l.936-3.89zm-1.233-.052c-1.396.228-2.614.915-3.532 1.463-1.037.62-1.708 1.064-2.409 1.327l1.403 3.746c1.142-.428 2.266-1.166 3.057-1.639.91-.543 1.551-.855 2.125-.949l-.644-3.948zM79.28 5.944s-.013.005-.045.012c-.033.006-.08.013-.145.017a3.446 3.446 0 01-.55-.019c-.499-.05-1.043-.162-1.75-.298-.644-.124-1.44-.27-2.21-.293-.761-.023-1.758.061-2.663.627l2.12 3.392c-.065.04.002-.034.422-.021.41.012.912.096 1.577.223.603.116 1.379.277 2.106.35.714.072 1.65.092 2.55-.247L79.28 5.944zm-7.363.046c-1.228.768-1.54 2.147-1.658 2.922-.135.891-.13 1.912-.123 2.75.008.917.017 1.66-.047 2.268-.076.716-.208.66.001.462l2.742 2.912c.94-.884 1.152-2.173 1.234-2.952.095-.888.077-1.902.07-2.722-.007-.9-.001-1.597.078-2.12.097-.638.211-.37-.177-.128l-2.12-3.392zm-1.82 8.396c-.412.384-.976.61-2.07 1.084-.923.4-2.317 1.021-3.262 2.344l3.254 2.326c.231-.324.643-.587 1.598-1 .782-.339 2.165-.855 3.209-1.83l-2.73-2.924zm-5.334 3.43c-.37.52-.956.954-1.931 1.735-.829.662-2.007 1.63-2.65 3.037l3.64 1.662c.2-.438.64-.882 1.507-1.575.72-.576 1.91-1.44 2.691-2.538l-3.257-2.321zm-4.583 4.778c-.523 1.155-.766 2.391-.94 3.459-.188 1.156-.29 2.055-.507 2.958l3.889.935c.263-1.096.416-2.326.566-3.25.165-1.013.344-1.807.636-2.452l-3.644-1.65zm-1.447 6.417c-.259 1.074-.006 2.046.3 2.773.302.712.739 1.378 1.08 1.888.38.572.658.975.861 1.365.203.39.193.52.194.495l3.996.189c.047-1.012-.31-1.893-.64-2.53-.331-.635-.771-1.27-1.084-1.739-.354-.53-.587-.906-.722-1.226-.129-.305-.078-.354-.096-.28l-3.89-.935zm2.435 6.528c-.022.5-.273 1.012-.805 2.104-.428.878-1.15 2.347-.883 4.028l3.95-.629c-.043-.272.045-.655.529-1.647.379-.778 1.138-2.156 1.205-3.68l-3.996-.176zm-1.69 6.113c.022.154.015.421-.084.873-.1.46-.252.932-.44 1.552-.172.57-.376 1.268-.476 1.977-.101.715-.121 1.587.192 2.471l3.77-1.337c-.017-.05-.053-.207-.002-.573.053-.373.172-.807.345-1.38.158-.521.375-1.198.518-1.853.145-.662.259-1.475.132-2.321l-3.956.591zm-.802 6.89c.33.905.995 1.464 1.583 1.799.574.327 1.207.52 1.75.65l.936-3.889a4.776 4.776 0 01-.467-.134c-.125-.044-.2-.08-.238-.102-.08-.046.094.03.194.305l-3.758 1.371zm3.333 2.45c.62.149 1.294.257 1.873.351.614.1 1.136.186 1.591.295l.936-3.889c-.628-.15-1.304-.26-1.885-.354-.615-.1-1.132-.185-1.579-.293l-.936 3.89zm3.464.647c.357.085.572.164.692.225.12.06.017.04-.09-.138l3.432-2.056c-.415-.692-1.018-1.113-1.535-1.375-.517-.262-1.072-.427-1.563-.546l-.936 3.89zm.603.087c1.153 1.924 2.505 3.029 3.608 4.242l2.96-2.691c-1.576-1.733-2.253-2.132-3.137-3.607l-3.431 2.056zm3.602 4.235c.472.524.726 1.046 1.208 1.904.456.813 1.077 1.83 2.224 2.686l2.394-3.205c-.458-.342-.746-.754-1.13-1.438-.357-.637-.873-1.68-1.724-2.625l-2.972 2.678zm3.422 4.582a5.292 5.292 0 001.98.92l.936-3.89a1.306 1.306 0 01-.502-.22l-2.414 3.19zm1.98.92c.715.171 1.424.205 1.92.234.552.032.919.059 1.26.141l.936-3.889c-.74-.178-1.454-.216-1.966-.246-.569-.033-.909-.056-1.214-.13l-.936 3.89zm3.18.375c.197.047.316.09.395.129l1.772-3.586a5.84 5.84 0 00-1.23-.432l-.936 3.89zm.44.15c-.225-.104-.158-.203.065.265.202.427.374.965.617 1.7.215.651.5 1.502.907 2.225.4.71 1.132 1.682 2.425 1.993l.936-3.889c.311.075.316.274.123-.068-.186-.33-.36-.811-.593-1.514-.203-.617-.465-1.453-.802-2.163-.318-.669-.897-1.669-1.996-2.178l-1.682 3.63zm4.014 6.183c-.2-.048-.1-.104.303.38.353.424.723.99 1.176 1.692.417.646.919 1.43 1.449 2.074.475.577 1.28 1.435 2.42 1.71l.936-3.89c.223.054.135.126-.27-.365-.35-.425-.719-.992-1.174-1.698-.42-.65-.924-1.436-1.464-2.083-.489-.588-1.3-1.434-2.44-1.709l-.936 3.89z" fill="#F53" mask="url(#c)"/></svg>