<svg width="210" height="137" viewBox="0 0 210 137" fill="none" xmlns="http://www.w3.org/2000/svg"><path d="M107.996 50.448c1.303-10.651-3.942-13.078-6.727-12.96 1.269-3.274-1.69-6.788-8.013-7.473-9.53-1.033-15.38-5.87-25.374-5.87-22.254-.573-30.634 19.531-32.735 33.454-1.149 7.61-4.02 21.536-20.532 41.78-13.209 16.196-15.17 31.539-14.5 37.187h66.044c-1.244-5.6-5.426-13.641-2.584-21.68 5.46-15.448 7.362-29.055 7.526-31.595h1.346c1.44-2.36 4.163-4.688 3.54 4.887-.779 11.968.213 15.792 3.258 18.412 3.045 2.62 15.225 2.762 21.882 2.833 6.657.071 10.269 1.416 11.331 2.832-.425-2.124-1.983-9.701-4.462-20.82-2.478-11.118-1.628-27.674 0-40.987z" fill="#2D2C2C"/><path d="M96.526 55.426c1.386-3.875-.886-8.635-2.196-10.53-1.645 10.435-17.088 16.54-23.27 17.493-.298-3.295-3.176-5.313-5.879-4.369-6.808 2.597-.985 13.424.429 14.027 1.13.483 2.236-.237 2.647-.658.805 2.673 2.499 8.89 2.837 12.379.422 4.361 13.092 6.656 16.137 7.65 3.044.994 5.268-.562 6.404-2.45 1.137-1.89-.836-5.191 1.21-5.578 1.638-.31 1.255-1.669.859-2.31.505-.268 1.306-1.158.46-2.57-.846-1.411-.587-2.884-.352-3.444.735-.244 2.5-1.006 3.674-2.101 1.467-1.368-.745-3.17-2.05-4.967-3.007-5.141-2.642-7.728-.91-12.572z" fill="#fff"/><path d="M89.782 66.02c-4.144.638-5.863-1.842-6.884-3.19.896.61 2.477 1.984 4.064 2.187 1.586.204 4.086-.829 4.834-1.318l1.275.792c.178.225-.193 1.051-3.29 1.529z" fill="#2D2C2C"/><path d="M110.148 110.048c4.359 3.533 13.077 13.81 13.077 26.656m-4.363-57.69l-4.289-.9 3.67-2.396a15.912 15.912 0 006.38-8.272l.158-.47-.349-.35c-8.523-8.563-11.431-18.94-9.379-28.713 3.793-18.063 24.332-33.126 50.661-27.597 27.931 5.865 39.091 26.03 35.326 43.957-3.79 18.048-22.276 31.976-50.047 26.144-4.862-1.021-9.801-2.737-14.075-4.876l-.416-.209-.387.26c-5.107 3.427-11.306 4.671-17.253 3.422z" stroke="#2D2C2C" stroke-width="1.6"/><mask id="a" fill="#fff"><path d="M156.609 55.822c.018.006.033.01.053.013.481.053 1.114-.974 1.587-1.019.132-.014.278.017.431.067.209.068.432.171.644.241.198.065.388.1.548.049.463-.144.834-.866 1.259-1.1.426-.235.005-1.719.383-2.038.377-.316.767-.331 1.085-.723.308-.386 1.332-.177 1.569-.625.228-.433 1.148-.689 1.301-1.182.152-.493-1.295-1.34-1.237-1.833.058-.507.845-.94.81-1.438-.037-.507.451-1.195.32-1.676-.129-.486-.194-1.167-.41-1.611-.216-.444-1.11-.554-1.403-.946-.294-.391-.797-.586-1.164-.91-.362-.318-.841-.401-1.263-.643a.624.624 0 00-.112-.05c-.396-.13-.885.14-1.31.002-.467-.153-.804-.002-1.274-.052-.02-.002-.038-.008-.057-.014-.418-.137-.766-1.215-1.173-1.348a.316.316 0 00-.106-.013c-.483.047-.936.437-1.394.578-.463.144-1.268-.388-1.693-.154-.426.235-.136 1.702-.514 2.022-.376.315-.968.304-1.282.697-.308.385-.905.59-1.142 1.038-.23.438-.277 1.004-.429 1.497-.153.493.549 1.092.491 1.586-.058.506-.557.912-.517 1.407.037.508-.461 1.136-.334 1.616.044.162.22.258.444.332.253.082.569.138.826.222.201.066.364.15.43.284.215.444.447.65.745 1.043.294.391.316.811.683 1.14a.778.778 0 00.29.164c.242.079.505.065.762.15a.85.85 0 01.192.084c.408.233.306 1.429.772 1.581.447.146.752 1.419 1.189 1.562z"/></mask><path d="M155.037 53.44l-.773.181.773-.181zm-.373-.8l.387-.697-.011-.006-.012-.007-.364.71zm-.602-.166l.094-.797-.009-.001-.085.798zm-.636-.225l.521-.6-.002-.003-.519.602zm-.396-.62l.73-.313-.005-.011-.725.323zm-.281-.514l-.63.483.003.004.627-.487zm-.248-.311l-.615.503.003.003.612-.506zm-.491-.725l.714-.347-.714.347zm-1.699-.825l.77-.193-.003-.01-.767.203zm.156-.84l.744.296.002-.004-.746-.292zm.181-.77l.794-.04-.001-.013-.793.053zm.25-.73l-.693-.406-.002.003.695.402zm.011-1.435l-.697.379.002.003.695-.382zm-.094-1.369l.777.185-.777-.185zm.287-.93l-.704-.386-.002.005.706.38zm.617-.59l.46.663.003-.002-.463-.66zm.523-.441l.618.514.002-.002-.62-.512zm.675-.392l-.278-.757h-.002l.28.757zm.601-.299l.513.622.006-.005-.519-.617zm.251-1.025l.794.065.001-.003-.795-.062zm.256-.99l.38.712.009-.005-.389-.706zm.864.062l.205-.774-.007-.002-.198.776zm.821.094l.24.77.003-.001-.243-.769zm.569-.261l.379.712.003-.002-.382-.71zm.816-.316l.088.8h.009l-.097-.8zm.649.665l-.671.423.001.001.67-.424zm.684.71l-.075.799h.007l.068-.8zm.526-.002l.066.802h.001l-.067-.802zm1.432.055l-.126-.795-.007.001.133.794zm.717.044l-.403.688.01.005.393-.693zm.518.239l.289-.745-.003-.002-.286.747zm.738.402l-.526.596.006.005.52-.601zm.483.349l.422-.676-.422.676zm.675.555l.632-.48-.002-.003-.63.483zm.682.436l.321-.732h-.001l-.32.732zm.719.504l-.714.346.714-.346zm.285 1.044l-.782.141.002.011.78-.152zm.118.56l-.772.185.002.009.003.009.767-.203zm-.151.876l-.751-.276-.002.007.753.27zm-.17.791l.794-.05-.001-.006-.793.056zm-.391.72l-.603-.533-.001.002.604.53zm.206 1.622l-.557.567.007.007.007.007.543-.581zm-.055 1.533l-.433-.68-.004.002.437.678zm-.628.546l.701.39.004-.008-.705-.382zm-.778.324l-.132-.795h-.004l.136.794zm-.785.294l.622.511.001-.001-.623-.51zm-.584.418l-.355-.725.355.725zm-.491.3l.511.623.008-.007-.519-.616zm-.188 1.046l.797.004-.001-.007-.796.003zm-.752 1.505l-.592-.545-.002.001.594.543zm-.691.577l.237.77.006-.002-.243-.768zm-.847-.168l-.291.744.014.006.013.005.264-.755zm-.771-.191l-.072-.802h-.009l-.009.002.09.8zm-.761.51l.54.6.003-.004-.543-.595zm-.818.51l-.236.765.079.026.082.009.075-.8zm-.998-2.34c.121.04.195.11.228.15.028.034.03.05.018.02a1.31 1.31 0 01-.045-.137 6.825 6.825 0 01-.059-.231l-1.546.364c.038.155.096.403.187.619.081.19.282.593.745.744l.472-1.529zm.142-.198c-.037-.151-.091-.382-.174-.59-.077-.193-.237-.524-.585-.725l-.775 1.394a.373.373 0 01-.123-.108c-.011-.014-.007-.012.007.022.013.033.029.08.047.146.018.066.036.138.057.224l1.546-.363zm-.782-1.328a2.053 2.053 0 00-.327-.14l-.472 1.528a.473.473 0 01.071.032l.728-1.42zm-.327-.14c-.215-.071-.422-.096-.546-.113l-.186 1.594c.144.02.206.03.26.047l.472-1.529zm-.554-.114a1.212 1.212 0 01-.209-.036l-.472 1.528c.192.063.381.088.512.104l.169-1.596zm-.209-.036l-.005-.002a.082.082 0 01.014.01l-1.043 1.2c.168.15.358.254.562.32l.472-1.528zm.007.006c-.05-.044-.084-.094-.185-.33l-1.459.625c.094.219.249.595.605.91l1.039-1.205zm-.19-.341c-.068-.15-.181-.419-.378-.676l-1.255.973c.06.079.1.164.184.35l1.449-.647zm-.376-.673c-.098-.13-.193-.245-.267-.335l-1.223 1.013c.082.1.154.187.23.288l1.26-.966zm-.264-.331c-.185-.23-.286-.354-.391-.569l-1.428.693c.197.405.413.662.59.882l1.229-1.006zm-.391-.569c-.211-.434-.628-.623-.93-.722l-.472 1.529a.723.723 0 01.082.031c.017.008.02.01.014.006a.39.39 0 01-.122-.151l1.428-.693zm-.93-.722c-.168-.055-.347-.097-.483-.129l-.341 1.566c.147.034.259.061.352.092l.472-1.529zm-.483-.129a4.414 4.414 0 01-.344-.09l-.473 1.53c.166.053.342.094.476.126l.341-1.566zm-.344-.09c-.09-.029-.1-.043-.074-.024a.526.526 0 01.188.294l-1.541.385c.078.3.269.502.441.627.165.118.35.194.513.247l.473-1.529zm.111.26c.018.063-.001.08.019-.003a3.02 3.02 0 01.114-.338l-1.488-.592c-.052.137-.128.334-.176.536-.047.202-.088.49-.004.802l1.535-.405zm.135-.345c.079-.213.257-.652.229-1.102l-1.589.079s.001.033-.022.12a3.852 3.852 0 01-.11.32l1.492.583zm.228-1.115c.003.037-.008.044.012-.007.01-.026.026-.06.05-.106.025-.048.053-.097.089-.163l-1.389-.804c-.101.181-.392.639-.349 1.186l1.587-.106zm.15-.273c.099-.175.32-.538.366-.976l-1.583-.194c-.005.049-.032.117-.169.36l1.386.81zm.366-.976a1.625 1.625 0 00-.116-.76c-.073-.187-.17-.363-.236-.485l-1.391.764c.073.133.117.217.144.288.028.072.01.06.016 0l1.583.193zm-.35-1.241a7.565 7.565 0 01-.099-.186 1.04 1.04 0 01-.052-.118c-.023-.063.016.002-.02.12l-1.521-.497c-.112.362-.032.694.044.904.074.21.186.41.253.534l1.395-.757zm-.171-.184a7.86 7.86 0 00.156-.622l-1.554-.37c-.043.191-.078.35-.123.495l1.521.497zm.156-.622c.076-.347.131-.57.217-.736l-1.413-.76c-.2.385-.292.825-.359 1.127l1.555.369zm.214-.73c.024-.046.097-.118.373-.312l-.919-1.325c-.206.144-.628.423-.862.866l1.408.77zm.376-.314c.167-.118.458-.316.678-.588l-1.237-1.028c-.058.071-.156.146-.366.295l.925 1.32zm.68-.59c-.004.005.003-.008.054-.035.061-.031.138-.06.28-.113l-.559-1.512c-.22.08-.689.23-1.015.635l1.24 1.025zm.333-.147c.179-.065.54-.186.836-.434l-1.026-1.243c-.047.04-.129.077-.366.163l.556 1.514zm.842-.439c.314-.268.409-.65.45-.863.046-.24.063-.51.076-.714l-1.588-.13a4.798 4.798 0 01-.051.518.35.35 0 01-.018.071c.002-.004.026-.058.093-.115l1.038 1.233zm.527-1.58c.007-.112.013-.21.021-.3.008-.092.018-.16.028-.212.011-.055.017-.06.005-.036a.494.494 0 01-.213.208l-.76-1.423a1.078 1.078 0 00-.455.486 1.699 1.699 0 00-.139.43c-.048.243-.064.523-.076.723l1.589.123zm-.15-.345a.328.328 0 01-.12.041c-.011.002-.002 0 .035.004.035.005.083.014.148.03.064.015.132.033.214.056l.396-1.552c-.145-.04-.365-.101-.58-.129-.205-.026-.545-.042-.87.137l.777 1.413zm.27.129c.14.039.333.093.528.124.189.03.459.05.738-.034l-.48-1.54c.052-.015.057 0-.035-.015a3.198 3.198 0 01-.341-.083l-.41 1.547zm1.269.089c.275-.086.534-.227.705-.318l-.758-1.424a2.761 2.761 0 01-.434.205l.487 1.537zm.708-.32c.296-.16.431-.216.522-.226l-.176-1.6c-.46.046-.874.278-1.11.406l.764 1.42zm.531-.226a.615.615 0 01-.243-.023l.473-1.529a1 1 0 00-.425-.047l.195 1.599zm-.243-.023a.407.407 0 01-.14-.074c-.004-.003.008.007.037.044.027.035.06.08.1.141.04.06.08.125.127.2l1.342-.847c-.084-.134-.2-.321-.325-.48-.103-.132-.326-.4-.668-.513l-.473 1.53zm.125.312c.089.142.213.342.351.513.125.155.355.411.701.524l.472-1.529a.375.375 0 01.102.052c.001 0-.014-.013-.045-.05a4.203 4.203 0 01-.241-.36l-1.34.85zm1.052 1.037c.103.034.193.044.227.048l.149-1.599.024.004c.014.003.04.008.072.018l-.472 1.53zm.234.048c.262.027.489.013.66 0l-.133-1.603a2.244 2.244 0 01-.392.004l-.135 1.6zm.661 0c.245-.017.329-.017.435.018l.472-1.529c-.437-.143-.808-.109-1.042-.092l.135 1.604zm.435.018c.435.142.863.062 1.063.03l-.266-1.588c-.122.02-.195.03-.257.032-.057.002-.072-.004-.068-.003l-.472 1.529zm1.056.032c.118-.018.184-.027.238-.029.05-.002.045.005.013-.006l.472-1.529c-.396-.13-.807-.052-.975-.027l.252 1.59zm.251-.035a.268.268 0 01-.063-.03l.806-1.375a1.305 1.305 0 00-.271-.124l-.472 1.529zm-.053-.024c.227.134.464.227.624.291l.573-1.492a3.128 3.128 0 01-.41-.186l-.787 1.387zm.621.29c.301.123.415.176.502.254l1.051-1.193c-.337-.303-.735-.453-.974-.55l-.579 1.49zm.508.26c.201.176.42.319.581.423l.844-1.352a3.309 3.309 0 01-.386-.275l-1.039 1.203zm.581.423c.268.172.393.265.467.362l1.26-.966c-.277-.365-.657-.603-.883-.748l-.844 1.352zm.464.359c.166.22.375.364.535.457.161.095.336.173.46.23l.64-1.463a3.786 3.786 0 01-.315-.155c-.08-.046-.078-.06-.055-.03l-1.265.96zm.994.687c.078.035.142.065.202.094.059.03.103.054.136.074a.19.19 0 01.04.029c-.003-.004-.028-.029-.052-.078l1.428-.692c-.155-.318-.413-.51-.59-.622-.182-.114-.386-.205-.522-.268l-.642 1.463zm.326.12c.081.166.141.438.217.838l1.564-.282c-.065-.34-.158-.848-.353-1.25l-1.428.693zm.219.85c.037.182.079.4.126.592l1.545-.369c-.037-.148-.067-.31-.111-.528l-1.56.304zm.131.61c-.017-.062.002-.07-.02.029a3.572 3.572 0 01-.115.368l1.502.552c.051-.144.123-.347.168-.552.043-.2.084-.492 0-.802l-1.535.405zm-.137.404c-.042.123-.102.296-.146.468-.043.172-.085.4-.065.649l1.587-.113c.001.007-.002-.025.022-.12.024-.096.059-.2.109-.345l-1.507-.54zm-.211 1.112c-.009-.122.041-.177.008-.124a1.131 1.131 0 01-.073.1c-.038.047-.08.096-.135.159l1.206 1.066c.095-.11.242-.277.355-.46.115-.184.255-.477.226-.844l-1.587.103zm-.201.137c-.089.103-.222.255-.332.423-.111.169-.24.411-.275.714l1.582.207c-.006.047-.02.047.023-.02a2.88 2.88 0 01.211-.262l-1.209-1.062zm-.607 1.137c-.055.472.21.847.339 1.016.158.206.364.41.521.567l1.113-1.134a4.666 4.666 0 01-.379-.406c-.037-.048-.042-.064-.037-.051a.426.426 0 01.025.215l-1.582-.207zm.874 1.597c.083.08.159.153.227.222.068.071.118.128.152.172.038.05.036.056.024.027a.536.536 0 01-.004-.35l1.521.498a1.098 1.098 0 00-.042-.733 1.78 1.78 0 00-.248-.42 5.404 5.404 0 00-.545-.578l-1.085 1.162zm.399.071a.295.295 0 01.024-.057.101.101 0 01.011-.018l-.011.012a.571.571 0 01-.036.033 3.404 3.404 0 01-.332.23l.866 1.361c.137-.088.332-.212.501-.355.161-.137.393-.368.498-.708l-1.521-.498zm-.348.203c-.124.08-.29.187-.437.305a1.725 1.725 0 00-.46.536l1.411.765c-.017.033-.022.02.051-.038a4.06 4.06 0 01.309-.212l-.874-1.356zm-.893.835a.399.399 0 01.121-.141c.025-.017.033-.017.007-.008a.809.809 0 01-.126.031 5.205 5.205 0 01-.21.036l.264 1.589c.148-.023.382-.058.597-.131.208-.07.551-.226.75-.598l-1.403-.778zm-.212-.081c-.142.023-.359.056-.561.12a1.438 1.438 0 00-.71.459l1.245 1.019a.276.276 0 01-.075.068c-.008.005-.001 0 .032-.01.031-.01.075-.021.135-.033.061-.012.126-.023.206-.036l-.272-1.587zm-1.27.578c-.052.064-.098.096-.318.203l.71 1.449c.206-.101.555-.261.851-.631l-1.243-1.021zm-.318.203c-.156.077-.409.198-.655.408l1.038 1.233a1.49 1.49 0 01.327-.192l-.71-1.449zm-.647.401c-.346.287-.423.708-.45.927-.032.252-.026.532-.023.745l1.592-.005c-.001-.115-.003-.214-.001-.305.001-.092.005-.16.012-.213.007-.054.013-.066.008-.052a.39.39 0 01-.116.15l-1.022-1.247zm-.473 1.666c.001.11.002.205 0 .295s-.006.158-.012.207c-.007.054-.013.052.001.021a.514.514 0 01.23-.24l.777 1.413c.256-.142.389-.362.457-.521.068-.16.098-.32.114-.446.032-.245.027-.526.026-.721l-1.593-.008zm.219.282c-.341.188-.622.52-.767.682l1.185 1.09c.217-.242.303-.328.359-.358l-.777-1.414zm-.769.683a4.46 4.46 0 01-.278.295c-.083.074-.1.07-.063.058l.487 1.537c.283-.088.502-.26.649-.393.151-.137.291-.296.394-.41l-1.189-1.087zm-.334.35c.049-.014.08-.01.074-.011a.983.983 0 01-.127-.032l-.472 1.528c.289.094.64.165.999.056l-.474-1.54zm-.053-.044c-.089-.029-.149-.055-.294-.108l-.527 1.51c.07.025.228.087.349.127l.472-1.529zm-.267-.098a5.602 5.602 0 00-.379-.139l-.472 1.529c.091.03.183.063.27.099l.581-1.489zm-.379-.139a1.945 1.945 0 00-.754-.109l.145 1.603c-.013.001-.011-.001.013.003a.81.81 0 01.124.032l.472-1.529zm-.772-.107c-.33.033-.592.202-.75.318-.17.125-.336.28-.464.397l1.086 1.191c.142-.132.241-.221.326-.283a.423.423 0 01.064-.042c.005-.003-.025.013-.081.018l-.181-1.6zm-1.211.712a6.27 6.27 0 01-.199.18c-.062.054-.11.093-.149.12-.042.03-.054.033-.043.029a.4.4 0 01.187-.02l-.149 1.599c.426.046.767-.172.927-.285.189-.133.375-.306.506-.426l-1.08-1.197zm-.042.344l-.045-.014-.472 1.529.045.014.472-1.529zm-.24.803l.151-1.598h-.002l-.149 1.598zm1.587-1.019l.171 1.6h.012l-.183-1.6zm1.623.357l-.487-1.537-.01.003-.01.003.507 1.53zm1.642-3.138l-1.027-1.243-.005.005 1.032 1.238zm1.085-.723l1.237 1.03.008-.01-1.245-1.02zm1.569-.625l1.407.772.001-.003-1.408-.769zm.064-3.015l1.582.21v-.005l-1.582-.205zm.81-1.438l1.588-.093v-.002l-1.588.095zm.32-1.676l-1.537.398.002.007 1.535-.405zm-2.977-3.467l1.038-1.205-.002-.001-1.036 1.206zm-1.263-.643l-.776 1.393.003.002.773-1.395zm-2.696-.1l-.148 1.599h.005l.143-1.599zm-1.336-1.375l-.058-1.607-.058.001-.057.006.173 1.6zm-1.394.578l-.484-1.538-.003.001.487 1.537zm-2.207 1.868l1.027 1.242.005-.004-1.032-1.238zm-1.282.697l-1.244-1.021-.001.002 1.245 1.019zm-1.142 1.038l-1.407-.772-.002.005 1.409.767zm.062 3.083l-1.581-.21-.001.004 1.582.206zm-.517 1.407l1.589-.094-.001-.007-.001-.008-1.587.11zm-.334 1.616l-1.538.394.002.007.001.007 1.535-.408zm1.7.838l1.427-.693-1.427.693zm.745 1.043l1.264-.96-.004-.006-1.26.966zm.683 1.14l1.055-1.19-.008-.007-1.047 1.196zm1.244.398l-.806 1.375.018.01.017.01.771-1.395zm1.489 4.671c.011.004.172.06.376.083l.298-3.197c.165.018.296.065.27.057l-.944 3.057zm.374.083c.689.076 1.21-.24 1.425-.384.251-.167.475-.374.604-.493.169-.155.239-.22.299-.267.097-.073-.073.095-.419.128l-.341-3.202c-.316.03-.571.133-.745.221-.176.09-.325.193-.435.278-.207.157-.414.354-.523.454a4.914 4.914 0 01-.159.142.855.855 0 01-.06.049.828.828 0 01.139-.066 1.16 1.16 0 01.517-.056l-.302 3.196zm1.921-1.018a.812.812 0 01-.217-.004c-.03-.005-.035-.008-.007 0l.944-3.057a2.633 2.633 0 00-1.085-.137l.365 3.198zm-.224-.003c.049.016.109.039.227.086.1.04.256.102.417.155l.944-3.058a4.932 4.932 0 01-.23-.087c-.098-.039-.253-.101-.414-.154l-.944 3.058zm.644.24c.239.079.855.27 1.527.051l-1.014-3.061a.97.97 0 01.406-.047c.056.006.073.016.025 0l-.944 3.058zm1.507.058c.401-.125.699-.346.887-.507.191-.164.352-.342.458-.46.129-.144.185-.21.25-.276.063-.064.042-.03-.046.02l-1.554-2.828a2.953 2.953 0 00-.668.52c-.139.14-.284.308-.358.391-.099.11-.143.154-.165.173-.026.022.052-.055.222-.107l.974 3.074zm1.549-1.224c.423-.233.66-.58.786-.849.122-.259.173-.507.198-.677.049-.327.043-.678.041-.87a4.366 4.366 0 01.005-.439c.002-.027 0 .024-.032.115a1.212 1.212 0 01-.36.507l-2.064-2.476c-.33.279-.492.614-.575.846a2.7 2.7 0 00-.135.616c-.033.306-.026.641-.024.822.001.111.002.193 0 .263a.832.832 0 01-.006.097c.001-.003.004-.023.013-.056a.924.924 0 01.059-.16c.067-.141.223-.391.54-.566l1.554 2.827zm.633-2.209c-.006.005-.002 0 .032-.019.06-.033.084-.041.228-.114a3 3 0 001.035-.802l-2.473-2.06c.053-.065.116-.084-.006-.023-.099.05-.504.227-.87.533l2.054 2.485zm1.303-.946a1.09 1.09 0 01-.318.274.839.839 0 01-.124.055.739.739 0 01.071-.015l.208-.034c.145-.023.451-.07.749-.18.305-.113.827-.371 1.145-.972l-2.814-1.544c.199-.377.504-.493.541-.506.029-.011.017-.002-.163.026-.115.019-.399.06-.659.135-.251.073-.747.25-1.126.723l2.49 2.038zm1.732-.875c-.104.197-.22.267-.156.218.056-.044.122-.084.298-.199a4.56 4.56 0 00.583-.431c.21-.189.53-.527.688-1.041l-3.041-.995a1.02 1.02 0 01.144-.294c.041-.055.072-.083.073-.084.002-.002-.01.01-.045.035a4.58 4.58 0 01-.145.096c-.102.066-.318.201-.503.343-.178.136-.495.4-.713.814l2.817 1.538zm1.413-1.454c.15-.485.07-.922-.031-1.213a2.54 2.54 0 00-.345-.646c-.204-.28-.465-.54-.615-.69a5.572 5.572 0 01-.342-.355c-.022-.028.012.008.055.098.039.084.144.336.103.687l-3.163-.422c-.056.474.081.86.189 1.087.109.233.246.42.349.549.196.245.447.49.585.627a8.737 8.737 0 01.257.27l.02.024-.008-.011-.019-.032a1.009 1.009 0 01-.068-.154 1.308 1.308 0 01-.008-.813l3.041.994zm-1.175-2.125c-.028.247-.128.377-.109.348a3.37 3.37 0 01.18-.217c.091-.108.276-.322.425-.576.154-.262.361-.712.32-1.29l-3.177.184c-.023-.33.099-.539.113-.563.01-.017.001.002-.107.128-.073.086-.246.282-.388.49a2.445 2.445 0 00-.421 1.086l3.164.41zm.816-1.738c.01.138-.018.203.002.127.021-.076.048-.152.111-.337a4.72 4.72 0 00.183-.653 2.49 2.49 0 00-.028-1.123l-3.071.81a.987.987 0 01-.031-.317.05.05 0 01.002-.015v-.005.004a3.252 3.252 0 01-.067.213c-.037.11-.117.332-.173.542a2.823 2.823 0 00-.104.944l3.176-.19zm.27-1.98c-.05-.185-.072-.347-.152-.73-.061-.294-.163-.753-.368-1.175l-2.855 1.385c-.001-.002.013.028.035.107.022.077.045.174.071.3.029.138.048.245.082.413.029.147.065.322.112.497l3.075-.796zm-.52-1.905a2.366 2.366 0 00-.834-.927c-.236-.157-.484-.27-.623-.334-.183-.084-.246-.112-.301-.143-.058-.033.062.02.191.191l-2.529 1.92c.276.367.618.581.817.693.202.113.431.214.536.262.066.03.111.052.146.07.036.018.044.025.038.02a.609.609 0 01-.099-.084 1.055 1.055 0 01-.197-.283l2.855-1.385zm-1.567-1.212c-.326-.436-.729-.71-.957-.861-.3-.199-.36-.23-.433-.295l-2.077 2.41c.166.146.33.263.46.35a11.2 11.2 0 00.327.215c.189.125.184.144.151.1l2.529-1.92zm-1.392-1.157a3.711 3.711 0 00-1.055-.629c-.313-.13-.378-.15-.472-.203l-1.545 2.79c.183.105.357.184.495.243.07.03.137.056.192.079l.149.06c.187.078.191.097.163.072l2.073-2.412zm-1.524-.83a2.23 2.23 0 00-.415-.186l-.944 3.058a1.008 1.008 0 01-.192-.086l1.551-2.787zm-.415-.186a2.448 2.448 0 00-.878-.112c-.206.01-.404.042-.494.056a4.39 4.39 0 01-.122.017l-.034.003c.004 0 .092-.003.218.038l-.945 3.057c.339.111.647.126.875.119.217-.008.418-.04.52-.054l.132-.02.038-.004c-.002 0-.106.006-.254-.042l.944-3.058zm-1.31.002a3.186 3.186 0 00-1.226-.14c-.313.019-.313.025-.377.018l-.286 3.198c.221.023.414.022.568.015l.198-.013.133-.009c.124-.008.093.004.045-.011l.945-3.058zm-1.597-.121c.096.01.171.028.214.04l.052.015-.944 3.058c.003 0 .052.017.109.032.062.017.156.04.272.052l.297-3.197zm.266.055c.207.068.338.169.391.214.056.047.079.079.069.067a3.714 3.714 0 01-.18-.274c-.081-.13-.226-.364-.389-.57a2.74 2.74 0 00-.361-.382 2.05 2.05 0 00-.703-.402l-.944 3.057a1.166 1.166 0 01-.402-.222c-.056-.048-.079-.08-.069-.067a3.7 3.7 0 01.183.28c.083.132.23.368.397.578.088.11.21.249.366.381.154.132.387.296.698.398l.944-3.058zm-1.173-1.347a1.895 1.895 0 00-.636-.092l.116 3.214c-.064.002-.224 0-.424-.065l.944-3.057zm-.751-.085c-.576.055-1.051.303-1.282.425-.162.085-.217.117-.318.167-.08.04-.108.049-.105.048l.967 3.076c.233-.071.434-.164.582-.239.128-.064.303-.159.372-.195.23-.12.223-.09.129-.082l-.345-3.2zm-1.708.641c.242-.075.403-.032.341-.043a4.102 4.102 0 01-.316-.082c-.148-.04-.421-.116-.712-.146a2.2 2.2 0 00-1.297.24l1.555 2.828c-.295.162-.538.13-.539.13-.005 0 .031.005.195.05.115.032.366.105.606.147a2.41 2.41 0 001.141-.05l-.974-3.074zm-1.984-.03a1.899 1.899 0 00-.757.78 2.5 2.5 0 00-.227.635c-.069.317-.09.658-.102.852a4.78 4.78 0 01-.038.45c-.006.031-.002-.007.028-.081.028-.07.116-.26.328-.44l2.064 2.477c.307-.26.468-.566.555-.777.088-.217.134-.424.161-.579.052-.294.069-.62.08-.8a7.63 7.63 0 01.02-.26l.009-.079a.278.278 0 01.005-.027s-.003.016-.013.043a.792.792 0 01-.058.134 1.244 1.244 0 01-.5.499l-1.555-2.827zm-.762 2.192c.061-.052.1-.064.063-.047-.056.024-.098.037-.262.097-.227.083-.843.297-1.301.869l2.488 2.041c-.144.18-.308.203-.066.114.07-.025.267-.093.438-.167a2.84 2.84 0 00.693-.422l-2.053-2.485zm-1.501.92c.03-.038.041-.039-.015.005-.068.053-.124.09-.27.194-.204.147-.707.497-1.019 1.087l2.814 1.544c-.046.087-.09.125-.08.116.015-.014.051-.044.149-.114.071-.051.238-.166.376-.274.15-.117.35-.288.535-.52l-2.49-2.037zm-1.306 1.29c-.216.41-.321.831-.386 1.11-.08.347-.102.485-.155.658l3.041.994c.099-.32.177-.712.216-.88.055-.238.088-.32.102-.347l-2.818-1.534zm-.541 1.768a2.248 2.248 0 00.03 1.368c.096.296.239.555.309.684.046.084.071.128.098.18l.026.05a.21.21 0 01.008.018l-.002-.006-.007-.018a1.043 1.043 0 01-.031-.404l3.163.421a2.411 2.411 0 00-.188-1.2c-.098-.237-.232-.472-.283-.565-.079-.145-.08-.158-.07-.129.014.043.085.282-.012.595l-3.041-.994zm.43 1.877c.012-.106.042-.159.028-.128-.022.046-.045.085-.13.236-.103.184-.484.813-.42 1.615l3.174-.219a.799.799 0 01-.035.324c-.006.016-.003.001.059-.109.042-.075.152-.263.239-.451.094-.204.208-.497.249-.857l-3.164-.41zm-.523 1.708c-.01-.146.021-.221.004-.163-.018.063-.043.127-.109.305-.051.138-.14.377-.195.64a2.45 2.45 0 00.016 1.133l3.076-.789a.915.915 0 01.024.365l.012-.042c.012-.035.027-.08.051-.144.039-.103.123-.322.184-.534.063-.217.142-.56.114-.96l-3.177.19zm-.281 1.929c.155.567.522.92.801 1.113.265.184.535.284.705.34l.945-3.058c-.054-.018.016-.003.126.074.126.086.382.31.492.714l-3.069.817zm1.506 1.452c.197.065.403.114.531.145.156.038.237.058.296.078l.944-3.058c-.198-.065-.404-.114-.533-.145a4.24 4.24 0 01-.293-.077l-.945 3.057zm.827.223c.046.015 0 .005-.082-.046a1.22 1.22 0 01-.444-.507l2.855-1.385a2.044 2.044 0 00-.771-.842 2.833 2.833 0 00-.614-.278l-.944 3.058zm-.526-.553c.309.635.788 1.151.913 1.316l2.52-1.931a9.107 9.107 0 00-.252-.317c-.076-.093-.122-.147-.167-.205a1.256 1.256 0 01-.159-.248l-2.855 1.385zm.909 1.31c-.006-.007-.001-.002.02.039.033.067.043.095.111.246.111.247.322.693.768 1.092l2.095-2.393c.079.07.096.142.031 0-.045-.101-.212-.524-.497-.903l-2.528 1.92zm.891 1.37c.296.268.611.418.874.504l.944-3.058a.85.85 0 01.293.175l-2.111 2.378zm.874.504c.286.093.564.125.662.138.145.019.133.022.1.01l.944-3.057c-.29-.094-.562-.127-.673-.141-.158-.021-.134-.023-.089-.008l-.944 3.058zm.762.149c.007.002-.056-.017-.142-.07l1.612-2.75a2.496 2.496 0 00-.526-.238l-.944 3.058zm-.107-.048a1.236 1.236 0 01-.412-.378.956.956 0 01-.062-.106l-.017-.038.006.018a12.517 12.517 0 01.073.289c.037.152.112.474.249.775.129.285.47.904 1.234 1.154l.944-3.058c.53.174.709.587.714.596.012.028 0 .008-.047-.188-.03-.124-.096-.422-.195-.687a2.605 2.605 0 00-.271-.535 2.032 2.032 0 00-.675-.635l-1.541 2.793zm1.071 1.714a1.183 1.183 0 01-.445-.258c-.06-.056-.083-.093-.071-.076.031.045.078.128.183.327.08.152.219.422.381.658.084.123.206.285.368.44.159.152.415.353.773.47l.944-3.057a1.2 1.2 0 01.456.266c.06.058.083.095.071.077a4.048 4.048 0 01-.186-.334c-.082-.155-.222-.426-.388-.665a2.733 2.733 0 00-.374-.441 2.046 2.046 0 00-.768-.465l-.944 3.058z" fill="#F53" mask="url(#a)"/><mask id="b" fill="#fff"><path d="M155.503 63.223c.035.011.064.02.102.025.919.101 2.129-1.862 3.035-1.948.251-.025.531.033.823.128.4.131.825.328 1.232.461.378.124.741.193 1.046.093.886-.275 1.595-1.654 2.408-2.103.814-.448.01-3.285.732-3.896.72-.603 1.467-.633 2.075-1.381.589-.738 2.546-.339 2.999-1.196.436-.829 2.196-1.316 2.487-2.26.291-.942-2.474-2.56-2.364-3.504.111-.97 1.615-1.798 1.548-2.75-.07-.97.862-2.284.613-3.205-.248-.927-.371-2.23-.784-3.08-.413-.849-2.122-1.059-2.684-1.807-.561-.748-1.522-1.12-2.225-1.74-.692-.609-1.608-.767-2.415-1.23a1.187 1.187 0 00-.214-.095c-.756-.247-1.692.269-2.505.003-.891-.291-1.537-.004-2.434-.098a.592.592 0 01-.11-.028c-.798-.26-1.465-2.323-2.242-2.577a.612.612 0 00-.204-.025c-.922.089-1.788.836-2.664 1.105-.886.276-2.424-.742-3.238-.294-.813.448-.259 3.254-.981 3.865-.72.603-1.852.582-2.452 1.333-.589.737-1.73 1.128-2.183 1.985-.439.836-.53 1.92-.821 2.862-.291.943 1.051 2.088.94 3.032-.111.968-1.065 1.744-.988 2.691.069.97-.882 2.17-.64 3.088.085.31.42.495.848.635.485.158 1.088.264 1.58.425.385.126.697.286.822.542.412.85.856 1.244 1.425 1.994.561.749.604 1.552 1.305 2.18.172.155.362.25.554.314.464.151.967.124 1.459.285.121.04.247.09.366.162.78.446.585 2.732 1.476 3.023.855.28 1.439 2.713 2.273 2.986z"/></mask><path d="M152.497 58.67l-.773.18v.001l.773-.182zm-.713-1.53l.388-.696-.012-.007-.012-.006-.364.71zm-1.15-.317l.094-.797-.009-.001-.085.798zm-1.217-.431l.522-.6-.002-.003-.52.602zm-.756-1.186l.729-.313-.005-.01-.724.323zm-.537-.981l-.63.483.003.003.627-.486zm-.475-.596l-.615.503.003.004.612-.507zm-.938-1.386l.714-.346-.714.346zm-3.249-1.577l.77-.193-.003-.01-.767.203zm.299-1.605l.744.296.002-.005-.746-.291zm.345-1.474l.795-.039-.002-.014-.793.053zm.478-1.396l-.693-.405-.002.003.695.402zm.022-2.742l-.697.379.002.003.695-.382zm-.181-2.617l.778.185-.778-.185zm.55-1.78l-.704-.385-.002.005.706.38zm1.18-1.126l.46.663.002-.002-.462-.66zm.998-.844l.619.514.002-.002-.621-.512zm1.291-.75l-.277-.756h-.002l.279.757zm1.15-.57l.513.622.006-.005-.519-.617zm.48-1.96l.794.064v-.003l-.794-.062zm.489-1.892l.381.711.008-.004-.389-.707zm1.652.116l.205-.774-.007-.001-.198.775zm1.569.181l.24.77.004-.001-.244-.769zm1.088-.5l.38.712.003-.001-.383-.71zm1.56-.602l.089.8.009-.001-.098-.8zm1.241 1.27l-.671.422.001.002.67-.425zm1.308 1.357l-.075.8h.007l.068-.8zm1.005-.004l.067.802h.001l-.068-.802zm2.738.107l-.126-.796-.007.002.133.794zm1.372.083l-.403.688.01.005.393-.693zm.989.456l.29-.745h-.003l-.287.745zm1.411.769l-.525.596.006.006.519-.602zm.925.667l.421-.676-.421.676zm1.289 1.061l.632-.48-.002-.003-.63.483zm1.305.834l.32-.731-.32.73zm1.374.964l-.714.346.714-.346zm.545 1.997l-.782.141.002.011.78-.152zm.227 1.07l-.773.185.002.009.003.01.768-.203zm-.29 1.675l-.751-.276-.002.007.753.269zm-.326 1.513l.794-.051v-.005l-.794.056zm-.746 1.375l-.603-.533-.002.002.605.531zm.392 3.102l-.556.567.007.007.007.006.542-.58zm-.104 2.93l-.433-.68-.004.003.437.677zm-1.201 1.044l.702.39.003-.007-.705-.383zm-1.486.619l-.133-.794h-.004l.137.794zm-1.501.564l.622.51-.622-.51zm-1.118.797l-.355-.724.355.724zm-.938.574l.511.623.008-.007-.519-.616zm-.359 2l.796.004v-.006l-.796.002zm-1.437 2.877l-.593-.545-.002.002.595.543zm-1.323 1.104l.238.77.006-.001-.244-.769zm-1.619-.322l-.291.745.014.005.013.005.264-.755zm-1.473-.365l-.072-.801h-.009l-.009.001.09.8zm-1.456.977l.54.599.003-.003-.543-.596zm-1.564.975l-.236.765.079.026.082.009.075-.8zm-2.123-3.777c.137.044.113.132.019-.092-.084-.198-.151-.465-.238-.819l-1.546.364c.077.315.174.724.32 1.07.136.32.408.82.973 1.005l.472-1.528zm-.218-.91c-.074-.305-.166-.69-.3-1.028-.129-.324-.357-.761-.799-1.016l-.775 1.393c-.043-.024.009-.017.097.205.084.21.149.473.23.809l1.547-.363zm-1.123-2.057a3.175 3.175 0 00-.508-.22l-.472 1.528c.078.026.158.061.252.111l.728-1.42zm-.508-.22c-.338-.111-.666-.153-.912-.185l-.187 1.594c.267.035.451.062.627.119l.472-1.529zm-.921-.186a2.876 2.876 0 01-.537-.1l-.472 1.528c.294.096.594.138.84.168l.169-1.596zm-.537-.1a.654.654 0 01-.243-.134l-1.043 1.2c.238.212.511.363.814.462l.472-1.529zm-.245-.136c-.235-.207-.355-.452-.547-.895l-1.458.624c.183.427.424.997.966 1.476l1.039-1.205zm-.552-.907c-.136-.303-.319-.733-.634-1.144l-1.254.973c.178.232.287.48.44.818l1.448-.647zm-.631-1.14c-.178-.236-.35-.443-.494-.62l-1.223 1.014c.152.186.301.365.457.572l1.26-.966zm-.491-.616c-.35-.433-.596-.732-.838-1.23l-1.428.693c.334.687.695 1.119 1.037 1.543l1.229-1.006zm-.838-1.23c-.267-.547-.813-.826-1.343-1l-.472 1.53c.197.064.309.122.367.161.053.036.039.041.02.002l1.428-.692zm-1.343-1a10.64 10.64 0 00-.863-.229l-.341 1.566c.276.065.521.123.732.193l.472-1.53zm-.863-.229a9.052 9.052 0 01-.719-.188l-.472 1.529c.281.092.587.163.85.225l.341-1.566zm-.719-.188a2.163 2.163 0 01-.233-.09.652.652 0 01-.107-.058c-.029-.02.041.021.072.142l-1.541.385c.092.357.321.609.557.778.228.164.501.28.78.372l.472-1.529zm-.271-.016c-.013-.05-.021-.158.029-.37s.137-.445.247-.736l-1.488-.592c-.103.27-.23.603-.308.934-.079.332-.13.745-.015 1.169l1.535-.405zm.278-1.11c.167-.45.435-1.133.393-1.805l-1.589.079c.016.26-.094.6-.296 1.142l1.492.583zm.392-1.819c-.015-.193.08-.405.38-.94l-1.39-.805c-.226.405-.638 1.073-.577 1.852l1.587-.107zm.378-.938c.207-.366.541-.925.611-1.586l-1.583-.193c-.029.27-.169.535-.414.97l1.386.809zm.611-1.586c.044-.415-.059-.8-.177-1.104a7.08 7.08 0 00-.409-.838l-1.391.763c.136.249.245.452.317.641.074.19.082.294.077.345l1.583.193zm-.584-1.94c-.154-.283-.268-.494-.336-.685-.067-.188-.047-.243-.049-.237l-1.521-.497c-.146.474-.047.926.073 1.262.119.334.302.664.438.915l1.395-.757zm-.385-.922c.119-.383.206-.779.284-1.13l-1.555-.37c-.079.36-.154.692-.25 1.003l1.521.497zm.284-1.131c.141-.643.263-1.17.479-1.585l-1.413-.76c-.33.636-.489 1.379-.621 1.976l1.555.369zm.476-1.58c.142-.268.439-.5.936-.848l-.92-1.325c-.425.298-1.073.736-1.424 1.403l1.408.77zm.938-.85c.34-.24.808-.563 1.155-.991l-1.237-1.028c-.186.228-.46.427-.843.698l.925 1.32zm1.157-.993c.157-.195.402-.305.95-.505l-.559-1.512c-.461.168-1.153.4-1.632.992l1.241 1.025zm.948-.504c.369-.134.932-.327 1.385-.706l-1.026-1.243c-.204.17-.488.28-.914.435l.555 1.514zm1.391-.711c.403-.344.549-.86.621-1.236.078-.404.107-.87.134-1.277l-1.589-.13c-.029.439-.053.794-.108 1.08-.06.313-.126.355-.096.33l1.038 1.233zm.755-2.516c.027-.432.051-.794.107-1.074a1.1 1.1 0 01.071-.249c.018-.035-.004.029-.102.081l-.761-1.422a1.358 1.358 0 00-.566.612 2.6 2.6 0 00-.204.643c-.081.407-.109.887-.134 1.285l1.589.124zm.084-1.246c-.015.008.042-.027.273.003.22.028.474.096.792.182l.396-1.551c-.29-.08-.658-.182-1.01-.226-.341-.044-.806-.054-1.228.178l.777 1.414zm1.058.183c.273.077.601.169.924.22.317.05.708.074 1.09-.043l-.48-1.54c-.051.016-.167.029-.387-.006a6.654 6.654 0 01-.737-.178l-.41 1.547zm2.018.176c.448-.14.882-.374 1.224-.556l-.759-1.424c-.372.199-.672.356-.952.443l.487 1.537zm1.227-.558c.538-.29.923-.48 1.266-.513l-.177-1.6c-.71.07-1.375.435-1.854.692l.765 1.421zm1.275-.514a.466.466 0 01-.115-.002c-.031-.004-.049-.01-.045-.01l.472-1.528a1.185 1.185 0 00-.507-.058l.195 1.598zm-.16-.011c-.049-.016-.053-.03-.011.005.038.034.093.092.164.183.147.187.298.429.479.716l1.342-.846c-.167-.266-.367-.588-.576-.856-.188-.24-.497-.59-.926-.731l-.472 1.529zm.633.906c.177.281.39.623.621.91.218.27.545.616.995.763l.472-1.53c.014.006-.065-.023-.237-.237a8.538 8.538 0 01-.511-.755l-1.34.849zm1.616 1.673c.123.04.235.053.287.06l.149-1.6h-.005l.041.01-.472 1.53zm.294.06c.436.043.819.021 1.14-.002l-.133-1.603a4.976 4.976 0 01-.872.005l-.135 1.6zm1.141-.002c.463-.033.753-.049 1.108.067l.472-1.528c-.686-.225-1.263-.175-1.715-.142l.135 1.603zm1.108.067c.639.21 1.283.097 1.696.032l-.267-1.588c-.478.075-.74.099-.957.028l-.472 1.528zm1.688.033c.471-.07.674-.083.81-.038l.472-1.529c-.562-.184-1.165-.078-1.534-.024l.252 1.591zm.81-.038a.222.222 0 01.024.01c.007.002.01.004.009.004l.806-1.376a1.778 1.778 0 00-.367-.167l-.472 1.529zm.043.02c.379.222.779.38 1.096.508l.573-1.492c-.339-.136-.624-.252-.883-.404l-.786 1.387zm1.093.507c.547.223.894.368 1.175.62l1.051-1.193c-.53-.477-1.162-.719-1.647-.917l-.579 1.49zm1.181.626c.335.296.71.54 1.022.741l.843-1.352a6.899 6.899 0 01-.826-.593l-1.039 1.204zm1.022.741c.492.317.848.56 1.081.868l1.26-.966c-.436-.575-1.047-.963-1.498-1.254l-.843 1.352zm1.079.865c.23.307.535.523.803.68.27.158.568.293.813.405l.641-1.462a7.677 7.677 0 01-.669-.33c-.188-.111-.282-.196-.324-.252l-1.264.96zm1.616 1.085c.298.137.537.247.729.367.198.124.246.2.252.212l1.428-.692c-.205-.422-.559-.698-.853-.882-.299-.188-.642-.343-.915-.467l-.641 1.462zm.981.58c.207.425.337 1.053.477 1.791l1.564-.282c-.129-.679-.292-1.541-.613-2.202l-1.428.692zm.479 1.802c.075.365.149.756.234 1.103l1.545-.368c-.075-.304-.138-.639-.219-1.039l-1.56.304zm.239 1.121c.014.051.022.172-.029.408a7.36 7.36 0 01-.244.788l1.503.552c.099-.285.221-.631.296-.972.073-.336.124-.758.009-1.18l-1.535.404zm-.275 1.203c-.084.246-.187.544-.261.839a3.074 3.074 0 00-.105 1l1.587-.113a1.503 1.503 0 01.061-.472c.055-.218.134-.446.225-.715l-1.507-.54zm-.366 1.833c-.001-.01.008.044-.092.204-.101.164-.252.342-.464.587l1.206 1.066c.191-.22.431-.496.611-.787.182-.293.363-.694.326-1.172l-1.587.102zm-.558.793c-.176.206-.398.462-.578.736-.182.276-.363.63-.411 1.048l1.581.208c.008-.07.046-.18.16-.354.115-.175.266-.353.457-.575l-1.209-1.063zm-.989 1.784c-.069.589.262 1.096.499 1.405.265.346.621.7.931 1.011l1.113-1.135c-.332-.331-.603-.605-.789-.848-.215-.281-.161-.326-.173-.225l-1.581-.208zm1.444 2.43c.33.315.614.595.801.837.093.12.133.196.147.23.014.036-.027-.043.013-.174l1.521.497c.108-.35.034-.676-.059-.908a2.644 2.644 0 00-.372-.623c-.274-.355-.648-.717-.966-1.02l-1.085 1.16zm.961.893c-.006.022-.051.115-.245.279a6.71 6.71 0 01-.711.497l.866 1.36c.27-.172.601-.384.881-.622.272-.231.59-.564.73-1.017l-1.521-.497zm-.96.779c-.245.16-.53.342-.777.54-.247.2-.515.458-.693.799l1.411.765c.033-.064.111-.161.284-.3a8.14 8.14 0 01.649-.449l-.874-1.355zm-1.466 1.332c.029-.054.042-.01-.156.057-.191.064-.437.106-.761.157l.265 1.588c.294-.046.68-.105 1.022-.22.334-.114.781-.332 1.034-.803l-1.404-.779zm-.921.214c-.284.046-.644.103-.972.206-.325.102-.725.28-1.015.643l1.245 1.019c.005-.007.058-.063.261-.126.2-.063.443-.104.754-.154l-.273-1.588zm-1.986.848c-.21.262-.437.38-.851.583l.711 1.449c.399-.196.929-.444 1.384-1.011l-1.244-1.021zm-.851.583c-.301.148-.709.345-1.102.681l1.038 1.233c.225-.192.465-.314.775-.465l-.711-1.449zm-1.094.675c-.436.362-.558.917-.606 1.305-.053.42-.045.9-.038 1.321l1.592-.005c-.007-.448-.01-.81.026-1.094.039-.317.104-.328.048-.28l-1.022-1.247zm-.644 2.62c.004.425.006.783-.03 1.059a1.016 1.016 0 01-.05.234c-.012.027.014-.052.126-.113l.777 1.413c.301-.166.468-.43.561-.648.093-.218.139-.452.166-.658.052-.41.046-.89.042-1.28l-1.592-.008zm.046 1.18c-.521.287-.97.81-1.28 1.155l1.185 1.09c.383-.425.636-.702.872-.832l-.777-1.413zm-1.282 1.157c-.217.243-.401.45-.585.615-.187.17-.312.24-.386.264l.487 1.537c.395-.123.721-.37.973-.599.255-.232.497-.504.7-.73l-1.189-1.087zm-.965.877c-.023.007-.149.035-.533-.09l-.472 1.528c.5.164 1 .247 1.48.103l-.475-1.541zm-.533-.09c-.183-.06-.344-.128-.586-.217l-.527 1.51c.167.061.425.164.641.235l.472-1.529zm-.559-.206c-.22-.09-.45-.174-.675-.248l-.472 1.529c.189.062.383.133.566.208l.581-1.49zm-.675-.248c-.407-.133-.795-.203-1.16-.174l.145 1.602c.085-.006.252.006.543.1l.472-1.528zm-1.178-.173c-.437.045-.811.273-1.085.474-.286.21-.572.476-.823.708l1.085 1.191a8.43 8.43 0 01.686-.594 1.44 1.44 0 01.235-.148c.061-.03.086-.032.082-.031l-.18-1.6zm-1.905 1.18c-.286.261-.523.478-.739.63-.244.173-.291.135-.212.143l-.149 1.599c.535.057.997-.217 1.284-.419.316-.222.634-.518.895-.757l-1.079-1.197zm-.789.808l-.086-.028-.472 1.529.086.028.472-1.529zm-.243.837l.151-1.598h-.002l-.149 1.598zm3.035-1.948l.17 1.6h.012l-.182-1.6zm3.101.682l-.487-1.537-.01.003-.01.004.507 1.53zm3.14-6l-1.027-1.242-.005.005 1.032 1.238zm2.075-1.38l1.237 1.03.008-.011-1.245-1.02zm2.999-1.196l1.407.772.001-.002-1.408-.77zm.123-5.764l1.582.21v-.005l-1.582-.205zm1.548-2.75l1.588-.092v-.002l-1.588.094zm.613-3.205l-1.538.399.002.007 1.536-.406zm-5.693-6.628l1.038-1.204-.002-.002-1.036 1.206zm-2.415-1.23l-.775 1.394.002.002.773-1.395zm-5.153-.19l-.149 1.599h.005l.144-1.598zm-2.556-2.629l-.058-1.607-.057.001-.057.006.172 1.6zm-2.664 1.105l-.484-1.538-.004.001.488 1.537zm-4.219 3.57l1.027 1.244.005-.005-1.032-1.238zm-2.452 1.334l-1.244-1.021-.002.002 1.246 1.019zm-2.183 1.985l-1.407-.772-.003.005 1.41.767zm.119 5.894l-1.582-.21v.004l1.582.206zm-.988 2.691l1.588-.094-.001-.008v-.007l-1.587.11zm-.64 3.088l-1.538.395.002.007.002.006 1.534-.408zm3.25 1.602l1.427-.692-1.427.692zm1.425 1.994l1.264-.96-.004-.006-1.26.966zm1.305 2.18l1.056-1.19-.008-.007-1.048 1.196zm2.379.76l-.806 1.376.018.01.017.01.771-1.395zm3.277 7.539c.028.009.202.07.425.094l.298-3.197c.147.017.264.06.221.045l-.944 3.058zm.423.094c.798.088 1.438-.278 1.775-.502.374-.25.724-.57.98-.806.295-.272.492-.457.674-.595.218-.166.165-.065-.073-.042l-.341-3.201c-.69.065-1.234.444-1.527.667-.328.25-.661.566-.897.783-.275.253-.455.41-.595.503-.177.118-.033-.04.306-.003l-.302 3.196zm3.368-1.946c-.051.005-.065-.002-.028.004.037.006.1.021.197.053l.945-3.057c-.363-.119-.897-.259-1.479-.2l.365 3.2zm.169.057c.144.047.303.11.52.196.198.079.453.18.712.265l.944-3.058a9.304 9.304 0 01-.525-.197c-.197-.078-.451-.18-.706-.263l-.945 3.057zm1.232.46c.419.138 1.208.362 2.026.096l-1.015-3.061c.123-.04.196-.027.17-.03a.691.691 0 01-.077-.015 2.155 2.155 0 01-.16-.047l-.944 3.058zm2.006.102c.507-.157.905-.444 1.189-.688a8.1 8.1 0 00.742-.749c.222-.248.37-.42.528-.58.072-.073.129-.125.174-.162.046-.037.067-.048.064-.047l-1.554-2.827a4.265 4.265 0 00-.952.748c-.231.234-.468.508-.636.695a5.052 5.052 0 01-.449.462c-.122.105-.145.094-.081.074l.975 3.074zm2.697-2.226c.914-.504 1.097-1.484 1.154-1.866.072-.489.066-1.038.062-1.43-.005-.46-.009-.773.017-1.014.037-.34.087-.044-.246.238l-2.064-2.476c-.694.587-.814 1.466-.855 1.845-.052.477-.041 1.016-.037 1.398.005.449.001.731-.027.92-.044.295-.065-.163.442-.442l1.554 2.827zm.982-4.067c.183-.154.336-.218.775-.437.414-.207.993-.522 1.51-1.158l-2.474-2.059c-.091.112-.189.186-.48.332-.267.133-.847.386-1.385.836l2.054 2.486zm2.293-1.605c-.154.193-.296.196-.131.148.156-.045.351-.075.707-.133.293-.047.745-.12 1.165-.275.427-.157 1.048-.48 1.42-1.183l-2.814-1.543c.145-.275.352-.327.265-.295-.092.034-.25.068-.578.12-.263.043-.696.105-1.087.22-.381.11-.988.34-1.437.903l2.49 2.038zm3.162-1.445c-.051.097-.076.078.097-.055.167-.128.362-.249.665-.445.263-.17.62-.405.935-.688.311-.28.709-.718.903-1.344l-3.042-.994c.048-.155.117-.179.003-.076-.11.1-.275.215-.543.388-.228.148-.573.363-.868.589-.288.22-.697.574-.967 1.086l2.817 1.539zm2.6-2.532c.323-1.047-.268-1.925-.502-2.247-.307-.424-.719-.836-1.021-1.138-.351-.35-.596-.593-.764-.803-.08-.1-.092-.132-.08-.108.009.02.098.21.064.504l-3.163-.42c-.062.53.09.977.228 1.269.14.297.324.554.483.753.31.389.717.786 1.008 1.076.338.338.556.566.683.741.2.276-.156-.046.022-.621l3.042.994zm-2.303-3.797c-.015.13-.06.15.033.012.095-.14.221-.285.439-.54.182-.214.455-.535.668-.898.217-.369.463-.93.414-1.621l-3.176.185c-.016-.216.067-.316.018-.232a3.717 3.717 0 01-.35.45c-.164.192-.43.495-.647.813-.217.32-.492.805-.563 1.42l3.164.411zm1.554-3.05c.002.023-.005-.039.051-.244.055-.208.131-.419.241-.739.096-.282.222-.658.296-1.049.074-.388.125-.918-.028-1.483l-3.071.81c-.028-.104 0-.124-.028.023a5.01 5.01 0 01-.181.614c-.084.245-.212.601-.304.942-.092.342-.189.809-.152 1.316l3.176-.19zm.562-3.508c-.109-.407-.175-.835-.309-1.48-.115-.554-.281-1.27-.584-1.894l-2.856 1.385c.11.225.211.586.323 1.127.094.45.213 1.138.351 1.659l3.075-.797zm-.893-3.374c-.285-.585-.738-.955-1.08-1.182a7.295 7.295 0 00-.991-.529c-.314-.144-.51-.23-.682-.327-.176-.099-.156-.12-.094-.037l-2.529 1.92c.342.456.786.743 1.102.92.319.18.681.34.917.448.278.128.442.21.552.284.112.074.027.049-.051-.112l2.856-1.385zm-2.847-2.075c-.461-.613-1.045-1.022-1.463-1.298-.489-.325-.748-.475-.989-.687l-2.077 2.409c.463.407 1.036.754 1.343.958.379.25.556.403.657.538l2.529-1.92zm-2.454-1.987c-.554-.488-1.162-.761-1.61-.948-.512-.213-.782-.306-1.068-.47l-1.546 2.79c.521.298 1.113.516 1.433.65.385.16.582.27.718.39l2.073-2.412zm-2.676-1.417a2.77 2.77 0 00-.517-.23l-.944 3.057c-.017-.005-.029-.01-.041-.015a.482.482 0 01-.048-.025l1.55-2.787zm-.517-.23c-.807-.264-1.637-.101-1.959-.053-.498.075-.557.053-.546.056l-.944 3.058c.824.269 1.64.12 2.002.066.538-.08.555-.053.503-.07l.944-3.057zm-2.505.003c-.726-.237-1.343-.227-1.805-.199-.496.03-.68.06-.958.03l-.287 3.199c.62.065 1.207-.003 1.481-.02.308-.019.46-.006.625.048l.944-3.058zm-2.758-.168c.087.01.153.026.188.035.029.008.051.015.026.007l-.944 3.058c.011.004.203.072.433.097l.297-3.197zm.214.042c.275.09.334.24.185.053a7.383 7.383 0 01-.443-.662c-.168-.267-.399-.64-.65-.958-.216-.273-.657-.788-1.334-1.01l-.944 3.058c-.288-.094-.354-.256-.201-.063.117.149.248.355.444.667.17.27.403.645.659.966.224.28.667.787 1.34 1.007l.944-3.058zm-2.242-2.576a2.187 2.187 0 00-.734-.104l.116 3.214a.995.995 0 01-.326-.053l.944-3.057zm-.848-.097c-.796.076-1.484.424-1.926.656-.543.285-.792.432-1.05.511l.967 3.077c.618-.19 1.241-.552 1.581-.73.44-.231.647-.301.773-.313l-.345-3.201zm-2.98 1.168c.137-.042.173-.004-.024-.039-.188-.033-.395-.093-.735-.186a7.035 7.035 0 00-1.126-.236c-.415-.042-1.038-.043-1.642.29l1.555 2.828c-.198.109-.323.068-.194.081.125.013.302.054.609.138.257.07.651.186 1.026.252.365.065.926.127 1.506-.053l-.975-3.075zm-3.527-.17c-.853.47-1.089 1.37-1.172 1.752-.105.477-.139 1.015-.165 1.407-.029.455-.048.772-.092 1.02-.058.334-.092.102.193-.14l2.064 2.477c.646-.547.814-1.358.88-1.736.081-.464.109-.991.133-1.37.029-.441.053-.727.096-.922.064-.289.064.093-.382.339l-1.555-2.827zm-1.231 4.035c-.098.082-.232.132-.804.342-.441.161-1.264.462-1.865 1.213l2.487 2.041s.043-.063.498-.23c.323-.118 1.115-.359 1.738-.88l-2.054-2.486zM145.841 36c-.121.153-.31.28-.829.651-.402.288-1.095.787-1.515 1.582l2.814 1.544c.033-.063.137-.187.565-.493.312-.224.988-.66 1.456-1.246L145.841 36zm-2.347 2.237c-.319.61-.488 1.26-.607 1.774-.135.582-.202.961-.325 1.36l3.041.994c.169-.545.292-1.179.386-1.583.109-.472.205-.783.324-1.01l-2.819-1.535zm-.932 3.133c-.208.673-.092 1.29.049 1.72.136.418.344.802.482 1.055.167.304.258.466.321.618.062.15.008.092.027-.075l3.163.421c.075-.638-.105-1.193-.255-1.553-.148-.358-.353-.718-.472-.935-.147-.27-.213-.407-.243-.5-.026-.078.032.042-.031.244l-3.041-.995zm.879 3.323c-.01.089-.063.203-.371.754-.219.39-.706 1.225-.622 2.253l3.174-.22c.006.082-.042.054.225-.422.177-.316.657-1.074.758-1.954l-3.164-.41zm-.995 2.992c-.002-.031.007.017-.046.2-.054.19-.129.382-.242.687a7.22 7.22 0 00-.313 1.018c-.082.39-.138.915.012 1.483l3.076-.79c.029.11.001.14.027.016.027-.128.082-.294.182-.564.086-.23.221-.578.318-.915.098-.343.2-.809.163-1.324l-3.177.189zm-.585 3.401c.175.641.591 1.053.942 1.295.335.232.696.371.968.46l.944-3.057a1.453 1.453 0 01-.141-.053c-.028-.013-.022-.013.005.006a.97.97 0 01.351.533l-3.069.816zm1.91 1.755c.313.102.648.183.906.246.287.07.498.122.674.18l.944-3.058c-.315-.103-.652-.184-.911-.247a9.53 9.53 0 01-.669-.178l-.944 3.057zm1.58.425a1.7 1.7 0 01.138.051l.022.01a.862.862 0 01-.294-.354l2.855-1.385a2.427 2.427 0 00-.92-.995 3.973 3.973 0 00-.857-.384l-.944 3.058zm-.134-.293c.506 1.04 1.196 1.744 1.593 2.267l2.52-1.931c-.741-.978-.938-1.063-1.258-1.721l-2.855 1.385zm1.588 2.261c.144.191.207.359.418.826.192.425.492 1.041 1.104 1.59l2.096-2.393c-.089-.079-.161-.178-.306-.499-.126-.278-.364-.886-.783-1.444l-2.529 1.92zm1.514 2.409c.379.343.784.537 1.138.653l.945-3.057c-.018-.006-.019-.008-.01-.003a.19.19 0 01.017.011l.022.017-2.112 2.379zm1.138.653c.398.13.79.176 1.005.205.262.035.369.053.454.081l.944-3.058c-.408-.133-.798-.18-1.027-.211-.275-.036-.365-.052-.431-.074l-.945 3.057zm1.459.286l.051.018c.005.003-.003 0-.019-.01l1.612-2.75a3.347 3.347 0 00-.7-.316l-.944 3.058zm.067.029c-.324-.186-.36-.432-.283-.227.061.165.112.38.203.76.075.311.19.789.384 1.216.186.41.601 1.123 1.471 1.407l.944-3.057c.424.138.529.457.477.342-.045-.098-.096-.274-.182-.628-.068-.283-.171-.741-.32-1.14-.134-.357-.438-1.057-1.153-1.466l-1.541 2.793zm1.775 3.156c-.327-.106-.391-.305-.231-.074.121.175.254.42.444.781.165.313.389.744.639 1.11.208.303.663.92 1.421 1.169l.944-3.058c.341.111.41.323.247.085a8.676 8.676 0 01-.444-.787c-.167-.316-.393-.749-.648-1.117-.216-.312-.674-.92-1.428-1.166l-.944 3.057z" fill="#F53" mask="url(#b)"/><mask id="c" fill="#fff"><path d="M154.152 72.244a.73.73 0 00.162.04c1.452.16 3.366-2.944 4.798-3.08.398-.04.841.052 1.303.203.632.206 1.305.518 1.948.728.597.196 1.172.305 1.655.147 1.4-.435 2.52-2.616 3.807-3.325 1.286-.709.015-5.196 1.158-6.162 1.138-.954 2.32-1 3.281-2.184.931-1.166 4.025-.535 4.742-1.89.69-1.311 3.473-2.082 3.933-3.573.46-1.492-3.913-4.05-3.738-5.543.175-1.532 2.554-2.842 2.447-4.348-.11-1.533 1.364-3.612.969-5.068-.391-1.467-.586-3.527-1.239-4.87-.653-1.343-3.356-1.675-4.244-2.859-.888-1.183-2.407-1.771-3.519-2.752-1.093-.962-2.543-1.213-3.819-1.945a1.821 1.821 0 00-.338-.15c-1.195-.39-2.676.425-3.961.005-1.41-.46-2.431-.007-3.85-.155a.861.861 0 01-.173-.044c-1.262-.413-2.316-3.673-3.545-4.075a.97.97 0 00-.323-.04c-1.458.141-2.828 1.322-4.214 1.749-1.4.435-3.833-1.175-5.119-.466-1.287.709-.41 5.146-1.552 6.112-1.139.954-2.928.92-3.878 2.107-.931 1.166-2.736 1.784-3.452 3.14-.694 1.322-.838 3.035-1.298 4.526-.461 1.491 1.662 3.301 1.486 4.794-.175 1.531-1.683 2.759-1.562 4.256.11 1.533-1.395 3.431-1.011 4.883.134.49.664.782 1.341 1.003.766.25 1.72.418 2.498.673.609.199 1.102.452 1.299.858.653 1.343 1.354 1.966 2.254 3.153.888 1.184.955 2.453 2.064 3.446.271.246.572.397.877.497.732.24 1.527.197 2.305.452.192.062.391.14.58.255 1.234.705.924 4.32 2.334 4.781 1.353.443 2.275 4.29 3.594 4.721z"/></mask><path d="M149.399 65.043l-.773.182h.001l.772-.182zm-1.127-2.417l.387-.697-.012-.007-.012-.006-.363.71zm-1.819-.503l.093-.797h-.008l-.085.797zm-1.924-.681l.521-.6-.002-.002-.519.602zm-1.196-1.876l.729-.312-.005-.011-.724.323zm-.849-1.551l-.63.483.002.003.628-.486zm-.752-.942l-.615.503.003.004.612-.507zm-1.483-2.192l.714-.346-.714.346zm-5.139-2.494l.771-.192-.003-.01-.768.202zm.474-2.538l.744.296.001-.004-.745-.292zm.545-2.33l.795-.039-.001-.014-.794.053zm.757-2.208l-.693-.405-.002.003.695.402zm.035-4.336l-.697.379.001.003.696-.382zm-.286-4.138l.777.185-.777-.185zm.869-2.815l-.704-.385-.003.005.707.38zm1.865-1.78l.46.662.003-.002-.463-.66zm1.58-1.336l.618.514.002-.001-.62-.513zm2.041-1.184l-.278-.757h-.002l.28.757zm1.818-.903l.513.622.006-.005-.519-.617zm.759-3.1l.794.064v-.003l-.794-.062zm.774-2.991l.38.711.009-.005-.389-.706zm2.612.184l.205-.774-.007-.002-.198.776zm2.481.286l.24.77.004-.002-.244-.768zm1.721-.79l.38.711.002-.001-.382-.71zm2.467-.954l.088.8h.009l-.097-.8zm1.962 2.008l-.671.423.001.001.67-.424zm2.068 2.147l-.075.799h.007l.068-.8zm1.59-.006l.067.802h.001l-.068-.802zm4.33.168l-.126-.795-.007.001.133.794zm2.169.132l-.403.687.009.006.394-.693zm1.564.721l.29-.745h-.003l-.287.745zm2.232 1.216l-.526.596.006.006.52-.602zm1.461 1.055l.422-.676-.422.676zm2.039 1.678l.633-.48-.003-.003-.63.483zm2.063 1.318l.321-.731-.321.731zm2.173 1.525l-.713.346.713-.346zm.863 3.158l-.782.141.002.011.78-.152zm.358 1.693l-.772.184.002.01.002.008.768-.202zm-.458 2.648l-.751-.276-.002.006.753.27zm-.515 2.392l.794-.051v-.005l-.794.056zm-1.18 2.175l-.603-.533-.002.002.605.531zm.62 4.905l-.556.567.007.007.007.006.542-.58zm-.165 4.634l-.433-.68-.004.002.437.678zm-1.899 1.651l.701.39.004-.008-.705-.382zm-2.351.978l-.132-.794h-.004l.136.794zm-2.373.892l.622.51h.001l-.623-.51zm-1.767 1.261l-.355-.724.355.724zm-1.484.907l.511.623.008-.007-.519-.616zm-.567 3.163l.796.004v-.006l-.796.002zm-2.274 4.55l-.592-.545-.002.001.594.544zm-2.09 1.746l.237.77.006-.002-.243-.768zm-2.561-.51l-.291.745.013.005.014.005.264-.755zm-2.33-.577l-.072-.801h-.009l-.009.001.09.8zm-2.301 1.546l.539.598.003-.003-.542-.595zm-2.475 1.541l-.236.765.079.026.083.009.074-.8zm-3.493-5.53h-.002l-.009-.006a.362.362 0 01-.054-.053 1.482 1.482 0 01-.195-.35c-.151-.357-.265-.821-.399-1.369l-1.545.364c.123.509.268 1.115.481 1.619.203.479.561 1.1 1.251 1.325l.472-1.53zm-.658-1.777c-.119-.49-.257-1.065-.454-1.562-.193-.483-.501-1.049-1.06-1.37l-.775 1.393c.073.042.206.178.358.56.147.367.258.82.384 1.342l1.547-.363zm-1.538-2.946a4.512 4.512 0 00-.729-.317l-.472 1.529c.157.051.309.12.474.208l.727-1.42zm-.729-.317c-.487-.159-.964-.22-1.36-.273l-.186 1.594c.416.055.749.102 1.074.208l.472-1.529zm-1.368-.274c-.379-.046-.68-.093-.938-.178l-.472 1.53c.419.136.854.197 1.241.244l.169-1.596zm-.938-.178a1.514 1.514 0 01-.55-.306l-1.043 1.2c.324.289.698.497 1.121.635l.472-1.529zm-.552-.307c-.461-.408-.686-.89-.986-1.586l-1.459.625c.293.68.638 1.487 1.406 2.165l1.039-1.204zm-.991-1.597c-.22-.49-.489-1.117-.946-1.714l-1.255.972c.321.42.516.864.752 1.389l1.449-.647zm-.944-1.71c-.275-.365-.54-.684-.77-.966l-1.223 1.013c.238.291.48.584.734.918l1.259-.966zm-.767-.963c-.552-.682-.974-1.193-1.383-2.035l-1.428.692c.501 1.032 1.038 1.676 1.582 2.35l1.229-1.007zm-1.383-2.035c-.334-.685-1.038-1.074-1.845-1.338l-.472 1.529c.704.23.858.437.889.501l1.428-.692zm-1.845-1.338a16.508 16.508 0 00-1.328-.352l-.341 1.565c.434.102.84.2 1.197.316l.472-1.529zm-1.328-.352a14.772 14.772 0 01-1.174-.309l-.472 1.53c.422.137.885.245 1.305.344l.341-1.565zm-1.174-.309c-.347-.113-.552-.217-.667-.299-.105-.076-.082-.095-.068-.042l-1.541.384c.109.426.385.738.698.963.305.22.686.386 1.106.523l.472-1.529zm-.738-.352c-.051-.187-.046-.447.041-.817.088-.37.237-.767.409-1.222l-1.489-.592c-.164.434-.353.93-.469 1.42-.116.49-.18 1.054-.027 1.616l1.535-.404zm.451-2.043c.275-.738.653-1.718.595-2.66l-1.589.078c.032.531-.188 1.168-.497 1.999l1.491.583zm.594-2.675c-.038-.476.205-.944.657-1.753l-1.389-.804c-.38.679-.939 1.602-.855 2.663l1.587-.106zm.656-1.75c.337-.598.809-1.398.908-2.329l-1.583-.193c-.058.54-.336 1.046-.711 1.712l1.386.81zm.908-2.329c.059-.55-.077-1.077-.25-1.525-.174-.45-.413-.89-.621-1.268l-1.391.763c.214.39.401.739.529 1.071.129.333.17.58.15.766l1.583.193zm-.869-2.79c-.238-.44-.438-.808-.56-1.15-.122-.342-.125-.544-.085-.674l-1.52-.497c-.189.61-.067 1.21.108 1.698.174.486.442.973.663 1.38l1.394-.757zm-.645-1.824c.181-.585.316-1.192.439-1.751l-1.554-.37a20.977 20.977 0 01-.405 1.624l1.52.497zm.439-1.752c.221-1.002.425-1.898.799-2.62l-1.414-.76c-.487.942-.729 2.054-.94 3.012l1.555.368zm.796-2.614c.285-.54.857-.968 1.621-1.503l-.919-1.325c-.693.486-1.615 1.12-2.11 2.058l1.408.77zm1.624-1.505c.55-.389 1.233-.863 1.735-1.482l-1.237-1.028c-.34.419-.83.77-1.423 1.189l.925 1.321zm1.737-1.483c.342-.425.86-.634 1.7-.94l-.559-1.514c-.754.276-1.718.606-2.382 1.428l1.241 1.026zm1.699-.94c.6-.218 1.409-.5 2.053-1.038l-1.026-1.244c-.394.33-.925.53-1.583.768l.556 1.514zm2.059-1.043c.511-.437.719-1.114.829-1.692.117-.604.161-1.309.205-1.96l-1.589-.131c-.046.684-.086 1.279-.179 1.765-.098.513-.225.717-.304.784l1.038 1.234zm1.034-3.656c.043-.673.082-1.28.176-1.76.047-.237.1-.402.152-.508.052-.106.075-.096.032-.073l-.76-1.423c-.348.186-.564.488-.701.767-.137.28-.224.597-.285.903-.119.606-.163 1.331-.203 1.97l1.589.124zm.369-2.346c.103-.056.311-.099.708-.048.387.05.822.167 1.317.302l.396-1.552c-.467-.127-1.016-.279-1.534-.345-.508-.065-1.124-.068-1.665.23l.778 1.413zm2.018.252c.434.122.928.26 1.406.334.474.075 1.012.102 1.52-.053l-.48-1.539c-.177.054-.44.063-.816.004a10.877 10.877 0 01-1.22-.294l-.41 1.548zm2.93.28c.66-.205 1.307-.553 1.857-.847l-.759-1.423c-.58.31-1.093.58-1.585.733l.487 1.537zm1.859-.848c.834-.45 1.525-.8 2.173-.864l-.177-1.6c-1.016.101-1.986.626-2.76 1.043l.764 1.421zm2.182-.865a.274.274 0 01-.066 0c-.014-.003-.015-.005.007.003l.472-1.529a1.412 1.412 0 00-.608-.072l.195 1.598zm-.059.003h.002l.008.004a.846.846 0 01.137.098c.091.08.198.197.321.354.249.319.503.724.785 1.173l1.342-.847c-.268-.427-.57-.912-.883-1.312-.292-.373-.705-.824-1.24-.999l-.472 1.529zm1.254 1.63c.284.452.606.967.95 1.394.331.412.777.866 1.353 1.054l.472-1.529c-.112-.036-.309-.174-.595-.528-.272-.339-.541-.765-.84-1.24l-1.34.85zm2.303 2.448c.148.049.286.066.36.074l.149-1.599a.713.713 0 01-.041-.005l.004.001-.472 1.53zm.367.075c.649.064 1.222.032 1.725-.004l-.133-1.604c-.488.035-.949.058-1.457.008l-.135 1.6zm1.726-.004c.729-.053 1.271-.087 1.929.128l.472-1.529c-.988-.323-1.818-.254-2.536-.203l.135 1.604zm1.929.128c.888.29 1.794.138 2.466.032l-.266-1.588c-.738.116-1.263.18-1.728.027l-.472 1.529zm2.459.034c.714-.106 1.151-.154 1.491-.043l.472-1.529c-.765-.25-1.603-.11-2.215-.019l.252 1.59zm1.491-.043a.74.74 0 01.149.066l.806-1.375a2.347 2.347 0 00-.483-.22l-.472 1.53zm.158.072c.565.332 1.164.57 1.672.774l.573-1.492c-.53-.213-1.014-.408-1.458-.669l-.787 1.387zm1.669.773c.847.345 1.479.602 1.995 1.067l1.051-1.193c-.766-.69-1.682-1.044-2.467-1.364l-.579 1.49zm2.001 1.073c.501.442 1.065.811 1.56 1.13l.843-1.353c-.5-.322-.967-.63-1.364-.981l-1.039 1.204zm1.56 1.13c.765.493 1.403.92 1.83 1.484l1.26-.966c-.63-.832-1.522-1.404-2.247-1.87l-.843 1.351zm1.828 1.481c.309.412.73.715 1.131.95.403.237.851.44 1.244.62l.641-1.463a12.56 12.56 0 01-1.1-.544c-.321-.189-.53-.36-.651-.523l-1.265.96zm2.375 1.57c.464.212.872.4 1.207.61.34.213.505.39.573.53l1.427-.693c-.266-.548-.737-.926-1.173-1.2-.443-.277-.955-.51-1.393-.71l-.641 1.463zm1.78 1.14c.36.74.575 1.802.794 2.952l1.563-.282c-.207-1.09-.455-2.387-.93-3.363l-1.427.692zm.796 2.963c.12.587.234 1.19.366 1.725l1.544-.368c-.121-.493-.224-1.038-.351-1.661l-1.559.304zm.37 1.743c.051.19.048.468-.04.87-.087.396-.235.824-.401 1.3l1.503.552c.159-.456.341-.977.453-1.484.11-.502.173-1.082.021-1.642l-1.536.404zm-.443 2.176c-.135.397-.291.848-.402 1.291-.112.443-.194.935-.153 1.428l1.587-.113c-.02-.237.017-.533.109-.9s.224-.748.366-1.167l-1.507-.539zm-.556 2.713c.01.127-.031.312-.212.605-.184.296-.448.606-.777.986l1.206 1.066c.308-.357.662-.764.924-1.186.263-.425.494-.959.447-1.573l-1.588.102zm-.991 1.593c-.283.33-.613.712-.88 1.117-.268.407-.512.895-.577 1.456l1.582.208c.024-.212.125-.458.325-.762.201-.305.461-.61.759-.956l-1.209-1.063zm-1.457 2.573c-.084.73.327 1.398.695 1.878.397.518.934 1.055 1.431 1.552l1.113-1.135c-.518-.518-.971-.974-1.289-1.39-.346-.451-.373-.656-.368-.697l-1.582-.208zm2.14 3.443c.519.496.993.963 1.314 1.378.16.207.254.366.299.479.045.113.013.106.034.038l1.521.497c.127-.413.044-.811-.08-1.12a3.757 3.757 0 00-.523-.872c-.408-.528-.973-1.077-1.48-1.561l-1.085 1.161zm1.647 1.895c-.05.16-.2.377-.529.656-.32.273-.724.535-1.174.823l.867 1.36c.432-.276.927-.594 1.343-.947.408-.347.831-.803 1.014-1.395l-1.521-.497zm-1.707 1.481c-.393.256-.822.532-1.191.829-.369.297-.737.659-.977 1.118l1.411.764c.094-.18.273-.382.568-.62.295-.237.65-.467 1.063-.735l-.874-1.356zm-2.164 1.94c-.036.067-.149.186-.502.306-.345.117-.775.188-1.279.267l.265 1.589c.474-.075 1.043-.163 1.54-.332.489-.166 1.062-.46 1.379-1.052l-1.403-.778zm-1.785.573c-.457.074-.993.16-1.474.31-.478.15-1.01.397-1.385.867l1.245 1.019c.09-.114.275-.238.631-.35.354-.11.772-.18 1.256-.258l-.273-1.588zm-2.859 1.176c-.402.503-.85.729-1.5 1.047l.71 1.448c.637-.311 1.387-.666 2.034-1.474l-1.244-1.021zm-1.5 1.047c-.478.234-1.075.524-1.648 1.014l1.038 1.233c.405-.346.834-.56 1.32-.799l-.71-1.448zm-1.64 1.008c-.547.454-.723 1.174-.796 1.766-.078.624-.067 1.35-.056 2.023l1.592-.005c-.012-.7-.018-1.306.043-1.796.066-.521.185-.697.239-.742l-1.022-1.246zm-.852 3.782c.005.664.01 1.264-.051 1.74a1.96 1.96 0 01-.114.494c-.042.098-.057.073 0 .042l.778 1.413c.356-.196.563-.514.686-.804.123-.289.19-.61.229-.917.078-.609.069-1.332.064-1.96l-1.592-.008zm-.165 2.276c-.74.408-1.393 1.164-1.905 1.733l1.185 1.09c.584-.65 1.042-1.159 1.498-1.41l-.778-1.413zm-1.907 1.734c-.339.38-.648.725-.958 1.007-.315.286-.571.449-.782.514l.487 1.537c.531-.165.988-.504 1.368-.849.383-.347.749-.76 1.074-1.122l-1.189-1.087zm-1.734 1.52c-.168.05-.476.062-1.118-.147l-.472 1.528c.757.248 1.44.348 2.065.159l-.475-1.54zm-1.118-.147c-.299-.098-.581-.215-.942-.347l-.527 1.51c.286.104.665.257.997.365l.472-1.528zm-.915-.337a15.302 15.302 0 00-1.036-.38l-.472 1.529c.31.1.626.217.927.34l.581-1.489zm-1.036-.38c-.61-.2-1.16-.293-1.656-.254l.145 1.602c.216-.017.545.019 1.039.18l.472-1.528zm-1.674-.253c-.566.058-1.076.358-1.492.663-.428.315-.861.716-1.262 1.087l1.085 1.191c.416-.385.782-.722 1.125-.973.354-.26.586-.354.725-.368l-.181-1.6zm-2.751 1.747c-.445.409-.843.774-1.213 1.035-.4.281-.594.312-.648.306l-.148 1.599c.667.072 1.277-.271 1.718-.582.471-.332.95-.776 1.37-1.161l-1.079-1.197zm-1.699 1.376l-.135-.044-.472 1.528.135.045.472-1.53zm-.246.879l.151-1.598h-.003l-.148 1.598zm4.798-3.08l.171 1.6h.012l-.183-1.6zm4.906 1.079l-.487-1.538-.011.004-.01.003.508 1.53zm4.965-9.488l-1.027-1.242-.006.004 1.033 1.238zm3.281-2.184l1.236 1.03.009-.01-1.245-1.02zm4.742-1.89l1.407.772.001-.003-1.408-.77zm.195-9.116l1.582.21v-.005l-1.582-.205zm2.447-4.348l1.589-.093v-.002l-1.589.095zm.969-5.068l-1.537.398.002.007 1.535-.405zm-9.002-10.481l1.038-1.205-.001-.001-1.037 1.206zm-3.819-1.945l-.775 1.394.002.001.773-1.395zm-8.149-.3l-.149 1.598h.006l.143-1.598zm-4.041-4.158l-.058-1.607h-.057l-.057.006.172 1.6zm-4.214 1.748l-.483-1.539-.004.002.487 1.537zm-6.671 5.646l1.027 1.242.005-.004-1.032-1.238zm-3.878 2.107l-1.244-1.02h-.001l1.245 1.02zm-3.452 3.14l-1.407-.772-.002.004 1.409.767zm.188 9.32l-1.581-.21-.001.004 1.582.206zm-1.562 4.256l1.588-.095-.001-.007v-.007l-1.587.109zm-1.011 4.883l-1.539.395.002.007.002.006 1.535-.408zm5.138 2.534l1.428-.693-1.428.693zm2.254 3.153l1.264-.96-.004-.006-1.26.966zm2.064 3.446l1.055-1.19-.008-.006-1.047 1.196zm3.762 1.204l-.806 1.375.017.01.018.01.771-1.395zm5.456 11.031c.049.016.24.083.485.11l.297-3.197a1.063 1.063 0 01.181.036l-.004-.001a.177.177 0 00-.015-.005l-.944 3.057zm.482.11c.932.102 1.716-.324 2.202-.648.523-.349 1.029-.808 1.439-1.186.449-.414.8-.745 1.13-.996.366-.28.456-.258.35-.248l-.341-3.202c-.822.079-1.509.538-1.95.874-.477.364-.964.825-1.353 1.184-.43.395-.765.69-1.054.883-.326.217-.326.12-.12.142l-.303 3.196zm5.133-3.08c.067-.007.257.005.648.133l.944-3.058c-.533-.174-1.229-.348-1.957-.273l.365 3.198zm.648.133c.26.084.539.195.876.329.319.126.695.276 1.071.4l.945-3.059a15.85 15.85 0 01-.885-.331c-.317-.126-.691-.276-1.063-.397l-.944 3.058zm1.947.728c.639.209 1.64.473 2.635.15l-1.015-3.062c.034-.011.01.007-.118-.008a2.97 2.97 0 01-.557-.138l-.945 3.058zm2.615.156c.635-.198 1.156-.564 1.559-.911.406-.35.777-.752 1.088-1.1.335-.375.595-.677.866-.95.269-.273.457-.418.584-.488l-1.555-2.828c-.515.285-.95.678-1.297 1.027-.344.349-.693.752-.974 1.066-.305.34-.557.609-.795.813-.241.207-.386.276-.45.296l.974 3.075zm4.097-3.45c1.032-.568 1.275-1.7 1.361-2.28.101-.685.094-1.476.087-2.113-.008-.705-.015-1.265.034-1.715.059-.547.159-.421-.069-.229l-2.065-2.476c-.799.676-.969 1.725-1.032 2.313-.075.685-.059 1.472-.053 2.098.008.694.005 1.218-.052 1.603-.073.493-.154.186.234-.028l1.555 2.828zm1.407-6.332c.392-.328.759-.484 1.403-.806.619-.31 1.395-.738 2.088-1.591l-2.473-2.06c-.268.33-.563.517-1.059.766-.472.235-1.266.58-2.012 1.206l2.053 2.485zm3.5-2.408c-.069.086-.076.024.249-.07.315-.093.692-.15 1.228-.236.472-.076 1.102-.18 1.672-.39.575-.212 1.317-.614 1.755-1.441l-2.814-1.544c.079-.15.165-.123-.07-.036-.241.089-.578.154-1.085.236-.443.071-1.059.16-1.608.32-.541.158-1.283.454-1.817 1.123l2.49 2.038zm4.905-2.14a1.197 1.197 0 01.092-.113 2.8 2.8 0 01.314-.273c.302-.23.653-.45 1.11-.745.418-.27.926-.607 1.365-1.002.435-.39.929-.949 1.165-1.712l-3.042-.995c.006-.018-.021.08-.259.294-.234.21-.551.428-.972.7-.383.248-.885.561-1.314.89-.422.324-.943.785-1.276 1.417l2.817 1.54zm4.046-3.845c.365-1.184-.295-2.224-.655-2.72-.432-.597-1.027-1.195-1.516-1.683-.537-.537-.972-.966-1.279-1.35a2.095 2.095 0 01-.244-.358c-.029-.06.043.056.017.281l-3.163-.42c-.07.598.1 1.12.275 1.491.178.377.418.718.647 1.004.45.562 1.046 1.146 1.523 1.622.525.524.926.94 1.179 1.288.325.45.039.29.174-.15l3.042.995zm-3.677-5.835c0 .001.003-.03.035-.1.032-.073.085-.17.171-.297.186-.273.426-.549.754-.934.293-.344.674-.794.965-1.289.294-.501.587-1.195.529-2.026l-3.177.185c-.005-.077.03-.043-.097.173-.131.223-.336.478-.645.84-.275.323-.656.756-.962 1.207-.308.453-.65 1.075-.737 1.83l3.164.411zm2.454-4.648c-.009-.118.011-.333.109-.698.099-.367.234-.743.4-1.227.152-.447.33-.986.435-1.532.104-.544.161-1.222-.028-1.92l-3.071.81c.008.028.029.156-.029.46-.057.3-.167.65-.319 1.096-.14.41-.328.931-.462 1.431-.135.502-.258 1.122-.212 1.77l3.177-.19zm.918-5.37c-.181-.678-.301-1.43-.501-2.393-.18-.874-.425-1.901-.848-2.773l-2.856 1.385c.23.472.409 1.146.587 2.005.16.77.332 1.78.543 2.571l3.075-.796zm-1.349-5.166c-.345-.708-.905-1.178-1.379-1.493-.477-.317-1.009-.567-1.44-.765-.473-.217-.832-.375-1.146-.552-.319-.18-.423-.289-.442-.315l-2.529 1.92c.424.565.991.94 1.449 1.198.463.26.987.491 1.382.673.438.2.759.36 1.001.52.244.162.266.236.248.2l2.856-1.386zm-4.407-3.125c-.624-.831-1.43-1.402-2.079-1.833-.721-.478-1.221-.772-1.667-1.165l-2.077 2.41c.667.587 1.482 1.078 2.021 1.435.61.405 1.008.72 1.273 1.072l2.529-1.92zm-3.747-3c-.756-.664-1.598-1.05-2.287-1.336-.755-.315-1.275-.498-1.796-.797l-1.546 2.79c.755.433 1.598.742 2.161.976.627.262 1.057.483 1.394.78l2.074-2.412zm-4.08-2.132a3.473 3.473 0 00-.642-.285l-.944 3.058a.1.1 0 01.022.009l.013.006 1.551-2.788zm-.642-.285c-1.027-.335-2.103-.134-2.675-.047-.748.113-1.061.126-1.286.052l-.944 3.058c1.06.347 2.13.162 2.742.07.788-.12 1.051-.13 1.219-.075l.944-3.058zm-3.961.005c-.985-.322-1.825-.312-2.511-.27-.721.044-1.129.101-1.668.045l-.286 3.198c.88.092 1.692-.004 2.189-.034.532-.033.907-.02 1.332.119l.944-3.058zm-4.173-.225a.932.932 0 01.155.029l.018.005-.023-.008-.944 3.058c.032.01.245.086.496.113l.298-3.197zm.15.026c.158.052.107.1-.151-.224-.227-.283-.465-.657-.764-1.135-.273-.436-.61-.978-.968-1.43-.323-.41-.873-1.027-1.662-1.285l-.944 3.057c-.175-.057-.133-.117.127.212.225.284.461.659.763 1.14.275.439.614.982.979 1.439.333.416.887 1.026 1.676 1.284l.944-3.058zm-3.545-4.074a2.543 2.543 0 00-.853-.118l.116 3.214c.011 0-.076.004-.207-.039l.944-3.057zm-.967-.112c-1.065.103-2.013.572-2.711.938-.8.42-1.301.714-1.814.872l.967 3.077c.872-.27 1.748-.778 2.345-1.091.697-.366 1.163-.557 1.557-.595l-.344-3.2zm-4.529 1.811c.008-.002-.108.029-.469-.035-.352-.062-.734-.172-1.248-.314-.463-.127-1.05-.284-1.629-.343-.574-.06-1.341-.048-2.064.35l1.555 2.828c-.079.043-.06-.01.228.02.283.03.632.115 1.113.247.43.118.999.284 1.537.38.53.093 1.243.162 1.951-.058l-.974-3.075zm-5.41-.341c-.971.535-1.275 1.586-1.402 2.163-.147.672-.199 1.45-.239 2.084-.045.698-.078 1.26-.158 1.714-.094.541-.187.478-.007.325l2.064 2.477c.751-.636.977-1.616 1.08-2.2.117-.671.159-1.444.199-2.065.044-.684.086-1.21.171-1.599.107-.484.175-.253-.153-.073l-1.555-2.826zm-1.801 6.282c-.307.257-.71.392-1.543.697-.701.256-1.776.663-2.552 1.632l2.488 2.041c.174-.217.469-.387 1.184-.649.584-.213 1.645-.539 2.477-1.236l-2.054-2.485zm-4.096 2.33c-.293.367-.733.66-1.493 1.203-.645.46-1.569 1.14-2.121 2.185l2.814 1.543c.165-.31.501-.617 1.17-1.096.554-.396 1.482-.996 2.12-1.796l-2.49-2.038zm-3.616 3.392c-.448.853-.693 1.781-.879 2.582-.2.869-.324 1.543-.531 2.215l3.041.994c.253-.819.432-1.747.592-2.438.176-.759.349-1.348.595-1.818l-2.818-1.535zm-1.41 4.797c-.25.81-.117 1.57.072 2.15.184.565.472 1.1.693 1.505.25.457.427.77.552 1.07.123.298.105.384.109.355l3.163.421c.091-.776-.126-1.475-.337-1.983-.21-.506-.501-1.018-.703-1.387-.23-.42-.376-.71-.454-.95-.074-.227-.034-.251-.054-.187l-3.041-.994zm1.425 5.085c-.042.37-.249.738-.699 1.541-.36.643-.974 1.727-.868 3.03l3.174-.218c-.016-.195.064-.472.472-1.2.318-.569.952-1.58 1.085-2.742l-3.164-.41zm-1.568 4.557c.007.11-.011.307-.108.644-.098.341-.233.69-.405 1.151-.156.423-.344.944-.457 1.479-.113.538-.177 1.207.008 1.909l3.077-.79c-.007-.024-.027-.137.031-.41.058-.278.168-.599.326-1.024.143-.387.339-.89.48-1.381.142-.496.271-1.111.224-1.768l-3.176.19zm-.958 5.196c.2.731.677 1.215 1.114 1.517.421.291.893.477 1.29.607l.944-3.057a3.157 3.157 0 01-.317-.12.931.931 0 01-.141-.075c-.016-.01.011.005.053.058a.712.712 0 01.126.254l-3.069.816zm2.404 2.124c.453.148.947.267 1.363.369.445.108.816.199 1.135.303l.944-3.057a18.39 18.39 0 00-1.372-.371 15.862 15.862 0 01-1.126-.301l-.944 3.057zm2.498.672c.119.04.217.076.296.11.081.035.131.062.16.08.065.04-.031 0-.113-.168l2.856-1.385c-.279-.573-.72-.943-1.103-1.18a5.336 5.336 0 00-1.152-.514l-.944 3.057zm.343.022c.746 1.534 1.694 2.467 2.422 3.427l2.52-1.932c-1.072-1.414-1.526-1.728-2.086-2.88l-2.856 1.385zm2.417 3.42c.307.41.458.803.767 1.486.29.642.698 1.466 1.514 2.197l2.095-2.392c-.292-.262-.472-.569-.715-1.106-.223-.496-.55-1.329-1.132-2.104l-2.529 1.92zm2.273 3.676c.478.434.994.684 1.461.837l.944-3.058a.769.769 0 01-.294-.157l-2.111 2.378zm1.461.837c.531.173 1.064.238 1.422.285.405.054.656.092.883.166l.944-3.057c-.55-.18-1.085-.248-1.456-.297-.418-.055-.648-.09-.849-.155l-.944 3.057zm2.305.451c.135.044.205.078.246.102l1.611-2.75a4.35 4.35 0 00-.913-.41l-.944 3.058zm.281.123c-.211-.121-.169-.236-.031.134.123.328.218.739.356 1.313.121.503.285 1.17.548 1.75.256.562.76 1.39 1.76 1.717l.944-3.057c.295.096.309.3.188.032-.114-.25-.214-.617-.346-1.163-.115-.476-.262-1.13-.472-1.693-.195-.52-.578-1.352-1.406-1.826l-1.541 2.793zm2.633 4.914c-.202-.066-.152-.146.117.244.231.332.467.774.761 1.332.269.51.596 1.138.954 1.66.316.462.883 1.198 1.762 1.485l.944-3.057c.22.071.177.165-.094-.23-.228-.335-.463-.777-.759-1.338-.271-.513-.601-1.143-.965-1.67-.325-.47-.898-1.196-1.776-1.483l-.944 3.057z" fill="#F53" mask="url(#c)"/></svg>