<svg width="152" height="113" viewBox="0 0 152 113" fill="none" xmlns="http://www.w3.org/2000/svg"><path d="M74.286 105.296c-40.02 0-72.512-32.227-72.94-72.145h149.31c-.429 39.918-32.921 72.145-72.94 72.145h-3.43z" fill="#2D2C2C" stroke="#2D2C2C" stroke-width="1.6" stroke-linecap="round" stroke-linejoin="round"/><path d="M45.346 99.778l1.767 5.078a10 10 0 009.444 6.712h37.43a10 10 0 009.283-6.28l2.208-5.51M94.089 31.415c-2.287-6.028-.873-20.206 23.074-28.687 8.98 10.477-1.663 24.322-8.108 29.934m4.368-22.264c-7.664 6.238-10.255 12.02-12.434 17.468m-75.5 4.796c-1.456-3.326-2.744-10.601 3.741-13.096 1.247-3.118 1.247-8.73 9.978-9.354 6.985-.5 9.562 5.197 9.978 8.107 1.871 0 6.112.998 8.107 4.989 1.996 3.991-1.663 7.9-3.741 9.354" stroke="#2D2C2C" stroke-width="1.6" stroke-linecap="round" stroke-linejoin="round"/><path d="M48.696 16.69c-1.433-4.418-2.878-7.227 1.113-15.209 10.348.882 13.892 3.567 16.964 9.354m1.122 21.828c.623-3.534 2.494-12.847 0-19.333a22.672 22.672 0 00-1.122-2.495m-11.351-.623c2.347 3.118 4.735 5.762 5.332 10.776m6.019-10.152C71.72 8.549 84.733 6.22 97.205 15.2m22.451 3.118c1.663-1.663 3.493-2.494 7.484 0 1.871-3.742 7.483-3.118 9.354.624 1.497 2.993.208 5.404-.623 6.236 1.871.832 5.113 3.492 3.118 7.484M29.228 19.567c2.287-.416 7.359-.873 9.355.623M13.637 32.663c-3.326-3.326-8.73-11.974-3.742-19.956 5.987-.998 12.473 7.068 14.967 11.225" stroke="#2D2C2C" stroke-width="1.6" stroke-linecap="round" stroke-linejoin="round"/><path d="M69.765 18.319c2.82-.403 7.327-.737 11.85-.465m12.472 3.583c-2.83-2.315-7.66-3.293-12.473-3.583M70.48 25.802c4.573-1.039 14.377-1.247 22.36 1.248m43.654-1.871c-1.663-.624-5.862-1.372-9.355.623M42.325 27.05c1.871-1.663 6.486-3.992 9.978 0m-38.041-7.484c1.247.624 3.741 2.62 3.741 5.613m66.588-15.151c3.68 5.521-3.6 5.49-2.977 7.826" stroke="#2D2C2C" stroke-width="1.6" stroke-linecap="round" stroke-linejoin="round"/><path d="M76 98.591c-36.5 0-66.735-29.374-67.173-65.751H143.17c-.438 36.378-30.673 65.752-67.172 65.752z" fill="#fff" stroke="#F53" stroke-width="1.6" stroke-linecap="round" stroke-linejoin="round"/><path d="M34.283 60.334c2.454 6.749 13.252 21.473 36.81 26.38" stroke="#2D2C2C" stroke-width="1.6" stroke-linecap="round" stroke-linejoin="round"/></svg>