<svg width="175" height="127" viewBox="0 0 175 127" fill="none" xmlns="http://www.w3.org/2000/svg"><path d="M2.353 38.76a5 5 0 014.264-5.728L156.405 12.61a5 5 0 015.641 4.367l9.835 83.165a4.999 4.999 0 01-4.29 5.541l-146.65 19.995a5 5 0 01-5.616-4.179L2.353 38.761z" fill="#2D2C2C"/><path d="M158.412 10.775L87.747 25.538s11.272 68.477 6.814 86.253c23.513-16.807 53.132-3.007 72.385-14.774-1.566-22.53-8.534-86.242-8.534-86.242zM5.998 31.555l72.038-4.694s7.471 68.995 16.525 84.93c-27.153-9.899-51.997 11.326-73.697 5.143C16.341 94.807 5.998 31.555 5.998 31.555z" fill="#fff" stroke="#2D2C2C" stroke-width="1.6" stroke-linecap="round" stroke-linejoin="round"/><path d="M130.222 8.874c-19.709-5.616-37.9 1.324-47.835 12.043l12.392 90.888c7.701-12.91 27.406-15.198 43.967-13.445 11.782 1.248 17.313.81 25.332-3.454L153.422 5.712c-3.067 2.133-13.155 6.026-23.2 3.163z" fill="#fff" stroke="#2D2C2C" stroke-width="1.6" stroke-linecap="round" stroke-linejoin="round"/><path d="M33.074 22.12c17.486-10.688 36.871-8.871 49.313-1.203l12.392 90.888c-10.876-10.378-30.474-7.307-45.962-1.183-11.017 4.356-16.463 5.415-25.332 3.454L9.874 25.283c3.526 1.234 14.288 2.284 23.2-3.163z" fill="#fff" stroke="#2D2C2C" stroke-width="1.6" stroke-linecap="round" stroke-linejoin="round"/><ellipse cx="89.736" cy="27.496" rx="2.131" ry="2.209" transform="rotate(-7.764 89.736 27.496)" fill="#2D2C2C"/><ellipse cx="77.07" cy="29.223" rx="2.131" ry="2.209" transform="rotate(-7.764 77.07 29.223)" fill="#2D2C2C"/><path d="M89.915 28.81c-.495-3.627-3.73-6.18-7.229-5.704-3.497.477-5.932 3.804-5.437 7.43" stroke="#2D2C2C" stroke-width="1.6" stroke-linecap="round" stroke-linejoin="round"/><ellipse cx="91.706" cy="41.944" rx="2.131" ry="2.209" transform="rotate(-7.764 91.706 41.944)" fill="#2D2C2C"/><ellipse cx="79.04" cy="43.671" rx="2.131" ry="2.209" transform="rotate(-7.764 79.04 43.67)" fill="#2D2C2C"/><path d="M91.886 43.258c-.495-3.627-3.731-6.18-7.229-5.704-3.497.477-5.932 3.804-5.437 7.43" stroke="#2D2C2C" stroke-width="1.6" stroke-linecap="round" stroke-linejoin="round"/><ellipse cx="93.675" cy="56.392" rx="2.131" ry="2.209" transform="rotate(-7.764 93.675 56.392)" fill="#2D2C2C"/><ellipse cx="81.009" cy="58.118" rx="2.131" ry="2.209" transform="rotate(-7.764 81.01 58.118)" fill="#2D2C2C"/><path d="M93.854 57.705c-.494-3.627-3.73-6.18-7.228-5.703-3.498.477-5.932 3.803-5.438 7.43" stroke="#2D2C2C" stroke-width="1.6" stroke-linecap="round" stroke-linejoin="round"/><ellipse cx="95.646" cy="70.839" rx="2.131" ry="2.209" transform="rotate(-7.764 95.646 70.84)" fill="#2D2C2C"/><ellipse cx="82.98" cy="72.566" rx="2.131" ry="2.209" transform="rotate(-7.764 82.98 72.566)" fill="#2D2C2C"/><path d="M95.825 72.153c-.494-3.627-3.73-6.18-7.228-5.704-3.498.477-5.932 3.804-5.438 7.43" stroke="#2D2C2C" stroke-width="1.6" stroke-linecap="round" stroke-linejoin="round"/><ellipse cx="97.615" cy="85.287" rx="2.131" ry="2.209" transform="rotate(-7.764 97.615 85.287)" fill="#2D2C2C"/><ellipse cx="84.948" cy="87.013" rx="2.131" ry="2.209" transform="rotate(-7.764 84.948 87.013)" fill="#2D2C2C"/><path d="M97.794 86.6c-.495-3.626-3.73-6.18-7.229-5.703-3.497.477-5.932 3.803-5.437 7.43" stroke="#2D2C2C" stroke-width="1.6" stroke-linecap="round" stroke-linejoin="round"/><ellipse cx="99.585" cy="99.735" rx="2.131" ry="2.209" transform="rotate(-7.764 99.585 99.735)" fill="#2D2C2C"/><ellipse cx="86.919" cy="101.462" rx="2.131" ry="2.209" transform="rotate(-7.764 86.92 101.462)" fill="#2D2C2C"/><path d="M99.765 101.049c-.495-3.627-3.731-6.18-7.229-5.704-3.498.477-5.932 3.804-5.438 7.431M22.987 42.617c2.572.467 10.522.528 21.743-2.964 11.222-3.492 21.761-1.258 25.629.296M24.808 55.97c3.94-.017 14.48-.725 25.12-3.425 10.642-2.7 19.169-1.35 22.102-.337M26.628 69.323c4.887-1.484 16.077-4.155 21.744-2.965m64.336 5.052c6.806-1.597 16.313-3.022 22.802-3.455 7.489-.5 16.96-2.623 18.489-3.5m-40.038 16.15c5.209-1.751 17.336-3.397 24.91-3.397 8.128 0 13.797-1.463 15.628-2.753m-39.254 15.562c4.525-1.508 10.254-1.562 20.265-2.763" stroke="#2D2C2C" stroke-width="1.6" stroke-linecap="round" stroke-linejoin="round"/><mask id="a" fill="#fff"><path d="M125.222 48.84a.279.279 0 00.05.002c.431-.043.798-1.061 1.206-1.188a.966.966 0 01.391-.021c.196.021.411.071.611.093.185.02.359.017.49-.058.38-.212.573-.915.903-1.2.331-.284-.313-1.51-.039-1.86.272-.347.613-.433.82-.835.199-.396 1.137-.402 1.262-.84.121-.422.883-.816.925-1.278.043-.461-1.384-.938-1.424-1.382-.043-.456.569-.982.446-1.413-.126-.44.176-1.133-.028-1.532-.203-.403-.386-.99-.657-1.34-.272-.35-1.078-.282-1.408-.572-.33-.29-.808-.368-1.191-.585-.376-.213-.813-.197-1.228-.332a.563.563 0 00-.108-.023c-.371-.04-.751.287-1.151.243-.437-.047-.706.147-1.128.19-.018.002-.035 0-.053-.002-.392-.043-.897-.926-1.279-.968a.286.286 0 00-.096.008c-.415.13-.741.557-1.118.765-.38.212-1.185-.107-1.516.178-.331.284.195 1.52-.078 1.87-.273.347-.795.447-.998.85-.2.395-.687.685-.812 1.123-.121.426-.058.933-.101 1.394-.043.462.684.858.724 1.303.043.456-.32.904-.194 1.332.126.439-.196 1.082.004 1.48.069.135.241.188.451.21.238.027.526.017.767.043.189.021.348.065.43.17.272.351.514.49.848.78.33.29.427.654.81.875.094.055.19.08.285.09.227.026.456-.035.698-.009a.81.81 0 01.183.04c.402.129.533 1.198.971 1.246.42.046.923 1.108 1.332 1.153z"/></mask><path d="M123.402 47.037l-.72.337h.001l.719-.337zm-.476-.633l.236-.762-.012-.004-.014-.004-.21.77zm-.559-.036l-.072-.799-.009.001.081.798zm-.601-.08l.387-.695-.002-.001-.385.696zm-.462-.472l.65-.456-.007-.01-.643.466zm-.341-.4l-.517.603.003.003.514-.605zm-.276-.227l-.498.618.004.003.494-.621zm-.565-.547l.628-.485-.628.485zm-1.645-.41l.714-.347-.005-.01-.709.356zm-.018-.767l.789.136.001-.004-.79-.132zm.017-.71l.769-.202-.004-.014-.765.215zm.085-.689l-.762-.253-.001.002.763.251zm-.255-1.262l-.604.514.002.003.602-.517zm-.335-1.185l.798.021-.798-.021zm.08-.871l-.768-.232-.001.005.769.227zm.434-.631l.586.553.002-.002-.588-.551zm.377-.485l.712.376.001-.002-.713-.374zm.521-.469l-.427-.683h-.002l.429.683zm.474-.373l.629.503.005-.006-.634-.497zm.031-.947l.791-.1-.001-.003-.79.103zm.042-.917l.519.618.007-.006-.526-.612zm.771-.106l.041-.8h-.007l-.034.8zm.738-.068l.393.704.003-.002-.396-.702zm.452-.335l.518.62.002-.003-.52-.617zm.659-.427l.251.765.008-.003-.259-.762zm.692.463l-.569.553h.001l.568-.553zm.732.498l.092.798.007-.001-.099-.797zm.462-.098l.23.77h.001l-.231-.77zm1.269-.216l-.287-.752-.007.002.294.75zm.638-.094l-.253.756.011.004.242-.76zm.499.114l.13-.788h-.003l-.127.788zm.723.217l-.392.692.007.004.385-.696zm.489.218l.274-.748-.274.748zm.695.363l.52-.6-.003-.002-.517.602zm.68.257l.163-.781-.163.781zm.724.31l-.627.486.627-.485zm.444.866l-.737.299.005.01.732-.31zm.207.47l-.718.339.004.008.004.009.71-.356zm.029.797l-.792-.115-.001.007.793.108zm-.004.727l.766-.213-.001-.005-.765.218zm-.21.704l-.7-.398-.001.002.701.396zm.479 1.388l-.428.67.008.005.008.005.412-.68zm.235 1.357l-.564-.577-.003.003.567.574zm-.451.595l.767.237.002-.007-.769-.23zm-.624.428l-.292-.75-.004.001.296.749zm-.635.404l.714.372v-.001l-.714-.37zm-.436.474l-.497-.635.497.635zm-.376.355l.628.505.006-.009-.634-.496zm.028.953l.78-.16-.002-.006-.778.166zm-.383 1.461l-.692-.411-.001.002.693.41zm-.501.635l.39.706.006-.004-.396-.702zm-.776.009l-.131.788.014.002.015.002.102-.792zm-.712-.026l-.235-.77-.009.003-.008.003.252.764zm-.574.59l.651.474.002-.003-.653-.471zm-.625.599l-.074.796.083.01.082-.009-.091-.797zm-1.301-1.954a.53.53 0 01.27.107c.04.032.05.052.037.032a.944.944 0 01-.06-.103 6.519 6.519 0 01-.093-.19l-1.438.674c.061.128.16.342.285.521.109.158.379.5.851.552l.148-1.593zm.154-.153c-.06-.125-.152-.324-.267-.497-.107-.16-.322-.441-.692-.562l-.472 1.523a.428.428 0 01-.159-.09c-.019-.017-.018-.022-.002.003.015.023.036.058.063.111.028.054.056.112.09.185l1.439-.673zm-.985-1.067a1.905 1.905 0 00-.327-.067l-.147 1.594a.28.28 0 01.054.012l.42-1.539zm-.327-.067c-.21-.023-.404-.006-.514.002l.145 1.598c.131-.01.18-.01.222-.006l.147-1.594zm-.523.003a.917.917 0 01-.174.007l-.148 1.593c.189.02.367.007.485-.003l-.163-1.597zm-.174.007l.011.003a.16.16 0 01.03.013l-.774 1.39c.186.105.383.165.585.187l.148-1.593zm.039.015c-.034-.02-.064-.042-.197-.232l-1.299.911c.123.175.337.492.727.713l.769-1.392zm-.204-.242c-.086-.118-.241-.341-.47-.538l-1.028 1.21c.059.05.104.11.213.26l1.285-.932zm-.467-.535c-.112-.098-.218-.182-.299-.247l-.988 1.242c.09.073.168.136.253.209l1.034-1.204zm-.295-.244c-.206-.168-.311-.253-.435-.414l-1.255.971c.254.328.498.52.694.68l.996-1.237zm-.435-.414c-.288-.37-.719-.463-1.007-.495l-.148 1.593c.073.008.087.017.068.01a.434.434 0 01-.168-.137l1.255-.971zm-1.007-.495c-.162-.018-.331-.022-.455-.025l-.012 1.603c.136.003.236.006.319.015l.148-1.593zm-.455-.025a3.955 3.955 0 01-.313-.014l-.148 1.593c.16.017.326.02.449.024l.012-1.603zm-.313-.014c-.08-.01-.082-.018-.044-.002a.56.56 0 01.26.264l-1.429.693c.135.272.358.426.545.508.177.079.363.113.52.13l.148-1.593zm.211.252c.036.07.023.103.025.034.001-.03.004-.07.01-.124l.027-.184-1.578-.273c-.02.128-.051.322-.056.514-.005.193.012.47.153.745l1.419-.712zm.063-.278c.03-.197.109-.635-.004-1.044l-1.539.403c-.003-.012.004.007 0 .083a3.466 3.466 0 01-.037.294l1.58.264zm-.008-1.058c.015.049.004.07.012.03a.851.851 0 01.022-.094l.048-.158-1.525-.502c-.053.171-.235.653-.088 1.154l1.531-.43zm.081-.219c.054-.168.187-.544.145-.958l-1.589.136s.002.02-.01.075a2.515 2.515 0 01-.069.24l1.523.507zm.145-.958a1.545 1.545 0 00-.255-.682 3.734 3.734 0 00-.303-.392l-1.205 1.033.108.128a.96.96 0 01.065.09c.034.052.009.032.001-.04l1.589-.137zm-.556-1.072c-.049-.057-.086-.1-.119-.142a.765.765 0 01-.062-.086c-.011-.018-.005-.012.002.012.009.028.021.08.014.148l-1.59-.174c-.034.365.108.66.217.838.108.176.248.337.329.432l1.209-1.027zm-.165-.068c.02-.208.022-.415.023-.582l-1.597-.042a5.826 5.826 0 01-.016.45l1.59.174zm.023-.582c.003-.321.011-.517.052-.666l-1.539-.453c-.108.387-.107.802-.11 1.077l1.597.042zm.051-.66c-.002.005.004-.019.049-.079.047-.063.108-.13.202-.23l-1.172-1.108c-.151.16-.486.498-.616.953l1.537.464zm.253-.312c.124-.133.351-.369.501-.66l-1.423-.752c-.032.062-.095.138-.254.31l1.176 1.102zm.502-.662c-.009.017-.014.014.021-.015.043-.035.1-.072.216-.145l-.858-1.365c-.175.108-.58.338-.804.777l1.425.748zm.236-.159c.143-.088.45-.268.675-.554l-1.259-1.006c-.024.03-.076.072-.271.193l.855 1.367zm.68-.56c.244-.316.257-.694.253-.892-.004-.225-.04-.471-.065-.652l-1.582.2.036.267c.009.08.013.14.014.187.001.048-.003.06 0 .048a.381.381 0 01.075-.152l1.269.994zm.187-1.547c-.014-.1-.027-.185-.036-.265a1.794 1.794 0 01-.014-.183c-.001-.047.004-.044-.004-.011a.527.527 0 01-.175.263l-1.037-1.236a1.054 1.054 0 00-.337.553 1.705 1.705 0 00-.045.425c.003.229.042.483.068.66l1.58-.206zm-.222-.202a.371.371 0 01-.126.074c-.017.005-.016.003.013 0 .029-.002.069-.003.127-.001.058.001.12.005.197.01l.068-1.6c-.134-.008-.344-.022-.545-.006-.19.015-.513.065-.785.3l1.051 1.223zm.203.082c.13.009.314.021.496.012a1.57 1.57 0 00.677-.176l-.786-1.408c.033-.018.054-.022.052-.022a.34.34 0 01-.05.005c-.073.004-.165 0-.306-.01l-.083 1.599zm1.176-.166c.234-.13.441-.307.574-.418l-1.035-1.237a2.42 2.42 0 01-.331.251l.792 1.404zm.576-.42c.233-.197.329-.26.39-.28l-.502-1.529c-.413.13-.747.423-.928.576l1.04 1.233zm.398-.282a.627.627 0 01-.251.029l.148-1.594a.976.976 0 00-.416.041l.519 1.524zm-.251.029a.432.432 0 01-.169-.05c-.01-.006-.002-.002.028.023.028.023.063.056.109.101l.147.15 1.139-1.104c-.097-.1-.237-.248-.38-.368-.116-.098-.378-.308-.726-.346l-.148 1.594zm.116.226c.103.107.253.263.41.392.141.116.407.312.756.35l.148-1.593a.366.366 0 01.13.035c.006.004-.005-.001-.036-.027a1.671 1.671 0 01-.115-.105l-.156-.159-1.137 1.107zm1.166.742c.106.011.193.003.226 0l-.183-1.595.028-.002a.57.57 0 01.077.004l-.148 1.593zm.233-.001c.242-.026.444-.082.593-.124l-.46-1.542a1.92 1.92 0 01-.33.072l.197 1.594zm.594-.125c.213-.06.272-.071.354-.062l.148-1.593c-.428-.047-.762.056-.964.114l.462 1.541zm.354-.062c.431.047.81-.11.977-.174l-.587-1.5c-.104.04-.162.06-.211.073-.043.01-.048.006-.031.008l-.148 1.593zm.971-.171a4.737 4.737 0 01.196-.067c.038-.01.024 0-.019-.006l.148-1.593c-.395-.043-.761.11-.899.16l.574 1.506zm.177-.073a.353.353 0 01-.079-.018l.506-1.512a1.263 1.263 0 00-.279-.063l-.148 1.593zm-.068-.014c.231.077.462.116.614.143l.254-1.578a2.736 2.736 0 01-.383-.084l-.485 1.519zm.611.143c.29.052.385.076.461.12l.783-1.384c-.367-.213-.759-.272-.984-.313l-.26 1.577zm.468.124c.215.122.439.209.6.27l.548-1.496a2.857 2.857 0 01-.379-.166l-.769 1.392zm.6.27c.269.103.382.157.451.217l1.035-1.204c-.323-.28-.715-.424-.938-.51l-.548 1.497zm.449.215a1.7 1.7 0 00.582.32c.164.054.336.092.454.119l.327-1.563a3.286 3.286 0 01-.298-.076c-.074-.025-.063-.032-.025 0l-1.04 1.2zm1.036.439c.075.017.135.03.192.045.056.014.096.027.125.037.03.011.035.016.026.01a.322.322 0 01-.082-.078l1.255-.97a1.478 1.478 0 00-.67-.465c-.187-.069-.389-.113-.519-.142l-.327 1.563zm.261.014c.093.121.193.338.334.679l1.473-.598c-.119-.285-.298-.724-.552-1.052l-1.255.971zm.339.689c.065.151.143.339.221.5l1.436-.678c-.059-.122-.114-.255-.194-.44l-1.463.618zm.229.517a.262.262 0 01-.023-.063l.001.014.001.04c-.001.08-.012.18-.032.335l1.584.231c.017-.135.044-.332.045-.526a1.586 1.586 0 00-.156-.743l-1.42.712zm-.054.333c-.014.115-.036.281-.042.445-.006.162-.002.382.066.608l1.53-.436c.005.019-.003.001 0-.084.003-.084.015-.177.032-.316l-1.586-.218zm.023 1.048a.386.386 0 01-.016-.145c.003-.027.008-.034.001-.016a.684.684 0 01-.042.093c-.023.046-.051.096-.087.161l1.399.796c.063-.113.164-.293.233-.48.069-.192.144-.494.044-.835l-1.532.426zm-.145.096c-.059.106-.15.269-.218.442a1.553 1.553 0 00-.115.715l1.591-.121c.005.06-.013.076.011.016.011-.027.026-.061.049-.107l.083-.154-1.401-.791zm-.333 1.157c.042.46.368.76.514.886.182.156.405.301.571.41l.856-1.34a9.73 9.73 0 01-.24-.16 2.18 2.18 0 01-.159-.12c-.038-.033-.04-.04-.028-.023a.465.465 0 01.077.226l-1.591.121zm1.101 1.306c.088.054.167.104.238.152.072.048.123.087.158.117.04.033.033.034.011.002a.567.567 0 01-.082-.36l1.591.174a1.07 1.07 0 00-.186-.69 1.695 1.695 0 00-.31-.34 5.046 5.046 0 00-.596-.415l-.824 1.36zm.325-.09a.307.307 0 01.025-.1c.003-.005-.002.005-.025.034a1.228 1.228 0 01-.095.109 6.55 6.55 0 01-.146.147l1.127 1.153c.103-.101.256-.25.381-.412.12-.155.292-.415.324-.756l-1.591-.174zm-.245.193c-.093.093-.222.22-.333.355-.11.134-.249.331-.32.585l1.538.459c-.014.047-.028.047.022-.014s.118-.129.227-.238l-1.134-1.147zm-.651.933a.425.425 0 01.1-.18c.025-.026.038-.031.021-.02a.84.84 0 01-.095.045c-.05.021-.105.042-.175.069l.585 1.5c.124-.047.33-.123.513-.231.176-.104.47-.317.585-.71l-1.534-.473zm-.153-.085c-.12.046-.309.118-.481.214a1.375 1.375 0 00-.572.568l1.428.742a.317.317 0 01-.071.097c-.011.01-.011.008.012-.005a.97.97 0 01.105-.05c.05-.021.104-.042.172-.068l-.593-1.498zm-1.052.781c-.024.048-.046.075-.22.21l.993 1.272c.162-.126.453-.341.654-.738l-1.427-.744zm-.22.21c-.122.096-.33.255-.514.494l1.269.993a1.3 1.3 0 01.238-.215l-.993-1.271zm-.507.485c-.272.342-.259.754-.242.955.019.234.077.485.119.67l1.557-.332c-.022-.1-.042-.186-.057-.265a1.684 1.684 0 01-.027-.18c-.004-.045 0-.05-.004-.028a.433.433 0 01-.09.19l-1.256-1.01zm-.124 1.62c.021.096.039.178.054.256.015.079.023.135.026.175.004.045-.002.037.006-.003a.543.543 0 01.184-.3l1.051 1.224c.217-.187.3-.424.332-.588.032-.163.029-.318.019-.434-.018-.229-.075-.48-.112-.65l-1.56.32zm.27.128c-.277.238-.47.597-.565.76l1.384.824a6.03 6.03 0 01.16-.267.933.933 0 01.054-.073l.018-.02-1.051-1.224zm-.566.763a3.58 3.58 0 01-.186.303c-.056.077-.064.065-.018.04l.792 1.403a1.66 1.66 0 00.523-.487c.111-.153.207-.322.275-.44l-1.386-.82zm-.199.34a.331.331 0 01.065-.028l.028-.007h-.023a.824.824 0 01-.077-.005l-.148 1.594c.278.03.619.029.936-.145l-.781-1.41zm-.007-.04c-.081-.008-.134-.02-.275-.04l-.205 1.586c.061.008.217.035.332.048l.148-1.594zm-.246-.036a5.237 5.237 0 00-.365-.053l-.148 1.593c.083.01.169.022.25.037l.263-1.577zm-.365-.053a1.824 1.824 0 00-.714.047l.471 1.538c-.019.006-.023.004-.006.003.016 0 .049 0 .101.005l.148-1.593zm-.731.052c-.305.097-.516.306-.636.44-.13.146-.25.316-.34.442l1.307.943c.102-.144.169-.236.228-.303.028-.03.04-.04.038-.038a.306.306 0 01-.092.044l-.505-1.528zm-.973.879c-.053.074-.097.136-.141.193a1.734 1.734 0 01-.104.127c-.028.03-.034.031-.018.02a.437.437 0 01.197-.064l.183 1.595c.414-.041.691-.316.813-.446.146-.157.28-.348.372-.476l-1.302-.95zm.1.277l-.042-.005-.148 1.594.042.004.148-1.593zm-.07.83l-.181-1.595h-.002l.183 1.596zm1.206-1.187l.496 1.531.011-.004-.507-1.527zm1.492.014l-.793-1.404-.009.005-.009.005.811 1.394zm.864-3.06l-1.261-1.005-.004.005 1.265 1zm.82-.835l1.422.753.006-.012-1.428-.741zm1.262-.84l1.536.467.001-.002-1.537-.464zm-.499-2.66l1.591-.12-.001-.004-1.59.124zm.446-1.413l1.535-.417v-.002l-1.535.419zm-.028-1.532l-1.423.705.004.007 1.419-.712zm-3.256-2.497l.769-1.392-.002-.001-.767 1.393zm-1.228-.332l-.472 1.523.002.001.47-1.524zm-2.387.41l.183 1.595h.006l-.189-1.595zm-1.428-.962l-.387-1.56-.056.013-.055.017.498 1.53zm-1.118.765l-.789-1.405-.003.001.792 1.404zm-1.594 2.048l1.26 1.006.004-.006-1.264-1zm-.998.85l-1.427-.744-.001.002 1.428.741zm-.812 1.123l-1.536-.466-.001.004 1.537.462zm.623 2.697l-1.59.119v.005l1.59-.124zm-.194 1.332l1.535-.419-.002-.007-.002-.007-1.531.433zm.004 1.48l-1.424.703.003.006.003.007 1.418-.715zm1.648.424l1.255-.972-1.255.971zm.848.778l1.04-1.199-.006-.005-1.034 1.204zm.81.876l.788-1.38-.009-.006-.779 1.386zm1.166.12l-.506 1.512.02.007.019.006.467-1.525zm2.155 3.993c.01.001.178.024.381.004l-.366-3.19c.167-.017.306.002.281 0l-.296 3.186zm.378.004c.677-.066 1.111-.475 1.28-.647.2-.204.366-.437.456-.564.122-.171.166-.234.205-.278.067-.079-.076.13-.419.237l-.991-3.063c-.297.093-.52.242-.666.36a2.71 2.71 0 00-.353.344c-.159.184-.31.402-.384.507l-.11.15-.032.04a.717.717 0 01.141-.109c.092-.057.267-.144.512-.168l.361 3.19zm1.533-1.256a.894.894 0 01-.234.044c-.037.002-.051-.001-.03.001l.296-3.186a2.53 2.53 0 00-1.046.086l1.014 3.055zm-.264.045c.04.005.092.013.206.033.094.016.247.043.405.06l.295-3.186a4.004 4.004 0 01-.208-.033c-.092-.016-.246-.043-.402-.06l-.296 3.186zm.611.093c.228.025.851.086 1.449-.258l-1.622-2.787c.185-.107.345-.13.413-.137.066-.006.094 0 .055-.004l-.295 3.186zm1.43-.247a2.42 2.42 0 00.735-.651c.144-.189.258-.383.329-.506.089-.155.123-.217.165-.282.041-.063.019-.014-.067.06l-2.102-2.448a2.81 2.81 0 00-.521.615c-.099.153-.199.333-.247.416a2.996 2.996 0 01-.099.162l-.002.003.002-.003.008-.009a.899.899 0 01.214-.165l1.585 2.808zm1.162-1.38a1.84 1.84 0 00.585-.975c.065-.272.063-.517.053-.68-.018-.311-.091-.632-.128-.797a4.292 4.292 0 01-.074-.367c-.001-.017.007.042-.007.145-.013.1-.062.341-.255.59l-2.529-2a1.915 1.915 0 00-.381.927 2.563 2.563 0 00-.006.604c.028.287.099.592.134.747.021.097.036.166.047.225.011.06.011.077.01.066 0-.002-.007-.102.028-.25.038-.16.142-.442.421-.682l2.102 2.448zm.17-2.08c-.007.01-.043.037.177-.138.199-.158.547-.447.805-.948l-2.844-1.507c.051-.099.124-.144.033-.071-.07.055-.412.3-.692.654l2.521 2.01zm.988-1.098a1.147 1.147 0 01-.268.348.695.695 0 01-.128.091l.045-.019c.046-.019.09-.035.173-.067.121-.046.396-.15.653-.31.262-.165.711-.516.895-1.157l-3.071-.932a1.11 1.11 0 01.45-.637c.04-.025.044-.02-.11.04-.093.035-.346.127-.572.248-.217.116-.656.382-.923.912l2.856 1.483zm1.371-1.117c-.064.226-.172.33-.13.281.036-.042.08-.084.217-.22.104-.103.288-.286.449-.506.158-.215.395-.6.443-1.122l-3.181-.349c.014-.15.054-.265.086-.336a.678.678 0 01.066-.116c.002-.003-.02.025-.127.131-.074.073-.246.238-.387.403-.136.158-.384.47-.509.907l3.073.928zm.979-1.567c.046-.5-.12-.904-.275-1.161a2.439 2.439 0 00-.453-.542c-.242-.22-.532-.407-.689-.509-.214-.14-.3-.196-.35-.238-.02-.017.028.018.092.104.061.08.218.312.251.67l-3.182.238c.042.468.253.812.399 1.005.151.199.317.348.435.446.227.187.503.361.645.454.089.058.154.101.208.14l.069.05a1.102 1.102 0 01-.151-.193 1.341 1.341 0 01-.18-.813l3.181.349zm-1.425-1.681c.013.136-.002.242-.015.305-.013.062-.028.097-.028.098l.026-.053.084-.156c.06-.11.19-.344.279-.61.092-.274.201-.745.045-1.29l-3.071.834a1.048 1.048 0 01-.002-.613c.01-.032.013-.026-.059.106-.047.085-.168.3-.258.519-.092.222-.227.62-.181 1.108l3.18-.248zm.391-1.708c.041.145.028.228.031.166.004-.064.013-.128.035-.307a4.61 4.61 0 00.041-.63 2.416 2.416 0 00-.25-1.054l-2.839 1.424a1.003 1.003 0 01-.093-.262c-.012-.059-.012-.096-.012-.1-.001-.006 0 .004-.003.038a3.435 3.435 0 01-.015.141c-.012.1-.042.317-.054.519-.011.204-.015.538.089.903l3.07-.838zm-.14-1.819c-.075-.148-.119-.274-.264-.606-.108-.247-.289-.648-.561-1l-2.51 1.943s.045.068.147.302c.051.116.086.203.148.347.053.124.119.276.194.425l2.846-1.41zm-.825-1.605a2.285 2.285 0 00-.975-.713 4.118 4.118 0 00-.633-.187c-.18-.041-.232-.052-.278-.066-.049-.016.092.017.263.166l-2.08 2.399c.336.294.702.427.905.49.207.066.435.114.532.136.142.033.166.043.154.038a.998.998 0 01-.398-.32l2.51-1.943zm-1.623-.8c-.39-.342-.818-.517-1.048-.609-.31-.123-.351-.133-.414-.169l-1.537 2.784c.181.103.354.179.487.233l.186.074.142.055c.187.075.164.083.104.03l2.08-2.398zm-1.464-.78a3.495 3.495 0 00-1.094-.375c-.31-.06-.352-.061-.431-.087l-.94 3.048c.189.061.363.1.499.127a10.978 10.978 0 00.327.06c.175.034.16.045.105.014l1.534-2.786zm-1.523-.461a2.156 2.156 0 00-.432-.093l-.295 3.186a1.012 1.012 0 01-.217-.047l.944-3.046zm-.432-.093a2.358 2.358 0 00-.85.068c-.189.049-.366.117-.44.145-.106.039-.12.042-.115.04a.757.757 0 01.254-.01l-.295 3.187c.342.037.636-.01.846-.062.2-.049.379-.117.465-.149.117-.043.13-.047.129-.046-.012.003-.123.032-.289.013l.295-3.186zm-1.151.243a3.02 3.02 0 00-1.163.108c-.282.077-.261.077-.301.08l.377 3.19c.209-.022.387-.061.525-.097a7.15 7.15 0 00.176-.048l.113-.033c.101-.027.052-.005-.022-.014l.295-3.186zm-1.459.188c.097-.01.175-.007.221-.005l.057.005-.295 3.186a1.957 1.957 0 00.383.004l-.366-3.19zm.278 0c.222.024.377.098.444.135.07.038.105.068.099.063a3.756 3.756 0 01-.195-.194c-.093-.096-.27-.284-.46-.442-.1-.084-.241-.19-.413-.286a2.017 2.017 0 00-.754-.244l-.296 3.186a1.215 1.215 0 01-.456-.14c-.071-.039-.106-.07-.099-.064.025.02.07.064.199.2.096.099.275.287.469.447.103.085.245.191.419.286.171.093.427.204.748.24l.295-3.187zm-1.279-.968c-.275-.03-.5.01-.631.04l.774 3.122a1.303 1.303 0 01-.439.024l.296-3.186zm-.742.07c-.529.166-.921.49-1.102.64-.131.108-.168.142-.246.204-.06.047-.075.054-.061.047l1.578 2.811c.202-.111.369-.236.489-.331.102-.081.243-.201.293-.242a1.45 1.45 0 01.133-.103c.016-.01-.017.014-.088.036l-.996-3.061zm-1.412.892c.232-.13.413-.122.364-.12a3.903 3.903 0 01-.277-.014c-.136-.008-.403-.025-.679.004a2.134 2.134 0 00-1.183.488l2.102 2.447c-.264.228-.522.251-.537.253-.02.002 0-.002.154.008.102.006.346.025.574.017.22-.007.644-.039 1.067-.274l-1.585-2.809zm-1.775.358a1.864 1.864 0 00-.571.903 2.414 2.414 0 00-.089.643c-.002.306.045.622.07.792.033.232.045.324.047.385.001.022-.003-.025.013-.111.015-.082.064-.293.238-.517l2.529 1.999c.243-.311.336-.638.375-.855.041-.222.043-.426.038-.573-.009-.279-.056-.58-.079-.736a8.436 8.436 0 01-.03-.227c-.006-.06-.006-.081-.006-.076 0 .005 0 .025-.004.058a.995.995 0 01-.032.155c-.039.134-.14.386-.397.607l-2.102-2.447zm-.287 2.09c.057-.074.102-.102.079-.086-.039.029-.066.044-.203.13-.184.114-.722.435-1.041 1.066l2.854 1.487a.738.738 0 01-.165.22c-.018.015-.015.009.07-.044.053-.033.22-.133.362-.234.157-.112.37-.283.564-.53l-2.52-2.01zm-1.166 1.112c.027-.055.045-.069.008-.024-.047.056-.084.093-.196.215-.152.165-.555.59-.732 1.208l3.072.932a.725.725 0 01-.048.122c-.014.027-.024.041-.024.042 0 0 .005-.008.022-.028l.074-.083c.051-.055.18-.191.285-.315.114-.135.267-.333.394-.586l-2.855-1.483zm-.921 1.403a4.291 4.291 0 00-.14 1.088c-.007.328 0 .44-.015.594l3.181.348a5.76 5.76 0 00.024-.473l.002-.192.002-.16c.002-.1.006-.169.011-.22.005-.05.01-.067.009-.062l-3.074-.923zm-.155 1.682a2.18 2.18 0 00.301 1.295c.148.257.331.47.416.569l.117.138c.029.034.036.045.033.041-.002-.003-.029-.041-.058-.11a1.09 1.09 0 01-.084-.337l3.181-.238a2.315 2.315 0 00-.415-1.1c-.136-.199-.305-.39-.363-.458-.097-.113-.09-.114-.068-.075.03.052.153.283.121.623l-3.181-.348zm.725 1.6c-.011-.119.009-.19.004-.17-.009.037-.019.067-.067.22a3.63 3.63 0 00-.139.582c-.038.264-.049.618.067 1.01l3.062-.866c.053.178.04.316.033.36-.004.03-.007.028.026-.08.022-.07.087-.264.131-.453.047-.205.096-.503.064-.85l-3.181.248zm-.139 1.628c-.044-.154-.029-.247-.033-.201-.003.05-.012.103-.038.275-.019.131-.054.368-.054.623-.001.259.033.655.24 1.067l2.849-1.404c.107.213.105.379.105.39 0 .01 0-.017.02-.15.014-.094.05-.31.065-.516.015-.21.023-.549-.084-.922l-3.07.838zm.121 1.777c.265.515.689.78.993.908.289.121.562.162.728.18l.296-3.187c-.044-.004.039-.002.171.054.149.063.453.234.648.615l-2.836 1.43zm1.721 1.088c.193.02.389.026.506.03.146.004.214.007.262.013l.295-3.187c-.194-.02-.39-.026-.508-.03a3.837 3.837 0 01-.259-.013l-.296 3.187zm.768.043c.037.004-.02.002-.119-.034a1.261 1.261 0 01-.559-.418l2.51-1.943a2.006 2.006 0 00-.908-.652 2.707 2.707 0 00-.629-.14l-.295 3.187zm-.678-.452c.402.518.949.908 1.068 1.012l2.069-2.409a8.219 8.219 0 00-.285-.236c-.085-.068-.133-.106-.181-.147a.96.96 0 01-.161-.163l-2.51 1.943zm1.062 1.007c-.007-.006-.031-.04.144.198.146.201.431.578.927.864l1.559-2.772c.114.065.158.149.078.04-.022-.03-.123-.174-.206-.28a3.321 3.321 0 00-.421-.449l-2.081 2.399zm1.062 1.056c.335.197.662.275.926.304l.296-3.186a.907.907 0 01.355.121l-1.577 2.761zm.926.304c.287.031.552.006.637 0 .133-.01.109-.004.061-.01l.295-3.186c-.289-.032-.549-.008-.647 0-.147.01-.11.003-.05.01l-.296 3.186zm.698-.01s-.073-.007-.175-.042l1.012-3.024a2.406 2.406 0 00-.542-.12l-.295 3.187zm-.136-.03a1.271 1.271 0 01-.496-.294c-.081-.078-.119-.14-.121-.143l.027.053c.026.05.048.099.089.185.059.124.191.408.378.663.176.239.627.766 1.413.852l.295-3.186c.568.062.838.438.853.46.027.036.019.035-.059-.13-.047-.1-.166-.36-.308-.585a2.465 2.465 0 00-.362-.451 1.981 1.981 0 00-.775-.473l-.934 3.05zm1.29 1.316a1.225 1.225 0 01-.507-.167c-.077-.047-.113-.084-.104-.076.027.026.077.082.207.24.097.116.276.336.469.521.102.098.248.226.433.34.18.113.466.255.834.295l.296-3.186c.266.029.446.128.52.174.076.047.112.084.103.075a3.648 3.648 0 01-.212-.245c-.098-.119-.279-.34-.477-.527a2.653 2.653 0 00-.438-.34 2.003 2.003 0 00-.829-.29l-.295 3.186z" fill="#F53" mask="url(#a)"/><mask id="b" fill="#fff"><path d="M125.614 55.547a.37.37 0 00.094.003c.826-.08 1.528-2.028 2.307-2.27.216-.07.473-.07.748-.04.375.04.785.136 1.167.177.355.04.687.033.937-.111.727-.405 1.095-1.748 1.727-2.292.632-.544-.598-2.889-.076-3.559.522-.663 1.173-.827 1.569-1.596.381-.757 2.174-.767 2.414-1.604.23-.809 1.687-1.562 1.768-2.444.082-.882-2.646-1.794-2.723-2.643-.082-.872 1.087-1.878.852-2.702-.24-.839.336-2.166-.053-2.929-.388-.77-.737-1.891-1.257-2.561-.519-.67-2.059-.54-2.691-1.093-.632-.554-1.544-.704-2.277-1.119-.719-.407-1.554-.377-2.348-.635a1.052 1.052 0 00-.206-.044c-.709-.078-1.437.549-2.2.465-.837-.091-1.352.28-2.157.363a.479.479 0 01-.101-.004c-.75-.082-1.716-1.77-2.446-1.85a.548.548 0 00-.184.015c-.794.248-1.417 1.064-2.137 1.463-.727.405-2.267-.205-2.899.339-.632.544.373 2.906-.149 3.576-.521.663-1.519.854-1.909 1.624-.381.757-1.312 1.31-1.551 2.147-.232.816-.112 1.784-.194 2.667-.081.882 1.309 1.64 1.386 2.49.081.871-.614 1.729-.372 2.547.24.839-.374 2.07.008 2.831.132.257.461.357.862.4.455.05 1.005.032 1.467.083.361.04.665.123.822.325.519.67.981.935 1.62 1.49.631.553.817 1.25 1.549 1.673.179.105.364.154.545.174.435.047.872-.069 1.334-.018.114.012.233.032.351.074.768.248 1.018 2.293 1.855 2.384.803.088 1.765 2.118 2.548 2.204z"/></mask><path d="M122.133 52.1l-.719.337.719-.336zm-.909-1.21l.237-.763-.013-.004-.013-.003-.211.77zm-1.069-.068l-.072-.8-.009.002.081.798zm-1.148-.154l.387-.695-.003-.001-.384.696zm-.884-.902l.65-.456-.007-.01-.643.466zm-.653-.764l-.517.603.004.002.513-.605zm-.527-.435l-.498.618.004.003.494-.621zm-1.08-1.045l.628-.486-.628.486zm-3.146-.786l.715-.347-.005-.01-.71.357zm-.033-1.465l.789.136.001-.004-.79-.133zm.031-1.359l.77-.201-.004-.014-.766.215zm.163-1.315l-.762-.254-.001.003.763.25zm-.486-2.413l-.605.514.002.002.603-.516zm-.642-2.266l.798.021-.798-.021zm.154-1.666l-.768-.232-.001.006.769.226zm.829-1.207l.586.554.002-.002-.588-.552zm.722-.926l.711.376.001-.002-.712-.374zm.996-.896l-.428-.684-.001.001.429.683zm.904-.714l.63.503.005-.006-.635-.497zm.06-1.811l.791-.1v-.003l-.791.103zm.082-1.752l.518.618.007-.006-.525-.612zm1.472-.203l.042-.8h-.008l-.034.8zm1.412-.13l.393.704.004-.002-.397-.702zm.864-.64l.518.619.002-.002-.52-.617zm1.26-.817l.25.764.009-.003-.259-.762zm1.324.886l-.57.552.001.001.569-.553zm1.399.951l.092.798h.007l-.099-.797zm.883-.188l.23.771h.001l-.231-.771zm2.426-.412l-.287-.752-.007.002.294.75zm1.22-.18l-.253.756.011.003.242-.759zm.954.218l.13-.788h-.003l-.127.788zm1.381.415l-.391.692.007.004.384-.696zm.936.416l.273-.748-.273.748zm1.328.695l.52-.6-.002-.002-.518.602zm1.3.491l.164-.781-.164.781zm1.386.594l-.628.486.628-.486zm.847 1.654l-.736.299.004.01.732-.309zm.397.9l-.718.338.004.009.004.008.71-.356zm.055 1.524l-.793-.116v.007l.793.109zm-.008 1.389l.767-.213-.002-.005-.765.218zm-.402 1.346l-.699-.398-.001.002.7.396zm.917 2.653l-.428.67.008.005.009.005.411-.68zm.45 2.594l-.564-.577-.003.004.567.573zm-.863 1.139l.766.237.002-.008-.768-.229zm-1.192.818l-.293-.75-.004.001.297.749zm-1.215.772l.714.372v-.001l-.714-.37zm-.834.907l-.497-.636.497.636zm-.719.677l.628.505.007-.008-.635-.497zm.054 1.824l.78-.16-.002-.006-.778.166zm-.733 2.793l-.691-.412-.002.002.693.41zm-.958 1.214l.391.705.006-.003-.397-.702zm-1.482.016l-.131.788.014.003.014.002.103-.793zm-1.361-.05l-.236-.769-.009.003-.008.003.253.764zm-1.099 1.128l.651.475.002-.004-.653-.47zm-1.195 1.145l-.074.797.083.01.082-.01-.091-.797zm-2.554-3.009a.29.29 0 01.137.049c.001 0-.007-.005-.022-.022a.906.906 0 01-.057-.075c-.106-.152-.211-.368-.353-.664l-1.438.674c.125.26.288.608.485.892.182.261.532.677 1.1.74l.148-1.594zm-.294-.712c-.121-.252-.275-.58-.46-.858-.176-.265-.469-.627-.932-.779l-.473 1.524c-.069-.023-.035-.046.081.129.107.162.211.376.345.657l1.439-.673zm-1.418-1.645a2.95 2.95 0 00-.502-.102l-.147 1.593c.067.008.139.023.228.049l.421-1.54zm-.502-.102c-.325-.036-.629-.01-.85.006l.145 1.598c.242-.018.401-.028.558-.01l.147-1.594zm-.859.007a2.522 2.522 0 01-.474.01l-.148 1.594c.285.031.563.012.785-.008l-.163-1.596zm-.474.01a.51.51 0 01-.206-.06l-.774 1.388c.258.148.537.234.832.266l.148-1.593zm-.209-.062c-.227-.129-.368-.307-.618-.662l-1.299.911c.239.34.565.812 1.148 1.143l.769-1.392zm-.625-.672c-.175-.24-.421-.592-.782-.902l-1.027 1.21c.19.163.327.352.524.623l1.285-.931zm-.778-.9c-.202-.175-.392-.326-.551-.454l-.988 1.242c.168.136.33.266.504.417l1.035-1.205zm-.547-.451c-.388-.317-.653-.529-.95-.913l-1.255.971c.427.551.83.87 1.209 1.178l.996-1.236zm-.95-.913c-.357-.46-.918-.607-1.421-.662l-.148 1.593c.181.02.281.049.33.069.044.017.019.017-.016-.029l1.255-.97zm-1.421-.662a9.702 9.702 0 00-.808-.043l-.012 1.602c.255.006.478.013.672.034l.148-1.593zm-.808-.043a8.077 8.077 0 01-.659-.032l-.148 1.593c.268.03.553.035.795.041l.012-1.602zm-.659-.032c-.09-.01-.16-.022-.212-.034a.51.51 0 01-.09-.027c-.01-.004.007.002.036.026a.4.4 0 01.095.125l-1.429.693c.157.32.423.51.674.62.241.108.512.16.778.19l.148-1.593zm-.176.08c-.012-.023-.039-.1-.034-.29.004-.19.037-.404.08-.682l-1.578-.273c-.04.255-.091.576-.099.888-.008.312.023.7.211 1.07l1.42-.712zm.047-.976c.063-.422.177-1.09.011-1.692l-1.539.403c.056.206.026.506-.052 1.025l1.58.264zm.007-1.706c-.041-.138-.007-.316.159-.85l-1.525-.501c-.122.39-.372 1.08-.166 1.781l1.532-.43zm.158-.846c.113-.356.31-.926.248-1.54l-1.589.137c.022.223-.046.465-.182.895l1.523.508zm.248-1.54c-.04-.39-.209-.722-.372-.974-.164-.252-.364-.486-.521-.67l-1.205 1.033c.166.194.296.35.391.496.096.148.115.225.118.252l1.589-.136zm-.891-1.64a4.692 4.692 0 01-.414-.53c-.089-.147-.071-.18-.074-.15l-1.591-.173c-.043.469.137.866.309 1.146.17.278.396.54.561.734l1.209-1.028zm-.488-.68c.033-.362.037-.729.04-1.052l-1.597-.042a10.99 10.99 0 01-.034.92l1.591.175zm.04-1.052c.006-.593.017-1.067.126-1.46l-1.539-.453c-.176.63-.179 1.324-.184 1.871l1.597.042zm.124-1.455c.069-.24.272-.485.647-.885l-1.172-1.107c-.316.337-.819.855-1.011 1.528l1.536.464zm.649-.887c.253-.272.613-.65.845-1.102l-1.423-.752c-.114.223-.31.44-.598.751l1.176 1.103zm.846-1.104c.09-.177.264-.308.713-.587l-.858-1.366c-.37.23-.957.572-1.28 1.205l1.425.748zm.711-.586c.297-.184.769-.465 1.107-.895l-1.259-1.006c-.137.174-.354.317-.703.533l.855 1.368zm1.112-.9c.308-.4.34-.905.334-1.253-.006-.375-.067-.795-.118-1.156l-1.582.2c.056.392.099.703.103.958.005.282-.045.307-.006.256l1.269.994zm.216-2.412c-.057-.386-.101-.703-.104-.953a.903.903 0 01.014-.21c.006-.025-.007.053-.101.132l-1.037-1.236a1.299 1.299 0 00-.41.684 2.455 2.455 0 00-.064.624c.005.379.07.812.121 1.165l1.581-.206zm-.184-1.037c-.031.027-.008-.013.194-.03a5.72 5.72 0 01.719.015l.068-1.6c-.268-.015-.616-.038-.94-.012-.314.026-.745.104-1.092.403l1.051 1.224zm.906-.015c.253.017.563.038.861.022.294-.015.656-.067.985-.248l-.786-1.408c-.026.015-.112.046-.306.056a5.86 5.86 0 01-.671-.021l-.083 1.599zm1.85-.228c.376-.21.719-.501.985-.723l-1.035-1.238c-.292.245-.52.433-.743.557l.793 1.404zm.987-.725c.422-.357.714-.582.99-.67l-.501-1.53c-.629.2-1.158.654-1.529.966l1.04 1.234zm.999-.673a.488.488 0 01-.177.024l.148-1.593a1.143 1.143 0 00-.49.046l.519 1.523zm-.177.024c-.06-.007-.077-.024-.04-.003.034.019.089.056.166.121.159.134.334.315.546.535l1.14-1.104c-.195-.202-.433-.452-.671-.652-.211-.177-.563-.443-.993-.49l-.148 1.593zm.673.654c.207.214.461.479.721.692.244.2.612.456 1.058.505l.148-1.593c.039.004-.02.006-.208-.147a7.363 7.363 0 01-.581-.563l-1.138 1.106zm1.779 1.197c.125.013.232.004.281-.001l-.183-1.595h.001c.007 0 .024 0 .049.003l-.148 1.593zm.288-.002a5.909 5.909 0 001.014-.214l-.459-1.542a4.387 4.387 0 01-.752.163l.197 1.593zm1.015-.214c.402-.115.64-.178.956-.143l.147-1.593c-.661-.073-1.174.082-1.564.194l.461 1.542zm.956-.143c.622.068 1.185-.158 1.532-.29l-.587-1.5c-.409.156-.617.216-.798.197l-.147 1.593zm1.526-.287c.405-.15.562-.19.667-.179l.148-1.593c-.551-.06-1.08.153-1.389.267l.574 1.505zm.667-.179c.006 0 .011.002.014.003.004 0 .003 0-.001-.001l.506-1.512a1.679 1.679 0 00-.371-.083l-.148 1.593zm.024.006c.381.128.768.194 1.069.247l.254-1.578a5.874 5.874 0 01-.838-.188l-.485 1.518zm1.066.247c.524.095.842.157 1.12.318l.783-1.383c-.569-.33-1.184-.428-1.643-.512l-.26 1.577zm1.127.322c.355.202.735.35 1.046.469l.547-1.497a6.114 6.114 0 01-.824-.363l-.769 1.391zm1.046.469c.493.188.836.332 1.085.548l1.035-1.204c-.503-.437-1.125-.67-1.573-.84l-.547 1.496zm1.082.545c.271.238.59.375.86.466.271.09.562.155.797.208l.327-1.563a6.773 6.773 0 01-.641-.165.939.939 0 01-.303-.145l-1.04 1.2zm1.657.674c.289.065.513.117.698.185.191.07.23.12.223.113l1.255-.971c-.272-.351-.651-.536-.949-.645-.304-.112-.639-.186-.9-.245l-.327 1.563zm.921.298c.252.325.478.842.739 1.467l1.472-.598c-.237-.57-.544-1.309-.956-1.84l-1.255.97zm.743 1.477c.132.305.271.638.411.929l1.436-.678c-.121-.251-.237-.53-.383-.869l-1.464.618zm.419.946c.013.025.043.114.041.325-.002.206-.031.44-.068.728l1.584.231c.034-.267.078-.6.081-.918.003-.314-.031-.71-.218-1.078l-1.42.712zm-.028 1.06c-.028.23-.065.515-.075.792-.011.276 0 .603.096.924l1.529-.436a1.318 1.318 0 01-.029-.4c.007-.197.034-.408.065-.663l-1.586-.217zm.019 1.711c-.009-.032.014-.006-.041.146a4.51 4.51 0 01-.294.59l1.399.795c.126-.228.29-.52.397-.816.109-.299.199-.704.072-1.141l-1.533.426zm-.336.737c-.117.213-.267.483-.378.763-.111.282-.209.64-.173 1.034l1.591-.121c-.004-.045.003-.136.069-.303.067-.17.165-.35.292-.581l-1.401-.791zm-.551 1.797c.052.566.461.969.727 1.198.302.26.685.509 1.013.723l.856-1.339c-.353-.23-.637-.418-.841-.593a1.136 1.136 0 01-.176-.18c-.024-.034.005-.007.012.07l-1.591.121zm1.757 1.932c.349.216.644.407.848.58.101.087.144.14.156.158.013.02-.048-.06-.034-.21l1.591.175a1.307 1.307 0 00-.233-.84 2.496 2.496 0 00-.457-.497c-.312-.266-.713-.518-1.048-.726l-.823 1.36zm.97.529c0-.003-.011.072-.147.248-.13.168-.307.345-.526.56l1.127 1.154c.205-.201.46-.452.666-.718.2-.258.429-.623.471-1.07l-1.591-.174zm-.676.812c-.186.184-.405.4-.589.624-.183.224-.378.51-.476.859l1.537.458c.013-.046.056-.136.18-.287.123-.15.28-.307.481-.507l-1.133-1.147zm-1.063 1.475c.024-.082.065-.06-.091.032-.148.088-.35.168-.627.273l.585 1.5c.249-.094.584-.22.87-.389.279-.165.653-.452.796-.942l-1.533-.474zm-.722.306c-.24.092-.551.21-.827.365-.272.153-.607.393-.805.786l1.428.74c-.007.015.013-.034.174-.124a5 5 0 01.623-.27l-.593-1.497zm-1.631 1.15c-.127.25-.291.387-.618.642l.993 1.272c.315-.245.748-.57 1.052-1.17l-1.427-.745zm-.618.642c-.237.185-.566.44-.857.817l1.27.993c.155-.202.336-.348.58-.538l-.993-1.272zm-.85.808c-.337.425-.339.963-.309 1.316.032.385.129.812.212 1.18l1.557-.333c-.089-.394-.157-.705-.177-.954-.024-.282.034-.276-.027-.199l-1.256-1.01zm-.098 2.489c.082.375.148.682.168.925a.772.772 0 01-.001.193c-.003.015.012-.078.117-.169l1.051 1.224c.252-.217.356-.5.399-.718.044-.22.041-.441.026-.632-.03-.376-.126-.803-.2-1.143l-1.56.32zm.284.95c-.417.359-.722.916-.928 1.271l1.383.823c.261-.448.425-.724.596-.87l-1.051-1.224zm-.93 1.273a7.293 7.293 0 01-.396.642c-.13.18-.219.254-.265.28l.793 1.404c.339-.189.588-.477.77-.728.185-.255.349-.544.484-.779l-1.386-.819zm-.655.919l-.004.001a.393.393 0 01-.081.017c-.071.009-.182.01-.353-.009l-.147 1.593c.475.052.95.035 1.366-.192l-.781-1.41zm-.438.01c-.17-.02-.318-.048-.551-.082l-.206 1.586c.154.022.405.066.61.088l.147-1.593zm-.523-.077a9.091 9.091 0 00-.644-.094l-.148 1.593c.176.019.357.045.53.077l.262-1.576zm-.644-.094c-.389-.043-.754-.033-1.084.063l.471 1.54c.06-.018.197-.04.465-.01l.148-1.593zm-1.101.069c-.396.126-.695.408-.901.639-.217.241-.422.531-.599.78l1.307.943a7.72 7.72 0 01.487-.641c.156-.174.224-.197.211-.193l-.505-1.528zm-1.497 1.416a7.307 7.307 0 01-.526.683 1.003 1.003 0 01-.161.147c-.032.021-.012 0 .051-.007l.183 1.595c.512-.051.885-.397 1.102-.63.24-.258.469-.58.653-.838l-1.302-.95zm-.47.824l-.081-.009-.147 1.593.08.009.148-1.593zm-.067.861l-.18-1.595h-.003l.183 1.595zm2.307-2.27l.496 1.53.011-.003-.507-1.528zm2.852.026l-.793-1.404-.009.005-.009.005.811 1.394zm1.651-5.85l-1.26-1.006-.004.006 1.264 1zm1.569-1.597l1.422.753.006-.012-1.428-.741zm2.414-1.604l1.535.466.001-.002-1.536-.464zm-.955-5.087l1.591-.12-.001-.004-1.59.124zm.852-2.702l1.536-.417-.001-.002-1.535.42zm-.053-2.929l-1.422.706.003.006 1.419-.712zm-6.225-4.773l.769-1.392-.002-.001-.767 1.393zm-2.348-.635l-.472 1.523.002.001.47-1.524zm-4.563.784l.183 1.595h.005l-.188-1.595zm-2.731-1.839l-.387-1.56-.056.012-.054.017.497 1.531zm-2.137 1.463l-.789-1.406-.004.002.793 1.404zm-3.048 3.916l1.26 1.005.005-.006-1.265-1zm-1.909 1.623l-1.427-.743-.001.002 1.428.74zm-1.551 2.147l-1.536-.466-.001.005 1.537.461zm1.192 5.157l-1.591.118v.006l1.591-.124zm-.372 2.547l1.535-.42-.002-.006-.002-.007-1.531.433zm.008 2.831l-1.424.702.003.007.003.006 1.418-.715zm3.151.808l1.255-.971-1.255.971zm1.62 1.49l1.04-1.2-.006-.005-1.034 1.204zm1.549 1.673l.788-1.38-.009-.006-.779 1.386zm2.23.23l-.506 1.512.02.006.019.007.467-1.525zm4.255 6.181c.026.003.206.027.425.005l-.366-3.19c.152-.014.278.004.237 0l-.296 3.185zm.423.005c.776-.075 1.304-.55 1.566-.816.292-.298.548-.654.728-.907.212-.297.345-.488.473-.636.158-.183.105-.053-.145.025l-.991-3.063c-.641.199-1.073.663-1.292.916-.249.288-.489.635-.653.865a4.852 4.852 0 01-.415.533c-.126.129.005-.071.368-.107l.361 3.19zm2.633-2.338c-.06.02-.089.018-.066.017h.056c.027.002.061.004.103.009l.296-3.186c-.349-.038-.87-.066-1.403.104l1.014 3.056zm.093.026c.129.014.275.039.483.075.188.032.435.075.684.102l.296-3.186a8.282 8.282 0 01-.488-.075c-.186-.032-.433-.076-.679-.102l-.296 3.186zm1.167.178c.398.043 1.179.1 1.896-.311l-1.622-2.788a.691.691 0 01.154-.066c.036-.01.056-.012.055-.012a1.723 1.723 0 01-.187-.01l-.296 3.186zm1.877-.3c.443-.248.756-.591.968-.868.214-.28.392-.58.525-.812.152-.262.246-.435.353-.6.105-.162.15-.202.14-.193l-2.102-2.447c-.326.28-.564.613-.728.867-.163.253-.324.543-.435.735a4.453 4.453 0 01-.298.47c-.081.107-.087.083-.008.039l1.585 2.808zm1.986-2.473c.773-.665.746-1.634.725-1.985-.027-.458-.138-.953-.213-1.294-.09-.407-.148-.67-.169-.875-.03-.302.078.008-.205.371l-2.529-2c-.544.7-.479 1.553-.445 1.896.044.44.156.923.229 1.254.088.397.134.632.143.788.016.263-.095-.21.362-.602l2.102 2.447zm.134-3.777c.117-.15.221-.22.574-.5.331-.263.803-.664 1.155-1.349l-2.843-1.506c-.044.084-.095.15-.319.328-.201.16-.684.503-1.088 1.016l2.521 2.01zm1.736-1.86c-.123.242-.282.29-.156.223.118-.063.272-.12.579-.239a5.738 5.738 0 001.001-.47c.361-.227.885-.653 1.097-1.394l-3.071-.932c.093-.322.302-.433.248-.4-.06.038-.178.093-.458.2-.218.084-.599.223-.933.4-.324.174-.851.508-1.163 1.129l2.856 1.482zm2.522-1.882c-.037.129-.08.138.043-.005.118-.137.26-.273.493-.504a6.8 6.8 0 00.711-.797c.23-.314.518-.8.576-1.428l-3.181-.348c.017-.187.092-.248.019-.147-.071.096-.186.22-.389.422-.17.168-.44.427-.663.687-.217.253-.529.66-.682 1.193l3.073.927zm1.823-2.734c.099-1.066-.643-1.778-.91-2.02-.359-.326-.808-.62-1.128-.827-.376-.246-.627-.408-.805-.555-.083-.068-.089-.085-.063-.05.022.028.155.209.183.516l-3.182.237c.047.52.282.915.467 1.16.19.25.409.45.591.6.354.292.794.572 1.099.77.362.237.584.39.716.51.224.203-.207-.064-.149-.689l3.181.348zm-2.724-2.941c.015.155-.033.209.02.081.053-.13.132-.272.278-.54.12-.22.307-.564.433-.937.128-.38.25-.955.067-1.599l-3.071.834c-.066-.232-.002-.37-.025-.304a3.08 3.08 0 01-.213.434c-.106.195-.29.52-.425.85-.137.331-.3.837-.245 1.428l3.181-.247zm.797-2.997c.013.046-.005.014.005-.17.011-.185.038-.377.075-.682.033-.266.075-.63.068-1-.007-.367-.061-.87-.316-1.37l-2.839 1.424c-.061-.118-.041-.17-.039-.047.002.12-.012.284-.045.55-.028.226-.075.571-.093.895-.019.324-.019.773.114 1.238l3.07-.838zm-.165-3.215c-.168-.332-.3-.684-.54-1.235-.204-.467-.489-1.082-.885-1.592l-2.509 1.942c.123.16.272.44.47.895.161.37.398.964.619 1.4l2.845-1.41zm-1.425-2.827c-.383-.495-.881-.751-1.237-.893a6.696 6.696 0 00-.992-.289c-.307-.07-.486-.108-.647-.158-.165-.052-.125-.065-.03.019l-2.08 2.398c.411.36.88.54 1.198.64.322.101.678.176.901.227.269.06.416.101.513.14.099.039-.011.018-.135-.142l2.509-1.942zm-2.906-1.321c-.541-.475-1.152-.734-1.573-.901-.5-.2-.737-.276-.975-.411l-1.537 2.784c.494.28 1.08.486 1.377.604.377.15.537.242.628.322l2.08-2.398zm-2.55-1.313c-.602-.34-1.209-.473-1.64-.555-.5-.095-.737-.124-1.006-.21l-.939 3.047c.526.17 1.103.256 1.399.312.365.07.535.126.653.192l1.533-2.786zm-2.643-.765a2.66 2.66 0 00-.53-.114l-.296 3.186a.528.528 0 01-.118-.026l.944-3.046zm-.53-.114a3.064 3.064 0 00-1.105.092c-.275.071-.539.172-.7.232-.431.16-.45.135-.395.141l-.296 3.186c.818.09 1.544-.207 1.846-.32.204-.076.303-.112.388-.134.074-.019.048-.002-.034-.01l.296-3.187zm-2.2.465c-.712-.078-1.275.05-1.683.163-.442.121-.579.175-.811.199l.377 3.188c.574-.059 1.098-.233 1.324-.295.259-.071.372-.082.497-.069l.296-3.186zm-2.488.361c.089-.009.158-.007.196-.005l.034.003-.296 3.186c.008.001.206.028.432.006l-.366-3.19zm.23-.002c.307.034.42.183.258.05a7.072 7.072 0 01-.497-.488c-.195-.202-.474-.494-.761-.734-.244-.203-.759-.603-1.446-.678l-.295 3.186c-.322-.035-.443-.194-.277-.056.122.102.268.251.5.492.198.204.478.498.772.74.253.209.767.6 1.45.674l.296-3.186zm-2.446-1.85a2.126 2.126 0 00-.719.047l.774 3.122a1.047 1.047 0 01-.35.017l.295-3.186zm-.829.077c-.719.225-1.28.677-1.626.962-.433.358-.608.518-.803.626l1.578 2.812c.525-.29 1.022-.738 1.279-.95.344-.284.491-.364.567-.388l-.995-3.062zm-2.433 1.59c.146-.081.216-.056.045-.05-.162.005-.345-.009-.666-.028a6.471 6.471 0 00-1.059.001c-.387.04-.972.161-1.477.596l2.102 2.447c-.189.163-.344.156-.242.145.096-.01.247-.008.533.01.234.014.612.043.963.032.342-.01.877-.06 1.386-.345l-1.585-2.808zm-3.157.52c-.72.62-.759 1.52-.763 1.876-.004.453.068.945.118 1.292.058.409.098.68.105.895.01.302-.067.05.177-.263l2.53 2c.505-.65.498-1.447.486-1.794-.014-.433-.089-.913-.137-1.246-.057-.396-.086-.639-.084-.803.002-.26.075.141-.33.49l-2.102-2.448zm-.358 3.794c-.049.063-.127.115-.603.412-.357.223-1.061.659-1.473 1.474l2.854 1.486c-.022.045-.033 0 .337-.23.251-.157.933-.53 1.405-1.131l-2.52-2.01zm-2.077 1.887c-.066.131-.187.258-.583.689-.3.326-.842.917-1.076 1.734l3.071.932c-.002.008.006-.026.067-.113.064-.092.156-.2.303-.36.224-.244.759-.773 1.074-1.399l-2.856-1.483zm-1.66 2.428c-.175.616-.203 1.235-.213 1.711-.011.545 0 .878-.034 1.242l3.181.349c.048-.518.04-1.11.047-1.474.009-.433.036-.706.093-.906l-3.074-.922zm-.247 2.953c-.063.676.169 1.232.382 1.601a5.8 5.8 0 00.636.862c.206.241.308.358.385.47.075.11-.001.042-.018-.15l3.181-.237c-.055-.617-.334-1.099-.539-1.398-.202-.296-.457-.583-.598-.748a3.042 3.042 0 01-.288-.369c-.027-.047.062.083.04.318l-3.181-.349zm1.385 2.789c-.001-.016.005.017-.023.14-.033.14-.077.272-.157.526-.119.38-.41 1.248-.132 2.19l3.062-.866c.037.124-.029.155.119-.318.054-.17.153-.467.22-.76a3.61 3.61 0 00.092-1.16l-3.181.248zm-.316 2.842c-.015-.054.003-.035-.009.127-.013.168-.041.343-.085.636-.038.252-.089.61-.089.977 0 .37.049.871.302 1.374l2.848-1.404c.062.122.044.183.045.083 0-.104.015-.25.053-.505.032-.215.088-.553.112-.875a3.594 3.594 0 00-.107-1.251l-3.07.838zm.125 3.127c.296.576.775.884 1.151 1.042.359.15.719.208.981.237l.296-3.186c-.14-.016-.144-.03-.083-.004.078.033.327.161.491.481l-2.836 1.43zm2.132 1.28c.301.032.618.041.854.048.266.009.455.016.613.033l.296-3.186a11.122 11.122 0 00-.859-.05 8.428 8.428 0 01-.608-.032l-.296 3.186zm1.467.081c.056.006.093.012.116.017.023.005.02.005-.002-.002a.935.935 0 01-.399-.312l2.51-1.942a2.35 2.35 0 00-1.068-.759 3.716 3.716 0 00-.861-.188l-.296 3.186zm-.285-.297c.649.838 1.417 1.355 1.84 1.723l2.069-2.409c-.853-.742-1.01-.754-1.399-1.256l-2.51 1.942zm1.835 1.718c.143.125.216.241.494.621.251.342.645.852 1.315 1.24l1.559-2.773c-.061-.035-.126-.085-.309-.336-.156-.213-.491-.723-.979-1.151l-2.08 2.399zm1.8 1.855c.42.246.836.348 1.186.386l.296-3.186.02.005a.348.348 0 01.075.033l-1.577 2.762zm1.186.386c.391.043.76.01.951-.005a2.27 2.27 0 01.383-.013l.295-3.186c-.399-.044-.766-.013-.97.003-.252.019-.319.02-.363.015l-.296 3.186zm1.334-.018a.454.454 0 01.026.003l.008.002-.041-.012 1.012-3.024a3.16 3.16 0 00-.71-.155l-.295 3.186zm.032.006c-.378-.122-.482-.376-.38-.216.077.122.156.29.309.612.122.257.318.67.578 1.024.249.339.781.936 1.667 1.033l.296-3.187c.467.051.655.358.598.28-.046-.063-.118-.194-.259-.49-.11-.232-.29-.627-.502-.961-.188-.297-.611-.899-1.373-1.145l-.934 3.05zm2.174 2.453c-.364-.04-.491-.238-.312-.067.13.123.285.305.52.589.201.242.484.588.78.871.241.231.79.726 1.56.81l.296-3.186c.379.041.514.25.329.074a7.888 7.888 0 01-.522-.595c-.203-.245-.488-.592-.789-.877-.251-.238-.8-.722-1.566-.806l-.296 3.187z" fill="#F53" mask="url(#b)"/><mask id="c" fill="#fff"><path d="M126.089 63.723c.053.006.096.01.15.005 1.305-.128 2.415-3.208 3.648-3.592.342-.109.748-.11 1.182-.062.593.065 1.242.215 1.845.28.561.062 1.086.052 1.482-.175 1.15-.64 1.732-2.764 2.731-3.625 1-.86-.945-4.567-.119-5.627.824-1.048 1.853-1.308 2.48-2.524.602-1.197 3.438-1.214 3.817-2.536.365-1.28 2.668-2.47 2.797-3.866.129-1.395-4.186-2.837-4.307-4.18-.129-1.378 1.719-2.969 1.348-4.272-.379-1.327.532-3.425-.084-4.631-.614-1.218-1.166-2.992-1.987-4.051-.822-1.06-3.258-.853-4.256-1.729-.999-.876-2.442-1.112-3.601-1.769-1.138-.643-2.457-.596-3.713-1.004a1.676 1.676 0 00-.325-.07c-1.123-.122-2.273.868-3.48.736-1.323-.145-2.137.443-3.411.574a.777.777 0 01-.16-.006c-1.186-.13-2.713-2.8-3.867-2.927a.864.864 0 00-.291.025c-1.256.392-2.241 1.683-3.38 2.313-1.15.641-3.584-.324-4.584.536-.999.86.59 4.596-.236 5.656-.824 1.048-2.403 1.35-3.018 2.567-.603 1.197-2.075 2.073-2.454 3.395-.366 1.29-.176 2.822-.306 4.217-.129 1.395 2.07 2.594 2.191 3.938.129 1.378-.97 2.735-.588 4.028.38 1.327-.592 3.272.013 4.477.208.406.728.565 1.363.634.72.079 1.589.05 2.32.13.571.062 1.051.194 1.299.514.822 1.06 1.553 1.478 2.562 2.355.999.876 1.293 1.979 2.45 2.647.284.166.576.243.862.275.688.075 1.379-.109 2.109-.029.18.02.37.052.556.117 1.215.392 1.61 3.626 2.933 3.771 1.271.14 2.791 3.35 4.029 3.485z"/></mask><path d="M120.585 58.273l-.719.336.719-.336zm-1.437-1.916l.236-.762-.013-.004-.013-.004-.21.77zm-1.691-.106l-.072-.8-.009.001.081.799zm-1.816-.244l.387-.695-.003-.001-.384.696zm-1.397-1.427l.65-.456-.008-.01-.642.466zm-1.032-1.207l-.518.602.004.003.514-.605zm-.835-.688l-.498.618.004.003.494-.621zm-1.707-1.653l.627-.485-.627.485zm-4.975-1.243l.714-.347-.004-.01-.71.357zm-.053-2.317l.789.136.001-.004-.79-.132zm.05-2.148l.77-.202-.004-.013-.766.215zm.257-2.08l-.762-.254-.001.003.763.25zm-.769-3.816l-.604.514.002.003.602-.517zm-1.015-3.583l.799.02-.799-.02zm.244-2.634l-.768-.232-.001.005.769.227zm1.311-1.909l.586.554.002-.002-.588-.552zm1.141-1.464l.711.376.001-.002-.712-.374zm1.575-1.418l-.427-.683h-.002l.429.683zm1.431-1.128l.63.503.004-.006-.634-.497zm.094-2.865l.791-.1v-.003l-.791.103zm.129-2.77l.518.618.008-.007-.526-.611zm2.329-.32l.041-.8h-.007l-.034.8zm2.233-.207l.393.704.003-.002-.396-.702zm1.366-1.012l.518.619.002-.002-.52-.617zm1.991-1.292l.251.764.009-.003-.26-.761zm2.095 1.401l-.57.552.001.002.569-.554zm2.213 1.505l.091.797h.007l-.098-.797zm1.396-.298l.23.771h.001l-.231-.771zm3.836-.651l-.287-.753-.007.003.294.75zm1.93-.285l-.254.756.011.003.243-.76zm1.507.345l.131-.788h-.004l-.127.788zm2.185.657l-.391.691.006.004.385-.695zm1.479.657l.274-.748-.274.748zm2.101 1.098l.52-.6-.002-.002-.518.602zm2.056.778l.164-.782-.164.782zm2.191.939l-.627.485.627-.485zm1.34 2.615l-.736.299.004.01.732-.309zm.627 1.422l-.718.339.004.008.005.009.709-.356zm.087 2.41l-.792-.115-.001.007.793.109zm-.011 2.198l.766-.213-.002-.005-.764.218zm-.636 2.129l-.7-.398-.001.002.701.395zm1.45 4.194l-.428.67.008.005.008.005.412-.68zm.71 4.103l-.564-.577-.003.003.567.574zm-1.365 1.8l.767.237.002-.007-.769-.23zm-1.884 1.294l-.293-.75-.003.001.296.749zm-1.921 1.222l.714.371-.714-.371zm-1.32 1.433l-.496-.635.496.636zm-1.136 1.071l.628.505.007-.008-.635-.497zm.085 2.884l.78-.16-.001-.006-.779.166zm-1.158 4.417l-.692-.412-.001.002.693.41zm-1.515 1.92l.391.705.005-.003-.396-.702zm-2.344.025l-.131.788.014.003.014.002.103-.793zm-2.153-.078l-.236-.77-.008.003-.009.003.253.764zm-1.738 1.783l.652.475.002-.004-.654-.471zm-1.889 1.811l-.074.797.083.009.082-.008-.091-.798zm-4.083-4.295c.05.005-.034.024-.244-.277-.194-.28-.377-.659-.596-1.117l-1.438.674c.202.422.444.934.729 1.345.269.388.717.893 1.402.968l.147-1.593zm-.84-1.394c-.194-.407-.423-.892-.693-1.298-.261-.394-.649-.854-1.227-1.043l-.472 1.523c.045.015.174.09.374.393.193.29.371.661.58 1.098l1.438-.673zm-1.946-2.349a4.182 4.182 0 00-.713-.146l-.148 1.593c.142.015.283.047.441.092l.42-1.539zm-.713-.146c-.466-.051-.904-.016-1.26.01l.145 1.599c.376-.029.671-.049.967-.016l.148-1.593zm-1.269.011c-.341.03-.607.043-.841.017l-.147 1.593c.401.044.802.017 1.151-.013l-.163-1.597zm-.841.017a1.274 1.274 0 01-.507-.157l-.774 1.39c.348.199.726.316 1.134.36l.147-1.593zm-.51-.158c-.462-.262-.739-.63-1.132-1.187l-1.299.911c.382.543.844 1.204 1.662 1.668l.769-1.392zm-1.139-1.197c-.282-.388-.64-.898-1.16-1.345l-1.028 1.21c.35.3.598.647.903 1.066l1.285-.93zm-1.157-1.343c-.311-.27-.604-.503-.858-.708l-.988 1.243c.263.212.528.424.811.67l1.035-1.205zm-.854-.705c-.611-.498-1.069-.864-1.578-1.52l-1.255.972c.638.822 1.235 1.294 1.837 1.785l.996-1.237zm-1.578-1.52c-.441-.568-1.161-.783-1.924-.866l-.148 1.593c.655.072.8.222.817.245l1.255-.971zm-1.924-.866c-.41-.045-.85-.056-1.239-.065l-.012 1.602c.401.01.772.02 1.103.056l.148-1.593zm-1.239-.065c-.402-.01-.762-.019-1.081-.054l-.148 1.593c.4.044.83.054 1.217.063l.012-1.602zm-1.081-.054c-.322-.035-.512-.088-.617-.134-.095-.042-.06-.051-.027.015l-1.429.693c.186.377.504.612.832.757.32.141.694.219 1.093.262l.148-1.593zm-.648-.128c-.071-.138-.115-.351-.106-.686.008-.335.065-.706.132-1.139l-1.578-.273c-.064.41-.139.887-.151 1.345-.012.458.037.981.283 1.465l1.42-.712zm.027-1.83c.104-.693.26-1.643.029-2.48l-1.539.403c.122.44.05 1.022-.069 1.814l1.579.264zm.026-2.494c-.113-.383.003-.813.253-1.614l-1.525-.502c-.206.66-.538 1.6-.26 2.546l1.532-.43zm.253-1.611c.184-.584.458-1.39.371-2.247l-1.589.137c.048.465-.097.944-.306 1.602l1.524.508zm.371-2.247c-.051-.513-.276-.963-.514-1.33a9.717 9.717 0 00-.786-1.01l-1.204 1.034c.26.303.485.571.655.834.171.264.245.46.26.608l1.589-.136zm-1.297-2.337c-.292-.343-.531-.625-.698-.897-.165-.27-.195-.43-.186-.525l-1.59-.174c-.056.596.172 1.12.42 1.523.246.402.577.786.845 1.1l1.209-1.027zm-.884-1.422c.051-.551.057-1.113.063-1.626l-1.598-.042a18.302 18.302 0 01-.055 1.494l1.59.174zm.063-1.627c.009-.924.023-1.737.215-2.428l-1.539-.453c-.258.929-.265 1.962-.274 2.84l1.598.041zm.213-2.422c.145-.505.553-.972 1.129-1.587l-1.172-1.108c-.516.552-1.225 1.293-1.493 2.23l1.536.465zm1.131-1.59c.41-.44.931-.991 1.264-1.64l-1.422-.752c-.216.42-.573.81-1.019 1.29l1.177 1.103zm1.265-1.641c.211-.413.606-.682 1.292-1.109l-.858-1.366c-.608.379-1.415.858-1.858 1.726l1.424.749zm1.29-1.108c.485-.3 1.157-.704 1.634-1.31l-1.26-1.005c-.275.35-.692.615-1.228.948l.854 1.367zm1.638-1.315c.387-.501.443-1.16.434-1.69-.01-.559-.101-1.192-.183-1.771l-1.581.199c.086.611.159 1.135.167 1.573.008.466-.067.644-.106.695l1.269.994zm.251-3.465c-.088-.6-.164-1.135-.17-1.568a1.85 1.85 0 01.038-.453c.023-.093.039-.07-.012-.028l-1.036-1.236c-.289.242-.429.564-.501.845a3.44 3.44 0 00-.086.866c.007.561.104 1.213.186 1.78l1.581-.206zm-.136-2.056c.06-.052.215-.125.568-.154.342-.027.74-.005 1.201.023l.068-1.6c-.432-.026-.949-.058-1.423-.02-.463.037-1.026.15-1.466.528l1.052 1.223zm1.762-.132c.403.027.867.057 1.307.035.434-.023.927-.098 1.36-.337l-.786-1.408c-.131.072-.346.127-.682.144a9.728 9.728 0 01-1.117-.033l-.082 1.599zm2.67-.304c.55-.306 1.06-.737 1.488-1.095l-1.035-1.237c-.454.38-.849.707-1.246.928l.793 1.404zm1.49-1.097c.653-.55 1.183-.974 1.722-1.145l-.501-1.53c-.893.282-1.66.935-2.261 1.442l1.04 1.233zm1.731-1.148a.31.31 0 01-.078.016c-.019.001-.026 0-.008.001l.148-1.593a1.346 1.346 0 00-.581.053l.519 1.523zm-.086.017c-.01-.001.025.001.117.053.088.05.199.13.334.242.274.231.569.537.9.88l1.14-1.104c-.313-.325-.672-.7-1.025-.996-.326-.275-.789-.61-1.318-.668l-.148 1.593zm1.352 1.177c.332.343.713.74 1.099 1.056.37.303.862.632 1.427.694l.148-1.593c-.081-.009-.263-.08-.577-.336-.297-.244-.609-.565-.959-.928l-1.138 1.107zm2.526 1.75c.148.017.279.005.347-.002l-.183-1.594a.583.583 0 01-.02.001l-.011.001h.001l.014.001-.148 1.593zm.354-.002a8.884 8.884 0 001.528-.324l-.46-1.542c-.421.12-.816.224-1.264.272l.196 1.594zm1.529-.324c.632-.181 1.088-.307 1.688-.241l.148-1.593c-.946-.104-1.677.114-2.298.292l.462 1.542zm1.688-.241c.856.094 1.643-.216 2.21-.431l-.587-1.5c-.629.24-1.061.383-1.475.338l-.148 1.593zm2.203-.429c.614-.227.97-.34 1.266-.308l.148-1.593c-.742-.08-1.471.205-1.987.396l.573 1.505zm1.266-.308a.59.59 0 01.125.027l.506-1.512a2.203 2.203 0 00-.483-.108l-.148 1.593zm.135.03c.565.19 1.14.29 1.623.375l.254-1.578c-.505-.09-.961-.17-1.392-.316l-.485 1.52zm1.62.375c.811.147 1.399.255 1.924.56l.783-1.384c-.815-.474-1.701-.617-2.446-.753l-.261 1.577zm1.93.563c.528.3 1.098.522 1.59.71l.548-1.496c-.499-.19-.961-.374-1.368-.605l-.77 1.391zm1.59.71c.767.294 1.391.547 1.858.953l1.035-1.205c-.721-.626-1.624-.968-2.345-1.244l-.548 1.497zm1.855.95c.36.316.797.509 1.198.643.402.134.837.231 1.215.316l.327-1.563c-.398-.09-.749-.169-1.059-.273-.313-.105-.516-.213-.641-.322l-1.04 1.199zm2.413.96c.448.1.835.189 1.162.31.334.122.494.24.565.332l1.254-.971c-.349-.45-.85-.703-1.29-.865-.445-.164-.943-.274-1.364-.37l-.327 1.563zm1.727.642c.445.574.826 1.456 1.231 2.429l1.472-.598c-.382-.917-.843-2.021-1.449-2.802l-1.254.971zm1.235 2.44c.213.491.426 1.003.641 1.45l1.437-.677c-.197-.409-.387-.866-.614-1.392l-1.464.618zm.65 1.468c.071.139.119.368.115.732-.003.359-.053.758-.111 1.207l1.584.231c.055-.429.12-.925.125-1.397.004-.467-.048-1.003-.294-1.485l-1.419.712zm.003 1.946c-.045.372-.1.8-.116 1.215-.016.413.002.871.133 1.309l1.529-.436c-.057-.192-.079-.449-.066-.785.013-.334.058-.69.106-1.085l-1.586-.218zm.015 2.519c.025.085.029.236-.073.52-.104.286-.276.601-.496.998l1.399.795c.205-.369.444-.798.599-1.224.156-.43.266-.96.104-1.515l-1.533.426zm-.57 1.52c-.188.34-.41.742-.572 1.153-.162.413-.291.9-.243 1.423l1.59-.122c-.015-.172.023-.393.14-.691.118-.3.288-.611.486-.972l-1.401-.791zm-.815 2.576c.064.693.572 1.222.986 1.578.449.386 1.025.762 1.552 1.106l.856-1.34c-.552-.36-1.029-.674-1.38-.976a2.222 2.222 0 01-.357-.369c-.069-.097-.068-.134-.067-.12l-1.59.12zm2.554 2.694c.548.34 1.046.66 1.399.96.176.15.281.268.335.349.055.082.016.063.024-.026l1.59.174c.039-.413-.118-.766-.29-1.024a3.447 3.447 0 00-.636-.686c-.462-.394-1.064-.775-1.598-1.106l-.824 1.36zm1.758 1.283c-.012.126-.093.33-.327.632-.228.293-.53.594-.873.931l1.128 1.154c.328-.323.709-.697 1.012-1.09.298-.383.597-.877.65-1.453l-1.59-.174zm-1.203 1.566c-.298.297-.626.621-.899.954-.273.333-.537.729-.667 1.191l1.537.46c.046-.162.157-.362.37-.621.212-.26.479-.524.793-.837l-1.134-1.147zm-1.564 2.138c-.011.036-.067.148-.349.315-.275.163-.632.302-1.062.465l.586 1.5c.401-.152.892-.337 1.304-.581.406-.24.877-.617 1.054-1.226l-1.533-.473zm-1.414.781c-.387.149-.848.325-1.249.55-.398.223-.836.547-1.09 1.05l1.428.741c.049-.095.171-.228.459-.39.284-.159.633-.295 1.044-.453l-.592-1.498zm-2.338 1.599c-.252.498-.59.77-1.103 1.17l.993 1.271c.501-.39 1.108-.85 1.537-1.698l-1.427-.743zm-1.103 1.17c-.377.294-.855.664-1.275 1.21l1.27.993c.284-.37.614-.632.998-.932l-.993-1.271zm-1.268 1.201c-.417.526-.436 1.219-.392 1.756.048.57.193 1.212.327 1.8l1.557-.333c-.14-.615-.256-1.14-.292-1.574-.038-.467.037-.615.056-.639l-1.256-1.01zm-.067 3.55c.128.583.241 1.103.275 1.526.016.209.009.348-.008.432-.016.084-.028.045.034-.008l1.052 1.223c.295-.254.424-.59.481-.878.057-.287.055-.59.033-.871-.044-.556-.187-1.196-.307-1.745l-1.56.32zm.301 1.95c-.588.506-1.029 1.305-1.371 1.894l1.384.823c.396-.682.697-1.2 1.039-1.494l-1.052-1.223zm-1.372 1.896c-.229.397-.434.754-.652 1.055-.221.305-.408.485-.566.573l.792 1.404c.451-.251.799-.645 1.071-1.021.276-.38.523-.814.741-1.192l-1.386-.819zm-1.213 1.625c-.117.064-.366.133-.961.068l-.148 1.593c.717.078 1.355.042 1.891-.251l-.782-1.41zm-.961.068c-.28-.03-.544-.08-.89-.13l-.205 1.585c.266.039.633.104.947.138l.148-1.593zm-.861-.126c-.325-.06-.66-.108-.986-.144l-.148 1.593c.289.032.586.075.872.127l.262-1.576zm-.986-.144c-.579-.063-1.091-.045-1.534.085l.471 1.539c.173-.051.457-.081.915-.03l.148-1.594zm-1.551.09c-.507.162-.912.533-1.224.881-.322.359-.631.795-.914 1.195l1.307.942c.295-.416.552-.775.803-1.055.261-.291.435-.403.534-.435l-.506-1.528zm-2.136 2.072c-.317.443-.595.833-.868 1.126a2.03 2.03 0 01-.336.3c-.091.06-.13.063-.126.063l.183 1.595c.631-.063 1.121-.497 1.454-.854.356-.382.698-.865.996-1.28l-1.303-.95zm-1.164 1.49l-.127-.014-.148 1.593.127.014.148-1.593zm-.062.899l-.181-1.595h-.002l.183 1.595zm3.648-3.592l.495 1.532.012-.004-.507-1.528zm4.509.043l-.793-1.404-.009.005-.009.005.811 1.394zm2.612-9.252l-1.261-1.005-.004.005 1.265 1zm2.48-2.524l1.421.753.007-.012-1.428-.741zm3.817-2.536l1.536.466.001-.003-1.537-.463zm-1.51-8.046l1.591-.12-.001-.004-1.59.124zm1.348-4.272l1.536-.417-.001-.002-1.535.419zm-.084-4.631l-1.422.705.003.006 1.419-.711zm-9.844-7.549l.769-1.392-.002-.001-.767 1.393zm-3.713-1.004l-.473 1.523.003.001.47-1.524zm-7.216 1.24l.183 1.595.005-.001-.188-1.594zm-4.318-2.908l-.387-1.561-.056.013-.055.017.498 1.531zm-3.38 2.313l-.789-1.406-.004.002.793 1.404zm-4.82 6.192l1.26 1.005.005-.006-1.265-.999zm-3.018 2.567l-1.427-.743-.001.002 1.428.741zm-2.454 3.395l-1.536-.466-.001.005 1.537.461zm1.885 8.155l-1.591.119.001.005 1.59-.124zm-.588 4.028l1.535-.419-.002-.007-.002-.007-1.531.433zm.013 4.477l-1.424.702.003.007.003.006 1.418-.715zm4.982 1.278l1.255-.971-1.255.971zm2.562 2.355l1.04-1.2-.005-.004-1.035 1.204zm2.45 2.647l.788-1.381-.009-.005-.779 1.386zm3.527.363l-.506 1.512.019.007.02.006.467-1.525zm6.815 8.85c.045.004.24.03.48.006l-.366-3.19a1.087 1.087 0 01.197-.002l-.016-.001-.295 3.186zm.477.006c.896-.087 1.54-.641 1.914-1.022.405-.413.772-.92 1.061-1.327.321-.45.563-.797.8-1.072.268-.309.326-.277.188-.234l-.991-3.063c-.753.234-1.297.795-1.625 1.176-.358.414-.707.917-.98 1.3-.305.429-.539.74-.747.952-.24.244-.224.124.019.1l.361 3.19zm3.975-3.659l.008-.002a.922.922 0 01.13-.014c.096-.004.223.001.389.02l.296-3.187c-.508-.056-1.179-.083-1.837.127l1.014 3.056zm.527.003c.238.026.498.07.82.126.303.053.666.116 1.026.155l.295-3.186a13.941 13.941 0 01-.828-.127c-.301-.052-.662-.115-1.017-.154l-.296 3.186zm1.846.281c.604.066 1.578.12 2.44-.375l-1.622-2.788c.053-.03.059-.015-.04-.006-.103.01-.256.008-.483-.017l-.295 3.186zm2.421-.365c.549-.306.954-.742 1.251-1.13.3-.39.555-.821.765-1.185.228-.395.397-.702.581-.988.184-.284.312-.431.394-.502l-2.103-2.447c-.418.36-.737.8-.98 1.176-.242.374-.477.799-.664 1.123-.204.355-.373.63-.537.843-.167.218-.266.287-.292.302l1.585 2.808zm2.991-3.805c.864-.744.861-1.858.83-2.386-.038-.637-.194-1.344-.317-1.9-.138-.621-.245-1.1-.284-1.493-.048-.49.071-.338-.136-.072l-2.529-2c-.62.796-.566 1.809-.514 2.339.063.628.224 1.327.345 1.872.135.612.226 1.06.246 1.393.026.441-.108.114.256-.2l2.103 2.447zm.089-5.846c.269-.342.543-.533 1.057-.94.493-.392 1.117-.928 1.584-1.836l-2.843-1.507c-.159.309-.363.51-.747.816-.363.288-1.016.75-1.571 1.457l2.52 2.01zm2.648-2.788c-.067.132-.12.098.138-.04.248-.132.558-.248 1.018-.424.399-.153.948-.366 1.424-.665.482-.303 1.098-.82 1.345-1.682l-3.071-.933c.057-.2.176-.22.001-.11-.181.113-.45.228-.882.394-.372.142-.908.338-1.372.586-.456.244-1.089.66-1.457 1.391l2.856 1.483zm3.926-2.814c-.004.012.031-.095.253-.353.217-.252.479-.503.829-.85.317-.315.71-.712 1.031-1.151.318-.435.667-1.045.737-1.8l-3.181-.349c.006-.058.019.004-.143.225-.158.217-.388.459-.708.776-.287.285-.678.659-.999 1.034-.316.367-.707.89-.892 1.54l3.073.928zm2.85-4.155c.111-1.194-.721-2.035-1.13-2.407-.502-.456-1.147-.878-1.664-1.216-.575-.375-1.027-.666-1.358-.939a1.744 1.744 0 01-.254-.24c-.025-.034.078.084.1.329l-3.182.238c.053.581.317 1.038.55 1.346.237.313.522.577.781.79.508.419 1.149.827 1.652 1.155.561.366.978.649 1.253.898.366.333.025.195.071-.302l3.181.348zm-4.307-4.478c.003.029-.011-.05.097-.31.108-.264.263-.541.482-.944.194-.355.452-.833.621-1.336.172-.51.311-1.211.094-1.975l-3.071.834c-.032-.112.015-.125-.051.072-.069.205-.196.455-.401.832-.18.33-.44.79-.631 1.254-.191.465-.387 1.103-.32 1.82l3.18-.247zm1.293-4.567c-.022-.077-.045-.248-.027-.58.019-.332.067-.68.124-1.14.052-.421.11-.938.101-1.45-.009-.51-.086-1.144-.397-1.754l-2.839 1.424c-.004-.008.037.072.042.337a7.61 7.61 0 01-.078 1c-.047.38-.116.882-.142 1.353-.027.472-.022 1.061.146 1.648l3.07-.838zm-.196-4.918c-.281-.556-.52-1.182-.877-2.001-.32-.735-.731-1.61-1.278-2.315l-2.51 1.942c.274.354.55.896.864 1.617.278.638.622 1.507.956 2.168l2.845-1.41zm-2.155-4.316c-.46-.593-1.07-.917-1.557-1.111-.491-.195-1.017-.32-1.431-.414-.46-.104-.795-.175-1.096-.27-.305-.096-.391-.165-.387-.162l-2.081 2.399c.503.44 1.097.675 1.555.82.463.145.975.253 1.351.339.423.096.722.173.951.264.231.092.233.14.185.077l2.51-1.942zm-4.471-1.957c-.725-.635-1.561-.997-2.213-1.256-.732-.291-1.208-.45-1.659-.706l-1.537 2.784c.707.401 1.532.689 2.06.899.609.242.994.437 1.268.678l2.081-2.399zm-3.874-1.963c-.811-.459-1.644-.646-2.306-.772-.732-.139-1.205-.2-1.705-.363l-.939 3.048c.756.246 1.571.364 2.098.464.596.114.992.225 1.319.41l1.533-2.787zm-4.008-1.134a3.263 3.263 0 00-.65-.14l-.295 3.187.945-3.047zm-.65-.14c-1.01-.11-1.957.284-2.433.461-.643.24-.879.293-1.046.275l-.296 3.186c1.04.114 1.983-.262 2.497-.454.681-.254.871-.293.983-.281l.295-3.186zm-3.479.736c-.955-.105-1.715.065-2.317.23-.636.175-.964.294-1.431.342l.377 3.189c.808-.083 1.524-.323 1.944-.439.454-.124.763-.176 1.131-.136l.296-3.186zm-3.742.572c.079-.008.139-.006.167-.004l.023.001h-.005l-.014-.002-.296 3.187c.027.003.245.032.491.008l-.366-3.19zm.171-.005c.199.022.194.1-.088-.132-.242-.2-.513-.477-.866-.843-.319-.331-.721-.752-1.128-1.091-.363-.303-.992-.773-1.785-.86l-.296 3.187c-.216-.024-.222-.113.063.125.242.2.512.479.867.848.322.333.727.755 1.14 1.097.374.308 1.005.769 1.797.856l.296-3.187zm-3.867-2.926a2.445 2.445 0 00-.826.057l.774 3.122s-.095.024-.244.008l.296-3.187zm-.937.087c-.949.297-1.716.903-2.263 1.354-.634.523-1.003.86-1.408 1.084l1.578 2.812c.734-.406 1.426-1.03 1.884-1.407.545-.45.898-.686 1.204-.781l-.995-3.062zm-3.675 2.44c.041-.022-.025.025-.345.035-.311.01-.657-.015-1.139-.045-.43-.026-.987-.057-1.522 0-.53.055-1.239.212-1.836.726l2.102 2.447c-.097.084-.127.04.116.014.239-.025.55-.015.997.012.395.025.936.066 1.436.05.491-.016 1.161-.088 1.777-.43l-1.586-2.809zm-4.842.716c-.812.7-.884 1.746-.889 2.28-.005.633.095 1.338.176 1.901.09.625.163 1.114.176 1.517.017.49-.081.399.088.182l2.529 2c.581-.747.594-1.703.576-2.238-.021-.622-.128-1.32-.207-1.869-.088-.611-.146-1.067-.143-1.41.004-.441.109-.184-.204.084l-2.102-2.447zm-.445 5.875c-.201.255-.499.431-1.187.86-.567.354-1.473.93-1.998 1.969l2.854 1.486c.09-.179.281-.363.863-.725.462-.288 1.365-.787 1.988-1.58l-2.52-2.01zm-3.186 2.83c-.177.351-.489.669-1.065 1.296-.481.522-1.193 1.316-1.497 2.375l3.072.933c.075-.263.288-.57.789-1.115.405-.44 1.13-1.16 1.557-2.006l-2.856-1.482zm-2.563 3.676c-.242.853-.286 1.732-.301 2.472-.017.81-.001 1.411-.058 2.032l3.181.348c.072-.774.058-1.636.071-2.263.014-.697.057-1.229.181-1.666l-3.074-.923zm-.359 4.504c-.075.804.199 1.484.481 1.974.275.478.637.906.905 1.22.307.359.513.593.671.825.157.228.139.28.133.212l3.182-.238c-.067-.74-.405-1.342-.691-1.76-.284-.415-.642-.82-.884-1.102-.28-.328-.452-.545-.556-.727-.097-.169-.05-.162-.06-.056l-3.181-.348zm2.191 4.236c.027.293-.073.617-.324 1.419-.196.626-.553 1.738-.204 2.918l3.061-.866c-.033-.114-.033-.326.193-1.046.17-.545.556-1.588.454-2.673l-3.18.248zm-.532 4.323c.019.068.041.223.018.528-.022.31-.076.634-.142 1.075-.059.4-.13.903-.13 1.407 0 .508.068 1.136.377 1.75l2.848-1.404c.006.011-.03-.055-.03-.293 0-.24.035-.532.095-.935.054-.362.135-.85.169-1.314.034-.47.035-1.057-.136-1.652l-3.069.838zm.129 4.773c.334.651.88 1.01 1.342 1.205.446.187.913.266 1.292.307l.295-3.186a2.782 2.782 0 01-.283-.044.714.714 0 01-.109-.03c-.005-.002.038.015.099.066.067.055.142.14.2.252l-2.836 1.43zm2.634 1.512c.433.048.895.061 1.279.073.412.013.747.025 1.04.057l.295-3.186c-.438-.048-.902-.062-1.286-.074a14.086 14.086 0 01-1.033-.056l-.295 3.186zm2.319.13c.108.012.196.025.266.04a.971.971 0 01.131.033c.047.017-.077-.016-.204-.18l2.509-1.943c-.376-.485-.863-.744-1.262-.889a4.94 4.94 0 00-1.145-.247l-.295 3.186zm.193-.108c.951 1.227 1.988 1.898 2.782 2.588l2.069-2.408c-1.225-1.064-1.65-1.23-2.342-2.122l-2.509 1.942zm2.776 2.583c.327.287.519.584.923 1.137.376.514.904 1.187 1.787 1.697l1.559-2.772c-.274-.158-.472-.371-.781-.794-.282-.385-.736-1.077-1.408-1.666l-2.08 2.398zm2.701 2.828a3.748 3.748 0 001.503.488l.296-3.187a.535.535 0 01-.222-.062l-1.577 2.761zm1.503.488c.517.056 1.013.013 1.332-.011.368-.028.581-.04.777-.018l.296-3.186c-.534-.058-1.031-.018-1.364.007-.381.03-.574.04-.745.021l-.296 3.187zm2.109-.029a.95.95 0 01.198.036l1.012-3.023a4.07 4.07 0 00-.914-.2l-.296 3.187zm.237.05c-.266-.087-.277-.24-.092.053.161.255.315.587.545 1.07.199.418.472.989.821 1.464.338.46.971 1.141 1.978 1.251l.296-3.186c.346.038.433.26.287.06-.135-.183-.285-.472-.502-.93-.187-.392-.442-.952-.737-1.418-.272-.429-.788-1.133-1.662-1.415l-.934 3.05zm3.252 3.838c-.247-.027-.252-.14.053.148.255.242.537.578.9 1.016.329.396.739.896 1.158 1.297.365.35 1.034.927 1.919 1.024l.295-3.186c.265.029.28.155-.028-.14-.254-.243-.536-.58-.901-1.021-.331-.4-.744-.9-1.17-1.304-.376-.356-1.047-.923-1.93-1.02l-.296 3.186z" fill="#F53" mask="url(#c)"/></svg>