<svg width="376" height="280" viewBox="0 0 376 280" fill="none" xmlns="http://www.w3.org/2000/svg"><g clip-path="url(#clip0)"><ellipse cx="113.049" cy="93.602" rx="43.363" ry="43.868" transform="rotate(-7.285 113.049 93.602)" fill="#fff" stroke="#2D2C2C" stroke-linecap="round"/><path d="M100.272 162.094l-7.434 69.909M61.151 126.975l-31.473 24.711m116.35-104.52l16.987-24.74m-72.78 16.827L89.052 30M56.15 73.074l-15.421-2.416m43.245 111.7l-9.293 35.667M55.845 110.1l-24.534 10.032m43.267 18.291l-9.406 20.009M63.538 52.069l-6.443-6.072m72.115-2.324l6.545-17.763m186.458 191.832l37.466 22.167m-49.79-93.938l30.076 8.693m-176.95-93.502l41.25-21.442" stroke="#2D2C2C" stroke-linecap="round"/><path d="M146.838 202.961s-19.004-3.951-24.554-32.832c-5.363-28.976 21.073-50.605 24.554-70.173 3.387-19.568 13.265-18.815 13.265-18.815s13.076-37.819 57.669-26.906c44.592 10.913 49.296 43.651 49.014 62.937-.283 19.286 3.104 49.861 15.899 61.526 12.794 11.76 8.09 33.021 0 47.133 0 0 11.03 15.202-5.339 32.7-16.463 17.593-122.606 13.765-130.508-55.57z" fill="#2D2C2C"/><path d="M117.836 207.674c3.198-7.338 38.289-11.854 38.289-11.854 58.421-2.446 110.258 13.924 119.571 34.432 2.899 6.319 7.414 21.389 11.987 39.676-44.59 8.683-144.342 19.755-186.63-5.424 7.858-28.659 15.338-53.458 16.783-56.83z" fill="#fff"/><path d="M101.053 264.504c7.858-28.659 11.312-47.471 20.865-58.49 12.083-9.951 34.207-10.194 34.207-10.194 58.421-2.446 110.258 13.924 119.571 34.432 2.899 6.319 6.2 15.966 10.774 34.252" stroke="#2D2C2C" stroke-linecap="round"/><path d="M244.676 106.918s-1.882 27.094-4.14 40.171c-2.257 13.076-18.262 26.819-24.941 30.488-6.585 3.668 0 19.421 5.904 24.05-.564 9.032-5.328 40.761-13.325 40.949-7.996.188-45.365-41.279-33.379-46.322 11.986-5.042 8.731-19.908 7.508-28.751 0 0-8.843-9.219-12.136-22.108 0 0-8.347.222-10.041-14.077-1.599-12.983 3.319-13.991 5.577-13.803 2.258.188 2.505 3.324 3.429 6.149 1.694 5.174 3.669-5.739 4.046-14.112l.376-8.373s12.889 3.011 12.042-12.512c-.376-6.773 22.39 19.85 51.648 15.052 4.986-.752 7.432 3.199 7.432 3.199z" fill="#fff"/><path d="M213.355 127.576c.427 2.394 1.362 8.052 2.845 11.735 2.204 5.476-2.987 6.258-6.471 5.476" stroke="#2D2C2C" stroke-width="1.4" stroke-linecap="round"/><path d="M202.154 112.858c-.376 0-.846-.282-.94-.659 0-.094-1.223-3.01-5.833-3.575-5.457-.658-7.62 2.258-7.714 2.352-.377.471-.941.565-1.412.283-.47-.283-.564-.941-.282-1.412.094-.188 2.917-4.045 9.69-3.292 5.833.658 7.432 4.704 7.526 4.892.188.564-.094 1.129-.564 1.317-.282.094-.377.094-.471.094zm-4.473 11.024c0 2.288-1.129 4.085-2.446 4.085-1.411 0-2.446-1.797-2.446-4.085 0-2.287 1.129-4.084 2.446-4.084 1.317 0 2.446 1.797 2.446 4.084zm31.801 3.595c0 2.287-1.129 4.084-2.446 4.084-1.411 0-2.446-1.797-2.446-4.084 0-2.288 1.129-4.085 2.446-4.085 1.317 0 2.446 1.879 2.446 4.085zm7.479-11.42c-.376 0-.752-.283-.94-.659 0-.094-1.223-2.916-5.645-3.387-5.268-.658-7.338 2.164-7.432 2.258-.282.471-.941.565-1.411.282-.471-.282-.565-.94-.282-1.411.094-.188 2.822-3.951 9.313-3.198 5.645.658 7.15 4.515 7.244 4.703.188.565-.094 1.129-.564 1.318 0 .094-.189.094-.283.094zm-22.04 61.789c-8.846 7.336-21.935-1.978-26.97-7.552 12.407 21.361 28.005 16.992 34.253 12.137.404-1.798-.486-5.232-7.283-4.585z" fill="#2D2C2C"/><path d="M197.826 153.932c3.371 3.834 13.247 7.359 19.229 3.62" stroke="#2D2C2C" stroke-width="1.4" stroke-linecap="round"/></g><defs><clipPath id="clip0"><path fill="#fff" transform="translate(-7)" d="M0 0h390v280H0z"/></clipPath></defs></svg>