<svg width="391" height="280" viewBox="0 0 391 280" fill="none" xmlns="http://www.w3.org/2000/svg"><path d="M108.944 71.628c-2.265 39.583-14.014 141.418-14.014 141.418h31.57" stroke="#2D2C2C" stroke-linecap="round"/><path d="M108.938 71.629C106.673 111.21 75.472 197.32 75.472 197.32s15.091 3.919 20.47 3.919" stroke="#2D2C2C" stroke-linecap="round"/><path d="M108.926 71.628c-2.265 39.583-39.997 98.036-39.997 98.036s7.25 8.275 12.63 8.275" stroke="#2D2C2C" stroke-linecap="round"/><path d="M109.643 71.628h192.826c0 73.408 12.728 133.501 19.092 154.372H130.644c-16.037-39.726-22.91-119.827-21.001-154.372z" fill="#2D2C2C" stroke="#2D2C2C" stroke-linecap="round"/><path d="M279.408 86.563c7.405 0 13.408-7.29 13.408-16.282S286.813 54 279.408 54c-5.437 0-10.118 3.93-12.222 9.577m-12.678 22.986c7.405 0 13.408-7.29 13.408-16.282S261.913 54 254.508 54c-5.437 0-10.118 3.93-12.223 9.577m-12.678 22.986c7.406 0 13.409-7.29 13.409-16.282S237.013 54 229.607 54c-5.437 0-10.118 3.93-12.222 9.577m-12.672 22.986c7.405 0 13.408-7.29 13.408-16.282S212.118 54 204.713 54c-5.437 0-10.118 3.93-12.223 9.577m-12.68 22.986c7.406 0 13.409-7.29 13.409-16.282S187.216 54 179.81 54c-5.437 0-10.118 3.93-12.222 9.577M154.9 86.563c7.405 0 13.409-7.29 13.409-16.282S162.305 54 154.9 54c-5.437 0-10.118 3.93-12.222 9.577m-12.672 22.986c7.405 0 13.408-7.29 13.408-16.282S137.411 54 130.006 54c-5.437 0-10.346 3.93-12.451 9.577-.493 1.387-1.463 4.774-1.397 7.229" stroke="#2D2C2C" stroke-linecap="round"/><path d="M188.879 128.583l-1.887-19.955a3 3 0 00-2.987-2.718h-17.421a3 3 0 00-2.982 3.329l2.201 19.955a3 3 0 002.982 2.671h17.107a3 3 0 002.987-3.282zm64.889 0l-1.887-19.955a3 3 0 00-2.987-2.718h-17.422a3 3 0 00-2.982 3.329l2.202 19.955a3 3 0 002.982 2.671h17.107a3 3 0 002.987-3.282z" fill="#959595" stroke="#2D2C2C" stroke-linecap="round"/><path d="M286.194 128.569l-1.981-19.955a3 3 0 00-2.985-2.704h-18.592a3 3 0 00-2.98 3.345l2.312 19.955a2.999 2.999 0 002.98 2.655h18.261a3 3 0 002.985-3.296zm-129.775 0l-1.982-19.955a3 3 0 00-2.985-2.704h-18.591a3 3 0 00-2.98 3.345l2.311 19.955a3 3 0 002.98 2.655h18.261a3 3 0 002.986-3.296z" fill="#fff" stroke="#2D2C2C" stroke-linecap="round"/><path d="M172.866 202.226l-4.149-19.955a3 3 0 00-2.938-2.389h-19.557a3 3 0 00-2.927 3.659l4.495 19.955a2.999 2.999 0 002.926 2.341h19.213a3 3 0 002.937-3.611z" fill="#959595" stroke="#2D2C2C" stroke-linecap="round"/><path d="M206.645 202.25l-3.977-19.955a3 3 0 00-2.942-2.413h-18.498a3 3 0 00-2.933 3.633l4.307 19.955a3 3 0 002.933 2.367h18.168a3 3 0 002.942-3.587z" fill="#fff" stroke="#2D2C2C" stroke-linecap="round"/><path d="M240.349 202.226l-4.15-19.955a3 3 0 00-2.937-2.389h-19.558a3 3 0 00-2.926 3.659l4.494 19.955a3 3 0 002.927 2.341h19.213a3 3 0 002.937-3.611z" fill="#959595" stroke="#2D2C2C" stroke-linecap="round"/><path d="M271.531 202.25l-3.976-19.955a3 3 0 00-2.943-2.413h-18.498a3 3 0 00-2.932 3.633l4.307 19.955a3 3 0 002.932 2.367h18.168a3 3 0 002.942-3.587z" fill="#fff" stroke="#2D2C2C" stroke-linecap="round"/><path d="M303.939 202.226l-4.15-19.955a3 3 0 00-2.937-2.389h-19.558a3 3 0 00-2.926 3.659l4.494 19.955a3 3 0 002.926 2.341h19.213a3 3 0 002.938-3.611z" fill="#959595" stroke="#2D2C2C" stroke-linecap="round"/><path d="M222.587 128.555l-2.075-19.955a3 3 0 00-2.984-2.69h-19.761a3 3 0 00-2.978 3.362l2.422 19.955a2.999 2.999 0 002.978 2.638h19.414a3 3 0 002.984-3.31z" fill="#fff" stroke="#2D2C2C" stroke-linecap="round"/><path d="M196.244 163.289l-3.142-18.162c-.263-1.522-1.627-2.676-3.16-2.676h-18.59c-1.804 0-3.095 1.576-2.754 3.362l3.464 18.162c.286 1.499 1.638 2.624 3.151 2.624h18.267c1.783 0 3.07-1.541 2.764-3.31zm65.035 0l-3.142-18.162c-.263-1.522-1.626-2.676-3.16-2.676h-18.59c-1.804 0-3.095 1.576-2.754 3.362l3.465 18.162c.286 1.499 1.637 2.624 3.151 2.624h18.266c1.783 0 3.07-1.541 2.764-3.31z" fill="#959595" stroke="#2D2C2C" stroke-linecap="round"/><path d="M293.134 163.289l-3.141-18.162c-.264-1.522-1.627-2.676-3.161-2.676h-18.589c-1.804 0-3.096 1.576-2.755 3.362l3.465 18.162c.286 1.499 1.637 2.624 3.151 2.624h18.267c1.782 0 3.069-1.541 2.763-3.31zm-129.111.372l-3.142-18.162c-.263-1.522-1.626-2.677-3.16-2.677h-18.59c-1.803 0-3.095 1.577-2.754 3.363l3.465 18.162c.286 1.499 1.637 2.624 3.151 2.624h18.266c1.783 0 3.07-1.542 2.764-3.31zm65.033 0l-3.142-18.162c-.263-1.522-1.626-2.677-3.16-2.677h-18.59c-1.803 0-3.095 1.577-2.754 3.363l3.465 18.162c.286 1.499 1.637 2.624 3.151 2.624h18.267c1.782 0 3.069-1.542 2.763-3.31z" fill="#fff" stroke="#2D2C2C" stroke-linecap="round"/><path d="M195.614 162.743l-.61-1.42-2.819-1.8-.539.301c.098-1.135-1.251-.779-1.419-1.741l-.291.364c-.159-.12.007-.328.043-.426-1.05-.711-2.319-1.254-3.28-2.023.079-.525.121-.951.295-1.487.951.302.275-.876.907-.815l-.176-.259c.644.154.268-.548.948-.492-.071-.178-.077-.224-.082-.27 0 0-.101-.035-.307-.149.195.022.16-.254.532.027l.006.046c.371.281.001-.374.408-.191l-.419-.276.178-.115.059.086c-.403-1.306 1.126-.608.781-1.828.389.419-.135-.311.343.051.708.285.096-.387.02-.611 0 0-.053-.04-.059-.086l.219-.168c.507.592-.353-.517.048-.006.887-.204 1.039-1.299 1.75-1.762l-.154-.074c.173-.162.132-.484.475-.434.343.051-.169-.587-.175-.633-.141-.356.473-.059.384-.001.025-.19-.381-.747-.003-.795.567.304-.068-.927.516-.485l-.053-.04c.633.061.103-.715.73-.699 0 0 .053.04.059.086l-1.3-1.943-2.083-1.283-1.96-.691-.715 1.586-1.463.603-1.866 2.759.306.523c-1.165-.088-.809 1.224-1.797 1.394l.372.281c-.125.156-.337-.005-.438-.039-.778 1.079-1.338 2.365-2.175 3.359-1.08-.567-2.119-1.186-2.825-2.22-.291-1.18-1.805-.991-2.286-2.147.132-.485-1.827-1.55-2.105-1.468l-.168.582c-.803-.274-.747-.983-1.616-1.014l.089-.058c-.023-.185-.861.809-.759-1.075l.041-.052c-.047.006-.089.058-.059-.086l-.048.38c-.189.024-.456.197-.562.117-.006-.046.077-.15.113-.248l-.354-.143.149-.346c-.231.076-.677.739-.646.221-.285.41-.372.093-.486.341a1 1 0 00.114-.248c-.201-.068-.597-.159-.816.009 0 0-.123 1.325-.344 1.867-.129-.265-.095.011-.166.208l.083-.104c.023.184-.185.444-.168.582l.042-.052c.041-.052.036-.098.083-.104.042-.052.083-.104.089-.058l-.047.006c.094-.012.159.12.165.166l-.161.254c.439-.335.091 1.112.203 1.238-.096.386.354.143.388.419.177.259-.137.438-.15.721.034.276.155-.3.255-.266l-.043.426c-.153-.074-.178.116-.213.214.117.172.044.743.477.361.046.369-.073.571-.014.657-.017-.138-.034-.276.049-.38-.066.242.094-.012.083-.104.278-.082.019 1.307.446.88l-.083.103c.344-.323.535-.721.807-.849l-.072.196.231-.075c-.03.144-.16.254-.155.3.284-.036.325.287.495.499l.578-1.148c-.007.329-.116.997.186.726l-.19.398c-.181.864.42-.1.407.183l-.132.484-.159-.121a6.267 6.267 0 01-.091.807s-.006-.046.041-.052l.047-.006c.173-.162.356-.231.462-.151.118.172.432-.007.406.557l.344-.323-.054.334-.25.312c-.165-.167-.613-.298-.826-.459l-.124.156c.159.121.395.091.454.177.012.093-.132.485-.357.606l.309-.225c.471.315.519.309.7.988l.071-.196c.142-.018.331-.041.171.213.271.247.423.695.291 1.179l.297-.317c.059.086-.304.646.123.218l.237-.029c.059.086.278-.082.218.206l.006.046.041-.051c.088.316.25-.312.296.056-.108.294.433-.381.45-.243l-.31.6c-.042.426.379-.047.692.147-.013.283-.293.739-.684 1.068.486-.341.302-.272.628-.359-.119.202-.161.254-.338.37-.055.334.225-.122.337.004.296-.317.807-.849.854-.855l.03-.144c.136-.064.231-.075.284-.035-.844 1.321-1.44 2.705-2.815 3.625-1.213.292-1.029 1.766-2.22 2.242-.496-.125-1.602 1.79-1.52 2.061l.596.159c-.286.784-1.013.735-1.052 1.582l-.059-.087c-.189.024.825.833-1.108.747l-.053-.04c.006.046.059.086-.089.057l.39.045c.023.185.2.443.116.547-.047.006-.153-.074-.253-.109l-.149.346-.302-.102c.076.224.755.654.223.627.507.217.182.304.394.465-.053-.04-.153-.074-.254-.109-.077.15-.173.537-.002.749 0 0 1.359.111 1.914.323-.272.127.012.092.165.166l-.106-.08c.189-.024.455.177.597.159l-.053-.04.053.04c-.053-.04-.101-.034-.107-.08-.053-.04-.106-.08-.058-.086l.005.046c-.011-.092.125-.156.172-.162l.213.161c-.342-.426 1.141-.096 1.272-.206.395.091.149-.346.433-.381.266-.174.448.131.738.141.284-.035-.307-.149-.271-.247l.437.039c-.077.15.118.173.218.207.178-.116.763-.048.375-.468.378-.047.585.068.673.01-.1-.034-.242-.017-.301-.103.248.063-.011-.092-.106-.08-.082-.271 1.342-.027.906-.441l.106.081c-.377-.328-.784-.511-.913-.775l.201.068-.076-.224c.147.028.259.155.306.149-.034-.277.297-.318.517-.486l-1.175-.555c.337.005 1.022.107.746-.186l.407.183c.886.17-.099-.409.19-.398l.497.125-.125.156c.29.01.485.033.827.084 0 0-.047.006-.053-.04l-.005-.047c-.165-.166-.236-.344-.153-.448.178-.116-.004-.421.575-.399l-.33-.333.385-.002.318.241c-.172.162-.309.6-.476.808l.16.12c.124-.155.095-.386.184-.444.095-.011.497.126.62.344l-.271-.247c.327-.461.321-.508 1.019-.688l-.201-.069c-.017-.138-.04-.322.22-.167.255-.266.717-.417 1.213-.292l-.324-.287c.089-.058.661.292.225-.122l-.029-.23c.089-.058-.082-.271.214-.214l.047-.006-.053-.04c.325-.087-.318-.241.06-.288.301.103-.389-.419-.247-.437l.614.298c.438.039-.046-.369.156-.675.29.011.756.28 1.092.659-.347-.471-.277-.293-.365-.609.207.114.26.155.378.327.342.051-.124-.219.007-.328-.325-.287-.867-.781-.872-.827l-.148-.028c-.076-.225-.099-.409.137-.438-.131.484.264.575.429.741.638.108 1.076.147 1.625.312-.317.928.898.262.831.879l.308-.226c-.162.628.561.257.499.92.184-.07.231-.076.278-.082 0 0 .036-.098.155-.3-.024.191.26.155-.031.519l-.048.006c-.243.358.438.039.241.391l.286-.41.117.172-.089.058c1.344-.401.617 1.093 1.872.749-.433.381.32-.134-.054.334-.299.692.395.091.626.015 0 0 .042-.052.089-.057l.171.212c-.611.497.533-.347.006.046.203.863 1.326 1.004 1.797 1.694l.077-.15c.165.166.496.125.442.459-.054.334.604-.169.651-.175.367-.139.057.461-.001.375.195.022.77-.377.815-.009-.315.554.953-.072.495.5l.042-.052c-.067.616.733.095.713.706 0 0-.042.052-.089.058l1.956-1.273 1.337-1.991.722-1.915-1.582-.738zm59.551-36.986l-.61-1.42-2.82-1.8-.539.301c.099-1.135-1.25-.779-1.418-1.741l-.291.364c-.159-.12.007-.328.043-.426-1.05-.711-2.319-1.254-3.28-2.023.078-.524.121-.951.295-1.487.95.302.275-.876.907-.815l-.176-.258c.643.153.268-.548.947-.493-.07-.178-.076-.224-.081-.27 0 0-.101-.035-.307-.149.195.022.16-.254.532.027l.005.046c.372.281.002-.374.409-.191l-.419-.275.178-.116.059.086c-.404-1.306 1.125-.608.781-1.828.389.419-.135-.311.343.051.708.286.096-.386.019-.611 0 0-.053-.04-.058-.086l.219-.168c.506.592-.353-.517.047-.006.888-.204 1.04-1.299 1.751-1.762l-.154-.074c.172-.162.132-.484.475-.433.343.05-.17-.587-.175-.633-.141-.357.473-.06.384-.002.024-.19-.382-.747-.003-.794.566.303-.068-.928.516-.486l-.053-.04c.632.061.103-.714.73-.699 0 0 .053.04.058.086l-1.299-1.943-2.083-1.283-1.96-.691-.715 1.586-1.463.604-1.866 2.758.305.523c-1.164-.088-.808 1.224-1.796 1.394l.372.281c-.125.156-.337-.005-.438-.039-.778 1.08-1.338 2.366-2.176 3.359-1.08-.567-2.118-1.186-2.824-2.22-.291-1.18-1.805-.991-2.286-2.147.132-.484-1.827-1.55-2.106-1.468l-.167.582c-.803-.274-.748-.982-1.617-1.014l.089-.058c-.023-.184-.86.809-.759-1.075l.042-.052c-.047.006-.089.058-.059-.086l-.048.38c-.19.024-.456.197-.563.117-.005-.046.078-.15.114-.248l-.355-.143.15-.346c-.231.076-.677.74-.646.221-.285.41-.373.093-.486.341a.967.967 0 00.113-.248c-.2-.068-.596-.159-.815.009 0 0-.123 1.325-.344 1.867-.129-.265-.095.012-.166.208l.083-.104c.023.184-.185.444-.168.582l.042-.052c.041-.052.036-.098.083-.104.041-.052.083-.104.089-.058l-.048.006c.095-.012.16.121.165.167l-.16.254c.439-.336.09 1.111.202 1.237-.096.386.355.143.389.419.177.259-.137.439-.15.721.034.276.154-.3.255-.266l-.043.426c-.153-.074-.178.116-.214.214.118.173.045.743.478.362.046.368-.073.57-.014.656-.017-.138-.035-.276.048-.38-.065.242.095-.012.084-.104.278-.082.019 1.307.446.88l-.083.104c.344-.324.534-.722.807-.849l-.072.196.231-.076c-.03.144-.161.254-.155.3.284-.035.324.287.495.499l.578-1.147c-.007.328-.116.996.186.725l-.19.398c-.181.864.42-.1.407.183l-.132.484-.159-.121a6.107 6.107 0 01-.092.807s-.005-.046.042-.052l.047-.006c.172-.162.356-.231.462-.151.118.172.432-.007.406.557l.344-.323-.054.334-.25.312c-.165-.167-.614-.298-.826-.458l-.125.156c.16.12.396.09.455.177.011.092-.132.484-.357.605l.308-.225c.472.315.52.309.7.988l.072-.196c.142-.017.331-.041.171.213.271.247.423.695.291 1.18l.297-.318c.059.086-.304.646.123.218l.237-.029c.059.086.278-.082.218.207l.006.046.041-.052c.088.316.25-.312.296.056-.108.294.433-.381.45-.243l-.31.6c-.043.426.379-.047.691.148-.012.282-.292.738-.683 1.067.486-.341.302-.271.628-.359-.119.202-.161.254-.339.37-.054.334.226-.122.337.005.297-.318.807-.85.855-.855l.03-.145c.136-.063.231-.075.284-.035-.844 1.322-1.441 2.706-2.816 3.626-1.213.291-1.029 1.765-2.219 2.241-.496-.125-1.602 1.791-1.521 2.061l.597.159c-.287.785-1.014.735-1.052 1.582l-.059-.087c-.189.024.825.833-1.108.747l-.053-.04c.005.046.059.086-.089.058l.39.044c.023.185.199.443.116.547-.047.006-.153-.074-.254-.108l-.149.346-.301-.103c.076.224.755.654.223.627.507.217.182.305.394.465a1.036 1.036 0 00-.254-.108c-.077.15-.173.536-.002.748 0 0 1.359.111 1.914.323-.272.127.011.092.165.166l-.106-.08c.189-.024.454.177.596.159l-.053-.04.053.04c-.053-.04-.1-.034-.106-.08-.053-.04-.106-.08-.059-.086l.006.046c-.011-.092.125-.156.172-.162l.212.161c-.341-.425 1.142-.096 1.272-.206.396.091.149-.346.433-.381.267-.174.449.131.739.141.284-.035-.307-.148-.271-.246l.437.039c-.077.15.118.172.218.206.178-.116.763-.048.374-.467.379-.048.585.067.674.009-.1-.034-.242-.017-.301-.103.248.063-.011-.092-.106-.08-.082-.271 1.342-.027.906-.441l.106.081c-.377-.327-.784-.51-.913-.775l.2.069-.076-.225c.148.028.26.155.307.149-.034-.276.297-.318.516-.485l-1.174-.555c.337.004 1.022.106.745-.187l.408.183c.886.17-.099-.409.19-.398l.496.125-.124.156c.289.011.484.033.827.084 0 0-.047.006-.053-.04l-.006-.046c-.165-.167-.235-.345-.152-.449.178-.116-.004-.421.575-.399l-.33-.333.385-.002.318.241c-.172.162-.31.6-.476.808l.159.121c.125-.156.096-.387.185-.444.095-.012.496.125.62.343l-.271-.247c.326-.461.321-.507 1.019-.688l-.201-.069c-.017-.138-.04-.322.22-.167.255-.266.716-.417 1.213-.292l-.324-.287c.088-.058.661.292.225-.122l-.029-.23c.089-.058-.082-.27.213-.214l.048-.006-.053-.04c.325-.087-.319-.241.06-.288.301.103-.389-.419-.247-.437l.614.298c.437.039-.046-.369.156-.675.29.011.756.28 1.091.659-.347-.471-.276-.293-.364-.609.207.115.26.155.377.327.343.051-.123-.218.007-.328-.324-.287-.866-.781-.872-.827l-.147-.028c-.076-.225-.099-.409.137-.438-.132.484.264.575.429.741.638.108 1.076.147 1.625.312-.317.928.898.262.83.879l.309-.226c-.162.628.56.258.499.92.183-.07.231-.076.278-.081 0 0 .036-.098.155-.3-.024.19.259.154-.032.518l-.047.006c-.244.358.438.039.241.391l.285-.41.118.172-.089.058c1.344-.401.617 1.093 1.872.749-.433.381.319-.133-.055.334-.298.692.396.091.627.016 0 0 .042-.052.089-.058l.171.212c-.611.497.533-.347.005.046.204.864 1.327 1.004 1.798 1.694l.077-.15c.165.166.496.125.442.459-.055.334.603-.169.651-.175.367-.139.057.461-.002.375.195.022.77-.377.816-.009-.315.554.952-.072.495.5l.042-.052c-.068.616.732.096.713.706 0 0-.042.052-.089.058l1.955-1.273 1.338-1.991.722-1.915-1.582-.738zm-15.035 73.972l-.61-1.421-2.82-1.799-.539.301c.099-1.135-1.25-.78-1.418-1.741l-.291.364c-.16-.121.007-.328.042-.426-1.049-.711-2.319-1.255-3.28-2.023.079-.525.122-.951.295-1.487.951.302.275-.876.908-.815l-.177-.259c.644.154.268-.548.948-.492-.07-.178-.076-.225-.082-.271 0 0-.1-.034-.307-.148.195.022.161-.254.532.027l.006.046c.372.281.002-.375.409-.192l-.419-.275.178-.115.059.086c-.404-1.306 1.125-.608.781-1.828.388.419-.135-.311.342.05.709.286.096-.386.02-.61 0 0-.053-.04-.059-.086l.22-.168c.506.592-.353-.517.047-.006.888-.204 1.039-1.299 1.751-1.762l-.154-.074c.172-.162.132-.485.475-.434.342.051-.17-.587-.175-.633-.141-.356.473-.059.384-.001.024-.19-.382-.748-.003-.795.566.304-.068-.927.516-.485l-.053-.04c.632.061.103-.715.729-.699 0 0 .054.04.059.086l-1.299-1.943-2.083-1.284-1.96-.69-.715 1.586-1.463.603-1.866 2.759.305.523c-1.164-.088-.808 1.224-1.796 1.394l.371.281c-.124.156-.337-.005-.437-.039-.778 1.079-1.339 2.365-2.176 3.358-1.08-.566-2.118-1.185-2.824-2.22-.291-1.179-1.806-.99-2.286-2.147.132-.484-1.828-1.549-2.106-1.467l-.167.582c-.803-.274-.748-.983-1.617-1.015l.089-.058c-.023-.184-.86.809-.759-1.074l.042-.052c-.047.006-.089.058-.059-.086l-.049.38c-.189.024-.456.197-.562.117-.005-.046.078-.15.114-.248l-.355-.143.149-.346c-.231.076-.676.739-.645.221-.285.41-.373.093-.486.341.042-.052.077-.15.113-.248-.2-.068-.596-.159-.816.008 0 0-.123 1.325-.343 1.867-.129-.264-.095.012-.167.208l.084-.104c.023.185-.185.444-.168.583l.042-.052c.041-.052.035-.098.083-.104.041-.052.083-.104.089-.058l-.048.006c.095-.012.159.12.165.166l-.16.254c.438-.335.09 1.111.202 1.238-.096.386.354.143.389.419.176.259-.138.438-.15.72.034.277.154-.3.255-.265l-.043.426c-.154-.074-.178.116-.214.214.118.172.045.743.478.361.046.369-.073.571-.014.657-.018-.138-.035-.277.048-.38-.066.242.095-.012.083-.104.279-.082.019 1.307.447.879l-.083.104c.344-.323.534-.721.807-.849l-.072.196.231-.075c-.03.144-.161.254-.155.3.284-.036.324.287.495.499l.577-1.148c-.007.329-.115.997.187.725l-.191.398c-.18.865.421-.099.408.183l-.132.485-.159-.121a6.126 6.126 0 01-.092.807s-.006-.046.042-.052l.047-.006c.172-.162.356-.232.462-.151.117.172.431-.007.406.557l.344-.324-.055.335-.249.311c-.165-.166-.614-.297-.826-.458l-.125.156c.159.121.396.091.455.177.011.092-.132.485-.357.606l.308-.225c.472.315.519.309.7.988l.072-.196c.142-.018.331-.041.171.213.271.246.423.695.291 1.179l.297-.317c.059.086-.304.646.123.218l.237-.029c.059.086.278-.082.218.206l.005.046.042-.052c.088.317.249-.311.295.057-.107.294.433-.381.451-.243l-.31.6c-.043.426.379-.048.691.147-.013.283-.292.738-.683 1.068.486-.341.302-.272.628-.359-.119.202-.161.254-.339.37-.054.334.225-.122.337.004.297-.317.807-.849.855-.855l.03-.144c.136-.064.231-.075.284-.035-.845 1.321-1.441 2.705-2.816 3.625-1.213.292-1.029 1.766-2.219 2.242-.496-.125-1.603 1.79-1.521 2.061l.597.159c-.287.784-1.014.735-1.052 1.581l-.059-.086c-.189.024.825.833-1.108.747l-.053-.041c.005.046.058.087-.089.058l.39.045c.023.184.199.443.116.547-.047.006-.153-.074-.254-.109l-.149.346-.301-.102c.076.224.754.654.222.627.508.217.183.304.395.465-.053-.04-.154-.074-.254-.109-.077.15-.173.536-.003.749 0 0 1.36.111 1.915.322-.273.128.011.092.165.167l-.106-.08c.189-.024.454.177.596.159l-.053-.04.053.04c-.053-.04-.1-.034-.106-.08-.053-.04-.106-.081-.059-.087l.006.047c-.011-.093.125-.156.172-.162l.212.16c-.341-.425 1.142-.095 1.272-.205.396.091.149-.346.433-.382.267-.173.449.131.739.142.284-.035-.307-.149-.271-.247l.437.039c-.077.15.118.173.218.207.178-.116.763-.049.374-.468.379-.047.585.068.674.01-.1-.035-.242-.017-.301-.103.248.062-.012-.092-.106-.08-.082-.271 1.342-.028.906-.441l.106.08c-.377-.327-.784-.51-.914-.774l.201.068-.076-.224c.148.028.26.155.307.149-.034-.277.297-.318.516-.486l-1.174-.555c.337.005 1.022.106.745-.186l.408.183c.886.17-.1-.409.19-.398l.496.125-.124.156c.289.01.484.033.827.084 0 0-.047.005-.053-.041l-.006-.046c-.165-.166-.235-.345-.152-.448.178-.116-.004-.421.575-.4l-.33-.333.384-.001.319.241c-.172.162-.31.6-.476.808l.159.12c.125-.156.096-.386.185-.444.095-.012.496.125.62.344l-.272-.247c.327-.462.322-.508 1.02-.688l-.201-.069c-.017-.138-.04-.322.219-.168.256-.265.717-.417 1.214-.291l-.325-.287c.089-.058.661.291.225-.122l-.028-.23c.089-.058-.082-.271.213-.214l.048-.006-.053-.04c.325-.087-.319-.241.06-.288.301.103-.389-.419-.247-.437l.614.297c.437.039-.046-.368.156-.674.29.011.756.28 1.091.659-.347-.471-.277-.293-.364-.609.206.114.26.154.377.327.343.051-.123-.219.007-.329-.324-.286-.866-.78-.872-.826l-.148-.028c-.076-.225-.099-.409.138-.439-.132.485.264.575.429.742.638.107 1.075.146 1.625.312-.317.928.897.262.83.878l.308-.225c-.161.628.561.257.5.92.183-.07.231-.076.278-.082 0 0 .036-.098.155-.3-.025.19.259.155-.032.519l-.047.006c-.244.357.437.039.241.391l.285-.41.118.172-.089.058c1.344-.402.617 1.092 1.872.749-.433.381.319-.134-.055.334-.298.692.396.091.627.015 0 0 .041-.052.089-.058l.17.213c-.61.497.534-.347.006.046.204.863 1.327 1.004 1.797 1.693l.078-.15c.165.167.496.126.442.46-.055.334.603-.169.651-.175.367-.139.057.461-.002.374.195.023.77-.376.816-.008-.315.554.952-.072.495.5l.042-.052c-.068.616.732.095.712.706 0 0-.041.052-.088.058l1.955-1.273 1.337-1.991.723-1.915-1.582-.738z" fill="#F53"/><mask id="a" maskUnits="userSpaceOnUse" x="109" y="69" width="196" height="27"><path transform="matrix(-1 0 0 1 304.178 69.791)" fill="#C4C4C4" d="M0 0h194.844v25.418H0z"/></mask><g mask="url(#a)" stroke="#fff" stroke-linecap="round"><path d="M279.43 86.563c7.405 0 13.408-7.29 13.408-16.282S286.835 54 279.43 54c-5.437 0-10.119 3.93-12.223 9.577m-12.688 22.986c7.406 0 13.409-7.29 13.409-16.282S261.925 54 254.519 54c-5.437 0-10.118 3.93-12.222 9.577m-12.662 22.986c7.405 0 13.408-7.29 13.408-16.282S237.04 54 229.635 54c-5.437 0-10.118 3.93-12.223 9.577m-12.689 22.986c7.405 0 13.408-7.29 13.408-16.282S212.128 54 204.723 54c-5.437 0-10.119 3.93-12.223 9.577m-12.678 22.986c7.405 0 13.408-7.29 13.408-16.282S187.227 54 179.822 54c-5.437 0-10.118 3.93-12.222 9.577m-12.678 22.986c7.405 0 13.408-7.29 13.408-16.282S162.327 54 154.922 54c-5.437 0-10.118 3.93-12.223 9.577m-12.678 22.986c7.406 0 13.409-7.29 13.409-16.282S137.427 54 130.021 54c-5.437 0-10.346 3.93-12.45 9.577-.493 1.387-1.464 4.774-1.397 7.229"/></g></svg>