<svg width="390" height="280" viewBox="0 0 390 280" fill="none" xmlns="http://www.w3.org/2000/svg"><path d="M271.99 188.608c-18.629-9.053-22.851-16.103-24.182-19.856l-88.134-2.099c-4.754 4.692-18.711 15.65-36.51 21.955-22.248 7.882-33.55 37.196-31.838 68.722H299.28c0-43.24-5.955-58.352-27.291-68.722z" fill="#fff"/><path d="M159.608 166.653c-4.754 4.692-18.711 15.65-36.51 21.955-31.837 9.53-33.55 38.036-31.838 69.561m156.549-89.417c1.331 3.753 5.553 10.803 24.182 19.857 21.336 10.369 27.291 25.482 27.291 68.721" stroke="#2D2C2C" stroke-width="2"/><path d="M196.121 196.06c-14.832 0-19.586-14.449-24.53-19.703l-17.685-34.903 13.121-42.785 37.651-16.888c14.072 15.2 42.329 47.513 42.785 55.169.571 9.57-15.973 30.399-22.819 39.407-6.845 9.007-9.698 19.703-28.523 19.703z" fill="#fff" stroke="#2D2C2C" stroke-width="2"/><path d="M90.409 248.514c-6.807-74.304 50.622-70.448 47.077-108.028-5.219-55.324 22.122-85.727 52.928-78.971 8.557-8.445 35.8-9 53.81 11.22 18.048 20.263 23.703 36.905 19.309 80.983-3.969 39.825 44.08 22.955 36.473 100.567 0-18.471-1.148-54.888-23.269-63.283-35.734-14.693-32.99-35.775-34.411-41.104-2.744-10.29-59.338-18.496-58.048-45.668-2.647 16.261-12.182 24.519-21.817 28.216-.799 9.194 0 35.467-21.428 48.414-27.651 14.759-49.347 7.623-50.624 67.654z" fill="#2D2C2C"/><path d="M234.11 104.382c-1.602 2.046-.762 4.923.465 8.065-5.992-4.603-10.665-7.425-13.417-5.668-1.653 1.056-1.947 2.318-1.338 3.666-3.964-1.634-5.579 1.583.777 7.372.163.147.323.296.481.445-1.637.662-3.022 2.891-1.286 7.693 3.676 10.172 9.653 21.572 5.631 27.564-2.816 4.195-5.926 11.232-5.631 17.816.161 3.598 2.412 7.076 2.253 13.183-.397 15.254-3.836 37.488-4.506 49.898l25.341-.599c-1.017-13.45-1.592-35.61 1.127-50.497.794-4.349 2.72-8.077 3.942-10.787 12.953-25.167 11.826-34.156 10.7-37.152-1.126-2.996-14.079-22.172-15.205-24.569-1.126-2.396-6.518-10.025-9.334-6.43z" fill="#fff"/><path d="M236.687 114.487c-2.575-4.563-6.517-6.766-4.265-9.642 2.816-3.596 9.896 3.856 11.022 6.253 1.127 2.397 14.079 21.572 15.205 24.569 1.126 2.996 2.253 11.984-10.7 37.152-1.222 2.709-3.148 6.438-3.942 10.786-2.719 14.888 1.235 60.936 2.252 74.386m-28.156.599c.67-12.41 3.545-58.533 3.942-73.786.159-6.107-2.092-9.586-2.253-13.183-.295-6.585 2.815-13.621 5.631-17.816 4.023-5.992-1.955-17.393-5.631-27.565-2.816-7.79.893-7.626 2.253-6.171m16.894 30.141c-.376-2.397-.789-8.791-3.942-12.147-5.068-7.79-7.97-13.588-14.078-19.15-6.757-6.154-4.505-11.386 0-8.989m32.098 31.896c-1.502-3.595-5.181-11.625-7.884-14.981-3.379-4.194-3.942-8.988-10.136-13.782-6.195-4.794-10.136-9.125-12.952-7.327-2.815 1.798-1.689 4.194 1.127 6.591 2.815 2.397 9.572 6.728 11.825 10.923 2.252 4.195 6.757 11.985 9.01 14.382 1.802 1.917 2.252 6.391 2.252 8.389" stroke="#2D2C2C" stroke-width="2" stroke-linecap="round"/><path d="M150.643 111.683c3.651-3.152 8.176-2.575 9.698-1.824.886-.793 1.508-1.352 1.711-1.553 1.141-1.126 3.993-3.378 5.705-2.252 1.22.803.266 3.928-.36 5.529.461.129.786.516.93 1.226.457 2.252-.951 5.709-1.711 7.155 1.057-.607 1.802-.547 2.282.164 1.141 1.689-3.423 8.444-6.846 17.451s2.852 20.829 6.275 26.459c2.739 4.504 0 22.893-1.711 31.525l-3.993 57.421-29.094-2.815c4.183-15.387 12.778-48.188 13.691-56.295 1.141-10.133-4.565-22.819-9.699-31.826-5.134-9.007-6.274-13.773-5.704-17.713.571-3.941 9.698-23.644 10.839-24.77 1.141-1.126 3.423-3.941 7.987-7.882z" fill="#fff"/><path d="M159.772 109.995c-1.521-.751-5.476-1.464-9.127 1.688-4.564 3.941-6.846 6.756-7.987 7.882-1.141 1.126-10.268 20.829-10.839 24.77-.57 3.94.572 10.293 5.706 19.301 5.134 9.007 10.838 20.105 9.697 30.238-.913 8.107-11.22 51.739-15.403 67.126m29.094 0l5.705-65.437c1.711-8.632 3.879-23.388 1.141-27.891-3.423-5.63-9.128-21.086-5.705-30.093 3.423-9.007 7.987-15.762 6.846-17.451-.48-.711-1.225-.771-2.282-.164m-15.973 27.185c1.14-2.814 5.134-15.199 9.698-20.829 2.769-3.416 4.819-5.519 6.275-6.356m-29.094 23.245c.57-1.126 7.987-18.015 8.557-19.704.57-1.688 14.832-14.073 15.973-15.199 1.141-1.126 3.993-3.378 5.705-2.252 1.369.901.57 3.753 0 5.067m-23.389 32.088c1.141-1.689 6.845-14.637 6.845-15.763 0-1.126 6.275-8.444 9.698-11.822 3.423-3.378 6.846-5.629 7.416-2.815.457 2.252-.951 5.709-1.711 7.155" stroke="#2D2C2C" stroke-width="2" stroke-linecap="round"/><path d="M204.093 138.538c-15.399-9.571-26.281-23.601-20.53-35.365 2.092-.375 4.266-.728 2.853 3.941-2.853 9.432 5.901 24.105 17.677 31.424z" fill="#2D2C2C"/><path d="M133.603 40.606c18.969-6.888 39.504-14.398 59.825-12.62 1.294.113 6.771.162 6.662 2.952-.169 4.338-8.605 7.631-11.319 9.041-19.247 10.002-40.23 15.414-61.15 19.448-1.062.205-9.996 2.954-11.421 1.476-.85-.88 18.166-9.276 18.321-9.336 21.344-8.363 42.894-13.986 65.705-13.986 1.821 0 10.588-.818 11.489 2.656 1.106 4.26-9.255 8.588-11.319 9.632-16.129 8.163-34.252 12.137-51.633 15.684-6.02 1.228-12.18 2.154-18.083 3.985-3.592 1.115 9.523-.356 9.959-.406 14.426-1.648 29.151-3.306 43.679-2.546 1.091.057 6.266.25 3.094 2.436-6.533 4.5 37.6-6.647 30.354-3.943-2.091.78-8.262 2.917-6.051 2.953 4.499.071-25.071 7.702-20.625 7.063 6.06-.87-4.302 9.968-3.678 13.185" stroke="#F53" stroke-width="3" stroke-linecap="round" stroke-linejoin="round"/><path d="M135.151 36.53c19.963-8.678 41.126-13.487 62.529-15.483 19.337-1.803 39.819-1.633 58.788 3.363 5.742 1.512 11.325 4.841 3.74 9.164-6.584 3.752-14.162 5.95-21.319 7.834-24.072 6.335-48.549 11.233-73.001 15.482-8.339 1.45-16.722 2.595-25.093 3.806-2.573.372-10.138 1.924-7.752.813 9.289-4.327 20.549-6.179 30.329-8.351 17.878-3.97 36.197-6.543 54.403-7.982.709-.056 7.852-.862 3.4 1.626-7.129 3.985-15.44 6.18-23.053 8.72-17.275 5.765-34.821 10.449-52.464 14.67-1.238.297-4.97 1.036-3.706.924 4.919-.433 9.834-1.987 14.688-2.882 10.468-1.929 21.069-3.104 31.689-3.104 3.043 0 2.533.481-.204 2.07-6.319 3.668-12.965 6.606-19.448 9.903-1.635.83-5.615 1.589-4.557 3.177 1.259 1.89 8.983.722 10.609.665 2.732-.095 9.256-1.986 11.56.518 1.821 1.978 2.271 3.949 1.088 6.577" stroke="#F53" stroke-width="3" stroke-linecap="round" stroke-linejoin="round"/><path d="M185.389 164.773c1.046 3.594 1.192 4.643 1.249 8.911.072 5.334 4.334 4.737 7.832 2.643m3.723-23.844c1.788 1.43 7.402 3.111 15.555-1.609m-35.936 3.755c-2.145 2.681-11.263 1.072-12.872-1.609" stroke="#2D2C2C" stroke-width="2" stroke-linecap="round"/></svg>