<svg width="390" height="280" viewBox="0 0 390 280" fill="none" xmlns="http://www.w3.org/2000/svg"><path d="M193.2 207.675c-10.434 0-20.868-7.338-29.216-17.821-4.8-6.028-7.731-16.75-9.258-25.158-9.259-2.097-11.61-18.869-9.523-24.11 1.669-4.193 2.782-7.338 3.13-8.386l9.391-34.593 29.215-6.29 38.389 4.634 8.565 29.959c3.13 6.639 9.182 21.594 8.347 28.303-.834 6.709-6.608 9.085-9.39 9.435-.348 1.747-1.044 5.66-1.044 7.338-3.13 16.772-28.172 36.689-38.606 36.689z" fill="#fff"/><path d="M153.55 156.31c.196 2.161.578 5.097 1.176 8.386m0 0c1.527 8.408 4.458 19.13 9.258 25.158 8.348 10.483 18.782 17.821 29.216 17.821 10.434 0 35.476-19.917 38.606-36.689 0-1.678.696-5.591 1.044-7.338 2.782-.35 8.556-2.726 9.39-9.435.835-6.709-5.217-21.664-8.347-28.303l-8.565-29.959-38.389-4.634-29.215 6.29-9.391 34.593c-.348 1.048-1.461 4.193-3.13 8.386-2.087 5.241.264 22.013 9.523 24.11z" stroke="#2D2C2C" stroke-width="2"/><path d="M113.943 187.081c3.371 15.926-3.965 36.536-10.636 37.584 13.922-1.629 49.937-3.708 62.774-12.22 3.16-2.096 2.106-14.669-4.214-27.242-5.055-5.868-7.022-17.114-7.373-22.003-2.809 0-9.316-1.431-9.999-15.763-.515-10.812 6.358-3.733 12.872-28.832 22.138-6.178 26.257-15.446 29.861-20.594 0 0 8.753 8.733 23.169 5.148 10.112-2.514 11.654-3.64 12.356-1.544l11.794 22.818c2.457 6.286 6.53 19.651 7.373 23.004 1.053 4.191 0 9.476-1.053 11.572-.843 1.676-5.267 3.492-7.374 4.191-.351 2.794-1.987 10.494-1.987 10.494s-5.386 10.942-7.493 13.387c-.351 5.937-2.88 21.408-1.26 25.364 6.693 16.339 63.842 11.19 74.993 22.002 1.21 1.174-9.129-24.447-14.747-36.671-2.106-15.018-4.741-34.556-3.056-43.776 1.686-9.22-6.32-15.716-10.533-17.812.351-1.746 7.533-17.583-15.467-30.188-13.086-7.172 1.67-24.525-13.076-37.098-14.747-12.574-26.333-8.383-37.92-1.048-22.412-32.656-56.034-2.756-67.204 13.646-22.12 32.481-26.013 85.673-21.8 105.581z" fill="#2D2C2C"/><path d="M151.793 127.713c-2.925 3.366-48.922 103.738-48.85 104.787-3.114.216-22.806-16.174-35.79-19.844 11.684-18.735 37.14-59.512 45.487-72.743 10.433-16.539 19.207-26.636 29.029-36.806 9.821-10.17 12.456-17.734 14.405-19.978 1.95-2.243 8.09-4.777 14.157-8.36 4.854-2.867 7.569-2.163 8.32-1.453.672-.467 1.344-.926 2.01-1.371 3.143-.218 4.917 10.204.799 11.543-4.117 1.34-11.19 20.809-12.849 27.251-1.659 6.441-13.794 13.608-16.718 16.974z" fill="#fff"/><path d="M102.943 233c-.072-1.049 45.925-101.921 48.85-105.287 2.924-3.366 15.059-10.533 16.718-16.974 1.659-6.442 8.732-25.911 12.849-27.25 4.118-1.34 2.344-11.762-.799-11.544-.666.445-1.338.904-2.01 1.372m-12.001 9.087c2.048-1.69 6.997-5.605 12.001-9.087m0 0c-.751-.711-3.466-1.415-8.32 1.451-6.067 3.584-12.207 6.118-14.157 8.361-1.949 2.244-4.584 9.808-14.405 19.978-9.822 10.17-18.596 20.267-29.029 36.806-8.347 13.231-33.802 54.008-45.487 72.743" stroke="#2D2C2C" stroke-width="2" stroke-linecap="round"/><path d="M217.165 109.601c.571-4.144-.9-14.627-2.203-17.973 9.321.243 9.251.754 13.934 19.588 3.157 12.696 23.556 20.533 29.943 22.82l56.659 88.04-37.92 26.29-5.433-11.143c-10.877-28.596-33.593-88.032-37.437-97.007-12.399-17.544-18.256-25.434-17.543-30.615z" fill="#fff"/><path d="M272.145 237.224c-10.877-28.596-33.593-88.033-37.436-97.008-12.399-17.544-16.332-24.363-17.174-29.524-1.127-6.912-1.34-15.207-2.643-18.554 10.622-1.656 8.537 3.667 14.005 19.078 5.336 15.041 23.555 20.533 29.942 22.82l56.66 88.04" stroke="#2D2C2C" stroke-width="2" stroke-linecap="round"/><path d="M303.88 82.047c-.83-.604-6.031-4.072-5.849-3.579.546 1.472 7.064 9.487 5.918 10.54-1.188 1.09-5.998.476-7.39.349-3.947-.36-7.968-1.394-11.902-.3-2.256.628 2.162 3.593-1.737 4.806-2.786.867-6.19.175-8.647 1.967M162.001 12.148c.75-.065 15.631-2.05 15.886-.647.338 1.86-4.884 6.167-6.014 7.39-2.032 2.197-5.36 4.545-6.393 7.47-.307.873 6.61-.519 7.417-.62.28-.035 5.32-1.115 4.343.297-1.164 1.68-1.758 3.111-2.131 5.152-.53 2.9 0 4.942 0 7.66m148.14 97.405c-.188.729-3.276 15.421-4.684 15.194-1.866-.301-4.187-6.66-4.963-8.133-1.395-2.648-2.499-6.568-4.914-8.517-.72-.581-1.713 6.406-1.887 7.2-.06.275-.721 5.387-1.727 3.995-1.196-1.656-2.347-2.694-4.147-3.725-2.558-1.467-4.66-1.647-7.222-2.553M265.938 31.442c-3.393 1.959-6.696 3.678-10.476 4.741-1.505.424-.908 1.008-.307 2.114 1.58 2.908-7.962 2.888-9.179 3.149-2.331.5 3.039 4.945-.023 6.663-1.518.852-3.297 2.046-4.325 3.454M75.64 100.71c.594 4.668-.054 9.421-.56 14.173-.39 3.651-.174 3.732 1.909.441 2.612-4.128 6.27-7.737 9.667-11.502 1.356-1.503 1.798-1.848 1.952.149.19 2.472-.31 4.998-.37 7.487-.028 1.162-.352 3.991 1.755 2.165 4.289-3.715 9.69-7.707 15.822-9.093M100.777 44c-.304.454-5.022 6.899-3.462 6.828 4.176-.19 9.643-4.806 13.694-3.725 1.595.426 2.333 6.164 3.875 7.707 1.465 1.466 3.486 3.102 5.116 4.19" stroke="#F53" stroke-width="3" stroke-linecap="round" stroke-linejoin="round"/><path d="M203.787 138.86c.317 1.531.519 3.135 1.035 4.617.239.687.895-.54 1.165-.807 1.032-1.016 2.251-1.816 3.336-2.773.746-.66.762.217.913.979.432 2.184 2.911-.454 3.93-1.122 2.147-1.41 4.49-2.498 6.922-3.307m-60.117 2.487c2.746-.686 4.744-.67 7.278.4 1.107.468 2.407 1.024 3.653.571.857-.312 2.56.619 3.71.571.057-.003-1.541-4.082-1.541-4.881m29.118 46.337c-5.937-1.821-18.915-.759-25.277 0-1.06-.759-.207-3.129 1.516-4.685 4.274-3.858 17.4-2.143 17.4-2.143s6.361 1.517 6.361 6.828zm-16.556-42.406c-.492 4.731-1.767 15.085-2.928 18.654-1.451 4.46 2.251 4.114 5.128 4.927" stroke="#2D2C2C" stroke-width="2" stroke-linecap="round"/><path d="M232.943 164l1.5-11.5" stroke="#2D2C2C" stroke-width="2"/><path d="M307.443 210.5c4.8-11.2-8.166-27.833-18.999-30 11.5 39-11.501 33 5 62-5-23 7.999-18 13.999-32zM130.444 245c-5.6-13.2 2.333-21.5 7-24-8.8-6-24.167-.833-30.5 3-2.5 3.833-4.2 14.2 7 21 11.2 6.8 9.333 19.167 7 24.5 5.5-2.667 15.1-11.3 9.5-24.5z" fill="#2D2C2C"/></svg>