<svg width="390" height="280" viewBox="0 0 390 280" fill="none" xmlns="http://www.w3.org/2000/svg"><g clip-path="url(#clip0)"><path d="M173.442 14.914c-.482.222-7.658 3.174-6.329 3.906 3.557 1.958 10.428.901 13.238 3.85 1.107 1.162-1.188 6.292-.692 8.353.472 1.957 1.319 4.338 2.119 6.065" stroke="#F53" stroke-width="3" stroke-linecap="round" stroke-linejoin="round"/><path d="M279.794 106.23c2.59-21.166-7.833-25.988-13.369-25.754 2.522-6.507-3.359-13.49-15.923-14.852-10.052-1.088-21.499-7.084-25.966-9.946-5.695-3.564-19.996-10.693-31.637-10.693-44.225-1.141-60.877 38.812-65.053 66.48-2.283 15.122-7.99 42.799-40.802 83.029-26.25 32.184-30.149 62.676-28.817 73.899h131.248c-2.472-11.128-10.782-27.108-5.135-43.084 10.85-30.699 14.631-57.74 14.957-62.786h2.674c2.861-4.691 8.274-9.317 7.036 9.71-1.548 23.784.422 31.383 6.473 36.59 6.052 5.207 30.258 5.489 43.486 5.63 13.229.14 20.406 2.814 22.517 5.629-.844-4.222-3.94-19.28-8.866-41.375-4.925-22.095 3.941-46.019 7.177-72.477z" fill="#2D2C2C"/><path d="M257.98 113.79c3.896-7.192.874-17.23-1.124-21.35-6.392 19.998-38.571 27.313-51.003 27.313.415-6.561-4.627-11.396-10.222-10.36-14.159 3.039-5.999 26.067-3.405 27.68 2.075 1.29 4.464.21 5.399-.491.771 5.492 2.215 18.216 1.823 25.171-.491 8.694 23.698 17.037 29.377 19.912 5.68 2.875 10.517.491 13.322-2.875 2.804-3.365-.071-10.447 4.066-10.587 3.309-.112 2.968-2.898 2.384-4.277 1.075-.374 2.916-1.879 1.682-4.908-1.234-3.029-.28-5.842.351-6.871 1.519-.257 5.216-1.22 7.853-3.015 3.295-2.243-.503-6.45-2.524-10.376-4.347-11.008-2.848-15.977 2.021-24.966z" fill="#fff"/><path d="M241.517 132.553c-8.331 0-10.957-5.392-12.553-8.347 1.574 1.466 4.264 4.645 7.318 5.525 3.054.88 8.276-.392 9.894-1.125l2.265 1.941c.28.496-.698 2.006-6.924 2.006z" fill="#2D2C2C"/><path d="M300.214 235.446c-.775 1.149-13.034 31.167-15.804 47.614l-17.071-28.5c3.141-3.107 8.914-18.495 11.948-28.57-5.62-8.454-3.196-20.2-2.781-22.369.62-3.241 4.179-17.039 2.561-28.582-.85-6.067 3.167-4.984 4.101-.173l.047.186c1.033 4.126 2.24 8.945 2.474 12.789 2.37-2.376 8.645-5.851 12.185-7.38-3.023-2.23-9.907-7.151-13.261-8.996-4.193-2.306-4.894-5.914-1.887-6.498 2.304-.448 13.176 5.498 20.501 10.371l.163-10.018c-1.626-3.012-5.09-9.495-5.945-11.326-1.069-2.289-3.691-6.148-.568-6.131 3.124.017 10.623 12.914 12.41 15.688 1.429 2.218 1.367 12.84 1.157 17.873 2.318 3.589 2.173 8.131 1.702 10.279.523.73.897 1.312 1.062 1.666.855 1.831-.54 6.856-1.345 9.14 3.981 8.245 1.617 13.766-2.002 19.131-3.876 5.746-8.678 12.369-9.647 13.806z" fill="#fff"/><path d="M289.232 269.878c2.77-16.447 10.207-33.283 10.983-34.432.969-1.437 5.77-8.06 9.646-13.806 3.62-5.365 5.983-10.886 2.003-19.131m-15.618 16.606c-.159-5.96 4.344-10.389 7.756-12.099-2.021-3.976-6.035-12.433-5.928-14.451-2.773 1.787-14.801 4.124-15.753 2.437-.331-.586.572-1.412 2.143-2.289m27.4 9.796a25.582 25.582 0 00-.979-1.823c-5.594-9.523-8.216-13.382-14.23-12.213-3.926.762-9.239 2.592-12.191 4.24m27.4 9.796c.804-2.283 2.2-7.309 1.345-9.14-.166-.354-.54-.936-1.063-1.665m-27.682 1.009c-.308-.356-.656-1.62.414-3.825.151-.312.431-.665.812-1.047m26.456 3.863c-2.857-3.988-10.166-12.379-12.199-11.984-.436.084-1.164.349-2.073.741m14.272 11.243c.471-2.149.616-6.691-1.701-10.279m-12.571-.964c-3.023-2.23-9.907-7.151-13.261-8.996-4.192-2.306-4.894-5.914-1.887-6.498 2.304-.448 13.176 5.499 20.502 10.371m-5.354 5.123c-3.539 1.529-9.815 5.004-12.184 7.38m24.755-6.416a10.12 10.12 0 00-1.845-2.138c-1.23-1.075-3.136-2.462-5.372-3.949m7.217 6.087c.209-5.034.272-15.656-1.158-17.874-1.787-2.773-9.285-15.671-12.409-15.688-3.124-.017-.502 3.842.567 6.131.855 1.831 4.32 8.314 5.945 11.327l-.162 10.017m-17.538 12.503c-.238-3.902-1.478-8.809-2.521-12.975-.935-4.811-4.952-5.894-4.101.173 1.617 11.544-1.942 25.341-2.562 28.582-.414 2.169-2.838 13.916 2.781 22.369-3.034 10.075-11.915 33.201-15.316 41.459" stroke="#2D2C2C" stroke-width="2"/><rect width="17.208" height="6.046" rx="3.023" transform="matrix(.86712 .4981 -.50191 .86492 273.951 164.301)" fill="#F53"/><path d="M282.725 164.967c-3.007.584-2.306 4.192 1.887 6.498 3.354 1.845 10.238 6.766 13.261 8.996" stroke="#2D2C2C" stroke-width="2"/><path d="M252.079 33.458c.466.396 10.112 7.87 9.446 8.819-.883 1.257-6.356.696-7.709.74-2.431.08-5.689-.504-7.971.57-.68.32 4.075 3.526 4.594 3.935.18.142 3.683 2.44 2.308 2.681-1.636.287-2.803.76-4.196 1.71-1.981 1.35-2.859 2.822-4.431 4.373m-130.991-6.304c.514-.52 10.287-11.348 11.358-10.47 1.42 1.165.261 7.639.193 9.256-.123 2.904-1.111 6.736-.036 9.552.321.84 4.569-4.541 5.103-5.123.186-.202 3.239-4.172 3.403-2.512.195 1.977.655 3.41 1.662 5.156 1.431 2.481 3.108 3.66 4.817 5.672" stroke="#F53" stroke-width="3" stroke-linecap="round" stroke-linejoin="round"/></g><defs><clipPath id="clip0"><path fill="#fff" d="M0 0h390v280H0z"/></clipPath></defs></svg>