<svg width="390" height="280" viewBox="0 0 390 280" fill="none" xmlns="http://www.w3.org/2000/svg"><g clip-path="url(#clip0)"><path d="M44.777 148.748c-6.762-23.426 25.778-23.349 42.893-20.382 29.898 6.966 21.951 41.28 104.331 48.891 82.379 7.611 60.05 85.914 20.689 75.852-39.36-10.062-65.096-19.221-122.875-7.869-57.78 11.352-81.118-31.734-62.573-50.052 18.544-18.318 25.987-17.157 17.535-46.44z" fill="#E8E4E3"/><path d="M93.663 176.438c17.341 58.187 9.186 75.854 13.186 92.462 12.939 2.453 19.734 4.622 35.996 5.564 3.954.229 22.284-36.488 17.142-55.386 2.103.081 7.852-12.035 10.285-6.872-1.715 41.232 12.404 62.759 18.855 62.786 52.694.223 102.848-4.502 102.848-7.81 0-38.146-17.142-39.514-42.853-72.155-25.712-32.642-13.563-74.227-28.99-101.714-12.342-21.99-39.576-27.707-49.86-23.699-4.571-2.29-16.113-5.841-25.712-1.718-47.996 13.744-59.238 80.552-50.897 108.542z" fill="#2D2C2C"/><path d="M140.861 218.293c-23.508-19.384-28.809-46.154-29.385-62.307 0 0 55.314 6.923 67.414-29.424 1.729 27.693-5.186 51.924-8.643 86.539-5.185 6.923-22.471 12.115-29.386 5.192z" fill="#fff"/><path d="M150.776 172.024c3.852 2.585 14.218 6.018 24.871-.928-6.07 9.691-25.458 11.821-24.871.928zm-35.738-6.274c1.188 2.23 5.7 6.355 14.25 5.017-1.781 5.017-12.469 5.017-14.25-5.017z" fill="#2D2C2C"/><path d="M135.226 178.812v15.451c0 4.278 6.135 2.957 8.906 1.175" stroke="#2D2C2C" stroke-width="2" stroke-linecap="round"/><path d="M58.926 144.189c5.716-6.116 12.465-14.962 7.575-24.583-3.037-5.976-8.988-10.045-14.792-8.245-.572.177-2.158.76-1.587.943 2.229.713 6.412-1.292 8.343-2.13 8.425-3.655 18.127-12.145 21.703-22.24 3.947-11.147-7.478-24.796-16.687-24.796-2.43 0 5.06 2.095 5.298 2.13 11.083 1.603 21.88-1.294 31.862-7.059 4.072-2.352 12.206-6.808 9.214-13.752-.444-1.03-7.057-8.621-7.755-5.994-1.316 4.955 20.122 8.686 22.138 8.976 7.978 1.147 17.37 2.576 25.311.273 5.747-1.666 11.31-5.923 16.507-9.157 2.328-1.45 2.72-2.63 2.124.03-2.309 10.295 31.802 1.147 35.138-.243 3.452-1.44 1.493-1.054.026 1.49-3.862 6.701-.667 10.908 4.939 13.63 8.5 4.128 18.773 4.696 27.819 4.321 5.044-.209 10.028-.952 15.023-1.765 3.491-.568 7.889-2.128 11.465-1.52 2.17.368.605 6.038.307 7.24-1.539 6.212-4.185 13.083-3.378 19.715 2.046 16.822 19.75 9.552 28.715 11.683 2.678.637 1.886 3.638.409 5.233-6.154 6.652-14.75 9.771-21.344 15.882-4.994 4.628-5.812 8.912.41 12.352 5.274 2.917 11.045 4.325 16.686 5.842.124.033 1.539.243.435.243-2.867 0-5.662.291-8.446 1.187-10.63 3.423-22.445 10.19-30.89 18.711-6.166 6.222-4.288 13.523.333 20.202 2.906 4.2 6.346 7.94 10.467 10.405 5.887 3.521 12.314 3.725 18.683 4.807M91 17c.383 2.77.443 4.671 1.59 7.157C95.014 29.41 93.95 25.158 97 30m71.805-5c-3.329-8.536 4.577-14.88 7.195-20m93.521 43.122c4.142-4.642 8.392-8.867 12.838-13.122m22.9 52.956c6.21-4.03 12.462-7.988 18.71-11.956M298 133c5.686.788 11.283.797 17 1m-21 54l13-2M70 166c-7.296 4.119-14.536 8.373-22 12m-9.5-65c-11.252 2.371-22.5 3-22.5 3m39.067-58.543A7325.582 7325.582 0 0135 52" stroke="#F53" stroke-width="3" stroke-linecap="round" stroke-linejoin="round"/><path opacity=".5" d="M289.898 187.697c-1.666 38.017-34.246 47.949-50.328 48.163-52.165 3.27-15.687-45.978-83.31-95.543C88.638 90.752 290.128 5.866 275.996 60.403c-14.131 54.537 78.979 29.226 107.986 59.683 29.007 30.457-92.002 20.091-94.084 67.611z" fill="#E8E4E3"/></g><defs><clipPath id="clip0"><path fill="#fff" d="M0 0h390v280H0z"/></clipPath></defs></svg>