<?xml version="1.0" standalone="no"?>
<!DOCTYPE svg PUBLIC "-//W3C//DTD SVG 1.1//EN" "http://www.w3.org/Graphics/SVG/1.1/DTD/svg11.dtd" >
<svg xmlns="http://www.w3.org/2000/svg" xmlns:xlink="http://www.w3.org/1999/xlink" version="1.1">
<metadata></metadata>
<defs>
<font id="museo_sans_cyrl100_italic" horiz-adv-x="1146" >
<font-face units-per-em="2048" ascent="1536" descent="-512" />
<missing-glyph horiz-adv-x="512" />
<glyph unicode="&#xfb01;" horiz-adv-x="1048" d="M90 0l184 946h-129l15 78h129l10 51q23 115 73 195t111.5 113.5t108.5 47t92 13.5q43 0 64 -4l-19 -80q-12 4 -45 4q-39 0 -76 -10.5t-84 -38t-85 -92t-56 -158.5l-8 -41h581l-200 -1024h-86l184 946h-494l-184 -946h-86zM911 1284l31 150h102l-30 -150h-103z" />
<glyph unicode="&#xfb02;" horiz-adv-x="1107" d="M92 0l182 940h-129l15 78h129l10 51q18 96 57 168t81 109.5t93.5 61.5t86 30t69.5 6q43 0 64 -4l-19 -80q-20 4 -45 4q-39 0 -76 -10.5t-84 -38t-85 -92t-56 -156.5l-10 -49h280l-14 -78h-281l-182 -940h-86zM727 158q0 27 6 59l238 1217h86l-234 -1203q-6 -33 -6 -59 q0 -43 17.5 -66.5t36 -27.5t47.5 -4q14 0 26 2l-18 -80q-12 -4 -35 -4q-35 0 -67.5 9t-64.5 49t-32 108z" />
<glyph unicode="&#xfb03;" horiz-adv-x="1689" d="M90 0l184 946h-129l15 78h129l10 51q23 115 73 195t111.5 113.5t108.5 47t92 13.5q43 0 64 -4l-19 -80q-20 4 -45 4q-39 0 -76 -10.5t-84 -38t-85 -92t-56 -158.5l-8 -41h547l10 51q23 115 73 195t111.5 113.5t108.5 47t92 13.5q23 0 63 -4l-18 -80q-12 4 -45 4 q-39 0 -76 -10.5t-84 -38t-85 -92t-56 -158.5l-8 -41h589l-200 -1024h-86l184 946h-502l-184 -946h-86l184 946h-547l-184 -946h-86zM1552 1284l31 150h103l-31 -150h-103z" />
<glyph unicode="&#xfb04;" horiz-adv-x="1738" d="M90 0l184 946h-129l15 78h129l10 51q23 115 73 195t111.5 113.5t108.5 47t92 13.5q43 0 64 -4l-19 -80q-8 4 -45 4q-39 0 -76 -10.5t-84 -38t-85 -92t-56 -158.5l-8 -41h547l10 51q23 115 73 195t111.5 113.5t108.5 47t92 13.5q43 0 63 -4l-18 -80q-8 4 -45 4 q-39 0 -76 -10.5t-84 -38t-85 -92t-56 -158.5l-8 -41h280l-14 -78h-281l-184 -946h-86l184 946h-547l-184 -946h-86zM1358 158q0 27 6 59l238 1217h86l-234 -1203q-6 -33 -6 -59q0 -43 17.5 -66.5t36 -27.5t46.5 -4q14 0 27 2l-19 -80q-12 -4 -34 -4q-35 0 -68 9t-64.5 49 t-31.5 108z" />
<glyph horiz-adv-x="0" />
<glyph unicode="&#xd;" horiz-adv-x="681" />
<glyph unicode=" "  horiz-adv-x="512" />
<glyph unicode="&#x09;" horiz-adv-x="512" />
<glyph unicode="&#xa0;" horiz-adv-x="512" />
<glyph unicode="!" horiz-adv-x="512" d="M78 0l26 125h121l-26 -125h-121zM164 358l211 1076h88l-211 -1076h-88z" />
<glyph unicode="&#x22;" horiz-adv-x="643" d="M276 1143l60 309h88l-59 -309h-89zM489 1143l60 309h88l-59 -309h-89z" />
<glyph unicode="#" horiz-adv-x="1490" d="M63 408l31 81h309l168 453h-309l31 82h309l152 410h90l-152 -410h387l152 410h90l-152 -410h304l-31 -82h-303l-168 -453h303l-31 -81h-303l-152 -408h-90l152 408h-387l-152 -408h-90l152 408h-310zM494 489h387l168 453h-387z" />
<glyph unicode="$" d="M59 154l64 63q135 -156 350 -156q162 0 276.5 87.5t114.5 232.5q0 86 -45 149.5t-111.5 99.5t-145.5 78t-145.5 79.5t-111.5 109.5t-45 166q0 170 131 275.5t316 117.5l38 193h89l-37 -193q186 -16 305 -135l-58 -68q-49 55 -132 87t-164 32q-154 0 -275 -83t-121 -222 q0 -92 62.5 -157.5t151.5 -107.5t177 -88t150.5 -127t62.5 -198q0 -174 -125.5 -287.5t-322.5 -124.5l-37 -190h-88l37 190q-100 8 -199 54.5t-162 122.5z" />
<glyph unicode="%" horiz-adv-x="1435" d="M8 0l1356 1434h117l-1358 -1434h-115zM236 1159q0 113 96 206t217 93q104 0 167.5 -63.5t63.5 -167.5q0 -119 -95 -211t-216 -92q-106 0 -169.5 63.5t-63.5 171.5zM324 1153q0 -63 40.5 -105t108.5 -42q86 0 152.5 66.5t66.5 156.5q0 63 -41 105t-106 42 q-86 0 -153.5 -67.5t-67.5 -155.5zM698 211q0 113 96.5 206t217.5 93q104 0 167.5 -63.5t63.5 -167.5q0 -119 -95 -211.5t-216 -92.5q-106 0 -170 63.5t-64 172.5zM786 205q0 -63 41 -105.5t109 -42.5q86 0 152.5 66.5t66.5 157.5q0 63 -41 105t-106 42q-86 0 -154 -67.5 t-68 -155.5z" />
<glyph unicode="&#x26;" horiz-adv-x="1341" d="M84 328q0 152 98.5 279.5t255.5 168.5v4q-6 2 -16 6.5t-37 24.5t-47.5 46t-36.5 74t-16 107q0 178 134 299t341 121q80 0 166 -22l-41 -76q-78 16 -127 16q-158 0 -268.5 -94t-110.5 -244q0 -96 62.5 -159.5t238.5 -63.5h334l41 209h88l-41 -209h198l-16 -82h-199 l-45 -229q-104 -528 -542 -529q-195 0 -304.5 96.5t-109.5 256.5zM176 328q0 -117 85 -192t237 -75q367 0 454 443l45 229h-329q-207 0 -349.5 -107.5t-142.5 -297.5z" />
<glyph unicode="'" horiz-adv-x="430" d="M276 1143l60 309h88l-59 -309h-89z" />
<glyph unicode="(" horiz-adv-x="540" d="M109 344q0 627 411 1141h94q-422 -537 -421 -1143q0 -279 96 -537h-86q-94 256 -94 539z" />
<glyph unicode=")" horiz-adv-x="542" d="M-55 -195q422 537 422 1143q0 279 -97 537h86q94 -256 95 -539q0 -627 -412 -1141h-94z" />
<glyph unicode="*" horiz-adv-x="1011" d="M221 1124l43 84l295 -110l55 336h97l-76 -336l342 108l12 -86l-344 -100l148 -266l-76 -52l-142 277l-245 -274l-68 53l256 270z" />
<glyph unicode="+" d="M33 539l14 82h485l107 538h88l-106 -538h483l-14 -82h-484l-106 -539h-88l106 539h-485z" />
<glyph unicode="," horiz-adv-x="518" d="M-43 -193l172 318h113l-195 -318h-90z" />
<glyph unicode="-" horiz-adv-x="884" d="M147 539l15 82h565l-14 -82h-566z" />
<glyph unicode="." horiz-adv-x="444" d="M45 0l25 129h125l-25 -129h-125z" />
<glyph unicode="/" horiz-adv-x="833" d="M-25 -86l830 1602h96l-829 -1602h-97z" />
<glyph unicode="0" horiz-adv-x="1257" d="M135 428q0 119 19.5 250t68.5 272.5t120 252t184.5 183t252.5 72.5q385 0 385 -457q0 -152 -33.5 -317.5t-104.5 -330.5t-203 -271.5t-304 -106.5q-385 0 -385 453zM225 424q0 -362 297 -363q119 0 217.5 67t158.5 168t101 231t57.5 249t16.5 228q0 369 -295 368 q-139 0 -250.5 -92t-174 -238.5t-95.5 -305t-33 -312.5z" />
<glyph unicode="1" horiz-adv-x="913" d="M6 0l14 82h326l225 1157l17 72h-4q-20 -27 -95 -88l-196 -166l-53 65l370 312h88l-264 -1352h318l-17 -82h-729z" />
<glyph unicode="2" horiz-adv-x="1132" d="M20 0q2 104 43 192.5t123 165t152 125.5t188 121q236 145 308 207q158 137 157 299q0 123 -78.5 192.5t-203.5 69.5q-109 0 -212.5 -55t-177.5 -148l-63 54q78 104 201 169.5t258 65.5q166 0 267 -93t101 -249q0 -96 -34.5 -176t-126 -159t-143.5 -115.5t-187 -118.5 q-18 -12 -29 -19q-96 -59 -152.5 -97t-126 -96.5t-108.5 -120.5t-53 -132h784l-16 -82h-871z" />
<glyph unicode="3" horiz-adv-x="1136" d="M20 174l70 59q150 -172 367 -172q160 0 294 123t134 297q0 133 -93.5 204t-234.5 71h-106l-13 61l494 469l76 66v4q-39 -4 -111 -4h-580l17 82h821l-12 -62l-568 -534q49 0 98.5 -9.5t106 -34t98.5 -62.5t70.5 -103.5t28.5 -147.5q0 -203 -161 -354.5t-363 -151.5 q-129 0 -243 51.5t-190 147.5z" />
<glyph unicode="4" horiz-adv-x="1210" d="M47 410l12 61l920 963h92l-184 -942h213l-17 -82h-213l-79 -410h-89l80 410h-735zM195 492h604l131 671l31 129h-5q-45 -51 -90 -98l-671 -700v-2z" />
<glyph unicode="5" horiz-adv-x="1132" d="M39 182l76 51q113 -172 319 -172q184 0 324.5 131.5t140.5 311.5q0 141 -92 226t-242 85q-74 0 -147.5 -21.5t-110.5 -43.5l-37 -21l-63 23l215 682h668l-17 -82h-588l-133 -424l-30 -88h4q98 61 252 61q184 0 298.5 -109.5t114.5 -285.5q0 -217 -167 -374t-394 -157 q-121 0 -226.5 54.5t-164.5 152.5z" />
<glyph unicode="6" horiz-adv-x="1196" d="M125 483q0 102 29.5 227.5t94 257.5t154 241.5t219.5 179t277 69.5q141 0 258 -57l-53 -76q-82 47 -205 47q-121 0 -230.5 -58.5t-190.5 -154.5t-138 -209.5t-90 -236.5h4q76 90 189.5 143t234.5 53q174 0 277.5 -97t103.5 -267q0 -139 -62.5 -268.5t-184.5 -215.5 t-275 -86q-199 0 -305.5 140.5t-106.5 367.5zM217 453q0 -154 83 -273t230 -119q182 0 309.5 140.5t127.5 343.5q0 131 -79 204.5t-216 73.5q-92 0 -195.5 -44t-181.5 -133t-78 -193z" />
<glyph unicode="7" horiz-adv-x="1056" d="M94 0l836 1219l102 133v4q-41 -4 -112 -4h-689l17 82h907l-12 -62l-948 -1372h-101z" />
<glyph unicode="8" horiz-adv-x="1208" d="M86 344q0 80 34 158t77 128t99 97t83 63.5t47 26.5q-143 98 -143 244q0 156 134 276.5t345 120.5q184 0 281.5 -81t97.5 -224q0 -82 -38 -168t-93.5 -150.5t-89 -98.5t-56.5 -50q168 -106 168 -260q0 -193 -159.5 -322t-370.5 -129q-178 0 -297 96.5t-119 272.5zM180 344 q0 -131 93.5 -207t228.5 -76q168 0 302 102.5t134 260.5q0 51 -24.5 94t-75 78t-96.5 58.5t-120.5 58.5t-115.5 57q-37 -20 -78 -48t-104.5 -82t-103.5 -132t-40 -164zM377 1063q0 -51 21.5 -92t71.5 -76t89 -56.5t115.5 -57.5t109.5 -52q29 20 61 50t84 88.5t85 134 t33 151.5q0 100 -78 159.5t-207 59.5q-166 0 -275.5 -91t-109.5 -218z" />
<glyph unicode="9" horiz-adv-x="1196" d="M84 33l53 76q94 -47 205 -48q121 0 230.5 58.5t190.5 155t138 210t90 236.5h-4q-76 -90 -189.5 -143.5t-234.5 -53.5q-174 0 -277.5 97.5t-103.5 267.5q0 139 62.5 268t184.5 215t276 86q199 0 305 -140t106 -368q0 -102 -29.5 -227t-94 -257t-153.5 -241.5 t-219.5 -179.5t-277.5 -70q-149 1 -258 58zM274 889q0 -129 78 -204t211 -75q92 0 196.5 44t184.5 133.5t80 193.5q0 154 -83 272.5t-230 118.5q-182 0 -309.5 -140t-127.5 -343z" />
<glyph unicode=":" horiz-adv-x="440" d="M41 0l25 129h124l-24 -129h-125zM215 895l25 129h125l-25 -129h-125z" />
<glyph unicode=";" horiz-adv-x="577" d="M-6 -193l172 318h113l-195 -318h-90zM311 895l25 129h125l-25 -129h-125z" />
<glyph unicode="&#x3c;" d="M74 543v73l899 404v-98l-772 -340v-4l772 -340v-99z" />
<glyph unicode="=" d="M98 375v82h934v-82h-934zM98 702v82h934v-82h-934z" />
<glyph unicode="&#x3e;" d="M154 139v99l772 340v4l-772 340v98l899 -404v-73z" />
<glyph unicode="?" horiz-adv-x="886" d="M195 0l26 125h121l-27 -125h-120zM231 1362q61 41 149.5 68.5t168.5 27.5q158 0 249 -82t91 -215q0 -100 -46 -183t-115 -141.5t-139.5 -112.5t-129 -125t-74.5 -150l-18 -91h-88l18 91q20 96 78.5 177t128 136t136.5 110.5t111 127t44 157.5q0 94 -68 154.5t-182 60.5 q-141 0 -279 -86z" />
<glyph unicode="@" horiz-adv-x="1554" d="M96 356q0 229 125 437t323.5 330t409.5 122q219 0 319.5 -84t100.5 -217q0 -35 -6 -72l-135 -694h143l-16 -82h-526q-152 0 -247 94.5t-95 239.5q0 180 144 322.5t320 142.5h324q4 29 4 45q0 98 -75.5 160.5t-245.5 62.5q-305 0 -540 -242.5t-235 -564.5 q0 -227 142.5 -374.5t374.5 -147.5l-17 -84q-254 0 -423 172t-169 434zM584 432q0 -111 72.5 -182.5t187.5 -71.5h297l123 635h-293q-150 0 -268.5 -115.5t-118.5 -265.5z" />
<glyph unicode="A" horiz-adv-x="1280" d="M-51 0l813 1434h92l260 -1434h-90l-88 496h-608l-281 -496h-98zM373 578h547l-103 581l-24 172h-5q-51 -111 -86 -172z" />
<glyph unicode="B" horiz-adv-x="1245" d="M100 0l281 1434h461q86 0 151 -25q170 -70 170 -268q0 -137 -70.5 -237.5t-185.5 -145.5v-4q80 -27 129 -101.5t49 -183.5q0 -147 -73.5 -261t-192.5 -167q-88 -41 -196 -41h-523zM205 82h405q94 0 162 31q100 45 160.5 138t60.5 216q0 115 -70.5 180.5t-191.5 65.5h-403 zM344 795h389q137 0 237.5 97t100.5 249q0 98 -60.5 154.5t-168.5 56.5h-389z" />
<glyph unicode="C" horiz-adv-x="1472" d="M133 586q0 233 122 436t318.5 319.5t413.5 116.5q139 0 273.5 -44t218.5 -136l-62 -64q-160 160 -430 160q-195 0 -370 -104.5t-283.5 -287.5t-108.5 -396q0 -229 140.5 -378t371.5 -149q137 0 276.5 52.5t246.5 142.5l51 -68q-102 -92 -263 -151.5t-311 -59.5 q-279 0 -441.5 170.5t-162.5 440.5z" />
<glyph unicode="D" horiz-adv-x="1511" d="M100 0l281 1434h428q287 0 449.5 -144.5t162.5 -408.5q0 -369 -240.5 -625t-611.5 -256h-469zM203 82h348q334 0 556 227.5t222 567.5q0 227 -141 351t-389 124h-346z" />
<glyph unicode="E" horiz-adv-x="1132" d="M100 0l281 1434h784l-18 -82h-694l-115 -588h571l-16 -82h-569l-119 -600h733l-14 -82h-824z" />
<glyph unicode="F" horiz-adv-x="1026" d="M100 0l281 1434h723l-17 -82h-634l-117 -598h549l-17 -82h-549l-131 -672h-88z" />
<glyph unicode="G" horiz-adv-x="1544" d="M129 567q0 356 260 623.5t598 267.5q305 0 486 -160l-62 -65q-72 66 -188.5 103.5t-235.5 37.5q-303 0 -534.5 -240.5t-231.5 -566.5q0 -225 136.5 -366.5t361.5 -141.5q291 0 543 252l51 260h-254l14 82h344l-127 -653h-88l25 127l14 61h-4q-8 -8 -24.5 -22t-69.5 -51 t-109.5 -66t-142.5 -51.5t-172 -22.5q-266 0 -428 166t-162 426z" />
<glyph unicode="H" horiz-adv-x="1521" d="M100 0l281 1434h88l-131 -674h909l131 674h88l-280 -1434h-88l133 678h-909l-134 -678h-88z" />
<glyph unicode="I" horiz-adv-x="524" d="M100 0l281 1434h88l-281 -1434h-88z" />
<glyph unicode="J" horiz-adv-x="1034" d="M14 285q0 39 13 106l8 45h88l-8 -45q-10 -51 -11 -92q0 -240 238 -240q121 0 224.5 80t135.5 252l185 961h-340l16 82h428l-205 -1055q-41 -211 -165.5 -307.5t-278.5 -96.5q-141 0 -234.5 76t-93.5 234z" />
<glyph unicode="K" horiz-adv-x="1161" d="M100 0l281 1434h88l-125 -639h258l543 639h106l-575 -678v-4l323 -752h-96l-303 713h-272l-140 -713h-88z" />
<glyph unicode="L" horiz-adv-x="1019" d="M100 0l281 1434h88l-264 -1352h684l-19 -82h-770z" />
<glyph unicode="M" horiz-adv-x="1710" d="M45 0l397 1434h80l242 -902l39 -161h4q53 90 100 161l594 902h90l-166 -1434h-88l127 1094l31 190h-4q-63 -121 -111 -190l-542 -818h-90l-226 818l-41 194h-4q-20 -125 -39 -194l-305 -1094h-88z" />
<glyph unicode="N" horiz-adv-x="1521" d="M100 0l281 1434h72l598 -1125l82 -180h4q8 109 22 180l219 1125h88l-280 -1434h-72l-598 1124l-82 181h-4q-8 -109 -22 -181l-220 -1124h-88z" />
<glyph unicode="O" horiz-adv-x="1691" d="M131 590q0 229 125 431t325.5 319.5t415.5 117.5q270 0 440.5 -168t170.5 -430q0 -233 -126 -439t-326 -326t-415 -120q-270 0 -440 172.5t-170 442.5zM223 590q0 -233 144.5 -382t373.5 -149q190 0 369.5 107.5t292.5 294t113 397.5q0 227 -144.5 371.5t-374.5 144.5 q-195 0 -373 -104.5t-289.5 -287.5t-111.5 -392z" />
<glyph unicode="P" horiz-adv-x="1210" d="M100 0l281 1434h448q143 0 230 -50q158 -88 158 -286q0 -162 -84 -286t-218 -179q-96 -39 -206 -39h-404l-117 -594h-88zM322 676h378q100 0 181 33q111 47 177 148t66 241q0 121 -77.5 187.5t-217.5 66.5h-376z" />
<glyph unicode="Q" horiz-adv-x="1691" d="M131 590q0 229 125 431t325.5 319.5t415.5 117.5q270 0 440.5 -168t170.5 -430q0 -184 -81 -354t-218 -297l141 -186l-61 -54l-144 189q-233 -182 -503 -182q-1 -1 -2 -1q-269 0 -439 173q-170 172 -170 442zM223 590q0 -233 144.5 -382t373.5 -149q244 0 455 166 l-147 195l61 53l147 -197q119 115 189 266.5t70 315.5q0 227 -144.5 371.5t-374.5 144.5q-195 0 -373 -104.5t-289.5 -287.5t-111.5 -392z" />
<glyph unicode="R" horiz-adv-x="1236" d="M102 0l279 1434h455q123 0 198 -39q158 -82 158 -281q0 -176 -108.5 -304t-270.5 -159v-4q8 -16 21 -51l208 -596h-94l-221 635h-414l-123 -635h-88zM330 717h379q164 0 277.5 111.5t113.5 285.5q0 111 -69.5 174.5t-194.5 63.5h-383z" />
<glyph unicode="S" horiz-adv-x="1079" d="M25 154l63 63q4 -6 13.5 -16.5t42 -38t69.5 -48t98.5 -37t126.5 -16.5q162 0 276.5 87.5t114.5 232.5q0 86 -45 149.5t-111.5 99.5t-145 78t-145.5 79.5t-112 109.5t-45 166q0 180 144.5 287.5t341.5 107.5q109 0 197.5 -34.5t123.5 -67.5l35 -35l-57 -68q-12 12 -34 33 t-98.5 53.5t-164.5 32.5q-154 0 -275 -83t-121 -222q0 -92 62.5 -157.5t150.5 -107.5t177.5 -88t152 -127t62.5 -198q0 -182 -136.5 -298t-345.5 -116q-78 0 -149.5 18.5t-118.5 44t-82 52.5t-49 45z" />
<glyph unicode="T" horiz-adv-x="1220" d="M176 1352l14 82h1158l-15 -82h-536l-262 -1352h-89l263 1352h-533z" />
<glyph unicode="U" horiz-adv-x="1476" d="M172 383q0 55 12 117l183 934h88l-183 -936q-10 -47 -10 -107q0 -158 98.5 -245t274.5 -87q203 0 347 119t185 324l183 932h88l-189 -953q-45 -236 -212 -371t-402 -135q-215 0 -339 109t-124 299z" />
<glyph unicode="V" horiz-adv-x="1271" d="M209 1434h88l205 -1160l22 -172h4q51 104 90 172l658 1160h98l-815 -1434h-96z" />
<glyph unicode="W" horiz-adv-x="1857" d="M238 1434h88l73 -1168l4 -153h5q37 82 71 153l570 1168h102l80 -1168l4 -153h4q35 84 66 153l530 1168h98l-657 -1434h-111l-78 1081l-6 228h-4q-57 -133 -102 -226l-533 -1083h-106z" />
<glyph unicode="X" horiz-adv-x="1126" d="M-72 0l609 764l-281 670h94l187 -453l65 -160h4q51 74 117 156l369 457h110l-553 -684l322 -750h-94l-230 539l-61 153h-4q-43 -63 -113 -149l-436 -543h-105z" />
<glyph unicode="Y" horiz-adv-x="1161" d="M203 1434h94l227 -566l60 -161h4q63 88 119 159l448 568h109l-646 -813l-122 -621h-88l122 623z" />
<glyph unicode="Z" d="M-49 0l14 70l1002 1151l125 131v4q-31 -4 -103 -4h-733l18 82h949l-15 -70l-1003 -1151l-125 -131v-4q31 4 102 4h781l-15 -82h-997z" />
<glyph unicode="[" horiz-adv-x="540" d="M47 -195l326 1680h221l-16 -82h-134l-292 -1516h133l-17 -82h-221z" />
<glyph unicode="\" horiz-adv-x="784" d="M268 1516h86l205 -1602h-86z" />
<glyph unicode="]" horiz-adv-x="540" d="M-35 -195l17 82h133l293 1516h-134l17 82h221l-326 -1680h-221z" />
<glyph unicode="^" horiz-adv-x="1228" d="M174 516l404 918h65l404 -918h-95l-342 795l-342 -795h-94z" />
<glyph unicode="_" horiz-adv-x="1181" d="M-37 -82l14 82h1016l-14 -82h-1016z" />
<glyph unicode="`" horiz-adv-x="1042" d="M309 1763h107l92 -227h-82z" />
<glyph unicode="a" horiz-adv-x="1040" d="M14 231.5q0 116.5 65.5 199.5t177.5 122t221.5 55.5t232.5 16.5h80q14 80 14 131q0 209 -230 209q-168 0 -311 -99l-37 78q145 104 348 105q319 0 320 -281q0 -51 -12 -117l-127 -651h-86l26 133l25 94h-4q-47 -92 -152.5 -172t-242.5 -80q-131 0 -219.5 70t-88.5 186.5z M104 240q0 -78 57.5 -131.5t168.5 -53.5q154 0 276.5 137.5t159.5 305.5l10 47h-65q-607 0 -607 -305z" />
<glyph unicode="b" horiz-adv-x="1181" d="M61 0l279 1434h86l-100 -523l-29 -94h4q57 102 164.5 167t230.5 65q178 0 275.5 -107.5t97.5 -296.5q0 -289 -167 -479.5t-390 -190.5q-123 0 -211 60.5t-119 171.5h-4q0 -47 -10 -101l-21 -106h-86zM231 377q0 -139 71 -228.5t210 -89.5q178 0 322.5 162t144.5 420 q0 152 -76 238t-207 86q-139 0 -247.5 -90.5t-163 -223.5t-54.5 -274z" />
<glyph unicode="c" horiz-adv-x="1105" d="M78 403q0 279 192.5 462.5t431.5 183.5q104 0 203 -37t158 -109l-62 -63q-49 57 -128.5 91t-165.5 34q-205 0 -372 -158t-167 -395q0 -160 103.5 -256.5t260.5 -96.5q213 0 371 148l33 -78q-76 -70 -182.5 -112t-216.5 -42q-201 0 -330 116.5t-129 311.5z" />
<glyph unicode="d" horiz-adv-x="1185" d="M80 379q0 289 167 479.5t390 190.5q121 0 210 -60.5t120 -171.5h4q0 47 10 94l102 523h86l-278 -1434h-86l22 119l25 88h-4q-57 -96 -160.5 -164t-232.5 -68q-180 0 -277.5 108t-97.5 296zM170 383q0 -152 76 -238t209 -86q137 0 246.5 92.5t163 225.5t53.5 270 q0 139 -71 228.5t-210 89.5q-178 0 -322.5 -162t-144.5 -420z" />
<glyph unicode="e" horiz-adv-x="1122" d="M80 403q0 254 172 450t424 196q178 0 267 -99.5t89 -263.5q0 -68 -26 -160h-822q-12 -59 -12 -112q0 -156 94 -255.5t266 -99.5q182 0 342 129l33 -77q-68 -55 -170 -95.5t-205 -40.5q-201 0 -326.5 116.5t-125.5 311.5zM205 606h727q8 31 8 86q0 137 -72.5 207 t-191.5 70q-150 0 -280 -95.5t-191 -267.5z" />
<glyph unicode="f" horiz-adv-x="634" d="M92 0l182 940h-129l15 78h129l10 51q18 96 57 168t81 109.5t93.5 61.5t86 30t69.5 6q43 0 64 -4l-19 -80q-20 4 -45 4q-39 0 -76 -10.5t-84 -38t-85 -92t-56 -156.5l-10 -49h280l-14 -78h-281l-182 -940h-86z" />
<glyph unicode="g" horiz-adv-x="1169" d="M16 -350l50 71q113 -67 262 -67h4q172 0 296 88t160 264l23 109l27 94h-4q-131 -209 -365 -209q-178 0 -282.5 108.5t-104.5 292.5q0 150 59.5 295.5t186.5 249t290 103.5q125 0 218.5 -47.5t119.5 -153.5h5q-2 25 2 49l24 127h86l-199 -1028q-43 -219 -190 -322.5 t-342 -103.5q-178 0 -326 80zM172 403q0 -150 80 -234.5t219 -84.5q109 0 195 57.5t138 148.5t78.5 194.5t26.5 205.5q0 274 -286 275q-205 0 -328 -172.5t-123 -389.5z" />
<glyph unicode="h" horiz-adv-x="1198" d="M61 0l279 1434h86l-111 -580l-26 -94h4q51 102 181 195.5t298 93.5q141 0 213 -67t72 -191q0 -59 -17 -142l-125 -649h-86l119 618q18 96 19 156q0 94 -53.5 142.5t-143.5 48.5q-186 0 -338.5 -143.5t-191.5 -342.5l-93 -479h-86z" />
<glyph unicode="i" horiz-adv-x="442" d="M61 0l201 1024h86l-201 -1024h-86zM303 1284l31 150h102l-30 -150h-103z" />
<glyph unicode="j" horiz-adv-x="442" d="M-309 -416l16 80q12 -4 45 -4q37 0 75 10.5t85 38t85 92t56 156.5l207 1067h86l-207 -1065q-23 -119 -71 -201t-107 -117.5t-105 -48t-94 -12.5q-51 0 -71 4zM301 1284l29 150h102l-29 -150h-102z" />
<glyph unicode="k" horiz-adv-x="962" d="M61 0l281 1434h86l-160 -813h174l414 403h117l-455 -442v-4l291 -578h-98l-269 541h-188l-107 -541h-86z" />
<glyph unicode="l" horiz-adv-x="477" d="M96 158q0 27 6 59l238 1217h86l-233 -1203q-6 -33 -7 -59q0 -43 17.5 -66.5t36 -27.5t47.5 -4q14 0 26 2l-18 -80q-12 -4 -35 -4q-35 0 -67.5 9t-64.5 49t-32 108z" />
<glyph unicode="m" horiz-adv-x="1878" d="M61 0l199 1024h86l-33 -170l-26 -94h4q61 123 188 206t262 83q145 0 207 -71t62 -208h4q63 121 185 200t255 79q139 0 211 -69t72 -196q0 -57 -17 -135l-125 -649h-86l119 618q18 96 19 150q0 201 -205 201q-170 0 -305.5 -146.5t-167.5 -322.5l-97 -500h-86l119 618 q18 96 19 156q0 195 -197 195q-170 0 -309 -144.5t-174 -326.5l-97 -498h-86z" />
<glyph unicode="n" horiz-adv-x="1198" d="M61 0l199 1024h86l-31 -170l-28 -94h4q51 100 182 194.5t299 94.5q141 0 213 -67t72 -191q0 -59 -17 -142l-125 -649h-86l119 618q18 96 19 156q0 94 -53.5 142.5t-143.5 48.5q-188 0 -339.5 -143.5t-190.5 -342.5l-93 -479h-86z" />
<glyph unicode="o" horiz-adv-x="1269" d="M78 420q0 256 191.5 442.5t435.5 186.5q201 0 326.5 -123t125.5 -316q0 -258 -192.5 -446.5t-434.5 -188.5q-201 0 -326.5 125t-125.5 320zM168 422q0 -160 101.5 -261.5t260.5 -101.5q205 0 371 163t166 386q0 156 -101.5 256.5t-260.5 100.5q-209 0 -373 -161 t-164 -382z" />
<glyph unicode="p" horiz-adv-x="1183" d="M-18 -410l278 1434h86l-20 -113l-25 -92h4q57 98 158.5 164t232.5 66q178 0 276.5 -107.5t98.5 -296.5q0 -287 -167 -478.5t-386 -191.5q-125 0 -214 59.5t-120 172.5h-4q-2 -48 -12 -101l-100 -516h-86zM233 383q0 -141 72 -232.5t209 -91.5q178 0 322.5 162t144.5 420 q0 152 -76 238t-209 86q-137 0 -245.5 -91.5t-163 -222.5t-54.5 -268z" />
<glyph unicode="q" horiz-adv-x="1183" d="M78 377q0 289 168 480.5t391 191.5q123 0 210 -59.5t118 -170.5h4q2 35 10 82l22 123h86l-278 -1434h-86l100 516l29 101h-4q-59 -100 -159.5 -166t-235.5 -66q-178 0 -276.5 108t-98.5 294zM168 383q0 -150 75.5 -237t209.5 -87q137 0 246.5 92.5t164 225.5t54.5 270 q0 139 -71 228.5t-210 89.5q-178 0 -323.5 -162t-145.5 -420z" />
<glyph unicode="r" horiz-adv-x="696" d="M61 0l199 1024h86l-37 -184l-26 -95h4q59 123 158.5 205t222.5 82q29 0 61 -6l-18 -86q-33 4 -45 4q-88 0 -168 -56.5t-133.5 -143.5t-89 -177t-52.5 -176l-76 -391h-86z" />
<glyph unicode="s" horiz-adv-x="880" d="M-2 125l55 61q49 -57 128 -92t165 -35q115 0 199 54.5t84 150.5q0 68 -49.5 116t-119 77.5t-138 62.5t-117.5 93.5t-49 148.5q0 135 110.5 211t261.5 76q197 0 293 -115l-57 -62q-86 92 -238 93q-111 0 -195.5 -51.5t-84.5 -149.5q0 -70 49 -117t117.5 -76.5t138.5 -62.5 t119 -91.5t49 -144.5q0 -131 -107.5 -214t-267.5 -83q-225 0 -346 150z" />
<glyph unicode="t" horiz-adv-x="608" d="M131 940l14 78h136l57 291h86l-57 -291h268l-14 -78h-269l-108 -563q-10 -49 -11 -101q0 -204 181 -204h2q27 0 59 4l-16 -80q-12 -4 -43 -4h-2q-267 0 -267 280q0 51 13 119l106 549h-135z" />
<glyph unicode="u" horiz-adv-x="1187" d="M106 233q0 59 17 142l125 649h86l-119 -614q-18 -90 -18 -160q0 -90 45 -140.5t157 -50.5q184 0 332 149.5t182 340.5l93 475h86l-199 -1024h-86l33 170l26 94h-4q-55 -104 -181 -196.5t-296 -92.5q-123 0 -201 62.5t-78 195.5z" />
<glyph unicode="v" horiz-adv-x="1013" d="M139 1024h88l156 -809l14 -111h4q31 61 60 111l469 809h96l-600 -1024h-82z" />
<glyph unicode="w" horiz-adv-x="1685" d="M145 1024h88l123 -809l13 -111h4q31 61 57 111l434 805h101l122 -805l15 -111h4q29 59 55 111l438 809h95l-559 -1024h-93l-131 801l-12 110h-4q-31 -61 -57 -110l-435 -801h-96z" />
<glyph unicode="x" horiz-adv-x="942" d="M-72 0l478 543l-246 481h98l182 -367l27 -57h2q18 25 41 51l321 373h109l-428 -492l274 -532h-96l-211 416l-26 61h-4q-16 -27 -43 -55l-369 -422h-109z" />
<glyph unicode="y" horiz-adv-x="1064" d="M-147 -373l49 68q43 -43 118 -43q125 0 238 182l109 174l-230 1016h90l179 -831l18 -97h2q27 47 55 97l500 831h98l-776 -1270q-115 -184 -283 -184q-94 0 -167 57z" />
<glyph unicode="z" horiz-adv-x="987" d="M-41 0l12 70l766 780q90 94 97 94v4q-35 -4 -103 -4h-563l14 80h791l-15 -70l-768 -780q-23 -23 -46 -45.5t-38 -34.5l-14 -14v-4q37 4 105 4h614l-14 -80h-838z" />
<glyph unicode="{" horiz-adv-x="663" d="M98 616l17 82q84 16 143 82t78 162l33 166q74 375 352 375h16l-14 -80h-10q-25 0 -51.5 -7t-69.5 -33t-80 -90.5t-55 -162.5l-37 -190q-18 -92 -73.5 -163t-139.5 -98v-4q51 -29 84 -83t33 -119q0 -27 -7 -58l-43 -217q-12 -61 -12 -106q0 -61 17.5 -102.5t47 -57.5 t50 -21.5t41.5 -5.5h10l-16 -80q-6 -2 -19 -2q-27 0 -56.5 8.5t-70.5 32t-66.5 78.5t-25.5 135q0 45 14 123l37 193q6 37 6 65q0 143 -133 178z" />
<glyph unicode="|" horiz-adv-x="600" d="M262 -317v1925h88v-1925h-88z" />
<glyph unicode="}" horiz-adv-x="663" d="M-55 -197l14 82h21q12 0 28.5 3t51 19.5t63.5 44.5t58.5 87t43.5 139l41 215q18 100 73.5 171t139.5 95v5q-115 70 -114 196q0 27 6 58l37 192q12 61 12 107q0 61 -18.5 102t-47 57.5t-49 21.5t-41.5 5h-10l16 80q6 2 19 2q27 0 56.5 -8.5t70.5 -32t66.5 -78.5t25.5 -135 q0 -43 -14 -123l-33 -168q-6 -37 -6 -66q0 -68 34.5 -115.5t98.5 -62.5l-17 -82q-88 -18 -146 -84.5t-75 -158.5l-37 -191q-76 -377 -352 -377h-16z" />
<glyph unicode="~" horiz-adv-x="1177" d="M139 436q0 152 64.5 223.5t171.5 71.5q63 0 113.5 -23.5t82 -56.5t61.5 -65.5t71.5 -56t93.5 -23.5q63 0 100 43t45 85t8 89h82q0 -152 -64.5 -223.5t-170.5 -71.5q-63 0 -113.5 23.5t-82.5 56.5t-61.5 65.5t-71.5 56t-93 23.5q-63 0 -100 -43t-45.5 -85t-8.5 -89h-82z " />
<glyph unicode="&#xa1;" horiz-adv-x="462" d="M-10 -410l211 1076h88l-211 -1076h-88zM227 899l27 125h121l-27 -125h-121z" />
<glyph unicode="&#xa2;" d="M129 569q0 162 61.5 318.5t192.5 273.5t303 125l33 172h88l-35 -174q78 -8 139.5 -42t94 -74t54 -78.5t30.5 -65.5l6 -27l-84 -32q-2 10 -6.5 25.5t-26 56t-50 72.5t-85 57.5t-125.5 25.5q-225 0 -360.5 -188.5t-135.5 -450.5q0 -152 76 -242t231 -90q68 0 132.5 25 t107.5 59.5t76 69.5t47 59l16 25l84 -33q-6 -10 -18 -29.5t-54 -67.5t-89.5 -86t-124 -70.5t-156.5 -37.5l-33 -172h-88l33 174q-158 18 -246 128t-88 294z" />
<glyph unicode="&#xa3;" d="M-6 0l16 82h131l117 600h-92l16 82h90l68 342q29 147 157 249.5t298 102.5q182 0 297 -106l-68 -62q-88 82 -229 82q-147 0 -246.5 -82t-122.5 -203l-64 -323h406l-16 -82h-406l-117 -600h719l-16 -82h-938z" />
<glyph unicode="&#xa4;" horiz-adv-x="1198" d="M78 389l16 82h152l33 164h-152l16 82h152l139 717h393q172 0 274.5 -88.5t102.5 -243.5q0 -193 -148.5 -330t-363.5 -137h-325l-33 -164h522l-16 -82h-523l-75 -389h-88l75 389h-151zM383 717h311q180 0 299 108.5t119 272.5q0 127 -77 190.5t-218 63.5h-311z" />
<glyph unicode="&#xa5;" d="M166 455l14 82h334l18 86l-40 98h-275l16 82h226l-256 631h96l225 -566l62 -161h4q61 88 117 159l448 568h109l-502 -631h221l-16 -82h-271l-75 -98l-19 -86h328l-15 -82h-327l-90 -455h-88l90 455h-334z" />
<glyph unicode="&#xa7;" horiz-adv-x="792" d="M2 -57l61 61q47 -47 132 -47q119 0 196.5 79t83.5 195l57 973h86l-53 -985q-8 -141 -111.5 -243.5t-260.5 -102.5q-109 0 -191 70zM197 127l53 985q8 141 111.5 243.5t261.5 102.5q109 0 190 -69l-61 -62q-47 47 -131 47q-119 0 -197 -78.5t-84 -195.5l-57 -973h-86z" />
<glyph unicode="&#xa8;" horiz-adv-x="1042" d="M215 1614l29 149h94l-29 -149h-94zM496 1614l28 149h94l-28 -149h-94z" />
<glyph unicode="&#xa9;" horiz-adv-x="1722" d="M160 717q0 309 211 525t510 216q305 0 517 -216t212 -525q0 -311 -212 -526.5t-517 -215.5q-301 0 -511 215.5t-210 526.5zM252 717q0 -279 181 -467.5t448 -188.5q270 0 453.5 188.5t183.5 467.5q0 276 -183.5 465.5t-453.5 189.5q-266 0 -447.5 -189.5t-181.5 -465.5z M465 715q0 174 116.5 303t323.5 129q96 0 186.5 -49t147.5 -131l-68 -60q-41 63 -114.5 107.5t-149.5 44.5q-166 0 -258 -101.5t-92 -240.5t92 -240.5t258 -101.5q156 0 264 151l68 -59q-57 -80 -147.5 -130t-186.5 -50q-207 0 -323.5 127t-116.5 301z" />
<glyph unicode="&#xaa;" horiz-adv-x="864" d="M158 539l14 75h518l-14 -75h-518zM244 950q0 250 432 250h43l2 10q33 168 -123 168q-88 0 -188 -59l-35 65q37 29 103.5 49.5t121.5 20.5q207 0 207 -184q0 -37 -10 -82l-78 -393h-80l20 104h-4q-92 -113 -217 -117q-74 0 -134 43t-60 125zM332 956q0 -43 31 -70.5 t92 -27.5q84 0 157.5 86t87.5 162l5 20h-27q-346 0 -346 -170z" />
<glyph unicode="&#xab;" horiz-adv-x="999" d="M104 584l394 415h116l-407 -426l258 -415h-98zM422 584l418 415h116l-432 -426l258 -415h-98z" />
<glyph unicode="&#xac;" horiz-adv-x="1368" d="M223 702v82h934v-448h-86v366h-848z" />
<glyph unicode="&#xad;" horiz-adv-x="884" d="M147 539l15 82h565l-14 -82h-566z" />
<glyph unicode="&#xae;" horiz-adv-x="1722" d="M160 717q0 309 211 525t510 216q305 0 517 -216t212 -525q0 -311 -212 -526.5t-517 -215.5q-301 0 -511 215.5t-210 526.5zM252 717q0 -279 181 -467.5t448 -188.5q270 0 453.5 188.5t183.5 467.5q0 276 -183.5 465.5t-453.5 189.5q-266 0 -447.5 -189.5t-181.5 -465.5z M643 307v819h272q104 0 171 -65.5t67 -171.5q0 -86 -45 -144.5t-113 -74.5v-4q8 -10 27 -45l162 -314h-101l-174 342h-176v-342h-90zM733 727h172q72 0 114 43t42 119q0 74 -42 114.5t-114 40.5h-172v-317z" />
<glyph unicode="&#xaf;" horiz-adv-x="1042" d="M164 1610l14 82h490l-15 -82h-489z" />
<glyph unicode="&#xb0;" horiz-adv-x="796" d="M238 1149q0 119 96 212t217 93q102 0 166.5 -65.5t64.5 -163.5q0 -119 -97 -212t-214 -93q-104 0 -168.5 64.5t-64.5 164.5zM326 1149q0 -63 40.5 -105.5t108.5 -42.5q86 0 152.5 67t66.5 157q0 63 -41 105t-106 42q-86 0 -153.5 -67.5t-67.5 -155.5z" />
<glyph unicode="&#xb1;" d="M-6 539v82h485v538h88v-538h484v-82h-484v-539h-88v539h-485zM35 -231h975v-82h-975v82z" />
<glyph unicode="&#xb2;" horiz-adv-x="770" d="M164 866q2 90 47 166t109.5 122t139.5 94t138.5 88t105 97.5t41.5 125.5q0 61 -41.5 102t-113.5 41q-102 0 -213 -103l-43 58q47 49 117.5 84t140.5 35q115 0 174 -59.5t59 -153.5q0 -92 -51 -164t-128 -121t-155.5 -93t-145 -106.5t-87.5 -138.5h465l-14 -74h-545z" />
<glyph unicode="&#xb3;" horiz-adv-x="770" d="M154 979l61 49q96 -109 227 -108q92 0 167 71.5t75 171.5q0 74 -55.5 117t-130.5 43h-66l-14 49l272 260l62 51v5q-37 -6 -78 -7h-336l14 74h522l-10 -53l-323 -307q78 -6 150.5 -61.5t72.5 -170.5q0 -125 -97.5 -221t-226.5 -96q-170 0 -286 133z" />
<glyph unicode="&#xb4;" horiz-adv-x="1042" d="M256 1536l182 227h123l-207 -227h-98z" />
<glyph unicode="&#xb5;" horiz-adv-x="1185" d="M-2 -410l278 1434h86l-118 -614q-18 -90 -19 -160q0 -90 45 -140.5t158 -50.5q184 0 331.5 149.5t182.5 340.5l92 475h86l-198 -1024h-86l32 170l27 94h-4q-55 -104 -181 -196.5t-296 -92.5q-172 0 -240 109h-4q-10 -109 -18 -152l-68 -342h-86z" />
<glyph unicode="&#xb6;" horiz-adv-x="1112" d="M147 899q0 215 175.5 375t392.5 160h450l-14 -82h-342l-283 -1454h-86l115 596q-166 0 -287 116.5t-121 288.5zM653 -102l256 1325h86l-256 -1325h-86z" />
<glyph unicode="&#xb7;" horiz-adv-x="444" d="M143 520l25 129h125l-25 -129h-125z" />
<glyph unicode="&#xb8;" horiz-adv-x="1042" d="M217 -408l16 76q27 -10 80 -10q49 0 88 20.5t39 67.5q0 66 -110 66q-17 0 -25 -2l92 227l68 -12l-57 -148q49 -8 82.5 -42t33.5 -89q0 -80 -64.5 -122t-144.5 -42q-57 0 -98 10z" />
<glyph unicode="&#xb9;" horiz-adv-x="770" d="M223 866l15 74h196l127 659l12 46h-4q-10 -16 -55 -56l-104 -86l-45 60l229 192h78l-160 -815h190l-14 -74h-465z" />
<glyph unicode="&#xba;" horiz-adv-x="997" d="M188 539l15 75h602l-14 -75h-603zM260 1061q0 158 120 276.5t269 118.5q127 0 208 -79t81 -197q0 -160 -120.5 -278t-270.5 -118q-127 0 -207 78t-80 199zM340 1067q0 -92 57.5 -149.5t149.5 -57.5q119 0 215 93.5t96 224.5q0 90 -58.5 146t-150.5 56q-121 0 -215 -92 t-94 -221z" />
<glyph unicode="&#xbb;" horiz-adv-x="999" d="M35 158l432 426l-258 415h98l262 -426l-417 -415h-117zM377 158l407 426l-258 415h99l262 -426l-393 -415h-117z" />
<glyph unicode="&#xbc;" horiz-adv-x="1835" d="M113 545l14 73h197l127 660l12 45h-4q-10 -16 -56 -55l-104 -86l-45 59l229 193h78l-160 -816h191l-14 -73h-465zM375 0l966 1434h95l-965 -1434h-96zM1018 248l10 53l569 588h70l-111 -567h140l-15 -74h-139l-49 -248h-78l49 248h-446zM1151 322h328l57 301l33 133h-4 q-45 -55 -92 -103l-322 -327v-4z" />
<glyph unicode="&#xbd;" horiz-adv-x="1822" d="M111 545l14 73h197l127 660l12 45h-4q-10 -16 -56 -55l-104 -86l-45 59l229 193h78l-160 -816h191l-15 -73h-464zM373 0l966 1434h95l-965 -1434h-96zM1053 0q2 90 47 166t109.5 122t139 94t138 88t105.5 97.5t42 124.5q0 61 -42 102.5t-113 41.5q-102 0 -213 -103 l-43 58q47 49 117.5 83.5t140.5 34.5q115 0 174 -59t59 -154q0 -92 -51 -163.5t-128 -121t-156 -93.5t-145.5 -106t-86.5 -138h465l-15 -74h-544z" />
<glyph unicode="&#xbe;" horiz-adv-x="1906" d="M109 657l61 50q96 -109 227 -109q92 0 167 71.5t75 172.5q0 74 -55.5 116.5t-130.5 42.5h-66l-14 50l272 260l62 51v4q-37 -6 -78 -6h-336l14 74h522l-10 -54l-323 -307q78 -6 150.5 -61.5t72.5 -169.5q0 -125 -97.5 -221.5t-226.5 -96.5q-170 0 -286 133zM449 0 l966 1434h94l-964 -1434h-96zM1092 248l10 53l569 588h70l-111 -567h139l-14 -74h-139l-49 -248h-78l49 248h-446zM1225 322h327l58 301l32 133h-4q-45 -55 -92 -103l-321 -327v-4z" />
<glyph unicode="&#xbf;" horiz-adv-x="878" d="M-41 -133q0 100 46 183t113.5 141.5t138.5 112.5t130 125t76 151l18 86h88l-18 -86q-20 -96 -79.5 -177t-128.5 -136.5t-135.5 -111t-110.5 -127t-44 -157.5q0 -94 67.5 -154.5t182.5 -60.5q143 0 279 86l34 -76q-150 -96 -317 -96q-158 0 -249 82t-91 215zM506 899 l26 125h121l-26 -125h-121z" />
<glyph unicode="&#xc0;" horiz-adv-x="1280" d="M-51 0l813 1434h92l260 -1434h-90l-88 496h-608l-281 -496h-98zM373 578h547l-103 581l-24 172h-5q-51 -111 -86 -172zM672 1763h106l92 -227h-82z" />
<glyph unicode="&#xc1;" horiz-adv-x="1280" d="M-51 0l813 1434h92l260 -1434h-90l-88 496h-608l-281 -496h-98zM373 578h547l-103 581l-24 172h-5q-51 -111 -86 -172zM778 1536l183 227h122l-206 -227h-99z" />
<glyph unicode="&#xc2;" horiz-adv-x="1280" d="M-51 0l813 1434h92l260 -1434h-90l-88 496h-608l-281 -496h-98zM373 578h547l-103 581l-24 172h-5q-51 -111 -86 -172zM606 1536l209 227h107l118 -227h-94l-82 164h-4l-147 -164h-107z" />
<glyph unicode="&#xc3;" horiz-adv-x="1280" d="M-51 0l813 1434h92l260 -1434h-90l-88 496h-608l-281 -496h-98zM373 578h547l-103 581l-24 172h-5q-51 -111 -86 -172zM547 1542q41 221 196 221q45 0 79 -23.5t51.5 -52t43 -52t54.5 -23.5q82 0 106 145h82q-23 -113 -70 -167t-128 -54q-45 0 -78 23.5t-50.5 52 t-43 52.5t-56.5 24q-43 0 -69.5 -47.5t-34.5 -98.5h-82z" />
<glyph unicode="&#xc4;" horiz-adv-x="1280" d="M-51 0l813 1434h92l260 -1434h-90l-88 496h-608l-281 -496h-98zM373 578h547l-103 581l-24 172h-5q-51 -111 -86 -172zM659 1614l29 149h94l-28 -149h-95zM940 1614l29 149h94l-29 -149h-94z" />
<glyph unicode="&#xc5;" horiz-adv-x="1280" d="M-51 0l813 1434h92l260 -1434h-90l-88 496h-608l-281 -496h-98zM373 578h547l-103 581l-24 172h-5q-51 -111 -86 -172zM713 1636q0 59 46 106.5t105 47.5q61 0 94 -33t33 -88q0 -59 -46 -106t-105 -47q-61 0 -94 31.5t-33 88.5zM784 1636q1 -49 56 -49q33 0 56.5 23.5 t23.5 58.5q0 23 -15.5 37t-40.5 14q-33 0 -56.5 -23.5t-23.5 -60.5z" />
<glyph unicode="&#xc6;" horiz-adv-x="1695" d="M-63 0l866 1434h926l-17 -82h-696l-115 -588h572l-17 -82h-571l-117 -600h735l-16 -82h-823l133 682h-348l-412 -682h-100zM498 764h315l115 588h-74z" />
<glyph unicode="&#xc7;" horiz-adv-x="1472" d="M133 586q0 233 122 436t318.5 319.5t413.5 116.5q139 0 273.5 -44t218.5 -136l-62 -64q-160 160 -430 160q-195 0 -370 -104.5t-283.5 -287.5t-108.5 -396q0 -229 140.5 -378t371.5 -149q137 0 276.5 52.5t246.5 142.5l51 -68q-102 -92 -263 -151.5t-311 -59.5l-37 -98 q49 -8 83 -42t34 -89q0 -80 -64.5 -122t-144.5 -42q-57 0 -98 10l16 76q27 -10 80 -10q49 0 88 20.5t39 67.5q0 66 -110 66q-17 0 -25 -2l68 170q-246 20 -389.5 187t-143.5 419z" />
<glyph unicode="&#xc8;" horiz-adv-x="1132" d="M100 0l281 1434h784l-18 -82h-694l-115 -588h571l-16 -82h-569l-119 -600h733l-14 -82h-824zM659 1763h107l92 -227h-82z" />
<glyph unicode="&#xc9;" horiz-adv-x="1132" d="M100 0l281 1434h784l-18 -82h-694l-115 -588h571l-16 -82h-569l-119 -600h733l-14 -82h-824zM766 1536l182 227h123l-207 -227h-98z" />
<glyph unicode="&#xca;" horiz-adv-x="1132" d="M100 0l281 1434h784l-18 -82h-694l-115 -588h571l-16 -82h-569l-119 -600h733l-14 -82h-824zM594 1536l209 227h106l119 -227h-94l-82 164h-4l-148 -164h-106z" />
<glyph unicode="&#xcb;" horiz-adv-x="1132" d="M100 0l281 1434h784l-18 -82h-694l-115 -588h571l-16 -82h-569l-119 -600h733l-14 -82h-824zM647 1614l29 149h94l-29 -149h-94zM928 1614l28 149h95l-29 -149h-94z" />
<glyph unicode="&#xcc;" horiz-adv-x="524" d="M100 0l281 1434h88l-281 -1434h-88zM287 1763h106l92 -227h-82z" />
<glyph unicode="&#xcd;" horiz-adv-x="524" d="M100 0l281 1434h88l-281 -1434h-88zM393 1536l182 227h123l-206 -227h-99z" />
<glyph unicode="&#xce;" horiz-adv-x="524" d="M100 0l281 1434h88l-281 -1434h-88zM221 1536l209 227h107l118 -227h-94l-82 164h-4l-147 -164h-107z" />
<glyph unicode="&#xcf;" horiz-adv-x="524" d="M100 0l281 1434h88l-281 -1434h-88zM274 1614l29 149h94l-28 -149h-95zM555 1614l29 149h94l-29 -149h-94z" />
<glyph unicode="&#xd0;" horiz-adv-x="1527" d="M117 0l133 682h-123l16 82h123l131 670h428q287 0 450 -144.5t163 -408.5q0 -369 -241 -625t-611 -256h-469zM219 82h348q334 0 556.5 227.5t222.5 567.5q0 227 -141.5 351t-389.5 124h-346l-117 -588h377l-16 -82h-377z" />
<glyph unicode="&#xd1;" horiz-adv-x="1521" d="M100 0l281 1434h72l598 -1125l82 -180h4q8 109 22 180l219 1125h88l-280 -1434h-72l-598 1124l-82 181h-4q-8 -109 -22 -181l-220 -1124h-88zM659 1542q41 221 197 221q45 0 79 -23.5t51.5 -52t43 -52t53.5 -23.5q82 0 107 145h82q-23 -113 -70 -167t-129 -54 q-45 0 -77.5 23.5t-50 52t-43 52.5t-56.5 24q-43 0 -69.5 -47.5t-35.5 -98.5h-82z" />
<glyph unicode="&#xd2;" horiz-adv-x="1691" d="M131 590q0 229 125 431t325.5 319.5t415.5 117.5q270 0 440.5 -168t170.5 -430q0 -233 -126 -439t-326 -326t-415 -120q-270 0 -440 172.5t-170 442.5zM223 590q0 -233 144.5 -382t373.5 -149q190 0 369.5 107.5t292.5 294t113 397.5q0 227 -144.5 371.5t-374.5 144.5 q-195 0 -373 -104.5t-289.5 -287.5t-111.5 -392zM868 1763h107l92 -227h-82z" />
<glyph unicode="&#xd3;" horiz-adv-x="1691" d="M131 590q0 229 125 431t325.5 319.5t415.5 117.5q270 0 440.5 -168t170.5 -430q0 -233 -126 -439t-326 -326t-415 -120q-270 0 -440 172.5t-170 442.5zM223 590q0 -233 144.5 -382t373.5 -149q190 0 369.5 107.5t292.5 294t113 397.5q0 227 -144.5 371.5t-374.5 144.5 q-195 0 -373 -104.5t-289.5 -287.5t-111.5 -392zM975 1536l182 227h123l-207 -227h-98z" />
<glyph unicode="&#xd4;" horiz-adv-x="1691" d="M131 590q0 229 125 431t325.5 319.5t415.5 117.5q270 0 440.5 -168t170.5 -430q0 -233 -126 -439t-326 -326t-415 -120q-270 0 -440 172.5t-170 442.5zM223 590q0 -233 144.5 -382t373.5 -149q190 0 369.5 107.5t292.5 294t113 397.5q0 227 -144.5 371.5t-374.5 144.5 q-195 0 -373 -104.5t-289.5 -287.5t-111.5 -392zM803 1536l209 227h106l119 -227h-94l-82 164h-4l-148 -164h-106z" />
<glyph unicode="&#xd5;" horiz-adv-x="1691" d="M131 590q0 229 125 431t325.5 319.5t415.5 117.5q270 0 440.5 -168t170.5 -430q0 -233 -126 -439t-326 -326t-415 -120q-270 0 -440 172.5t-170 442.5zM223 590q0 -233 144.5 -382t373.5 -149q190 0 369.5 107.5t292.5 294t113 397.5q0 227 -144.5 371.5t-374.5 144.5 q-195 0 -373 -104.5t-289.5 -287.5t-111.5 -392zM743 1542q41 221 197 221q45 0 79 -23.5t51 -52t43 -52t54 -23.5q82 0 107 145h82q-23 -113 -70 -167t-129 -54q-45 0 -77.5 23.5t-50 52t-43 52.5t-56.5 24q-43 0 -69.5 -47.5t-35.5 -98.5h-82z" />
<glyph unicode="&#xd6;" horiz-adv-x="1691" d="M131 590q0 229 125 431t325.5 319.5t415.5 117.5q270 0 440.5 -168t170.5 -430q0 -233 -126 -439t-326 -326t-415 -120q-270 0 -440 172.5t-170 442.5zM223 590q0 -233 144.5 -382t373.5 -149q190 0 369.5 107.5t292.5 294t113 397.5q0 227 -144.5 371.5t-374.5 144.5 q-195 0 -373 -104.5t-289.5 -287.5t-111.5 -392zM856 1614l29 149h94l-29 -149h-94zM1137 1614l28 149h95l-29 -149h-94z" />
<glyph unicode="&#xd7;" d="M66 57l458 523l-458 522l57 57l457 -518l456 518l58 -57l-461 -522l461 -523l-58 -57l-456 518l-457 -518z" />
<glyph unicode="&#xd8;" horiz-adv-x="1691" d="M131 590q0 229 125 431t325.5 319.5t415.5 117.5q223 0 381 -119l131 144l66 -56l-131 -143q164 -170 164 -424q0 -233 -126 -439t-326 -326t-415 -120q-227 0 -383 121l-131 -143l-67 53l135 148q-164 170 -164 436zM223 590q0 -226 133 -371l963 1055 q-135 100 -322 100q-195 0 -373 -104.5t-289.5 -287.5t-111.5 -392zM418 162q135 -102 323 -103q190 0 369.5 107.5t292.5 294t113 397.5q0 215 -134 359z" />
<glyph unicode="&#xd9;" horiz-adv-x="1476" d="M172 383q0 55 12 117l183 934h88l-183 -936q-10 -47 -10 -107q0 -158 98.5 -245t274.5 -87q203 0 347 119t185 324l183 932h88l-189 -953q-45 -236 -212 -371t-402 -135q-215 0 -339 109t-124 299zM762 1763h106l93 -227h-82z" />
<glyph unicode="&#xda;" horiz-adv-x="1476" d="M172 383q0 55 12 117l183 934h88l-183 -936q-10 -47 -10 -107q0 -158 98.5 -245t274.5 -87q203 0 347 119t185 324l183 932h88l-189 -953q-45 -236 -212 -371t-402 -135q-215 0 -339 109t-124 299zM868 1536l183 227h123l-207 -227h-99z" />
<glyph unicode="&#xdb;" horiz-adv-x="1476" d="M172 383q0 55 12 117l183 934h88l-183 -936q-10 -47 -10 -107q0 -158 98.5 -245t274.5 -87q203 0 347 119t185 324l183 932h88l-189 -953q-45 -236 -212 -371t-402 -135q-215 0 -339 109t-124 299zM696 1536l209 227h107l118 -227h-94l-82 164h-4l-147 -164h-107z" />
<glyph unicode="&#xdc;" horiz-adv-x="1476" d="M172 383q0 55 12 117l183 934h88l-183 -936q-10 -47 -10 -107q0 -158 98.5 -245t274.5 -87q203 0 347 119t185 324l183 932h88l-189 -953q-45 -236 -212 -371t-402 -135q-215 0 -339 109t-124 299zM750 1614l28 149h94l-28 -149h-94zM1030 1614l29 149h94l-29 -149h-94z " />
<glyph unicode="&#xdd;" horiz-adv-x="1161" d="M203 1434h94l227 -566l60 -161h4q63 88 119 159l448 568h109l-646 -813l-122 -621h-88l122 623zM682 1536l182 227h123l-207 -227h-98z" />
<glyph unicode="&#xde;" horiz-adv-x="1214" d="M100 0l281 1434h88l-53 -267h362q180 0 283.5 -89t103.5 -247q0 -225 -149.5 -364t-358.5 -139h-403l-66 -328h-88zM268 410h381q180 0 302 112.5t122 308.5q0 121 -77.5 187.5t-217.5 66.5h-379z" />
<glyph unicode="&#xdf;" horiz-adv-x="1148" d="M61 0l213 1104q33 164 160 259t275 95q143 0 222 -71.5t79 -178.5q0 -84 -52.5 -155.5t-116 -113.5t-115.5 -96.5t-52 -105.5q0 -45 53 -95t117.5 -92t118 -111.5t53.5 -147.5q0 -125 -106.5 -215t-245.5 -90q-188 0 -324 71l18 90q45 -33 136.5 -55t167.5 -22 q98 0 180 57t82 164q0 61 -54.5 121.5t-118 100.5t-117.5 100.5t-54 121.5q0 68 53 132.5t115.5 105.5t116 103.5t53.5 127.5q0 70 -53.5 120t-155.5 50q-119 0 -221.5 -78.5t-129.5 -212.5l-211 -1083h-86z" />
<glyph unicode="&#xe0;" horiz-adv-x="1040" d="M14 231.5q0 116.5 65.5 199.5t177.5 122t221.5 55.5t232.5 16.5h80q14 80 14 131q0 209 -230 209q-168 0 -311 -99l-37 78q145 104 348 105q319 0 320 -281q0 -51 -12 -117l-127 -651h-86l26 133l25 94h-4q-47 -92 -152.5 -172t-242.5 -80q-131 0 -219.5 70t-88.5 186.5z M104 240q0 -78 57.5 -131.5t168.5 -53.5q154 0 276.5 137.5t159.5 305.5l10 47h-65q-607 0 -607 -305zM465 1434h106l93 -228h-82z" />
<glyph unicode="&#xe1;" horiz-adv-x="1040" d="M14 231.5q0 116.5 65.5 199.5t177.5 122t221.5 55.5t232.5 16.5h80q14 80 14 131q0 209 -230 209q-168 0 -311 -99l-37 78q145 104 348 105q319 0 320 -281q0 -51 -12 -117l-127 -651h-86l26 133l25 94h-4q-47 -92 -152.5 -172t-242.5 -80q-131 0 -219.5 70t-88.5 186.5z M104 240q0 -78 57.5 -131.5t168.5 -53.5q154 0 276.5 137.5t159.5 305.5l10 47h-65q-607 0 -607 -305zM571 1206l183 228h123l-207 -228h-99z" />
<glyph unicode="&#xe2;" horiz-adv-x="1040" d="M14 231.5q0 116.5 65.5 199.5t177.5 122t221.5 55.5t232.5 16.5h80q14 80 14 131q0 209 -230 209q-168 0 -311 -99l-37 78q145 104 348 105q319 0 320 -281q0 -51 -12 -117l-127 -651h-86l26 133l25 94h-4q-47 -92 -152.5 -172t-242.5 -80q-131 0 -219.5 70t-88.5 186.5z M104 240q0 -78 57.5 -131.5t168.5 -53.5q154 0 276.5 137.5t159.5 305.5l10 47h-65q-607 0 -607 -305zM399 1206l209 228h107l119 -228h-95l-82 164h-4l-147 -164h-107z" />
<glyph unicode="&#xe3;" horiz-adv-x="1040" d="M14 231.5q0 116.5 65.5 199.5t177.5 122t221.5 55.5t232.5 16.5h80q14 80 14 131q0 209 -230 209q-168 0 -311 -99l-37 78q145 104 348 105q319 0 320 -281q0 -51 -12 -117l-127 -651h-86l26 133l25 94h-4q-47 -92 -152.5 -172t-242.5 -80q-131 0 -219.5 70t-88.5 186.5z M104 240q0 -78 57.5 -131.5t168.5 -53.5q154 0 276.5 137.5t159.5 305.5l10 47h-65q-607 0 -607 -305zM340 1212q41 221 197 222q45 0 78.5 -24t51 -52.5t43 -52t54.5 -23.5q82 0 106 145h82q-23 -113 -69.5 -167t-128.5 -54q-45 0 -78 23.5t-50.5 52.5t-43 52.5t-56.5 23.5 q-43 0 -69.5 -47t-34.5 -99h-82z" />
<glyph unicode="&#xe4;" horiz-adv-x="1040" d="M14 231.5q0 116.5 65.5 199.5t177.5 122t221.5 55.5t232.5 16.5h80q14 80 14 131q0 209 -230 209q-168 0 -311 -99l-37 78q145 104 348 105q319 0 320 -281q0 -51 -12 -117l-127 -651h-86l26 133l25 94h-4q-47 -92 -152.5 -172t-242.5 -80q-131 0 -219.5 70t-88.5 186.5z M104 240q0 -78 57.5 -131.5t168.5 -53.5q154 0 276.5 137.5t159.5 305.5l10 47h-65q-607 0 -607 -305zM453 1284l28 150h94l-28 -150h-94zM733 1284l29 150h94l-29 -150h-94z" />
<glyph unicode="&#xe5;" horiz-adv-x="1040" d="M14 231.5q0 116.5 65.5 199.5t177.5 122t221.5 55.5t232.5 16.5h80q14 80 14 131q0 209 -230 209q-168 0 -311 -99l-37 78q145 104 348 105q319 0 320 -281q0 -51 -12 -117l-127 -651h-86l26 133l25 94h-4q-47 -92 -152.5 -172t-242.5 -80q-131 0 -219.5 70t-88.5 186.5z M104 240q0 -78 57.5 -131.5t168.5 -53.5q154 0 276.5 137.5t159.5 305.5l10 47h-65q-607 0 -607 -305zM506 1307q0 59 46 106t105 47q61 0 94 -32.5t33 -88.5q0 -59 -46 -106t-105 -47q-61 0 -94 31.5t-33 89.5zM578 1307q0 -50 55 -50q33 0 56.5 24t23.5 58 q0 23 -15.5 37.5t-40.5 14.5q-33 0 -56 -24t-23 -60z" />
<glyph unicode="&#xe6;" horiz-adv-x="1777" d="M16 231q0 119 61.5 200t172 119t216 51t241.5 13h81q18 102 19 144q0 207 -240 207q-164 0 -301 -99l-37 78q61 45 155.5 75t182.5 30q307 0 322 -222h4q164 221 436 222q176 0 267.5 -98.5t91.5 -266.5q0 -29 -6.5 -66.5t-12.5 -60.5l-6 -22h-803q-14 -66 -14 -132 q0 -164 92 -254t248 -90q180 0 344 129l33 -77q-68 -57 -174.5 -96.5t-198.5 -39.5q-168 0 -280.5 82t-141.5 224h-4q-12 -31 -42 -73t-83 -99.5t-138 -95.5t-184 -38q-131 0 -216 67.5t-85 188.5zM109 238q0 -78 57 -130.5t166 -52.5q156 0 275.5 133.5t156.5 300.5l10 46 h-141q-524 0 -524 -297zM883 614h706q6 43 6 82q0 137 -74.5 205t-191.5 68q-145 0 -266 -91.5t-180 -263.5z" />
<glyph unicode="&#xe7;" horiz-adv-x="1107" d="M80 403q0 279 192.5 462.5t432.5 183.5q104 0 202.5 -37t157.5 -109l-61 -63q-49 57 -129 91t-166 34q-205 0 -372 -158t-167 -395q0 -160 103.5 -256.5t261.5 -96.5q213 0 370 148l33 -78q-76 -70 -182.5 -112t-216.5 -42h-9l-36 -98q49 -8 82.5 -42t33.5 -89 q0 -80 -64.5 -122t-144.5 -42q-57 0 -98 10l16 76q27 -10 80 -10q49 0 88 20.5t39 67.5q0 66 -110 66q-17 0 -25 -2l70 172q-170 23 -275.5 135t-105.5 286z" />
<glyph unicode="&#xe8;" horiz-adv-x="1122" d="M80 403q0 254 172 450t424 196q178 0 267 -99.5t89 -263.5q0 -68 -26 -160h-822q-12 -59 -12 -112q0 -156 94 -255.5t266 -99.5q182 0 342 129l33 -77q-68 -55 -170 -95.5t-205 -40.5q-201 0 -326.5 116.5t-125.5 311.5zM205 606h727q8 31 8 86q0 137 -72.5 207 t-191.5 70q-150 0 -280 -95.5t-191 -267.5zM567 1434h107l92 -228h-82z" />
<glyph unicode="&#xe9;" horiz-adv-x="1122" d="M80 403q0 254 172 450t424 196q178 0 267 -99.5t89 -263.5q0 -68 -26 -160h-822q-12 -59 -12 -112q0 -156 94 -255.5t266 -99.5q182 0 342 129l33 -77q-68 -55 -170 -95.5t-205 -40.5q-201 0 -326.5 116.5t-125.5 311.5zM205 606h727q8 31 8 86q0 137 -72.5 207 t-191.5 70q-150 0 -280 -95.5t-191 -267.5zM674 1206l182 228h123l-207 -228h-98z" />
<glyph unicode="&#xea;" horiz-adv-x="1122" d="M80 403q0 254 172 450t424 196q178 0 267 -99.5t89 -263.5q0 -68 -26 -160h-822q-12 -59 -12 -112q0 -156 94 -255.5t266 -99.5q182 0 342 129l33 -77q-68 -55 -170 -95.5t-205 -40.5q-201 0 -326.5 116.5t-125.5 311.5zM205 606h727q8 31 8 86q0 137 -72.5 207 t-191.5 70q-150 0 -280 -95.5t-191 -267.5zM502 1206l209 228h106l119 -228h-94l-82 164h-4l-148 -164h-106z" />
<glyph unicode="&#xeb;" horiz-adv-x="1122" d="M80 403q0 254 172 450t424 196q178 0 267 -99.5t89 -263.5q0 -68 -26 -160h-822q-12 -59 -12 -112q0 -156 94 -255.5t266 -99.5q182 0 342 129l33 -77q-68 -55 -170 -95.5t-205 -40.5q-201 0 -326.5 116.5t-125.5 311.5zM205 606h727q8 31 8 86q0 137 -72.5 207 t-191.5 70q-150 0 -280 -95.5t-191 -267.5zM555 1284l29 150h94l-29 -150h-94zM836 1284l28 150h94l-28 -150h-94z" />
<glyph unicode="&#xec;" horiz-adv-x="442" d="M61 0l199 1024h86l-199 -1024h-86zM180 1434h107l92 -228h-82z" />
<glyph unicode="&#xed;" horiz-adv-x="442" d="M61 0l199 1024h86l-199 -1024h-86zM287 1206l182 228h123l-207 -228h-98z" />
<glyph unicode="&#xee;" horiz-adv-x="442" d="M61 0l199 1024h86l-199 -1024h-86zM115 1206l209 228h106l119 -228h-94l-82 164h-4l-148 -164h-106z" />
<glyph unicode="&#xef;" horiz-adv-x="442" d="M61 0l199 1024h86l-199 -1024h-86zM168 1284l29 150h94l-29 -150h-94zM449 1284l28 150h94l-28 -150h-94z" />
<glyph unicode="&#xf0;" horiz-adv-x="1179" d="M74 375q0 223 159.5 403t421.5 180q66 0 124.5 -14t93 -34.5t60 -42t36.5 -36.5l10 -14h4q-35 240 -209 381l-383 -164l-20 76l329 141q-121 72 -292 121l36 72q209 -57 347 -154l284 121l23 -76l-238 -100q217 -195 217 -510q0 -115 -35.5 -240t-105.5 -241.5 t-191.5 -192.5t-275.5 -76q-190 0 -292.5 115t-102.5 285zM164 379q0 -137 80 -229.5t225 -92.5q211 0 355.5 181.5t144.5 369.5q0 121 -85 195t-231 74q-199 0 -344 -147.5t-145 -350.5z" />
<glyph unicode="&#xf1;" horiz-adv-x="1198" d="M61 0l199 1024h86l-31 -170l-28 -94h4q51 100 182 194.5t299 94.5q141 0 213 -67t72 -191q0 -59 -17 -142l-125 -649h-86l119 618q18 96 19 156q0 94 -53.5 142.5t-143.5 48.5q-188 0 -339.5 -143.5t-190.5 -342.5l-93 -479h-86zM463 1212q41 221 196 222q45 0 79 -24 t51.5 -52.5t43 -52t54.5 -23.5q82 0 106 145h82q-23 -113 -70 -167t-128 -54q-45 0 -78 23.5t-50.5 52.5t-43 52.5t-56.5 23.5q-43 0 -69.5 -47t-34.5 -99h-82z" />
<glyph unicode="&#xf2;" horiz-adv-x="1269" d="M78 420q0 256 191.5 442.5t435.5 186.5q201 0 326.5 -123t125.5 -316q0 -258 -192.5 -446.5t-434.5 -188.5q-201 0 -326.5 125t-125.5 320zM168 422q0 -160 101.5 -261.5t260.5 -101.5q205 0 371 163t166 386q0 156 -101.5 256.5t-260.5 100.5q-209 0 -373 -161 t-164 -382zM594 1434h106l93 -228h-82z" />
<glyph unicode="&#xf3;" horiz-adv-x="1269" d="M78 420q0 256 191.5 442.5t435.5 186.5q201 0 326.5 -123t125.5 -316q0 -258 -192.5 -446.5t-434.5 -188.5q-201 0 -326.5 125t-125.5 320zM168 422q0 -160 101.5 -261.5t260.5 -101.5q205 0 371 163t166 386q0 156 -101.5 256.5t-260.5 100.5q-209 0 -373 -161 t-164 -382zM700 1206l183 228h123l-207 -228h-99z" />
<glyph unicode="&#xf4;" horiz-adv-x="1269" d="M78 420q0 256 191.5 442.5t435.5 186.5q201 0 326.5 -123t125.5 -316q0 -258 -192.5 -446.5t-434.5 -188.5q-201 0 -326.5 125t-125.5 320zM168 422q0 -160 101.5 -261.5t260.5 -101.5q205 0 371 163t166 386q0 156 -101.5 256.5t-260.5 100.5q-209 0 -373 -161 t-164 -382zM528 1206l209 228h107l119 -228h-95l-82 164h-4l-147 -164h-107z" />
<glyph unicode="&#xf5;" horiz-adv-x="1269" d="M78 420q0 256 191.5 442.5t435.5 186.5q201 0 326.5 -123t125.5 -316q0 -258 -192.5 -446.5t-434.5 -188.5q-201 0 -326.5 125t-125.5 320zM168 422q0 -160 101.5 -261.5t260.5 -101.5q205 0 371 163t166 386q0 156 -101.5 256.5t-260.5 100.5q-209 0 -373 -161 t-164 -382zM469 1212q41 221 197 222q45 0 78.5 -24t51 -52.5t43 -52t54.5 -23.5q82 0 106 145h82q-23 -113 -69.5 -167t-128.5 -54q-45 0 -78 23.5t-50.5 52.5t-43 52.5t-56.5 23.5q-43 0 -69.5 -47t-34.5 -99h-82z" />
<glyph unicode="&#xf6;" horiz-adv-x="1269" d="M78 420q0 256 191.5 442.5t435.5 186.5q201 0 326.5 -123t125.5 -316q0 -258 -192.5 -446.5t-434.5 -188.5q-201 0 -326.5 125t-125.5 320zM168 422q0 -160 101.5 -261.5t260.5 -101.5q205 0 371 163t166 386q0 156 -101.5 256.5t-260.5 100.5q-209 0 -373 -161 t-164 -382zM582 1284l28 150h95l-29 -150h-94zM862 1284l29 150h94l-29 -150h-94z" />
<glyph unicode="&#xf7;" d="M80 539v82h975v-82h-975zM508 156v120h117v-120h-117zM508 883v121h117v-121h-117z" />
<glyph unicode="&#xf8;" horiz-adv-x="1269" d="M78 420q0 256 191.5 442.5t435.5 186.5q162 0 280 -84l102 112l66 -57l-104 -115q109 -121 108 -295q0 -258 -192.5 -446.5t-434.5 -188.5q-152 0 -264 74l-100 -108l-66 57l99 106q-121 125 -121 316zM168 422q0 -152 90 -252l666 729q-94 66 -219 66q-209 0 -373 -161 t-164 -382zM326 115q90 -55 204 -56q205 0 371 163t166 386q0 135 -80 232z" />
<glyph unicode="&#xf9;" horiz-adv-x="1187" d="M106 233q0 59 17 142l125 649h86l-119 -614q-18 -90 -18 -160q0 -90 45 -140.5t157 -50.5q184 0 332 149.5t182 340.5l93 475h86l-199 -1024h-86l33 170l26 94h-4q-55 -104 -181 -196.5t-296 -92.5q-123 0 -201 62.5t-78 195.5zM547 1434h106l92 -228h-81z" />
<glyph unicode="&#xfa;" horiz-adv-x="1187" d="M106 233q0 59 17 142l125 649h86l-119 -614q-18 -90 -18 -160q0 -90 45 -140.5t157 -50.5q184 0 332 149.5t182 340.5l93 475h86l-199 -1024h-86l33 170l26 94h-4q-55 -104 -181 -196.5t-296 -92.5q-123 0 -201 62.5t-78 195.5zM653 1206l183 228h122l-206 -228h-99z" />
<glyph unicode="&#xfb;" horiz-adv-x="1187" d="M106 233q0 59 17 142l125 649h86l-119 -614q-18 -90 -18 -160q0 -90 45 -140.5t157 -50.5q184 0 332 149.5t182 340.5l93 475h86l-199 -1024h-86l33 170l26 94h-4q-55 -104 -181 -196.5t-296 -92.5q-123 0 -201 62.5t-78 195.5zM481 1206l209 228h107l118 -228h-94 l-82 164h-4l-147 -164h-107z" />
<glyph unicode="&#xfc;" horiz-adv-x="1187" d="M106 233q0 59 17 142l125 649h86l-119 -614q-18 -90 -18 -160q0 -90 45 -140.5t157 -50.5q184 0 332 149.5t182 340.5l93 475h86l-199 -1024h-86l33 170l26 94h-4q-55 -104 -181 -196.5t-296 -92.5q-123 0 -201 62.5t-78 195.5zM535 1284l28 150h94l-28 -150h-94z M815 1284l29 150h94l-29 -150h-94z" />
<glyph unicode="&#xfd;" horiz-adv-x="1064" d="M-147 -373l49 68q43 -43 118 -43q125 0 238 182l109 174l-230 1016h90l179 -831l18 -97h2q27 47 55 97l500 831h98l-776 -1270q-115 -184 -283 -184q-94 0 -167 57zM594 1206l182 228h123l-207 -228h-98z" />
<glyph unicode="&#xfe;" horiz-adv-x="1185" d="M-16 -410l356 1844h86l-100 -523l-25 -92h4q55 96 157.5 163t235.5 67q178 0 276.5 -107.5t98.5 -296.5q0 -287 -167 -478.5t-386 -191.5q-125 0 -214 59.5t-120 172.5h-4q-2 -48 -12 -101l-100 -516h-86zM236 383q0 -141 71.5 -232.5t208.5 -91.5q178 0 321.5 162 t143.5 420q0 152 -76 238t-207 86q-137 0 -245.5 -91.5t-162.5 -222.5t-54 -268z" />
<glyph unicode="&#xff;" horiz-adv-x="1064" d="M-147 -373l49 68q43 -43 118 -43q125 0 238 182l109 174l-230 1016h90l179 -831l18 -97h2q27 47 55 97l500 831h98l-776 -1270q-115 -184 -283 -184q-94 0 -167 57zM475 1284l29 150h94l-29 -150h-94zM756 1284l28 150h95l-29 -150h-94z" />
<glyph unicode="&#x131;" horiz-adv-x="442" d="M61 0l199 1024h86l-199 -1024h-86z" />
<glyph unicode="&#x152;" horiz-adv-x="1902" d="M131 578q0 354 256 615t602 261q39 0 132 -10t124 -10h690l-16 -82h-696l-115 -588h571l-16 -82h-571l-117 -600h735l-16 -82h-707q-27 0 -116 -10t-126 -10q-283 0 -448.5 166t-165.5 432zM223 567q0 -225 139.5 -364.5t378.5 -139.5q33 0 70 4.5t57 8.5l19 4l248 1274 q-66 16 -142 16q-317 0 -543.5 -236.5t-226.5 -566.5z" />
<glyph unicode="&#x153;" horiz-adv-x="2091" d="M78 420q0 256 191.5 442.5t435.5 186.5q162 0 276.5 -84t155.5 -224h4q80 139 212 223.5t292 84.5q178 0 267 -99.5t89 -263.5q0 -88 -27 -160h-821q-12 -49 -12 -112q0 -166 100 -260.5t260 -94.5q174 0 342 129l33 -77q-68 -57 -173.5 -96.5t-201.5 -39.5 q-166 0 -283.5 82t-154.5 228h-4q-86 -141 -229.5 -225.5t-299.5 -84.5q-201 0 -326.5 125t-125.5 320zM168 422q0 -160 101.5 -261.5t260.5 -101.5q205 0 371 163t166 386q0 156 -101.5 256.5t-260.5 100.5q-209 0 -373 -161t-164 -382zM1174 606h727q8 23 8 86 q0 137 -73 207t-191 70q-150 0 -280 -95.5t-191 -267.5z" />
<glyph unicode="&#x178;" horiz-adv-x="1161" d="M203 1434h94l227 -566l60 -161h4q63 88 119 159l448 568h109l-646 -813l-122 -621h-88l122 623zM582 1614l28 149h95l-29 -149h-94zM862 1614l29 149h94l-29 -149h-94z" />
<glyph unicode="&#x192;" d="M-82 -195l16 78q49 -10 123 -10q39 0 77 10.5t87 38t92 92t70 156.5l172 604h-197l15 78h202l70 242q33 115 87 193.5t115.5 112.5t110 46t95.5 12q102 0 182 -16l-14 -78q-86 14 -166 14q-238 0 -326 -297l-67 -229h272l-14 -78h-279l-178 -622q-33 -115 -87 -192 t-115.5 -110.5t-108 -45t-93.5 -11.5q-76 0 -141 12z" />
<glyph unicode="&#x2c6;" horiz-adv-x="1040" d="M162 1536l209 227h106l119 -227h-94l-82 164h-4l-148 -164h-106z" />
<glyph unicode="&#x2c7;" horiz-adv-x="1040" d="M219 1763h94l82 -164h4l148 164h106l-209 -227h-106z" />
<glyph unicode="&#x2d8;" horiz-adv-x="1044" d="M211 1694q0 37 10 69h82q-10 -37 -10 -61q0 -94 104 -94q57 0 100.5 36.5t55.5 118.5h82q-14 -123 -84 -178t-164 -55q-72 0 -124 42t-52 122z" />
<glyph unicode="&#x2d9;" horiz-adv-x="1044" d="M356 1614l29 149h94l-28 -149h-95z" />
<glyph unicode="&#x2da;" horiz-adv-x="1044" d="M268 1636q0 59 46 106.5t106 47.5q61 0 94 -33t33 -88q0 -59 -46.5 -106t-105.5 -47q-61 0 -94 31.5t-33 88.5zM340 1636q0 -49 55 -49q33 0 56.5 23.5t23.5 58.5q0 23 -15.5 37t-39.5 14q-33 0 -56.5 -23.5t-23.5 -60.5z" />
<glyph unicode="&#x2db;" horiz-adv-x="1042" d="M254 -256q0 88 65.5 158.5t172.5 138.5l88 -27q-27 -14 -66 -39.5t-103.5 -94t-64.5 -124.5q0 -37 30 -60.5t58 -27.5l31 -6l-33 -80q-8 0 -19.5 2t-42 11.5t-54 26t-43 48t-19.5 74.5z" />
<glyph unicode="&#x2dc;" horiz-adv-x="1042" d="M102 1542q41 221 197 221q45 0 79 -23.5t51 -52t43 -52t54 -23.5q82 0 107 145h82q-23 -113 -70 -167t-129 -54q-45 0 -77.5 23.5t-50 52t-43.5 52.5t-56 24q-43 0 -69.5 -47.5t-35.5 -98.5h-82z" />
<glyph unicode="&#x2dd;" horiz-adv-x="1042" d="M139 1536l172 227h111l-178 -227h-105zM375 1536l182 227h123l-207 -227h-98z" />
<glyph unicode="&#x400;" horiz-adv-x="1132" d="M100 0l281 1434h784l-18 -82h-694l-115 -588h571l-16 -82h-569l-119 -600h733l-14 -82h-824zM684 1763h107l92 -227h-82z" />
<glyph unicode="&#x401;" horiz-adv-x="1132" d="M100 0l281 1434h784l-18 -82h-694l-115 -588h571l-16 -82h-569l-119 -600h733l-14 -82h-824zM645 1614l29 149h94l-29 -149h-94zM926 1614l28 149h95l-29 -149h-94z" />
<glyph unicode="&#x402;" horiz-adv-x="1456" d="M172 1352l16 82h1010l-16 -82h-500l-102 -531l-15 -61h4q203 94 402 94q184 0 282.5 -93t98.5 -259q0 -211 -146.5 -369t-388.5 -158q-6 0 -104 7l14 79q37 -6 92 -6q193 0 317 131t124 316q0 268 -302 268q-211 0 -411 -111l-127 -659h-88l262 1352h-422z" />
<glyph unicode="&#x403;" horiz-adv-x="980" d="M100 0l281 1434h723l-17 -82h-634l-265 -1352h-88zM694 1536l183 227h122l-206 -227h-99z" />
<glyph unicode="&#x404;" horiz-adv-x="1464" d="M131 584q0 219 113.5 420.5t315.5 327.5t435 126q313 0 480 -180l-58 -64q-160 160 -432 160q-260 0 -469 -178t-272 -436h868l-16 -82h-867q-6 -49 -6 -96q0 -236 142.5 -379.5t371.5 -143.5q291 0 523 201l43 -70q-111 -96 -266.5 -155.5t-311.5 -59.5 q-268 0 -431 173.5t-163 435.5z" />
<glyph unicode="&#x405;" horiz-adv-x="1079" d="M25 154l63 63q4 -6 13.5 -16.5t42 -38t69.5 -48t98.5 -37t126.5 -16.5q162 0 276.5 87.5t114.5 232.5q0 86 -45 149.5t-111.5 99.5t-145 78t-145.5 79.5t-112 109.5t-45 166q0 180 144.5 287.5t341.5 107.5q109 0 197.5 -34.5t123.5 -67.5l35 -35l-57 -68q-12 12 -34 33 t-98.5 53.5t-164.5 32.5q-154 0 -275 -83t-121 -222q0 -92 62.5 -157.5t150.5 -107.5t177.5 -88t152 -127t62.5 -198q0 -182 -136.5 -298t-345.5 -116q-78 0 -149.5 18.5t-118.5 44t-82 52.5t-49 45z" />
<glyph unicode="&#x406;" horiz-adv-x="524" d="M100 0l281 1434h88l-281 -1434h-88z" />
<glyph unicode="&#x407;" horiz-adv-x="524" d="M100 0l281 1434h88l-281 -1434h-88zM274 1614l29 149h94l-28 -149h-95zM555 1614l29 149h94l-29 -149h-94z" />
<glyph unicode="&#x408;" horiz-adv-x="1034" d="M14 285q0 39 13 106l8 45h88l-8 -45q-10 -51 -11 -92q0 -240 238 -240q121 0 224.5 80t135.5 252l185 961h-340l16 82h428l-205 -1055q-41 -211 -165.5 -307.5t-278.5 -96.5q-141 0 -234.5 76t-93.5 234z" />
<glyph unicode="&#x409;" horiz-adv-x="1892" d="M-66 -16l17 86q104 14 189 95t152.5 228.5t121 331.5t102.5 438l53 271h676l-125 -635h289q174 0 277.5 -86t103.5 -244q0 -190 -143.5 -329.5t-356.5 -139.5h-413l264 1352h-500l-37 -183q-37 -180 -69.5 -317t-77.5 -277.5t-95.5 -239.5t-113 -180t-141.5 -124 t-173 -47zM981 82h307q170 0 290 110.5t120 270.5q0 125 -78 189.5t-207 64.5h-307z" />
<glyph unicode="&#x40a;" horiz-adv-x="2011" d="M100 0l281 1434h88l-125 -637h807l125 637h88l-125 -635h289q174 0 277.5 -86t103.5 -244q0 -190 -143.5 -329.5t-356.5 -139.5h-414l140 715h-807l-140 -715h-88zM1100 82h307q170 0 290 110.5t120 270.5q0 125 -78 189.5t-207 64.5h-307z" />
<glyph unicode="&#x40b;" horiz-adv-x="1441" d="M172 1352l16 82h1008l-16 -82h-498l-107 -541l-18 -68h4q211 111 426 111q162 0 246 -73.5t84 -202.5q0 -59 -12 -123l-91 -455h-88l88 440q14 68 15 113q0 217 -248 217q-123 0 -246 -40t-192 -85l-127 -645h-88l266 1352h-422z" />
<glyph unicode="&#x40c;" horiz-adv-x="1163" d="M100 0l281 1434h88l-125 -639h258l543 639h106l-575 -678v-4l323 -752h-96l-303 713h-272l-140 -713h-88zM733 1536l182 227h123l-207 -227h-98z" />
<glyph unicode="&#x40d;" horiz-adv-x="1533" d="M100 0l281 1434h88l-217 -1117l-43 -176h4q100 121 160 187l1024 1106h82l-281 -1434h-88l217 1116l43 176h-4q-94 -115 -154 -180l-1030 -1112h-82zM807 1763h106l93 -227h-82z" />
<glyph unicode="&#x40e;" horiz-adv-x="1183" d="M72 61l53 68q84 -72 158 -72q72 0 120 51.5t119 174.5l-348 1151h92l264 -873l48 -188h4q59 106 106 188l498 873h102l-723 -1241q-127 -217 -289 -218q-95 0 -204 86zM543 1686q0 29 12 77h84q-10 -35 -10 -63q0 -55 38 -85t95 -30q70 0 125 44t67 134h84 q-38 -260 -280 -260q-86 0 -150.5 50.5t-64.5 132.5z" />
<glyph unicode="&#x40f;" horiz-adv-x="1468" d="M102 0l279 1434h88l-262 -1352h854l262 1352h88l-278 -1434h-471l-56 -287h-88l55 287h-471z" />
<glyph unicode="&#x410;" horiz-adv-x="1280" d="M-51 0l813 1434h92l260 -1434h-90l-88 496h-608l-281 -496h-98zM373 578h547l-103 581l-24 172h-5q-51 -111 -86 -172z" />
<glyph unicode="&#x411;" horiz-adv-x="1196" d="M100 0l281 1434h782l-16 -82h-694l-105 -533h338q170 0 272.5 -83t102.5 -242q0 -217 -140.5 -355.5t-328.5 -138.5h-492zM205 82h375q164 0 276.5 110.5t112.5 296.5q0 117 -72 182.5t-192 65.5h-373z" />
<glyph unicode="&#x412;" horiz-adv-x="1245" d="M100 0l281 1434h461q86 0 151 -25q170 -70 170 -268q0 -137 -70.5 -237.5t-185.5 -145.5v-4q80 -27 129 -101.5t49 -183.5q0 -147 -73.5 -261t-192.5 -167q-88 -41 -196 -41h-523zM205 82h405q94 0 162 31q100 45 160.5 138t60.5 216q0 115 -70.5 180.5t-191.5 65.5h-403 zM344 795h389q137 0 237.5 97t100.5 249q0 98 -60.5 154.5t-168.5 56.5h-389z" />
<glyph unicode="&#x413;" horiz-adv-x="980" d="M100 0l281 1434h723l-17 -82h-634l-265 -1352h-88z" />
<glyph unicode="&#x414;" horiz-adv-x="1406" d="M-156 -287l72 369h150q182 213 296.5 512t159.5 575l51 265h744l-262 -1352h159l-71 -369h-86l55 287h-1124l-56 -287h-88zM176 82h791l245 1270h-567l-35 -181q-45 -276 -158.5 -579t-275.5 -510z" />
<glyph unicode="&#x415;" horiz-adv-x="1132" d="M100 0l281 1434h784l-18 -82h-694l-115 -588h571l-16 -82h-569l-119 -600h733l-14 -82h-824z" />
<glyph unicode="&#x416;" horiz-adv-x="1697" d="M-68 0l615 754v4l-307 676h100l285 -639h219l125 639h88l-125 -639h205l534 639h115l-574 -676v-4l322 -754h-100l-299 713h-220l-139 -713h-88l139 713h-206l-578 -713h-111z" />
<glyph unicode="&#x417;" horiz-adv-x="1073" d="M-10 156l59 61q111 -156 330 -156q186 0 317 110t131 273q0 127 -82.5 191.5t-212.5 64.5h-182l17 82h145q150 0 270.5 98.5t120.5 245.5q0 106 -69.5 176t-208.5 70q-180 0 -334 -117l-43 70q182 133 366.5 133t282.5 -86t98 -237q0 -143 -82 -241.5t-213 -141.5v-4 q219 -66 220 -295q0 -203 -155 -340.5t-370 -137.5q-117 0 -227 45.5t-178 135.5z" />
<glyph unicode="&#x418;" horiz-adv-x="1533" d="M100 0l281 1434h88l-217 -1117l-43 -176h4q100 121 160 187l1024 1106h82l-281 -1434h-88l217 1116l43 176h-4q-94 -115 -154 -180l-1030 -1112h-82z" />
<glyph unicode="&#x419;" horiz-adv-x="1533" d="M100 0l281 1434h88l-217 -1117l-43 -176h4q100 121 160 187l1024 1106h82l-281 -1434h-88l217 1116l43 176h-4q-94 -115 -154 -180l-1030 -1112h-82zM735 1686q0 29 13 77h83q-10 -35 -10 -63q0 -55 38 -85t95 -30q70 0 125.5 44t67.5 134h84q-39 -260 -281 -260 q-86 0 -150.5 50.5t-64.5 132.5z" />
<glyph unicode="&#x41a;" horiz-adv-x="1163" d="M100 0l281 1434h88l-125 -639h258l543 639h106l-575 -678v-4l323 -752h-96l-303 713h-272l-140 -713h-88z" />
<glyph unicode="&#x41b;" horiz-adv-x="1331" d="M-102 -16l16 86q197 27 329 296t230 767l59 301h744l-281 -1434h-88l264 1352h-567l-43 -217q-35 -174 -67.5 -308.5t-75.5 -269.5t-93.5 -230.5t-112.5 -173t-141 -120.5t-173 -49z" />
<glyph unicode="&#x41c;" horiz-adv-x="1710" d="M45 0l397 1434h80l242 -902l39 -161h4q53 90 100 161l594 902h90l-166 -1434h-88l127 1094l31 190h-4q-63 -121 -111 -190l-542 -818h-90l-226 818l-41 194h-4q-20 -125 -39 -194l-305 -1094h-88z" />
<glyph unicode="&#x41d;" horiz-adv-x="1521" d="M100 0l281 1434h88l-131 -674h909l131 674h88l-280 -1434h-88l133 678h-909l-134 -678h-88z" />
<glyph unicode="&#x41e;" horiz-adv-x="1691" d="M131 590q0 229 125 431t325.5 319.5t415.5 117.5q270 0 440.5 -168t170.5 -430q0 -233 -126 -439t-326 -326t-415 -120q-270 0 -440 172.5t-170 442.5zM223 590q0 -233 144.5 -382t373.5 -149q190 0 369.5 107.5t292.5 294t113 397.5q0 227 -144.5 371.5t-374.5 144.5 q-195 0 -373 -104.5t-289.5 -287.5t-111.5 -392z" />
<glyph unicode="&#x41f;" horiz-adv-x="1501" d="M100 0l281 1434h1065l-281 -1434h-88l264 1352h-888l-265 -1352h-88z" />
<glyph unicode="&#x420;" horiz-adv-x="1210" d="M100 0l281 1434h448q143 0 230 -50q158 -88 158 -286q0 -162 -84 -286t-218 -179q-96 -39 -206 -39h-404l-117 -594h-88zM322 676h378q100 0 181 33q111 47 177 148t66 241q0 121 -77.5 187.5t-217.5 66.5h-376z" />
<glyph unicode="&#x421;" horiz-adv-x="1472" d="M133 586q0 233 122 436t318.5 319.5t413.5 116.5q139 0 273.5 -44t218.5 -136l-62 -64q-160 160 -430 160q-195 0 -370 -104.5t-283.5 -287.5t-108.5 -396q0 -229 140.5 -378t371.5 -149q137 0 276.5 52.5t246.5 142.5l51 -68q-102 -92 -263 -151.5t-311 -59.5 q-279 0 -441.5 170.5t-162.5 440.5z" />
<glyph unicode="&#x422;" horiz-adv-x="1220" d="M176 1352l14 82h1158l-15 -82h-536l-262 -1352h-89l263 1352h-533z" />
<glyph unicode="&#x423;" horiz-adv-x="1183" d="M72 61l53 68q84 -72 158 -72q72 0 120 51.5t119 174.5l-348 1151h92l264 -873l48 -188h4q59 106 106 188l498 873h102l-723 -1241q-127 -217 -289 -218q-95 0 -204 86z" />
<glyph unicode="&#x424;" horiz-adv-x="1660" d="M121 639q0 326 234.5 522.5t580.5 196.5l35 178h88l-35 -178q266 0 423 -127t157 -352q0 -324 -234.5 -520.5t-578.5 -196.5l-37 -187h-88l36 187q-268 0 -424.5 127t-156.5 350zM213 637q0 -190 133 -291.5t373 -101.5l199 1032q-299 -4 -502 -173t-203 -466zM807 244 q299 4 501.5 173t202.5 466q0 190 -133 291.5t-372 101.5z" />
<glyph unicode="&#x425;" horiz-adv-x="1126" d="M-72 0l609 764l-281 670h94l187 -453l65 -160h4q51 74 117 156l369 457h110l-553 -684l322 -750h-94l-230 539l-61 153h-4q-43 -63 -113 -149l-436 -543h-105z" />
<glyph unicode="&#x426;" horiz-adv-x="1501" d="M102 0l279 1434h88l-262 -1352h854l262 1352h88l-262 -1352h158l-72 -369h-86l55 287h-1102z" />
<glyph unicode="&#x427;" horiz-adv-x="1220" d="M178 872q0 57 10 103l91 459h88l-88 -445q-10 -49 -11 -104q0 -221 254 -221q121 0 239 42t191 89l125 639h88l-280 -1434h-88l123 623l16 67h-4q-215 -110 -416 -110q-168 0 -253 77.5t-85 214.5z" />
<glyph unicode="&#x428;" horiz-adv-x="2011" d="M100 0l281 1434h88l-264 -1352h655l264 1352h88l-264 -1352h656l264 1352h88l-281 -1434h-1575z" />
<glyph unicode="&#x429;" horiz-adv-x="2054" d="M102 0l279 1434h88l-262 -1352h655l262 1352h88l-262 -1352h656l262 1352h88l-262 -1352h176l-72 -369h-88l55 287h-1663z" />
<glyph unicode="&#x42a;" horiz-adv-x="1316" d="M156 1352l16 82h469l-121 -615h338q160 0 257 -83t97 -242q0 -217 -142 -355.5t-337 -138.5h-461l265 1352h-381zM377 82h354q164 0 276.5 110.5t112.5 296.5q0 117 -71.5 182.5t-192.5 65.5h-352z" />
<glyph unicode="&#x42b;" horiz-adv-x="1605" d="M100 0l281 1434h88l-121 -615h338q160 0 257 -83t97 -242q0 -217 -142 -355.5t-337 -138.5h-461zM205 82h354q164 0 276.5 110.5t112.5 296.5q0 117 -71.5 182.5t-192.5 65.5h-352zM1182 0l280 1434h88l-280 -1434h-88z" />
<glyph unicode="&#x42c;" horiz-adv-x="1144" d="M100 0l281 1434h88l-121 -615h338q160 0 257 -83t97 -242q0 -217 -142 -355.5t-337 -138.5h-461zM205 82h354q164 0 276.5 110.5t112.5 296.5q0 117 -71.5 182.5t-192.5 65.5h-352z" />
<glyph unicode="&#x42d;" horiz-adv-x="1464" d="M4 193l62 59q68 -86 190.5 -139.5t259.5 -53.5q252 0 466 178.5t280 440.5h-863l17 82h860q8 66 8 100q0 221 -134 367.5t-372 146.5q-270 0 -481 -162l-51 66q98 82 241.5 131t298.5 49q266 0 430 -167t164 -429q0 -231 -121.5 -437t-322.5 -328t-426 -122 q-147 0 -286.5 55.5t-219.5 162.5z" />
<glyph unicode="&#x42e;" horiz-adv-x="2121" d="M100 0l281 1434h88l-131 -674h280q63 293 305 495.5t523 202.5q262 0 426 -168t164 -430q0 -233 -122 -439t-316.5 -326t-403.5 -120q-262 0 -428 172t-166 443q0 31 4 88h-282l-134 -678h-88zM692 590q0 -233 138.5 -381t359.5 -148q186 0 360 106.5t284 293t110 397.5 q0 227 -138.5 370.5t-359.5 143.5q-188 0 -361.5 -104.5t-283 -286.5t-109.5 -391z" />
<glyph unicode="&#x42f;" horiz-adv-x="1232" d="M-45 0l471 590l47 53l2 4q-109 31 -174 113t-65 203q0 135 70.5 253.5t199.5 174.5q96 43 272 43h400l-281 -1434h-88l125 635h-361l-510 -635h-108zM328 963q0 -113 67.5 -179.5t186.5 -66.5h368l123 635h-307q-139 0 -209 -29q-102 -43 -165.5 -142.5t-63.5 -217.5z " />
<glyph unicode="&#x430;" horiz-adv-x="1040" d="M14 231.5q0 116.5 65.5 199.5t177.5 122t221.5 55.5t232.5 16.5h80q14 80 14 131q0 209 -230 209q-168 0 -311 -99l-37 78q145 104 348 105q319 0 320 -281q0 -51 -12 -117l-127 -651h-86l26 133l25 94h-4q-47 -92 -152.5 -172t-242.5 -80q-131 0 -219.5 70t-88.5 186.5z M104 240q0 -78 57.5 -131.5t168.5 -53.5q154 0 276.5 137.5t159.5 305.5l10 47h-65q-607 0 -607 -305z" />
<glyph unicode="&#x431;" horiz-adv-x="1155" d="M102 412q0 156 47.5 324.5t143.5 293.5q115 150 350 256l430 195l25 -76l-436 -197q-201 -90 -295.5 -209.5t-145.5 -310.5h4q168 238 428 238q170 0 270.5 -98.5t100.5 -270.5q0 -227 -153.5 -404.5t-399.5 -177.5q-369 1 -369 437zM193 360q0 -145 80.5 -224t211.5 -79 q186 0 316.5 147.5t130.5 338.5q0 143 -80 222t-205 79q-176 0 -315 -142.5t-139 -341.5z" />
<glyph unicode="&#x432;" horiz-adv-x="997" d="M61 0l199 1024h311q143 0 222 -54.5t79 -156.5q0 -96 -56 -170t-157 -106v-5q80 -16 127.5 -71t47.5 -137q0 -147 -121 -235.5t-283 -88.5h-369zM162 80h254q129 0 228 60.5t99 185.5q0 164 -249 163h-252zM258 569h240q115 0 198.5 62.5t83.5 177.5q0 137 -217 137h-231 z" />
<glyph unicode="&#x433;" horiz-adv-x="815" d="M61 0l199 1024h582l-15 -78h-495l-185 -946h-86z" />
<glyph unicode="&#x434;" d="M-139 -246l63 326h113q256 244 366 799l29 145h578l-185 -944h144l-64 -326h-86l49 246h-874l-47 -246h-86zM150 80h589l168 866h-405l-13 -67q-108 -545 -339 -799z" />
<glyph unicode="&#x435;" horiz-adv-x="1120" d="M78 403q0 254 172 450t424 196q178 0 267 -99.5t89 -263.5q0 -68 -26 -160h-822q-12 -59 -12 -112q0 -156 94 -255.5t266 -99.5q182 0 342 129l33 -77q-68 -55 -170 -95.5t-205 -40.5q-201 0 -326.5 116.5t-125.5 311.5zM203 606h727q8 31 8 86q0 137 -72.5 207 t-191.5 70q-150 0 -280 -95.5t-191 -267.5z" />
<glyph unicode="&#x436;" horiz-adv-x="1411" d="M-68 0l463 535v4l-231 485h92l219 -459h184l89 459h86l-89 -459h181l381 459h108l-424 -506v-4l260 -514h-100l-242 485h-180l-94 -485h-86l94 485h-182l-416 -485h-113z" />
<glyph unicode="&#x437;" horiz-adv-x="878" d="M-25 121l60 63q37 -45 109.5 -86t164.5 -41q125 0 220.5 73t95.5 198q0 164 -238 164h-133l14 79h121q121 0 207 60.5t86 177.5q0 78 -57.5 117t-153.5 39q-145 0 -260 -97l-47 70q141 111 321 111q129 0 209 -59.5t80 -170.5q0 -100 -54 -175t-153 -105v-4 q150 -41 150 -203q0 -158 -117 -257.5t-281 -99.5q-115 0 -205 43.5t-139 102.5z" />
<glyph unicode="&#x438;" horiz-adv-x="1196" d="M61 0l199 1024h86l-141 -729l-37 -160h4q88 106 147 168l701 721h80l-199 -1024h-86l141 731l35 154h-4q-86 -100 -145 -162l-701 -723h-80z" />
<glyph unicode="&#x439;" horiz-adv-x="1196" d="M61 0l199 1024h86l-141 -729l-37 -160h4q88 106 147 168l701 721h80l-199 -1024h-86l141 731l35 154h-4q-86 -100 -145 -162l-701 -723h-80zM510 1356q0 29 12 78h84q-10 -35 -10 -64q0 -55 38 -85t95 -30q70 0 125 44t68 135h84q-39 -260 -281 -260q-86 0 -150.5 50 t-64.5 132z" />
<glyph unicode="&#x43a;" horiz-adv-x="960" d="M61 0l199 1024h86l-88 -453h176l420 453h115l-469 -498v-4l311 -522h-109l-280 492h-178l-97 -492h-86z" />
<glyph unicode="&#x43b;" horiz-adv-x="1046" d="M-78 -8l15 80q139 25 231 187.5t151 459.5l58 305h573l-198 -1024h-86l184 944h-401l-43 -225q-72 -369 -190 -541t-294 -186z" />
<glyph unicode="&#x43c;" horiz-adv-x="1445" d="M23 0l280 1024h78l215 -678l41 -149h4q49 82 98 149l480 678h86l-117 -1024h-86l80 711l32 176h-4q-31 -57 -96 -148l-442 -626h-88l-201 622q-12 37 -22.5 75t-12.5 58l-4 19h-4q-23 -127 -37 -176l-194 -711h-86z" />
<glyph unicode="&#x43d;" horiz-adv-x="1198" d="M61 0l199 1024h86l-88 -457h670l88 457h86l-199 -1024h-86l94 487h-669l-95 -487h-86z" />
<glyph unicode="&#x43e;" horiz-adv-x="1269" d="M78 420q0 256 191.5 442.5t435.5 186.5q201 0 326.5 -123t125.5 -316q0 -258 -192.5 -446.5t-434.5 -188.5q-201 0 -326.5 125t-125.5 320zM168 422q0 -160 101.5 -261.5t260.5 -101.5q205 0 371 163t166 386q0 156 -101.5 256.5t-260.5 100.5q-209 0 -373 -161 t-164 -382z" />
<glyph unicode="&#x43f;" horiz-adv-x="1177" d="M61 0l199 1024h821l-198 -1024h-86l184 944h-649l-185 -944h-86z" />
<glyph unicode="&#x440;" horiz-adv-x="1183" d="M-18 -410l278 1434h86l-20 -113l-25 -92h4q57 98 158.5 164t232.5 66q178 0 276.5 -107.5t98.5 -296.5q0 -287 -167 -478.5t-386 -191.5q-125 0 -214 59.5t-120 172.5h-4q-2 -48 -12 -101l-100 -516h-86zM233 383q0 -141 72 -232.5t209 -91.5q178 0 322.5 162t144.5 420 q0 152 -76 238t-209 86q-137 0 -245.5 -91.5t-163 -222.5t-54.5 -268z" />
<glyph unicode="&#x441;" horiz-adv-x="1105" d="M78 403q0 279 192.5 462.5t431.5 183.5q104 0 203 -37t158 -109l-62 -63q-49 57 -128.5 91t-165.5 34q-205 0 -372 -158t-167 -395q0 -160 103.5 -256.5t260.5 -96.5q213 0 371 148l33 -78q-76 -70 -182.5 -112t-216.5 -42q-201 0 -330 116.5t-129 311.5z" />
<glyph unicode="&#x442;" horiz-adv-x="960" d="M113 944l14 80h864l-14 -80h-389l-185 -944h-86l185 944h-389z" />
<glyph unicode="&#x443;" horiz-adv-x="1060" d="M-143 -373l49 68q43 -43 119 -43q125 0 237 182l109 174l-230 1016h90l179 -831l18 -97h2q27 47 55 97l500 831h98l-776 -1270q-115 -184 -282 -184q-94 0 -168 57z" />
<glyph unicode="&#x444;" horiz-adv-x="1402" d="M82 424q0 256 187.5 432t475.5 191l76 387h86l-76 -387q209 -10 334 -128t125 -313q0 -252 -189.5 -435t-475.5 -194l-76 -387h-86l76 387q-207 10 -332 130t-125 317zM174 426q0 -168 98.5 -260t282.5 -105l174 900q-227 -8 -391 -160t-164 -375zM641 61q223 6 390 164 t167 381q0 162 -99.5 253t-283.5 102z" />
<glyph unicode="&#x445;" horiz-adv-x="942" d="M-72 0l478 543l-246 481h98l182 -367l27 -57h2q18 25 41 51l321 373h109l-428 -492l274 -532h-96l-211 416l-26 61h-4q-16 -27 -43 -55l-369 -422h-109z" />
<glyph unicode="&#x446;" horiz-adv-x="1206" d="M61 0l199 1024h86l-184 -944h637l184 944h86l-184 -944h143l-63 -326h-86l49 246h-867z" />
<glyph unicode="&#x447;" horiz-adv-x="987" d="M111 618q0 37 10 89l61 317h86l-61 -317q-8 -49 -8 -74q0 -160 194 -160q184 0 324 96l88 455h86l-199 -1024h-86l78 401l18 70h-4q-63 -33 -152.5 -57.5t-148.5 -24.5q-147 0 -216.5 62.5t-69.5 166.5z" />
<glyph unicode="&#x448;" horiz-adv-x="1597" d="M61 0l199 1024h86l-184 -944h491l185 944h86l-185 -944h492l184 944h86l-198 -1024h-1242z" />
<glyph unicode="&#x449;" horiz-adv-x="1638" d="M61 0l199 1024h86l-184 -944h491l185 944h86l-185 -944h492l184 944h86l-184 -944h143l-63 -326h-86l49 246h-1299z" />
<glyph unicode="&#x44a;" horiz-adv-x="1046" d="M84 946l14 78h375l-80 -410h223q307 0 308 -252q0 -158 -111 -260t-295 -102h-330l185 946h-289zM289 80h231q137 0 224 74.5t87 199.5q0 180 -217 181h-235z" />
<glyph unicode="&#x44b;" horiz-adv-x="1298" d="M61 0l199 1024h86l-80 -410h223q307 0 308 -252q0 -158 -111 -260t-295 -102h-330zM162 80h231q137 0 224.5 74.5t87.5 199.5q0 180 -218 181h-235zM918 0l198 1024h86l-198 -1024h-86z" />
<glyph unicode="&#x44c;" horiz-adv-x="919" d="M61 0l199 1024h86l-80 -410h223q307 0 308 -252q0 -158 -111 -260t-295 -102h-330zM162 80h231q137 0 224.5 74.5t87.5 199.5q0 180 -218 181h-235z" />
<glyph unicode="&#x44d;" horiz-adv-x="1099" d="M-6 135l49 70q49 -68 133 -107t184 -39q180 0 323.5 118t190.5 294h-561l15 80h563q4 41 4 65q0 162 -102.5 255.5t-257.5 93.5q-184 0 -332 -129l-51 65q72 68 176 108t213 40q195 0 320.5 -121t125.5 -322q0 -246 -183 -438.5t-450 -192.5q-106 0 -203.5 41t-156.5 119 z" />
<glyph unicode="&#x44e;" horiz-adv-x="1611" d="M61 0l199 1024h86l-92 -473h221q47 213 218 355.5t374 142.5q193 0 312.5 -123t119.5 -316q0 -258 -186.5 -446.5t-419.5 -188.5q-193 0 -312.5 125t-119.5 320q0 33 2 51h-223l-93 -471h-86zM551 422q0 -160 95 -261.5t247 -101.5q199 0 357.5 163t158.5 386 q0 156 -95 256.5t-247 100.5q-201 0 -358.5 -161t-157.5 -382z" />
<glyph unicode="&#x44f;" horiz-adv-x="985" d="M-39 0l318 362l55 62v4q-76 14 -131.5 79.5t-55.5 168.5q0 160 105.5 254t284.5 94h352l-199 -1024h-86l80 414h-250l-360 -414h-113zM240 678q0 -186 200 -186h260l88 454h-251q-135 0 -216 -68.5t-81 -199.5z" />
<glyph unicode="&#x450;" horiz-adv-x="1120" d="M78 403q0 254 172 450t424 196q178 0 267 -99.5t89 -263.5q0 -68 -26 -160h-822q-12 -59 -12 -112q0 -156 94 -255.5t266 -99.5q182 0 342 129l33 -77q-68 -55 -170 -95.5t-205 -40.5q-201 0 -326.5 116.5t-125.5 311.5zM203 606h727q8 31 8 86q0 137 -72.5 207 t-191.5 70q-150 0 -280 -95.5t-191 -267.5zM592 1436h106l93 -228h-82z" />
<glyph unicode="&#x451;" horiz-adv-x="1120" d="M78 403q0 254 172 450t424 196q178 0 267 -99.5t89 -263.5q0 -68 -26 -160h-822q-12 -59 -12 -112q0 -156 94 -255.5t266 -99.5q182 0 342 129l33 -77q-68 -55 -170 -95.5t-205 -40.5q-201 0 -326.5 116.5t-125.5 311.5zM203 606h727q8 31 8 86q0 137 -72.5 207 t-191.5 70q-150 0 -280 -95.5t-191 -267.5zM539 1284l28 150h95l-29 -150h-94zM819 1284l29 150h94l-29 -150h-94z" />
<glyph unicode="&#x452;" horiz-adv-x="1200" d="M61 0l230 1180h-135l16 77h133l35 177h86l-35 -177h490l-17 -77h-487l-82 -428l-27 -95h4q51 102 181.5 195.5t298.5 93.5q141 0 212.5 -66.5t71.5 -191.5q0 -59 -16 -141l-115 -600q-18 -96 -57 -169t-81 -111t-95.5 -61.5t-90 -29.5t-75.5 -6l-51 6l16 78q18 -4 45 -4 q39 0 77 10t85 38t85 91.5t56 157.5l109 569q18 96 18 156q0 94 -53 142t-143 48q-186 0 -339 -143.5t-192 -341.5l-72 -377h-86z" />
<glyph unicode="&#x453;" horiz-adv-x="815" d="M61 0l199 1024h582l-15 -78h-495l-185 -946h-86zM502 1206l182 228h123l-207 -228h-98z" />
<glyph unicode="&#x454;" horiz-adv-x="1101" d="M76 412q0 248 187.5 442.5t449.5 194.5q227 0 344 -146l-58 -65q-102 127 -297 127q-176 0 -320 -115t-196 -287h568l-15 -80h-571q-4 -45 -4 -69q0 -170 104.5 -262.5t261.5 -92.5q211 0 367 146l41 -72q-78 -70 -189.5 -114t-224.5 -44q-197 0 -322.5 120t-125.5 317z " />
<glyph unicode="&#x455;" horiz-adv-x="880" d="M-2 125l55 61q49 -57 128 -92t165 -35q115 0 199 54.5t84 150.5q0 68 -49.5 116t-119 77.5t-138 62.5t-117.5 93.5t-49 148.5q0 135 110.5 211t261.5 76q197 0 293 -115l-57 -62q-86 92 -238 93q-111 0 -195.5 -51.5t-84.5 -149.5q0 -70 49 -117t117.5 -76.5t138.5 -62.5 t119 -91.5t49 -144.5q0 -131 -107.5 -214t-267.5 -83q-225 0 -346 150z" />
<glyph unicode="&#x456;" horiz-adv-x="442" d="M61 0l201 1024h86l-201 -1024h-86zM303 1284l31 150h102l-30 -150h-103z" />
<glyph unicode="&#x457;" horiz-adv-x="442" d="M61 0l199 1024h86l-199 -1024h-86zM166 1284l29 150h94l-29 -150h-94zM446 1284l29 150h94l-28 -150h-95z" />
<glyph unicode="&#x458;" horiz-adv-x="442" d="M-309 -416l16 80q12 -4 45 -4q37 0 75 10.5t85 38t85 92t56 156.5l207 1067h86l-207 -1065q-23 -119 -71 -201t-107 -117.5t-105 -48t-94 -12.5q-51 0 -71 4zM301 1284l29 150h102l-29 -150h-102z" />
<glyph unicode="&#x459;" horiz-adv-x="1441" d="M-51 -8l14 80q272 49 383 647l57 305h463l-80 -410h226q305 0 305 -254q0 -164 -116 -262t-292 -98h-327l184 944h-291l-43 -225q-72 -369 -189.5 -541t-293.5 -186zM682 80h231q133 0 222.5 70.5t89.5 201.5q0 182 -217 183h-236z" />
<glyph unicode="&#x45a;" horiz-adv-x="1591" d="M61 0l199 1024h86l-82 -422h588l82 422h86l-82 -422h213q82 0 148.5 -19.5t117.5 -75.5t51 -145q0 -162 -110.5 -262t-292.5 -100h-330l101 522h-588l-101 -522h-86zM836 80h231q137 0 223 71.5t86 208.5q0 162 -231 162h-223z" />
<glyph unicode="&#x45b;" horiz-adv-x="1200" d="M61 0l230 1180h-135l16 77h133l35 177h86l-35 -177h490l-17 -77h-487l-82 -428l-27 -95h4q51 102 181.5 195.5t298.5 93.5q141 0 212.5 -66.5t71.5 -191.5q0 -59 -16 -141l-105 -547h-86l99 516q18 96 18 156q0 94 -53 142t-143 48q-186 0 -339 -143.5t-192 -341.5 l-72 -377h-86z" />
<glyph unicode="&#x45c;" horiz-adv-x="960" d="M61 0l199 1024h86l-88 -453h176l420 453h115l-469 -498v-4l311 -522h-109l-280 492h-178l-97 -492h-86zM547 1206l182 228h123l-207 -228h-98z" />
<glyph unicode="&#x45d;" horiz-adv-x="1196" d="M61 0l199 1024h86l-141 -729l-37 -160h4q88 106 147 168l701 721h80l-199 -1024h-86l141 731l35 154h-4q-86 -100 -145 -162l-701 -723h-80zM616 1436h107l92 -228h-82z" />
<glyph unicode="&#x45e;" horiz-adv-x="1060" d="M-143 -373l49 68q43 -43 119 -43q125 0 237 182l109 174l-230 1016h90l179 -831l18 -97h2q27 47 55 97l500 831h98l-776 -1270q-115 -184 -282 -184q-94 0 -168 57zM440 1356q0 29 13 78h84q-10 -35 -11 -64q0 -55 38 -85t95 -30q70 0 125.5 44t67.5 135h84 q-39 -260 -281 -260q-86 0 -150.5 50t-64.5 132z" />
<glyph unicode="&#x45f;" horiz-adv-x="1126" d="M61 0l199 1024h86l-184 -944h598l184 944h86l-199 -1024h-342l-49 -246h-86l49 246h-342z" />
<glyph unicode="&#x462;" horiz-adv-x="1357" d="M123 1106l16 82h389l50 246h88l-50 -246h416l-16 -82h-416l-55 -287h344q162 0 264 -88t102 -242q0 -195 -146 -342t-357 -147h-455l215 1106h-389zM401 82h349q172 0 292.5 118.5t120.5 291.5q0 115 -79.5 180t-206.5 65h-349z" />
<glyph unicode="&#x463;" horiz-adv-x="983" d="M55 946l17 78h247l80 410h86l-79 -410h348l-17 -78h-348l-63 -332h225q59 0 108.5 -11t95.5 -37.5t72.5 -79t26.5 -126.5q0 -156 -109.5 -258t-293.5 -102h-332l184 946h-248zM221 80h232q137 0 223 75.5t86 200.5q0 88 -51.5 133.5t-165.5 45.5h-236z" />
<glyph unicode="&#x472;" horiz-adv-x="1691" d="M131 590q0 229 125 431t325.5 319.5t415.5 117.5q270 0 440.5 -168t170.5 -430q0 -233 -126 -439t-326 -326t-415 -120q-270 0 -440 172.5t-170 442.5zM223 590q0 -233 144.5 -382t373.5 -149q250 0 470.5 180.5t283.5 446.5h-1266q-6 -49 -6 -96zM246 768h1263 q6 43 7 90q0 227 -145 371.5t-374 144.5q-252 0 -470 -174t-281 -432z" />
<glyph unicode="&#x473;" horiz-adv-x="1269" d="M78 420q0 256 191.5 442.5t435.5 186.5q201 0 326.5 -123t125.5 -316q0 -258 -192.5 -446.5t-434.5 -188.5q-201 0 -326.5 125t-125.5 320zM168 422q0 -160 101.5 -261.5t260.5 -101.5q170 0 320.5 120t198.5 298h-879q-2 -18 -2 -55zM184 557h879q4 33 4 51 q0 156 -101 256.5t-261 100.5q-174 0 -324 -117t-197 -291z" />
<glyph unicode="&#x474;" horiz-adv-x="1390" d="M209 1434h90l205 -1160l20 -172h4q53 104 90 172l521 965q74 135 130 165t208 30h49l-17 -84h-43h-35.5h-32.5t-26.5 -1t-27 -5.5t-22.5 -10.5t-23.5 -16t-21.5 -24.5t-24.5 -34t-25.5 -44.5l-666 -1214h-96z" />
<glyph unicode="&#x475;" horiz-adv-x="1093" d="M139 1024h86l160 -803l12 -110h4q31 61 58 110l340 625q57 104 115.5 141t177.5 37h43l-17 -84h-43q-76 0 -115.5 -23.5t-82.5 -101.5l-451 -815h-82z" />
<glyph unicode="&#x48a;" horiz-adv-x="1581" d="M100 0l281 1434h88l-217 -1117l-43 -176h4q100 121 160 187l1024 1106h82l-265 -1352h185l-13 -68l-184 -301h-90l160 287h-162l217 1116l43 176h-4q-94 -115 -154 -180l-1030 -1112h-82zM725 1686q0 29 12 77h84q-10 -35 -10 -63q0 -55 38 -85t95 -30q70 0 125 44 t68 134h84q-39 -260 -281 -260q-86 0 -150.5 50.5t-64.5 132.5z" />
<glyph unicode="&#x48b;" horiz-adv-x="1228" d="M61 0l199 1024h86l-141 -729l-37 -160h4q88 106 147 168l701 721h80l-185 -946h146l-12 -68l-152 -256h-84l133 246h-131l141 731l35 154h-4q-86 -100 -145 -162l-701 -723h-80zM500 1356q0 29 12 78h84q-10 -35 -10 -64q0 -55 38 -85t95 -30q70 0 125 44t67 135h84 q-38 -260 -280 -260q-86 0 -150.5 50t-64.5 132z" />
<glyph unicode="&#x48c;" horiz-adv-x="1316" d="M137 1200l15 82h335l50 254h88l-50 -254h349l-15 -82h-348l-72 -360h365q162 0 262.5 -91.5t100.5 -248.5q0 -199 -145.5 -349.5t-356.5 -150.5h-475l233 1200h-336zM342 82h369q170 0 291.5 122t121.5 290q0 129 -76.5 196.5t-203.5 67.5h-371z" />
<glyph unicode="&#x48d;" horiz-adv-x="1009" d="M82 946l16 78h248l80 410h86l-80 -410h348l-16 -78h-348l-64 -332h226q59 0 108 -11t95 -37.5t73 -79t27 -126.5q0 -156 -109.5 -258t-294.5 -102h-332l185 946h-248zM248 80h231q137 0 223 75.5t86 200.5q0 88 -51 133.5t-166 45.5h-235z" />
<glyph unicode="&#x48e;" horiz-adv-x="1257" d="M100 0l281 1434h448q143 0 230 -50q158 -88 158 -286q0 -262 -205 -412l118 -168l-65 -47l-121 174q-6 -4 -16 -7t-13 -5q-96 -39 -206 -39h-404l-117 -594h-88zM322 676h378q100 0 181 33l14 6l-141 205l65 47l146 -211q160 119 159 342q0 121 -77.5 187.5t-217.5 66.5 h-376z" />
<glyph unicode="&#x48f;" horiz-adv-x="1214" d="M-18 -410l278 1434h86l-20 -113l-25 -92h4q57 98 158.5 164t232.5 66q178 0 276.5 -107.5t98.5 -296.5q0 -330 -219 -532l109 -133l-62 -54l-111 135q-127 -86 -270 -86q-125 0 -214 59.5t-120 172.5h-4q-2 -48 -12 -101l-100 -516h-86zM233 383q0 -141 72 -232.5 t209 -91.5q115 0 221 72l-133 166l62 53l135 -168q182 172 182 459q0 152 -76 238t-209 86q-137 0 -245.5 -91.5t-163 -222.5t-54.5 -268z" />
<glyph unicode="&#x490;" horiz-adv-x="983" d="M102 0l279 1434h639l31 163h86l-47 -245h-637l-263 -1352h-88z" />
<glyph unicode="&#x491;" horiz-adv-x="794" d="M61 0l199 1024h479l29 143h82l-43 -221h-475l-185 -946h-86z" />
<glyph unicode="&#x492;" horiz-adv-x="1009" d="M115 672l16 82h133l133 680h723l-16 -82h-635l-117 -598h334l-16 -82h-334l-131 -672h-88l131 672h-133z" />
<glyph unicode="&#x493;" horiz-adv-x="825" d="M25 473l14 78h131l92 473h582l-15 -78h-495l-78 -395h276l-14 -78h-276l-92 -473h-87l93 473h-131z" />
<glyph unicode="&#x494;" horiz-adv-x="1191" d="M102 0l279 1434h723l-17 -82h-634l-113 -578q160 80 340 80q178 0 271 -91t93 -304q0 -131 -34.5 -265.5t-104 -259t-192.5 -203.5t-281 -79l17 84q131 2 232 75.5t158.5 186.5t86 231.5t28.5 231.5q0 147 -63.5 229t-228.5 82q-162 0 -338 -88l-134 -684h-88z" />
<glyph unicode="&#x495;" horiz-adv-x="966" d="M61 0l199 1024h580l-17 -80h-493l-84 -436q135 66 266 65q295 0 295 -321q0 -193 -106.5 -383.5t-288.5 -288.5l-43 70q162 86 256 263t94 343q0 233 -223 233q-135 0 -269 -75l-80 -414h-86z" />
<glyph unicode="&#x496;" horiz-adv-x="1785" d="M-68 0l615 754v4l-307 676h100l285 -639h219l125 639h88l-125 -639h205l534 639h115l-574 -676v-4l287 -672h166l-72 -369h-86l56 287h-129l-299 713h-220l-139 -713h-88l139 713h-206l-578 -713h-111z" />
<glyph unicode="&#x497;" horiz-adv-x="1492" d="M-68 0l463 535v4l-231 485h92l219 -459h184l89 459h86l-89 -459h181l381 459h108l-424 -506v-4l219 -434h148l-64 -326h-86l49 246h-106l-242 485h-180l-94 -485h-86l94 485h-182l-416 -485h-113z" />
<glyph unicode="&#x498;" horiz-adv-x="1075" d="M-10 156l59 61q111 -156 330 -156q186 0 317 110t131 273q0 127 -82.5 191.5t-212.5 64.5h-182l17 82h145q150 0 270.5 98.5t120.5 245.5q0 106 -69.5 176t-208.5 70q-180 0 -334 -117l-43 70q182 133 366.5 133t282.5 -86t98 -237q0 -143 -82 -241.5t-213 -141.5v-4 q219 -66 220 -295q0 -190 -136.5 -323.5t-332.5 -152.5l-52 -264h-86l49 264q-111 4 -210 49.5t-162 129.5z" />
<glyph unicode="&#x499;" horiz-adv-x="882" d="M-25 121l60 63q37 -45 109.5 -86t164.5 -41q125 0 220.5 73t95.5 198q0 164 -238 164h-133l14 79h121q121 0 207 60.5t86 177.5q0 78 -57.5 117t-153.5 39q-145 0 -260 -97l-47 70q141 111 321 111q129 0 209 -59.5t80 -170.5q0 -100 -54 -175t-153 -105v-4 q150 -41 150 -203q0 -152 -108.5 -250t-266.5 -107l-41 -221h-86l43 226q-185 22 -283 141z" />
<glyph unicode="&#x49a;" horiz-adv-x="1251" d="M100 0l281 1434h88l-125 -639h258l543 639h106l-575 -678v-4l289 -670h165l-71 -369h-86l55 287h-125l-303 713h-272l-140 -713h-88z" />
<glyph unicode="&#x49b;" horiz-adv-x="1024" d="M61 0l199 1024h86l-88 -453h176l420 453h115l-469 -498v-4l264 -442h125l-64 -326h-86l49 246h-86l-280 492h-178l-97 -492h-86z" />
<glyph unicode="&#x49c;" horiz-adv-x="1282" d="M100 0l281 1434h88l-125 -639h176l51 266h84l-51 -266h125l524 639h117l-575 -693v-4l323 -737h-96l-309 713h-125l-51 -267h-84l51 267h-176l-140 -713h-88z" />
<glyph unicode="&#x49d;" horiz-adv-x="1083" d="M61 0l199 1024h86l-88 -453h143l43 224h80l-43 -224h78l416 453h117l-469 -500v-4l311 -520h-105l-284 492h-78l-45 -228h-80l45 228h-143l-97 -492h-86z" />
<glyph unicode="&#x49e;" horiz-adv-x="1173" d="M109 1092l14 82h217l51 260h88l-51 -260h229l-14 -82h-231l-58 -297h258l543 639h107l-576 -678v-4l324 -752h-97l-303 713h-272l-139 -713h-88l213 1092h-215z" />
<glyph unicode="&#x49f;" horiz-adv-x="962" d="M61 0l211 1085h-129l17 78h129l53 271h86l-53 -271h278l-16 -78h-279l-90 -464h174l414 403h117l-455 -442v-4l291 -578h-98l-269 541h-188l-107 -541h-86z" />
<glyph unicode="&#x4a0;" horiz-adv-x="1452" d="M178 1352l17 82h561l-125 -639h266l526 639h115l-575 -689v-4l325 -741h-98l-309 713h-267l-139 -713h-88l264 1352h-473z" />
<glyph unicode="&#x4a1;" horiz-adv-x="1087" d="M84 946l14 78h375l-88 -453h176l420 453h115l-467 -498v-4l309 -522h-107l-282 492h-178l-97 -492h-86l185 946h-289z" />
<glyph unicode="&#x4a2;" horiz-adv-x="1564" d="M102 0l279 1434h88l-131 -674h909l131 674h88l-262 -1352h176l-71 -369h-86l55 287h-178l131 678h-909l-132 -678h-88z" />
<glyph unicode="&#x4a3;" horiz-adv-x="1230" d="M61 0l199 1024h86l-90 -457h670l90 457h86l-184 -944h153l-63 -326h-86l49 246h-154l94 487h-669l-95 -487h-86z" />
<glyph unicode="&#x4a4;" horiz-adv-x="1875" d="M100 0l281 1434h88l-131 -674h807l131 674h723l-17 -82h-634l-265 -1352h-88l133 678h-806l-134 -678h-88z" />
<glyph unicode="&#x4a5;" horiz-adv-x="1447" d="M61 0l199 1024h86l-88 -457h588l88 457h541l-15 -78h-454l-185 -946h-86l94 487h-587l-95 -487h-86z" />
<glyph unicode="&#x4a6;" horiz-adv-x="2025" d="M102 0l279 1434h936l-125 -639q160 80 336 79.5t270 -94.5t94 -309q0 -133 -34.5 -269t-104.5 -263t-192.5 -207t-280.5 -80l16 84q131 2 232.5 76.5t159 189.5t86 235.5t28.5 235.5q0 152 -63.5 236t-229.5 84q-156 0 -335 -91l-136 -702h-88l262 1352h-759l-263 -1352 h-88z" />
<glyph unicode="&#x4a7;" horiz-adv-x="1595" d="M61 0l199 1024h698l-92 -477q135 68 275 67q303 0 303 -335q0 -201 -106.5 -393.5t-293.5 -305.5l-43 68q156 94 255.5 270t99.5 358q0 254 -236 254q-137 0 -274 -79l-86 -451h-86l182 944h-526l-183 -944h-86z" />
<glyph unicode="&#x4a8;" horiz-adv-x="1869" d="M137 584q0 156 46 292t117 230t164 169t181 116t174 61l27 -78q-104 -25 -206.5 -85t-197 -154.5t-154 -238.5t-59.5 -312q0 -225 140.5 -375t384.5 -150q133 0 280 52q-139 84 -214 228t-75 329q0 164 58.5 310t152 244.5t209 155t230.5 56.5q180 0 291.5 -119 t111.5 -330q0 -270 -158.5 -502.5t-404.5 -369.5q98 -31 227 -31h152l-15 -82h-137q-188 0 -332 61q-195 -86 -376 -86q-283 0 -450 171.5t-167 437.5zM838 668q0 -170 75.5 -306.5t221.5 -209.5q246 119 408.5 343t162.5 488q0 176 -91 271.5t-220 95.5q-88 0 -182.5 -43 t-179.5 -124t-140 -216t-55 -299z" />
<glyph unicode="&#x4a9;" horiz-adv-x="1581" d="M90 485q0 211 136 361.5t321 200.5l24 -82q-156 -43 -273.5 -167t-117.5 -317q0 -184 121 -303t307 -119q141 0 289 52q-264 166 -264 487q0 186 131 318.5t323 132.5q168 0 263.5 -110t95.5 -267q0 -174 -97.5 -317.5t-258.5 -241.5q102 -31 219 -31h92l-17 -82h-90 q-166 0 -303 61q-195 -86 -391 -86q-233 0 -371.5 146.5t-138.5 363.5zM723 598q0 -309 268 -446q164 82 264.5 217t100.5 303q0 117 -69.5 205t-211.5 88q-135 0 -243.5 -100.5t-108.5 -266.5z" />
<glyph unicode="&#x4aa;" horiz-adv-x="1474" d="M133 586q0 233 122 436t318.5 319.5t413.5 116.5q139 0 273.5 -44t218.5 -136l-62 -64q-160 160 -430 160q-195 0 -370 -104.5t-283.5 -287.5t-108.5 -396q0 -229 140.5 -378t371.5 -149q137 0 276.5 52.5t246.5 142.5l51 -68q-98 -88 -250 -146t-299 -65l-49 -262h-86 l49 264q-252 20 -397.5 187.5t-145.5 421.5z" />
<glyph unicode="&#x4ab;" horiz-adv-x="1107" d="M80 403q0 279 192.5 462.5t432.5 183.5q104 0 202.5 -37t157.5 -109l-61 -63q-49 57 -129 91t-166 34q-205 0 -372 -158t-167 -395q0 -160 103.5 -256.5t261.5 -96.5q213 0 370 148l33 -78q-76 -70 -182.5 -112t-216.5 -42h-2l-41 -221h-86l43 228q-168 23 -270.5 135 t-102.5 286z" />
<glyph unicode="&#x4ac;" horiz-adv-x="1216" d="M172 1352l16 82h1158l-17 -82h-534l-246 -1270h176l-72 -369h-86l56 287h-179l263 1352h-535z" />
<glyph unicode="&#x4ad;" horiz-adv-x="964" d="M113 944l16 80h864l-16 -80h-389l-168 -864h153l-63 -326h-86l49 246h-154l183 944h-389z" />
<glyph unicode="&#x4ae;" horiz-adv-x="1128" d="M197 1434h94l227 -566l60 -161h4q63 88 118 159l449 568h108l-645 -813l-123 -621h-88l123 623z" />
<glyph unicode="&#x4af;" horiz-adv-x="1009" d="M139 1024h86l172 -735l19 -105h4q27 53 59 105l459 735h96l-590 -944l-96 -490h-82l96 490z" />
<glyph unicode="&#x4b0;" horiz-adv-x="1128" d="M197 1434h94l229 -566l58 -161h4q61 92 118 161l451 566h106l-643 -811h273l-17 -80h-272l-106 -543h-89l107 543h-270l16 80h270z" />
<glyph unicode="&#x4b1;" horiz-adv-x="1007" d="M113 0l16 80h233l-219 944h86l170 -735l19 -105h4q27 53 59 105l453 735h96l-586 -944h234l-16 -80h-234l-80 -410h-82l80 410h-233z" />
<glyph unicode="&#x4b2;" horiz-adv-x="1214" d="M-72 0l609 764l-281 670h94l187 -453l65 -160h4q51 74 117 156l369 457h110l-553 -684l287 -668h160l-72 -369h-86l55 287h-116l-230 539l-61 153h-4q-43 -63 -113 -149l-436 -543h-105z" />
<glyph unicode="&#x4b3;" horiz-adv-x="1005" d="M-72 0l478 543l-246 481h98l182 -367l27 -57h2q18 25 41 51l321 373h109l-428 -492l233 -452h123l-63 -326h-86l49 246h-78l-211 416l-26 61h-4q-16 -27 -43 -55l-369 -422h-109z" />
<glyph unicode="&#x4b4;" horiz-adv-x="1796" d="M178 1352l17 82h1034l-17 -82h-473l-245 -1270h854l262 1352h88l-262 -1352h176l-72 -369h-86l55 287h-1120l262 1352h-473z" />
<glyph unicode="&#x4b5;" horiz-adv-x="1456" d="M113 944l16 80h848l-16 -80h-381l-168 -864h637l184 944h86l-184 -944h143l-64 -326h-86l50 246h-867l183 944h-381z" />
<glyph unicode="&#x4b6;" horiz-adv-x="1263" d="M178 872q0 57 10 103l91 459h88l-88 -445q-10 -49 -11 -104q0 -221 254 -221q121 0 239 42t191 89l125 639h88l-264 -1352h178l-71 -369h-86l55 287h-180l123 623l16 67h-4q-215 -110 -416 -110q-168 0 -253 77.5t-85 214.5z" />
<glyph unicode="&#x4b7;" horiz-adv-x="1021" d="M111 618q0 37 10 89l61 317h86l-61 -317q-8 -49 -8 -74q0 -160 194 -160q184 0 324 96l88 455h86l-184 -944h172l-64 -326h-86l49 246h-172l78 401l18 70h-4q-63 -33 -152.5 -57.5t-148.5 -24.5q-147 0 -216.5 62.5t-69.5 166.5z" />
<glyph unicode="&#x4b8;" horiz-adv-x="1218" d="M176 872q0 57 10 103l90 459h89l-89 -445q-10 -49 -10 -104q0 -219 242 -221l59 299h84l-59 -295q197 20 358 127l125 639h88l-280 -1434h-88l123 623l16 67h-4q-178 -92 -355 -108l-45 -234h-84l46 232q-158 4 -237 80.5t-79 211.5z" />
<glyph unicode="&#x4b9;" horiz-adv-x="987" d="M111 618q0 37 10 89l61 317h86l-61 -317q-8 -49 -8 -74q0 -154 180 -160l51 260h80l-51 -256q147 16 258 92l88 455h86l-199 -1024h-86l78 401l18 70h-4q-109 -61 -256 -80l-32 -168h-80l32 166q-252 14 -251 229z" />
<glyph unicode="&#x4ba;" horiz-adv-x="1230" d="M100 0l281 1434h88l-102 -529l-21 -71h4q205 109 424 108q164 0 248 -74.5t84 -201.5q0 -55 -12 -119l-107 -547h-88l105 532q14 68 14 111q0 215 -250 215q-121 0 -241.5 -40t-194.5 -85l-144 -733h-88z" />
<glyph unicode="&#x4bb;" horiz-adv-x="1198" d="M61 0l279 1434h86l-111 -580l-26 -94h4q51 102 181 195.5t298 93.5q141 0 213 -67t72 -191q0 -59 -17 -142l-125 -649h-86l119 618q18 96 19 156q0 94 -53.5 142.5t-143.5 48.5q-186 0 -338.5 -143.5t-191.5 -342.5l-93 -479h-86z" />
<glyph unicode="&#x4bc;" horiz-adv-x="1720" d="M172 976.5q0 104.5 86 307.5h94q-90 -199 -90 -305q0 -145 146 -145h18q80 266 283.5 445t476.5 179q219 0 344 -123t125 -352q0 -82 -29 -231h-1126q-16 -98 -19.5 -195.5t28.5 -187.5t84 -159t148.5 -110t221.5 -41q131 0 264 46.5t235 138.5l49 -74 q-90 -84 -234 -139.5t-308 -55.5q-274 0 -428 159t-154 429q0 92 19 189h-17q-100 0 -158.5 60t-58.5 164.5zM522 834h1026q14 82 15 145q0 172 -93.5 283.5t-285.5 111.5q-225 0 -406.5 -151t-255.5 -389z" />
<glyph unicode="&#x4bd;" horiz-adv-x="1327" d="M113 700q0 106 67 232h90q-74 -117 -73 -221q0 -102 104 -103h16q61 190 213 315.5t351 125.5q178 0 267 -99.5t89 -263.5q0 -68 -27 -160h-821q-12 -59 -12 -112q0 -156 94 -255.5t266 -99.5q182 0 342 129l33 -77q-68 -55 -170 -95.5t-205 -40.5q-201 0 -326.5 117 t-125.5 311q0 55 10 123h-4q-178 0 -178 174zM410 606h727q8 31 8 86q0 137 -73 207t-191 70q-150 0 -280 -95.5t-191 -267.5z" />
<glyph unicode="&#x4be;" horiz-adv-x="1720" d="M172 976.5q0 104.5 86 307.5h94q-90 -199 -90 -305q0 -145 146 -145h18q80 266 283.5 445t476.5 179q219 0 344 -123t125 -352q0 -82 -29 -231h-1126q-16 -98 -19.5 -195.5t28.5 -187.5t84 -159t148.5 -110t221.5 -41q131 0 264 46.5t235 138.5l49 -74 q-90 -84 -234 -139.5t-308 -55.5h-15l-49 -262h-86l51 269q-229 27 -356 182t-127 399q0 92 19 189h-17q-100 0 -158.5 60t-58.5 164.5zM522 834h1026q14 82 15 145q0 172 -93.5 283.5t-285.5 111.5q-225 0 -406.5 -151t-255.5 -389z" />
<glyph unicode="&#x4bf;" horiz-adv-x="1327" d="M113 700q0 106 67 232h90q-74 -117 -73 -221q0 -102 104 -103h16q61 190 213 315.5t351 125.5q178 0 267 -99.5t89 -263.5q0 -68 -27 -160h-821q-12 -59 -12 -112q0 -156 94 -255.5t266 -99.5q182 0 342 129l33 -77q-68 -55 -170 -95.5t-205 -40.5h-24l-41 -221h-86 l43 232q-158 31 -251 140.5t-93 276.5q0 55 10 123h-4q-178 0 -178 174zM410 606h727q8 31 8 86q0 137 -73 207t-191 70q-150 0 -280 -95.5t-191 -267.5z" />
<glyph unicode="&#x4c0;" horiz-adv-x="524" d="M100 0l281 1434h88l-281 -1434h-88z" />
<glyph unicode="&#x4c1;" horiz-adv-x="1697" d="M-68 0l615 754v4l-307 676h100l285 -639h219l125 639h88l-125 -639h205l534 639h115l-574 -676v-4l322 -754h-100l-299 713h-220l-139 -713h-88l139 713h-206l-578 -713h-111zM823 1686q0 29 13 77h84q-10 -35 -11 -63q0 -55 38 -85t95 -30q70 0 125.5 44t67.5 134h84 q-39 -260 -281 -260q-86 0 -150.5 50.5t-64.5 132.5z" />
<glyph unicode="&#x4c2;" horiz-adv-x="1411" d="M-68 0l463 535v4l-231 485h92l219 -459h184l89 459h86l-89 -459h181l381 459h108l-424 -506v-4l260 -514h-100l-242 485h-180l-94 -485h-86l94 485h-182l-416 -485h-113zM614 1356q0 29 13 78h84q-10 -35 -11 -64q0 -55 38 -85t96 -30q70 0 125 44t67 135h84 q-39 -260 -281 -260q-86 0 -150.5 50t-64.5 132z" />
<glyph unicode="&#x4c3;" horiz-adv-x="1220" d="M102 0l279 1434h88l-125 -639q188 0 256 -4l539 643h112l-553 -662q162 -37 254 -153.5t92 -294.5q0 -166 -71.5 -318.5t-209.5 -253t-308 -100.5l16 84q205 0 345 179t140 407q0 195 -120.5 293t-331.5 98h-174l-140 -713h-88z" />
<glyph unicode="&#x4c4;" horiz-adv-x="985" d="M61 0l199 1024h86l-88 -457q119 0 168 -4l428 461h119l-451 -475q274 -68 275 -361q0 -186 -104.5 -350t-284.5 -258l-41 76q152 70 247 219.5t95 310.5q0 301 -365 301h-102l-95 -487h-86z" />
<glyph unicode="&#x4c5;" horiz-adv-x="1376" d="M-102 -16l16 86q197 27 329 296t230 767l59 301h744l-264 -1352h182l-12 -68l-185 -301h-90l160 287h-160l264 1352h-567l-43 -217q-35 -174 -67.5 -308.5t-75.5 -269.5t-93.5 -230.5t-112.5 -173t-141 -120.5t-173 -49z" />
<glyph unicode="&#x4c6;" horiz-adv-x="1087" d="M-80 -8l14 80q139 25 231.5 187.5t151.5 459.5l58 305h573l-184 -946h143l-12 -68l-152 -256h-84l134 246h-129l184 944h-402l-43 -225q-72 -369 -189.5 -541t-293.5 -186z" />
<glyph unicode="&#x4c7;" horiz-adv-x="1523" d="M102 0l279 1434h88l-131 -674h909l131 674h88l-272 -1405q-74 -377 -406 -377l17 80q37 0 76 11t85 40t83.5 94.5t56.5 157.5l125 643h-909l-132 -678h-88z" />
<glyph unicode="&#x4c8;" horiz-adv-x="1200" d="M61 0l199 1024h86l-88 -457h670l88 457h88l-186 -956q-20 -106 -59.5 -190.5t-94.5 -140.5t-103.5 -89t-113.5 -68l-39 74q266 123 321 414l82 419h-669l-95 -487h-86z" />
<glyph unicode="&#x4c9;" horiz-adv-x="1560" d="M100 0l281 1434h88l-131 -674h909l131 674h88l-264 -1352h197l-13 -68l-184 -301h-90l160 287h-174l133 678h-909l-134 -678h-88z" />
<glyph unicode="&#x4ca;" horiz-adv-x="1228" d="M61 0l199 1024h86l-88 -457h670l88 457h86l-184 -946h157l-12 -68l-152 -256h-84l134 246h-144l94 487h-669l-95 -487h-86z" />
<glyph unicode="&#x4cb;" horiz-adv-x="1220" d="M178 872q0 57 10 103l91 459h88l-88 -445q-10 -49 -11 -104q0 -221 254 -221q121 0 239 42t191 89l125 639h88l-280 -1434h-178l-56 -287h-86l72 369h176l107 541l16 67h-4q-215 -110 -416 -110q-168 0 -253 77.5t-85 214.5z" />
<glyph unicode="&#x4cc;" horiz-adv-x="987" d="M111 618q0 37 10 89l61 317h86l-61 -317q0 -12 -4 -37t-4 -37q0 -160 194 -160q184 0 324 96l88 455h86l-199 -1024h-135l-49 -246h-86l63 326h136l63 321l18 70h-4q-63 -33 -152 -57.5t-149 -24.5q-147 0 -216.5 62.5t-69.5 166.5z" />
<glyph unicode="&#x4cd;" horiz-adv-x="1736" d="M45 0l397 1434h80l242 -902l39 -161h4q53 90 100 161l594 902h90l-157 -1352h190l-12 -68l-185 -301h-90l160 287h-160l127 1094l31 190h-4q-63 -121 -111 -190l-542 -818h-90l-226 818l-41 194h-4q-20 -125 -39 -194l-305 -1094h-88z" />
<glyph unicode="&#x4ce;" horiz-adv-x="1482" d="M23 0l280 1024h78l215 -678l41 -149h4q49 82 98 149l480 678h86l-109 -946h162l-12 -68l-152 -256h-84l133 246h-141l80 711l32 176h-4q-31 -57 -96 -148l-442 -626h-88l-201 622q-12 37 -22.5 75t-12.5 58l-4 19h-4q-23 -127 -37 -176l-194 -711h-86z" />
<glyph unicode="&#x4cf;" horiz-adv-x="444" d="M61 0l281 1434h88l-280 -1434h-89z" />
<glyph unicode="&#x4d0;" horiz-adv-x="1280" d="M-51 0l813 1434h92l260 -1434h-90l-88 496h-608l-281 -496h-98zM373 578h547l-103 581l-24 172h-5q-51 -111 -86 -172zM618 1686q0 29 13 77h84q-10 -35 -10 -63q0 -55 37.5 -85t95.5 -30q70 0 125 44t67 134h84q-38 -260 -280 -260q-86 0 -151 50.5t-65 132.5z" />
<glyph unicode="&#x4d1;" horiz-adv-x="1042" d="M16 231.5q0 116.5 65.5 199.5t177.5 122t221.5 55.5t232.5 16.5h80q14 80 14 131q0 209 -229 209q-168 0 -312 -99l-37 78q145 104 349 105q319 0 319 -281q0 -51 -12 -117l-127 -651h-86l26 133l25 94h-4q-47 -92 -152.5 -172t-242.5 -80q-131 0 -219.5 70t-88.5 186.5z M106 240q0 -78 57.5 -131.5t168.5 -53.5q154 0 276.5 137.5t159.5 305.5l10 47h-65q-607 0 -607 -305zM438 1356q0 29 13 78h84q-10 -35 -11 -64q0 -55 38 -85t95 -30q70 0 125.5 44t67.5 135h84q-39 -260 -281 -260q-86 0 -150.5 50t-64.5 132z" />
<glyph unicode="&#x4d2;" horiz-adv-x="1280" d="M-51 0l813 1434h92l260 -1434h-90l-88 496h-608l-281 -496h-98zM373 578h547l-103 581l-24 172h-5q-51 -111 -86 -172zM653 1614l29 149h94l-28 -149h-95zM934 1614l29 149h94l-29 -149h-94z" />
<glyph unicode="&#x4d3;" horiz-adv-x="1042" d="M16 231.5q0 116.5 65.5 199.5t177.5 122t221.5 55.5t232.5 16.5h80q14 80 14 131q0 209 -229 209q-168 0 -312 -99l-37 78q145 104 349 105q319 0 319 -281q0 -51 -12 -117l-127 -651h-86l26 133l25 94h-4q-47 -92 -152.5 -172t-242.5 -80q-131 0 -219.5 70t-88.5 186.5z M106 240q0 -78 57.5 -131.5t168.5 -53.5q154 0 276.5 137.5t159.5 305.5l10 47h-65q-607 0 -607 -305zM461 1284l28 150h95l-29 -150h-94zM741 1284l29 150h94l-28 -150h-95z" />
<glyph unicode="&#x4d4;" horiz-adv-x="1687" d="M-72 0l867 1434h925l-16 -82h-696l-115 -588h571l-16 -82h-571l-117 -600h735l-16 -82h-824l133 682h-348l-411 -682h-101zM489 764h316l115 588h-74z" />
<glyph unicode="&#x4d5;" horiz-adv-x="1779" d="M18 231q0 119 61.5 200t172 119t216 51t241.5 13h82q18 102 18 144q0 207 -240 207q-164 0 -301 -99l-37 78q61 45 155.5 75t182.5 30q307 0 322 -222h4q164 221 436 222q176 0 267.5 -98.5t91.5 -266.5q0 -29 -6.5 -66.5t-12.5 -60.5l-6 -22h-803q-14 -66 -14 -132 q0 -164 92 -254t248 -90q180 0 344 129l33 -77q-68 -57 -174.5 -96.5t-198.5 -39.5q-168 0 -280.5 82t-141.5 224h-4q-12 -31 -42 -73t-83 -99.5t-138 -95.5t-184 -38q-131 0 -216 67.5t-85 188.5zM111 238q0 -78 57 -130.5t166 -52.5q156 0 275.5 133.5t156.5 300.5l10 46 h-141q-524 0 -524 -297zM885 614h706q6 43 6 82q0 137 -74.5 205t-191.5 68q-145 0 -266 -91.5t-180 -263.5z" />
<glyph unicode="&#x4d6;" horiz-adv-x="1132" d="M100 0l281 1434h784l-18 -82h-694l-115 -588h571l-16 -82h-569l-119 -600h733l-14 -82h-824zM594 1686q0 29 12 77h84q-10 -35 -10 -63q0 -55 38 -85t95 -30q70 0 125 44t68 134h84q-39 -260 -281 -260q-86 0 -150.5 50.5t-64.5 132.5z" />
<glyph unicode="&#x4d7;" horiz-adv-x="1120" d="M78 403q0 254 172 450t424 196q178 0 267 -99.5t89 -263.5q0 -68 -26 -160h-822q-12 -59 -12 -112q0 -156 94 -255.5t266 -99.5q182 0 342 129l33 -77q-68 -55 -170 -95.5t-205 -40.5q-201 0 -326.5 116.5t-125.5 311.5zM203 606h727q8 31 8 86q0 137 -72.5 207 t-191.5 70q-150 0 -280 -95.5t-191 -267.5zM504 1356q0 29 12 78h84q-10 -35 -10 -64q0 -55 38 -85t95 -30q70 0 125 44t67 135h84q-38 -260 -280 -260q-86 0 -150.5 50t-64.5 132z" />
<glyph unicode="&#x4d8;" horiz-adv-x="1466" d="M109 461q0 123 36 299h1127q14 80 14 149q0 211 -122 338t-341 127q-123 0 -246.5 -42t-185.5 -83l-61 -41l-47 70q8 8 25.5 19.5t72.5 43t114.5 55t149.5 43t180 19.5q260 0 406.5 -149.5t146.5 -419.5q0 -125 -30.5 -252t-96 -246t-154.5 -212t-217 -148.5t-276 -55.5 q-219 0 -357 121t-138 365zM201 469q0 -199 100 -303.5t295 -104.5q254 0 428 167t231 450h-1032q-22 -107 -22 -209z" />
<glyph unicode="&#x4d9;" horiz-adv-x="1124" d="M57 338q0 74 37 192h817q6 18 7 80q0 156 -94.5 255.5t-266.5 99.5q-184 0 -338 -127l-37 75q68 55 172.5 95.5t206.5 40.5q199 0 324 -119t125 -320q0 -250 -171 -442.5t-421 -192.5q-178 0 -269.5 99.5t-91.5 263.5zM150 332q0 -137 72.5 -207t191.5 -70 q152 0 290 104.5t191 291.5h-729q-16 -56 -16 -119z" />
<glyph unicode="&#x4da;" horiz-adv-x="1462" d="M104 477q0 90 33 242h1131q18 74 18 151q0 209 -123 356.5t-348 147.5q-127 0 -258 -44t-227 -124l-47 72q96 78 239.5 129t298.5 51q248 0 401.5 -164t153.5 -424q0 -154 -55 -310.5t-151.5 -287.5t-244 -214t-315.5 -83q-231 0 -368.5 130t-137.5 372zM197 477 q0 -188 103 -302t318 -114q217 0 386.5 162t242.5 414h-1032q-18 -101 -18 -160zM731 1614l29 149h94l-29 -149h-94zM1012 1614l28 149h95l-29 -149h-94z" />
<glyph unicode="&#x4db;" horiz-adv-x="1122" d="M57 338q0 74 37 192h817q6 18 7 80q0 156 -94.5 255.5t-266.5 99.5q-184 0 -338 -127l-37 75q68 55 172.5 95.5t206.5 40.5q199 0 324 -119t125 -320q0 -250 -171 -442.5t-421 -192.5q-178 0 -269.5 99.5t-91.5 263.5zM150 332q0 -137 72.5 -207t191.5 -70 q152 0 290 104.5t191 291.5h-729q-16 -56 -16 -119zM489 1284l29 150h94l-28 -150h-95zM770 1284l29 150h94l-29 -150h-94z" />
<glyph unicode="&#x4dc;" horiz-adv-x="1697" d="M-68 0l615 754v4l-307 676h100l285 -639h219l125 639h88l-125 -639h205l534 639h115l-574 -676v-4l322 -754h-100l-299 713h-220l-139 -713h-88l139 713h-206l-578 -713h-111zM862 1614l29 149h94l-29 -149h-94zM1143 1614l28 149h95l-29 -149h-94z" />
<glyph unicode="&#x4dd;" horiz-adv-x="1411" d="M-68 0l463 535v4l-231 485h92l219 -459h184l89 459h86l-89 -459h181l381 459h108l-424 -506v-4l260 -514h-100l-242 485h-180l-94 -485h-86l94 485h-182l-416 -485h-113zM657 1284l29 150h94l-28 -150h-95zM938 1284l29 150h94l-29 -150h-94z" />
<glyph unicode="&#x4de;" horiz-adv-x="1073" d="M-10 156l59 61q111 -156 330 -156q186 0 317 110t131 273q0 127 -82.5 191.5t-212.5 64.5h-182l17 82h145q150 0 270.5 98.5t120.5 245.5q0 106 -69.5 176t-208.5 70q-180 0 -334 -117l-43 70q182 133 366.5 133t282.5 -86t98 -237q0 -143 -82 -241.5t-213 -141.5v-4 q219 -66 220 -295q0 -203 -155 -340.5t-370 -137.5q-117 0 -227 45.5t-178 135.5zM532 1614l29 149h94l-28 -149h-95zM813 1614l29 149h94l-29 -149h-94z" />
<glyph unicode="&#x4df;" horiz-adv-x="878" d="M-25 121l60 63q37 -45 109.5 -86t164.5 -41q125 0 220.5 73t95.5 198q0 164 -238 164h-133l14 79h121q121 0 207 60.5t86 177.5q0 78 -57.5 117t-153.5 39q-145 0 -260 -97l-47 70q141 111 321 111q129 0 209 -59.5t80 -170.5q0 -100 -54 -175t-153 -105v-4 q150 -41 150 -203q0 -158 -117 -257.5t-281 -99.5q-115 0 -205 43.5t-139 102.5zM383 1284l29 150h94l-29 -150h-94zM664 1284l28 150h94l-28 -150h-94z" />
<glyph unicode="&#x4e0;" horiz-adv-x="1052" d="M-14 106l49 74q41 -45 128 -81t183 -36q190 0 329.5 112t139.5 284q0 125 -88 186.5t-291 61.5h-157l12 69l526 490l107 88l-2 4q-51 -4 -123 -4h-543l16 80h795l-12 -62l-568 -526l-69 -53v-5q272 10 380.5 -78.5t108.5 -246.5q0 -203 -160.5 -343t-396.5 -140 q-121 0 -222 44t-142 82z" />
<glyph unicode="&#x4e1;" horiz-adv-x="952" d="M-152 -303l50 74q41 -45 128 -81t183 -36q190 0 329.5 111.5t139.5 283.5q0 125 -88 186.5t-291 61.5h-158l13 70l526 489l106 88l-2 4q-51 -4 -122 -4h-543l16 80h795l-12 -61l-568 -527l-69 -53v-4q272 10 380.5 -79t108.5 -247q0 -203 -160.5 -343t-396.5 -140 q-121 0 -222.5 44t-142.5 83z" />
<glyph unicode="&#x4e2;" horiz-adv-x="1533" d="M100 0l281 1434h88l-217 -1117l-43 -176h4q100 121 160 187l1024 1106h82l-281 -1434h-88l217 1116l43 176h-4q-94 -115 -154 -180l-1030 -1112h-82zM723 1612l14 82h490l-15 -82h-489z" />
<glyph unicode="&#x4e3;" horiz-adv-x="1196" d="M61 0l199 1024h86l-141 -729l-37 -160h4q88 106 147 168l701 721h80l-199 -1024h-86l141 731l35 154h-4q-86 -100 -145 -162l-701 -723h-80zM492 1280l14 82h489l-14 -82h-489z" />
<glyph unicode="&#x4e4;" horiz-adv-x="1533" d="M100 0l281 1434h88l-217 -1117l-43 -176h4q100 121 160 187l1024 1106h82l-281 -1434h-88l217 1116l43 176h-4q-94 -115 -154 -180l-1030 -1112h-82zM776 1614l29 149h94l-29 -149h-94zM1057 1614l28 149h95l-29 -149h-94z" />
<glyph unicode="&#x4e5;" horiz-adv-x="1196" d="M61 0l199 1024h86l-141 -729l-37 -160h4q88 106 147 168l701 721h80l-199 -1024h-86l141 731l35 154h-4q-86 -100 -145 -162l-701 -723h-80zM555 1284l29 150h94l-29 -150h-94zM836 1284l28 150h94l-28 -150h-94z" />
<glyph unicode="&#x4e6;" horiz-adv-x="1691" d="M131 590q0 229 125 431t325.5 319.5t415.5 117.5q270 0 440.5 -168t170.5 -430q0 -233 -126 -439t-326 -326t-415 -120q-270 0 -440 172.5t-170 442.5zM223 590q0 -233 144.5 -382t373.5 -149q190 0 369.5 107.5t292.5 294t113 397.5q0 227 -144.5 371.5t-374.5 144.5 q-195 0 -373 -104.5t-289.5 -287.5t-111.5 -392zM852 1614l29 149h94l-29 -149h-94zM1133 1614l28 149h94l-28 -149h-94z" />
<glyph unicode="&#x4e7;" horiz-adv-x="1269" d="M78 420q0 256 191.5 442.5t435.5 186.5q201 0 326.5 -123t125.5 -316q0 -258 -192.5 -446.5t-434.5 -188.5q-201 0 -326.5 125t-125.5 320zM168 422q0 -160 101.5 -261.5t260.5 -101.5q205 0 371 163t166 386q0 156 -101.5 256.5t-260.5 100.5q-209 0 -373 -161 t-164 -382zM580 1284l28 150h94l-28 -150h-94zM860 1284l29 150h94l-29 -150h-94z" />
<glyph unicode="&#x4e8;" horiz-adv-x="1691" d="M131 590q0 229 125 431t325.5 319.5t415.5 117.5q270 0 440.5 -168t170.5 -430q0 -233 -126 -439t-326 -326t-415 -120q-270 0 -440 172.5t-170 442.5zM223 590q0 -233 144.5 -382t373.5 -149q250 0 470.5 180.5t283.5 446.5h-1266q-6 -49 -6 -96zM246 768h1263 q6 43 7 90q0 227 -145 371.5t-374 144.5q-252 0 -470 -174t-281 -432z" />
<glyph unicode="&#x4e9;" horiz-adv-x="1269" d="M78 420q0 256 191.5 442.5t435.5 186.5q201 0 326.5 -123t125.5 -316q0 -258 -192.5 -446.5t-434.5 -188.5q-201 0 -326.5 125t-125.5 320zM168 422q0 -160 101.5 -261.5t260.5 -101.5q170 0 320.5 120t198.5 298h-879q-2 -18 -2 -55zM184 557h879q4 33 4 51 q0 156 -101 256.5t-261 100.5q-174 0 -324 -117t-197 -291z" />
<glyph unicode="&#x4ea;" horiz-adv-x="1691" d="M131 590q0 229 125 431t325.5 319.5t415.5 117.5q270 0 440.5 -168t170.5 -430q0 -233 -126 -439t-326 -326t-415 -120q-270 0 -440 172.5t-170 442.5zM223 590q0 -233 144.5 -382t373.5 -149q250 0 470.5 180.5t283.5 446.5h-1266q-6 -49 -6 -96zM246 768h1263 q6 43 7 90q0 227 -145 371.5t-374 144.5q-252 0 -470 -174t-281 -432zM854 1614l29 149h94l-29 -149h-94zM1135 1614l28 149h94l-28 -149h-94z" />
<glyph unicode="&#x4eb;" horiz-adv-x="1269" d="M78 420q0 256 191.5 442.5t435.5 186.5q201 0 326.5 -123t125.5 -316q0 -258 -192.5 -446.5t-434.5 -188.5q-201 0 -326.5 125t-125.5 320zM168 422q0 -160 101.5 -261.5t260.5 -101.5q170 0 320.5 120t198.5 298h-879q-2 -18 -2 -55zM184 557h879q4 33 4 51 q0 156 -101 256.5t-261 100.5q-174 0 -324 -117t-197 -291zM580 1284l28 150h94l-28 -150h-94zM860 1284l29 150h94l-29 -150h-94z" />
<glyph unicode="&#x4ec;" horiz-adv-x="1464" d="M4 193l62 59q68 -86 190.5 -139.5t259.5 -53.5q252 0 466 178.5t280 440.5h-863l17 82h860q8 66 8 100q0 221 -134 367.5t-372 146.5q-270 0 -481 -162l-51 66q98 82 241.5 131t298.5 49q266 0 430 -167t164 -429q0 -231 -121.5 -437t-322.5 -328t-426 -122 q-147 0 -286.5 55.5t-219.5 162.5zM674 1614l28 149h95l-29 -149h-94zM954 1614l29 149h94l-28 -149h-95z" />
<glyph unicode="&#x4ed;" horiz-adv-x="1099" d="M-6 135l49 70q49 -68 133 -107t184 -39q180 0 323.5 118t190.5 294h-561l15 80h563q4 41 4 65q0 162 -102.5 255.5t-257.5 93.5q-184 0 -332 -129l-51 65q72 68 176 108t213 40q195 0 320.5 -121t125.5 -322q0 -246 -183 -438.5t-450 -192.5q-106 0 -203.5 41t-156.5 119 zM457 1284l28 150h95l-29 -150h-94zM737 1284l29 150h94l-29 -150h-94z" />
<glyph unicode="&#x4ee;" horiz-adv-x="1183" d="M72 61l53 68q84 -72 158 -72q72 0 120 51.5t119 174.5l-348 1151h92l264 -873l48 -188h4q59 106 106 188l498 873h102l-723 -1241q-127 -217 -289 -218q-95 0 -204 86zM537 1614l14 82h489l-14 -82h-489z" />
<glyph unicode="&#x4ef;" horiz-adv-x="1060" d="M-143 -373l49 68q43 -43 119 -43q125 0 237 182l109 174l-230 1016h90l179 -831l18 -97h2q27 47 55 97l500 831h98l-776 -1270q-115 -184 -282 -184q-94 0 -168 57zM424 1280l14 82h490l-15 -82h-489z" />
<glyph unicode="&#x4f0;" horiz-adv-x="1183" d="M72 61l53 68q84 -72 158 -72q72 0 120 51.5t119 174.5l-348 1151h92l264 -873l48 -188h4q59 106 106 188l498 873h102l-723 -1241q-127 -217 -289 -218q-95 0 -204 86zM588 1614l28 149h95l-29 -149h-94zM868 1614l29 149h94l-28 -149h-95z" />
<glyph unicode="&#x4f1;" horiz-adv-x="1060" d="M-143 -373l49 68q43 -43 119 -43q125 0 237 182l109 174l-230 1016h90l179 -831l18 -97h2q27 47 55 97l500 831h98l-776 -1270q-115 -184 -282 -184q-94 0 -168 57zM473 1284l29 150h94l-29 -150h-94zM754 1284l28 150h95l-29 -150h-94z" />
<glyph unicode="&#x4f2;" horiz-adv-x="1183" d="M72 61l53 68q84 -72 158 -72q72 0 120 51.5t119 174.5l-348 1151h92l264 -873l48 -188h4q59 106 106 188l498 873h102l-723 -1241q-127 -217 -289 -218q-95 0 -204 86zM588 1536l172 227h110l-178 -227h-104zM823 1536l183 227h122l-206 -227h-99z" />
<glyph unicode="&#x4f3;" horiz-adv-x="1060" d="M-143 -373l49 68q43 -43 119 -43q125 0 237 182l109 174l-230 1016h90l179 -831l18 -97h2q27 47 55 97l500 831h98l-776 -1270q-115 -184 -282 -184q-94 0 -168 57zM459 1206l172 228h110l-178 -228h-104zM694 1206l183 228h122l-206 -228h-99z" />
<glyph unicode="&#x4f4;" horiz-adv-x="1220" d="M178 872q0 57 10 103l91 459h88l-88 -445q-10 -49 -11 -104q0 -221 254 -221q121 0 239 42t191 89l125 639h88l-280 -1434h-88l123 623l16 67h-4q-215 -110 -416 -110q-168 0 -253 77.5t-85 214.5zM584 1614l28 149h95l-29 -149h-94zM864 1614l29 149h94l-29 -149h-94z " />
<glyph unicode="&#x4f5;" horiz-adv-x="987" d="M111 618q0 37 10 89l61 317h86l-61 -317q-8 -49 -8 -74q0 -160 194 -160q184 0 324 96l88 455h86l-199 -1024h-86l78 401l18 70h-4q-63 -33 -152.5 -57.5t-148.5 -24.5q-147 0 -216.5 62.5t-69.5 166.5zM416 1284l28 150h95l-29 -150h-94zM696 1284l29 150h94l-28 -150 h-95z" />
<glyph unicode="&#x4f6;" horiz-adv-x="983" d="M102 0l279 1434h723l-17 -82h-634l-246 -1270h176l-72 -369h-86l56 287h-179z" />
<glyph unicode="&#x4f7;" horiz-adv-x="817" d="M61 0l199 1024h582l-17 -78h-495l-168 -866h153l-63 -326h-86l49 246h-154z" />
<glyph unicode="&#x4f8;" horiz-adv-x="1605" d="M100 0l281 1434h88l-121 -615h338q160 0 257 -83t97 -242q0 -217 -142 -355.5t-337 -138.5h-461zM205 82h354q164 0 276.5 110.5t112.5 296.5q0 117 -71.5 182.5t-192.5 65.5h-352zM813 1614l29 149h94l-29 -149h-94zM1094 1614l28 149h95l-29 -149h-94zM1182 0l280 1434 h88l-280 -1434h-88z" />
<glyph unicode="&#x4f9;" horiz-adv-x="1298" d="M61 0l199 1024h86l-80 -410h223q307 0 308 -252q0 -158 -111 -260t-295 -102h-330zM162 80h231q137 0 224.5 74.5t87.5 199.5q0 180 -218 181h-235zM592 1284l29 150h94l-29 -150h-94zM872 1284l29 150h94l-28 -150h-95zM918 0l198 1024h86l-198 -1024h-86z" />
<glyph unicode="&#x2000;" horiz-adv-x="895" />
<glyph unicode="&#x2001;" horiz-adv-x="1790" />
<glyph unicode="&#x2002;" horiz-adv-x="895" />
<glyph unicode="&#x2003;" horiz-adv-x="1790" />
<glyph unicode="&#x2004;" horiz-adv-x="596" />
<glyph unicode="&#x2005;" horiz-adv-x="447" />
<glyph unicode="&#x2006;" horiz-adv-x="298" />
<glyph unicode="&#x2007;" horiz-adv-x="298" />
<glyph unicode="&#x2008;" horiz-adv-x="223" />
<glyph unicode="&#x2009;" horiz-adv-x="358" />
<glyph unicode="&#x200a;" horiz-adv-x="99" />
<glyph unicode="&#x2010;" horiz-adv-x="884" d="M147 539l15 82h565l-14 -82h-566z" />
<glyph unicode="&#x2011;" horiz-adv-x="884" d="M147 539l15 82h565l-14 -82h-566z" />
<glyph unicode="&#x2012;" horiz-adv-x="884" d="M147 539l15 82h565l-14 -82h-566z" />
<glyph unicode="&#x2013;" horiz-adv-x="1294" d="M147 539l15 82h975l-15 -82h-975z" />
<glyph unicode="&#x2014;" horiz-adv-x="1703" d="M147 539l15 82h1384l-14 -82h-1385z" />
<glyph unicode="&#x2018;" horiz-adv-x="471" d="M256 1141l158 309h84l-131 -309h-111z" />
<glyph unicode="&#x2019;" horiz-adv-x="464" d="M260 1141l131 309h111l-158 -309h-84z" />
<glyph unicode="&#x201a;" horiz-adv-x="505" d="M-10 -184l131 309h110l-157 -309h-84z" />
<glyph unicode="&#x201c;" horiz-adv-x="675" d="M256 1141l158 309h84l-131 -309h-111zM461 1141l157 309h84l-131 -309h-110z" />
<glyph unicode="&#x201d;" horiz-adv-x="669" d="M260 1141l131 309h111l-158 -309h-84zM465 1141l131 309h111l-158 -309h-84z" />
<glyph unicode="&#x201e;" horiz-adv-x="710" d="M-10 -184l131 309h110l-157 -309h-84zM195 -184l131 309h110l-157 -309h-84z" />
<glyph unicode="&#x2020;" horiz-adv-x="784" d="M176 942l17 82h233l78 410h86l-78 -410h244l-17 -82h-243l-203 -1044h-86l203 1044h-234z" />
<glyph unicode="&#x2021;" horiz-adv-x="819" d="M84 381l16 82h234l94 479h-233l16 82h233l78 410h86l-78 -410h244l-16 -82h-244l-94 -479h244l-17 -82h-244l-92 -483h-86l92 483h-233z" />
<glyph unicode="&#x2022;" horiz-adv-x="907" d="M180 596q0 113 79 191.5t191.5 78.5t191.5 -78.5t79 -191.5t-79 -191.5t-191.5 -78.5t-191.5 78.5t-79 191.5z" />
<glyph unicode="&#x2026;" horiz-adv-x="1318" d="M45 0l27 129h125l-27 -129h-125zM481 0l27 129h125l-27 -129h-125zM918 0l26 129h125l-27 -129h-124z" />
<glyph unicode="&#x202f;" horiz-adv-x="358" />
<glyph unicode="&#x2030;" horiz-adv-x="2045" d="M10 0l1356 1434h117l-1358 -1434h-115zM238 1159q0 113 96 206t217 93q104 0 167.5 -63.5t63.5 -167.5q0 -119 -95 -211t-216 -92q-106 0 -169.5 63.5t-63.5 171.5zM326 1153q0 -63 40.5 -105t108.5 -42q86 0 152.5 66.5t66.5 156.5q0 63 -41 105t-106 42 q-86 0 -153.5 -67.5t-67.5 -155.5zM700 211q0 113 96.5 206t217.5 93q104 0 167.5 -63.5t63.5 -167.5q0 -119 -95 -211.5t-216 -92.5q-106 0 -170 63.5t-64 172.5zM788 205q0 -63 41 -105.5t109 -42.5q86 0 152.5 66.5t66.5 157.5q0 63 -41 105t-106 42q-86 0 -154 -67.5 t-68 -155.5zM1358 211q0 113 96 206t217 93q104 0 168 -63.5t64 -167.5q0 -119 -95.5 -211.5t-216.5 -92.5q-106 0 -169.5 63.5t-63.5 172.5zM1446 205q0 -63 41 -105.5t108 -42.5q86 0 153 66.5t67 157.5q0 63 -41 105t-107 42q-86 0 -153.5 -67.5t-67.5 -155.5z" />
<glyph unicode="&#x2039;" horiz-adv-x="669" d="M104 584l394 415h116l-407 -426l258 -415h-98z" />
<glyph unicode="&#x203a;" horiz-adv-x="665" d="M43 158l408 426l-258 415h98l262 -426l-393 -415h-117z" />
<glyph unicode="&#x2044;" horiz-adv-x="307" d="M-352 0l966 1434h95l-965 -1434h-96z" />
<glyph unicode="&#x205f;" horiz-adv-x="447" />
<glyph unicode="&#x20ac;" d="M45 559l14 82h113q6 90 35 182h-111l15 82h125q102 244 317 398.5t463 154.5q98 0 192 -24l-37 -82q-68 20 -157 20q-213 0 -400.5 -130t-281.5 -337h672l-31 -82h-672q-29 -86 -39 -182h641l-29 -82h-614q4 -217 133 -357.5t365 -140.5q113 0 186 27l8 -86 q-86 -27 -196 -27q-262 0 -424 162t-164 422h-123z" />
<glyph unicode="&#x2122;" horiz-adv-x="2103" d="M276 1356v78h738v-78h-330v-815h-80v815h-328zM1098 541l71 893h72l258 -553l29 -82h4q10 41 29 82l258 553h71l72 -893h-78l-57 671l2 58h-4l-260 -561h-70l-260 561h-4l2 -58l-57 -671h-78z" />
<glyph unicode="&#x221e;" horiz-adv-x="946" d="M154 714.5q0 139.5 99 238t238.5 98.5t237.5 -98.5t98 -238t-98 -238.5t-237.5 -99t-238.5 99t-99 238.5z" />
<glyph unicode="&#x2248;" d="M76 391q131 135 289 135q102 0 219.5 -71.5t185.5 -71.5q123 0 238 115l51 -62q-131 -135 -289 -135q-102 0 -220 71.5t-185 71.5q-123 1 -238 -114zM76 719q131 135 289 135q102 0 219.5 -71.5t185.5 -71.5q123 0 238 114l51 -61q-131 -135 -289 -135q-102 0 -220 71.5 t-185 71.5q-123 0 -238 -115z" />
<glyph unicode="&#x2260;" d="M98 375v82h320l186 245h-506v82h568l184 244l68 -51l-146 -193h260v-82h-321l-187 -245h508v-82h-569l-178 -238l-68 51l139 187h-258z" />
<glyph unicode="&#x2264;" d="M43 -231h899v-82h-899v82zM43 543v73l899 404v-98l-772 -340v-4l772 -340v-99z" />
<glyph unicode="&#x2265;" d="M78 -231h899v-82h-899v82zM80 139v99l772 340v4l-772 340v98l899 -404v-73z" />
<glyph unicode="&#x25fc;" horiz-adv-x="1024" d="M0 0v1024h1024v-1024h-1024z" />
<glyph unicode="&#xf8ff;" horiz-adv-x="2314" d="M84 449v569l258 145v310l543 290l274 -145l271 145l542 -290v-310l254 -145v-569l-254 -148v-311l-542 -289l-271 145l-274 -145l-543 289v311zM190 477l234 -131v-285l487 -258l248 136l242 -136l487 258v285l234 131v510l-234 135v279l-487 258l-242 -131l-248 131 l-487 -258v-279l-234 -135v-510zM291 502v461l203 118v252l440 234l225 -121l219 121l439 -234v-252l204 -118v-461l-204 -123v-248l-439 -233l-219 118l-225 -118l-440 233v248zM780 1128h133v-942h88v467h467v82h-467v393h408q35 0 47 -13t12 -46v-86h86v111 q0 61 -26.5 88.5t-91.5 27.5h-656v-82z" />
</font>
</defs>
</svg>
