<svg xmlns="http://www.w3.org/2000/svg" viewBox="0 0 25 25"><path d="M11.18 21.5c0 1.09-.85 1.97-1.91 1.97-1.05 0-1.91-.88-1.91-1.97s.85-1.97 1.91-1.97 1.91.88 1.91 1.97zm7.89-1.99c-1.07 0-1.95.89-1.95 1.99s.87 1.99 1.95 1.99c1.07 0 1.95-.89 1.95-1.99s-.88-1.99-1.95-1.99zM18.11 5.5h-1.79c-.12 0-.21-.1-.21-.21V1.71c0-.12-.1-.21-.21-.21h-3.47c-.12 0-.21.1-.21.21v3.58c0 .12-.1.21-.21.21h-1.78l3.83 3.84c.08.08.12.08.21 0l3.84-3.84zm-7.71 8.93h7.43c.85 0 1.62-.48 1.98-1.25l3.06-6.26a.995.995 0 00-.89-1.43c-.38 0-.73.22-.9.56l-2.91 6.03c-.13.26-.39.43-.69.43h-6.41a.82.82 0 01-.73-.46L6.68 4.49c-.29-.6-.9-.99-1.57-.99H2.44a1 1 0 00-.99 1c0 .55.44.99.99.99h2.22c.18 0 .35.1.43.27l3.29 6.82c.11.22.12.48.03.71l-.94 2.31c-.53 1.4.51 2.89 2 2.89h10.5c.55 0 .99-.44.99-.99s-.44-.99-.99-.99H9.86c-.35 0-.59-.35-.47-.68l.41-.96c.08-.26.33-.44.6-.44z"/></svg>