<svg version="1.1" id="Layer_1" xmlns="http://www.w3.org/2000/svg" x="0" y="0" viewBox="0 0 25 25" xml:space="preserve"><style/><path d="M12.03 10.88c.86 0 1.55.71 1.55 1.58s-.7 1.58-1.55 1.58c-.86 0-1.55-.71-1.55-1.58s.69-1.58 1.55-1.58m0-1.83c-1.85 0-3.35 1.53-3.35 3.41s1.5 3.41 3.35 3.41 3.35-1.53 3.35-3.41-1.51-3.41-3.35-3.41zm8.85 9.43h-2.01c-.27 0-.5-.22-.5-.5 0-.27.22-.5.5-.5h2.01c.27 0 .5.22.5.5s-.22.5-.5.5z"/><path d="M21.38 15.98v2.01c0 .27-.22.5-.5.5-.27 0-.5-.22-.5-.5v-2.01c0-.27.22-.5.5-.5s.5.22.5.5z"/><path d="M20.48 19.96c-.18 0-.34.1-.43.25h-.01s0 .01-.01.01c-.17.29-.39.55-.66.75-.09.06-.18.12-.27.17-.03.02-.07.04-.1.06-.08.04-.16.08-.25.11a.83.83 0 01-.21.06c-.07.02-.13.04-.2.05a2.297 2.297 0 01-1.42-.15 2.5 2.5 0 01-1.53-2.3 2.5 2.5 0 011.53-2.3c.3-.13.63-.2.97-.2.15 0 .31.02.45.05.07.01.13.03.2.05l.21.06c.09.03.17.07.25.11.04.02.07.04.1.06.09.05.19.11.27.17.45.34.78.82.93 1.37 0 0 .94-.36.88-.53-.04-.11-.08-.22-.13-.32-.19-.41-.47-.78-.8-1.09a.755.755 0 00-.14-.11c-.15-.12-.31-.24-.48-.33-.07-.04-.13-.08-.2-.11-.17-.08-.34-.15-.53-.2-.07-.02-.14-.05-.22-.07-.26-.06-.52-.1-.79-.1-.24 0-.48.02-.7.07-1.59.33-2.8 1.74-2.8 3.43a3.506 3.506 0 003.5 3.5c.27 0 .54-.04.79-.1.07-.02.14-.05.22-.07.18-.06.36-.12.53-.2.07-.03.14-.07.2-.11.17-.1.33-.21.48-.33l.14-.11c.26-.24.48-.52.66-.83 0-.01.01-.01.01-.02v-.01a.504.504 0 00-.44-.74z"/><path d="M18.9 11.45c.05.33.08.68.08 1.02 0 .27-.09 1.01-.12 1.27-.57-.11-1.26-.13-1.95.01.11-.41.18-.84.18-1.28 0-.29-.04-.92-.18-1.41 0 0 2.36-1.55 2.81-1.97-.29-.68-.41-.97-.85-1.55-.62.19-3.46 1.3-3.46 1.3-.49-.54-1.24-.98-1.87-1.18 0 0-.53-2.89-.64-3.39-.36-.03-1.18-.06-1.71.01-.07.36-.54 3.33-.54 3.33-.81.23-1.55.64-2.14 1.2 0 0-2.67-1.01-3.36-1.23-.32.45-.6.93-.84 1.44.5.46 2.76 2.31 2.76 2.31-.08.36-.14.75-.14 1.13 0 .44.07.86.18 1.27l-1.45 1.1c-.52.42-.8.7-1.21 1.07.23.51.51.99.83 1.44.48-.15.82-.23 1.37-.44l1.9-.74c.49.46 1.02.89 2.12 1.18l.26 2.05s.14.79.28 1.4c.36.04.56.06.93.06.2 0 .27 0 .63-.02 0 0 .12.38.28.75.08.19.36.73.36.73-.46.07-.93.11-1.42.11-.53 0-1.04-.05-1.54-.13v-.01c-.12-.02-.24-.02-.35-.05-.26-.93-.48-2.05-.65-3.31a6.89 6.89 0 01-1.76-1.03c-1.18.48-2.26.85-3.2 1.09-.13-.16-.66-.88-.66-.88-.31-.44-.58-.91-.81-1.4 0 0-.36-.82-.43-1 .68-.69 1.54-1.44 2.54-2.21-.05-.33-.08-.67-.08-1.02s.04-.69.09-1.02c-1-.78-1.86-1.53-2.54-2.22.37-1.16 1.12-2.42 1.9-3.28.95.25 2.03.62 3.2 1.09.53-.42 1.13-.77 1.77-1.02.17-1.26.39-2.38.65-3.31.51-.08 1.37-.19 1.9-.19.53 0 1.04.05 1.54.13v.01c.13.01.26.03.36.05.26.93.48 2.06.65 3.32.64.25 1.24.59 1.77 1.01 1.17-.48 2.25-.85 3.19-1.09.08.09.58.73.68.86.1.14.51.79.81 1.41.08.17.15.35.22.53.03.07.16.38.2.48-.68.7-1.55 1.45-2.54 2.22z"/></svg>