<svg xmlns="http://www.w3.org/2000/svg" viewBox="0 0 25 25"><path d="M17.54 13.44c0 .56-.45 1.01-1.01 1.01H8.51c-.56 0-1.01-.45-1.01-1.01s.45-1.01 1.01-1.01h8.02c.56 0 1.01.45 1.01 1.01zm0-4c0 .56-.45 1.01-1.01 1.01H8.51c-.56 0-1.01-.45-1.01-1.01s.45-1.01 1.01-1.01h8.02c.56 0 1.01.45 1.01 1.01z"/><path d="M20.46 3.38H4.54c-1.11 0-2.01.9-2.01 2v11.89c0 1.14.93 2.07 2.07 2.07h3.09v3.26c0 .1.03.18.05.27.01.03.01.07.02.1.15.37.51.63.93.63.29 0 .54-.12.72-.31l3.96-3.96h7.08c1.11 0 2.01-.9 2.01-2.01V5.39c.01-1.11-.89-2.01-2-2.01zm.01 13.97l-7.53-.01c-.25 0-.5.1-.69.29l-2.54 2.54v-1.84c0-.54-.43-.98-.97-1h-.06l-4.15-.01V5.38h15.94v11.97z"/></svg>