<svg xmlns="http://www.w3.org/2000/svg" viewBox="0 0 25 25"><path d="M9.07 15.05H3.89c-.51 0-.93.42-.93.93s.42.93.93.93h5.17c.51 0 .93-.42.93-.93a.92.92 0 00-.92-.93zm14.67-1.46a.984.984 0 000-1.4.984.984 0 00-1.4 0l-1.16 1.16-4.38 4.38-1.38-1.38-1.16-1.16a.984.984 0 00-1.4 0 .984.984 0 000 1.4l.89.89 2.31 2.31c.41.41 1.08.41 1.49 0l5.31-5.31.88-.89zm-7.78-3.61h-12c-.55 0-.99.43-.99.95 0 .53.44.95.99.95h11.99c.55 0 .99-.43.99-.95.01-.52-.43-.95-.98-.95zm0-5.08h-12c-.55 0-.99.44-.99.99s.44.99.99.99h11.99c.55 0 .99-.44.99-.99a.977.977 0 00-.98-.99z"/></svg>