<svg xmlns="http://www.w3.org/2000/svg" viewBox="0 0 25 25"><path d="M16.48 17.48c0 .51-.41.92-.92.92H9.42c-.51 0-.92-.41-.92-.92s.41-.92.92-.92h6.13c.51 0 .93.41.93.92zm0-3.99c0 .51-.42.93-.93.93H9.44c-.51 0-.93-.42-.93-.93s.42-.93.93-.93h6.11c.51 0 .93.42.93.93z"/><path d="M13.77 2.53H7.32c-1.55 0-2.81 1.26-2.81 2.81v14.5c0 1.45 1.18 2.63 2.63 2.63h10.81c1.4 0 2.53-1.13 2.53-2.53V9.4c0-.6-.24-1.18-.67-1.61l-4.82-4.76c-.32-.32-.76-.5-1.22-.5zm4.77 17.98H6.46V4.46h7.03v2.91c0 1.21.98 2.14 2.19 2.14h2.84l.02 11z"/></svg>