<svg xmlns="http://www.w3.org/2000/svg" viewBox="0 0 25 25"><path d="M21.97 10.37a1.996 1.996 0 00-1.99-1.84h-8.96c-1.11 0-2.01.9-2.01 2.01v3.93c0 1.11.9 2.01 2.01 2.01h8.96c1.05 0 1.9-.81 1.99-1.84 0-.01.02-.02.02-.03V10.4c-.01-.01-.02-.02-.02-.03zM10.96 14.5v-4.01l9.05-.02v4.04l-9.05-.01z"/><path d="M19.03 15.44v4.05l-14.06.03V5.48l14.09.03V9.6h1.93V5.99c0-1.05-1.07-2.45-2.7-2.45H5.84c-1.56 0-2.82 1.26-2.82 2.82v12.7c0 1.33 1.08 2.42 2.42 2.42H18.4c1.05 0 2.58-.7 2.58-2.49l.02-.38v-3.16h-1.97z"/><circle cx="13.77" cy="12.46" r="1"/></svg>