<svg xmlns="http://www.w3.org/2000/svg" viewBox="0 0 25 25"><path d="M20.56 17.54h-11c-.55 0-.99.43-.99.96s.44.96.99.96h10.99c.55 0 .99-.43.99-.96.02-.53-.43-.96-.98-.96zm0-6.01h-11c-.55 0-.99.42-.99.95 0 .52.44.95.99.95h10.99c.55 0 .99-.42.99-.95.02-.52-.43-.95-.98-.95zm-11-4.01h10.99c.55 0 .99-.44.99-.99s-.44-.99-.99-.99H9.56c-.55 0-.99.44-.99.99 0 .54.45.99.99.99zm-5.06.93h.94V4.53H4.5v.98h-.93v.97h.93zm-1.06 3.08h2v.99h1l.01-1.99H3.44zm1.99 1h-.98v.95H3.44v.96h3.01v-.96H5.43zm-1.99 5.01h2l-.01.98h-.97v.97H3.44v.98h3.01v-3.91H3.44z"/></svg>