<svg version="1.1" id="Layer_1" xmlns="http://www.w3.org/2000/svg" x="0" y="0" viewBox="0 0 25 25" xml:space="preserve"><style/><path d="M19.78 8.8l1-1.01c.39-.39.39-1.03 0-1.42-.39-.39-1.03-.39-1.42 0l-.93.94a8.928 8.928 0 00-5.93-2.26c-4.95 0-8.97 4.02-8.97 8.97s4.02 8.97 8.97 8.97c4.95 0 8.97-4.02 8.97-8.97 0-1.95-.63-3.75-1.69-5.22zM12.5 20.99c-3.84 0-6.97-3.13-6.97-6.97s3.13-6.97 6.97-6.97 6.97 3.13 6.97 6.97-3.13 6.97-6.97 6.97zm-2.99-18c0-.54.45-.98 1.01-.98h3.99c.56 0 1.01.44 1.01.98s-.45.98-1.01.98h-3.99c-.56 0-1.01-.44-1.01-.98zm3.95 7.04v3.91c0 .54-.44.98-.98.98s-.98-.44-.98-.98v-3.91c0-.54.44-.98.98-.98s.98.44.98.98z"/></svg>