<svg version="1.1" id="Layer_1" xmlns="http://www.w3.org/2000/svg" x="0" y="0" viewBox="0 0 25 25" xml:space="preserve"><style/><path d="M4.49 5.3l16.82 16.82c.39.39.45.97.14 1.29-.32.32-.89.26-1.29-.14L3.34 6.45c-.4-.39-.46-.97-.14-1.29.32-.31.89-.25 1.29.14zm14.87 1.06l-1.54 1.55c-.39.39-.39 1.03 0 1.42.39.39 1.03.39 1.42 0l1.54-1.55c.39-.39.39-1.03 0-1.42-.39-.39-1.03-.39-1.42 0zm-5.72 5.82v-2.16c0-.56-.4-1.02-.89-1.02s-.89.46-.89 1.02v.38l1.78 1.78z"/><path d="M8.71 7.39c.28.29.71.38 1.08.22.47-.2.97-.36 1.48-.45.05-.01.1-.02.15-.02.34-.05.69-.09 1.05-.09s.71.03 1.05.09c.05.01.1.01.15.02 1.09.2 2.09.65 2.94 1.29l.01-.01c1.09.82 1.93 1.96 2.39 3.28.12.35.21.71.28 1.08.01.03.01.07.02.1a6.233 6.233 0 01.01 2.18c-.01.05-.01.1-.02.15-.09.52-.25 1.02-.45 1.49-.16.37-.02.83.22 1.08.34.37 1.23.57 1.73-.56.05-.12.09-.24.13-.37.04-.13.08-.25.12-.38.04-.14.08-.29.11-.44.03-.12.06-.23.08-.35.03-.18.06-.35.08-.53.01-.1.03-.19.04-.29.03-.28.04-.57.04-.85 0-.33-.02-.66-.06-.98l-.03-.17c-.04-.27-.08-.54-.14-.81l-.03-.11c-.07-.29-.15-.57-.25-.85 0-.01-.01-.02-.01-.03a8.988 8.988 0 00-4.54-5.12c-.09-.04-.18-.09-.27-.13-.14-.06-.27-.12-.41-.17-.12-.05-.24-.09-.36-.13l-.39-.12a6.78 6.78 0 00-.43-.11c-.12-.03-.24-.06-.36-.08-.17-.03-.35-.06-.53-.08-.1-.01-.2-.03-.3-.04-.28-.03-.56-.04-.85-.04-.29 0-.57.02-.85.04-.1.01-.2.03-.3.04-.18.02-.35.05-.53.08-.12.02-.24.05-.36.08-.04 0-.66.17-1.34.43-.68.27-.87 1.14-.35 1.66zm10.01 12.95l-1.38-1.4c-.72.73-1.59 1.3-2.57 1.65-.34.12-.69.22-1.06.28-.03.01-.07.01-.1.02-.36.06-.72.1-1.09.1-.37 0-.74-.04-1.09-.1-.03-.01-.07-.01-.1-.02-.36-.07-.72-.16-1.06-.28a6.86 6.86 0 01-3.21-2.4l.01-.01a7.023 7.023 0 01-1.27-2.96c-.01-.05-.02-.1-.02-.15-.05-.34-.09-.7-.09-1.06 0-.38.04-.75.1-1.12.01-.03.01-.07.01-.1.07-.37.16-.73.28-1.08.34-1 .9-1.89 1.62-2.62l-1.39-1.4c-.93.94-1.65 2.09-2.09 3.38 0 .01-.01.02-.01.03-.09.28-.17.56-.24.85l-.03.11c-.06.27-.1.53-.14.81l-.03.17c-.03.32-.06.65-.06.98 0 .29.02.57.04.85.01.1.03.2.04.29.02.18.05.36.08.53.02.12.05.24.08.35.03.15.07.29.11.44.04.13.08.26.12.38.04.12.09.25.13.37.05.14.11.28.16.41.04.09.09.18.13.28.07.16.15.31.23.46l.01.01a8.917 8.917 0 003.92 3.72c.28.13.56.25.86.36.01 0 .02.01.03.01.27.1.55.18.83.25.04.01.07.02.1.03.26.06.52.1.79.14l.17.03a7.733 7.733 0 001.92 0l.17-.03c.27-.04.53-.08.79-.14.04-.01.07-.02.1-.03.28-.07.56-.15.83-.25.01 0 .02-.01.03-.01.29-.1.58-.22.86-.36.95-.44 1.77-1.05 2.48-1.77zM9.89 2.97c0-.54.43-.98.97-.98h3.85c.54 0 .97.44.97.98s-.43.98-.97.98h-3.85c-.54 0-.97-.43-.97-.98z"/></svg>