<svg xmlns="http://www.w3.org/2000/svg" viewBox="0 0 25 25"><path d="M11.09 12.62l4.24 4.18c.39.39.39 1.03 0 1.42-.39.39-1.03.39-1.42 0l-4.24-4.18c-.39-.39-.39-1.03 0-1.42.39-.39 1.03-.39 1.42 0z"/><path d="M13.9 12.62L9.66 16.8c-.39.39-.39 1.03 0 1.42.39.39 1.03.39 1.42 0l4.24-4.18c.39-.39.39-1.03 0-1.42-.39-.39-1.02-.39-1.42 0z"/><path d="M17.48 23.45H7.52c-1.11 0-2.01-.9-2.01-2.01V7.55h13.97v13.89c0 1.11-.89 2.01-2 2.01zM7.43 21.53h10.15V9.42H7.43v12.11zM19.49 5.48H5.47c-.53 0-.96-.38-.96-.91 0-.56.45-1.01 1.01-1.01h14.02c.53 0 .96.43.96.96-.01.56-.46.96-1.01.96z"/><path d="M13.51 2.55v1.98c0 .56-2.01.56-2.01 0V2.55c0-.56.45-1.01 1.01-1.01.55.01 1 .46 1 1.01z"/></svg>