<svg xmlns="http://www.w3.org/2000/svg" viewBox="0 0 25 25"><path d="M18.4 3.53v1.98c0 .56-.39 1.01-.86 1.01-.48 0-.86-.45-.86-1.01V3.53c0-.56.39-1.01.86-1.01s.86.45.86 1.01zm-9.94 0v1.98c0 .56-.4 1.01-.9 1.01-.49 0-.9-.45-.9-1.01V3.53c0-.56.4-1.01.9-1.01s.9.45.9 1.01z"/><path d="M21.47 6.38a1.996 1.996 0 00-1.99-1.84H5.52c-1.11 0-2.01.9-2.01 2.01v13.93c0 1.11.9 2.01 2.01 2.01h13.96c1.05 0 1.9-.81 1.99-1.84l.02-.28V6.41c-.01-.01-.02-.02-.02-.03zM5.45 20.56V8.31l14.07-.01v12.26H5.45z"/><path d="M13.21 18.73l-.41-.41c.07 0 .14.01.21.01.06 0 .12-.01.18-.02.19-.02.39-.05.57-.1.08-.02.15-.04.22-.07.18-.06.35-.14.52-.23.07-.04.14-.07.2-.11.22-.14.44-.3.63-.49.17-.17.32-.35.45-.55.67-1.02.75-2.31.25-3.4v-.01c0-.01-.01-.02-.01-.03h-.01a.42.42 0 00-.09-.14c-.2-.2-.51-.2-.71 0-.15.15-.18.37-.1.55.01.02.02.05.03.07.28.62.29 1.33.03 1.96-.12.3-.3.58-.55.83-.11.11-.23.2-.35.29-.06.04-.12.07-.18.1-.06.04-.13.07-.19.1-.08.04-.17.07-.25.1-.04.01-.08.02-.11.03-.1.03-.21.05-.32.07-.24.03-.48.03-.72-.01l.71-.71c.19-.19.19-.51 0-.7a.501.501 0 00-.7 0l-1.77 1.77 1.77 1.77c.19.19.51.19.7 0 .19-.16.19-.47 0-.67zm-1.42-8.49l.41.41c-.07 0-.14-.01-.21-.01-.06 0-.12.01-.18.02-.19.02-.39.05-.57.1-.08.02-.15.04-.22.07-.18.06-.35.14-.52.23-.07.04-.14.07-.2.11-.22.14-.44.3-.63.49-.17.17-.32.35-.45.55a3.525 3.525 0 00-.25 3.4v.01c0 .01.01.02.01.03h.01c.02.05.05.1.09.14.2.2.51.19.71 0 .15-.15.18-.37.1-.55-.01-.02-.02-.05-.03-.07-.28-.62-.29-1.33-.03-1.96.12-.3.3-.58.55-.83.11-.11.23-.2.35-.29.06-.04.12-.07.18-.1.06-.04.13-.07.19-.1.08-.04.17-.07.25-.1.04-.01.08-.02.11-.03.1-.03.21-.05.32-.07.24-.03.48-.03.72.01l-.71.71c-.19.19-.19.51 0 .7.19.19.51.19.7 0l1.77-1.77-1.77-1.77a.501.501 0 00-.7 0c-.19.16-.19.48 0 .67z"/></svg>