<svg xmlns="http://www.w3.org/2000/svg" viewBox="0 0 25 25"><path d="M18.4 3.53v1.98c0 .56-.39 1.01-.86 1.01-.48 0-.86-.45-.86-1.01V3.53c0-.56.39-1.01.86-1.01s.86.45.86 1.01zm-9.94 0v1.98c0 .56-.4 1.01-.9 1.01-.49 0-.9-.45-.9-1.01V3.53c0-.56.4-1.01.9-1.01s.9.45.9 1.01z"/><path d="M21.47 6.38a1.996 1.996 0 00-1.99-1.84H5.52c-1.11 0-2.01.9-2.01 2.01v13.93c0 1.11.9 2.01 2.01 2.01h13.96c1.05 0 1.9-.81 1.99-1.84l.02-.28V6.41c-.01-.01-.02-.02-.02-.03zM5.45 20.56V8.31l14.07.03v12.22H5.45z"/><path d="M15.5 10.92c-.27 0-.5.22-.5.5v.71c-.05-.05-.09-.11-.14-.16a.755.755 0 00-.14-.11c-.15-.12-.31-.24-.48-.33-.07-.04-.13-.08-.2-.11-.17-.08-.34-.15-.53-.2-.07-.02-.14-.05-.22-.07-.26-.06-.52-.1-.79-.1-.24 0-.48.02-.7.07-1.59.33-2.8 1.74-2.8 3.43a3.506 3.506 0 003.5 3.5c.27 0 .54-.04.79-.1.07-.02.14-.05.22-.07.18-.06.36-.12.53-.2.07-.03.14-.07.2-.11.17-.1.33-.21.48-.33l.14-.11c.26-.24.48-.52.66-.83 0-.01.01-.01.01-.02v-.01a.495.495 0 00-.44-.73c-.18 0-.34.1-.43.25h-.01s0 .01-.01.01c-.17.29-.39.55-.66.75-.09.06-.18.12-.27.17-.03.02-.07.04-.1.06-.08.04-.16.08-.25.11a.83.83 0 01-.21.06c-.07.02-.13.04-.2.05a2.297 2.297 0 01-1.42-.15 2.5 2.5 0 01-1.53-2.3 2.5 2.5 0 011.53-2.3c.3-.13.63-.2.97-.2.15 0 .31.02.45.05.07.01.13.03.2.05l.21.06c.09.03.17.07.25.11.04.02.07.04.1.06.09.05.19.11.27.17.19.14.36.32.5.51h-1.07c-.27 0-.5.22-.5.5 0 .27.22.5.5.5h2.57v-2.63a.487.487 0 00-.48-.51z"/></svg>