<svg xmlns="http://www.w3.org/2000/svg" viewBox="0 0 25 25"><path d="M11.1 11.85l4.09 4.1c.38.38.41.97.08 1.31-.34.34-.91.3-1.29-.08l-4.09-4.1c-.39-.39-.42-.98-.09-1.32.34-.33.92-.3 1.3.09z"/><path d="M13.95 11.83l-4.08 4.11c-.38.39-.41.97-.07 1.31.34.34.92.3 1.3-.08l4.08-4.11c.38-.39.41-.97.07-1.31-.34-.35-.92-.31-1.3.08zm4.45-8.3v1.98c0 .56-.39 1.01-.86 1.01-.48 0-.86-.45-.86-1.01V3.53c0-.56.39-1.01.86-1.01s.86.45.86 1.01zm-9.94 0v1.98c0 .56-.4 1.01-.9 1.01-.49 0-.9-.45-.9-1.01V3.53c0-.56.4-1.01.9-1.01s.9.45.9 1.01z"/><path d="M21.47 6.38a1.996 1.996 0 00-1.99-1.84H5.52c-1.11 0-2.01.9-2.01 2.01v13.93c0 1.11.9 2.01 2.01 2.01h13.96c1.05 0 1.9-.81 1.99-1.84l.02-.28V6.41c-.01-.01-.02-.02-.02-.03zM5.45 20.56V8.31l14.07.03v12.22H5.45z"/></svg>