<svg width="137" height="82" viewBox="0 0 137 82" fill="none" xmlns="http://www.w3.org/2000/svg"><path d="M68.501 79.317c21.2 0 38.386-17.133 38.386-38.268S89.701 2.78 68.501 2.78c-21.2 0-38.388 17.133-38.388 38.268S47.3 79.317 68.5 79.317z" fill="#fff"/><path d="M68.501 78.94c-21.027 0-38.074-16.996-38.074-37.956 0-20.962 17.047-37.957 38.074-37.957v-.975c-28.197 0-47.756 12.415-56.094 19.314-9.198 7.61-15.064 27.35 1.48 40.433 0 0 21.468 18.153 54.614 18.153v-1.013z" fill="#B5007B"/><path d="M68.501 78.94c21.027 0 38.072-16.996 38.072-37.956 0-20.962-17.045-37.957-38.072-37.957v-.975c28.197 0 47.754 12.415 56.094 19.314 9.196 7.61 15.062 27.35-1.482 40.433 0 0-21.466 18.153-54.612 18.153v-1.013z" fill="#008AB4"/><path d="M34.344 29.114h18.608v5.056H50.32v-2.65h-6.742v6.537h2.506v-2.22h2.752v6.97h-2.752v-1.915h-2.569v7.095h6.805v-3.024h2.632v5.367H34.344v-2.343h2.366V31.52h-2.366v-2.404zm20.371 6.663h7.918v12.272h1.61v2.405h-9.59V48.05h1.919v-9.992h-1.857v-2.28zm4.7-6.787c2.043 0 3.156 1.726 3.156 2.96 0 1.235-1.053 2.961-2.909 2.961-1.855 0-2.968-1.541-2.968-3.083 0-1.544 1.237-2.838 2.721-2.838zm15.84 6.722h2.163v4.504h-2.04c-.711-1.604-2.04-2.035-2.722-2.221-.7-.191-1.484-.216-2.135.092-.649.308-.217 1.388.434 1.696.649.309 4.515 2.313 5.226 2.838.713.524 2.507 3.175 1.083 5.55-1.738 2.902-3.587 2.605-4.67 2.654-1.392.062-3.92-.937-4.485-1.542.032.492 0 1.171 0 1.171h-2.507v-4.441h2.322c.092.646 1.554 2.165 3.123 2.342 1.64.187 2.103-1.169.651-2.002-1.456-.833-3.28-1.544-4.425-2.315-1.145-.77-3.432-3.514-1.237-6.722 2.197-3.208 8.29-1.42 9.22-.4v-1.204zM91.37 48.263v-9.005c-.03-1.109-1.392-2.96-3.557-3.362-2.165-.4-5.32.833-5.32.833l-.712.348v-1.27H79.43v4.438h2.043c.122-.646 1.856-1.82 2.662-1.788.803.03 1.451.277 1.481 1.047.033.771.033 1.483.033 1.483-.28 0-.526-.03-.526-.03-.495-.527-3.76-1.151-5.197.77-1.267 1.694-1.814 2.783-1.33 5.395.442 2.39 3.004 3.64 4.052 3.702 1.639.093 2.721-.616 2.721-.616.28.122.372.432.928.432h6.776v-2.377H91.37zm-6.433-.062c-.898 0-1.115-1.788-1.115-2.589 0-.803.526-2.313 1.177-2.313.803 0 .679 1.788.679 2.28 0 .496.154 2.622-.741 2.622zm8.94-12.457v2.343h1.794V48.25h-1.794v2.297h9.465V48.25h-1.886V35.744h-7.579zm4.485-6.445c2.288 0 3.001 2.066 3.001 2.93 0 .862-.681 2.929-3 2.929-2.32 0-2.91-2.1-2.91-3.146 0-1.047.899-2.713 2.91-2.713z" fill="#000"/></svg>