<svg width="65" height="55" viewBox="0 0 65 55" fill="none" xmlns="http://www.w3.org/2000/svg"><path d="M20.803 24.959a17.21 17.21 0 00-4.759-.695c-2.404 0-4.411.55-5.967 1.222 1.5-5.491 5.104-14.966 12.282-16.033a1.706 1.706 0 001.39-1.227l1.57-5.611a1.704 1.704 0 00-1.41-2.148c-.53-.073-1.07-.11-1.605-.11-8.617 0-17.15 8.994-20.75 21.871C-.56 29.783-1.18 41.141 4.027 48.289c2.913 4 7.163 6.137 12.633 6.35l.067.002c6.749 0 12.733-4.545 14.553-11.052 1.088-3.89.596-7.97-1.385-11.49-1.96-3.48-5.189-6.017-9.091-7.14zM63.049 32.1c-1.96-3.481-5.19-6.018-9.092-7.141a17.214 17.214 0 00-4.758-.695c-2.405 0-4.412.55-5.968 1.222 1.5-5.491 5.103-14.966 12.282-16.033a1.706 1.706 0 001.391-1.227l1.569-5.611a1.704 1.704 0 00-1.41-2.148c-.53-.073-1.07-.11-1.605-.11-8.616 0-17.15 8.994-20.75 21.871-2.114 7.555-2.733 18.913 2.474 26.063 2.912 4 7.164 6.136 12.633 6.349l.067.001c6.748 0 12.733-4.545 14.553-11.051A15.03 15.03 0 0063.05 32.1z" fill="#6B9CC8"/></svg>