<svg width="1090" height="842" viewBox="0 0 1090 842" fill="none" xmlns="http://www.w3.org/2000/svg"><g clip-path="url(#clip0)" fill="#C0E2FF"><path d="M497.865 639.243c-65.657-1.822-100.925-33.191-112.301-96.821-16.888-101.77-11.287-185.189 16.801-250.256 24.665-60.097 61.689-91.993 88.373-106.448 43.379-24.122 89.689-35.499 132.366-34.315 45.959 1.275 88.285 15.113 127.257 31.389 25.982 10.852 52.034 19.172 78.226 22.432 49.102 6.427 85.143 9.96 114.688 10.78 59.025 4.17 101.625 7.885 195.985 40.894 39.04 13.747 58.11 37.069 57.2 69.966-.92 32.898-15.1 70.493-29.36 110.618-17.75 47.626-38.99 102.753-37.11 153.456-23.12 4.424-46.24 8.847-69.22 8.21-42.68-1.184-81.859-9.869-117.689-20.994-39.183-8.685-75.083-17.279-111.194-18.281-29.545-.82-55.948 3.513-79.209 12.997-89.689 35.5-182.591 68.377-254.813 66.373zm-.141 5.062c75.505 2.095 171.76-33.222 258.096-66.282 26.544-9.394 49.664-13.818 75.926-13.089 72.222 2.004 146.814 36.998 228.884 39.275 23.05-1.893 49.38-3.695 72.57-10.649-2.77-136.835 152.66-292.073 9.48-341.632-146.459-49.65-163.364-32.391-313.953-51.766-62.162-9.322-123.412-51.543-205.483-53.82-39.393-1.093-85.634 7.754-135.719 36.754-63.426 36.229-141.67 132.827-105.243 359.235 11.094 73.752 56.352 100.334 115.442 101.974z"/><path opacity=".938" d="M481.236 646.379c-62.373-1.731-97.712-30.569-112.511-89.229-23.594-96.892-21.136-185.463 7.163-258.122 21.312-57.657 61.97-102.115 108.562-123.615 43.308-21.591 86.266-30.529 128.942-29.345 49.243 1.366 88.215 17.643 130.54 31.481 29.265 10.942 55.247 21.793 84.722 25.144 42.536 6.245 75.364 7.156 95.061 7.703l36.111 1.002 29.545.82c49.239 1.366 91.779 7.612 163.369 32.391 87.79 32.827 59.49 105.486 27.49 193.237-21.17 52.597-42.41 107.723-40.6 160.957-23.2 6.954-46.25 8.847-72.51 8.118-42.67-1.184-85.07-12.491-124.183-23.706-39.113-11.216-78.296-19.901-117.69-20.994-26.262-.729-49.382 3.695-72.573 10.649-3.353 2.439-9.989 4.788-13.271 4.697-86.407 35.59-182.662 70.907-258.167 68.812zm-.14 5.061c78.787 2.187 181.748-38.009 274.721-73.418 23.26-9.485 46.31-11.377 72.573-10.649 78.787 2.187 156.521 42.332 238.59 44.61 26.26.728 49.31-1.165 75.86-10.558-5.92-141.987 156.29-304.635 9.97-359.346-74.8-27.402-120.69-31.208-163.369-32.392l-65.656-1.822c-26.262-.729-55.808-1.549-95.061-7.703-65.446-9.414-126.626-54.165-215.261-56.625-39.394-1.093-82.352 7.845-132.296 31.785-79.911 38.303-168.916 167.526-115.865 386.798 18.012 61.281 59.986 87.772 115.794 89.32z"/><path opacity=".875" d="M467.894 653.606c-55.807-1.548-94.499-27.948-109.438-81.546-39.447-117.592-20.434-210.769.808-265.896 24.875-67.689 72.31-119.556 125.537-143.404 43.238-19.061 82.913-28.09 125.589-26.906 52.526 1.458 91.498 17.734 133.753 34.102 29.195 13.473 58.459 24.416 87.934 27.766 22.91 3.168 42.606 3.715 65.586 4.353 29.546.819 52.595-1.073 75.575-.436 19.767-1.984 39.462-1.437 59.162-.891 45.96 1.276 85.14 9.961 137.18 29.133 91 35.448 59.28 113.077 23.92 203.268-21.24 55.127-42.55 112.784-40.74 166.018-26.62 11.924-49.74 16.348-76 15.619-42.68-1.184-85.072-12.491-127.397-26.328-42.396-11.307-81.509-22.523-120.903-23.616-26.262-.729-46.1 3.786-69.29 10.74-13.272 4.697-26.544 9.394-43.168 16.53-89.549 30.438-179.168 63.407-248.108 61.494zm-.14 5.061c82.07 2.278 191.808-45.328 291.346-80.554 23.19-6.954 43.027-11.469 66.007-10.831 82.07 2.277 162.947 47.575 251.583 50.035 26.26.728 52.67-3.604 79.21-12.998-5.85-144.518 159.93-317.196 13.68-374.438-58.53-21.885-101.07-28.131-137.18-29.133-42.678-1.184-82.282 5.315-134.807 3.857-19.697-.546-39.394-1.093-65.586-4.352-68.729-9.505-129.768-59.318-221.687-61.868-36.111-1.003-78.998 5.405-125.589 26.905-99.749 42.818-199.515 204.666-129.699 411.74 18.152 56.22 60.197 80.18 112.722 81.637z"/><path opacity=".813" d="M451.131 665.805l.071-2.531c-52.526-1.458-91.287-25.326-109.72-71.424-40.219-89.755-40.833-186.01-5.547-273.67 28.369-75.189 85.933-136.906 145.726-160.572 43.168-16.53 82.772-23.029 118.883-22.027 52.525 1.458 94.71 20.357 136.965 36.724 32.477 13.564 61.672 27.037 94.43 30.479 16.343 2.986 32.758 3.442 49.172 3.897 36.111 1.002 69.079-3.148 98.695-4.859 26.334-1.802 52.734-6.134 78.994-5.405 39.4 1.093 78.58 9.778 124.12 26.237 91 35.449 59.14 118.139 23.65 213.391-21.32 57.657-42.7 117.845-44.24 173.519-23.26 9.484-49.67 13.817-75.93 13.088-45.96-1.275-88.285-15.113-133.893-29.041-42.326-13.838-84.651-27.675-127.328-28.859-22.979-.638-46.029 1.255-66.007 10.831-23.191 6.954-43.168 16.53-66.359 23.484-83.053 33.151-172.672 66.12-241.611 64.207l-.071 2.531zm0 0c85.353 2.368 201.797-50.117 307.971-87.691 19.907-7.046 42.957-8.939 62.654-8.392 85.353 2.369 172.585 55.44 261.224 57.9 26.26.729 52.66-3.604 79.21-12.997-5.71-149.579 166.91-332.198 17.45-392.062-48.75-19.081-88.01-25.235-124.12-26.237-55.807-1.549-105.47 12.268-177.692 10.264-16.414-.456-32.828-.911-49.172-3.897-72.011-9.596-132.84-67-231.324-69.733-36.111-1.002-75.716 5.496-122.237 24.466-119.586 47.332-226.76 239.365-140.319 439.303 28.281 46.371 67.113 67.709 116.355 69.076z"/><path opacity=".75" d="M437.785 673.031l.07-2.53c-49.242-1.367-88.074-22.705-109.86-66.363-25.069-43.749-36.866-92.195-38.744-142.898-2.019-45.642 5.881-93.541 23.559-138.637 31.933-85.221 96.273-154.347 165.914-177.74 39.816-14.09 79.42-20.589 115.531-19.587 55.808 1.549 101.276 20.538 140.108 41.876 32.407 16.095 64.884 29.659 97.642 33.101 13.131.364 26.192 3.259 39.323 3.623 42.677 1.185 78.928-2.874 115.25-9.464 32.972-4.15 62.652-8.392 92.202-7.572 36.11 1.002 72.01 9.596 114.26 25.964 42.26 16.368 61.18 44.751 59.92 90.302-1.12 40.49-18.8 85.585-36.62 135.742-21.38 60.188-46.12 122.816-44.38 178.58-23.19 6.954-49.66 13.817-79.21 12.997-45.96-1.275-91.5-17.734-137.105-31.662-45.608-13.929-87.863-30.297-133.823-31.572-22.98-.638-42.747 1.346-59.372 8.482-29.826 9.303-59.722 21.136-89.619 32.969-86.336 33.06-169.39 66.211-238.329 64.298l3.283.091zm0 0c91.919 2.551 211.856-57.435 327.948-97.266 19.908-7.046 39.675-9.03 59.372-8.483 85.353 2.368 179.005 60.684 270.925 63.234 22.91 3.169 52.6-1.073 79.21-12.997-5.56-154.64 173.83-344.669 17.87-407.246-45.46-18.989-81.43-25.052-114.26-25.963-68.94-1.913-125.381 19.313-207.452 17.036-13.131-.365-26.262-.729-39.323-3.624-78.577-9.778-135.982-72.152-241.033-75.068-32.828-.911-72.432 5.588-115.53 19.587-139.353 49.317-254.077 276.596-150.87 464.337 24.928 48.81 63.901 65.087 113.143 66.453z"/><path opacity=".688" d="M421.094 682.698c-49.172-3.897-84.791-22.613-110-61.301-31.564-46.462-46.574-97.529-48.242-155.824-1.878-50.704 9.516-106.104 33.9-156.078 17.608-42.565 44.924-79.795 75.312-109.343 30.458-32.078 67.201-53.851 100.38-65.593 39.815-14.091 76.067-18.15 108.895-17.239 59.091 1.64 104.488 23.16 146.603 44.589 32.407 16.095 64.814 32.19 100.854 35.722 9.849.274 22.91 3.169 32.758 3.442 49.243 1.366 88.847-5.132 128.522-14.162 36.324-6.589 69.364-13.27 105.474-12.268 36.11 1.002 68.73 9.505 104.49 23.16 42.18 18.899 64.39 47.373 59.77 95.363-1.12 40.49-18.94 90.647-40.04 140.712-24.74 62.628-46.19 125.346-44.59 186.172-16.77 12.197-43.24 19.06-72.79 18.241-45.96-1.276-94.78-17.826-140.315-34.285-45.539-16.459-94.359-33.009-137.036-34.193-19.697-.547-39.464 1.437-56.089 8.573-36.462 11.651-72.994 25.833-109.527 40.015-89.619 32.968-169.319 63.68-238.329 64.297zm0 0c95.202 2.642 221.915-64.753 344.573-104.403 19.908-7.045 36.392-9.12 56.089-8.573 88.636 2.459 185.434 65.927 280.634 68.569 26.27.728 55.95-3.513 82.64-17.968-5.57-154.64 177.46-357.231 21.57-422.338-38.97-16.277-74.87-24.871-107.7-25.782-78.79-2.186-142.074 28.981-233.993 26.43-9.848-.273-22.979-.637-32.758-3.441-81.859-9.87-139.054-79.836-247.387-82.842-32.828-.911-69.079 3.148-108.895 17.239-159.19 53.831-284.604 311.204-164.773 491.808 25.069 43.749 64.041 60.026 110 61.301z"/><path opacity=".625" d="M407.677 692.457c-45.889-3.806-81.579-19.992-110.211-53.71-63.55-77.74-73.45-194.512-27.543-309.736 42.202-100.131 116.671-179.106 199.514-204.665 36.462-11.651 72.714-15.711 105.542-14.8 62.373 1.731 107.701 25.782 149.745 49.742 35.62 18.716 68.027 34.811 107.28 40.965l29.545.82c52.525 1.458 95.483-7.48 138.511-18.949 39.67-9.029 79.35-18.059 118.74-16.965 32.83.911 65.45 9.413 101.21 23.068 45.47 18.99 64.32 49.904 62.99 97.985-1.2 43.021-22.3 93.086-40.26 148.304-24.8 65.158-49.61 130.316-48.01 191.142-26.69 14.455-53.09 18.787-82.63 17.968-49.25-1.367-98-20.448-146.818-36.998-48.75-19.081-97.571-35.631-143.531-36.906-19.697-.547-36.181 1.528-52.806 8.665-43.098 13.999-86.266 30.529-126.151 47.15-86.337 33.06-169.39 66.211-235.117 66.92zm0 0c101.768 2.824 231.974-72.072 364.551-113.979 16.555-4.606 36.322-6.59 52.736-6.134 91.919 2.55 191.786 73.701 290.276 76.434 29.54.82 55.95-3.513 82.63-17.968-8.57-164.853 181.24-374.854 22.21-445.113-35.69-16.186-71.66-22.249-101.21-23.069-85.35-2.369-158.696 36.117-257.18 33.384l-26.263-.729c-85.142-9.96-142.196-84.988-257.095-88.176-29.545-.82-65.797 3.239-105.612 17.33-178.957 55.815-311.921 348.434-175.324 516.841 28.562 36.248 64.322 49.903 110.281 51.179z"/><path opacity=".563" d="M390.987 702.124c-42.607-3.715-78.367-17.37-107.069-48.557-70.326-70.331-83.58-184.664-40.815-305.04 42.624-115.315 130.645-209.109 223.337-234.395 36.462-11.651 69.43-15.801 98.976-14.981 65.656 1.822 110.913 28.403 152.958 52.363 35.549 21.247 67.886 39.872 110.492 43.587l22.98.638c55.807 1.548 102.118-9.829 148.494-23.738 43.03-11.468 86.06-22.937 132.02-21.662 32.83.911 65.45 9.414 94.64 22.887 45.4 21.52 64.25 52.434 62.85 103.046-1.27 45.551-22.44 98.147-43.68 153.274-24.88 67.689-49.75 135.377-48.22 198.734-23.41 14.546-53.16 21.318-82.71 20.498-49.24-1.367-101.27-20.539-149.954-42.15-48.75-19.081-100.713-40.783-146.673-42.058-19.697-.547-36.181 1.528-52.736 6.134-49.733 16.348-96.255 35.317-142.776 54.287-83.334 43.273-163.105 76.515-232.114 77.133zm0 0c108.333 3.006 242.033-79.391 381.245-123.646 16.555-4.606 33.039-6.681 49.453-6.225 95.202 2.641 201.495 79.035 296.705 81.677 29.54.82 59.23-3.421 85.98-20.407-5.28-164.763 188.09-384.794 29.12-457.584-35.68-16.186-65.09-22.067-97.92-22.978-91.92-2.551-175.391 45.784-280.442 42.869l-22.979-.638c-88.426-10.051-145.269-92.671-263.45-95.95-29.546-.82-62.514 3.33-102.259 14.89-198.725 57.799-339.237 385.665-185.946 544.405 32.056 28.747 67.816 42.402 110.493 43.587z"/><path opacity=".5" d="M374.29 711.79c-42.677-1.184-75.154-14.748-107.28-40.965-73.819-62.83-93.709-174.814-50.874-297.721 21.452-62.718 55.966-122.542 96.694-169.53 44.081-49.428 97.659-85.93 153.889-99.565 33.109-9.211 66.077-13.361 95.622-12.541 68.94 1.913 114.127 31.025 159.384 57.606 35.549 21.247 71.098 42.494 113.704 46.209l19.697.547c55.808 1.548 108.755-12.178 158.484-28.526 49.67-13.817 92.77-27.816 142.01-26.45 32.83.911 62.16 9.323 91.36 22.796 45.39 21.52 67.46 55.056 62.7 108.107-1.33 48.082-22.5 100.678-43.89 160.866-24.94 70.219-53.17 140.348-51.64 203.704-23.4 14.546-53.23 23.848-82.78 23.028-49.24-1.366-101.2-23.068-153.165-44.771-51.963-21.702-103.927-43.405-153.169-44.771-16.414-.456-32.898 1.619-49.453 6.225-53.016 16.257-106.244 40.105-159.401 61.423-89.829 40.561-169.67 76.334-241.892 74.329zm0 0c114.898 3.189 255.445-89.148 401.223-133.221 16.555-4.606 33.039-6.681 49.453-6.226 98.485 2.733 207.854 86.81 306.334 89.543 29.55.82 59.3-5.952 86.06-22.937-5.14-169.824 195-397.265 29.62-475.299-32.41-16.095-61.82-21.976-94.64-22.887-98.49-2.733-188.81 55.542-300.426 52.445l-19.697-.547C737.226 182.428 687.159 92.399 559.129 88.846c-29.545-.82-59.231 3.421-95.623 12.542C245.014 161.171 97.024 521.752 267.01 670.825c32.056 28.748 67.886 39.872 107.28 40.965z"/><path opacity=".438" d="M357.524 723.988c-39.323-3.624-75.153-14.748-104.067-38.344-38.621-28.93-63.69-72.679-75.346-126.186-8.515-48.355-6.899-106.559 11.13-164.307 18.31-67.871 56.387-137.726 103.821-189.593C343.92 148.72 404.134 109.87 463.716 93.796c33.109-9.212 62.795-13.453 92.34-12.633 72.222 2.004 117.409 31.116 162.526 62.759 35.479 23.777 71.028 45.024 116.847 51.361l16.414.455c59.091 1.64 112.108-14.617 165.197-33.404 53.01-16.256 99.46-32.695 151.99-31.238 32.83.911 58.88 9.232 88.07 22.705 103.72 50.996 61.24 161.25 18.54 279.095-25.01 72.75-53.31 145.409-51.86 211.296-23.47 17.076-53.22 23.848-82.77 23.029-49.24-1.367-104.42-25.691-159.663-47.485-51.963-21.702-107.139-46.026-156.381-47.393-16.414-.455-32.899 1.62-46.17 6.317-59.653 18.605-116.233 44.893-172.743 68.65-89.83 40.561-172.954 76.243-248.529 76.678zm0 0c121.464 3.371 265.505-96.467 421.201-142.798 13.272-4.696 29.756-6.772 46.17-6.316 101.768 2.824 214.275 92.053 316.045 94.877 29.55.82 59.3-5.952 86.13-25.468-8.36-172.446 198.63-409.827 30.03-490.482-32.4-16.095-61.81-21.976-91.35-22.796-105.05-2.915-205.504 65.209-317.119 62.112l-16.414-.456c-98.274-10.325-148.131-107.945-279.443-111.59-26.263-.728-55.949 3.513-92.341 12.634C222.175 155.472 66.635 551.3 250.104 688.084c35.479 23.777 68.026 34.811 107.42 35.904z"/><path opacity=".375" d="M340.834 733.655c-36.041-3.533-71.941-12.127-100.925-33.191-41.974-26.491-67.183-65.179-82.123-118.777-11.796-48.446-10.252-104.119 4.495-161.959 18.521-75.463 56.738-150.379 107.736-212.277 54.421-66.869 121.342-110.598 190.772-126.4 29.756-6.771 59.442-11.013 88.988-10.193 75.504 2.096 120.621 33.738 169.021 65.472 35.408 26.308 70.887 50.086 116.776 53.892l16.414.455c59.091 1.64 118.744-16.965 175.182-38.192 56.37-18.696 109.46-37.483 161.98-36.026 29.55.82 58.95 6.701 84.79 22.614 103.72 50.996 61.03 168.842 14.98 289.127-28.3 72.658-56.74 150.378-52 216.356-30.18 21.956-56.72 31.35-89.55 30.439-52.52-1.458-107.7-25.782-162.876-50.106s-110.351-48.649-162.876-50.106c-16.415-.456-29.616 1.711-46.171 6.316-66.218 18.423-126.151 47.151-186.084 75.878-86.477 38.121-173.024 78.773-248.529 76.678zm0 0c131.313 3.644 278.917-106.225 441.249-154.904 13.272-4.697 29.756-6.772 42.888-6.408 101.767 2.824 220.629 99.828 325.679 102.743 26.2 3.259 56.02-6.043 82.85-25.56-8.22-177.506 205.62-424.828 37.09-508.014-29.12-16.003-58.53-21.884-88.07-22.704-111.62-3.098-218.916 74.967-337.097 71.687l-16.414-.455c-101.627-7.886-147.92-115.538-285.798-119.364-26.263-.729-55.948 3.513-88.987 10.194-257.956 61.22-421.044 492.294-220.95 621.942 35.549 21.247 71.449 29.841 107.56 30.843z"/><path opacity=".313" d="M320.782 745.761c-36.111-1.002-68.658-12.035-97.782-28.039-42.044-23.96-70.607-60.208-85.616-111.276-15.15-46.006-13.605-101.679-2.142-159.61 15.449-83.146 57.16-165.563 111.651-234.962 61.198-74.278 131.542-122.977 210.821-138.505 29.756-6.772 59.441-11.014 85.704-10.285 78.788 2.186 127.117 36.45 172.163 70.624 38.692 26.399 74.101 52.708 119.99 56.513l13.131.365c62.374 1.731 122.096-19.405 181.818-40.541 56.44-21.226 116.16-42.362 171.97-40.813 29.55.819 58.95 6.701 84.79 22.613 106.93 53.618 60.88 173.903 14.7 299.249-31.73 77.629-60.17 155.349-58.78 223.767-23.54 19.607-53.37 28.91-86.19 27.999-52.53-1.458-110.92-28.404-166.024-55.259-55.106-26.854-113.494-53.8-166.019-55.258-16.414-.455-29.616 1.711-42.817 3.877-69.571 20.863-136.14 51.938-199.427 83.106-93.253 45.53-179.87 88.713-261.941 86.435zm0 0c141.161 3.917 289.117-118.605 461.227-164.48 13.272-4.696 26.403-4.332 42.817-3.877 105.051 2.916 227.054 105.071 332.104 107.986 29.62-1.711 59.38-8.483 89.55-30.438-8.07-182.568 209.26-437.39 40.87-525.638-29.19-13.473-55.24-21.793-84.79-22.613-114.9-3.188-232.324 84.725-353.788 81.354l-13.131-.364c-104.91-7.976-150.992-123.22-292.153-127.138-26.262-.728-52.595 1.074-85.704 10.285C176.778 133.952 6.141 600.272 223 717.722c32.337 18.625 64.954 27.128 97.782 28.039z"/><path opacity=".25" d="M304.014 757.959c-32.828-.911-65.446-9.414-94.64-22.887-45.398-21.52-74.03-55.238-92.393-103.866-15.22-43.476-16.958-99.24-8.777-157.262 15.589-88.207 57.581-180.746 115.496-255.116 30.669-39.67 64.41-71.657 104.576-98.4 40.166-26.744 83.405-45.804 126.362-54.742 29.756-6.772 56.089-8.574 82.351-7.845 82.071 2.277 130.33 39.072 175.306 75.776 38.622 28.93 73.96 57.769 123.132 61.666l13.131.364c62.374 1.731 125.45-21.844 188.522-45.419 59.8-23.667 122.87-47.242 181.96-45.602 29.55.82 55.67 6.61 81.51 22.522 106.86 56.149 60.67 181.495 14.34 311.902-34.79 69.946-63.37 152.728-61.98 221.145-23.55 19.607-53.44 31.441-86.27 30.53-52.53-1.458-114.13-31.026-169.232-57.88-58.388-26.946-116.707-56.423-169.232-57.88-13.131-.365-29.615 1.711-39.534 3.968-72.854 20.771-142.776 54.287-209.416 87.893-99.889 47.879-189.859 93.501-275.212 91.133zm0 0c151.009 4.19 302.528-128.363 481.275-176.587 13.272-4.696 26.403-4.332 39.534-3.968 108.333 3.007 233.417 112.845 341.747 115.851 29.61-1.711 59.37-8.482 89.62-32.969-8.01-185.098 216.17-449.861 41.29-540.821-25.91-13.382-55.25-21.793-81.51-22.522-121.46-3.37-245.737 94.483-370.484 91.021l-13.131-.364C724.162 179.532 681.644 54.257 533.917 50.158c-22.979-.638-52.595 1.073-82.351 7.845C154.006 125.722-24.11 624.758 206.091 734.98c32.407 16.094 65.095 22.067 97.923 22.978z"/><path opacity=".188" d="M283.972 770.065c-32.829-.911-62.233-6.792-91.428-20.265-45.467-18.989-77.383-52.798-95.816-98.896-18.503-43.567-23.593-96.892-15.343-157.444 12.447-93.359 54.72-196.021 119.341-275.269 34.022-42.11 71.186-79.067 111.423-108.341C355.668 80.667 402.26 59.167 448.5 50.32c26.473-6.863 52.806-8.665 79.068-7.936 85.354 2.369 133.542 41.694 181.731 81.02 38.551 31.46 73.89 60.299 126.345 64.287l9.848.273c62.374 1.731 128.802-24.283 195.228-50.298 63.15-26.106 129.58-52.12 191.95-50.39 29.55.82 55.67 6.61 81.51 22.523 110.07 58.77 60.53 186.556 10.78 321.933-28.51 80.251-60.44 165.472-59.13 236.42-26.82 19.516-56.72 31.349-89.55 30.438-55.8-1.549-114.12-31.025-175.72-60.593-58.322-29.476-119.923-59.044-175.731-60.592-13.131-.365-26.333 1.801-39.534 3.968-79.42 20.589-152.765 59.074-222.758 95.12-93.323 48.062-183.364 96.214-278.565 93.572zm0 0c160.858 4.464 315.94-138.121 501.323-188.692 13.201-2.167 26.403-4.333 39.534-3.968C933.162 580.411 1064.67 695.493 1173 698.499c32.83.911 62.65-8.392 89.62-32.969-7.86-190.16 219.81-462.423 45.06-558.444-25.91-13.382-51.96-21.703-81.5-22.523-124.75-3.461-259.153 104.241-383.9 100.78l-9.849-.274c-111.475-8.158-150.5-140.934-304.793-145.216-22.979-.637-49.312 1.165-79.068 7.936C128.03 114.871-54.351 649.245 192.544 749.8c32.477 13.564 61.882 19.445 91.428 20.265z"/><path opacity=".125" d="M263.92 782.172c-29.546-.82-55.668-6.61-84.932-17.553C87.841 734.232 44.34 644.385 57.7 518.128c9.374-101.042 55.071-208.674 119.972-298.045 34.162-47.17 74.68-86.567 118.199-115.75 46.943-34.153 96.817-55.562 149.623-64.227 26.403-4.332 52.736-6.134 75.715-5.496 88.636 2.46 136.755 44.315 184.874 86.172 38.481 33.991 73.819 62.829 126.274 66.818l9.848.273c62.374 1.731 132.156-26.723 198.655-55.269 66.5-28.545 136.28-57 201.94-55.177 29.54.82 55.66 6.61 78.22 22.43 110 61.302 63.6 194.24 10.5 332.057-31.86 82.69-60.51 168.002-59.27 241.481-23.68 24.668-53.5 33.971-89.62 32.969-55.8-1.549-117.33-33.647-178.94-63.215-61.526-32.098-123.127-61.665-178.935-63.214-13.131-.364-26.333 1.802-36.252 4.059-82.702 20.498-159.401 61.423-232.816 102.439-99.889 47.88-193.283 98.472-291.767 95.739zm0 0C437.909 787 593.343 631.762 788.574 581.464c13.201-2.167 23.12-4.424 36.251-4.06 111.616 3.098 246.195 125.862 357.805 128.96 32.83.911 62.66-8.392 89.62-32.969-7.79-192.691 226.73-474.894 48.84-576.068-25.91-13.382-51.96-21.702-78.22-22.431-128.03-3.553-272.635 116.53-400.665 112.977l-9.848-.273c-118.041-8.341-150.29-148.527-311.148-152.99-22.979-.638-46.029 1.255-75.785 8.027C105.257 106.64-87.956 676.17 178.847 769.68c29.335 8.411 58.81 11.762 85.073 12.491z"/><path opacity=".063" d="M243.803 796.81c-26.262-.729-52.385-6.519-78.507-12.309-48.891-14.019-84.23-42.858-105.945-89.047-21.856-41.127-30.23-94.543-25.332-152.656 4.688-50.521 16.08-105.921 37.323-161.048 21.242-55.127 52.332-109.98 86.494-157.151 37.516-49.61 81.456-93.976 128.329-125.599 50.295-36.593 103.452-57.91 159.611-69.015 26.403-4.332 49.453-6.225 72.433-5.587 42.677 1.184 78.507 12.308 110.843 30.933 29.124 16.004 54.755 39.508 77.173 60.391 38.48 33.991 73.678 67.891 129.416 71.97l6.566.182c65.656 1.822 135.508-29.162 205.363-60.147 69.92-33.516 143.05-64.41 208.71-62.588 29.55.82 55.67 6.61 78.23 22.432 25.84 15.912 45.04 34.173 57.47 59.843 9.22 23.049 11.8 48.446 10.89 81.344-4.97 60.644-29.85 128.332-58.15 200.991-31.93 85.221-63.93 172.972-59.47 249.073-23.69 24.668-53.58 36.501-89.69 35.499-55.81-1.548-120.55-36.268-182.09-68.366-61.526-32.099-126.27-66.818-182.078-68.367-13.131-.365-26.332 1.802-36.251 4.059-89.338 22.846-166.107 66.302-242.806 107.227-106.665 55.289-203.412 108.32-308.532 107.936zm0 0c187.121 5.192 342.905-162.698 547.985-212.724 13.201-2.166 23.12-4.423 36.251-4.059 114.899 3.189 252.621 131.106 367.521 134.294 32.82.911 62.65-8.391 89.69-35.499-7.66-197.752 230.43-489.987 49.33-593.782-25.91-13.382-51.97-21.702-78.23-22.431-131.31-3.644-286.043 126.288-414.073 122.735l-6.566-.182C714.388 176.73 685.633 29.043 518.209 24.398c-22.98-.638-46.03 1.255-72.433 5.587C85.843 95.974-114.919 700.748 165.367 781.97c26.051 8.321 52.174 14.111 78.436 14.84z"/></g><defs><clipPath id="clip0"><path fill="#fff" transform="rotate(-178.41 705.339 411.058)" d="M0 0h1399.02v802.511H0z"/></clipPath></defs></svg>