<svg width="1400" height="803" viewBox="0 0 1400 803" fill="none" xmlns="http://www.w3.org/2000/svg"><g clip-path="url(#clip0)" fill="#C0E2FF"><path d="M499.775 631.295c-65.656 1.822-102.61-27.543-117.497-90.444-22.505-100.678-21.54-184.279 2.897-250.804 21.294-61.372 56.492-95.272 82.333-111.184 41.975-26.491 87.583-40.419 130.259-41.603 45.96-1.276 88.988 10.193 128.803 24.284 26.543 9.393 53.016 16.256 79.349 18.058 49.383 3.695 85.564 5.223 115.109 4.403 59.161.891 101.912 2.238 197.952 29.963 39.75 11.56 60.07 33.789 60.99 66.687.91 32.897-11.17 71.221-23.18 112.075-15.08 48.537-33.23 104.757-28.54 155.278-22.84 5.699-45.68 11.398-68.66 12.036-42.67 1.184-82.279-5.315-118.671-14.435-39.605-6.499-75.926-13.089-112.037-12.086-29.546.819-55.668 6.609-78.366 17.37-87.583 40.418-178.519 78.398-250.741 80.402zm.141 5.061c75.505-2.095 169.653-42.696 254.023-80.493 25.982-10.852 48.821-16.55 75.083-17.279 72.222-2.004 148.64 28.798 230.708 26.521 22.91-3.169 49.1-6.428 71.87-14.657-10.35-136.471 136.23-300.09-9.48-341.632-148.988-41.452-164.911-23.282-316.341-34.275-62.585-5.861-126.082-44.62-208.152-42.342-39.394 1.093-85.072 12.49-133.472 44.224-61.32 39.69-134.086 140.479-85.159 364.519 15.167 73.023 61.829 97.054 120.92 95.414z"/><path opacity=".938" d="M483.568 639.342c-62.373 1.731-99.257-25.104-117.286-82.852-28.931-95.435-31.389-184.006-7.163-258.122 18.082-58.751 56.212-105.395 101.539-129.446 42.045-23.959 84.44-35.266 127.117-36.451 49.242-1.366 89.057 12.724 132.085 24.193 29.826 9.303 56.37 18.696 85.985 20.407 42.817 3.877 75.645 2.966 95.342 2.419l36.111-1.002 29.546-.82c49.246-1.366 92.056 2.511 164.916 23.282 89.48 27.908 65.25 102.024 38.16 191.415-18.22 53.69-36.37 109.91-31.61 162.961-22.77 8.23-45.68 11.398-71.95 12.127-42.67 1.184-85.63-7.754-125.304-16.783-39.675-9.03-79.28-15.528-118.673-14.435-26.263.729-49.102 6.428-71.871 14.657-3.213 2.622-9.708 5.335-12.991 5.426-84.3 40.328-178.448 80.928-253.953 83.024zm.141 5.061c78.787-2.186 179.361-48.031 270.226-88.541 22.699-10.76 45.608-13.928 71.871-14.657 78.788-2.186 158.628 33.587 240.694 31.309 26.27-.729 49.18-3.897 75.16-14.748-13.78-141.441 139.16-312.834-9.97-359.346-76.21-23.211-122.24-24.466-164.917-23.282l-65.656 1.822c-26.263.729-55.808 1.548-95.342-2.42-65.867-5.769-129.434-47.059-218.07-44.599-39.394 1.093-81.79 12.4-130.33 39.072-77.664 42.676-159.365 176.637-94.235 392.629 21.382 60.188 64.761 84.31 120.569 82.761z"/><path opacity=".875" d="M470.648 647.298c-55.808 1.549-95.904-22.664-113.793-75.352-45.907-115.223-32.091-209.311-13.939-265.531C364 237.451 408.484 183.033 460.307 156.269c42.115-21.429 81.228-32.645 123.904-33.829 52.525-1.458 92.341 12.633 135.438 26.632 29.897 11.833 59.723 21.136 89.339 22.847 23.05 1.892 42.747 1.346 65.726.708 29.546-.82 52.455-3.988 75.435-4.626 19.626-3.077 39.323-3.624 59.021-4.17 45.96-1.276 85.56 5.223 138.58 21.48 92.83 30.347 65.46 109.616 35.16 201.628-18.15 56.22-36.23 114.971-31.47 168.023-25.91 13.381-48.75 19.08-75.02 19.809-42.67 1.184-85.63-7.754-128.658-19.222-42.958-8.939-82.632-17.968-122.026-16.875-26.263.729-45.819 6.337-68.588 14.566-12.991 5.426-25.982 10.852-42.185 18.899-87.723 35.358-175.376 73.246-244.315 75.159zm.14 5.061c82.071-2.277 188.999-55.896 286.43-96.588 22.769-8.229 42.326-13.837 65.305-14.475 82.071-2.277 165.335 38.465 253.967 36.006 26.27-.729 52.39-6.519 78.37-17.37-13.85-143.972 142.09-325.578-7.11-374.621-59.65-18.605-102.47-22.482-138.58-21.48-42.677 1.184-81.86 9.869-134.386 11.327-19.696.546-39.393 1.093-65.726-.709-69.15-5.679-132.858-52.029-224.777-49.479-36.11 1.003-78.576 9.779-123.904 33.83-97.22 48.283-187.857 215.415-106.664 418.299 21.242 55.126 64.55 76.718 117.075 75.26z"/><path opacity=".813" d="M454.587 660.407l-.07-2.531c-52.525 1.458-92.551-20.224-113.512-65.229-45.135-87.387-51.086-183.459-20.716-272.941 24.156-76.647 78.208-141.461 136.597-168.407 42.185-18.898 81.368-27.583 117.479-28.585 52.525-1.458 95.693 15.072 138.791 29.071 33.179 11.742 63.076 23.576 95.974 25.195 16.484 2.075 32.899 1.62 49.313 1.164 36.111-1.002 68.798-6.974 98.273-10.324 26.193-3.26 52.314-9.05 78.574-9.779 39.4-1.093 79 5.406 125.38 19.314 92.83 30.347 65.61 114.677 35.45 211.751-18.09 58.751-36.1 120.032-34.55 175.705-22.7 10.76-48.82 16.55-75.09 17.279-45.95 1.276-88.982-10.193-135.293-21.571-43.028-11.469-86.055-22.937-128.732-21.753-22.98.638-45.889 3.806-65.305 14.475-22.769 8.229-42.185 18.898-64.954 27.128-81.087 37.706-168.74 75.594-237.679 77.507l.07 2.531zm0 0c85.353-2.369 198.707-61.231 302.633-104.635 19.486-8.139 42.396-11.307 62.093-11.854 85.353-2.368 175.394 45.784 264.027 43.324 26.27-.728 52.39-6.518 78.37-17.37-13.99-149.032 148.23-340.943-4.32-392.426-49.73-16.348-89.27-20.316-125.38-19.314-55.807 1.549-104.628 18.099-176.85 20.103-16.414.456-32.828.911-49.313-1.164-72.432-5.587-136.351-59.53-234.835-56.797-36.111 1.002-75.294 9.687-120.692 31.207-116.777 53.892-213.137 251.573-115.74 446.41 30.809 44.731 70.765 63.882 120.007 62.516z"/><path opacity=".75" d="M441.662 668.363l-.07-2.531c-49.243 1.367-89.198-17.785-113.372-60.168-27.456-42.291-41.922-90.008-46.609-140.529-4.547-45.46.685-93.724 15.835-139.73 27.157-86.861 87.565-159.449 155.801-186.668 38.973-16.277 78.156-24.962 114.267-25.964 55.808-1.549 102.259 14.89 142.214 34.042 33.25 14.273 66.429 26.015 99.328 27.634 13.131-.364 26.332 1.802 39.464 1.438 42.676-1.185 78.647-7.248 114.547-15.842 32.688-5.972 62.093-11.853 91.643-12.673 36.11-1.002 72.43 5.588 115.53 19.587 43.09 13.999 63.56 41.289 64.83 86.84 1.12 40.49-14.03 86.497-29.04 137.564-18.01 61.281-39.23 125.184-34.41 180.767-22.77 8.229-48.82 16.55-78.36 17.37-45.96 1.275-92.34-12.633-138.654-24.011-46.31-11.378-89.408-25.377-135.368-24.102-22.979.638-42.606 3.715-58.81 11.763-29.264 10.942-58.458 24.415-87.652 37.888-84.37 37.797-165.458 75.503-234.397 77.416l3.283-.091zm0 0c91.919-2.551 208.345-69.096 322.049-115.305 19.487-8.138 39.113-11.215 58.81-11.762 85.353-2.368 182.099 50.663 274.019 48.112 23.05 1.893 52.45-3.988 78.37-17.37-14.14-154.093 154.45-353.778-4.74-407.61-46.46-16.438-82.71-20.498-115.54-19.587-68.934 1.913-124.11 26.238-206.181 28.515-13.131.364-26.262.729-39.464-1.437-78.998-5.406-139.774-64.501-244.824-61.585-32.828.911-72.011 9.596-114.267 25.964-136.403 56.968-238.346 290.26-124.886 471.988 27.596 47.353 67.412 61.443 116.654 60.077z"/><path opacity=".688" d="M425.533 678.94c-49.312-1.164-85.915-17.876-113.231-55.106-34.092-44.64-51.911-94.797-56.809-152.91-4.687-50.521 3.617-106.467 25.192-157.717 15.22-43.476 40.429-82.164 69.132-113.351 28.632-33.718 64.111-57.495 96.588-71.059 38.973-16.277 74.943-22.34 107.771-23.251 59.091-1.64 105.612 17.329 148.851 36.39 33.249 14.272 66.499 28.545 102.68 30.074 9.848-.274 23.05 1.893 32.898 1.619 49.243-1.366 88.426-10.051 127.539-21.267 35.896-8.594 68.516-17.097 104.626-18.099 36.11-1.002 69.15 5.679 105.61 17.33 43.17 16.53 66.92 43.729 64.98 91.902 1.12 40.489-13.89 91.557-32.18 142.716-21.23 63.903-39.17 127.714-34.2 188.358-16.06 13.108-42.11 21.429-71.66 22.249-45.96 1.275-95.62-12.542-142.003-26.45-46.381-13.909-96.045-27.726-138.721-26.541-19.697.546-39.324 3.623-55.527 11.671-35.76 13.655-71.45 29.841-107.139 46.026-87.653 37.888-165.528 72.973-234.397 77.416zm0 0c95.202-2.641 217.982-76.96 338.253-123.351 19.486-8.139 35.83-11.125 55.527-11.671 88.636-2.46 188.807 55.542 284.007 52.9 26.26-.729 55.67-6.61 81.51-22.523-14.13-154.093 157.38-366.522-1.88-422.884-39.82-14.091-76.14-20.68-108.97-19.769-78.783 2.186-140.243 36.815-232.162 39.366-9.849.273-22.98.637-32.898-1.62-82.282-5.314-143.268-72.001-251.601-68.995-32.828.911-68.799 6.974-107.771 23.251-155.96 62.577-266.908 326.509-137.246 500.19 27.457 42.291 67.272 56.382 113.231 55.106z"/><path opacity=".625" d="M412.678 689.428c-46.03-1.255-82.562-15.437-113.02-47.515-67.764-74.096-84.125-190.14-44.679-307.732 36.585-102.317 106.56-185.301 187.858-215.415 35.759-13.655 71.73-19.719 104.558-20.63 62.374-1.73 108.965 19.77 152.274 41.361 36.602 16.712 69.852 30.985 109.386 34.953l29.545-.82c52.525-1.458 94.921-12.765 137.247-26.602 39.113-11.216 78.223-22.431 117.623-23.524 32.82-.911 65.86 5.77 102.33 17.42 46.45 16.439 66.99 46.26 68.32 94.342 1.19 43.02-17.1 94.179-31.97 150.307-21.15 66.434-42.31 132.867-37.34 193.511-25.84 15.912-51.96 21.702-81.51 22.522-49.24 1.367-98.97-14.981-148.635-28.798-49.734-16.348-99.398-30.165-145.357-28.89-19.697.547-36.041 3.533-52.244 11.58-42.255 16.368-84.441 35.267-123.343 54.074-84.37 37.797-165.457 75.503-231.043 79.856zm0 0c101.767-2.824 227.62-84.826 357.669-134.021 16.273-5.517 35.9-8.594 52.314-9.049 91.919-2.551 195.579 62.951 294.069 60.218 29.54-.82 55.67-6.61 81.51-22.522-17.7-164.125 160.17-384.328-2.51-445.66-36.54-14.182-72.79-18.241-102.33-17.421-85.36 2.369-156.456 44.863-254.94 47.596l-26.263.728c-85.563-5.223-146.691-76.97-261.589-73.782-29.546.82-65.516 6.883-104.489 23.16-175.586 65.654-292.117 365.196-146.391 525.769 30.528 34.608 66.99 46.259 112.95 44.984z"/><path opacity=".563" d="M396.549 700.006c-42.747-1.347-79.209-12.998-109.597-42.545-74.118-66.322-93.692-179.744-57.669-302.307 36.163-117.501 118.848-216.032 209.994-246.42 35.76-13.655 68.448-19.627 97.993-20.447 65.656-1.822 112.318 22.209 155.627 43.8 36.673 19.243 69.992 36.046 112.739 37.392l22.98-.637c55.808-1.549 101.416-15.478 146.954-31.937 42.33-13.837 84.65-27.674 130.61-28.95 32.83-.911 65.87 5.77 95.76 17.603 46.53 18.97 67.06 48.791 68.47 99.403 1.26 45.551-16.96 99.24-35.11 155.46-21.08 68.964-42.17 137.928-37.13 201.102-22.56 15.822-51.89 24.233-81.44 25.053-49.24 1.367-102.26-14.89-152.061-33.768-49.734-16.348-102.821-35.135-148.78-33.86-19.697.547-36.041 3.533-52.314 9.049-48.751 19.081-94.149 40.601-139.546 62.122-80.807 47.828-158.611 85.443-227.48 89.887zm0 0c108.333-3.007 237.258-92.691 373.802-144.599 16.274-5.517 32.617-8.503 49.031-8.958 95.202-2.642 205.568 67.739 300.778 65.097 29.54-.82 58.95-6.701 84.72-25.144-14.42-164.216 166.45-394.633 3.7-458.495-36.53-14.182-66.22-18.423-99.05-17.512-91.92 2.551-172.581 55.44-277.631 58.356l-22.98.637c-88.847-5.132-150.185-84.472-268.366-81.192-29.545.82-62.233 6.792-101.276 20.538-195.213 68.731-317.326 403.885-155.467 553.879 33.6 26.926 70.062 38.577 112.739 37.393z"/><path opacity=".5" d="M380.414 710.583c-42.677 1.185-75.856-10.557-109.387-34.952-77.19-58.64-103.259-169.349-67.307-294.442 17.942-63.811 49.084-125.457 87.144-174.632 41.272-51.796 92.744-91.213 148.13-107.945 32.548-11.033 65.235-17.006 94.781-17.826 68.939-1.913 115.671 24.649 162.332 48.679 36.673 19.243 73.346 38.486 116.093 39.832l19.697-.546c55.807-1.549 107.911-18.19 156.662-37.271 48.821-16.55 91.071-32.918 140.321-34.285 32.83-.91 62.58 5.861 92.48 17.695 46.52 18.969 70.41 51.229 68.6 104.463 1.34 48.082-16.88 101.771-34.9 163.052-21.01 71.495-45.31 143.08-40.27 206.255-22.56 15.821-51.82 26.763-81.37 27.583-49.24 1.367-102.32-17.421-155.411-36.208-53.087-18.787-106.174-37.575-155.416-36.208-16.414.455-32.758 3.442-49.032 8.958-52.033 19.172-103.856 45.936-155.749 70.169-87.442 45.48-165.176 85.625-237.398 87.629zm0 0c114.898-3.188 250.108-103.177 393.218-155.267 16.273-5.517 32.617-8.503 49.031-8.958 98.485-2.733 212.347 75.149 310.837 72.416 29.54-.82 58.88-9.232 84.65-27.675-14.56-169.277 172.67-407.468 3.21-476.209-33.25-14.273-62.94-18.514-95.77-17.603-98.48 2.733-185.431 65.927-297.047 69.024l-19.696.547c-95.413-4.95-150.396-92.064-278.425-88.511-29.546.82-58.951 6.7-94.781 17.825-214.84 71.809-342.606 440.042-164.614 579.459 33.601 26.925 69.993 36.046 109.387 34.952z"/><path opacity=".438" d="M364.35 723.692c-39.464-1.438-75.855-10.558-106.033-32.513-40.166-26.744-67.622-69.035-82.228-121.814-11.183-47.808-12.798-106.012 2.001-164.671 14.518-68.782 48.662-140.641 93.147-195.06 47.627-59.57 105.594-101.7 164.193-121.054 32.547-11.033 61.952-16.914 91.498-17.734 72.222-2.004 118.954 24.557 165.756 53.649 36.743 21.773 73.415 41.016 119.515 44.802l16.414-.456c59.091-1.639 111.125-20.811 163.088-42.514 52.029-19.171 97.499-38.161 150.029-39.619 32.83-.91 59.3 5.952 89.19 17.786 106.39 45.166 70.09 157.606 33.99 277.638-20.94 74.025-45.17 148.141-40.06 213.846-22.49 18.352-51.82 26.764-81.37 27.584-49.24 1.366-105.68-19.861-162.048-38.557-53.087-18.787-109.527-40.014-158.769-38.648-16.414.456-32.758 3.442-45.749 8.868-58.529 21.884-113.564 51.27-168.67 78.124-87.442 45.48-168.459 85.717-243.894 90.343zm0 0c121.465-3.371 259.746-111.043 412.634-165.937 12.991-5.425 29.335-8.411 45.749-8.867 101.767-2.824 219.057 80.028 320.817 77.204 29.55-.82 58.88-9.231 84.58-30.205-17.9-171.717 175.61-420.212 2.79-491.393-33.24-14.273-62.93-18.514-92.48-17.695-105.05 2.916-201.564 76.506-313.18 79.603l-16.414.455c-98.695-4.858-153.888-99.564-285.201-95.92-26.263.729-55.668 6.61-91.498 17.734C197.681 163.558 64.332 567.402 255.105 693.8c36.743 21.774 69.852 30.985 109.245 29.892z"/><path opacity=".375" d="M348.222 734.27c-36.181-1.529-72.503-8.119-102.61-27.544-43.379-24.121-70.695-61.352-88.583-114.039-14.466-47.717-16.011-103.39-4.495-161.959 14.308-76.374 48.312-153.294 95.798-217.925 50.629-69.784 115.022-117.157 183.469-136.785 29.335-8.411 58.74-14.293 88.285-15.112 75.505-2.096 122.307 26.996 172.392 55.997 36.813 24.304 73.556 46.077 119.586 47.333l16.414-.456c59.09-1.64 117.619-23.524 172.792-47.848 55.25-21.794 107.21-43.496 159.74-44.954 29.54-.82 59.23 3.421 85.91 17.876 106.39 45.167 70.29 165.198 30.99 287.852-24.23 74.116-48.31 153.294-39.92 218.907-28.92 23.596-54.9 34.447-87.73 35.358-52.52 1.458-108.96-19.769-165.4-40.996-56.44-21.227-112.88-42.454-165.405-40.996-16.414.455-29.475 3.35-45.749 8.867-65.094 22.067-123.342 54.074-181.59 86.081-84.23 42.858-168.389 88.247-243.894 90.343zm0 0c131.313-3.644 272.597-121.53 431.98-179.137 12.991-5.425 29.334-8.411 42.466-8.776 101.767-2.824 225.832 87.438 330.882 84.523 26.33 1.802 55.59-9.141 81.3-30.114-18.05-176.778 181.74-435.578 8.86-509.29-29.97-14.364-59.65-18.605-89.2-17.785-111.61 3.097-214.416 86.992-332.598 90.271l-16.414.456C703.59 162.181 651.399 57.262 513.52 61.088c-26.262.729-55.667 6.61-88.284 15.113-254.164 75.432-393.095 514.887-186.119 633.238 36.673 19.243 72.994 25.833 109.105 24.831z"/><path opacity=".313" d="M328.873 747.469c-36.111 1.002-69.22-8.209-99.187-22.573-43.309-21.591-73.837-56.2-91.656-106.356-17.678-45.096-19.223-100.769-10.989-159.246 10.813-83.875 47.89-168.478 98.449-240.793 56.984-77.558 124.518-130.083 202.814-149.983 29.335-8.412 58.74-14.293 85.002-15.022 78.788-2.186 128.943 29.345 175.815 60.968 40.096 24.212 76.909 48.516 122.939 49.772l13.131-.365c62.374-1.731 120.832-26.146 179.289-50.561 55.18-24.324 113.64-48.74 169.44-50.288 29.55-.82 59.24 3.421 85.92 17.876 109.74 47.606 70.43 170.259 31.27 297.974-27.37 79.269-51.46 158.446-46.28 226.682-22.42 20.882-51.68 31.825-84.51 32.736-52.52 1.457-112.32-22.209-168.828-45.967-56.51-23.757-116.303-47.423-168.828-45.966-16.414.456-29.475 3.351-42.536 6.246-68.307 24.688-133.051 59.408-194.511 94.037-90.585 50.632-174.674 98.552-256.744 100.829zm0 0c141.161-3.917 282.093-134.456 451.395-189.805 12.991-5.426 26.122-5.79 42.536-6.245 105.051-2.916 232.536 92.316 337.586 89.401 29.48-3.35 58.81-11.762 87.72-35.357-18.18-181.84 184.68-448.323 11.66-527.095-29.9-11.834-56.37-18.697-85.92-17.877-114.89 3.189-227.265 97.479-348.729 100.85l-13.131.364c-105.191-2.146-157.593-114.657-298.754-110.74-26.263.73-52.455 3.989-85.002 15.022-277.073 78.6-421.587 553.666-198.548 658.909 33.32 16.803 66.359 23.484 99.187 22.573z"/><path opacity=".25" d="M312.806 760.578c-32.828.911-65.867-5.77-95.763-17.603-46.521-18.969-76.98-51.047-98.011-98.582-17.608-42.565-22.435-98.147-17.485-156.534 10.673-88.935 47.469-183.661 101.17-261.128 28.422-41.309 60.337-75.118 98.958-104.048 38.622-28.93 80.736-50.36 123.132-61.666 29.335-8.412 55.527-11.671 81.79-12.4 82.07-2.277 132.295 31.785 179.238 65.938 40.166 26.743 77.05 53.578 126.362 54.742l13.132-.364c62.373-1.731 124.044-28.768 185.711-55.805 58.39-26.946 120.06-53.983 179.15-55.623 29.55-.82 55.95 3.513 82.64 17.968 109.8 50.136 70.64 177.851 31.61 310.627-30.86 71.768-54.8 156.006-49.62 224.242-22.42 20.882-51.62 34.355-84.44 35.266-52.53 1.458-115.67-24.648-172.185-48.405-59.793-23.667-119.656-49.864-172.181-48.406-13.131.364-29.475 3.351-39.254 6.154-71.589 24.78-139.545 62.122-204.219 99.372-97.08 53.345-184.381 103.886-269.735 106.255zm0 0c151.01-4.191 294.945-144.943 470.742-203.005 12.991-5.425 26.122-5.79 39.253-6.154 108.333-3.007 239.309 99.726 347.649 96.72 29.47-3.351 58.81-11.762 87.65-37.888-18.26-184.37 190.89-461.158 11.23-542.279-26.61-11.924-56.37-18.696-82.63-17.967-121.46 3.37-240.118 107.965-364.865 111.427l-13.131.364C700.23 159.741 650.83 37.017 503.103 41.116c-22.98.638-52.455 3.989-81.789 12.4C127.967 137.634-22.199 645.78 213.76 743.066c33.25 14.273 66.218 18.423 99.046 17.512z"/><path opacity=".188" d="M293.467 773.777c-32.829.911-62.514-3.33-92.411-15.163-46.451-16.439-80.192-48.426-101.153-93.43-20.89-42.474-28.931-95.434-24.05-156.351 7.25-93.906 43.764-198.754 103.89-281.464 31.635-43.932 66.692-82.893 105.243-114.353 41.834-31.552 87.162-55.603 132.84-67 26.052-8.321 52.244-11.58 78.507-12.31 85.353-2.368 135.649 34.225 185.944 70.817 40.237 29.274 77.12 56.109 129.715 57.182l9.849-.273c62.373-1.731 127.257-31.39 192.139-61.048 61.6-29.568 126.49-59.227 188.86-60.958 29.55-.82 55.95 3.513 82.63 17.968 113.16 52.576 70.79 182.912 28.62 320.84-24.02 81.708-51.17 168.569-45.93 239.335-25.7 20.974-54.89 34.446-87.72 35.357-55.81 1.549-115.67-24.648-178.82-50.754-59.859-26.196-123.005-52.302-178.813-50.754-13.131.365-26.192 3.26-39.253 6.155-78.156 24.962-149.254 67.456-217.14 107.328-90.514 53.163-177.746 106.234-272.947 108.876zm0 0c160.858-4.464 307.794-155.429 490.087-216.204 13.061-2.895 26.122-5.79 39.253-6.155 108.333-3.006 246.023 104.606 354.353 101.6 32.83-.911 62.09-11.854 87.65-37.889-18.4-189.431 193.83-473.901 14.03-560.084-26.62-11.924-53.09-18.787-82.64-17.967-124.74 3.462-252.965 118.452-377.712 121.914l-9.849.274c-111.756-1.964-158.084-132.372-312.376-128.09-22.98.638-49.172 3.897-78.507 12.309-316.326 84.755-468.792 628.42-216.7 715.129 33.179 11.742 62.865 15.983 92.411 15.163z"/><path opacity=".125" d="M274.117 786.977c-29.545.82-55.949-3.512-85.775-12.815C95.651 748.876 47.234 661.58 53.571 534.777 57.328 433.37 96.984 323.37 156.83 230.537c31.494-48.993 69.764-90.575 111.598-122.127 44.976-36.704 93.586-60.846 145.83-72.426 26.122-5.79 52.315-9.05 75.295-9.687 88.636-2.46 139.001 36.663 189.367 75.787 40.307 31.804 77.19 58.639 129.786 59.712l9.848-.273c62.374-1.731 130.47-34.011 195.286-66.2 64.81-32.19 132.91-64.47 198.56-66.292 29.55-.82 55.95 3.512 79.35 18.058 113.23 55.107 74.28 190.413 28.9 330.963-27.23 84.33-51.1 171.1-45.78 244.396-22.28 25.944-51.55 36.886-87.66 37.888-55.8 1.549-119.02-27.087-182.17-53.193-63.213-28.637-126.359-54.742-182.167-53.194-13.131.365-26.192 3.26-35.97 6.064-81.439 25.052-155.749 70.168-226.778 115.193-97.08 53.345-187.524 109.038-286.008 111.771zm0 0c173.989-4.828 320.574-168.447 512.716-229.495 13.061-2.895 22.839-5.699 35.97-6.063 111.616-3.098 252.797 112.015 364.407 108.917 32.83-.911 62.1-11.853 87.66-37.888-18.47-191.962 200.04-486.737 16.81-577.89-26.61-11.924-53.08-18.787-79.35-18.058-128.03 3.553-265.746 131.47-393.776 135.023l-9.848.273C690.384 160.014 650.41 21.833 489.553 26.297c-22.98.638-45.89 3.806-75.224 12.218-336.094 82.77-497.425 662.138-225.846 740.708 29.756 6.772 59.371 8.483 85.634 7.754z"/><path opacity=".063" d="M254.843 802.709c-26.263.728-52.665-3.604-79.068-7.937-49.594-11.286-86.477-38.121-110.721-83.034-24.103-39.852-35.427-92.721-33.759-151.016 1.878-50.704 10.182-106.65 28.334-162.87s46.152-112.713 77.646-161.706c34.707-51.614 76.119-98.349 121.166-132.523 48.188-39.325 100.081-63.558 155.538-77.76 26.122-5.79 49.032-8.958 72.011-9.596 42.677-1.184 79.069 7.936 112.389 24.74 29.966 14.363 56.861 36.41 80.402 56.017 40.307 31.805 77.331 63.7 133.209 64.682l6.566-.182c65.656-1.822 133.682-36.633 201.704-71.444 67.96-37.341 139.27-72.243 204.93-74.065 29.54-.82 55.94 3.512 79.35 18.058 26.68 14.455 46.87 31.623 60.7 56.564 10.48 22.502 14.47 47.717 15.38 80.615-1.6 60.826-22.68 129.79-46.91 203.906-27.16 86.861-54.24 176.252-45.57 251.988-22.28 25.944-51.47 39.417-87.58 40.419-55.81 1.549-122.38-29.527-185.6-58.164-63.212-28.636-129.782-59.712-185.59-58.163-13.131.364-26.192 3.259-35.97 6.063-87.934 27.766-162.175 75.412-236.486 120.527-103.434 61.12-197.091 119.435-302.071 124.881zm0 0c187.12-5.193 333.355-181.465 535.344-242.786 13.061-2.895 22.84-5.699 35.971-6.064 114.898-3.188 259.502 116.894 374.402 113.706 32.83-.911 62.09-11.853 87.58-40.419-18.61-197.023 202.9-502.011 16.32-595.603-26.61-11.925-53.08-18.788-79.34-18.059-131.32 3.644-278.605 141.957-406.634 145.51l-6.566.182C690.315 157.485 653.414 11.621 485.99 16.267c-22.979.638-45.889 3.806-72.011 9.596-355.72 85.848-522.633 700.826-238.275 766.379 26.474 6.863 52.876 11.195 79.139 10.467z"/></g><defs><clipPath id="clip0"><path fill="#fff" transform="rotate(180 699.94 401.38)" d="M0 0h1399.02v802.511H0z"/></clipPath></defs></svg>