<svg xmlns="http://www.w3.org/2000/svg" width="325" height="100" viewBox="0 0 505.18 155.68" shape-rendering="geometricPrecision" text-rendering="geometricPrecision" image-rendering="optimizeQuality" fill-rule="evenodd" clip-rule="evenodd"><defs><style>.fil1{fill:#7cb5de}.fil0{fill:#165078}.fil0,.fil2,.fil3{fill-rule:nonzero}.fil3{fill:#7cb5de}.fil2{fill:#fff}</style></defs><g id="Слой_x0020_1"><path class="fil0" d="M.4 23.45c0 26.66 28.65 30.26 28.65 49.45 0 6.66-2.93 9.06-7.59 9.06-4.67 0-7.6-2.4-7.6-9.06v-6.67H0v5.73c0 14.93 7.46 23.46 21.86 23.46 14.39 0 21.85-8.53 21.85-23.46 0-26.65-28.65-30.25-28.65-49.44 0-6.66 2.66-9.19 7.33-9.19 4.66 0 7.33 2.53 7.33 9.19v3.87h13.86v-2.94C43.58 8.53 36.25 0 21.99 0S.4 8.53.4 23.45zm50.98-9.06H66.7v79.96h14.66V14.39h15.33V1.07H51.38v13.32zm57.9 79.96h14.66V1.07h-14.66v93.28zm50.84-38.64h6.67V72.9c0 6.66-2.94 9.06-7.6 9.06s-7.6-2.4-7.6-9.06V22.52c0-6.66 2.94-9.19 7.6-9.19s7.6 2.53 7.6 9.19v10h13.86v-9.07C180.65 8.53 173.18 0 158.79 0s-21.86 8.53-21.86 23.45v48.51c0 14.93 7.47 23.46 21.86 23.46s21.86-8.53 21.86-23.46V42.38h-20.53v13.33zM213.9 1.07h-20.39v93.28h12.79V28.39l10.93 65.96h13.86l10.13-66.9v66.9h13.86V1.07h-20.39l-10 66.23L213.9 1.07zm87.89 0h-21.46l-14.92 93.28h13.45l2.54-16.92h17.99l2.53 16.92h14.79L301.79 1.07zm-11.46 16.52l7.06 47.18h-14.13l7.07-47.18z"/><path class="fil1" d="M0 107.48h316.71v48.2H0z"/><path class="fil2" d="M18.73 118.79h-5.59v25.55h3.51v-18.07l2.99 18.07h3.79l2.78-18.32v18.32H30v-25.55h-5.58l-2.74 18.14-2.95-18.14zm15.71 0v19.45c0 4.09 2.04 6.42 5.98 6.42 3.94 0 5.98-2.33 5.98-6.42v-19.45h-3.79v19.71c0 1.82-.8 2.48-2.08 2.48s-2.08-.66-2.08-2.48v-19.71h-4.01zm16.4 25.55h10.62v-3.65h-6.61v-21.9h-4.01v25.55zm11.07-21.9h4.2v21.9h4.01v-21.9h4.2v-3.65H61.91v3.65zm15.86 21.9h4.01v-25.55h-4.01v25.55zm8.45-10.95h7.29v-3.65h-7.29v3.65zm20.27-14.6h-5.88l-4.09 25.55h3.69l.69-4.64h4.93l.69 4.64h4.05l-4.08-25.55zm-3.14 4.53l1.93 12.92h-3.87l1.94-12.92zm10.27 1.6c0 7.3 7.84 8.29 7.84 13.54 0 1.83-.8 2.48-2.08 2.48-1.27 0-2.08-.65-2.08-2.48v-1.82h-3.79v1.57c0 4.08 2.04 6.42 5.98 6.42 3.95 0 5.99-2.34 5.99-6.42 0-7.3-7.85-8.29-7.85-13.54 0-1.83.73-2.52 2.01-2.52 1.28 0 2.01.69 2.01 2.52v1.06h3.79v-.81c0-4.08-2-6.42-5.91-6.42-3.9 0-5.91 2.34-5.91 6.42zm15.34 0c0 7.3 7.85 8.29 7.85 13.54 0 1.83-.8 2.48-2.08 2.48s-2.08-.65-2.08-2.48v-1.82h-3.8v1.57c0 4.08 2.05 6.42 5.99 6.42 3.94 0 5.98-2.34 5.98-6.42 0-7.3-7.84-8.29-7.84-13.54 0-1.83.73-2.52 2-2.52 1.28 0 2.01.69 2.01 2.52v1.06h3.8v-.81c0-4.08-2.01-6.42-5.91-6.42-3.91 0-5.92 2.34-5.92 6.42zm19.87-2.48h6.94v-3.65h-10.95v25.55h10.95v-3.65h-6.94v-7.48h5.51v-3.65h-5.51v-7.12zm9.95 0h4.19v21.9h4.02v-21.9h4.19v-3.65h-12.4v3.65zm19.81 21.9h4.01v-25.55h-4.01v25.55zm17.21 0h4.12v-25.55h-3.58v15.29l-4.12-15.29h-5.04v25.55h3.62v-18.5l5 18.5zm11.69-25.55h-4.05l3.94 25.55h5.99l3.94-25.55h-3.69l-3.06 20.84-3.07-20.84zm17.39 3.65h6.93v-3.65h-10.95v25.55h10.95v-3.65h-6.93v-7.48h5.51v-3.65h-5.51v-7.12zm10.6 2.48c0 7.3 7.84 8.29 7.84 13.54 0 1.83-.8 2.48-2.08 2.48-1.27 0-2.08-.65-2.08-2.48v-1.82h-3.79v1.57c0 4.08 2.04 6.42 5.98 6.42 3.94 0 5.99-2.34 5.99-6.42 0-7.3-7.85-8.29-7.85-13.54 0-1.83.73-2.52 2.01-2.52 1.28 0 2.01.69 2.01 2.52v1.06h3.79v-.81c0-4.08-2.01-6.42-5.91-6.42-3.9 0-5.91 2.34-5.91 6.42zm14.69-2.48h4.19v21.9h4.02v-21.9h4.19v-3.65h-12.4v3.65zm15.85 21.9h4.01v-25.55h-4.01v25.55zm17.21 0h4.12v-25.55h-3.58v15.29l-4.12-15.29h-5.04v25.55h3.62v-18.5l5 18.5zm14.72-10.59h1.82v4.71c0 1.83-.8 2.48-2.08 2.48-1.27 0-2.08-.65-2.08-2.48v-13.79c0-1.83.81-2.52 2.08-2.52 1.28 0 2.08.69 2.08 2.52v2.73h3.8v-2.48c0-4.08-2.04-6.42-5.99-6.42-3.94 0-5.98 2.34-5.98 6.42v13.29c0 4.08 2.04 6.42 5.98 6.42 3.95 0 5.99-2.34 5.99-6.42v-8.11h-5.62v3.65z"/><path class="fil3" d="M340.8 155.68v-16.35c-1.11-.42-1.74-1.34-2.31-2.32h-22.16v-3.82h22.16c.42-1.13 1.31-1.72 2.28-2.31V17.07h-4.43L342.74 0l6.4 17.07h-4.42v113.85c1.03.45 1.68 1.24 2.18 2.21h130.06v-4.43l17.07 6.4-17.07 6.4v-4.43H346.92c-.45 1.05-1.35 1.7-2.3 2.26v16.35h-3.82z"/><path class="fil3" d="M335.78 122.85l-2.26-1.01 24.97-60.55 49.59 42.81 43.09-74.91 41.25 22.95-1.21 2.17-38.58-16.82-41.7 81.45-50.72-49z"/><path class="fil2" d="M334.67 122.11l-.32-.32 24.85-58.98 49.22 44.24 43.06-76.23 42.76 22.91-.2.49-41.21-20.76-43.97 78.21-49.06-46.3z"/><path class="fil0" d="M335.51 123.23l-1.73-1.77 56.02-59.6 63.05 28.08 31.06-78.74 2.11 1.3-28.34 90.13-66.55-32.36z"/><path class="fil2" d="M334.67 122.11l-.31-.32 56.2-58.09 63.31 28.33 32.22-84 .76.29-31.96 87.4-63.6-29.49z"/><path class="fil3" d="M358.7 70.85a5.742 5.742 0 0 1-5.15-6.27c.31-3.15 3.12-5.46 6.27-5.14 3.16.3 5.46 3.11 5.15 6.27a5.734 5.734 0 0 1-6.27 5.14z"/><path class="fil2" d="M356.72 69.5c-1.15-.64-1.96-1.86-2.22-3.13-.14-.67-.1-.87-.07-1.45.26-2.66 2.62-4.6 5.28-4.34 2.66.26 4.6 2.63 4.34 5.29l-.05.28c.1-1.83-1.05-3.58-2.73-4.29-.59-.24-.78-.25-1.31-.33a4.5 4.5 0 0 0-4.92 4.04c-.09 1.04.16 2.07.74 2.94.16.24.37.45.55.67l.39.32z"/><path class="fil2" d="M359.05 67.33a2.199 2.199 0 0 1-1.98-2.4c.12-1.21 1.2-2.09 2.41-1.98a2.2 2.2 0 0 1-.43 4.38z"/><path class="fil3" d="M408.14 120.81c-5.73-.56-9.91-5.66-9.35-11.38.56-5.73 5.66-9.91 11.39-9.35 5.72.57 9.9 5.66 9.34 11.39-.56 5.72-5.66 9.9-11.38 9.34z"/><path class="fil2" d="M404.54 118.36c-2.08-1.16-3.55-3.38-4.02-5.69-.25-1.22-.19-1.57-.14-2.63.47-4.83 4.77-8.35 9.59-7.88 4.83.48 8.35 4.77 7.88 9.6l-.08.52c.17-3.32-1.92-6.51-4.97-7.79-1.07-.45-1.4-.46-2.38-.6-4.49-.44-8.48 2.84-8.92 7.32-.17 1.89.28 3.77 1.34 5.35.29.44.67.81 1 1.21l.7.59z"/><path class="fil2" d="M408.77 114.42c-2.2-.21-3.8-2.17-3.59-4.36.22-2.2 2.17-3.8 4.37-3.59 2.19.22 3.8 2.17 3.58 4.37a3.98 3.98 0 0 1-4.36 3.58z"/><path class="fil3" d="M451.73 40.7a7.025 7.025 0 1 1 1.382-13.981A7.025 7.025 0 0 1 451.73 40.7z"/><path class="fil2" d="M449.31 39.05c-1.4-.79-2.4-2.28-2.72-3.84-.17-.82-.12-1.06-.09-1.78a5.922 5.922 0 0 1 6.47-5.31c3.26.32 5.64 3.22 5.32 6.48l-.06.35c.12-2.24-1.29-4.39-3.35-5.26-.72-.3-.95-.3-1.61-.4a5.508 5.508 0 0 0-6.02 4.94c-.11 1.27.2 2.54.91 3.61.2.29.45.54.67.81l.48.4z"/><path class="fil2" d="M452.16 36.39a2.686 2.686 0 0 1-2.42-2.94 2.701 2.701 0 0 1 2.95-2.42c1.48.14 2.56 1.46 2.41 2.94a2.68 2.68 0 0 1-2.94 2.42z"/><path class="fil0" d="M390.06 73.15c-3.64-.36-6.3-3.6-5.94-7.24a6.62 6.62 0 0 1 7.24-5.93c3.63.35 6.29 3.59 5.93 7.23a6.606 6.606 0 0 1-7.23 5.94z"/><path class="fil2" d="M387.77 71.59c-1.31-.74-2.25-2.14-2.55-3.61-.16-.78-.12-1-.09-1.68.3-3.06 3.03-5.3 6.1-5 3.06.3 5.3 3.03 5 6.1l-.05.33c.11-2.11-1.22-4.14-3.16-4.95-.68-.29-.89-.29-1.51-.38a5.185 5.185 0 0 0-5.67 4.65c-.1 1.2.18 2.4.86 3.4.18.28.42.51.63.77l.44.37z"/><path class="fil2" d="M390.46 69.09a2.546 2.546 0 0 1-2.28-2.78 2.538 2.538 0 0 1 2.78-2.27c1.39.13 2.41 1.38 2.27 2.77a2.53 2.53 0 0 1-2.77 2.28z"/><path class="fil0" d="M453.84 104.8c-5.14-.5-8.9-5.08-8.39-10.22.5-5.14 5.08-8.9 10.22-8.39 5.14.51 8.9 5.08 8.39 10.22-.5 5.14-5.08 8.9-10.22 8.39z"/><path class="fil2" d="M450.6 102.6c-1.86-1.04-3.18-3.03-3.61-5.1-.22-1.1-.17-1.42-.12-2.37.42-4.33 4.28-7.5 8.61-7.07 4.34.42 7.5 4.28 7.08 8.61l-.07.48c.15-2.99-1.73-5.85-4.47-7-.96-.4-1.26-.41-2.13-.54-4.03-.4-7.62 2.55-8.02 6.58-.14 1.69.26 3.38 1.21 4.8.26.39.6.72.89 1.09l.63.52z"/><path class="fil2" d="M454.4 99.07a3.595 3.595 0 0 1-3.22-3.92c.2-1.98 1.95-3.42 3.92-3.22 1.98.19 3.42 1.95 3.22 3.92a3.59 3.59 0 0 1-3.92 3.22z"/><path class="fil0" d="M477.74 12.88c7.1-2.22 12.05 3.97 12.05 3.97L489.3 0l-11.56 12.88z"/><path class="fil2" d="M488.6 1.63l-8.18 9.72 3.75.26z"/><path class="fil3" d="M491.55 44.83c1.65 8.69-6.32 13.69-6.32 13.69l19.95 1.71-13.63-15.4z"/><path class="fil2" d="M503.35 59.18L492.99 48.2l-.82 4.4z"/></g></svg>