<svg width="272" height="91" viewBox="0 0 272 91" fill="none" xmlns="http://www.w3.org/2000/svg"><path fill-rule="evenodd" clip-rule="evenodd" d="M44.127 70.141c-9.819.383-17.731-8.743-24.399-17.575-.083-.21-1.44-2.133-1.161-2.726 2.496-7.771 4.868-9.93 7.256-15.752 1.754-3.982 11.406-12.979 15.678-12.433l.02.426c-6.005 4.974.998 3.304 5 2.645 8.548-.65 16.035-.144 23.89 4.281 1.607-.32 5.606 5.523 5.436 5.905-.655.682-4.741-1.08-4.953.297 1.06 2.159 1.929 3.79 3.007 5.969 2.938 7.772 2.708 13.38-1.397 20.47-.234.406-1.165 2.016-1.568 1.613-.975-1-.233-3.303-.632-4.022-.256-.442-.043-.382-.406-.083a81.306 81.306 0 01-9.479 6.18c-5.077 2.647-10.666 4.805-16.292 4.805zm17.647 19.942c1.653-2.538 7.999-10.67 3.45-11.517-2.266-.317-8.019 1.397-13.352 2.032-11.386 1.42-24.482.722-35.045-4.189l-.043-.236c1.124-.612 5.822-.1 5.612-2.475-.15-1.61-1.95-2.751-3.07-3.643C10.86 63.345 3.54 54.176 1.468 43.34-1.028 30.212 4.688 16.707 12.81 6.627c.127-.147.4-.04.716.187 4.486 2.504 7.596 1.506 10.072.937C41.205 2.564 48.844.086 66.96.34c.377 0 5.883.106 5.35.592-.549.51-3.68 1.884-4.844 2.353-1.67.678-4.655 1.82-6.472 2.789-3.01 1.635-7.346 4.39-1.93 5.994 16.952 4.914 29.393 9.994 39.105 25.873.173.319.15.443-.233.319-5.244-1.74-5.882-1.167-5.882 4.551.106 1.993.192 3.98.192 5.97-.042 13.337-6.138 24.708-16.359 33.345-4.206 3.556-8.927 6.434-13.772 8.32-.51.19-.677.147-.341-.362z" fill="#151717"/><path fill-rule="evenodd" clip-rule="evenodd" d="M46.664 69.273c1.17.173 2.245.253 3.686-.08 7.386-1.763 13.817-6.227 18.113-10.103 3.407-3.151 3.51 1.816 3.47 3.516 0 .4.21.339.466.017 1.078-1.331 2.306-6.285 2.71-8.255 1.395-7.093-1.057-11.986-4.487-17.926-2.622-4.241 3.11-3.16 4.888-2.332 1.057.486.908.526.02-.296-8.211-7.625-19.807-9.784-30.66-8.407-1.587.19-4.063.676-4.764.549-2.22-.486-.23-3.048 1.038-4.106-3.511 1.375-6.624 3.407-9.204 5.483-4.951 3.936-7.832 10.161-9.605 16.449l-2.625 8.067.233.716c13.754 8.893 21.097 15.67 26.72 16.708zM80.63 22.757l-.296-.147.296.147zM69.688 85.299c3.303-2.981 8.23-12.955 5.336-13.74-1.035-.256-2.01.36-3.62 1.145-2.2 1.058-4.888 2.664-7.935 3.706-7.553 2.581-14.813 3.832-21.946 3.961-3.087.06-6.006-.198-8.884-.552-2.03-.388-2.435-.575-.063-.931 4.293-.532 14.008-3.643 8.591-4.83-2.179-.423-2.772-.486-4.781-1.015-14.477-3.47-28.544-12.217-32.862-26.547-4.469-14.76 2.305-29.07 8.65-37.227-.163 2.778-.546 8.028 5.63 4.348C29.043 6.687 38.902 2.9 52.234 1.144 56.801.53 61.27.36 65.883.402c1.225.023 2.41.043 3.427.09 1.754.08 2.875.253 2.855.353l-.273.259c-1.081.546-2.246.994-3.39 1.437-7.257 2.835-27.233 10.267-12.762 11.644 12.13 1.44 23.406 4.784 32.425 13.125 1.248.998 2.66 2.795 2.58 2.964-.024 0-.89-.489-1.545-.782-3.3-1.673-12.38-3.956-7.788.72 16.65 17.695 8.4 42.025-11.659 55.193-.592.403-.613.383-.066-.106z" fill="#A01D21"/><path fill-rule="evenodd" clip-rule="evenodd" d="M73.37 34.36c.68.127 1.44.363 1.926.535.253.04-8.824-12.601-31.741-10.017-5.184.486-2.453-2.541.678-3.622 1.714-.575 2.31-.782-.126-.21-1.124.25-2.223.612-3.281 1.015-10.494 4.678-16.356 11.966-19.74 22.337-.3 1.04-1.015 2.92-1.61 4.723-.489 1.228-.74 3.787-2.605-1.21.126 1.144.808 3.18 1.76 4.68.105.17.252.317.545.55 4.445 3.599 9.292 6.497 15.428 10.755 1.122.909 4.825 2.792 6.708 4.149.742.595.13.828-.975.888-1.141.066-2.093-.106-3.194-.359-8.844-2.03-17.285-6.546-23.723-12.958.256.319.512.615.762.911a39.325 39.325 0 005.293 4.847 44.04 44.04 0 0011.11 5.952 40.508 40.508 0 0011.385 2.242l-.342.046c6.437.293 11.195-.808 15.96-2.944 3.002-1.354 5.796-3.07 8.694-5.336.889-.658 3.405-2.924 4.106-2.518.696.38.462 2.581.549 3.936.02.276.253.339.425.126 2.03-2.455 3.022-5.46 3.746-8.172 1.415-7.093-.109-11.773-3.6-17.678-1.586-2.645-.487-3.093 1.862-2.668zM70.62 1.504C60.995 5.1 51.301 7.814 42.92 13.38c-1.437 1.018-2.349 1.946-.02 1.736 16.083-1.653 31.046 1.651 43.783 11.518.888.699.825.633-.17.21-3.959-1.716-7.087-2.875-11.785-4.042-5.905-1.483-10.261-1.63-2.435 3.473 8.718 5.69 14.959 12.998 15.977 24.073.15 1.415.19 2.875.15 4.44-.044.575-.087 1.17-.17 1.762-.934 10.394-6.897 18.525-14.39 25.298-1.886 1.694-2.053 1.673-.253-.21 4.146-4.344 6.94-9.76 8.634-15.605 2.093-7.26 1.015-13.994-1.377-13.482-.658.147-1.015 1.032-1.541 2.39-1.36 3.576-3.177 6.287-5.653 9.185-5.735 6.69-14.855 10.48-23.51 13.317 1.924-.17 5.65-1.566 7.746-2.323 8.974-3.712 14.64-7.205 20.143-14.461.806-1.102.615-.28-.19.974C73.35 69.17 64.38 75.182 51.83 78.097c-4.275.96-8.867 1.104-13.246 1.32-2.944.146-3.11.017-.043-.469 5.077-.804 9.905-1.969 14.283-4.91 2.096-1.4.253-1.4-.741-1.315-6.602.59-12.823.234-19.232-1.483-17.716-5.544-31.109-17.4-29.755-37.07.636-8.234 4.046-16.219 7.047-21.192-.486 1.46-1.504 5.652-1.633 9.102-.104 3.324.362 5.147 1.822 3.177.552-.782.975-1.314 1.545-2.052C23.834 8.258 42.413 2.245 61.438 1.04c6.073-.445 8.188-.321 9.54-.195 1.463.149.532.278-.357.658z" fill="#DB4D26"/><path fill-rule="evenodd" clip-rule="evenodd" d="M41.419 12.536c-2.749 1.4-6.155 3.64-7.979 5.652-.888 1.098-.526 1.354 1.59.443 14.644-5.693 31.742-2.156 43.907 3.536 2.904 1.418 2.645 1.757-.337.592-6.604-2.668-28.357-4.954-14.413.805a58.075 58.075 0 016.138 2.985c11.107 6.37 18.324 16.385 16.97 30.74-.061 3.071-2.514 10.037-5.162 13.89-1.63 2.561-1.693 2.475-.382-.063 4.974-9.888 6.118-19.712.995-29.767-3.045-6.014-7.955-10.692-14.2-13.74-3.132-1.524-6.602-2.648-10.348-3.326-4.186-.74-9.606-.57-13.795-.34-2.156.106-2.604-.293-1.377-1.334 1.291-1.078 5.607-2.835 11.555-2.896.679.017 2.815.06 2.306-.066-19.508-.592-30.537 8.108-35.95 21.658-.912 2.266-1.527 4.488-2.073 6.84l-.552 1.331-.722-1.057c-.423-1.165-.742-2.709-.762-3.92-.313-14.077 11.158-28.047 24.59-31.963zM70.599 1.08c.19.02.19.127-.443.38-9.885 3.05-21.564 6.1-31.193 10.543-5.776 2.651-10.327 5.633-14.45 10.503-12.323 14.585-11.915 32.54 5.477 43.402.15.104.532.4.13.25C11.772 58.072 1.488 38.236 16.553 20.58 31.347 4.574 53.672 1.294 70.6 1.081zM19.453 54.432l.107-.17L34.266 64.6l3.64 2.515c.87.51.678.721-.656.337-6.581-1.903-12.464-6.542-17.797-13.019zm-6.665.469c10.56 13.038 29.373 18.355 44.757 12.107 1.395-.55 6.92-3.258 9.014-5.121 2.412-2.055 3.447-2.205 3.32-.678-.233 2.708-1.523 5.017-3.364 6.963 4.256-2.858 7.83-6.607 9.503-13.147 1.46-5.653-.236-12.976-3.493-17.826-1.142-1.777-1.079-2.306-.084-2.2 3.96.38 6.877 2.688 8.888 5.931 3.703 5.946 4.548 15.094 3.176 20.784-.68 2.775-.804 3.07-.425.13.592-4.913.846-11.095-2.668-15.606-2.496-2.26-2.329 1.547-2.792 4.468-1.397 12.851-12.76 19.732-22.073 23.883l.023-.023c-.954.423-1.883.802-2.771 1.145-.469.19-.952.316-.086-.19 3.133-1.823 6.877-4.511 6.414-5.529-.595-.865-6.308 1.44-13.312 1.613-15.933.253-29.455-4.597-38.552-18.38-6.245-9.992-5.184-23.246-1.634-32.05 2.01-5.02.193 1.48-.106 3.467-1.604 10.926-.042 21.153 6.265 30.259z" fill="#F39420"/><path fill-rule="evenodd" clip-rule="evenodd" d="M75.7 58.118c2.688-7.266 1.46-14.778-2.961-21.745-.466-.655.147-1.058 1.08-.146 4.313 4.335 5.52 15.69 1.881 21.89zm-50.49.995l.063-.084 7.323 5.164 1.8 1.248c.443.253.293.449-.34.146-3.156-1.483-6.095-3.614-8.846-6.474zm24.335 10.876c2.559-.523 5.207-1.135 6.052-1.438 5.989-2.072 9.542-4.211 12.36-6.56.653-.676 1.73-.955.61.615-2.81 3.156-8.842 5.483-13.097 6.687-2.036.596-6.478 1.487-9.67 1.613-12.083.716-22.644-3.706-27.658-7.92 1.206.759 14.158 9.82 31.403 7.003zM19.477 37.135c5.35-16.325 20.738-22.313 41.157-19.58-22.22-1.911-34.366 5.017-40.272 19.77a28.753 28.753 0 00-1.244 3.918 55.827 55.827 0 00-.742 4.152c-.193 1.31-.15 2.2-.233 2.222-.13.038-.15-1.506 0-3.576.21-2.334.615-4.657 1.334-6.906zm-7.743 4.425C10.271 14.142 43.98 2.308 67.618 1.587c1.371-.104 1.504-.063-.15.385-12.463 2.792-30.26 6.86-41.856 16.558-6.348 5.33-11.298 14.283-11.741 22.797-.363 7.113 2.176 12.213 6.62 17.53-5.14-4.339-8.403-10.437-8.757-17.297zM6.886 21.49c-2.625 10.268-2.055 18.203.487 27.076-4.043-8.338-3.747-19.56-.487-27.076zm37.432 1.904c-1.308.193-1.587-.638.342-.928 21.793-2.56 39.185 10.58 41.198 24.918-4.296-16.774-21.181-26.322-41.54-23.99z" fill="#FCDB38"/><path fill-rule="evenodd" clip-rule="evenodd" d="M146.883 43.889h7.975l.026-18.168c0-.4-.043-.842.147-1.202a1.55 1.55 0 011.371-.868h26.541v-7.686h-28.357c-3.934 0-7.194 2.962-7.66 6.792l-.063.595v.702l.02 19.835zm-40.482-7.663h26.454l.313-.04a1.535 1.535 0 001.294-1.532v-3.74h-20.356c-3.936 0-7.193-2.968-7.682-6.778a6.937 6.937 0 01-.043-1.31v-6.803h7.999v5.066l.02.638c0 .866.762 1.561 1.61 1.518h18.426l-.017-7.263h8.021V35.8a9.5 9.5 0 01-.042 1.308c-.487 3.816-3.746 6.78-7.683 6.78h-28.314v-7.661zm130.289-20.26h7.766v10.33h4.487l10.98-10.33h11.492l-15.831 13.886 15.745 14.083h-11.492l-10.894-10.31h-4.487v10.31h-7.766v-27.97zm-50.447 0h14.75l8.338 18.478 8.337-18.498c4.972 0 9.882.02 14.856.02v27.946h-7.748V23.734h-2.203l-9.03 20.178h-8.424l-9.014-20.178h-2.116v20.178h-7.746c0-9.316-.023-18.608-.023-27.93h.023v-.017z" fill="#000"/><path fill-rule="evenodd" clip-rule="evenodd" d="M106.381 48.989h7.237v17c-.041.869.422 1.717 1.506 1.76h16.121c.802.043 1.504-.635 1.504-1.44l.02-17.34h7.196v19.079l-.043.55c-.446 3.533-3.493 6.307-7.153 6.307h-19.192c-3.683 0-6.707-2.774-7.153-6.308l-.043-.55V48.99zm51.251-.02l7.746 17.147 7.743-17.127h13.904v25.916h-7.216V56.167h-2.073l-8.422 18.738h-7.871l-8.425-18.738h-1.966v18.738h-7.217c0-8.66-.02-17.3-.02-25.937h13.817zm46.937 0l7.766 17.147 7.742-17.127h13.882v25.916h-7.214V56.167h-2.078l-8.419 18.738h-7.852l-8.418-18.738h-1.97v18.738h-7.239V48.968h13.8zm40.502 12.874v4.465c.02.805.716 1.46 1.503 1.42h16.124c.822.02 1.523-.615 1.523-1.44v-.891h7.171v1.95a6.646 6.646 0 01-.167 1.928c-.658 2.875-3.05 5.144-6.009 5.567a9.881 9.881 0 01-1.377.086h-18.472a8.785 8.785 0 01-1.949-.193c-2.919-.658-5.182-3.13-5.564-6.161a5.31 5.31 0 01-.043-1.228V56.613a5.342 5.342 0 01.043-1.23c.403-3.151 2.814-5.673 5.903-6.222.529-.106 1.078-.127 1.61-.127h18.472c.382 0 .759 0 1.141.04 3.151.343 5.714 2.752 6.309 5.845.103.57.126 1.079.103 1.694v1.797h-7.171v-.74c0-.316-.106-.634-.298-.868a1.518 1.518 0 00-1.225-.571h-16.4a1.463 1.463 0 00-1.227 1.374v4.238z" fill="#F39420"/></svg>