<svg width="148" height="57" viewBox="0 0 148 57" fill="none" xmlns="http://www.w3.org/2000/svg"><path d="M72.685 49.902l-1.133.877.36.439.644-.487h.026v2.582h.722v-3.41h-.619zm2.757.488c.413 0 .799.365.799.95a1.058 1.058 0 01-.227.107c-.144.058-.34.112-.572.112-.438 0-.721-.268-.721-.585 0-.316.283-.584.721-.584zm-.154 3.02c.974 0 1.7-.681 1.7-1.851 0-1.116-.67-1.754-1.546-1.754-.901 0-1.468.53-1.468 1.17 0 .638.567 1.169 1.468 1.169a1.449 1.449 0 00.799-.244h.026a1.003 1.003 0 01-1.03.926c-.222 0-.413-.049-.562-.112a1.146 1.146 0 01-.237-.107l-.31.463a2.23 2.23 0 001.16.341zm3.708-.584c-.412 0-.799-.365-.799-.95.067-.044.144-.078.227-.112.144-.054.34-.108.572-.108.438 0 .721.269.721.585 0 .317-.283.585-.721.585zm.154-3.021c-.973 0-1.7.682-1.7 1.852 0 1.115.67 1.754 1.546 1.754.902 0 1.468-.531 1.468-1.17 0-.638-.566-1.17-1.468-1.17-.232 0-.423.06-.572.123-.083.034-.16.078-.227.121h-.026a1.003 1.003 0 011.031-.925c.222 0 .412.048.562.107.087.034.165.068.237.112l.309-.463a2.233 2.233 0 00-1.16-.341zm3.193.585c.413 0 .799.365.799.95a1.058 1.058 0 01-.227.107c-.144.058-.34.112-.572.112-.438 0-.721-.268-.721-.585 0-.316.283-.584.721-.584zm-.154 3.02c.974 0 1.7-.681 1.7-1.851 0-1.116-.67-1.754-1.546-1.754-.901 0-1.468.53-1.468 1.17 0 .638.567 1.169 1.468 1.169a1.449 1.449 0 00.799-.244h.026a1.004 1.004 0 01-1.03.926c-.222 0-.413-.049-.562-.112a1.146 1.146 0 01-.237-.107l-.31.463a2.23 2.23 0 001.16.341zm2.237-2.022v.585h4.07v-.585h-4.07zm5.618-1.583a2.203 2.203 0 00-1.288.414l.31.463c.082-.054.174-.102.277-.146.17-.073.413-.147.701-.147.515 0 .773.244.773.536 0 .317-.206.512-.515.732l-1.546 1.096v.56h2.834v-.56h-1.752v-.025l.928-.657c.458-.327.798-.629.798-1.17 0-.585-.546-1.096-1.52-1.096zm2.755 1.803c0-.8.438-1.218.927-1.218.49 0 .928.419.928 1.218 0 .799-.438 1.218-.928 1.218-.49 0-.927-.42-.927-1.218zm2.576 0c0-1.116-.721-1.803-1.649-1.803-.927 0-1.648.687-1.648 1.803 0 1.116.72 1.803 1.648 1.803.928 0 1.65-.687 1.65-1.803zm1.444-1.706l-1.133.877.36.439.644-.487h.026v2.582h.721v-3.41h-.618zm2.757.488c.412 0 .799.365.799.95a1.07 1.07 0 01-.227.107c-.144.058-.34.112-.572.112-.438 0-.721-.268-.721-.585 0-.316.283-.584.721-.584zm-.155 3.02c.974 0 1.701-.681 1.701-1.851 0-1.116-.67-1.754-1.546-1.754-.902 0-1.468.53-1.468 1.17 0 .638.566 1.169 1.468 1.169a1.449 1.449 0 00.799-.244h.025a1.003 1.003 0 01-1.03.926c-.222 0-.412-.049-.562-.112a1.143 1.143 0 01-.237-.107l-.309.463a2.23 2.23 0 001.16.341z" fill="#8A9AAF"/><path fill-rule="evenodd" clip-rule="evenodd" d="M145.257 21.396c0-.743 0-1.486-.155-2.229-.052-.16-.155-.69-.259-.796-.466-.425-3.26-.425-3.882-.425h-2.018c-.311 0-.673 0-.932.053-.414.053-.776.213-.983.637-.259.637-.311 2.07-.311 2.76s0 2.07.311 2.707c.207.425.569.584.983.637.311.053.673.053.932.053h4.037c.311 0 .673 0 .932-.053.414-.053.828-.212.983-.637.362-.637.362-2.017.362-2.707zm-22.825 1.168v2.123h6.263c.31 0 .621-.053.828-.265.207-.213.259-.478.259-.797 0-.318-.052-.583-.259-.796-.207-.212-.518-.265-.828-.265h-6.263zm-28.673-.265l-2.07-4.087-2.071 4.087h4.14zM148 21.396c0 .743 0 1.486-.051 2.176-.052.425-.052.956-.207 1.38-.414 1.433-1.76 2.07-3.106 2.336-.466.106-.931.106-1.397.106-.725.053-1.501.053-2.226.053-.724 0-1.449 0-2.225-.053a5.9 5.9 0 01-1.398-.16c-1.345-.265-2.691-.849-3.157-2.335-.104-.424-.155-.955-.207-1.38-.052-.743-.052-1.486-.052-2.229 0-.743 0-1.486.052-2.176.052-.425.052-.955.207-1.38.414-1.433 1.76-2.07 3.105-2.335.466-.107.932-.107 1.398-.16.725-.053 1.501-.053 2.225-.053.725 0 1.501 0 2.226.053.466 0 .983.053 1.397.16 1.346.265 2.692.902 3.106 2.335.103.425.155.955.207 1.38.103.796.103 1.54.103 2.282zm-25.568-3.29v1.804h6.315c2.381 0 3.83 1.22 3.83 3.715s-1.449 3.716-3.83 3.716h-9.058V15.399h11.801v2.653h-9.058v.053zm-7.505.955l-5.227 8.28h-1.605l-5.227-8.227v8.227h-2.743V15.399h3.675l5.072 8.226 5.072-8.226h3.675v11.889h-2.692V19.06zm-19.823 5.891h-6.728l-1.242 2.389h-3.106l6.108-11.942h3.157L99.4 27.34h-3.105l-1.19-2.389zM83.77 22.99c0 1.114-.155 2.388-.88 3.29-.62.743-1.552 1.009-2.432 1.115-.362.053-.725.053-1.087.053h-2.019c-.776 0-1.5 0-2.277-.053-.517-.053-1.035-.106-1.552-.265-.984-.266-1.76-.903-2.174-1.858-.466-1.115-.518-2.707-.518-3.928 0-1.168.052-2.813.518-3.927.414-.956 1.19-1.593 2.174-1.858.517-.16 1.035-.213 1.552-.266.725-.053 1.501-.053 2.278-.053h2.018c.362 0 .725 0 1.087.053.88.107 1.812.425 2.433 1.115.724.85.88 2.176.88 3.29v.585h-2.744v-.584c0-.319-.051-1.38-.362-1.593-.466-.265-2.743-.265-3.313-.265-.62 0-1.19 0-1.811.053-.31 0-.673.053-.932.106-.362.107-.672.266-.776.637-.207.637-.207 1.964-.207 2.654s0 1.964.207 2.654c.155.372.414.584.828.69.259.053.621.106.932.106.57.053 1.19.053 1.76.053.569 0 2.794 0 3.312-.265.362-.16.414-1.274.414-1.592v-.584h2.743v.637h-.052z" fill="#0B58BC"/><path fill-rule="evenodd" clip-rule="evenodd" d="M132.134 31.774h3.376V36.3h1.978l4.775-4.525h5.016l-6.897 6.082 6.849 6.179h-4.968l-4.775-4.525h-1.978v4.525h-3.376v-12.26zm-23.8 0h6.92l3.872 8.125 3.925-8.125h6.92v12.26h-3.615v-8.903h-1.033l-4.234 8.904h-3.873l-4.286-8.904h-.981v8.904h-3.615V31.774zM90.303 44.035h3.703v-8.271l.05-.292.153-.098.152-.145.101-.098h12.429v-3.357H93.854l-.66.049-.609.146-.557.243-.508.438-.456.39-.355.534-.203.535-.153.633-.05.146v9.147zM71.552 40.63h12.327l.203-.05.253-.194.05-.195.052-.243v-1.606h-9.334l-.609-.048-.66-.243-.558-.244-.507-.34-.406-.487-.355-.486-.304-.536-.05-.584-.102-.291v-3.309h3.703v2.481l.05.292.153.195.304.146.254.049h8.421v-3.163h3.703v9.001l-.05.292-.153.584-.203.584-.355.438-.457.486-.507.34-.558.293-.609.194-.66.049H71.553v-3.406z" fill="#ED1847"/><path opacity=".6" fill-rule="evenodd" clip-rule="evenodd" d="M121.251 8.575h3.763c.289 0 .496-.08.702-.24.207-.16.249-.4.249-.641 0-.24-.042-.481-.249-.641a1.142 1.142 0 00-.702-.24h-6.987v1.722h3.224v.04zm0-4.047h3.804c.827 0 1.695.16 2.357.641.826.601 1.116 1.563 1.116 2.525 0 .961-.248 1.923-1.075 2.524-.662.48-1.53.641-2.357.641h-9.55V.762h12.072v2.324h-9.55v1.482h3.183v-.04zM86.335 9.133c.084-.043.167-.343.208-.429.291-.859.291-2.232.291-3.091V.762h10.682V11.58H94.98V3.21h-5.61v1.889c0 .816 0 1.588-.084 2.404-.083.859-.166 1.803-.457 2.576-.29.772-.79 1.502-1.662 1.502h-1.912V9.09h1.08v.043zm14.065-.527h9.667l.16-.086.159-.172.04-.173.08-.172V6.58h-7.349l-.48-.087-.519-.172-.439-.259-.4-.258-.319-.431-.28-.431-.24-.474-.04-.56-.04-.216V.762h2.876v2.199l.04.258.12.172.24.13.2.043h6.63V.762h2.876v7.974l-.04.215-.119.56-.16.475-.28.43-.359.388-.36.302-.479.259-.48.172-.519.043H100.4V8.606zM71.553.762h2.903V4.77h1.66L80.22.762h4.314l-5.93 5.388 5.89 5.43H80.22l-4.106-4.008h-1.659v4.008h-2.903V.762z" fill="#9FADBF"/><path fill-rule="evenodd" clip-rule="evenodd" d="M28.77 56.296c-5.608 0-11.169-3.184-15.182-8.03 3.868 2.993 8.51 4.799 13.152 4.799 9.187 0 15.23-7.127 14.65-16.488l.146.712c2.127 10.454-3.578 19.007-12.766 19.007zM1.887 25.458l8.993-9.029c-.048-2.566.725-5.227 2.611-7.84 1.499-2.043 3.53-3.706 5.85-4.942-3.577 3.041-5.511 6.748-5.995 10.502 0 .142-.048.237-.048.38 0 .142 0 .237-.049.38v2.043c0 .095 0 .238.049.333v.047c0 .095 0 .238.048.333v.047c0 .095.048.238.048.333v.095c0 .095.049.19.049.333v.095c0 .095.048.237.048.332v.048c0 .095.049.19.049.285v.095c0 .095.048.19.096.285v.095c.049.095.049.19.097.333l.048.095c.049.095.049.19.097.285l.048.095c.049.095.049.19.097.285l.048.095c.049.095.049.19.097.285l.048.095c.049.095.097.19.097.285l.048.095c.049.095.097.19.146.333v.047l.145.285.048.095.145.286.048.095.145.285.049.095.145.285v.047l.145.285.048.048c.049.095.097.19.194.285l.048.095c.048.095.145.19.193.285l.049.048c.048.095.145.19.193.285.049.095.145.19.242.285l.048.047c.049.095.145.19.194.286l.048.047c.097.095.145.19.242.285l.048.048c.097.095.145.19.242.285.097.095.145.19.242.285l.048.047c.097.096.193.19.242.286l.048.047c.097.095.194.19.242.285l.048.048.29.285a.666.666 0 00.194.142.655.655 0 00.193.143.666.666 0 00.194.142c.048.048.096.096.193.143.048.047.08.031.193.143.114.111.267.167.387.285.12.118.291.2.435.285l.629.499.629.499.048.047.048.048.049.047.048.048.048.047c4.062 3.041 9.042 6.225 10.686 9.979 3.578 7.983-6.72 10.929-13.925 6.985L1.887 30.304a3.4 3.4 0 010-4.846z" fill="#ED1847"/><path fill-rule="evenodd" clip-rule="evenodd" d="M45.6 46.963c-1.531 2.105-3.636 3.743-6.076 5.006 3.014-2.947 5.071-6.41 5.789-10.152.047-.234.095-.42.095-.655v-.047c0-.14.048-.28.048-.374v-2.946c-.191-2.667-2.153-5.895-4.64-8.701-1.039-1.016-1.921-2.39-3.254-3.041-5.693-4.258-14.83-10.105-10.381-16.093 2.392-3.228 8.228-2.994 12.247-1.778l17.415 17.356a3.335 3.335 0 010 4.772l-8.66 8.654c.144 2.62-.622 5.38-2.583 8zM30.53.041c5.55 0 11.051 3.134 15.022 7.906C41.677 5 37.084 3.222 32.539 3.222c-9.09 0-15.07 7.017-14.496 16.233l-.144-.701C15.794 8.414 21.44.04 30.53.04z" fill="#0B58BC"/></svg>