<svg width="209" height="78" viewBox="0 0 209 78" fill="none" xmlns="http://www.w3.org/2000/svg"><path d="M88.208 30.152l-.576 3.24h-6.864l-.624 3.624h5.136l-.576 3.12h-5.136L78.368 47h-4.104l2.976-16.848h10.968zm11.445 0c1.744 0 3.072.4 3.984 1.2.912.784 1.368 1.808 1.368 3.072 0 .368-.032.712-.096 1.032-.192 1.12-.68 2.12-1.464 3-.784.88-1.832 1.504-3.144 1.872L103.013 47h-4.632l-2.376-6.36h-.984L93.893 47h-4.104l2.976-16.848h6.888zm1.056 5.472c.032-.256.048-.424.048-.504 0-.512-.168-.904-.504-1.176-.32-.288-.8-.432-1.44-.432h-2.544l-.744 4.224h2.544c.752 0 1.344-.184 1.776-.552.448-.368.736-.888.864-1.56zm18.152 8.4h-6.288L111.037 47h-4.296l9.072-16.848h4.752L123.685 47h-4.344l-.48-2.976zm-.48-3.12l-.984-6.24-3.216 6.24h4.2zM143.012 47h-4.104l-5.016-10.392L132.044 47h-4.104l2.976-16.848h4.104l5.016 10.44 1.848-10.44h4.104L143.012 47zm14.903-8.592L163.171 47h-5.016l-4.344-7.44-1.32 7.44h-4.104l2.976-16.848h4.104l-1.296 7.392 6.936-7.392h4.8l-7.992 8.256zm14.262 5.472h5.376l-.552 3.12h-9.48l2.976-16.848h4.104l-2.424 13.728zm16.262-13.728L185.463 47h-4.104l2.976-16.848h4.104zM205.909 47h-4.104l-5.016-10.392L194.941 47h-4.104l2.976-16.848h4.104l5.016 10.44 1.848-10.44h4.104L205.909 47z" fill="#fff"/><g filter="url(#filter0_d)"><g filter="url(#filter1_d)"><path d="M25.079 54.508L44.049 61l16.59-16.59-19.114-6.348-16.446 16.446zM61 42.102l-6.275-18.827L35.898 17l6.276 18.826L61 42.102zm-44-8.223l6.492 18.97L40.01 36.403 33.59 17.29" fill="url(#paint0_linear)"/></g><path d="M30.02 54.431c1.01.505 2.669.073 3.679-.937 1.01-1.01 1.01-2.164 0-2.67-1.01-.504-2.67-.071-3.679.939-1.01 1.01-1.01 2.163 0 2.668zm6.131 2.092c1.01.505 2.67.072 3.679-.938 1.01-1.01 1.01-2.163 0-2.668-1.01-.505-2.669-.073-3.679.937-1.01 1.01-1.01 2.164 0 2.67zm9.738 1.082c1.01-1.01 1.01-2.236 0-2.669-1.01-.432-2.669-.072-3.679.938-1.01 1.01-1.01 2.164 0 2.669 1.01.505 2.67.072 3.679-.938zM39.902 44.55c1.01.505 2.669.072 3.679-.938 1.01-1.01 1.01-2.164 0-2.669-1.01-.505-2.67-.072-3.68.938-1.009 1.01-1.009 2.164 0 2.669zm6.131 2.091c1.01.505 2.669.073 3.679-.937 1.01-1.01 1.01-2.164 0-2.67-1.01-.504-2.67-.071-3.679.938-1.01 1.01-1.01 2.164 0 2.67zm9.737 1.082c1.01-1.01 1.01-2.236 0-2.669-1.01-.432-2.668-.072-3.678.938-1.01 1.01-1.01 2.164 0 2.669 1.01.505 2.669.072 3.679-.938zM30.912 28.331l-1.218-2.713L22.01 33.3l3.936 11.02 8.407-7.7-1.146-2.715-4.875 4.443-.686-1.571 4.238-3.923-1.07-2.573-4.238 3.923-.537-1.358 4.874-4.515zm21.742-.452l-.756-2.464-9.553-2.742.826 2.61 5.028 1.446-3.378 3.917.756 2.464 9.553 2.742-.826-2.61-5.1-1.448 3.45-3.915z" fill="#053312"/></g><defs><filter id="filter0_d" x="1" y="1" width="76" height="76" filterUnits="userSpaceOnUse" color-interpolation-filters="sRGB"><feFlood flood-opacity="0" result="BackgroundImageFix"/><feColorMatrix in="SourceAlpha" values="0 0 0 0 0 0 0 0 0 0 0 0 0 0 0 0 0 0 127 0"/><feOffset/><feGaussianBlur stdDeviation="8"/><feColorMatrix values="0 0 0 0 0 0 0 0 0 0.803922 0 0 0 0 0.223529 0 0 0 0.1 0"/><feBlend in2="BackgroundImageFix" result="effect1_dropShadow"/><feBlend in="SourceGraphic" in2="effect1_dropShadow" result="shape"/></filter><filter id="filter1_d" x=".5" y=".5" width="77" height="77" filterUnits="userSpaceOnUse" color-interpolation-filters="sRGB"><feFlood flood-opacity="0" result="BackgroundImageFix"/><feColorMatrix in="SourceAlpha" values="0 0 0 0 0 0 0 0 0 0 0 0 0 0 0 0 0 0 127 0"/><feOffset/><feGaussianBlur stdDeviation="8.25"/><feColorMatrix values="0 0 0 0 0 0 0 0 0 0.803922 0 0 0 0 0.223529 0 0 0 0.25 0"/><feBlend in2="BackgroundImageFix" result="effect1_dropShadow"/><feBlend in="SourceGraphic" in2="effect1_dropShadow" result="shape"/></filter><linearGradient id="paint0_linear" x1="39" y1="17" x2="39" y2="61" gradientUnits="userSpaceOnUse"><stop stop-color="#03EE44"/><stop offset="1" stop-color="#0EB300"/></linearGradient></defs></svg>