<svg width="34" height="30" viewBox="0 0 34 30" fill="none" xmlns="http://www.w3.org/2000/svg"><path fill-rule="evenodd" clip-rule="evenodd" d="M32.467 26.846h-1.6v1.616a.536.536 0 01-.534.538h-4.266a.536.536 0 01-.534-.538v-1.616H8.467v1.616a.536.536 0 01-.534.538H3.667a.536.536 0 01-.534-.538v-1.616h-1.6A.536.536 0 011 26.308V1.538C1 1.241 1.239 1 1.533 1h30.934c.294 0 .533.241.533.538v24.77a.536.536 0 01-.533.538zm-.534-18.308v10.77h-1.066V8.538h1.066zm-3.2-1.076h3.2V6.385h-3.2v1.077zm2.134-2.154h1.066V2.077H2.067v23.692h29.866v-3.23h-1.066v1.078c0 .593-.478 1.075-1.065 1.075H4.198a1.071 1.071 0 01-1.065-1.075V4.229c0-.593.478-1.075 1.065-1.075h25.603c.588 0 1.066.482 1.066 1.075v1.079zm-1.067 0V4.229l-25.602.002.002 19.386 25.602-.002-.001-1.076H28.2a.536.536 0 01-.533-.539v-2.154c0-.297.239-.538.533-.538h1.6V8.538h-1.6A.536.536 0 0127.667 8V5.846c0-.297.239-.538.533-.538h1.6zm-1.067 16.154h3.2v-1.077h-3.2v1.076zM26.6 26.846h3.2v1.077h-3.2v-1.077zm-22.4 0h3.2v1.077H4.2v-1.077zm4.098-15.563a4.31 4.31 0 00-.865 2.102H5.8a.536.536 0 00-.533.538c0 .297.239.538.533.538h1.633c.098.786.405 1.506.864 2.102L7.023 17.85a.541.541 0 000 .761.53.53 0 00.754 0l1.275-1.286c.59.463 1.303.774 2.081.872v1.65c0 .296.24.538.534.538a.536.536 0 00.533-.539v-1.649a4.225 4.225 0 002.082-.872l1.274 1.286a.53.53 0 00.754 0 .541.541 0 000-.76l-1.274-1.288a4.31 4.31 0 00.864-2.101h1.633a.536.536 0 00.534-.539.536.536 0 00-.534-.538H15.9a4.31 4.31 0 00-.864-2.102l1.274-1.287a.542.542 0 000-.761.53.53 0 00-.754 0l-1.274 1.287a4.226 4.226 0 00-2.082-.873V8a.536.536 0 00-.533-.538.536.536 0 00-.534.538v1.649a4.226 4.226 0 00-2.081.873L7.777 9.235a.53.53 0 00-.754 0 .542.542 0 000 .761l1.275 1.287zm3.369 5.87h-.003l3.203-3.227c-.002 1.78-1.437 3.228-3.2 3.228zm-.003-5.384h.003c.294 0 .533.242.533.539a.536.536 0 01-.533.538h-.003V11.77zm0 4.308v1.077c-1.763-.002-3.197-1.45-3.197-3.23 0-1.782 1.434-3.23 3.197-3.232v1.077a2.146 2.146 0 00-2.13 2.154c0 1.187.955 2.152 2.13 2.154zm0-1.077h.003c.588 0 1.066-.483 1.066-1.077 0-.297.24-.538.534-.538.294 0 .533.24.533.538a2.146 2.146 0 01-2.133 2.154h-.003V15zm0 0a1.073 1.073 0 01-1.064-1.077c0-.593.477-1.075 1.064-1.077V15zM26.6 12.846h-6.4a.536.536 0 01-.533-.538V9.077c0-.297.239-.539.533-.539h6.4c.294 0 .533.242.533.539v3.23a.536.536 0 01-.533.54zm-5.867-1.077h5.334V9.615h-5.334v2.154zM20.2 15h.533a.536.536 0 00.534-.539.536.536 0 00-.534-.538H20.2a.536.536 0 00-.533.538c0 .298.239.539.533.539zm6.4 0h-.533a.536.536 0 01-.534-.539c0-.297.24-.538.534-.538h.533c.294 0 .533.241.533.538A.536.536 0 0126.6 15zm-3.733 0h1.066a.536.536 0 00.534-.539.536.536 0 00-.534-.538h-1.066a.536.536 0 00-.534.538c0 .298.24.539.534.539zm-2.134 2.154H20.2a.536.536 0 01-.533-.539c0-.297.239-.538.533-.538h.533c.295 0 .534.241.534.538a.536.536 0 01-.534.539zm5.334 0h.533a.536.536 0 00.533-.539.536.536 0 00-.533-.538h-.533a.536.536 0 00-.534.538c0 .298.24.539.534.539zm-2.134 0h-1.066a.536.536 0 01-.534-.539c0-.297.24-.538.534-.538h1.066c.295 0 .534.241.534.538a.536.536 0 01-.534.539zM20.2 19.308h.533a.536.536 0 00.534-.539.536.536 0 00-.534-.538H20.2a.536.536 0 00-.533.538c0 .298.239.539.533.539zm6.4 0h-.533a.536.536 0 01-.534-.539c0-.297.24-.538.534-.538h.533c.294 0 .533.241.533.538a.536.536 0 01-.533.539zm-3.733 0h1.066a.536.536 0 00.534-.539.536.536 0 00-.534-.538h-1.066a.536.536 0 00-.534.538c0 .298.24.539.534.539z" fill="#84A5F1"/><path d="M30.867 26.846v-.25h-.25v.25h.25zm-5.334 0h.25v-.25h-.25v.25zm-17.066 0v-.25h-.25v.25h.25zm-5.334 0h.25v-.25h-.25v.25zM33 5.841h-.25v.001H33zm0 .005h.25v-.001l-.25.001zM33 8l.25.001V8H33zm0 .005l-.25-.001v.001H33zm0 11.836h-.25v.001H33zm0 .005h.25v-.001l-.25.001zM33 22l.25.001V22H33zm0 .005l-.25-.001v.001H33zm-1.067-2.697v.25h.25v-.25h-.25zm0-10.77h.25v-.25h-.25v.25zm-1.066 10.77h-.25v.25h.25v-.25zm0-10.77v-.25h-.25v.25h.25zm1.066-1.076v.25h.25v-.25h-.25zm-3.2 0h-.25v.25h.25v-.25zm3.2-1.077h.25v-.25h-.25v.25zm-1.597 0v-.25.25zm-.003 0v.25h.001v-.25zm-1.6 0v-.25h-.25v.25h.25zm3.2-1.077v.25h.25v-.25h-.25zm-1.066 0h-.25v.25h.25v-.25zm1.066-3.231h.25v-.25h-.25v.25zm-29.866 0v-.25h-.25v.25h.25zm0 23.692h-.25v.25h.25v-.25zm1.598 0v.25-.25zm.002 0v-.25.25zm4.266 0v-.25.25zm.002 0v.25-.25zm18.13 0v.25-.25zm.002 0v-.25.25zm4.266 0v-.25.25zm.002 0v.25-.25zm1.598 0v.25h.25v-.25h-.25zm0-3.23h.25v-.25h-.25v.25zm-1.066 0v-.25h-.25v.25h.25zM29.8 4.229h.25v-.25h-.25v.25zm0 1.079v.25h.25v-.25h-.25zM4.198 4.23v-.25h-.25v.25h.25zM4.2 23.617h-.25v.25h.25v-.25zm25.602-.002v.25h.25v-.25h-.25zM29.8 22.54h.25v-.25h-.25v.25zm-1.601 0v-.25.25zm-.53-.484l-.25.025.25-.025zm.53-2.747v-.25.25zm1.6 0v.25h.25v-.25h-.25zm0-10.77h.25v-.25h-.25v.25zm-1.6 0v-.25.25zm-.53-.483l-.25.025.25-.025zm.53-2.747v-.25.25zm3.733 16.154v.25h.25v-.25h-.25zm-3.2 0h-.25v.25h.25v-.25zm3.2-1.077h.25v-.25h-.25v.25zm-1.597 0v-.25.25zm-.003 0v.25h.001v-.25zm-1.6 0v-.25h-.25v.25h.25zm1.067 6.461h.25v-.25h-.25v.25zm-3.2 0v-.25h-.25v.25h.25zm3.2 1.077v.25h.25v-.25h-.25zm-3.2 0h-.25v.25h.25v-.25zM7.4 26.846h.25v-.25H7.4v.25zm-3.2 0v-.25h-.25v.25h.25zm3.2 1.077v.25h.25v-.25H7.4zm-3.2 0h-.25v.25h.25v-.25zm3.233-14.538v.25h.221l.027-.22-.248-.03zm.865-2.102l.198.152.133-.173-.154-.155-.177.176zm-.865 3.178l.248-.03-.027-.22h-.22v.25zm.864 2.102l.178.176.154-.155-.133-.173-.199.152zM7.023 17.85l-.178-.176.178.176zm0 .761l.178-.175-.178.175zm.754 0l-.178-.175.178.175zm1.275-1.286l.154-.197-.175-.138-.157.159.178.176zm2.081.872h.25v-.22l-.218-.028-.032.248zm1.067 0l-.031-.248-.219.028v.22h.25zm2.082-.872l.177-.176-.156-.159-.176.138.155.197zm1.274 1.286l.178-.175-.178.175zm.754 0l-.177-.175.177.175zm0-.76l.178-.177-.178.176zm-1.274-1.288l-.198-.152-.134.173.154.155.178-.176zm.864-2.101v-.25h-.22l-.028.219.248.03zm0-1.077l-.248.03.027.22h.221v-.25zm-.864-2.102l-.178-.176-.154.155.134.173.198-.152zm1.274-1.287l.178.176-.178-.176zm0-.761l-.177.175.177-.175zm-.754 0l.178.176-.178-.176zm-1.274 1.287l-.155.196.175.138.157-.159-.177-.175zM12.2 9.649h-.25v.22l.219.028.031-.248zm-1.067 0l.032.248.218-.028v-.22h-.25zm-2.081.873l-.178.175.157.159.175-.138-.154-.197zM7.777 9.235l-.178.175.178-.175zm-.754 0l.178.176-.178-.176zm0 .761L7.2 9.82l-.178.176zm4.64 7.158v.25h.001v-.25zm.004 0v-.25h-.001v.25zm3.2-3.228h.25v-.607l-.428.43.178.177zm-3.2-2.157v-.25.25zm0 1.077v-.25.25zm-.003-2.154h.25v-.25h-.25v.25zM11.667 15v.25V15zm0 1.077v.25-.25zm14.4-4.308v.25h.25v-.25h-.25zm-5.334 0h-.25v.25h.25v-.25zm5.334-2.154h.25v-.25h-.25v.25zm-5.334 0v-.25h-.25v.25h.25zm10.134 17.481h1.6v-.5h-1.6v.5zm.25 1.366v-1.616h-.5v1.616h.5zm-.784.788a.786.786 0 00.784-.788h-.5c0 .161-.13.288-.284.288v.5zm-4.266 0h4.266v-.5h-4.266v.5zm-.784-.788c0 .433.349.788.784.788v-.5a.286.286 0 01-.284-.288h-.5zm0-1.616v1.616h.5v-1.616h-.5zm-16.816.25h17.066v-.5H8.467v.5zm.25 1.366v-1.616h-.5v1.616h.5zm-.784.788a.786.786 0 00.784-.788h-.5c0 .161-.13.288-.284.288v.5zm-4.266 0h4.266v-.5H3.667v.5zm-.784-.788c0 .433.349.788.784.788v-.5a.286.286 0 01-.284-.288h-.5zm0-1.616v1.616h.5v-1.616h-.5zm-1.35.25h1.6v-.5h-1.6v.5zm-.783-.788c0 .433.349.788.783.788v-.5a.286.286 0 01-.283-.288h-.5zm0-24.77v24.77h.5V1.538h-.5zM1.533.75a.786.786 0 00-.783.788h.5c0-.161.13-.288.283-.288v-.5zm30.934 0H1.533v.5h30.934v-.5zm.783.788a.786.786 0 00-.783-.788v.5c.154 0 .283.127.283.288h.5zm0 4.303V1.538h-.5v4.303h.5zm0 .004V5.84l-.5.002v.005l.5-.002zm0 2.155V5.846h-.5V8h.5zm0 .006v-.005L32.75 8v.005l.5.002zm0 11.835V8.005h-.5v11.836h.5zm0 .004v-.005l-.5.002v.005l.5-.002zm0 2.155v-2.154h-.5V22h.5zm0 .006v-.005l-.5-.002v.005l.5.002zm0 4.302v-4.303h-.5v4.303h.5zm-.783.788a.786.786 0 00.783-.788h-.5c0 .161-.13.288-.283.288v.5zm-.284-7.788V8.538h-.5v10.77h.5zm-1.316.25h1.066v-.5h-1.066v.5zm-.25-11.02v10.77h.5V8.538h-.5zm1.316-.25h-1.066v.5h1.066v-.5zm0-1.076h-3.2v.5h3.2v-.5zm-.25-.827v1.077h.5V6.385h-.5zm-1.347.25h1.597v-.5h-1.597v.5zm-.002 0h.003l-.002-.5h-.002l.001.5zm-1.6 0h1.6v-.5h-1.6v.5zm.25.827V6.385h-.5v1.077h.5zm2.95-2.404h-1.067v.5h1.066v-.5zm-.25-2.981v3.23h.5v-3.23h-.5zm-29.617.25h29.866v-.5H2.067v.5zm.25 23.442V2.077h-.5v23.692h.5zm1.348-.25H2.067v.5h1.598v-.5zm.001 0h-.002l.001.5h.002v-.5zm4.267 0H3.667v.5h4.266v-.5zm.003 0h-.002l-.001.5h.002v-.5zm18.129 0H7.935v.5h18.13v-.5zm.001 0h-.002l.001.5h.002v-.5zm4.267 0h-4.266v.5h4.266v-.5zm.003 0h-.002l-.001.5h.002v-.5zm1.597 0h-1.598v.5h1.598v-.5zm-.25-2.98v3.23h.5v-3.23h-.5zm-.816.25h1.066v-.5h-1.066v.5zm.25.828v-1.079h-.5v1.079h.5zm-1.315 1.325c.727 0 1.315-.596 1.315-1.325h-.5a.822.822 0 01-.815.825v.5zm-25.604 0h25.604v-.5H4.198v.5zm-1.315-1.325c0 .729.588 1.325 1.315 1.325v-.5a.822.822 0 01-.815-.825h-.5zm0-19.388v19.388h.5V4.229h-.5zm1.315-1.325c-.727 0-1.315.597-1.315 1.325h.5c0-.457.369-.825.815-.825v-.5zm25.603 0H4.198v.5h25.603v-.5zm1.316 1.325c0-.729-.588-1.325-1.316-1.325v.5c.448 0 .816.368.816.825h.5zm0 1.079V4.229h-.5v1.079h.5zM29.55 4.229v1.079h.5V4.229h-.5zm-25.352.252L29.8 4.479v-.5l-25.602.002v.5zm.252 19.136L4.448 4.231h-.5l.002 19.386h.5zm25.352-.252L4.2 23.367v.5l25.602-.002v-.5zm-.251-.826v1.077h.5v-1.078h-.5zm-1.351.25h1.6v-.5h-1.6v.5zm-.78-.709c.04.396.372.709.78.709v-.5a.286.286 0 01-.282-.259l-.497.05zm-.003-.08c0 .027.001.054.004.08l.497-.05a.295.295 0 01-.001-.03h-.5zm0-2.154V22h.5v-2.154h-.5zm.783-.788a.786.786 0 00-.783.788h.5c0-.161.129-.288.283-.288v-.5zm1.6 0h-1.6v.5h1.6v-.5zm-.25-10.52v10.77h.5V8.538h-.5zm-1.35.25h1.6v-.5h-1.6v.5zm-.78-.708c.04.396.372.708.78.708v-.5a.286.286 0 01-.282-.258l-.497.05zM27.418 8c0 .027.001.054.004.08l.497-.05a.295.295 0 01-.001-.03h-.5zm0-2.154V8h.5V5.846h-.5zm.783-.788a.786.786 0 00-.783.788h.5c0-.161.129-.288.283-.288v-.5zm1.6 0h-1.6v.5h1.6v-.5zm2.133 16.154h-3.2v.5h3.2v-.5zm-.25-.827v1.076h.5v-1.076h-.5zm-1.347.25h1.597v-.5h-1.597v.5zm-.002 0h.003l-.001-.5h-.003l.001.5zm-1.6 0h1.6v-.5h-1.6v.5zm.25.826v-1.076h-.5v1.076h.5zm.816 5.135h-3.2v.5h3.2v-.5zm.25 1.327v-1.077h-.5v1.077h.5zm-3.45.25h3.2v-.5h-3.2v.5zm-.25-1.327v1.077h.5v-1.077h-.5zm-18.95-.25H4.2v.5h3.2v-.5zm.25 1.327v-1.077h-.5v1.077h.5zm-3.45.25h3.2v-.5H4.2v.5zm-.25-1.327v1.077h.5v-1.077h-.5zm3.731-13.43a4.06 4.06 0 01.815-1.98L8.1 11.13a4.56 4.56 0 00-.914 2.224l.496.061zm-1.881.219h1.633v-.5H5.8v.5zm-.283.288c0-.161.129-.288.283-.288v-.5a.786.786 0 00-.783.788h.5zm.283.288a.286.286 0 01-.283-.288h-.5c0 .433.348.788.783.788v-.5zm1.633 0H5.8v.5h1.633v-.5zm1.063 2.2a4.059 4.059 0 01-.815-1.98l-.496.061a4.56 4.56 0 00.914 2.224l.397-.305zM7.2 18.026l1.274-1.287-.355-.352-1.275 1.287.356.352zm0 .41a.292.292 0 010-.41l-.356-.352a.792.792 0 000 1.113l.356-.351zm.199.083a.28.28 0 01-.2-.083l-.355.351a.78.78 0 00.555.232v-.5zm.2-.083a.28.28 0 01-.2.083v.5a.78.78 0 00.555-.232l-.356-.351zm1.274-1.287l-1.275 1.287.356.351L9.229 17.5l-.355-.351zm2.29.8a3.975 3.975 0 01-1.958-.821l-.309.393c.625.49 1.38.82 2.205.924l.063-.496zm.22 1.897v-1.649h-.5v1.65h.5zm.283.289a.286.286 0 01-.284-.289h-.5c0 .433.349.789.784.789v-.5zm.283-.289c0 .162-.13.289-.283.289v.5a.786.786 0 00.783-.789h-.5zm0-1.649v1.65h.5v-1.65h-.5zm2.177-1.069a3.975 3.975 0 01-1.958.821l.062.496a4.475 4.475 0 002.205-.924l-.309-.393zm1.607 1.308l-1.275-1.287-.355.352 1.275 1.286.355-.351zm.2.083a.279.279 0 01-.2-.083l-.355.351a.78.78 0 00.554.232v-.5zm.199-.083a.28.28 0 01-.2.083v.5a.78.78 0 00.555-.232l-.355-.351zm0-.41a.292.292 0 010 .41l.355.351a.792.792 0 000-1.113l-.355.352zm-1.275-1.287l1.275 1.287.355-.352-1.275-1.287-.355.352zm.794-2.308a4.059 4.059 0 01-.814 1.98l.396.305a4.56 4.56 0 00.914-2.224l-.496-.061zm1.881-.22H15.9v.5h1.633v-.5zm.284-.288c0 .162-.13.288-.284.288v.5a.786.786 0 00.784-.788h-.5zm-.284-.288c.154 0 .284.127.284.288h.5a.786.786 0 00-.784-.788v.5zm-1.633 0h1.633v-.5H15.9v.5zm-1.062-2.2a4.06 4.06 0 01.814 1.98l.496-.061a4.559 4.559 0 00-.914-2.224l-.396.305zm1.295-1.615l-1.275 1.287.355.352 1.275-1.287-.355-.352zm0-.41a.292.292 0 010 .41l.355.352a.792.792 0 000-1.113l-.355.352zm-.399 0a.28.28 0 01.399 0l.355-.351a.78.78 0 00-1.11 0l.356.351zm-1.275 1.287l1.275-1.286-.355-.352-1.275 1.287.355.351zm-2.29-.8a3.975 3.975 0 011.958.821l.31-.393A4.475 4.475 0 0012.23 9.4l-.062.496zM11.95 8v1.649h.5V8h-.5zm-.283-.288c.154 0 .283.127.283.288h.5a.786.786 0 00-.783-.788v.5zM11.383 8c0-.161.13-.288.284-.288v-.5a.786.786 0 00-.784.788h.5zm0 1.649V8h-.5v1.649h.5zm-2.177 1.07a3.974 3.974 0 011.959-.822l-.063-.496a4.475 4.475 0 00-2.205.924l.31.393zM7.6 9.41l1.275 1.287.355-.352-1.274-1.287-.356.352zm-.398 0a.28.28 0 01.398 0l.356-.352a.78.78 0 00-1.11 0l.356.351zm0 .41a.292.292 0 010-.41l-.356-.352a.792.792 0 000 1.113l.356-.352zm1.274 1.286L7.201 9.82l-.356.352 1.275 1.287.355-.352zm3.19 6.297h.002l-.001-.5h-.003l.001.5zm3.024-3.654l-3.203 3.228.355.352 3.203-3.228-.355-.352zm-3.022 3.654c1.903 0 3.448-1.562 3.45-3.478h-.5c-.002 1.644-1.327 2.978-2.95 2.978v.5zm0-5.885h-.003v.5h.003v-.5zm.783.789a.786.786 0 00-.783-.789v.5c.154 0 .283.127.283.289h.5zm-.783.788a.786.786 0 00.783-.788h-.5c0 .161-.13.288-.283.288v.5zm-.003 0h.003v-.5h-.003v.5zm-.25-1.327v1.077h.5V11.77h-.5zm.5 5.385v-1.077h-.5v1.077h.5zm-3.697-3.23c0 1.916 1.543 3.478 3.447 3.48v-.5c-1.623-.002-2.947-1.336-2.947-2.98h-.5zm3.447-3.482c-1.903.002-3.447 1.564-3.447 3.481h.5c0-1.645 1.324-2.98 2.947-2.98v-.5zm.25 1.327v-1.077h-.5v1.077h.5zm-2.13 2.154c0-1.051.845-1.902 1.88-1.904v-.5a2.395 2.395 0 00-2.38 2.404h.5zm1.88 1.904a1.896 1.896 0 01-1.88-1.904h-.5a2.395 2.395 0 002.38 2.404v-.5zm.003-1.077h-.003v.5h.002l.001-.5zm.816-.827a.823.823 0 01-.816.827v.5c.728 0 1.316-.597 1.316-1.327h-.5zm.784-.788a.786.786 0 00-.784.788h.5c0-.161.13-.288.284-.288v-.5zm.783.788a.786.786 0 00-.783-.788v.5c.154 0 .283.127.283.288h.5zm-2.383 2.404c1.317 0 2.383-1.08 2.383-2.404h-.5a1.896 1.896 0 01-1.883 1.904v.5zm-.003 0h.002v-.5h-.002v.5zM11.414 15v1.077h.5V15h-.5zm-1.064-1.077c0 .729.586 1.325 1.313 1.327l.002-.5a.823.823 0 01-.815-.827h-.5zm1.313-1.327a1.323 1.323 0 00-1.313 1.327h.5c0-.457.368-.826.815-.827l-.002-.5zm.25 2.404l.001-2.154h-.5V15h.5zm8.287-1.904h6.4v-.5h-6.4v.5zm-.783-.788c0 .433.348.788.783.788v-.5a.286.286 0 01-.283-.288h-.5zm0-3.231v3.23h.5v-3.23h-.5zm.783-.789a.786.786 0 00-.783.789h.5c0-.162.129-.289.283-.289v-.5zm6.4 0h-6.4v.5h6.4v-.5zm.783.789a.786.786 0 00-.783-.789v.5c.154 0 .283.127.283.289h.5zm0 3.23v-3.23h-.5v3.23h.5zm-.783.79a.786.786 0 00.783-.79h-.5c0 .162-.129.29-.283.29v.5zm-.533-1.578h-5.334v.5h5.334v-.5zm-.25-1.904v2.154h.5V9.615h-.5zm-5.084.25h5.334v-.5h-5.334v.5zm.25 1.904V9.615h-.5v2.154h.5zm-.25 2.981H20.2v.5h.533v-.5zm.284-.289c0 .162-.13.289-.284.289v.5a.786.786 0 00.784-.789h-.5zm-.284-.288c.154 0 .284.127.284.288h.5a.786.786 0 00-.784-.788v.5zm-.533 0h.533v-.5H20.2v.5zm-.283.288c0-.16.129-.288.283-.288v-.5a.786.786 0 00-.783.788h.5zm.283.289a.286.286 0 01-.283-.289h-.5c0 .434.348.789.783.789v-.5zm5.867.5h.533v-.5h-.533v.5zm-.784-.789c0 .434.349.789.784.789v-.5a.286.286 0 01-.284-.289h-.5zm.784-.788a.786.786 0 00-.784.788h.5c0-.16.13-.288.284-.288v-.5zm.533 0h-.533v.5h.533v-.5zm.783.788a.786.786 0 00-.783-.788v.5c.154 0 .283.127.283.288h.5zm-.783.789a.786.786 0 00.783-.789h-.5a.286.286 0 01-.283.289v.5zm-2.667-.5h-1.066v.5h1.066v-.5zm.284-.289c0 .162-.13.289-.284.289v.5a.786.786 0 00.784-.789h-.5zm-.284-.288c.154 0 .284.127.284.288h.5a.786.786 0 00-.784-.788v.5zm-1.066 0h1.066v-.5h-1.066v.5zm-.284.288c0-.16.13-.288.284-.288v-.5a.786.786 0 00-.784.788h.5zm.284.289a.286.286 0 01-.284-.289h-.5c0 .434.349.789.784.789v-.5zM20.2 17.404h.533v-.5H20.2v.5zm-.783-.789c0 .433.348.789.783.789v-.5a.286.286 0 01-.283-.289h-.5zm.783-.788a.786.786 0 00-.783.788h.5c0-.161.129-.288.283-.288v-.5zm.533 0H20.2v.5h.533v-.5zm.784.788a.786.786 0 00-.784-.788v.5c.154 0 .284.127.284.288h.5zm-.784.789a.786.786 0 00.784-.789h-.5c0 .162-.13.289-.284.289v.5zm5.867-.5h-.533v.5h.533v-.5zm.283-.289a.286.286 0 01-.283.289v.5a.786.786 0 00.783-.789h-.5zm-.283-.288c.154 0 .283.127.283.288h.5a.786.786 0 00-.783-.788v.5zm-.533 0h.533v-.5h-.533v.5zm-.284.288c0-.161.13-.288.284-.288v-.5a.786.786 0 00-.784.788h.5zm.284.289a.286.286 0 01-.284-.289h-.5c0 .433.349.789.784.789v-.5zm-3.2.5h1.066v-.5h-1.066v.5zm-.784-.789c0 .433.349.789.784.789v-.5a.286.286 0 01-.284-.289h-.5zm.784-.788a.786.786 0 00-.784.788h.5c0-.161.13-.288.284-.288v-.5zm1.066 0h-1.066v.5h1.066v-.5zm.784.788a.786.786 0 00-.784-.788v.5c.154 0 .284.127.284.288h.5zm-.784.789a.786.786 0 00.784-.789h-.5c0 .162-.13.289-.284.289v.5zm-3.2 1.654H20.2v.5h.533v-.5zm.284-.289c0 .162-.13.289-.284.289v.5a.786.786 0 00.784-.789h-.5zm-.284-.288c.154 0 .284.127.284.288h.5a.786.786 0 00-.784-.788v.5zm-.533 0h.533v-.5H20.2v.5zm-.283.288c0-.161.129-.288.283-.288v-.5a.786.786 0 00-.783.788h.5zm.283.289a.286.286 0 01-.283-.289h-.5c0 .433.348.789.783.789v-.5zm5.867.5h.533v-.5h-.533v.5zm-.784-.789c0 .433.349.789.784.789v-.5a.286.286 0 01-.284-.289h-.5zm.784-.788a.786.786 0 00-.784.788h.5c0-.161.13-.288.284-.288v-.5zm.533 0h-.533v.5h.533v-.5zm.783.788a.786.786 0 00-.783-.788v.5c.154 0 .283.127.283.288h.5zm-.783.789a.786.786 0 00.783-.789h-.5a.286.286 0 01-.283.289v.5zm-2.667-.5h-1.066v.5h1.066v-.5zm.284-.289c0 .162-.13.289-.284.289v.5a.786.786 0 00.784-.789h-.5zm-.284-.288c.154 0 .284.127.284.288h.5a.786.786 0 00-.784-.788v.5zm-1.066 0h1.066v-.5h-1.066v.5zm-.284.288c0-.161.13-.288.284-.288v-.5a.786.786 0 00-.784.788h.5zm.284.289a.286.286 0 01-.284-.289h-.5c0 .433.349.789.784.789v-.5zm-10.953-1.904v-1.077h-.5v1.077h.5z" fill="#84A5F1"/></svg>