<svg width="32" height="34" viewBox="0 0 32 34" fill="none" xmlns="http://www.w3.org/2000/svg"><path fill-rule="evenodd" clip-rule="evenodd" d="M8.5 4.35l.556.956A13.952 13.952 0 0121.43 4.56l-2.345 1.166.497.99 3.333-1.659a.553.553 0 00.252-.742L21.5 1l-.994.494.944 1.88A15.061 15.061 0 008.5 4.35zM1 8.985v16.582c0 .306.249.553.556.553h28.888a.554.554 0 00.556-.553V8.985a.554.554 0 00-.556-.552H1.556A.554.554 0 001 8.985zm1.111.553H29.89v15.477H2.11V9.538zm2.222 2.21h1.111v-1.105H3.778a.554.554 0 00-.556.553v1.658h1.111V11.75zM16 13.409c-2.148 0-3.889 1.732-3.889 3.868 0 2.137 1.741 3.87 3.889 3.87 2.148 0 3.889-1.733 3.889-3.87-.002-2.135-1.742-3.867-3.889-3.869zm0 6.632a2.77 2.77 0 01-2.778-2.764A2.77 2.77 0 0116 14.513a2.77 2.77 0 012.778 2.763A2.774 2.774 0 0116 20.04zM3.222 23.356v-1.658h1.111v1.106h1.111v1.105H3.778a.554.554 0 01-.556-.553zm21.667-12.16a3.328 3.328 0 003.333 3.317c.307 0 .556.247.556.552v4.422a.554.554 0 01-.556.553 3.329 3.329 0 00-3.333 3.316.554.554 0 01-.556.553H7.667a.554.554 0 01-.556-.553 3.328 3.328 0 00-3.333-3.316.554.554 0 01-.556-.553v-4.422c0-.305.249-.552.556-.552a3.328 3.328 0 003.333-3.317c0-.305.249-.553.556-.553h16.666c.307 0 .556.248.556.553zm-1.077 11.608a4.444 4.444 0 013.855-3.835v-3.385a4.444 4.444 0 01-3.855-3.835H8.188a4.443 4.443 0 01-3.855 3.835v3.385a4.444 4.444 0 013.855 3.835h15.624zm4.41-12.16h-1.666v1.105h1.11v1.105h1.112v-1.658a.554.554 0 00-.556-.553zm-1.666 12.16h1.11v-1.106h1.112v1.658a.554.554 0 01-.556.553h-1.666v-1.105zm-4.167 5.89l.555.956a15.06 15.06 0 01-12.946.977l.944 1.879-.994.494-1.667-3.316a.551.551 0 01.25-.742l3.332-1.659.497.99-2.345 1.166a13.952 13.952 0 0012.374-.745z" fill="#84A5F1"/><path d="M9.056 5.306l-.26.15.15.259.259-.149-.15-.26zM8.5 4.35l-.15-.26-.26.15.15.26.26-.15zm12.93.21l.134.27.584-.291-.6-.255-.118.277zm-2.345 1.167l-.134-.269-.27.134.136.27.268-.135zm.497.99l-.268.134.134.267.267-.133-.133-.269zm3.333-1.659l-.132-.27-.002.001.134.27zm.28-.319l.285.097-.284-.097zm-.028-.423l.268-.134-.268.134zM21.5 1l.268-.135-.134-.267-.267.133L21.5 1zm-.994.494l-.134-.268-.27.134.136.269.268-.135zm.944 1.88l-.109.279.727.282-.35-.696-.268.134zm8.439 6.164h.3v-.3h-.3v.3zm-27.778 0v-.3h-.3v.3h.3zM29.89 25.015v.3h.3v-.3h-.3zm-27.778 0h-.3v.3h.3v-.3zm3.333-13.266v.3h.3v-.3h-.3zm-1.11 0v-.3h-.3v.3h.3zm1.11-1.106h.3v-.3h-.3v.3zm-2.222 2.211h-.3v.3h.3v-.3zm1.111 0v.3h.3v-.3h-.3zM16 13.407v-.3.3zm3.889 3.87h.3v-.001h-.3zM16 20.04v.3-.3zm2.778-2.764h.3-.3zM3.222 21.698v-.3h-.3v.3h.3zm1.111 0h.3v-.3h-.3v.3zm0 1.106h-.3v.3h.3v-.3zm1.111 0h.3v-.3h-.3v.3zm0 1.105v.3h.3v-.3h-.3zm22.778-9.396v.3-.3zm-3.333-3.317h-.3.3zm3.333 8.844v-.3.3zm-3.333 3.316h-.3.3zm-17.778 0h.3-.3zM3.778 20.04v-.3.3zm0-5.527v.3-.3zm3.333-3.317h.3-.3zm20.556 7.773l.037.297.263-.033v-.264h-.3zm-3.855 3.835v.3h.264l.034-.262-.298-.038zm3.855-7.22h.3v-.264l-.262-.034-.038.298zm-3.855-3.835l.298-.038-.034-.262h-.264v.3zm-15.624 0v-.3h-.264l-.034.262.298.038zm-3.855 3.835l-.037-.298-.263.034v.264h.3zm0 3.385h-.3v.264l.263.033.037-.297zm3.855 3.835l-.298.038.034.262h.264v-.3zm18.368-12.16v-.3h-.3v.3h.3zm0 1.105h-.3v.3h.3v-.3zm1.11 0h.3v-.3h-.3v.3zm0 1.105h-.3v.3h.3v-.3zm1.112 0v.3h.3v-.3h-.3zm-1.111 9.95v.3h.3v-.3h-.3zm-1.111 0v-.3h-.3v.3h.3zm1.11-1.106v-.3h-.3v.3h.3zm1.112 0h.3v-.3h-.3v.3zm-2.222 2.211h-.3v.3h.3v-.3zm-3.612 5.741l.15.26.261-.15-.151-.26-.26.15zm-.555-.956l.26-.15-.15-.259-.26.149.15.26zM9.998 30.627l.109-.28-.727-.282.35.696.268-.134zm.944 1.879l.134.269.27-.135-.136-.269-.268.135zM9.948 33l-.268.135.134.267.268-.133L9.947 33zm-1.667-3.316l.268-.135-.268.135zm.25-.742l.133.268-.134-.268zm3.332-1.659l.269-.134-.135-.267-.267.133.133.268zm.497.99l.134.268.27-.134-.136-.269-.268.135zm-2.345 1.166l-.134-.268-.584.29.601.255.117-.277zm-.7-24.284L8.759 4.2l-.518.301.555.957.519-.302zm12.232-.87a14.252 14.252 0 00-12.64.76l.298.521a13.652 13.652 0 0112.108-.73l.234-.552zm-2.328 1.71l2.345-1.166-.267-.537-2.346 1.166.268.537zm.63.587l-.496-.99-.536.27.497.989.536-.27zm2.933-1.793l-3.334 1.659.267.537 3.334-1.658-.267-.538zm.13-.146a.253.253 0 01-.129.146l.264.539c.204-.1.36-.278.433-.492l-.568-.193zm-.014-.193a.25.25 0 01.014.193l.568.193a.85.85 0 00-.045-.654l-.537.268zm-1.666-3.315L22.9 4.45l.536-.27L21.768.866l-.536.27zm-.593.628l.995-.494-.267-.538-.995.495.267.537zm1.08 1.476l-.945-1.88-.536.27.944 1.88.536-.27zm-13.07 1.37a14.761 14.761 0 0112.692-.956l.218-.56A15.361 15.361 0 008.35 4.09l.298.52zM1.3 25.568V8.985H.7v16.582h.6zm.256.253a.254.254 0 01-.256-.253H.7c0 .473.385.853.856.853v-.6zm28.888 0H1.556v.6h28.888v-.6zm.256-.253a.254.254 0 01-.256.253v.6c.472 0 .856-.38.856-.853h-.6zm0-16.582v16.582h.6V8.985h-.6zm-.256-.252c.143 0 .256.114.256.252h.6a.854.854 0 00-.856-.852v.6zm-28.888 0h28.888v-.6H1.556v.6zm-.256.252c0-.138.113-.252.256-.252v-.6a.854.854 0 00-.856.852h.6zm28.589.253H2.11v.6h27.78v-.6zm.3 15.777V9.538h-.6v15.477h.6zm-28.078.3H29.89v-.6H2.11v.6zm-.3-15.777v15.477h.6V9.538h-.6zm3.633 1.91h-1.11v.6h1.11v-.6zm-.3-.805v1.106h.6v-1.106h-.6zm-1.366.3h1.666v-.6H3.778v.6zm-.256.253c0-.138.113-.253.256-.253v-.6a.854.854 0 00-.856.853h.6zm0 1.658v-1.658h-.6v1.658h.6zm.811-.3h-1.11v.6h1.11v-.6zm-.3-.805v1.105h.6V11.75h-.6zm8.378 5.527c0-1.97 1.606-3.569 3.589-3.569v-.6c-2.312 0-4.189 1.865-4.189 4.17h.6zM16 20.846a3.58 3.58 0 01-3.589-3.57h-.6c0 2.304 1.877 4.17 4.189 4.17v-.6zm3.589-3.57A3.58 3.58 0 0116 20.846v.6c2.312 0 4.189-1.866 4.189-4.17h-.6zm-3.59-3.569a3.584 3.584 0 013.59 3.57l.6-.001c-.003-2.303-1.878-4.166-4.189-4.169v.6zm-3.077 3.57A3.07 3.07 0 0016 20.34v-.6a2.47 2.47 0 01-2.478-2.464h-.6zM16 14.212a3.07 3.07 0 00-3.078 3.063h.6A2.47 2.47 0 0116 14.813v-.6zm3.078 3.063A3.07 3.07 0 0016 14.213v.6a2.47 2.47 0 012.478 2.463h.6zM16 20.34a3.074 3.074 0 003.078-3.063l-.6-.001A2.474 2.474 0 0116 19.74v.6zM2.922 21.698v1.658h.6v-1.658h-.6zm1.411-.3h-1.11v.6h1.11v-.6zm.3 1.406v-1.106h-.6v1.106h.6zm.811-.3h-1.11v.6h1.11v-.6zm.3 1.405v-1.105h-.6v1.105h.6zm-1.966.3h1.666v-.6H3.778v.6zm-.856-.853c0 .473.385.853.856.853v-.6a.254.254 0 01-.256-.253h-.6zm25.3-9.143a3.028 3.028 0 01-3.033-3.017h-.6a3.628 3.628 0 003.633 3.617v-.6zm.856.852a.854.854 0 00-.856-.852v.6c.143 0 .256.114.256.252h.6zm0 4.422v-4.422h-.6v4.422h.6zm-.856.853c.471 0 .856-.38.856-.853h-.6a.254.254 0 01-.256.253v.6zm-3.033 3.017a3.028 3.028 0 013.034-3.017l-.001-.6a3.629 3.629 0 00-3.633 3.616h.6zm-.856.852c.472 0 .856-.38.856-.853h-.6a.254.254 0 01-.256.253v.6zm-16.666 0h16.666v-.6H7.667v.6zm-.856-.853c0 .473.385.853.856.853v-.6a.254.254 0 01-.256-.253h-.6zM3.777 20.34a3.028 3.028 0 013.034 3.017l.6-.001a3.628 3.628 0 00-3.633-3.616v.6zm-.855-.853c0 .473.385.853.856.853v-.6a.254.254 0 01-.256-.253h-.6zm0-4.422v4.422h.6v-4.422h-.6zm.856-.852a.854.854 0 00-.856.852h.6c0-.138.113-.252.256-.252v-.6zm3.033-3.017a3.028 3.028 0 01-3.033 3.017v.6a3.628 3.628 0 003.633-3.617h-.6zm.856-.853a.854.854 0 00-.856.853h.6c0-.138.113-.253.256-.253v-.6zm16.666 0H7.667v.6h16.666v-.6zm.856.853a.854.854 0 00-.856-.853v.6c.143 0 .256.115.256.253h.6zm2.44 7.475a4.744 4.744 0 00-4.114 4.094l.595.077a4.144 4.144 0 013.595-3.576l-.076-.595zm-.262-3.087v3.385h.6v-3.385h-.6zm-3.852-3.797a4.744 4.744 0 004.114 4.094l.075-.595a4.144 4.144 0 01-3.594-3.575l-.595.076zm-15.327.262h15.624v-.6H8.188v.6zM4.37 15.88a4.743 4.743 0 004.114-4.094l-.595-.076a4.144 4.144 0 01-3.594 3.575l.075.595zm.262 3.088v-3.385h-.6v3.385h.6zm3.852 3.796A4.744 4.744 0 004.37 18.67l-.075.595a4.144 4.144 0 013.594 3.576l.595-.077zm15.327-.261H8.188v.6h15.624v-.6zm2.744-11.56h1.666v-.6h-1.666v.6zm.3.805v-1.106h-.6v1.106h.6zm.81-.3h-1.11v.6h1.11v-.6zm.3 1.405V11.75h-.6v1.105h.6zm.812-.3h-1.111v.6h1.11v-.6zm-.3-1.358v1.658h.6v-1.658h-.6zm-.256-.253c.143 0 .256.115.256.253h.6a.854.854 0 00-.856-.853v.6zm-.555 11.56h-1.111v.6h1.11v-.6zm-.3-.805v1.106h.6v-1.106h-.6zm1.41-.3h-1.11v.6h1.11v-.6zm.3 1.958v-1.658h-.6v1.658h.6zm-.855.853c.472 0 .856-.38.856-.853h-.6a.254.254 0 01-.256.253v.6zm-1.666 0h1.666v-.6h-1.666v.6zm-.3-1.405v1.105h.6v-1.105h-.6zM23.204 29.5l-.556-.956-.518.3.555.957.519-.301zM9.889 30.906a15.36 15.36 0 0013.205-.995l-.299-.52a14.761 14.761 0 01-12.689.956l-.217.56zm1.321 1.465l-.944-1.88-.536.27.944 1.88.536-.27zm-1.129.898l.995-.494-.267-.538-.995.494.268.538zm-2.068-3.45l1.667 3.316.536-.27-1.667-3.316-.536.27zm.384-1.146a.851.851 0 00-.384 1.146l.536-.27a.251.251 0 01.115-.339l-.267-.537zm3.333-1.658l-3.334 1.658.268.537 3.333-1.658-.267-.537zm.898 1.123l-.496-.99-.537.27.497.99.536-.27zm-2.48 1.57l2.346-1.166-.268-.538-2.345 1.167.268.537zm12.092-1.274a13.652 13.652 0 01-12.108.73l-.234.552a14.252 14.252 0 0012.64-.762l-.298-.52z" fill="#84A5F1"/></svg>