<svg width="30" height="30" viewBox="0 0 30 30" fill="none" xmlns="http://www.w3.org/2000/svg"><path d="M28.839.968a.546.546 0 00-.387-.16H15a.548.548 0 00-.546.55V2.93L9.269 4.326a.55.55 0 00-.387.673l2.687 10.079-2.324 2.336a1.638 1.638 0 00-1.355-.72H2.64c-.904 0-1.64.74-1.64 1.65v8.96c0 .91.736 1.649 1.64 1.649h5.25c.769 0 1.415-.534 1.593-1.252l.65.57c.502.44 1.145.682 1.811.682h16.508a.548.548 0 00.547-.55V1.357a.551.551 0 00-.16-.389zM8.437 27.304a.55.55 0 01-.547.55H2.64a.549.549 0 01-.546-.55v-8.96a.55.55 0 01.547-.55h2.078v6.332c0 .304.244.55.546.55a.548.548 0 00.547-.55v-6.332H7.89a.55.55 0 01.547.55v8.96h0zM10.08 5.246l4.373-1.178v2.037l-.367.099a.547.547 0 00-.387.673 1.483 1.483 0 01-1.04 1.813.547.547 0 00-.387.674l2.131 7.934h-1.097l-.566-2.224a.55.55 0 00-.091-.193L10.08 5.246zm4.373 3.38v4.638l-.998-3.712c.417-.216.758-.54.998-.926zm7.856 19.228H11.944c-.402 0-.79-.147-1.092-.412L9.53 26.284v-7.603l2.387-2.4.434 1.703c.061.244.28.414.53.414h10.751a.77.77 0 010 1.54h-5.51a.548.548 0 00-.546.55c0 .303.245.55.547.55h7.22a.768.768 0 010 1.54h-7.22a.548.548 0 00-.547.548c0 .304.245.55.547.55h6.05c.423 0 .766.345.766.77 0 .424-.343.77-.765.77h-6.051a.548.548 0 00-.547.549c0 .303.245.55.547.55h4.185a.769.769 0 010 1.538zm5.596 0h0-3.902a1.866 1.866 0 000-1.54h.172a1.866 1.866 0 001.662-2.705 1.87 1.87 0 001-2.916v-6.967a.548.548 0 00-.547-.55.548.548 0 00-.547.55v6.255a1.851 1.851 0 00-.398-.043h-.018a1.866 1.866 0 00-1.694-2.639h-.88a2.635 2.635 0 001.59-2.419c0-1.45-1.174-2.63-2.617-2.63a2.627 2.627 0 00-2.617 2.63c0 1.084.655 2.017 1.589 2.42h-2.99V6.846a2.581 2.581 0 001.96-1.971h4.115a2.581 2.581 0 001.96 1.97v1.71c0 .303.245.55.547.55a.548.548 0 00.547-.55v-2.2a.548.548 0 00-.547-.55 1.478 1.478 0 01-1.472-1.48.548.548 0 00-.547-.55h-5.09a.548.548 0 00-.547.55c0 .816-.66 1.48-1.473 1.48a.548.548 0 00-.546.55v10.943h-1.068V1.907h12.358v25.947zm-6.18-11.442a1.53 1.53 0 01-1.523-1.532 1.53 1.53 0 011.524-1.531c.84 0 1.523.687 1.523 1.531a1.53 1.53 0 01-1.523 1.531z" fill="#84A5F1" stroke="#84A5F1" stroke-width=".7"/></svg>