<svg width="37" height="36" viewBox="0 0 37 36" fill="none" xmlns="http://www.w3.org/2000/svg"><path d="M18.501 30.898a2.342 2.342 0 01-2.333-2.346 2.342 2.342 0 012.333-2.346 2.342 2.342 0 012.334 2.346 2.342 2.342 0 01-2.334 2.346zm0-3.519a1.17 1.17 0 00-1.166 1.173 1.17 1.17 0 001.166 1.173 1.17 1.17 0 001.167-1.173 1.17 1.17 0 00-1.167-1.173z" fill="#84A5F1" stroke="#84A5F1" stroke-width=".7"/><path d="M27.834 35.589H9.167a.585.585 0 01-.583-.587v-12.9c0-.324.261-.586.583-.586h18.667c.322 0 .583.262.583.586v12.9a.585.585 0 01-.583.587zM9.751 34.416h17.5V22.688H9.75v11.728z" fill="#84A5F1" stroke="#84A5F1" stroke-width=".7"/><path d="M23.168 33.243h-9.333a.585.585 0 01-.584-.586c0-.97-.785-1.76-1.75-1.76a.585.585 0 01-.583-.586v-3.518c0-.324.261-.586.583-.586.965 0 1.75-.79 1.75-1.76 0-.324.262-.586.584-.586h9.333c.322 0 .583.262.583.587 0 .97.785 1.759 1.75 1.759.322 0 .584.262.584.586v3.518a.585.585 0 01-.584.587c-.965 0-1.75.789-1.75 1.759a.585.585 0 01-.583.586zm-8.809-1.173h8.284a2.932 2.932 0 012.274-2.286v-2.463a2.932 2.932 0 01-2.274-2.287h-8.284a2.932 2.932 0 01-2.274 2.287v2.463a2.932 2.932 0 012.274 2.286zM25.5 16.825H12.668a.585.585 0 01-.583-.587V6.27c0-.176.079-.343.214-.454L18.715.539a.582.582 0 01.739 0l6.416 5.277a.59.59 0 01.214.454v9.968a.585.585 0 01-.583.587zm-12.25-1.173h11.667V6.548L19.084 1.75l-5.833 4.798v9.104z" fill="#84A5F1" stroke="#84A5F1" stroke-width=".7"/><path d="M20.834 16.825h-3.5a.585.585 0 01-.583-.587v-5.864c0-.324.261-.586.583-.586h3.5c.322 0 .584.262.584.586v5.864a.585.585 0 01-.584.587zm-2.916-1.173h2.333V10.96h-2.333v4.69zM9.75 9.202a.588.588 0 01-.368-1.041L18.717.536a.58.58 0 01.82.086.588.588 0 01-.085.825L10.119 9.07a.58.58 0 01-.368.13z" fill="#84A5F1" stroke="#84A5F1" stroke-width=".7"/><path d="M28.417 9.202a.577.577 0 01-.368-.132l-9.333-7.623a.589.589 0 01-.085-.825.582.582 0 01.82-.085l9.333 7.623a.589.589 0 01-.367 1.042zM32.5 27.38a.588.588 0 01-.416-.997c1.808-1.848 2.81-4.31 2.747-6.756-.056-2.195-.96-4.209-2.545-5.67l-1.37-1.415a.589.589 0 01.01-.829c.232-.226.6-.22.826.012l1.347 1.391c1.797 1.655 2.835 3.965 2.899 6.481.07 2.763-1.053 5.535-3.081 7.607a.582.582 0 01-.416.175z" fill="#84A5F1" stroke="#84A5F1" stroke-width=".7"/><path d="M34.834 13.305a.547.547 0 01-.097-.008l-3.5-.586a.586.586 0 01.193-1.156l3.5.587a.586.586 0 01-.096 1.163z" fill="#84A5F1" stroke="#84A5F1" stroke-width=".7"/><path d="M31.917 16.825a.584.584 0 01-.577-.504l-.583-4.104a.586.586 0 01.495-.664.585.585 0 01.66.498l.583 4.104a.586.586 0 01-.578.67zM5.667 27.38a.582.582 0 01-.418-.178L3.902 25.81c-1.797-1.655-2.835-3.965-2.899-6.481-.07-2.762 1.053-5.535 3.081-7.607a.582.582 0 01.825-.007c.23.227.233.599.007.829-1.808 1.846-2.809 4.309-2.746 6.755.056 2.195.96 4.209 2.544 5.67l1.372 1.415a.588.588 0 01-.419.995z" fill="#84A5F1" stroke="#84A5F1" stroke-width=".7"/><path d="M5.668 27.378a.555.555 0 01-.096-.008l-3.5-.586a.586.586 0 01.191-1.156l3.5.587a.586.586 0 01-.095 1.163z" fill="#84A5F1" stroke="#84A5F1" stroke-width=".7"/><path d="M5.667 27.38a.584.584 0 01-.577-.504l-.583-4.104a.586.586 0 01.495-.664.585.585 0 01.66.498l.583 4.104a.586.586 0 01-.578.67zM27.25 16.824H10.918a.585.585 0 01-.583-.586c0-.324.261-.586.583-.586h16.334c.322 0 .583.262.583.586a.585.585 0 01-.583.586zm-7-8.795h-2.333a.585.585 0 01-.583-.586V5.097c0-.324.261-.586.583-.586h2.334c.322 0 .583.262.583.586v2.346a.585.585 0 01-.583.586zM18.5 6.856h1.167V5.683h-1.166v1.173z" fill="#84A5F1" stroke="#84A5F1" stroke-width=".7"/></svg>