<svg width="35" height="27" viewBox="0 0 35 27" fill="none" xmlns="http://www.w3.org/2000/svg"><path fill-rule="evenodd" clip-rule="evenodd" d="M29.24 8.662h3.247c.834 0 1.513.687 1.513 1.53V24.47c0 .844-.679 1.531-1.513 1.531H8.11a1.524 1.524 0 01-1.513-1.53v-.588l-.223.058a1.52 1.52 0 01-1.84-1.105L1.047 9A1.534 1.534 0 012.14 7.14l17.006-4.387a.477.477 0 01.233.924L2.373 8.065a.579.579 0 00-.412.701l.182.722L26.867 3.11l-.181-.722a.57.57 0 00-.694-.416l-3.742.965a.477.477 0 01-.233-.924l3.742-.965a1.514 1.514 0 011.84 1.105l1.641 6.51zM6.142 23.015l.456-.117v-9.614l-3.284.847L5.448 22.6a.57.57 0 00.694.416zM6.598 12.3v-2.107c0-.362.125-.695.334-.957L2.376 10.41l.705 2.796 3.517-.907zm17.92-3.638h3.75l-.23-.908-3.52.908zm3.287-1.832L27.1 4.034 9.156 8.662h11.546l7.103-1.832zM8.112 25.046h24.375c.314 0 .57-.259.57-.577V10.193a.574.574 0 00-.57-.577H8.112a.574.574 0 00-.57.577v14.276c0 .318.255.577.57.577zm1.392-4.642h10.274c.26 0 .471.213.471.477a.474.474 0 01-.471.477H9.504a.474.474 0 01-.472-.477c0-.264.211-.477.472-.477zm18.132-8.387c-.678 0-1.304.22-1.815.595a3.064 3.064 0 00-1.817-.595c-1.712 0-3.104 1.408-3.104 3.14 0 1.731 1.392 3.14 3.104 3.14.659 0 1.29-.21 1.817-.595.51.374 1.137.595 1.815.595 1.711 0 3.104-1.409 3.104-3.14 0-1.732-1.393-3.14-3.104-3.14zm-3.1 3.289v.013l.001.023.01.12.002.028c.058.557.259 1.081.587 1.529-.338.21-.728.324-1.132.324-1.192 0-2.161-.98-2.161-2.186s.97-2.186 2.161-2.186c.404 0 .794.113 1.132.323-.328.448-.53.972-.587 1.53l-.003.027-.009.12-.002.037a3.352 3.352 0 000 .298zm3.1 2.037a2.142 2.142 0 01-1.593-.71l-.014-.017a2.191 2.191 0 01-.554-1.46c0-.526.185-1.01.493-1.389l.06-.07.015-.016c.017-.02.035-.038.053-.056l.024-.025c.39-.389.926-.63 1.516-.63 1.192 0 2.161.981 2.161 2.187 0 1.205-.97 2.186-2.161 2.186zm-16.84-5.016h2.068c.972 0 1.764.8 1.764 1.784v2.092c0 .983-.792 1.784-1.764 1.784h-2.068c-.973 0-1.764-.8-1.764-1.784V14.11c0-.984.791-1.784 1.764-1.784zm1.883 3.086h1.005V15H12.68a.474.474 0 01-.472-.477c0-.264.211-.477.471-.477h1.003a.825.825 0 00-.817-.765h-2.068a.825.825 0 00-.818.765h1.003c.26 0 .472.213.472.477a.474.474 0 01-.472.477H9.975v.413h1.006c.26 0 .472.213.472.477a.474.474 0 01-.472.477h-.99c.076.38.408.666.805.666h2.068a.824.824 0 00.804-.666h-.99a.474.474 0 01-.471-.477c0-.264.211-.477.471-.477zm18.17 7.09H14.431a.474.474 0 00-.471.476c0 .264.21.477.471.477H30.85c.26 0 .472-.213.472-.477a.474.474 0 00-.472-.477zm-21.345 0h1.921c.26 0 .472.213.472.476a.474.474 0 01-.472.477H9.504a.474.474 0 01-.472-.477c0-.263.211-.477.472-.477z" fill="#84A5F1"/><path d="M29.24 8.662l-.339.086.067.264h.272v-.35zM6.598 23.882h.35v-.451l-.437.112.087.34zm-.223.058l.087.339-.087-.34zM6 23.987v-.35.35zm-1.466-1.152l-.34.085.34-.085zM1.047 9l.34-.085-.34.085zM2.14 7.14l.087.339-.087-.34zm17.006-4.387l-.087-.339.087.34zm.574.345l.339-.086-.34.086zm-.34.58l-.088-.34.087.34zM2.372 8.064l-.088-.339.088.339zm-.35.264l-.302-.177.302.178zm-.062.438l.34-.086-.34.085zm.182.72l-.34.086.086.341.341-.088-.087-.338zM26.867 3.11l.088.34.337-.088-.085-.337-.34.086zm-.181-.72l.339-.086-.34.085zm-.694-.417l-.087-.339.087.339zm-3.742.965l.088.339-.088-.339zm-.573-.344l-.34.085.34-.085zm.34-.58l.088.339-.088-.34zm3.742-.965l-.087-.34.087.34zm1.84 1.105l-.34.085.34-.085zm-21 20.745l.087.339.262-.068v-.271h-.35zm-.457.117l-.087-.338.087.338zm.456-9.73h.35v-.452l-.437.112.087.34zm-3.284.846l-.088-.338-.337.087.085.337.34-.086zM5.448 22.6l-.339.086.34-.086zm1.15-10.3l.088.34.262-.068V12.3h-.35zm.334-3.063l.274.217.65-.817-1.012.26.088.34zM2.376 10.41l-.088-.34-.337.088.085.337.34-.085zm.705 2.796l-.34.086.086.34.341-.087-.087-.339zm25.186-4.545v.35h.45l-.11-.435-.34.085zm-3.748 0l-.088-.339.088.69v-.35zm3.52-.908l.339-.085-.086-.341-.341.087.087.34zm-.939-3.72l.34-.086-.086-.341-.341.088.087.339zm.705 2.796l.088.339.337-.087-.085-.338-.34.086zM9.155 8.662l-.087-.339.088.69v-.35zm11.547 0v.35h.044l.044-.01-.088-.34zm5.119 3.95l-.207.282.207.151.206-.15-.206-.283zM20.9 15.157h-.35.35zm4.92 2.545l.207-.283-.206-.151-.207.151.207.283zm-1.284-2.383l-.35.019v.002l.35-.021zm0-.013l-.35.016v.002l.35-.018zm.001.036l.35-.02-.35.02zm.01.12l-.35.033.35-.033zm.002.028l-.348.034v.001l.348-.035zm.587 1.529l.185.297.32-.2-.223-.304-.282.207zm-3.293-1.862h-.35.35zm3.293-1.863l.282.207.223-.304-.32-.2-.185.297zm-.587 1.53l-.348-.036v.002l.348.034zm-.003.027l-.348-.034v.002l.348.032zm-.009.12l-.35-.02.35.02zm-.002.037l-.35-.017.35.017zm1.585 1.705l.247-.248-.247.248zm-.024-.024l-.251.244.251-.244zm-.053-.057l-.261.233.001.002.26-.235zm-.014-.016l-.262.233.262-.233zm-.06-.07l.271-.22v-.002l-.271.223zm0 0l-.272.221.001.001.27-.222zm-.495-1.39h.35-.35zm.494-1.389l.272.222.008-.011-.28-.21zm0 0l-.27-.221-.009.01.28.21zm.06-.07l-.26-.234-.001.001.262.233zm.015-.016l-.26-.235v.002l.26.233zm.053-.056l.25.244h.001l-.25-.245zm.024-.025l.247.248-.247-.248zM9.032 16.203h.35-.35zm4.652-.79v.35h.35v-.35h-.35zm0-.413h.35v-.35h-.35V15zm-.003-.954v.35h.378l-.029-.377-.349.027zm-3.703 0l-.349-.027-.029.377h.378v-.35zM9.975 15v-.35h-.35V15h.35zm0 .413h-.35v.35h.35v-.35zm.016.954v-.35h-.426l.083.418.343-.068zm3.677 0l.343.068.084-.418h-.427v.35zm18.819-8.055H29.24v.7h3.247v-.7zm1.863 1.88c0-1.033-.832-1.88-1.863-1.88v.7c.637 0 1.163.526 1.163 1.18h.7zm0 14.277V10.193h-.7v14.276h.7zm-1.863 1.881a1.874 1.874 0 001.863-1.88h-.7c0 .654-.526 1.18-1.163 1.18v.7zm-24.376 0h24.376v-.7H8.11v.7zm-1.863-1.88c0 1.033.832 1.88 1.863 1.88v-.7a1.174 1.174 0 01-1.163-1.18h-.7zm0-.588v.587h.7v-.587h-.7zm.214.397l.224-.058-.175-.678-.224.058.175.678zm-.46.058c.152 0 .307-.019.46-.058l-.175-.678a1.146 1.146 0 01-.286.037v.7zM4.194 22.92A1.87 1.87 0 006 24.337v-.7a1.17 1.17 0 01-1.127-.888l-.679.171zM.708 9.087L4.195 22.92l.679-.17L1.386 8.915l-.678.17zM2.052 6.8A1.884 1.884 0 00.708 9.087l.678-.171a1.184 1.184 0 01.841-1.437L2.052 6.8zM19.06 2.414L2.052 6.801l.175.678 17.007-4.387-.175-.678zm1 .598a.821.821 0 00-1-.598l.174.678a.12.12 0 01.147.091l.679-.171zm-.592 1.004a.827.827 0 00.592-1.004l-.679.171a.128.128 0 01-.088.156l.175.677zM2.46 8.403l17.007-4.387-.175-.677L2.285 7.725l.175.678zm-.135.103a.218.218 0 01.135-.103l-.175-.678a.918.918 0 00-.564.426l.604.355zM2.3 8.68a.229.229 0 01.025-.174l-.604-.355a.929.929 0 00-.1.7l.68-.171zm.182.721L2.3 8.68l-.678.171.181.721.68-.171zm24.298-6.63L2.055 9.148l.175.677 24.725-6.377-.175-.677zm-.434-.297l.182.721.679-.171-.182-.721-.679.17zm-.267-.163a.22.22 0 01.267.163l.679-.171a.92.92 0 00-1.12-.67l.174.678zm-3.741.965l3.741-.965-.174-.678-3.742.965.175.678zm-1-.598a.821.821 0 001 .598l-.175-.678a.121.121 0 01-.146-.091l-.68.171zm.592-1.004a.827.827 0 00-.592 1.004l.678-.17a.128.128 0 01.089-.156l-.175-.678zm3.742-.965l-3.742.965.175.678 3.741-.965-.174-.678zm2.267 1.358A1.864 1.864 0 0025.672.71l.174.678a1.164 1.164 0 011.414.851l.679-.17zm1.64 6.51l-1.64-6.51-.68.171 1.642 6.51.679-.171zM6.512 22.559l-.456.118.174.677.457-.117-.175-.678zm-.263-9.275v9.614h.7v-9.614h-.7zM3.401 14.47l3.285-.847-.175-.678-3.285.848.175.677zm2.387 8.044l-2.135-8.468-.679.171 2.135 8.468.679-.171zm.266.163a.22.22 0 01-.266-.163l-.679.17a.92.92 0 001.12.67l-.175-.677zm.194-12.484V12.3h.7v-2.107h-.7zm.41-1.175c-.256.322-.41.73-.41 1.175h.7c0-.28.097-.537.258-.74l-.548-.435zM2.463 10.75L7.02 9.575l-.175-.678-4.556 1.175.175.678zm.957 2.372l-.705-2.797-.679.171.705 2.797.68-.171zm3.09-1.161l-3.517.907.175.678 3.518-.907-.175-.678zm21.757-3.649H24.52v.7h3.748v-.7zM27.7 7.84l.229.908.678-.171-.228-.908-.68.17zM24.606 9l3.52-.908-.175-.678-3.52.908.175.678zm2.155-4.882l.705 2.797.679-.172-.705-2.796-.68.171zM9.243 9.001l17.945-4.628-.175-.678L9.068 8.323l.175.678zm11.46-.689H9.155v.7h11.546v-.7zm7.015-1.82l-7.103 1.831.175.678 7.103-1.832-.175-.678zm4.769 18.204H8.112v.7h24.375v-.7zm.22-.227a.224.224 0 01-.22.227v.7c.511 0 .92-.42.92-.927h-.7zm0-14.276v14.276h.7V10.193h-.7zm-.22-.227c.117 0 .22.098.22.227h.7a.924.924 0 00-.92-.927v.7zm-24.375 0h24.375v-.7H8.112v.7zm-.22.227c0-.129.102-.227.22-.227v-.7c-.512 0-.92.42-.92.927h.7zm0 13.075V10.194h-.7v13.075h.7zm0 1.201v-1.2h-.7v1.2h.7zm.22.227a.224.224 0 01-.22-.227h-.7c0 .508.408.927.92.927v-.7zm11.666-4.642H9.504v.7h10.274v-.7zm.821.827a.824.824 0 00-.821-.827v.7c.063 0 .121.053.121.127h.7zm-.821.827a.824.824 0 00.821-.827h-.7a.124.124 0 01-.121.127v.7zm-10.274 0h10.274v-.7H9.504v.7zm-.822-.827c0 .453.364.827.822.827v-.7a.124.124 0 01-.122-.127h-.7zm.822-.827a.824.824 0 00-.822.827h.7c0-.074.058-.127.122-.127v-.7zm16.523-7.16a2.712 2.712 0 011.609-.527v-.7c-.755 0-1.454.247-2.022.662l.413.565zm-2.023-.527c.584 0 1.143.185 1.61.527l.414-.565a3.414 3.414 0 00-2.024-.662v.7zm-2.754 2.79c0-1.542 1.24-2.79 2.754-2.79v-.7c-1.909 0-3.454 1.569-3.454 3.49h.7zm2.754 2.79c-1.515 0-2.754-1.248-2.754-2.79h-.7c0 1.92 1.545 3.49 3.454 3.49v-.7zm1.61-.527a2.713 2.713 0 01-1.61.527v.7a3.41 3.41 0 002.024-.663l-.414-.565zm2.022.527a2.71 2.71 0 01-1.608-.528l-.414.565a3.414 3.414 0 002.022.663v-.7zm2.754-2.79c0 1.542-1.24 2.79-2.754 2.79v.7c1.908 0 3.454-1.57 3.454-3.49h-.7zm-2.754-2.79c1.514 0 2.754 1.248 2.754 2.79h.7c0-1.921-1.546-3.49-3.454-3.49v.7zm-2.75 2.933l-.001-.013-.7.037.001.014.7-.038zm0 .021v-.023l-.7.042.002.023.699-.042zm.009.108a2.75 2.75 0 01-.008-.106l-.7.039.01.133.698-.066zm.002.027l-.002-.028-.697.068.003.027.696-.067zm.521 1.356a2.765 2.765 0 01-.52-1.358l-.697.071a3.46 3.46 0 00.652 1.7l.565-.413zm-1.414.88c.47 0 .924-.13 1.317-.376l-.37-.594a1.78 1.78 0 01-.947.27v.7zm-2.511-2.535c0 1.395 1.122 2.536 2.511 2.536v-.7c-.995 0-1.811-.82-1.811-1.836h-.7zm2.511-2.536c-1.389 0-2.511 1.14-2.511 2.536h.7c0-1.016.816-1.836 1.811-1.836v-.7zm1.317.377a2.481 2.481 0 00-1.317-.377v.7c.339 0 .664.094.946.27l.371-.593zm-.424 1.862c.051-.497.23-.962.521-1.359l-.564-.413a3.467 3.467 0 00-.653 1.7l.696.072zm-.002.026l.002-.028-.696-.068-.003.028.697.068zm-.008.105c.002-.036.004-.072.008-.107l-.697-.065a3.749 3.749 0 00-.01.132l.699.04zm-.002.033l.002-.033-.7-.04c0 .006 0 .026-.002.04l.7.033zm-.004.133c0-.043.002-.088.004-.133l-.7-.032a3.64 3.64 0 00-.004.165h.7zm.004.133a2.91 2.91 0 01-.004-.133h-.7c0 .056.002.111.005.165l.699-.032zm.988 1.671a2.492 2.492 0 001.763.732v-.7c-.493 0-.94-.2-1.269-.528l-.494.496zm-.028-.028l.028.028.494-.496-.02-.02-.502.488zm-.062-.066l.062.066.502-.488a1.846 1.846 0 01-.045-.047l-.519.47zm-.016-.018l.015.016.522-.465-.014-.016-.523.465zm-.07-.081c.024.029.048.056.07.08l.523-.464a1.822 1.822 0 01-.05-.059l-.542.443zm.001 0l.541-.444-.54.444zm-.573-1.611c0 .61.215 1.172.572 1.61l.543-.442a1.842 1.842 0 01-.415-1.168h-.7zm.572-1.611c-.357.438-.572 1-.572 1.61h.7c0-.443.155-.85.415-1.168l-.543-.442zm-.008.01l.559.422-.559-.422zm.078-.092a2.604 2.604 0 00-.07.082l.543.442.05-.059-.523-.465zm.015-.016l-.014.015.522.467.014-.016-.522-.466zm.064-.068l-.063.066.52.47.044-.047-.501-.489zm.027-.028l-.028.028.502.488.02-.02-.494-.496zm1.763-.731c-.688 0-1.31.28-1.763.731l.494.496a1.792 1.792 0 011.269-.527v-.7zm2.511 2.536c0-1.395-1.122-2.536-2.511-2.536v.7c.994 0 1.811.82 1.811 1.836h.7zm-2.511 2.536c1.389 0 2.511-1.141 2.511-2.536h-.7c0 1.016-.817 1.836-1.811 1.836v.7zm-14.772-5.716h-2.068v.7h2.068v-.7zm2.114 2.134c0-1.173-.944-2.134-2.114-2.134v.7c.775 0 1.414.64 1.414 1.434h.7zm0 2.092V14.11h-.7v2.092h.7zm-2.114 2.134c1.17 0 2.114-.961 2.114-2.134h-.7c0 .794-.639 1.434-1.414 1.434v.7zm-2.068 0h2.068v-.7h-2.068v.7zm-2.114-2.134c0 1.173.944 2.134 2.114 2.134v-.7c-.776 0-1.414-.64-1.414-1.434h-.7zm0-2.092v2.092h.7V14.11h-.7zm2.114-2.134c-1.17 0-2.114.96-2.114 2.134h.7c0-.794.638-1.434 1.414-1.434v-.7zm2.888 3.086H12.68v.7h1.005v-.7zm-.35-.063v.413h.7V15h-.7zm-.655.35h1.005v-.7H12.68v.7zm-.822-.827c0 .453.364.827.822.827v-.7a.124.124 0 01-.122-.127h-.7zm.822-.827a.824.824 0 00-.822.827h.7c0-.074.058-.127.121-.127v-.7zm1.002 0H12.68v.7h1.002v-.7zm-.817-.065c.242 0 .449.191.468.442l.698-.054a1.175 1.175 0 00-1.166-1.088v.7zm-2.068 0h2.068v-.7h-2.068v.7zm-.469.442a.475.475 0 01.469-.442v-.7c-.62 0-1.12.484-1.167 1.088l.698.054zm.654-.377H9.978v.7h1.003v-.7zm.822.827a.824.824 0 00-.822-.827v.7c.063 0 .122.053.122.127h.7zm-.822.827a.824.824 0 00.822-.827h-.7a.124.124 0 01-.122.127v.7zm-1.006 0h1.006v-.7H9.975v.7zm.35.063V15h-.7v.413h.7zm.656-.35H9.975v.7h1.006v-.7zm.822.827a.824.824 0 00-.822-.827v.7c.063 0 .122.053.122.127h.7zm-.822.827a.824.824 0 00.822-.827h-.7a.124.124 0 01-.122.127v.7zm-.99 0h.99v-.7h-.99v.7zm.805-.034a.474.474 0 01-.461-.384l-.687.136c.107.537.578.948 1.148.948v-.7zm2.068 0h-2.068v.7h2.068v-.7zm.46-.384a.474.474 0 01-.46.384v.7c.57 0 1.04-.411 1.147-.948l-.686-.136zm-.646.418h.99v-.7h-.99v.7zm-.821-.827c0 .453.364.827.822.827v-.7a.124.124 0 01-.122-.127h-.7zm.822-.827a.824.824 0 00-.822.827h.7c0-.074.058-.127.121-.127v-.7zm1.752 7.79H30.85v-.7H14.431v.7zm-.121.126c0-.074.058-.127.121-.127v-.7a.824.824 0 00-.821.827h.7zm.121.127a.124.124 0 01-.121-.127h-.7c0 .453.364.827.821.827v-.7zm16.418 0H14.431v.7H30.85v-.7zm.122-.127a.124.124 0 01-.122.127v.7a.824.824 0 00.822-.827h-.7zm-.122-.127c.064 0 .122.053.122.127h.7a.824.824 0 00-.822-.827v.7zm-19.424-.7H9.504v.7h1.921v-.7zm.822.827a.824.824 0 00-.822-.827v.7c.064 0 .122.053.122.127h.7zm-.822.827a.824.824 0 00.822-.827h-.7a.124.124 0 01-.122.127v.7zm-1.921 0h1.921v-.7H9.504v.7zm-.822-.827c0 .453.364.827.822.827v-.7a.124.124 0 01-.122-.127h-.7zm.822-.827a.824.824 0 00-.822.827h.7c0-.074.058-.127.122-.127v-.7z" fill="#84A5F1"/></svg>