<svg width="27" height="35" viewBox="0 0 27 35" fill="none" xmlns="http://www.w3.org/2000/svg"><path fill-rule="evenodd" clip-rule="evenodd" d="M17.54 10.432a1.66 1.66 0 00.21-.417c.224.038.437.125.625.254.378.26.821.404 1.278.416.144 0 .287-.014.429-.04a2.278 2.278 0 001.479-.947 1.228 1.228 0 011.81-.324c.498.35 1.112.485 1.708.375l-.19-1.09a1.227 1.227 0 01-.974-.243 2.288 2.288 0 00-3.187.571c-.187.3-.49.507-.835.569a1.06 1.06 0 01-.474-.012 2.15 2.15 0 00.87-.47c.465-.392.759-.958.815-1.572.014-.355.175-.688.444-.916a1.21 1.21 0 01.964-.285 2.21 2.21 0 001.663-.544l-.7-.847c-.27.223-.618.325-.964.285-1.255-.098-2.356.842-2.48 2.116a1.273 1.273 0 01-.442.916 1.23 1.23 0 01-.964.285 2.38 2.38 0 00-1 .136 1.644 1.644 0 00-.631-.627l2.43-4.938a.562.562 0 00-.025-.54.542.542 0 00-.464-.26 1.39 1.39 0 01-1.018-.431c-.96-.9-2.436-.9-3.395 0a1.423 1.423 0 01-2.039 0 2.478 2.478 0 00-3.398 0 1.389 1.389 0 01-1.02.43c-.188 0-.363.1-.462.263a.56.56 0 00-.024.538l2.427 4.938A1.638 1.638 0 009.193 9.1c-.105.462-.008.947.266 1.332C4.476 11.793 1.01 16.384 1 21.633v9.952c.002 1.526 1.217 2.762 2.717 2.764h19.566c1.5-.002 2.715-1.238 2.717-2.764v-9.952c-.01-5.249-3.476-9.84-8.46-11.201zM9.765 2.715a1.423 1.423 0 012.04 0c.96.898 2.437.898 3.397 0a1.42 1.42 0 012.037 0c.26.233.558.417.882.542l-2.239 4.554h-4.763L8.88 3.258c.324-.126.624-.31.884-.543zm1.019 7.308a.548.548 0 01-.544-.553c0-.305.243-.553.544-.553h5.434c.3 0 .544.248.544.553a.548.548 0 01-.544.553h-5.434zm14.13 21.562c0 .916-.73 1.658-1.63 1.658H3.717c-.9 0-1.63-.742-1.63-1.658v-9.952c.006-5.799 4.626-10.498 10.326-10.504h2.174c5.7.006 10.32 4.705 10.326 10.504v9.952zm-15.058-5.92l6.522-6.634.768.781-6.522 6.635-.768-.782zm4.188-.715c0-.916.73-1.658 1.63-1.658.901 0 1.631.742 1.631 1.658 0 .916-.73 1.659-1.63 1.659-.9 0-1.63-.743-1.63-1.659zm1.087 0c0 .306.243.553.544.553.3 0 .543-.247.543-.553a.548.548 0 00-.543-.552c-.3 0-.544.247-.544.552zm-3.804-2.764c.9 0 1.63-.743 1.63-1.659s-.73-1.658-1.63-1.658c-.9 0-1.63.742-1.63 1.658 0 .916.73 1.659 1.63 1.659zm0-2.212c.3 0 .544.248.544.553a.548.548 0 01-.544.553.548.548 0 01-.543-.553c0-.305.243-.553.543-.553zM5.891 22.74c0-4.275 3.407-7.74 7.609-7.74 4.2.004 7.604 3.467 7.609 7.74 0 4.275-3.407 7.74-7.61 7.74-4.201 0-7.608-3.465-7.608-7.74zm1.087 0c0 3.664 2.92 6.634 6.522 6.634 3.6-.004 6.518-2.972 6.522-6.634 0-3.664-2.92-6.634-6.522-6.634-3.602 0-6.522 2.97-6.522 6.634z" fill="#84A5F1"/><path d="M17.75 10.015l.059-.345-.295-.051-.096.284.332.112zm-.21.417l-.287-.2-.282.407.477.13.093-.337zm.835-.163l-.199.288.199-.288zm1.278.416l-.01.35h.01v-.35zm.429-.04l-.06-.345h-.003l.063.345zm1.479-.947l.287.2.005-.007.005-.008-.297-.185zm.834-.569l-.061-.344.061.344zm.975.244l-.216.276.008.005.007.006.201-.287zm1.709.376l.063.344.34-.063-.058-.341-.345.06zm-.19-1.09l.345-.06-.06-.346-.346.062.061.345zm-.974-.243l.215-.276-.007-.006-.009-.005-.2.287zm-3.187.571l-.286-.201-.006.008-.005.008.297.185zm-.835.569l-.062-.345-.008.002.07.343zm-.474-.012l-.091-.338-1.29.347 1.294.33.087-.339zm.87-.47l-.226-.267-.007.006.232.262zm.815-1.572l.348.032.001-.009v-.008l-.35-.015zm.444-.916l.227.266.002-.002-.23-.264zm.964-.285l-.05.346.009.001.009.001.032-.348zm1.663-.544l.231.262.256-.224-.217-.262-.27.224zm-.7-.847l.27-.223-.223-.269-.27.222.223.27zm-.964.285l.04-.348-.013-.001-.027.349zM20.03 7.31l-.348-.034v.02l.349.014zm-.442.916l.227.266-.227-.266zm-.964.285l.047-.347-.01-.001h-.01l-.027.348zm-1 .136l-.305.173.146.257.279-.101-.12-.329zm-.631-.627l-.314-.155-.147.3.29.16.17-.305zm2.43-4.938l.314.154-.314-.154zm-.025-.54l.299-.182-.299.183zm-.464-.26l-.002-.35h-.001l.003.35zm-1.018-.431l.253-.242-.006-.007-.007-.007-.24.256zm-3.395 0l-.24-.256-.005.006-.006.005.25.245zm-2.039 0l.25-.245-.005-.005-.006-.006-.239.256zm-3.398 0l-.239-.256-.007.006-.006.007.252.243zm-1.02.43l.004-.35h-.004v.35zm-.462.263l.299.182-.3-.182zm-.024.538l.314-.154-.314.154zm2.427 4.938l.167.308.295-.16-.148-.302-.314.154zm-.547 2.41l.092.338.485-.132-.292-.409-.285.204zM1 21.634H.65 1zm0 9.952H.65 1zm2.717 2.764v.35-.35zm19.566 0v.35-.35zM26 31.585h.35H26zm0-9.952h.35H26zM9.764 2.715l.234.26.008-.007.009-.009-.25-.244zm2.04 0l-.25.244.005.006.006.005.24-.255zm3.397 0l.24.255.005-.005.006-.006-.251-.244zm2.037 0l-.25.244.008.008.008.008.234-.26zm.882.542l.314.154.169-.342-.356-.138-.127.326zm-2.239 4.554v.35h.218l.096-.195-.314-.155zm-4.763 0l-.314.155.096.195h.218v-.35zM8.88 3.258l-.126-.327-.356.138.168.343.314-.154zM2.087 21.633h-.35.35zM12.413 11.13v-.35.35zm2.174 0v-.35.35zm10.326 10.504h.35-.35zm-8.536-2.602l.25-.246-.25-.254-.25.254.25.245zm-6.522 6.634l-.25-.245-.241.245.241.245.25-.245zm7.29-5.853l.25.246.24-.246-.24-.245-.25.245zm-6.522 6.635l-.25.245.25.254.25-.254-.25-.245zM13.5 14.999v-.35.35zm7.609 7.74h.35-.35zm-7.61 6.634v.35h.001v-.35zm6.523-6.634h.35-.35zM17.418 9.903a1.36 1.36 0 01-.165.33l.575.398a2.01 2.01 0 00.254-.505l-.664-.223zm1.155.078a1.92 1.92 0 00-.764-.311l-.118.69c.174.03.34.097.485.197l.397-.576zm1.089.354a2.013 2.013 0 01-1.089-.355l-.396.577c.433.298.942.464 1.466.478l.019-.7zm.357-.034a2.086 2.086 0 01-.368.034l.003.7c.165 0 .33-.016.49-.046l-.125-.688zm1.254-.803a1.928 1.928 0 01-1.25.802l.119.69a2.628 2.628 0 001.706-1.092l-.575-.4zm1.06-.713c-.442.08-.83.344-1.07.728l.595.37a.894.894 0 01.6-.41l-.125-.688zm1.254.313a1.578 1.578 0 00-1.253-.313l.123.689a.878.878 0 01.697.175l.433-.55zm1.428.307a1.902 1.902 0 01-1.443-.318l-.403.573c.575.404 1.284.56 1.973.433l-.127-.688zm-.47-.685l.189 1.089.69-.12-.19-1.09-.69.12zm-.847-.029c.355.278.81.393 1.253.313l-.123-.689a.877.877 0 01-.698-.175l-.431.551zm-2.684.498a1.938 1.938 0 012.7-.486l.4-.574a2.638 2.638 0 00-3.672.657l.572.403zm-1.059.711c.443-.08.831-.344 1.07-.727l-.594-.37a.894.894 0 01-.6.408l.124.69zm-.623-.017c.207.053.422.059.631.016l-.14-.686a.71.71 0 01-.318-.008l-.173.678zm.724-1.07c-.21.187-.46.321-.728.393l.182.676c.374-.1.72-.287 1.01-.545l-.464-.524zm.7-1.342a1.985 1.985 0 01-.693 1.336l.451.535a2.685 2.685 0 00.938-1.808l-.697-.063zm.565-1.152a1.622 1.622 0 00-.567 1.169l.7.029a.92.92 0 01.32-.665l-.453-.533zm1.24-.365a1.56 1.56 0 00-1.243.367l.459.53a.86.86 0 01.685-.204l.1-.693zm1.383-.46a1.86 1.86 0 01-1.4.458l-.064.697a2.56 2.56 0 001.926-.63l-.462-.525zm-.739-.36l.7.846.54-.447-.7-.846-.54.446zm-.735.408a1.63 1.63 0 001.227-.362l-.444-.54a.933.933 0 01-.702.207l-.081.695zm-2.09 1.802c.106-1.089 1.045-1.883 2.104-1.8l.054-.698c-1.45-.113-2.713.973-2.855 2.43l.697.068zm-.563 1.149c.342-.293.546-.717.564-1.168l-.699-.028a.923.923 0 01-.32.664l.455.532zm-1.239.366a1.58 1.58 0 001.238-.366l-.454-.532a.88.88 0 01-.69.204l-.094.694zm-.833.118c.273-.1.563-.139.853-.116l.055-.698c-.39-.03-.78.022-1.148.156l.24.658zm-.921-.65c.206.114.378.285.496.494l.61-.346a1.994 1.994 0 00-.766-.76l-.34.612zm2.286-5.399l-2.43 4.938.628.31 2.43-4.939-.628-.309zm-.01-.202a.212.212 0 01.01.203l.628.308a.912.912 0 00-.04-.876l-.598.365zm-.163-.093c.064 0 .127.033.164.093l.597-.365a.892.892 0 00-.765-.428l.004.7zm-1.273-.54a1.74 1.74 0 001.274.54l-.006-.7a1.04 1.04 0 01-.762-.323l-.506.484zm-2.903.014a2.124 2.124 0 012.917 0l.479-.51a2.824 2.824 0 00-3.875 0l.479.51zm-1.259.526c.478 0 .935-.194 1.27-.537l-.5-.489c-.205.21-.482.326-.77.326v.7zm-1.27-.537c.336.343.792.537 1.27.537v-.7a1.07 1.07 0 01-.768-.326l-.502.489zm-2.908.011a2.128 2.128 0 012.92 0l.478-.51a2.828 2.828 0 00-3.876 0l.478.51zm-1.262.526c.48.005.942-.19 1.276-.539l-.505-.485c-.202.21-.478.327-.764.324l-.007.7zm-.16.094a.192.192 0 01.163-.094v-.7c-.312 0-.6.164-.762.43l.599.364zm-.01.201a.21.21 0 01.01-.2l-.598-.365a.91.91 0 00-.04.875l.629-.31zm2.428 4.939L7.893 2.929l-.628.308 2.427 4.938.628-.308zm-.785 1.31c.082-.365.316-.674.638-.848l-.334-.616c-.501.272-.86.75-.987 1.31l.683.154zm.21 1.052a1.313 1.313 0 01-.21-1.052l-.683-.155a2.013 2.013 0 00.322 1.613l.57-.406zM1.35 21.633c.009-5.095 3.374-9.546 8.201-10.865l-.184-.675C4.228 11.498.659 16.23.65 21.633h.7zm0 9.95v-9.95h-.7v9.95h.7zM3.718 34c-1.302-.002-2.367-1.076-2.368-2.415l-.7.001C.652 33.3 2.018 34.697 3.717 34.7V34zm19.565 0H3.717v.7h19.566V34zm2.367-2.415c-.002 1.34-1.066 2.414-2.368 2.415l.001.7c1.698-.002 3.065-1.4 3.067-3.114h-.7zm0-9.95v9.95h.7v-9.95h-.7zM17.448 10.77c4.828 1.32 8.193 5.77 8.202 10.865l.7-.002c-.01-5.402-3.579-10.134-8.717-11.538l-.185.675zm-6.664-8.836c-.478 0-.935.194-1.27.537l.5.49c.205-.21.482-.327.77-.327v-.7zm1.27.537a1.776 1.776 0 00-1.27-.537v.7c.288 0 .565.117.77.326l.5-.489zm2.908-.01a2.127 2.127 0 01-2.918 0l-.479.51a2.827 2.827 0 003.875 0l-.478-.51zm1.258-.527c-.478 0-.935.194-1.27.537l.502.489c.204-.21.48-.326.768-.326v-.7zm1.269.537a1.772 1.772 0 00-1.27-.537v.7c.288 0 .564.116.768.326l.502-.489zm.758.46a2.53 2.53 0 01-.775-.476l-.468.521c.291.261.626.467.99.608l.253-.652zm-2.052 5.036l2.24-4.555-.629-.308-2.239 4.554.628.309zm-5.077.195h4.763v-.7h-4.763v.7zm-2.552-4.75l2.238 4.554.628-.309-2.237-4.554-.629.309zm.965-.958c-.23.205-.493.367-.777.477l.253.653c.364-.141.7-.347.99-.609l-.466-.521zm.358 7.016c0 .493.394.903.894.903v-.7a.198.198 0 01-.194-.203h-.7zm.894-.903c-.5 0-.894.41-.894.903h.7c0-.118.092-.203.194-.203v-.7zm5.434 0h-5.434v.7h5.434v-.7zm.894.903a.898.898 0 00-.894-.903v.7c.102 0 .194.085.194.203h.7zm-.894.903c.5 0 .894-.41.894-.903h-.7a.198.198 0 01-.194.203v.7zm-5.434 0h5.434v-.7h-5.434v.7zm12.5 23.22c1.099 0 1.98-.905 1.98-2.008h-.7c0 .728-.579 1.308-1.28 1.308v.7zm-19.566 0h19.566v-.7H3.717v.7zm-1.98-2.008c0 1.103.88 2.008 1.98 2.008v-.7c-.701 0-1.28-.58-1.28-1.308h-.7zm0-9.952v9.952h.7v-9.952h-.7zM12.413 10.78c-5.9.006-10.67 4.867-10.676 10.854h.7c.006-5.611 4.475-10.148 9.976-10.154v-.7zm2.174 0h-2.174v.7h2.174v-.7zm10.676 10.854c-.007-5.986-4.777-10.848-10.676-10.854v.7c5.501.006 9.97 4.543 9.976 10.155l.7-.001zm0 9.952v-9.952h-.7v9.952h.7zm-9.136-12.8L9.605 25.42l.5.491 6.521-6.634-.499-.49zm1.268.782l-.769-.782-.499.49.768.783.5-.491zm-6.522 7.125l6.522-6.634-.5-.491-6.521 6.634.499.491zm-1.268-.782l.769.782.499-.49-.769-.783-.499.491zm6.069-2.968c-1.1 0-1.98.905-1.98 2.008h.7c0-.728.578-1.308 1.28-1.308v-.7zm1.98 2.008c0-1.103-.88-2.008-1.98-2.008v.7c.701 0 1.28.58 1.28 1.308h.7zm-1.98 2.009c1.1 0 1.98-.905 1.98-2.009h-.7c0 .729-.579 1.309-1.28 1.309v.7zm-1.98-2.009c0 1.104.88 2.009 1.98 2.009v-.7c-.702 0-1.28-.58-1.28-1.309h-.7zm1.98.203a.198.198 0 01-.194-.203h-.7c0 .493.395.903.894.903v-.7zm.193-.203a.198.198 0 01-.193.203v.7c.499 0 .893-.41.893-.903h-.7zm-.193-.203c.101 0 .193.086.193.203h.7a.898.898 0 00-.893-.902v.7zm-.194.203c0-.117.092-.203.194-.203v-.7c-.5 0-.894.41-.894.903h.7zm-2.873-4.423c0 .729-.58 1.309-1.28 1.309v.7c1.098 0 1.98-.905 1.98-2.009h-.7zm-1.28-1.308c.7 0 1.28.58 1.28 1.308h.7c0-1.103-.882-2.008-1.98-2.008v.7zm-1.281 1.308c0-.728.578-1.308 1.28-1.308v-.7c-1.1 0-1.98.905-1.98 2.008h.7zm1.28 1.309c-.702 0-1.28-.58-1.28-1.309h-.7c0 1.104.88 2.009 1.98 2.009v-.7zm.894-1.309a.898.898 0 00-.894-.902v.7c.101 0 .194.085.194.202h.7zm-.894.903c.5 0 .894-.41.894-.903h-.7a.198.198 0 01-.194.203v.7zm-.893-.903c0 .493.394.903.893.903v-.7a.198.198 0 01-.193-.203h-.7zm.893-.902c-.5 0-.893.41-.893.902h.7c0-.117.092-.203.193-.203v-.7zM13.5 14.65c-4.401 0-7.959 3.628-7.959 8.09h.7c0-4.087 3.255-7.39 7.259-7.39v-.7zm7.959 8.09c-.005-4.46-3.56-8.085-7.959-8.09v.7c4.001.004 7.254 3.305 7.259 7.39h.7zm-7.96 8.09c4.402 0 7.96-3.628 7.96-8.09h-.7c0 4.087-3.256 7.39-7.26 7.39v.7zm-7.958-8.09c0 4.462 3.558 8.09 7.959 8.09v-.7c-4.004 0-7.259-3.303-7.259-7.39h-.7zm7.959 6.284c-3.403 0-6.172-2.808-6.172-6.284h-.7c0 3.852 3.071 6.984 6.872 6.984v-.7zm6.172-6.285c-.004 3.476-2.771 6.282-6.173 6.285l.001.7c3.799-.004 6.867-3.134 6.872-6.984h-.7zM13.5 16.454c3.403 0 6.172 2.808 6.172 6.285h.7c0-3.852-3.072-6.985-6.872-6.985v.7zM7.328 22.74c0-3.477 2.769-6.285 6.172-6.285v-.7c-3.8 0-6.872 3.133-6.872 6.985h.7z" fill="#84A5F1"/></svg>