<svg width="30" height="22" viewBox="0 0 30 22" fill="none" xmlns="http://www.w3.org/2000/svg"><path fill-rule="evenodd" clip-rule="evenodd" d="M26.586 1H3.414C2.062 1 1 2.048 1 3.381v15.238C1 19.952 2.062 21 3.414 21h23.172C27.938 21 29 19.952 29 18.619V3.381C29 2.048 27.938 1 26.586 1zm1.449 17.619c0 .81-.628 1.429-1.449 1.429H3.414c-.82 0-1.448-.62-1.448-1.429V9.571h26.069v9.048zm0-10H1.965V5.762h26.07v2.857zm0-3.81H1.965V3.381c0-.81.628-1.429 1.449-1.429h23.172c.82 0 1.449.62 1.449 1.429v1.428zm-3.38 12.381c1.352 0 2.414-1.047 2.414-2.38 0-1.334-1.062-2.382-2.414-2.382s-2.414 1.048-2.414 2.381c0 1.334 1.062 2.381 2.414 2.381zm0-3.81c.82 0 1.448.62 1.448 1.43 0 .809-.627 1.428-1.448 1.428-.82 0-1.448-.619-1.448-1.428 0-.81.627-1.43 1.448-1.43zm-19.31 3.81H3.414c-.29 0-.483-.19-.483-.476 0-.285.193-.476.483-.476h1.93c.29 0 .484.19.484.476s-.194.477-.483.477zm3.862-.952H7.276c-.29 0-.483.19-.483.476s.193.477.483.477h1.93c.29 0 .484-.191.484-.477 0-.285-.193-.476-.483-.476zm1.931.953c-.29 0-.483-.191-.483-.477 0-.285.193-.476.483-.476h1.931c.29 0 .483.19.483.476s-.193.477-.483.477h-1.931zm3.862 0h1.931c.29 0 .483-.191.483-.477 0-.285-.193-.476-.483-.476H15c-.29 0-.483.19-.483.476s.193.477.483.477zm-3.862-1.905H3.414c-.29 0-.483-.19-.483-.476s.193-.477.483-.477h7.724c.29 0 .483.19.483.476s-.193.477-.483.477z" fill="#84A5F1"/><path d="M1.966 9.571v-.35h-.35v.35h.35zm26.069 0h.35v-.35h-.35v.35zM1.965 8.62h-.35v.35h.35v-.35zm26.07 0v.35h.35v-.35h-.35zM1.965 5.762v-.35h-.35v.35h.35zm26.07 0h.35v-.35h-.35v.35zm-26.07-.953h-.35v.35h.35v-.35zm26.07 0v.35h.35v-.35h-.35zM3.414 1.35h23.172v-.7H3.414v.7zM1.35 3.381c0-1.136.9-2.031 2.064-2.031v-.7C1.874.65.65 1.85.65 3.381h.7zm0 15.238V3.381h-.7v15.238h.7zm2.064 2.031c-1.163 0-2.064-.895-2.064-2.031h-.7c0 1.531 1.223 2.731 2.764 2.731v-.7zm23.172 0H3.414v.7h23.172v-.7zm2.064-2.031c0 1.136-.9 2.031-2.064 2.031v.7c1.54 0 2.764-1.2 2.764-2.731h-.7zm0-15.238v15.238h.7V3.381h-.7zM26.586 1.35c1.163 0 2.064.895 2.064 2.031h.7C29.35 1.85 28.127.65 26.586.65v.7zm0 19.048c1.01 0 1.799-.772 1.799-1.779h-.7c0 .612-.467 1.079-1.099 1.079v.7zm-23.172 0h23.172v-.7H3.414v.7zm-1.798-1.779c0 1.007.788 1.779 1.798 1.779v-.7c-.632 0-1.098-.467-1.098-1.079h-.7zm0-9.048v9.048h.7V9.571h-.7zm26.419-.35H1.965v.7h26.07v-.7zm.35 9.398V9.571h-.7v9.048h.7zm-26.42-9.65h26.07v-.7H1.965v.7zm-.35-3.207v2.857h.7V5.762h-.7zm26.42-.35H1.965v.7h26.07v-.7zm.35 3.207V5.762h-.7v2.857h.7zm-26.42-3.46h26.07v-.7H1.965v.7zm-.35-1.778v1.428h.7V3.381h-.7zm1.799-1.779c-1.01 0-1.798.772-1.798 1.779h.7c0-.612.466-1.079 1.098-1.079v-.7zm23.172 0H3.414v.7h23.172v-.7zm1.799 1.779c0-1.007-.79-1.779-1.799-1.779v.7c.632 0 1.099.467 1.099 1.079h.7zm0 1.428V3.381h-.7v1.428h.7zm-1.666 10c0 1.136-.9 2.031-2.064 2.031v.7c1.54 0 2.764-1.2 2.764-2.73h-.7zm-2.064-2.03c1.163 0 2.064.895 2.064 2.03h.7c0-1.53-1.223-2.73-2.764-2.73v.7zm-2.064 2.03c0-1.135.901-2.03 2.064-2.03v-.7c-1.54 0-2.764 1.2-2.764 2.73h.7zm2.064 2.031c-1.163 0-2.064-.895-2.064-2.03h-.7c0 1.53 1.224 2.73 2.764 2.73v-.7zm1.798-2.03c0-1.008-.788-1.78-1.798-1.78v.7c.632 0 1.098.468 1.098 1.08h.7zm-1.798 1.778c1.01 0 1.798-.771 1.798-1.779h-.7c0 .612-.466 1.08-1.098 1.08v.7zm-1.798-1.779c0 1.008.789 1.78 1.798 1.78v-.7c-.632 0-1.098-.468-1.098-1.08h-.7zm1.798-1.778c-1.01 0-1.798.771-1.798 1.778h.7c0-.611.466-1.078 1.098-1.078v-.7zM3.414 17.54h1.93v-.7h-1.93v.7zm-.833-.827c0 .224.077.437.237.595.16.157.373.232.596.232v-.7c-.067 0-.095-.021-.104-.03-.01-.01-.029-.035-.029-.097h-.7zm.833-.826a.836.836 0 00-.596.232.822.822 0 00-.237.594h.7c0-.062.02-.087.029-.096.01-.01.037-.03.104-.03v-.7zm1.93 0h-1.93v.7h1.93v-.7zm.834.826a.822.822 0 00-.237-.594.836.836 0 00-.596-.232v.7c.067 0 .094.02.104.03.01.01.029.034.029.096h.7zm-.833.827a.836.836 0 00.596-.232.822.822 0 00.237-.595h-.7c0 .062-.02.087-.029.096-.01.01-.037.03-.104.03v.7zm1.93-.953h1.932v-.7H7.276v.7zm-.132.126c0-.062.02-.087.029-.096.01-.01.037-.03.104-.03v-.7a.836.836 0 00-.596.232.822.822 0 00-.237.594h.7zm.133.127c-.067 0-.095-.021-.104-.03-.01-.01-.029-.035-.029-.097h-.7c0 .224.077.437.237.595.16.157.373.232.596.232v-.7zm1.93 0h-1.93v.7h1.93v-.7zm.134-.127c0 .062-.02.087-.029.096-.01.01-.037.03-.104.03v.7a.836.836 0 00.596-.231.822.822 0 00.237-.595h-.7zm-.133-.126c.067 0 .094.02.104.03.01.01.029.034.029.096h.7a.822.822 0 00-.237-.594.836.836 0 00-.596-.232v.7zm1.098.126c0 .224.078.437.237.595.16.157.373.232.596.232v-.7c-.067 0-.095-.021-.104-.03-.01-.01-.029-.035-.029-.097h-.7zm.833-.826a.836.836 0 00-.596.232.822.822 0 00-.237.594h.7c0-.062.02-.087.029-.096.01-.01.037-.03.104-.03v-.7zm1.931 0h-1.931v.7h1.931v-.7zm.833.826a.822.822 0 00-.237-.594.836.836 0 00-.596-.232v.7c.067 0 .095.02.104.03.01.01.029.034.029.096h.7zm-.833.827a.836.836 0 00.596-.232.822.822 0 00.237-.595h-.7c0 .062-.02.087-.029.096-.01.01-.037.03-.104.03v.7zm-1.931 0h1.931v-.7h-1.931v.7zm5.793-.7H15v.7h1.931v-.7zm.133-.127c0 .062-.02.087-.029.096-.01.01-.037.03-.104.03v.7a.835.835 0 00.596-.231.822.822 0 00.237-.595h-.7zm-.133-.126c.067 0 .095.02.104.03.01.01.029.034.029.096h.7a.822.822 0 00-.237-.594.835.835 0 00-.596-.232v.7zm-1.931 0h1.931v-.7H15v.7zm-.133.126c0-.062.02-.087.029-.096.01-.01.037-.03.104-.03v-.7a.836.836 0 00-.596.232.822.822 0 00-.237.594h.7zm.133.127c-.067 0-.095-.021-.104-.03-.01-.01-.029-.035-.029-.097h-.7c0 .224.078.437.237.595.16.157.373.232.596.232v-.7zM3.414 15.635h7.724v-.7H3.414v.7zm-.833-.826c0 .223.077.436.237.594.16.157.373.232.596.232v-.7c-.067 0-.095-.02-.104-.03-.01-.01-.029-.035-.029-.097h-.7zm.833-.827a.835.835 0 00-.596.232.822.822 0 00-.237.595h.7c0-.062.02-.087.029-.097.01-.01.037-.03.104-.03v-.7zm7.724 0H3.414v.7h7.724v-.7zm.833.826a.822.822 0 00-.237-.594.835.835 0 00-.596-.232v.7c.067 0 .094.02.104.03.01.01.029.035.029.097h.7zm-.833.827a.836.836 0 00.596-.232.822.822 0 00.237-.595h-.7c0 .062-.02.087-.029.097-.01.01-.037.03-.104.03v.7z" fill="#84A5F1"/></svg>