<svg width="30" height="30" viewBox="0 0 30 30" fill="none" xmlns="http://www.w3.org/2000/svg"><path fill-rule="evenodd" clip-rule="evenodd" d="M25.78 14.78a.545.545 0 01-.327-.108l-.39-.291v4.904c.346.112.67.31.935.593a2.2 2.2 0 01.596 1.645 2.198 2.198 0 01-.782 1.566l-5.915 5.006a3.829 3.829 0 01-2.47.905h-7.81a.546.546 0 01-.181-.031l-2.544-.896c-.08.524-.533.927-1.08.927H2.095C1.49 29 1 28.51 1 27.906v-8.093c0-.604.49-1.094 1.094-1.094h2.844V14.38l-.391.29a.547.547 0 01-.714-.052L1.16 11.94a.546.546 0 01.06-.825L6.632 7.09a.547.547 0 11.653.878L2.38 11.615l1.892 1.897 10.4-7.736a.547.547 0 01.653 0l10.4 7.736 1.893-1.897L15 2.23l-4.462 3.319a.547.547 0 11-.653-.878l4.789-3.562a.547.547 0 01.652 0l6.127 4.557v-2.04c0-.302.245-.547.547-.547h3.5c.302 0 .547.245.547.547v5.457l2.733 2.033a.547.547 0 01.06.825l-2.673 2.68a.546.546 0 01-.388.16zm-3.233-8.301l2.406 1.79V4.172h-2.406v2.307zM2.094 19.813v8.093h3.719v-8.094H4.5v4.047a.547.547 0 01-1.094 0v-4.047H2.094zm23.408 1.647a1.125 1.125 0 00-1.846-.926l-4.354 3.66a.547.547 0 01-.704-.838l4.354-3.659a2.208 2.208 0 011.017-.482v-5.647L15 6.896l-8.969 6.672v5.173c.464.094.822.483.87.962h4.017c.757 0 1.49.222 2.121.642l3.659 2.44c.413.275.69.697.776 1.186a1.808 1.808 0 01-2.558 1.947l-3.13-1.495a.547.547 0 11.472-.986l3.13 1.495a.714.714 0 00.703-1.238l-3.659-2.439c-.45-.3-.973-.458-1.514-.458H6.906v6.121l2.805.988h7.715c.645 0 1.272-.23 1.764-.646l5.915-5.006c.238-.201.379-.483.397-.794zM8.633 5.736a.55.55 0 01.547.547.551.551 0 01-.547.547.552.552 0 01-.387-.16.55.55 0 010-.774.551.551 0 01.387-.16zm8.458 5.832a.547.547 0 00-.745.207l-3.639 6.447a.547.547 0 10.952.537l3.64-6.446a.547.547 0 00-.208-.745zm-1.542 5.997c0-1.025.835-1.86 1.86-1.86 1.025 0 1.86.835 1.86 1.86 0 1.025-.835 1.86-1.86 1.86a1.861 1.861 0 01-1.86-1.86zm1.094 0a.766.766 0 101.533-.002.766.766 0 00-1.533.002zm-4.046-7.158c-1.026 0-1.86.834-1.86 1.86 0 1.024.834 1.859 1.86 1.859 1.025 0 1.86-.835 1.86-1.86 0-1.025-.835-1.86-1.86-1.86zm0 2.625a.766.766 0 11.001-1.533.766.766 0 01-.001 1.533zM3.98 25.472a.55.55 0 01.547.547.551.551 0 01-.547.547.551.551 0 01-.546-.546.549.549 0 01.546-.547z" fill="#84A5F1"/><path d="M25.453 14.672l.18-.241-.18.24zm-.39-.291l.179-.24-.48-.357v.597h.3zm0 4.904h-.3v.219l.207.067.093-.286zm.935.593l.218-.205-.218.205zm.596 1.645l-.3-.017.3.017zm-.782 1.566l.194.229-.194-.23zm-5.915 5.006l-.194-.229.194.229zm-10.461.874l.1-.283-.1.283zm-2.544-.896l.1-.283-.341-.12-.055.357.296.046zm-1.954-9.354v.3h.3v-.3h-.3zm0-4.338h.3v-.597l-.48.356.18.241zm-.391.29l.179.241-.18-.24zm-.714-.052l-.212.212.212-.212zM1.16 11.94l.212-.212-.212.212zM1 11.514l.3.022-.3-.022zm.22-.399l.178.24-.179-.24zM6.63 7.09l.18.24-.18-.24zm.766.112l-.24.18.24-.18zm-.112.766l.179.24-.18-.24zM2.38 11.615l-.18-.24-.278.207.245.245.213-.212zm1.892 1.897l-.212.212.183.183.208-.154-.179-.241zm10.4-7.736l.18.24-.18-.24zm.653 0l-.179.24.18-.24zm10.4 7.736l-.178.24.208.155.183-.183-.212-.212zm1.893-1.897l.213.212.245-.245-.279-.207-.179.24zM15 2.23l.18-.241-.18-.133-.179.133.179.24zm-4.462 3.319l-.18-.24.18.24zm-.766-.113l.241-.179-.24.18zm.113-.765l.179.24-.18-.24zm4.789-3.562l.179.24-.18-.24zm.652 0l-.179.24.18-.24zm6.127 4.557l-.179.241.48.357v-.598h-.3zm4.594 3.417h-.3v.151l.12.09.18-.24zm2.733 2.033l-.18.24.18-.24zm.219.399l.299-.022-.3.022zm-.159.426l-.212-.212.212.212zm-2.673 2.68l-.213-.213.213.212zM24.953 8.27l-.179.24.48.357V8.27h-.3zm-2.406-1.79h-.3v.15l.12.09.18-.24zm2.406-2.307h.3v-.3h-.3v.3zm-2.406 0v-.3h-.3v.3h.3zM2.094 27.906h-.3v.3h.3v-.3zm0-8.093v-.3h-.3v.3h.3zm3.72 8.093v.3h.3v-.3h-.3zm0-.587h.3l-.001-.007-.3.006zm0-.002l.299-.007-.3.007zm0-.036l.299.014v-.014h-.3zm-.001-7.03h-.3.3zm0-.439h.3v-.3h-.3v.3zm-1.313 0v-.3h-.3v.3h.3zm-1.094 0h.3v-.3h-.3v.3zm21.794.814l-.22.205.22-.205zm.302.834l.3.017-.3-.017zm-1.847-.926l-.193-.23.193.23zm-4.353 3.66l.193.23-.193-.23zm-.77-.067l-.23.193.23-.193zm.066-.77l.193.23-.193-.23zm4.354-3.66l-.193-.23.193.23zm1.017-.482v-.3h-.028l-.027.006.055.294zm0 0v.3h.3v-.3h-.3zm0-5.647h.3v-.151l-.121-.09-.18.24zM15 6.896l.18-.24-.18-.134-.179.133.18.241zm-8.969 6.672l-.179-.241-.12.09v.15h.3zm0 5.173h-.3v.245l.24.049.06-.294zm.87.962l-.299.03.027.27h.272v-.3zm6.138.642l.167-.25-.167.25zm3.659 2.44l.166-.25-.166.25zm.776 1.186l.296-.052-.296.052zm-.319 1.382l.242.177-.242-.177zm-2.239.566l.13-.271-.13.27zm-3.13-1.495l.13-.271-.13.27zm-.257-.73l.27.13-.27-.13zm.729-.257l.13-.271-.13.27zm3.13 1.495l.13-.271h-.001l-.13.27zm.883-.223l.243.176-.243-.177zm.127-.546l-.296.052.296-.052zm-.307-.469l.166-.25-.166.25zm-3.659-2.439l-.166.25.166-.25zm-5.526-.458v-.3h-.3v.3h.3zm0 6.121h-.3v.213l.2.07.1-.283zm2.805.988l-.1.283.048.017h.052v-.3zm9.479-.646l-.194-.229.194.23zm5.915-5.006l-.193-.23.194.23zM9.02 5.896l-.212.212.212-.212zm0 .773l.211.213h.001l-.212-.213zm-.774 0l-.212.213.212-.213zm0-.773l.212.212-.212-.212zm8.1 5.88l.262.147-.262-.148zm.745-.208l-.147.261.147-.261zm-4.384 6.654l.261.147-.261-.147zm.207.745l-.147.261.147-.261zm.745-.207l-.26-.148.26.148zm3.64-6.447l-.262-.147.262.147zM4.367 25.633l-.212.212.212-.212zm0 .773l-.212-.212.212.212zm-.773 0l.212-.212-.212.212zm0-.773l.211.213.001-.001-.212-.212zm21.68-10.72a.847.847 0 00.505.167v-.6a.246.246 0 01-.147-.049l-.358.481zm-.39-.291l.39.29.358-.481-.39-.29-.358.48zm.479 4.663v-4.904h-.6v4.904h.6zm.853.388A2.509 2.509 0 0025.155 19l-.185.57c.3.097.58.268.809.513l.437-.41zm.677 1.868c.04-.695-.2-1.36-.677-1.868l-.437.41a1.9 1.9 0 01.515 1.423l.6.035zm-.887 1.777a2.5 2.5 0 00.887-1.777l-.599-.035c-.03.53-.27 1.01-.676 1.354l.388.458zm-5.916 5.006l5.916-5.006-.388-.458-5.915 5.006.387.458zm-2.664.976a4.13 4.13 0 002.664-.976l-.387-.458a3.528 3.528 0 01-2.277.834v.6zm-7.809 0h7.81v-.6h-7.81v.6zm-.281-.048c.09.032.185.048.281.048v-.6a.246.246 0 01-.082-.014l-.2.566zm-2.544-.896l2.544.896.2-.566-2.544-.896-.2.566zm-.98.944c.698 0 1.274-.514 1.377-1.181l-.593-.092a.794.794 0 01-.783.673v.6zm-3.718 0h3.719v-.6h-3.72v.6zM.7 27.906c0 .769.625 1.394 1.394 1.394v-.6a.795.795 0 01-.794-.794H.7zm0-8.093v8.093h.6v-8.093H.7zm1.394-1.394c-.769 0-1.394.625-1.394 1.393h.6c0-.437.356-.793.794-.793v-.6zm2.844 0H2.094v.6h2.844v-.6zm-.3-4.038v4.338h.6V14.38h-.6zm.088.531l.39-.29-.358-.482-.39.291.358.481zm-1.105-.08a.847.847 0 001.105.08l-.358-.481a.247.247 0 01-.322-.024l-.425.424zm-2.674-2.68l2.674 2.68.425-.425-2.674-2.679-.425.424zm-.245-.66a.847.847 0 00.245.66l.425-.424a.247.247 0 01-.071-.192l-.599-.044zm.34-.618a.847.847 0 00-.34.618l.599.044a.247.247 0 01.099-.18l-.359-.482zm5.41-4.025l-5.41 4.025.358.482L6.81 7.33l-.358-.482zm1.186.174a.847.847 0 00-1.185-.174l.358.482a.247.247 0 01.345.05l.482-.358zm-.174 1.185a.847.847 0 00.174-1.185l-.482.358a.247.247 0 01-.05.346l.358.481zM2.56 11.856l4.904-3.648-.358-.481-4.904 3.648.358.481zM4.486 13.3l-1.893-1.897-.425.424 1.893 1.897.425-.424zm10.009-7.765l-10.4 7.736.357.482 10.4-7.737-.357-.481zm1.01 0a.847.847 0 00-1.01 0l.358.481a.247.247 0 01.294 0l.358-.48zm10.4 7.736l-10.4-7.736-.358.481 10.4 7.737.359-.482zm1.502-1.868L25.514 13.3l.425.424 1.893-1.897-.425-.424zM14.821 2.47l12.62 9.387.357-.481L15.18 1.988l-.358.481zm-4.104 3.32l4.462-3.32-.358-.481-4.462 3.32.358.48zm-1.185-.175a.846.846 0 001.185.174l-.358-.48a.247.247 0 01-.346-.052l-.481.358zm.174-1.184a.847.847 0 00-.174 1.185l.481-.359a.247.247 0 01.05-.345l-.357-.481zM14.495.867L9.704 4.43l.359.481 4.789-3.562-.358-.482zm1.01 0a.847.847 0 00-1.01 0l.358.482a.247.247 0 01.294 0l.358-.482zm6.127 4.558L15.505.867l-.358.482 6.127 4.557.358-.481zm-.479-1.8v2.04h.6v-2.04h-.6zM22 2.778a.847.847 0 00-.847.847h.6c0-.136.11-.247.247-.247v-.6zm3.5 0H22v.6h3.5v-.6zm.847.847a.847.847 0 00-.847-.847v.6c.136 0 .247.11.247.247h.6zm0 5.457V3.625h-.6v5.457h.6zm2.612 1.792l-2.733-2.032-.358.481 2.733 2.033.358-.482zm.339.618a.847.847 0 00-.34-.618l-.357.482a.247.247 0 01.098.18l.599-.044zm-.245.66a.847.847 0 00.245-.66l-.599.044a.246.246 0 01-.071.192l.425.424zm-2.674 2.68l2.674-2.68-.425-.424-2.674 2.68.425.423zm-.6.248a.846.846 0 00.6-.249l-.425-.424a.246.246 0 01-.175.073v.6zm-.647-7.052l-2.406-1.79-.358.482 2.406 1.79.358-.482zm-.479-3.856v4.097h.6V4.172h-.6zm-2.106.3h2.406v-.6h-2.406v.6zm.3 2.007V4.172h-.6v2.307h.6zM2.394 27.906v-8.093h-.6v8.093h.6zm3.419-.3h-3.72v.6h3.72v-.6zm0 0v.6-.6zm-.3-.287v.587h.6v-.587h-.6zm0 .004v.002l.6-.013v-.002l-.6.013zm0-.056v.056l.6-.013v-.015l-.6-.029zm0-7.016v7.03h.6v-7.03h-.6zm0-.001h.6-.6zm0 0h.6-.6zm0-.438v.437h.6v-.436h-.6zm-1.013.3h1.313v-.6H4.5v.6zm.3 3.747v-4.047h-.6v4.047h.6zm-.847.847a.847.847 0 00.847-.847h-.6c0 .137-.11.247-.247.247v.6zm-.847-.847c0 .468.38.847.847.847v-.6a.247.247 0 01-.247-.247h-.6zm0-4.047v4.047h.6v-4.047h-.6zm-1.012.3h1.312v-.6H2.094v.6zm22.887.72a.815.815 0 01.221.61l.6.035a1.415 1.415 0 00-.384-1.056l-.437.41zm-1.133-.068a.825.825 0 011.133.067l.437-.41a1.425 1.425 0 00-1.956-.116l.386.459zm-4.353 3.66l4.353-3.66-.386-.46-4.353 3.66.386.46zm-1.193-.104a.847.847 0 001.193.103l-.386-.459a.247.247 0 01-.348-.03l-.46.386zm.103-1.193a.847.847 0 00-.103 1.193l.46-.386a.247.247 0 01.03-.348l-.387-.46zm4.354-3.66l-4.354 3.66.386.46 4.354-3.66-.386-.46zm1.154-.546a2.509 2.509 0 00-1.154.547l.386.459a1.91 1.91 0 01.879-.417l-.11-.59zm.056-.005v.6-.6zm-.3-5.348v5.647h.6v-5.647h-.6zM14.82 7.137l8.969 6.671.358-.481-8.969-6.672-.358.482zm-8.61 6.671l8.968-6.671-.358-.482-8.969 6.672.358.481zm.12 4.933v-5.173h-.6v5.173h.6zm.868.932a1.396 1.396 0 00-1.108-1.226l-.12.588a.796.796 0 01.631.698l.597-.06zm3.719-.27H6.9v.6h4.017v-.6zm2.288.693a4.112 4.112 0 00-2.288-.693v.6c.698 0 1.374.205 1.955.592l.333-.5zm3.658 2.439l-3.659-2.44-.332.5 3.658 2.439.333-.5zm.906 1.384a2.091 2.091 0 00-.906-1.384l-.333.499c.346.23.575.58.648.99l.59-.105zm-.373 1.611a2.092 2.092 0 00.373-1.611l-.591.105c.073.409-.021.817-.266 1.152l.484.354zm-1.703.865c.655 0 1.296-.306 1.703-.865l-.484-.354c-.292.4-.75.62-1.22.62v.6zm-.907-.206c.29.14.6.206.907.206v-.6c-.219 0-.44-.048-.648-.147l-.26.541zm-3.13-1.495l3.13 1.495.259-.541-3.13-1.495-.259.541zm-.4-1.129a.847.847 0 00.4 1.13l.259-.542a.247.247 0 01-.117-.33l-.541-.258zm1.13-.4a.847.847 0 00-1.13.4l.542.259a.247.247 0 01.33-.117l.258-.541zm3.13 1.496l-3.13-1.495-.258.541 3.13 1.495.258-.541zm.512-.13a.413.413 0 01-.512.13l-.259.541c.44.21.968.077 1.256-.317l-.485-.353zm.073-.316a.407.407 0 01-.073.317l.485.353c.164-.224.228-.5.179-.775l-.59.105zm-.178-.271a.407.407 0 01.178.271l.59-.105a1.007 1.007 0 00-.435-.665l-.333.499zm-3.658-2.439l3.659 2.44.332-.5-3.658-2.44-.333.5zm-1.348-.408c.482 0 .947.14 1.348.408l.333-.5a3.021 3.021 0 00-1.681-.508v.6zm-4.012 0h4.012v-.6H6.906v.6zm.3 5.821v-6.121h-.6v6.121h.6zm2.604.705l-2.804-.988-.2.566 2.805.988.2-.566zm7.616-.017H9.711v.6h7.715v-.6zm1.57-.575c-.438.37-.996.575-1.57.575v.6c.716 0 1.411-.254 1.958-.717l-.388-.458zm5.916-5.006l-5.916 5.006.388.458 5.915-5.006-.387-.458zm.29-.582a.815.815 0 01-.29.582l.387.458c.3-.254.48-.613.502-1.006l-.599-.034zM9.232 5.684a.85.85 0 00-.599-.248v.6a.25.25 0 01.175.072l.424-.424zm.248.599a.85.85 0 00-.248-.599l-.424.424a.25.25 0 01.072.175h.6zm-.248.599a.851.851 0 00.248-.6h-.6a.251.251 0 01-.072.175l.424.425zm-.599.248c.224 0 .44-.09.598-.248l-.423-.425a.252.252 0 01-.175.073v.6zm-.598-.248a.852.852 0 00.598.248v-.6a.252.252 0 01-.175-.073l-.423.425zm-.249-.6c0 .224.09.441.248.6l.424-.425a.25.25 0 01-.072-.174h-.6zm.248-.598a.85.85 0 00-.248.599h.6a.25.25 0 01.072-.175l-.424-.424zm.6-.248a.851.851 0 00-.6.248l.424.424a.251.251 0 01.175-.072v-.6zm7.974 6.487a.247.247 0 01.336-.094l.295-.522a.847.847 0 00-1.154.321l.523.295zm-3.64 6.446l3.64-6.446-.523-.295-3.64 6.446.523.295zm.094.337a.247.247 0 01-.094-.337l-.522-.295a.847.847 0 00.32 1.154l.296-.522zm.12.032a.244.244 0 01-.12-.032l-.295.522c.131.074.274.11.416.11v-.6zm.216-.126a.247.247 0 01-.215.126v.6a.847.847 0 00.738-.431l-.523-.295zm3.64-6.446l-3.64 6.446.523.295 3.639-6.446-.523-.295zm-.094-.337c.119.067.16.218.093.337l.523.295a.847.847 0 00-.321-1.154l-.295.522zm.465 3.577c-1.191 0-2.16.968-2.16 2.16h.6c0-.86.7-1.56 1.56-1.56v-.6zm2.16 2.16c0-1.192-.97-2.16-2.16-2.16v.6c.86 0 1.56.7 1.56 1.56h.6zm-2.16 2.159c1.19 0 2.16-.969 2.16-2.16h-.6c0 .86-.7 1.56-1.56 1.56v.6zm-2.16-2.16c0 1.191.969 2.16 2.16 2.16v-.6c-.86 0-1.56-.7-1.56-1.56h-.6zm2.16.466a.467.467 0 01-.466-.466h-.6c0 .588.478 1.066 1.066 1.066v-.6zm.466-.466c0 .257-.21.466-.466.466v.6c.588 0 1.066-.478 1.066-1.066h-.6zm-.466-.465c.256 0 .466.209.466.465h.6c0-.588-.478-1.065-1.066-1.065v.6zm-.466.465c0-.256.21-.465.466-.465v-.6c-.588 0-1.066.477-1.066 1.065h.6zm-5.906-5.299c0-.86.7-1.56 1.56-1.56v-.6c-1.191 0-2.16.97-2.16 2.16h.6zm1.56 1.56c-.86 0-1.56-.7-1.56-1.56h-.6c0 1.191.969 2.16 2.16 2.16v-.6zm1.56-1.56c0 .86-.7 1.56-1.56 1.56v.6c1.19 0 2.16-.969 2.16-2.16h-.6zm-1.56-1.56c.86 0 1.56.7 1.56 1.56h.6c0-1.19-.97-2.16-2.16-2.16v.6zm-1.066 1.56c0 .588.478 1.066 1.066 1.066v-.6a.467.467 0 01-.466-.466h-.6zm1.066-1.065c-.588 0-1.066.477-1.066 1.065h.6c0-.256.21-.465.466-.465v-.6zm1.065 1.065c0-.588-.477-1.065-1.065-1.065v.6c.256 0 .465.209.465.465h.6zm-1.065 1.066c.588 0 1.065-.478 1.065-1.066h-.6a.466.466 0 01-.465.466v.6zM4.579 25.42a.85.85 0 00-.599-.248v.6a.25.25 0 01.175.072l.424-.424zm.248.599a.85.85 0 00-.248-.6l-.424.425a.25.25 0 01.072.175h.6zm-.248.598a.851.851 0 00.248-.598h-.6a.25.25 0 01-.072.174l.424.424zm-.599.248a.85.85 0 00.6-.248l-.425-.424a.25.25 0 01-.175.072v.6zm-.598-.248a.851.851 0 00.598.248v-.6a.25.25 0 01-.174-.072l-.424.424zm-.248-.598c0 .222.089.44.248.599l.423-.425a.249.249 0 01-.071-.174h-.6zm.248-.6a.849.849 0 00-.248.6h.6c0-.065.026-.13.071-.174l-.423-.426zm.598-.247a.85.85 0 00-.598.248l.424.424a.251.251 0 01.174-.072v-.6z" fill="#84A5F1"/></svg>