<svg width="35" height="34" viewBox="0 0 35 34" fill="none" xmlns="http://www.w3.org/2000/svg"><path fill-rule="evenodd" clip-rule="evenodd" d="M33.245.457A.547.547 0 0134 .97v9.952a.552.552 0 01-.44.541l-2.75.553a.55.55 0 01-.632-.367l-.425-1.28h-2.059c-.43.549-1.14.796-1.816.633a1.782 1.782 0 01-2.2 1.659 1.78 1.78 0 01-2.2 1.659c-.011.25-.075.496-.186.72a1.775 1.775 0 01-2.388.8l-.693-.348a1.762 1.762 0 01-2.934-.652 1.758 1.758 0 01-2.2-1.105 1.758 1.758 0 01-2.2-1.106 1.78 1.78 0 01-.529.084 1.77 1.77 0 01-1.529-.885l-3.625-1.301-.372 1.122a.55.55 0 01-.632.367l-2.75-.553a.552.552 0 01-.44-.541V.97a.55.55 0 01.755-.514L7.08 2.599l7.518-2.16a.547.547 0 01.326.007l2.264.76L18.31.5a.547.547 0 01.495-.044l5.401 2.172h3.638L33.245.457zM4.328 9.641l.82-2.472L6.364 3.5 2.1 1.787v8.681l1.832.368.396-1.195zm6.63 1.586l.55-1.105a.685.685 0 00-.304-.917.678.678 0 00-.912.305l-.55 1.106a.68.68 0 101.215.611zm2.2 1.106l.55-1.106a.685.685 0 00-.304-.916.678.678 0 00-.912.305l-.55 1.106a.68.68 0 101.215.611zm2.2 1.106l.55-1.106a.685.685 0 00-.304-.917.678.678 0 00-.912.306l-.55 1.105a.685.685 0 00.304.917.678.678 0 00.912-.305zm2.2 1.105l.55-1.105a.685.685 0 00-.304-.917.678.678 0 00-.912.305l-.55 1.106a.685.685 0 00.304.917.678.678 0 00.912-.306zm1.837.306a.678.678 0 00.912-.306h-.002a.685.685 0 00-.301-.916l-.73-.367a1.79 1.79 0 01-.182.672l-.304.611.607.306zm7.12-4.94a.674.674 0 00.463-.599.714.714 0 00-.025-.194.643.643 0 00-.038-.119.667.667 0 00-.1-.177.674.674 0 00-.211-.166l-7.51-3.777-2.852.82a1.673 1.673 0 01-1.883-.728 1.69 1.69 0 01.533-2.322l1.09-.683-1.242-.417-7.26 2.085-1.938 5.844L8.61 10.58c.028-.159.077-.313.147-.457l.55-1.106a1.775 1.775 0 013.265.2c.91-.29 1.884.2 2.2 1.106a1.76 1.76 0 011.323.105l5.5 2.764c.328.155.72.024.89-.298a.685.685 0 00-.282-.924l-4.4-2.211a.554.554 0 01-.246-.742.549.549 0 01.738-.248l5.5 2.764c.328.156.72.025.89-.297a.685.685 0 00-.282-.924l-4.4-2.212a.555.555 0 01-.247-.742.549.549 0 01.738-.247l5.5 2.764a.668.668 0 00.52.037zm1.55-.827c.009.06.013.12.015.18h1.306l-1.833-5.529H24.1a.553.553 0 01-.205-.039l-5.24-2.107-3.18 1.996a.581.581 0 00-.251.657c.09.308.41.484.716.393l3.058-.878a.547.547 0 01.397.036l7.7 3.87c.107.055.209.119.303.193.01.007.018.016.026.024l.022.022a1.751 1.751 0 01.215.213l.01.014a1.8 1.8 0 01.317.57 1.79 1.79 0 01.078.385zm3.002 1.753l1.833-.368V1.787L28.635 3.5l1.216 3.668.82 2.472.396 1.195zm.732 12.248h1.65c.304 0 .55.248.55.553v9.952h-1.1V24.19H2.1v9.399H1v-9.952c0-.305.246-.553.55-.553H3.2v-1.658c0-.305.246-.553.55-.553h3.3c.304 0 .55.247.55.553v1.658h3.3V21.98c.002-2.137 1.724-3.868 3.85-3.87h5.5c2.125.002 3.847 1.733 3.85 3.87v1.105h3.3v-1.658c0-.305.246-.553.55-.553h3.3c.303 0 .55.247.55.553v1.658zm-27.5 0h2.2V21.98H4.3v1.105zm9.9 0h6.6V21.98a.552.552 0 00-.55-.553h-5.5a.551.551 0 00-.55.553v1.105zm7.7 0H23V21.98a2.76 2.76 0 00-2.75-2.765h-5.5A2.76 2.76 0 0012 21.98v1.105h1.1V21.98c0-.916.74-1.659 1.65-1.659h5.5c.912 0 1.65.743 1.65 1.659v1.105zm6.6 0h2.2V21.98h-2.2v1.105z" fill="#84A5F1"/><path d="M33.758.512l.197-.289-.197.29zm-.513-.055l.13.325-.13-.325zM34 .97h-.35.35zm0 9.952h-.35.35zm-.44.541l.068.344h.002l-.07-.344zm-2.75.553l-.07-.343h-.002l.072.343zm-.11.011l.002-.35H30.7v.35zm-.522-.378l.332-.11-.332.11zm-.425-1.28l.332-.11-.08-.24h-.252v.35zm-2.059 0v-.35h-.17l-.105.134.275.216zm-1.816.633l.082-.34-.413-.1-.019.424.35.016zm-.049.34l.34.082-.34-.082zm-2.151 1.319l.083-.34-.414-.101-.019.425.35.016zm-.049.342l.34.082-.34-.082zm-2.151 1.316l.083-.34-.414-.1-.019.425.35.015zm-.186.721l-.314-.156.314.156zm-2.388.8l-.157.313.157-.313zm-.693-.348l.157-.313-.23-.116-.18.186.253.243zm-.69.442l-.114-.33.115.33zm-2.244-1.094l.331-.114-.112-.324-.326.105.107.333zm-2.2-1.105l.331-.115-.112-.324-.326.105.107.334zm-2.2-1.106l.331-.114-.111-.324-.326.104.106.334zm-.529.084v.35h.002l-.002-.35zm-1.529-.885l.303-.175-.064-.111-.12-.043-.119.33zm-3.625-1.301l.118-.33-.337-.12-.113.34.332.11zm-.372 1.122l-.332-.11.332.11zm-.522.378v-.35h-.003l.003.35zm-.11-.01l.072-.343h-.003l-.07.342zm-2.75-.554l-.07.343h.001l.069-.343zM1 10.922h.35H1zM1 .97h.35H1zm.04-.206L.713.634l.325.13zm.715-.307L1.624.78l.13-.324zm5.325 2.14l-.13.325.111.045.116-.033-.097-.336zM14.598.44l.097.336-.097-.336zm.326.006l.11-.331-.11.331zm2.264.76l-.11.331.156.053.14-.088-.186-.296zM18.31.5l.186.297L18.31.5zm.495-.044l.13-.325-.13.325zm5.401 2.172l-.13.324.063.026h.067v-.35zm3.638 0v.35h.068l.063-.026-.13-.324zM5.148 7.169l.332.11-.332-.11zm-.82 2.472l-.332-.11.332.11zm2.036-6.14l.332.11.104-.313-.305-.122-.13.325zM2.1 1.787l.13-.325-.48-.193v.518h.35zm0 8.681h-.35v.287l.281.056.069-.343zm1.832.368l-.069.344.304.06.097-.293-.332-.11zm7.576-.714l-.314-.156.314.156zm-.55 1.105l.313.157-.313-.157zm.246-2.022l-.17.305.006.004.007.004.157-.313zm0 0l.17-.306-.007-.004-.007-.003-.157.313zm-.912.305l.313.156-.313-.156zm-.55 1.106l.313.156-.313-.156zm.304.916l-.158.313h.001l.157-.313zm3.662-.305l-.314-.156.313.156zm-.55 1.106l.313.157v-.001l-.313-.156zm.246-2.022l-.171.305.007.004.006.003.158-.312zm0 0l.17-.306-.006-.004-.008-.003-.157.312zm-.912.305l.313.156-.313-.156zm-.55 1.106l.313.155-.313-.155zm.304.916l-.158.313h.001l.157-.313zm3.662-.305l-.314-.156.314.156zm-.55 1.106l.313.156-.313-.156zm.246-2.023l-.171.306.007.004.007.003.157-.313zm0 0l.17-.305-.007-.004-.007-.004-.157.313zm-.912.306l.313.155-.313-.155zm-.55 1.105l.313.156-.313-.156zm.304.917l-.158.313.158-.313zm3.662-.305l-.314-.156.314.156zm-.55 1.105l.313.156-.313-.156zm.246-2.022l-.17.306.006.003.006.004.158-.313zm0 0l.17-.306-.007-.004-.007-.003-.157.313zm-.912.305l.313.156-.313-.156zm-.55 1.106l.313.156-.313-.156zm.304.917l-.158.312.158-.312zm3.661-.306l.314.156.252-.506h-.566v.35zm-.912.306l.158-.313-.158.313zm.91-.306l-.313-.156-.254.506h.567v-.35zm-.301-.916l.158-.312-.158.312zm-.73-.367l.157-.313-.47-.237-.036.526.349.024zm-.182.672l.313.156-.313-.156zm-.304.611l-.314-.155-.155.312.312.156.157-.313zm8.12-4.973l.312.157-.313-.157zm-.393.34l-.11-.333-.003.002.113.33zm.463-.6l.349.024v-.02l-.35-.004zm-.025-.194l-.342.073.002.01.002.008.338-.091zm-.038-.119l-.328.124.003.007.004.008.321-.139zm-.1-.177l.275-.217-.008-.01-.267.227zm-.211-.166l-.158.313.158-.313zm-7.51-3.777l.158-.313-.122-.061-.132.037.097.337zm-2.852.82l.096.336-.096-.336zm-1.883-.728l-.297.185.297-.185zm.533-2.322l-.186-.297.186.297zm1.09-.683l.185.296.627-.393-.701-.235-.112.332zm-1.242-.417l.111-.331-.103-.035-.105.03.097.336zM7.48 3.633l-.097-.337-.177.051-.058.176.332.11zM5.542 9.477l-.332-.11-.108.325.322.115.118-.33zM8.61 10.58l-.118.33.39.14.072-.41-.344-.06zm.147-.457l-.314-.156-.002.005.316.15zm.55-1.106l.313.156-.313-.156zm.995-.886l-.117-.33.117.33zm2.27 1.086l-.33.116.112.32.323-.102-.106-.334zm2.2 1.106l-.331.115.112.321.324-.103-.106-.333zm1.323.105l.157-.313-.157.313zm5.5 2.764l-.158.313.008.003.15-.316zm.89-.298l.31.163-.31-.163zm-.282-.924l.165-.309-.008-.004-.157.313zm-4.4-2.211l.157-.313-.157.313zm.492-.99l.157-.313-.157.313zm5.5 2.764l-.158.313.008.004.15-.317zm.89-.297l.31.163-.31-.163zm-.282-.924l.165-.31-.008-.003-.157.313zm-4.4-2.212l.157-.313-.157.313zm-.247-.742l.314.156-.314-.156zm.738-.247l.158-.313-.157.313zm5.5 2.764l.16-.312h-.002l-.158.312zm2.085-.611l-.35.011.011.339h.34v-.35zm-.014-.18h-.35v.024l.003.023.347-.047zm1.32.18v.35h.485l-.153-.46-.332.11zm-1.833-5.529l.332-.11-.08-.24h-.252v.35zm-3.658-.039l-.13.325.13-.325zm-5.24-2.107l.13-.325-.165-.067-.151.095.186.297zm-3.18 1.996l.184.298.002-.002-.186-.296zm-.251.657l-.336.098.336-.098zm.716.393l-.097-.336h-.002l.099.336zm3.058-.878l.097.336-.097-.336zm.397.036l.158-.312-.158.312zm7.7 3.87l.159-.312h-.001l-.158.312zm.303.193l.216-.275-.216.275zm.026.024l-.253.243.253-.243zm.022.022l-.226.267.004.003.222-.27zm.205.198l.264-.23h-.001l-.263.23zm.01.015l.292-.194-.292.194zm.01.014l.271-.223-.006-.007-.264.23zm.317.57l.333-.109-.001-.003-.332.111zm.072.318l-.347.046.003.02.004.018.34-.084zm4.84 1.452l.068.343.281-.056v-.287h-.35zm-1.833.368l-.332.11.098.295.303-.061-.069-.344zm1.833-9.05h.35V1.27l-.481.193.13.325zm-4.265 1.715l-.13-.325-.305.123.103.312.332-.11zM29.85 7.17l-.332.11.332-.11zm.82 2.472l.333-.11-.332.11zm1.13 13.442h-.35v.35h.35v-.35zM34 33.59v.35h.35v-.35H34zm-1.1 0h-.35v.35h.35v-.35zm0-9.399h.35v-.35h-.35v.35zm-30.799 0v-.35h-.35v.35h.35zm0 9.399v.35h.35v-.35H2.1zm-1.1 0H.65v.35H1v-.35zm2.2-10.505v.35h.35v-.35H3.2zm4.4 0h-.35v.35h.35v-.35zm3.3 0v.35h.35v-.35h-.35zm0-1.105h-.35.35zm3.85-3.87v-.35.35zm5.5 0v-.35.35zm3.85 3.87h.35-.35zm0 1.105h-.35v.35h.35v-.35zm3.3 0v.35h.35v-.35h-.35zm-20.9 0v.35h.35v-.35H6.5zm-2.2 0h-.35v.35h.35v-.35zm2.2-1.105h.35v-.35H6.5v.35zm-2.2 0v-.35h-.35v.35h.35zm16.5 1.105v.35h.35v-.35h-.35zm-6.6 0h-.35v.35h.35v-.35zm8.8 0v.35h.35v-.35H23zm-1.1 0h-.35v.35h.35v-.35zM23 21.98h.35H23zm-2.75-2.765v-.35.35zm-5.5 0v-.35.35zM12 21.98h-.35.35zm0 1.105h-.35v.35H12v-.35zm1.1 0v.35h.35v-.35h-.35zm17.6 0v.35h.35v-.35h-.35zm-2.2 0h-.35v.35h.35v-.35zm2.2-1.105h.35v-.35h-.35v.35zm-2.2 0v-.35h-.35v.35h.35zM33.955.223a.897.897 0 00-.841-.09l.262.649a.198.198 0 01.185.02l.394-.579zm.394.747a.903.903 0 00-.394-.747l-.394.579c.055.037.089.1.089.168h.7zm0 9.951V.972h-.7v9.95h.7zm-.72.885a.902.902 0 00.72-.885h-.7c0 .098-.068.18-.16.2l.14.685zm-2.75.553l2.75-.553-.139-.686-2.75.553.139.686zm-.182.018a.864.864 0 00.184-.018l-.143-.685a.172.172 0 01-.036.003l-.005.7zm-.852-.618a.9.9 0 00.855.618v-.7a.2.2 0 01-.19-.138l-.665.22zm-.424-1.28l.424 1.28.665-.22-.425-1.28-.664.22zm-1.727.24h2.059v-.7h-2.059v.7zm-1.898.623c.81.196 1.659-.1 2.174-.757l-.551-.432c-.347.442-.916.64-1.46.509l-.163.68zm.374.082c.032-.133.051-.269.057-.406l-.699-.032a1.444 1.444 0 01-.039.274l.68.164zm-2.575 1.577a2.132 2.132 0 002.575-1.577l-.68-.164a1.432 1.432 0 01-1.73 1.06l-.165.68zm.374.084c.033-.134.052-.27.058-.409l-.699-.03a1.44 1.44 0 01-.039.275l.68.164zm-2.574 1.574a2.13 2.13 0 002.574-1.574l-.68-.164a1.43 1.43 0 01-1.728 1.058l-.166.68zm.21.537a2.15 2.15 0 00.223-.861l-.7-.031c-.009.202-.06.4-.15.58l.627.312zm-2.858.957c1.053.53 2.333.1 2.858-.957l-.627-.312a1.426 1.426 0 01-1.917.644l-.314.625zm-.693-.348l.693.348.314-.625-.693-.349-.314.626zm-.417.46c.313-.11.596-.291.826-.53l-.504-.486c-.154.16-.343.281-.552.354l.23.661zm-2.69-1.31a2.112 2.112 0 002.69 1.31l-.23-.662a1.412 1.412 0 01-1.799-.877l-.662.228zm-2.2-1.107a2.108 2.108 0 002.637 1.325l-.214-.666a1.408 1.408 0 01-1.762-.887l-.662.229zm-2.2-1.105a2.108 2.108 0 002.637 1.325l-.214-.667a1.408 1.408 0 01-1.762-.886l-.662.228zm-.197.32c.215-.002.429-.036.634-.1l-.213-.668c-.138.044-.28.067-.425.068l.004.7zm-1.834-1.06a2.12 2.12 0 001.832 1.06v-.7a1.42 1.42 0 01-1.226-.71l-.606.35zm-3.44-1.147l3.625 1.302.236-.66-3.625-1.3-.236.658zm.078.903l.372-1.122-.664-.22-.372 1.122.664.22zm-.854.618a.9.9 0 00.854-.618l-.664-.22a.2.2 0 01-.19.138v.7zm-.182-.018c.06.012.122.019.185.018l-.006-.7a.171.171 0 01-.035-.003l-.144.685zm-2.747-.553l2.75.553.138-.686-2.75-.553-.138.687zm-.721-.885c0 .428.3.799.72.885l.14-.685a.202.202 0 01-.16-.2h-.7zm0-9.95v9.95h.7V.972h-.7zM.714.633A.905.905 0 00.65.97h.7c0-.026.005-.052.015-.076l-.65-.26zM1.885.132a.9.9 0 00-1.17.502l.65.26A.2.2 0 011.624.78l.261-.65zm5.326 2.141L1.885.132l-.261.65 5.326 2.14.26-.649zM14.5.103L6.985 2.26l.193.673L14.695.775l-.193-.673zm.533.01a.897.897 0 00-.533-.01l.195.672a.197.197 0 01.117.002l.221-.664zm2.266.76l-2.265-.76-.223.664 2.265.76.223-.664zm.823-.668l-1.12.703.371.593 1.121-.703-.372-.593zm.811-.073a.897.897 0 00-.81.073l.372.593a.197.197 0 01.178-.017l.26-.65zm5.402 2.172l-5.4-2.172-.261.65 5.4 2.171.262-.649zm3.507-.025h-3.638v.7h3.638v-.7zM33.114.132l-5.401 2.172.261.65L33.375.781l-.26-.65zM4.816 7.06l-.82 2.472.664.22.82-2.472-.664-.22zm1.216-3.67L4.816 7.06l.664.22 1.216-3.67-.664-.22zM1.969 2.111l4.265 1.714.26-.65-4.263-1.713-.262.65zm.481 8.357V1.787h-.7v8.681h.7zm1.551.025l-1.832-.368-.138.686 1.832.369.138-.687zm-.005-.962L3.6 10.726l.664.22.396-1.195-.664-.22zm7.198.435l-.55 1.105.627.312.55-1.106-.627-.311zm-.147-.448c.162.081.23.282.147.448l.627.312a1.035 1.035 0 00-.46-1.386l-.314.626zm-.014-.008l.342-.61v-.001l-.342.611zm-.428.156a.328.328 0 01.441-.149l.315-.625a1.028 1.028 0 00-1.382.462l.627.312zm-.55 1.106l.55-1.106-.626-.312-.55 1.106.627.312zm.148.448a.335.335 0 01-.147-.448l-.627-.312a1.035 1.035 0 00.46 1.385l.314-.625zm.442-.15a.33.33 0 01-.443.15l-.313.625a1.03 1.03 0 001.382-.461l-.626-.313zm2.75.001l-.55 1.106.626.312.55-1.106-.627-.312zm-.149-.448c.163.082.23.283.148.448l.627.312a1.035 1.035 0 00-.46-1.385l-.315.625zm-.014-.007l.343-.61v-.001l-.343.61zm-.426.156a.328.328 0 01.44-.149l.314-.625a1.028 1.028 0 00-1.381.462l.627.312zm-.55 1.105l.55-1.105-.627-.312-.55 1.106.626.311zm.147.448a.335.335 0 01-.148-.448l-.626-.311a1.035 1.035 0 00.46 1.385l.314-.626zm.441-.149a.33.33 0 01-.442.15l-.313.625a1.03 1.03 0 001.382-.461l-.627-.314zm2.75.001l-.55 1.106.627.312.55-1.106-.627-.312zm-.147-.448c.162.082.23.282.147.448l.627.312a1.035 1.035 0 00-.46-1.385l-.314.625zm-.015-.008l.343-.61-.343.61zm-.427.156a.328.328 0 01.441-.148l.314-.626a1.028 1.028 0 00-1.381.463l.626.311zm-.55 1.106l.55-1.106-.626-.311-.55 1.105.626.312zm.148.448a.335.335 0 01-.148-.448l-.626-.312a1.035 1.035 0 00.46 1.386l.314-.626zm.441-.148a.328.328 0 01-.441.148l-.315.626c.51.256 1.129.048 1.383-.462l-.627-.312zm2.75 0l-.55 1.106.627.311.55-1.105-.627-.312zm-.148-.448c.163.082.23.282.148.448l.627.312a1.035 1.035 0 00-.46-1.386l-.314.626zm-.013-.008l.342-.61h-.001l-.341.61zm-.428.156a.328.328 0 01.441-.149l.314-.625a1.028 1.028 0 00-1.381.462l.626.312zm-.55 1.106l.55-1.106-.626-.312-.55 1.106.626.312zm.148.448a.335.335 0 01-.148-.448l-.626-.312a1.035 1.035 0 00.46 1.385l.314-.625zm.441-.149a.328.328 0 01-.441.149l-.315.625c.51.257 1.129.048 1.383-.462l-.627-.312zm2.75 0a.328.328 0 01-.441.149l-.315.625c.51.257 1.129.048 1.383-.462l-.627-.312zm.31.506h.003v-.7h-.002v.7zm-.459-.954a.335.335 0 01.147.448l.626.313a1.035 1.035 0 00-.456-1.385l-.317.624zm-.728-.367l.73.367.314-.625-.73-.367-.314.625zm.288.515a2.14 2.14 0 00.218-.803l-.698-.048a1.44 1.44 0 01-.147.54l.628.311zm-.304.612l.304-.611-.626-.312-.305.612.627.311zm.452-.163l-.608-.305-.314.625.607.305.315-.625zm7.041-5.122a.324.324 0 01-.188.163l.218.665c.26-.085.474-.27.596-.515l-.626-.313zm.034-.127a.339.339 0 01-.034.128l.627.311a1.05 1.05 0 00.106-.392l-.699-.048zm-.013-.08a.362.362 0 01.013.1l.7.007a1.066 1.066 0 00-.037-.29l-.676.183zm-.021-.071a.284.284 0 01.017.053l.684-.146a.98.98 0 00-.059-.184l-.642.277zm-.054-.1c.02.026.036.054.047.085l.655-.247a1.017 1.017 0 00-.152-.27l-.55.432zm-.093-.07a.34.34 0 01.101.08l.534-.453a1.025 1.025 0 00-.321-.252l-.314.626zm-7.51-3.777l7.51 3.777.314-.625-7.509-3.777-.315.625zm-2.598.844l2.852-.82-.193-.673-2.853.82.194.673zm-2.277-.879a2.023 2.023 0 002.277.879l-.194-.673a1.323 1.323 0 01-1.489-.575l-.594.37zm.644-2.804a2.04 2.04 0 00-.644 2.804l.595-.37a1.34 1.34 0 01.421-1.841l-.372-.593zm1.09-.683l-1.09.683.372.593 1.09-.683-.373-.593zm-1.167.212l1.24.417.224-.664-1.242-.416-.222.663zM7.577 3.97l7.26-2.085-.194-.673-7.26 2.084.194.673zM5.874 9.587l1.938-5.845-.664-.22L5.21 9.367l.664.22zm2.855.661l-3.069-1.1-.236.659 3.069 1.101.236-.659zm-.287-.279a2.127 2.127 0 00-.176.548l.69.122c.022-.127.062-.25.117-.367l-.631-.303zm.552-1.11l-.55 1.106.627.311.55-1.105-.627-.312zm1.192-1.06a2.13 2.13 0 00-1.192 1.06l.627.311a1.43 1.43 0 01.8-.711l-.235-.66zm2.716 1.3a2.125 2.125 0 00-2.716-1.3l.235.66a1.425 1.425 0 011.821.872l.66-.233zm2.2 1.107a2.114 2.114 0 00-2.636-1.325l.212.668c.729-.232 1.51.16 1.764.887l.66-.23zm1.15-.093a2.11 2.11 0 00-1.586-.126l.212.667a1.41 1.41 0 011.06.085l.315-.626zm5.5 2.764l-5.5-2.764-.314.625 5.5 2.765.315-.626zm.424-.148a.328.328 0 01-.43.145l-.3.632a1.028 1.028 0 001.35-.45l-.62-.327zm-.137-.452c.16.086.224.288.137.452l.62.326a1.035 1.035 0 00-.427-1.396l-.33.618zm-4.392-2.208l4.4 2.212.314-.626-4.4-2.211-.314.625zm-.403-1.21a.905.905 0 00.403 1.21l.314-.625a.205.205 0 01-.09-.273l-.627-.312zm1.209-.405a.899.899 0 00-1.209.405l.627.312a.2.2 0 01.268-.091l.314-.626zm5.5 2.765l-5.5-2.765-.315.626 5.5 2.764.315-.625zm.423-.149a.328.328 0 01-.43.145l-.3.633a1.028 1.028 0 001.35-.451l-.62-.327zm-.137-.451c.16.085.224.287.137.451l.62.327a1.035 1.035 0 00-.428-1.396l-.329.617zm-4.392-2.208l4.4 2.211.314-.625-4.4-2.212-.314.626zm-.403-1.21a.904.904 0 00.403 1.21l.314-.626a.204.204 0 01-.09-.273l-.627-.311zm1.209-.405a.899.899 0 00-1.209.405l.627.311c.05-.1.17-.14.267-.09l.315-.626zm5.5 2.764l-5.5-2.764-.315.625 5.5 2.765.315-.626zm.249.019a.318.318 0 01-.248-.018l-.317.624c.245.125.53.145.79.056l-.225-.662zm2.028-.328a2.148 2.148 0 00-.017-.215l-.694.093c.006.048.01.096.012.144l.7-.022zm.956-.339H28.08v.7h1.306v-.7zm-2.165-5.068l1.833 5.528.664-.22-1.833-5.529-.664.22zm-3.121.24h3.453v-.7H24.1v.7zm-.334-.065a.89.89 0 00.334.064v-.7a.203.203 0 01-.076-.014l-.258.65zm-5.242-2.108l5.24 2.108.262-.65-5.24-2.107-.262.65zM15.661 3.88l3.18-1.996-.372-.593-3.18 1.997.372.592zm-.101.263a.231.231 0 01.1-.261l-.369-.596a.932.932 0 00-.403 1.053l.672-.196zm.28.156a.226.226 0 01-.28-.156l-.672.196a.926.926 0 001.151.631l-.198-.671zm3.062-.88l-3.059.88.194.672 3.058-.879-.193-.672zm.65.06a.898.898 0 00-.65-.06l.194.673a.197.197 0 01.143.013l.313-.626zm7.7 3.87l-7.7-3.87-.314.626 7.7 3.87.315-.625zm.362.23a2.19 2.19 0 00-.36-.229l-.317.625c.087.043.169.096.245.155l.432-.55zm.062.058a.506.506 0 00-.062-.057l-.432.55a.197.197 0 01-.015-.013l.004.005.505-.485zm-.005-.004l.01.008-.005-.004-.505.485c.005.005.025.026.05.046l.45-.535zm.243.235a2.095 2.095 0 00-.246-.238l-.444.541a1.4 1.4 0 01.164.16l.526-.463zm.039.052c-.001-.001-.017-.026-.038-.05l-.528.459-.016-.02-.001-.002.583-.387zm-.017-.022l.016.02.001.002-.583.387c0 .002.016.026.038.05l.528-.459zm.384.688a2.147 2.147 0 00-.378-.68l-.54.445c.112.135.198.29.254.458l.664-.223zm.087.384a2.13 2.13 0 00-.086-.38l-.666.216c.027.083.047.169.058.256l.694-.092zm.009.113c0-.015.001-.081-.016-.152l-.68.17a.164.164 0 01-.004-.03v.012h.7zm0 0h-.7.7zm4.415 1.042l-1.833.368.138.687 1.832-.369-.138-.686zm-.282-8.338v8.681h.7V1.787h-.7zm-3.783 2.039L33.03 2.11l-.261-.649-4.264 1.714.261.65zm1.418 3.233L28.968 3.39l-.665.22 1.217 3.67.665-.22zm.82 2.472l-.82-2.472-.665.22.82 2.472.665-.22zm.396 1.195l-.396-1.195-.665.22.396 1.196.665-.22zm2.05 12.008H31.8v.7h1.65v-.7zm.9.903a.901.901 0 00-.9-.903v.7c.108 0 .2.09.2.203h.7zm0 9.952v-9.952h-.7v9.952h.7zm-1.45.35H34v-.7h-1.1v.7zm-.35-9.749v9.399h.7V24.19h-.7zm-30.45.35h30.8v-.7H2.1v.7zm.35 9.049V24.19h-.7v9.399h.7zm-1.45.35h1.1v-.7H1v.7zM.65 23.637v9.952h.7v-9.952h-.7zm.9-.903c-.499 0-.9.406-.9.903h.7c0-.114.091-.203.2-.203v-.7zm1.65 0H1.55v.7H3.2v-.7zm-.35-1.308v1.658h.7v-1.658h-.7zm.9-.903c-.499 0-.9.406-.9.903h.7c0-.114.091-.203.2-.203v-.7zm3.3 0h-3.3v.7h3.3v-.7zm.9.903a.901.901 0 00-.9-.903v.7c.109 0 .2.09.2.203h.7zm0 1.658v-1.658h-.7v1.658h.7zm2.95-.35H7.6v.7h3.3v-.7zm-.35-.755v1.105h.7V21.98h-.7zm4.2-4.22c-2.32.002-4.197 1.892-4.2 4.22h.7a3.514 3.514 0 013.5-3.52v-.7zm5.5 0h-5.5v.7h5.5v-.7zm4.2 4.22c-.003-2.328-1.88-4.218-4.2-4.22v.7c1.93.002 3.497 1.575 3.5 3.52h.7zm0 1.105V21.98h-.7v1.105h.7zm2.95-.35h-3.3v.7h3.3v-.7zm-.35-1.308v1.658h.7v-1.658h-.7zm.9-.903a.9.9 0 00-.9.903h.7a.2.2 0 01.2-.203v-.7zm3.3 0h-3.3v.7h3.3v-.7zm.9.903a.901.901 0 00-.9-.903v.7c.108 0 .2.09.2.203h.7zm0 1.658v-1.658h-.7v1.658h.7zm-25.65-.35H4.3v.7h2.2v-.7zm-.35-.755v1.105h.7V21.98h-.7zm-1.85.35h2.2v-.7H4.3v.7zm.35.755V21.98h-.7v1.105h.7zm16.15-.35h-6.6v.7h6.6v-.7zm-.35-.755v1.105h.7V21.98h-.7zm-.2-.203c.108 0 .2.089.2.203h.7a.902.902 0 00-.9-.903v.7zm-5.5 0h5.5v-.7h-5.5v.7zm-.2.203c0-.114.091-.203.2-.203v-.7c-.499 0-.9.406-.9.903h.7zm0 1.105V21.98h-.7v1.105h.7zm8.45-.35h-1.1v.7H23v-.7zm-.35-.755v1.105h.7V21.98h-.7zm-2.4-2.415a2.41 2.41 0 012.4 2.415h.7a3.11 3.11 0 00-3.1-3.115v.7zm-5.5 0h5.5v-.7h-5.5v.7zm-2.4 2.415a2.41 2.41 0 012.4-2.415v-.7a3.11 3.11 0 00-3.1 3.114l.7.001zm0 1.105V21.98h-.7v1.105h.7zm.75-.35H12v.7h1.1v-.7zm-.35-.755v1.105h.7V21.98h-.7zm2-2.009c-1.107 0-2 .901-2 2.009h.7c0-.725.584-1.309 1.3-1.309v-.7zm5.5 0h-5.5v.7h5.5v-.7zm2 2.009a2.004 2.004 0 00-2-2.009v.7c.716 0 1.3.584 1.3 1.309h.7zm0 1.105V21.98h-.7v1.105h.7zm8.45-.35h-2.2v.7h2.2v-.7zm-.35-.755v1.105h.7V21.98h-.7zm-1.85.35h2.2v-.7h-2.2v.7zm.35.755V21.98h-.7v1.105h.7z" fill="#84A5F1"/></svg>