<svg xmlns="http://www.w3.org/2000/svg" width="80" height="74" viewBox="0 0 80 74"><g clip-path="url(#clip-66595d1b-2e63-4e56-bda3-6e7f31fc380c)" fill="#212121"><path d="M79.538 52.603l-3.814-3.783a1.563 1.563 0 10-2.201 2.22l3.814 3.782a1.558 1.558 0 002.21-.01 1.563 1.563 0 00-.01-2.209zm-7.7-7.653c-.61-.61-1.6-.61-2.21 0l-.003.002a1.561 1.561 0 001.106 2.667 1.563 1.563 0 001.107-2.669z"/><path d="M41.796 15.507l-4.293-4.293c.487.104.988.16 1.497.159h.035l4.288-.02a1.563 1.563 0 00-.007-3.126h-.007l-4.29.02H39c-1.056 0-2.05-.41-2.8-1.156a3.943 3.943 0 01-1.169-2.813V3.79h10.71c2.011 0 3.95.845 5.321 2.317l.064.069zm-.411 7.917a2.767 2.767 0 01-3.908 0l-7.852-7.852-.003-.002-1.527-1.527a2.767 2.767 0 010-3.909 2.755 2.755 0 011.954-.808c.708 0 1.416.27 1.954.808l9.382 9.381c.522.523.81 1.216.81 1.955 0 .738-.288 1.432-.81 1.954zm-6.118 6.119a2.767 2.767 0 01-3.909 0l-7.852-7.853a2.745 2.745 0 01-.81-1.954c0-.738.288-1.432.81-1.954a2.755 2.755 0 011.954-.808c.708 0 1.415.27 1.953.807l7.853 7.853c.522.522.81 1.216.81 1.954 0 .739-.287 1.433-.81 1.955zm-6.119 6.118a2.767 2.767 0 01-3.908 0l-6.323-6.323a2.767 2.767 0 010-3.908 2.745 2.745 0 011.954-.81c.739 0 1.433.288 1.954.81l6.323 6.323c.522.522.81 1.216.81 1.954s-.288 1.432-.81 1.954zM23.03 41.78a2.745 2.745 0 01-1.954.81 2.744 2.744 0 01-1.954-.81l-4.223-4.223a2.767 2.767 0 010-3.909 2.745 2.745 0 011.954-.81c.738 0 1.432.288 1.954.81l4.223 4.223a2.767 2.767 0 010 3.909zm35.484 10.376l15.161-15.16a5.896 5.896 0 000-8.33 5.851 5.851 0 00-2.84-1.57 5.87 5.87 0 00.546-2.483 5.85 5.85 0 00-1.725-4.164 5.842 5.842 0 00-3.162-1.639 5.894 5.894 0 00-1.427-6.01 5.854 5.854 0 00-3.16-1.634c.194-.589.296-1.21.296-1.849a5.85 5.85 0 00-1.725-4.164 5.851 5.851 0 00-4.164-1.725c-.999 0-1.96.248-2.812.713l-.151-.162A10.429 10.429 0 0045.74.666H33.469c-.863 0-1.563.7-1.563 1.562v2.05a7.1 7.1 0 00.404 2.37 5.88 5.88 0 00-2.26-.449 5.851 5.851 0 00-4.164 1.725 5.894 5.894 0 00-1.425 6.013 5.856 5.856 0 00-3.164 1.635 5.851 5.851 0 00-1.725 4.164c0 .637.102 1.258.295 1.846a5.844 5.844 0 00-3.159 1.638 5.9 5.9 0 00-1.178 6.643 5.85 5.85 0 00-2.841 1.575 5.896 5.896 0 000 8.329l3.118 3.117L.457 58.233a1.563 1.563 0 002.21 2.21l15.498-15.497c.877.5 1.873.769 2.91.769a5.85 5.85 0 004.165-1.725 5.873 5.873 0 001.716-4.402 5.872 5.872 0 004.402-1.716 5.851 5.851 0 001.719-4.403 5.871 5.871 0 004.4-1.716 5.851 5.851 0 001.718-4.402c.079.003.157.006.235.006a5.87 5.87 0 004.164-1.722 5.897 5.897 0 00.391-7.897L54.36 7.363a2.744 2.744 0 011.954-.81c.739 0 1.432.288 1.954.81s.81 1.216.81 1.955c0 .738-.288 1.432-.81 1.954l-7.079 7.079a1.563 1.563 0 002.21 2.21l5.55-5.55a2.767 2.767 0 013.908 0 2.767 2.767 0 010 3.909l-1.53 1.53-4.02 4.02a1.563 1.563 0 002.21 2.21l4.02-4.02a2.745 2.745 0 011.954-.81c.739 0 1.433.287 1.955.81.522.522.809 1.215.809 1.954 0 .738-.287 1.432-.81 1.954l-2.1 2.1-1.92 1.92a1.563 1.563 0 002.21 2.21l1.922-1.922a2.767 2.767 0 013.907.002 2.767 2.767 0 010 3.908l-15.16 15.16a21.171 21.171 0 01-14.247 6.207 1.562 1.562 0 00-1.05.459L27 70.669a1.563 1.563 0 102.214 2.206l10.3-10.34a14.526 14.526 0 008.823 2.27l8.063 8.063a1.559 1.559 0 002.21 0c.61-.61.61-1.6 0-2.21l-8.572-8.573a1.564 1.564 0 00-1.233-.453l-.496.04a11.408 11.408 0 01-6.52-1.419l1.003-1.008a24.283 24.283 0 0015.722-7.09z"/></g></svg>