<svg xmlns="http://www.w3.org/2000/svg" width="80" height="80" viewBox="0 0 80 80"><g clip-path="url(#clip-dfb53fb7-97c4-4c6f-bf60-8778f49edb7e)" fill="#212121"><path d="M69.38 63.573a1.573 1.573 0 00-1.104-.457c-.411 0-.814.167-1.105.457-.29.29-.457.694-.457 1.105 0 .41.167.814.457 1.104.29.29.694.458 1.105.458a1.566 1.566 0 001.562-1.562 1.57 1.57 0 00-.458-1.105zM30.236 76.862a2.815 2.815 0 01-2.812-2.812 2.815 2.815 0 012.812-2.811 2.815 2.815 0 012.812 2.811 2.815 2.815 0 01-2.812 2.812zm0-8.748A5.943 5.943 0 0024.3 74.05a5.943 5.943 0 005.936 5.936 5.943 5.943 0 005.936-5.936 5.943 5.943 0 00-5.936-5.936zm28.652 8.748a2.815 2.815 0 01-2.812-2.812 2.815 2.815 0 012.812-2.811A2.815 2.815 0 0161.7 74.05a2.815 2.815 0 01-2.812 2.812zm0-8.748a5.943 5.943 0 00-5.936 5.936 5.943 5.943 0 005.936 5.936 5.943 5.943 0 005.936-5.936 5.943 5.943 0 00-5.936-5.936zm14.147-26.787a1.562 1.562 0 00-1.83 1.238l-2.27 11.786a1.564 1.564 0 01-1.534 1.267H22.324L16.206 29.01h16.063a1.562 1.562 0 100-3.124H15.487l-1.666-7.246a4.664 4.664 0 00-4.567-3.636H1.562a1.562 1.562 0 100 3.124h7.693c.732 0 1.358.498 1.522 1.212l10.505 45.688a1.56 1.56 0 001.522 1.212h39.844a1.562 1.562 0 000-3.124h-38.6l-1.006-4.374h44.36a4.693 4.693 0 004.6-3.8l2.271-11.786a1.562 1.562 0 00-1.238-1.83z"/><path d="M76.735 19.474l-1.154 1.874a4.035 4.035 0 00-.405 3.354l.675 2.098a.91.91 0 01-.404 1.068l-1.87 1.11a4.034 4.034 0 00-1.92 2.794l-.367 2.158a.91.91 0 01-.857.76l-2.142.107a4.031 4.031 0 00-3.016 1.59l-1.305 1.718a.92.92 0 01-1.116.276l-1.935-.904a4.03 4.03 0 00-3.419 0l-1.936.904a.92.92 0 01-1.116-.276l-1.305-1.718a4.031 4.031 0 00-3.016-1.59l-2.141-.106a.91.91 0 01-.857-.76l-.368-2.16a4.033 4.033 0 00-1.92-2.794l-1.87-1.11a.91.91 0 01-.403-1.067l.675-2.099a4.035 4.035 0 00-.405-3.353l-1.154-1.875a.91.91 0 01.137-1.131l1.56-1.537a4.034 4.034 0 001.195-3.165l-.157-2.195a.91.91 0 01.649-.941l2.066-.623a4.032 4.032 0 002.54-2.26l.864-1.996a.922.922 0 011.017-.534l2.096.412a4.028 4.028 0 003.315-.821l1.669-1.347a.92.92 0 011.15 0l1.668 1.347a4.03 4.03 0 003.315.82l2.096-.41a.92.92 0 011.016.534l.865 1.994a4.031 4.031 0 002.54 2.261l2.066.623a.91.91 0 01.649.941l-.157 2.195a4.035 4.035 0 001.195 3.165l1.56 1.537c.305.3.362.766.137 1.132zm2.66 1.637a4.02 4.02 0 00-.605-4.995l-1.56-1.536a.915.915 0 01-.27-.718l.156-2.195a4.017 4.017 0 00-2.864-4.154l-2.065-.623a.914.914 0 01-.576-.512l-.865-1.995a4.064 4.064 0 00-4.484-2.357l-2.096.411a.913.913 0 01-.75-.186L61.745.904a4.061 4.061 0 00-5.074 0l-1.669 1.347a.912.912 0 01-.751.186l-2.096-.411a4.063 4.063 0 00-4.484 2.357l-.865 1.995a.913.913 0 01-.576.512l-2.065.623a4.017 4.017 0 00-2.863 4.154l.156 2.195a.914.914 0 01-.27.717l-1.56 1.537a4.02 4.02 0 00-.606 4.995l1.153 1.874c.14.228.174.505.092.76l-.675 2.099a4.02 4.02 0 001.783 4.71l1.87 1.11a.91.91 0 01.435.633l.368 2.159a4.015 4.015 0 003.781 3.355l2.142.106c.27.014.52.145.683.36l1.306 1.719a4.06 4.06 0 004.925 1.215l1.936-.904a.913.913 0 01.774 0l1.936.904a4.062 4.062 0 004.925-1.216l1.305-1.717a.913.913 0 01.683-.36l2.142-.107a4.015 4.015 0 003.782-3.356l.367-2.158a.914.914 0 01.435-.633l1.87-1.11a4.02 4.02 0 001.784-4.71l-.675-2.099a.914.914 0 01.091-.76z"/><path d="M62.823 13.723a1.562 1.562 0 00-2.128.592L53.45 27.148a1.562 1.562 0 102.72 1.536l7.245-12.833a1.562 1.562 0 00-.592-2.128zm1.094 13.207a.94.94 0 010-1.877.94.94 0 010 1.877zm0-5.001a4.067 4.067 0 00-4.062 4.063 4.067 4.067 0 004.062 4.062 4.067 4.067 0 004.063-4.062 4.067 4.067 0 00-4.063-4.063zm-9.416-5.383a.94.94 0 010-1.877.94.94 0 010 1.877zm0-5.001a4.067 4.067 0 00-4.062 4.062 4.067 4.067 0 004.063 4.063 4.067 4.067 0 004.062-4.063 4.067 4.067 0 00-4.062-4.062z"/></g></svg>