<svg xmlns="http://www.w3.org/2000/svg" width="80" height="80" viewBox="0 0 80 80"><g clip-path="url(#clip-5d7f3d84-8374-4b99-a74a-881318dc640c)" fill="#212121"><path d="M56.708 37.411h-.668a1.253 1.253 0 000 2.506c.783 0 1.42.636 1.42 1.42 0 .782-.637 1.419-1.42 1.419h-1.336a1.253 1.253 0 000 2.505c.783 0 1.42.637 1.42 1.42 0 .783-.637 1.42-1.42 1.42h-1.336a1.253 1.253 0 000 2.505c.783 0 1.42.637 1.42 1.42 0 .782-.637 1.42-1.42 1.42H33.236v-12.11a1.253 1.253 0 00-2.505 0v13.362a.083.083 0 01-.084.083H22.63a.083.083 0 01-.083-.083V33.319c0-.046.037-.083.083-.083h8.017c.046 0 .084.037.084.083v2.673a1.253 1.253 0 002.505 0v-2.673c0-.06-.005-.12-.01-.18a19.02 19.02 0 002.181-1.983c.464-.494.97-.833 1.507-1.006 2.948-.958 4.932-2.499 6.077-3.623 1.436-1.41 2.292-2.879 2.292-3.93 0-.556.217-1.077.61-1.467a2.1 2.1 0 011.497-.604 1.909 1.909 0 011.434.666c.457.515.682 1.255.603 1.98-.274 2.49-2.264 5.566-5.071 7.838a1.253 1.253 0 00.788 2.226h11.564a2.09 2.09 0 012.087 2.088 2.09 2.09 0 01-2.087 2.087zm4.593-2.087a4.598 4.598 0 00-4.593-4.593h-8.44c2.05-2.305 3.39-4.93 3.65-7.285.157-1.438-.287-2.866-1.22-3.917a4.403 4.403 0 00-3.285-1.508h-.044a4.568 4.568 0 00-3.238 1.33 4.536 4.536 0 00-1.353 3.224c-.044.267-.514 1.189-1.665 2.283-.942.897-2.57 2.129-4.973 2.909-.942.306-1.803.869-2.56 1.674a16.56 16.56 0 01-1.725 1.59 2.57 2.57 0 00-1.208-.3H22.63a2.592 2.592 0 00-2.588 2.589v21.378a2.592 2.592 0 002.588 2.588h8.017a2.59 2.59 0 002.264-1.336h20.457a3.93 3.93 0 003.925-3.925 3.9 3.9 0 00-.546-1.994 3.926 3.926 0 001.336-5.345 3.926 3.926 0 001.199-5.56 4.593 4.593 0 002.02-3.802z"/><path d="M26.639 49.423c-.692 0-1.26.567-1.26 1.259s.568 1.26 1.26 1.26c.692 0 1.26-.568 1.26-1.26 0-.692-.568-1.26-1.26-1.26z"/><path d="M75.256 40.443l2.067 5.468-3.655 4.563a1.252 1.252 0 00-.274.842l.276 5.84-4.887 3.209c-.254.167-.44.422-.52.717L66.72 66.72l-5.638 1.543c-.295.08-.55.265-.717.52l-3.21 4.886-5.84-.275a1.254 1.254 0 00-.841.274l-4.563 3.655-5.468-2.067a1.253 1.253 0 00-.886 0l-5.468 2.067-4.563-3.655a1.255 1.255 0 00-.842-.274l-5.84.275-3.209-4.886a1.253 1.253 0 00-.717-.52L13.28 66.72l-1.543-5.638a1.253 1.253 0 00-.52-.717l-4.886-3.21.275-5.84a1.252 1.252 0 00-.274-.841L2.677 45.91l2.067-5.468c.108-.286.108-.6 0-.886L2.677 34.09l3.655-4.563c.191-.238.289-.537.274-.842l-.275-5.84 4.886-3.209c.254-.167.44-.422.52-.717l1.543-5.638 5.638-1.543c.295-.08.55-.265.717-.52l3.21-4.887 5.84.276c.303.014.603-.083.841-.274l4.563-3.655 5.468 2.067c.286.108.6.108.886 0l5.468-2.067 4.563 3.655c.238.191.537.288.842.274l5.84-.276 3.209 4.887c.167.254.422.44.717.52l5.638 1.543 1.543 5.638c.08.295.265.55.52.717l4.887 3.21-.276 5.839c-.014.305.083.604.274.842l3.655 4.563-2.067 5.468c-.107.286-.107.6 0 .886zM77.767 40l2.152-5.694c.157-.414.083-.88-.194-1.226l-3.806-4.751.287-6.08a1.253 1.253 0 00-.564-1.106L70.554 17.8l-1.606-5.872a1.252 1.252 0 00-.877-.878l-5.872-1.606-3.342-5.087a1.254 1.254 0 00-1.106-.564l-6.08.287L46.92.275a1.253 1.253 0 00-1.227-.194L40 2.233 34.306.08a1.252 1.252 0 00-1.226.194L28.33 4.08l-6.081-.286a1.25 1.25 0 00-1.106.563L17.8 9.446l-5.872 1.606c-.427.117-.76.45-.877.877l-1.606 5.872-5.088 3.342c-.37.243-.584.664-.563 1.106l.286 6.08-3.806 4.75c-.277.346-.35.813-.194 1.227L2.233 40 .08 45.694c-.157.414-.083.88.194 1.226l3.806 4.75-.287 6.081c-.02.442.194.863.564 1.106L9.446 62.2l1.606 5.872c.116.427.45.76.877.877l5.872 1.606 3.342 5.088c.243.37.664.583 1.106.564l6.08-.287 4.75 3.806c.346.277.813.35 1.227.194L40 77.767l5.694 2.152a1.253 1.253 0 001.226-.194l4.75-3.806 6.081.287c.444.02.863-.194 1.106-.564l3.342-5.088 5.872-1.606c.427-.116.76-.45.877-.877l1.606-5.872 5.088-3.342c.37-.243.585-.664.564-1.106l-.287-6.08 3.806-4.75c.277-.347.35-.813.194-1.227z"/><path d="M63.537 18.37a32.708 32.708 0 00-1.965-1.964 1.253 1.253 0 10-1.694 1.846 30.39 30.39 0 011.813 1.813 1.25 1.25 0 001.77.076c.51-.468.543-1.26.076-1.77zm-6.413-5.382C51.084 9.14 43.81 7.43 36.646 8.171a32.054 32.054 0 00-19.302 9.197A31.888 31.888 0 008.003 38.68c-.324 8 2.325 15.766 7.46 21.868a1.25 1.25 0 001.765.152c.53-.445.597-1.235.152-1.765a29.38 29.38 0 01-6.874-20.153 29.388 29.388 0 018.61-19.644 29.54 29.54 0 0117.788-8.476c6.605-.684 13.308.892 18.873 4.438a1.252 1.252 0 101.347-2.113zm9.831 9.832a1.253 1.253 0 10-2.113 1.345c3.546 5.566 5.122 12.269 4.438 18.874a29.541 29.541 0 01-8.476 17.788 29.39 29.39 0 01-19.644 8.61 29.375 29.375 0 01-20.153-6.874 1.252 1.252 0 10-1.613 1.917 31.86 31.86 0 0021.868 7.46 31.888 31.888 0 0021.314-9.34 32.052 32.052 0 009.196-19.302c.742-7.165-.969-14.437-4.817-20.478z"/></g></svg>