<svg xmlns="http://www.w3.org/2000/svg" width="80" height="52" viewBox="0 0 80 52"><g clip-path="url(#clip-940753aa-2c74-4c20-91fb-1b70e7e34b87)" fill="#fff"><path d="M76.075 32.764c-.783 0-1.42-.636-1.42-1.42v-1.419h2.84v2.84zm-9.353 16.034a5.434 5.434 0 01-5.427-5.428 5.434 5.434 0 015.427-5.428 5.434 5.434 0 015.428 5.428 5.434 5.434 0 01-5.428 5.428zm-44.091 0a5.434 5.434 0 01-5.428-5.428 5.434 5.434 0 015.428-5.428 5.434 5.434 0 015.428 5.428 5.434 5.434 0 01-5.428 5.428zm35.991-26.723v-8.183h11.13l2.047 8.183zm0-13.528h9.437a2.759 2.759 0 012.755 2.756v.084H58.622zm13.706 5.317c.567-.12.992-.623.992-1.225v-1.336c0-2.9-2.36-5.26-5.261-5.26h-9.437V3.285A2.592 2.592 0 0056.034.697h-48.1a2.592 2.592 0 00-2.59 2.59V26a1.253 1.253 0 002.506 0V3.286c0-.046.037-.083.083-.083h48.1c.046 0 .084.037.084.083v22.715a1.253 1.253 0 002.505 0v-1.42h14.783a4.099 4.099 0 013.893 2.839h-3.895c-.692 0-1.253.56-1.253 1.253v2.672a3.93 3.93 0 003.925 3.925h1.42v5.511h-3.276c-1.076-3.107-4.029-5.344-7.497-5.344s-6.421 2.237-7.497 5.344h-.603v-9.436a1.253 1.253 0 00-2.505 0v9.436h-25.99c-1.075-3.107-4.029-5.345-7.496-5.345-3.468 0-6.422 2.238-7.498 5.345h-7.2a.083.083 0 01-.083-.084v-2.755h5.428a1.253 1.253 0 000-2.506H1.253a1.253 1.253 0 000 2.506h4.092v2.755a2.592 2.592 0 002.588 2.59H14.7c0 .027-.003.055-.003.083 0 4.374 3.56 7.933 7.934 7.933 4.374 0 7.933-3.559 7.933-7.933 0-.029-.002-.056-.003-.084h28.23l-.002.084c0 4.374 3.559 7.933 7.933 7.933s7.933-3.559 7.933-7.933l-.002-.084h4.094c.692 0 1.253-.56 1.253-1.253v-13.36c0-3.3-2.434-6.04-5.6-6.522z"/><path d="M22.63 40.781a2.592 2.592 0 00-2.588 2.589 2.592 2.592 0 002.589 2.589 2.592 2.592 0 002.588-2.59 2.592 2.592 0 00-2.588-2.588zm44.092 0a2.592 2.592 0 00-2.588 2.589 2.592 2.592 0 002.588 2.589 2.592 2.592 0 002.59-2.59 2.592 2.592 0 00-2.59-2.588zm-14.697-5.344H33.32a1.253 1.253 0 000 2.505h18.706a1.253 1.253 0 000-2.505zm-32.067-5.345H3.925a1.253 1.253 0 000 2.506h16.033a1.253 1.253 0 000-2.506zm23.6-17.002a1.253 1.253 0 00-1.771 0l-11.14 11.139-5.795-5.795a1.252 1.252 0 10-1.771 1.771l6.68 6.68a1.248 1.248 0 001.771 0l12.026-12.024c.49-.49.49-1.282 0-1.772z"/></g></svg>