<svg xmlns="http://www.w3.org/2000/svg" width="80" height="80" viewBox="0 0 80 80"><g clip-path="url(#clip-ef8c3b43-4dba-4094-b9c5-1cc87ec0e180)" fill="#212121"><path d="M29.957 77.723H9.19c-3.507 0-6.37-2.804-6.47-6.287a6.106 6.106 0 016.095-5.912h21.142c3.363 0 6.1 2.736 6.1 6.1a6.107 6.107 0 01-6.1 6.099zm44.925-29.552a.228.228 0 010-.2l4.427-9.122a2.492 2.492 0 000-2.189l-4.427-9.123a.228.228 0 010-.2l3.735-7.697c.38-.781.33-1.687-.13-2.424a2.492 2.492 0 00-2.125-1.176H65.21a1.139 1.139 0 100 2.277h11.152a.22.22 0 01.194.108.22.22 0 01.012.221l-3.734 7.697a2.492 2.492 0 000 2.188l4.427 9.124c.03.063.03.136 0 .2l-4.427 9.122a2.492 2.492 0 000 2.188l4.427 9.123c.03.063.03.136 0 .2l-4.427 9.122a2.492 2.492 0 000 2.188l3.686 7.596a.22.22 0 01-.012.221.22.22 0 01-.194.108H37.171l.007-.007a9.03 9.03 0 00.307-.293c.034-.034.066-.07.1-.105.067-.069.133-.138.198-.21.039-.042.076-.087.114-.13.057-.066.114-.131.169-.198l.115-.147c.05-.065.102-.13.15-.196.04-.052.076-.105.113-.158.046-.066.093-.132.137-.199a8.788 8.788 0 00.232-.369c.035-.057.067-.115.1-.173a8.628 8.628 0 00.778-1.845 8.276 8.276 0 00.115-.435l.044-.194c.018-.084.033-.168.048-.253.012-.063.025-.127.035-.19.014-.09.025-.18.036-.27.008-.06.017-.12.023-.182.01-.1.018-.202.025-.304l.012-.153c.008-.154.012-.309.012-.464V18.317h18.087a1.139 1.139 0 000-2.277H40.041V8.752C40.041 3.926 36.115 0 31.29 0H9.19C4.364 0 .438 3.926.438 8.752v40.242a1.138 1.138 0 002.277 0V8.752A6.482 6.482 0 019.19 2.277h22.1a6.482 6.482 0 016.474 6.475v59.842c-1.217-3.125-4.256-5.347-7.807-5.347H8.815a8.353 8.353 0 00-6.1 2.644v-9.723a1.139 1.139 0 00-2.277 0v15.08c0 .063.003.125.005.188-.002.062-.005.125-.005.187C.438 76.243 4.196 80 8.814 80h67.5c.869 0 1.663-.44 2.124-1.176.46-.736.51-1.643.13-2.425l-3.686-7.595a.228.228 0 010-.2l4.427-9.122a2.492 2.492 0 000-2.189z"/><path d="M33.205 68.783a4.318 4.318 0 00-3.248-1.476H8.815a4.28 4.28 0 00-3.109 1.324 4.282 4.282 0 00-1.204 3.158c.088 2.327 2.016 4.15 4.39 4.15h21.065a1.139 1.139 0 000-2.277H8.893c-1.126 0-2.075-.879-2.116-1.96a2.028 2.028 0 01.57-1.492c.388-.403.91-.626 1.468-.626h21.142a2.04 2.04 0 011.535.699c.017.02.044.05.013.118-.038.084-.1.084-.125.084h-9.787a1.139 1.139 0 000 2.277h9.787a2.39 2.39 0 002.199-1.42 2.361 2.361 0 00-.374-2.559z"/></g></svg>