<svg xmlns="http://www.w3.org/2000/svg" width="80" height="60" viewBox="0 0 80 60"><g clip-path="url(#clip-1a6e9719-239a-4417-b608-02081d744038)" fill="#212121"><path d="M76.331 57.672h-59.09c-.763 0-1.384-.62-1.384-1.382V22.074c0-.762.62-1.382 1.383-1.382h59.091c.763 0 1.383.62 1.383 1.382V56.29c0 .762-.62 1.382-1.383 1.382zM63.273 7.312l1.71 6.702-17.22 4.391H19.77zm2.829 11.093h-9.087l8.532-2.176zm-52.53 3.669v5.05l-8.528 2.174-1.709-6.702L14.38 19.78a3.651 3.651 0 00-.809 2.294zm0 30.45l-1.107.282a1.384 1.384 0 01-1.681-.998L5.609 31.513l7.962-2.03zm62.76-34.119h-7.87l-3.98-15.601a3.673 3.673 0 00-4.46-2.648l-9.07 2.312a1.143 1.143 0 00.564 2.216l9.07-2.313c.74-.188 1.493.26 1.682.998l.44 1.728L2.77 20.381l-.44-1.728a1.374 1.374 0 01.15-1.047c.189-.318.49-.543.848-.634L44.556 6.459a1.143 1.143 0 00-.565-2.216L2.763 14.756a3.673 3.673 0 00-2.649 4.462L8.57 52.373a3.675 3.675 0 004.46 2.648l.542-.138v1.407a3.673 3.673 0 003.669 3.669H76.33a3.673 3.673 0 003.67-3.67V22.075a3.673 3.673 0 00-3.669-3.669z"/><path d="M45.522 46.546H20.615a1.143 1.143 0 100 2.286h24.907a1.143 1.143 0 100-2.286zm19.05-7.336a5.221 5.221 0 01-3.862-1.703l-.035-.038a5.216 5.216 0 01-1.343-3.499 5.215 5.215 0 011.344-3.498l.034-.038a5.03 5.03 0 01.187-.193 5.222 5.222 0 013.675-1.51 5.246 5.246 0 015.239 5.24 5.245 5.245 0 01-5.24 5.239zm-7.517-4.883l.005.088c.005.096.013.192.022.287l.006.066a7.418 7.418 0 001.423 3.666 5.21 5.21 0 01-2.744.776 5.245 5.245 0 01-5.239-5.24 5.246 5.246 0 015.24-5.239c.98 0 1.924.271 2.743.776a7.42 7.42 0 00-1.423 3.666l-.006.066a6.67 6.67 0 00-.022.287l-.005.087a7.743 7.743 0 000 .714zm7.516-7.882c-1.642 0-3.161.53-4.4 1.426a7.484 7.484 0 00-4.404-1.426c-4.15 0-7.525 3.376-7.525 7.526s3.376 7.525 7.525 7.525a7.483 7.483 0 004.405-1.426 7.483 7.483 0 004.4 1.426c4.149 0 7.525-3.376 7.525-7.525 0-4.15-3.376-7.526-7.526-7.526zm-33.821 8.14h-2.439a1.143 1.143 0 000 2.286h2.4a1.993 1.993 0 01-1.95 1.596h-5.014a1.992 1.992 0 01-1.95-1.596h2.4a1.143 1.143 0 000-2.286h-2.44v-.99h2.44a1.143 1.143 0 100-2.287h-2.431a1.99 1.99 0 011.981-1.834h5.014a1.99 1.99 0 011.981 1.834h-2.43a1.143 1.143 0 100 2.286h2.438zm-1.99-7.397h-5.013a4.28 4.28 0 00-4.275 4.276v5.013a4.28 4.28 0 004.275 4.276h5.014a4.28 4.28 0 004.275-4.276v-5.013a4.28 4.28 0 00-4.275-4.276zm43.602 24.388H32.56a1.143 1.143 0 000 2.286h39.802a1.143 1.143 0 000-2.286zm-47.089 0h-4.658a1.143 1.143 0 000 2.286h4.658a1.143 1.143 0 000-2.286z"/></g></svg>