<svg width="26" height="18" viewBox="0 0 26 18" fill="none" xmlns="http://www.w3.org/2000/svg"><path d="M25.33.575H.67c-.37 0-.67.3-.67.67v15.51c0 .37.3.67.67.67h24.66c.37 0 .67-.3.67-.67V1.246c0-.37-.3-.67-.67-.67zM6.208 8.75c-.366.27-.876.404-1.535.405h-.154a.276.276 0 00-.258.205l-.186.8a.277.277 0 01-.258.205h-.539c-.117 0-.19-.094-.162-.205l.757-3.298a.282.282 0 01.26-.206h1.124c.243.002.454.017.636.05.18.034.336.091.469.172.127.08.23.188.294.318.071.13.103.292.103.485 0 .442-.182.8-.55 1.07zm3.343-.42l-.02.138-.393 1.7a.278.278 0 01-.232.201l-.007.003h-.501l-.002-.002c-.102-.01-.166-.097-.144-.202l.001-.004.02-.086-.002-.004-.203.134-.221.124-.261.09a1.53 1.53 0 01-.338.03c-.23 0-.422-.063-.568-.193a.665.665 0 01-.22-.511c.001-.221.052-.408.155-.564.106-.154.258-.275.463-.365.191-.087.421-.152.683-.188a9.13 9.13 0 01.795-.086l.078-.048.01-.076a.248.248 0 00-.163-.245c-.11-.046-.274-.069-.49-.069a2.32 2.32 0 00-.505.068c-.183.041-.233.068-.322.095-.042.014-.141.021-.104-.152l.066-.271s.032-.205.237-.25c.099-.022.114-.026.276-.05.219-.034.435-.051.652-.051.439 0 .76.057.963.171a.57.57 0 01.307.533l-.01.13zm.866 3.348h-.558c-.116 0-.154-.091-.083-.204l.477-.833s.038-.047.004-.319c-.073-.49-.44-2.577-.44-2.577-.026-.113.045-.205.161-.205l.483-.001c.148 0 .267.097.293.211l.24 1.447.09.001c.075-.133.847-1.457.847-1.457.073-.111.223-.206.338-.206 0 0 .52.002.647 0 .191-.002-.015.308-.015.308l-2.147 3.63a.451.451 0 01-.337.205zm5.578-2.914c-.368.269-.88.405-1.54.405h-.153a.278.278 0 00-.259.204l-.182.8a.278.278 0 01-.259.204h-.54c-.114.001-.19-.092-.162-.204l.757-3.299a.282.282 0 01.258-.205h1.127c.241 0 .454.017.633.05.181.032.338.09.469.17a.833.833 0 01.296.32c.07.128.103.291.104.485 0 .441-.185.797-.549 1.07zm3.341-.432l-.02.14-.394 1.697a.278.278 0 01-.23.203l-.007.003h-.501v-.003a.157.157 0 01-.144-.202l-.001-.001.002-.002.018-.087-.003-.004-.202.136-.222.123-.26.088c-.08.02-.193.03-.337.032a.827.827 0 01-.568-.195.66.66 0 01-.22-.511.99.99 0 01.154-.562 1.07 1.07 0 01.463-.366c.193-.088.424-.151.685-.188.266-.039.487-.067.795-.086l.078-.049.008-.076a.246.246 0 00-.163-.244c-.11-.047-.274-.07-.49-.07a2.48 2.48 0 00-.505.068c-.182.042-.231.069-.32.095-.045.014-.142.022-.105-.152l.066-.27s.03-.206.236-.25c.1-.021.116-.026.277-.05.217-.035.435-.052.652-.052.437 0 .758.058.963.173a.568.568 0 01.308.531l-.013.13zm1.726-1.43l-.721 3.268-.026.039c-.043.092-.134.167-.233.167h-.5l-.01-.012c-.095-.015-.157-.091-.135-.192v-.002l.021-.095.675-3.066.024-.107.027-.042c.044-.09.133-.163.232-.163h.482c.118 0 .188.091.163.203l.002.001zm.957-.354h-.18v.24l.001.064.012.043.029.028.055.009.045-.007.034-.01h.004v.079l-.054.01-.05.005-.123-.044-.042-.138v-.28h-.061v-.074h.06v-.15h.09v.15h.18v.075zm.872.11v.34h-.087v-.3l-.005-.064-.012-.05-.03-.03-.058-.011-.074.019-.075.047.002.026v.362h-.087v-.3l-.004-.064-.012-.05-.03-.03-.059-.01-.072.017-.073.046v.391h-.087v-.524h.087v.058l.084-.053.086-.02.091.022.056.063.097-.065.094-.02.128.052.041.147z" fill="#fff"/></svg>