<svg width="26" height="18" viewBox="0 0 26 18" fill="none" xmlns="http://www.w3.org/2000/svg"><path d="M25.33.575H.67c-.37 0-.67.3-.67.67v15.51c0 .37.3.67.67.67h24.66c.37 0 .67-.3.67-.67V1.246c0-.37-.3-.67-.67-.67zm-1.308 7.51l-.358.325-.324-.36.36-.324.322.36zm-1.846-.313l-.486-.54.54-.485.485.54-.54.485zm.55.06l.486.539-.54.485-.485-.539.54-.485zm-.99-.179l-.718.647-.647-.719.719-.647.647.72zm-.132.508l.647.719-.72.647-.646-.72.719-.646zm.511 1.243l.647.719-.719.648-.647-.719.72-.648zm.533.053l.54-.486.485.54-.54.485-.485-.54zm.916-2.44l-.36.324-.323-.36.36-.324.323.36zM3.77 10.2h-.373l-.469-1.721h-.024l-.455 1.72h-.373l-.56-2.445h.388L2.29 9.58h.024l.449-1.825h.307l.48 1.825h.024l.352-1.825h.404L3.77 10.2zm2.14-.796H4.786c0 .413.169.597.524.597.186 0 .359-.066.548-.18v.262a1.22 1.22 0 01-.61.16c-.58 0-.818-.36-.818-.905 0-.524.266-.903.783-.903.432 0 .697.28.697.842v.127zm.986.838c-.182 0-.466-.06-.673-.17V7.666l.359-.086v.983a1.04 1.04 0 01.466-.127c.428 0 .659.297.659.849 0 .645-.31.958-.81.958zm3.565-.042h-.374V8.427h-.03L9.353 10.2h-.22l-.705-1.732h-.03V10.2h-.31V7.754h.416l.773 1.929h.018l.738-1.929h.428V10.2zm1.165.042c-.472 0-.786-.315-.786-.904 0-.604.331-.904.786-.904.456 0 .787.3.787.904 0 .59-.314.904-.787.904zm2.564-.042h-.36V9.03c0-.272-.133-.32-.31-.32a.95.95 0 00-.42.124V10.2h-.36V8.689c.156-.093.484-.255.88-.255.414 0 .57.162.57.517V10.2zm1.8-.796h-1.124c0 .413.169.597.525.597.186 0 .359-.066.548-.18v.262a1.22 1.22 0 01-.611.16c-.58 0-.817-.36-.817-.905 0-.524.266-.903.783-.903.432 0 .697.28.697.842v.127zm1.087.814c-.173.475-.383.724-.78.724v-.283c.236 0 .38-.186.463-.441l-.662-1.726h.38l.44 1.27h.022l.393-1.27h.369l-.625 1.726zm5.85 1.412a3 3 0 01-1.49.394A3.03 3.03 0 0118.412 9a3.03 3.03 0 013.023-3.024 3.006 3.006 0 011.513.406l-.278.249-.418-.433-.706.63-.418-.457-1.316 1.184.843.93-.331.29.83.931-.33.291 1.188 1.32.703-.647.608.695a3.35 3.35 0 01-.398.264zm.681-.546l-.486-.538.54-.486.485.539-.539.486zm.515-1.607l-.324-.36.36-.323.323.36-.36.323z" fill="#fff"/></svg>