<svg xmlns="http://www.w3.org/2000/svg" height="512" viewBox="0 0 24 24" width="512"><path d="M20.25 10.75a.75.75 0 000-1.5H18.5V8.5h1.75a.75.75 0 000-1.5h-2C17.561 7 17 7.561 17 8.25v3.5c0 .689.561 1.25 1.25 1.25h2a.75.75 0 000-1.5H18.5v-.75zM8.75 13a.75.75 0 01-.75-.75v-4.5a.75.75 0 011.5 0v4.5a.75.75 0 01-.75.75zm-2.5 0h-2.5a.75.75 0 01-.75-.75v-4.5a.75.75 0 011.5 0v3.75h1.75a.75.75 0 010 1.5zm7.25 0a.752.752 0 01-.723-.549l-1.25-4.5a.75.75 0 111.445-.401l.528 1.898.527-1.898a.75.75 0 111.445.401l-1.25 4.5A.75.75 0 0113.5 13z" data-original="#000000" class="active-path" data-old_color="#000000" fill="#A8B6BB"/><path d="M22.25 2H1.75C.785 2 0 2.785 0 3.75v12.5C0 17.215.785 18 1.75 18H10v2H8a1 1 0 000 2h8a1 1 0 100-2h-2v-2h8.25c.965 0 1.75-.785 1.75-1.75V3.75C24 2.785 23.215 2 22.25 2zM22 16H2V4h20z" data-original="#000000" class="active-path" data-old_color="#000000" fill="#A8B6BB"/></svg>