<svg width="161" height="25" xmlns="http://www.w3.org/2000/svg"><g fill="none" fill-rule="evenodd"><path d="M41.998 9.445h-4.27V21.08h1.281v-3.896h2.935c2.455 0 3.736-1.334 3.736-3.949 0-1.28-.32-2.188-.907-2.828-.587-.694-1.548-.96-2.775-.96zm-.054 6.564H39.01v-5.443h2.935c.854 0 1.441.214 1.815.64.373.427.587 1.068.587 1.975 0 1.868-.8 2.828-2.402 2.828zm6.778-3.362h-1.228v8.432h1.28v-6.19l.428-.214c.267-.16.64-.32 1.174-.48.534-.214 1.014-.32 1.494-.427v-1.28c-1.067.213-2.081.64-3.095 1.333v-1.174h-.053zm7.791-.16c-1.281 0-2.241.32-2.775 1.014-.534.694-.8 1.815-.8 3.309 0 1.494.266 2.668.746 3.362.534.693 1.441 1.067 2.829 1.067 1.387 0 2.294-.374 2.828-1.067.534-.694.747-1.815.747-3.362 0-1.548-.267-2.668-.8-3.309-.534-.694-1.441-1.014-2.775-1.014zm1.867 6.884c-.266.48-.907.747-1.867.747s-1.548-.266-1.868-.747c-.32-.48-.427-1.334-.427-2.561 0-1.228.16-2.081.48-2.562.32-.48.96-.693 1.815-.693.854 0 1.494.213 1.814.693.32.48.48 1.334.48 2.562 0 1.227-.106 2.08-.427 2.561zm7.578-6.884c-.854 0-1.654.267-2.508.747v-.587h-1.227v12.114h1.28v-3.735c.588.106 1.174.16 1.868.16 1.334 0 2.242-.32 2.829-1.014.587-.694.853-1.815.853-3.362 0-1.548-.266-2.668-.747-3.362-.48-.694-1.28-.96-2.348-.96zm1.174 6.884c-.373.534-1.014.747-1.92.747-.428 0-1.015-.053-1.815-.16v-5.656l.32-.16c.213-.107.534-.214.907-.32.374-.107.747-.16 1.067-.16.64 0 1.121.266 1.441.746.32.48.48 1.334.48 2.508.107 1.068-.106 1.922-.48 2.455zm7.044-6.884c-2.348 0-3.522 1.494-3.522 4.43 0 1.494.267 2.56.747 3.255.48.693 1.388 1.067 2.562 1.067.907 0 1.974-.107 3.255-.267l-.053-1.014-.48.054c-.854.053-1.708.106-2.562.106-.854 0-1.44-.213-1.761-.693-.32-.427-.48-1.121-.48-2.082h5.603l.053-.96c0-1.334-.266-2.348-.853-2.989-.534-.587-1.388-.907-2.509-.907zm-2.241 3.896c0-.96.213-1.708.587-2.135.374-.427.96-.693 1.654-.693.747 0 1.281.213 1.601.64.32.427.48 1.174.48 2.188h-4.322zm8.805-3.736h-1.227v8.432h1.28v-6.19l.427-.214c.267-.16.64-.32 1.174-.48.534-.214 1.014-.32 1.495-.427v-1.28c-1.068.213-2.082.64-3.096 1.333v-1.174h-.053zm7.471 7.471c-.534 0-.854-.16-1.014-.48-.16-.32-.213-.96-.213-1.921v-4.002h2.668v-1.068h-2.668v-2.561h-1.228v2.561h-1.174v1.068h1.174v4.429c0 1.174.16 2.028.48 2.455.32.427.961.64 1.815.64.374 0 .96-.053 1.708-.16l-.107-1.067-1.44.106zm6.137-.16h-.534l-2.08-7.31h-1.282l2.402 8.43h1.227l-1.12 3.683h1.28l3.522-12.114h-1.28zm9.125-5.55c-1.174-.32-1.867-.587-2.241-.8-.32-.214-.48-.587-.48-1.12 0-1.015.693-1.495 2.134-1.495.641 0 1.761.107 3.309.267l.16-1.494-.587-.107c-1.174-.214-2.188-.32-3.042-.32-1.174 0-2.134.266-2.828.8s-1.014 1.334-1.014 2.348c0 1.068.267 1.815.8 2.295.534.48 1.335.854 2.455 1.12 1.121.267 1.815.534 2.135.748.32.213.48.587.48 1.067 0 1.227-.694 1.868-2.081 1.868-.801 0-1.975-.107-3.469-.32l-.16 1.494.587.106c1.174.214 2.188.32 3.149.32 1.174 0 2.134-.32 2.828-.907s1.014-1.494 1.014-2.721c0-.96-.214-1.654-.694-2.081-.534-.374-1.334-.748-2.455-1.068zm8.058 5.177c-.427 0-.693-.107-.747-.32-.107-.214-.16-.694-.16-1.388v-3.682h2.295v-1.548h-2.348v-2.454h-1.815v2.454h-1.067v1.548h1.067v3.895c0 1.228.16 2.028.534 2.455.374.427 1.014.64 1.975.64.373 0 .96-.053 1.707-.213l-.107-1.44-1.334.053zm9.072-.534v-3.842c0-.96-.213-1.654-.693-2.135-.481-.48-1.175-.64-2.242-.64-1.014 0-2.134.16-3.362.427l.054 1.28.533-.053a28.021 28.021 0 0 1 2.668-.16c.374 0 .694.107.854.267.16.16.32.48.32.96v.587l-2.187.16c-.961.054-1.655.32-2.082.694-.427.374-.693 1.014-.693 1.868 0 1.761.853 2.668 2.508 2.668.907 0 1.814-.213 2.721-.64.534.427 1.281.64 2.242.64l.053-1.387c-.267-.054-.427-.107-.534-.214-.053-.053-.16-.213-.16-.48zm-1.814.32l-.32.107c-.641.16-1.228.267-1.761.267-.694 0-1.014-.374-1.014-1.174 0-.747.373-1.174 1.174-1.281l1.974-.16v2.241h-.053zm5.923-6.724h-1.814v8.432h1.814v-5.87l.374-.16c.694-.32 1.494-.534 2.455-.747v-1.815c-.961.16-1.922.587-2.882 1.174v-1.014h.053zm7.418 6.938c-.427 0-.694-.107-.747-.32-.107-.214-.16-.694-.16-1.388v-3.682h2.294v-1.548h-2.294v-2.454h-1.815v2.454h-1.067v1.548h1.067v3.895c0 1.228.16 2.028.534 2.455.374.427 1.014.64 1.974.64.374 0 .961-.053 1.708-.213l-.107-1.44-1.387.053zm3.255 4.482H161V6.884h-25.615v17.183zm13.821-12.86h5.871c.693 0 1.28.106 1.761.373.48.267.853.64 1.12 1.067.267.427.374.96.374 1.495 0 .587-.16 1.12-.48 1.6-.321.48-.801.8-1.388 1.068l2.135 4.055h-3.469l-1.708-3.522h-1.174v3.522h-3.095v-9.658h.053zm-8.378 0l1.921 6.457h.054l1.921-6.458h3.148l-3.415 9.606h-3.575l-3.416-9.606h3.362z" fill="#FFF"/><path d="M154.97 14.889a.884.884 0 0 0 .267-.64.884.884 0 0 0-.267-.641.885.885 0 0 0-.641-.267h-2.027v1.761h2.027c.267.053.481-.053.641-.213z" fill="#FFF"/><path fill="#384770" d="M144.51 20.812l3.416-9.606h-3.149l-1.974 6.404h-.054l-1.921-6.403h-3.308l3.415 9.605zm7.792-3.522h1.174l1.707 3.522h3.469l-2.135-4.056a2.8 2.8 0 0 0 1.388-1.067c.32-.48.48-1.014.48-1.6a2.97 2.97 0 0 0-.373-1.495 3.086 3.086 0 0 0-1.121-1.067c-.48-.267-1.067-.374-1.761-.374h-5.87v9.606h3.095V17.29h-.053zm0-3.896h2.027c.267 0 .427.107.641.267.16.16.267.374.267.64 0 .267-.107.48-.267.641a.885.885 0 0 1-.641.267h-2.027v-1.815z"/><path d="M16.596 4.696c.854 0 1.655 0 2.402.053C18.89 1.174 18.41 0 18.41 0h-3.629s-.48 1.174-.587 4.75c.747 0 1.547-.054 2.401-.054zM.8 11.9l-.266.214C.214 12.327 0 12.7 0 13.128v3.842c0 .427.214.8.534 1.014l.373.267L.8 11.9zm15.796-5.07c5.87 0 9.606.48 11.954.961-.053-.053-.107-.053-.16-.107-1.815-1.12-5.337-2.508-11.794-2.508-6.457 0-9.979 1.388-11.793 2.562-.054.053-.107.053-.16.106 2.348-.533 6.083-1.013 11.953-1.013zm16.063 5.284l-.267-.214-.107 6.35.374-.266c.32-.214.534-.587.534-1.014v-3.842c0-.374-.214-.8-.534-1.014z" fill="#FFF"/><path d="M16.596 8.538c7.151 0 11.047.694 13.021 1.281.64.213 1.12.8 1.12 1.44l-.106 7.685c0 .694-.427 1.334-1.067 1.601-2.615 1.12-5.924 1.281-7.685 1.281h-.587c-.267 0-.533-.107-.747-.267l-.64-.48c-.64-.48-1.388-.694-2.188-.694h-2.134c-.801 0-1.548.267-2.189.694l-.64.48c-.213.16-.48.267-.747.267h-.587c-1.708 0-5.016-.16-7.684-1.28a1.748 1.748 0 0 1-1.068-1.602l-.107-7.684c0-.694.427-1.28 1.121-1.494 1.921-.534 5.763-1.228 12.914-1.228zm0-1.227c-7.31 0-11.26.694-13.34 1.334-1.175.32-1.975 1.44-1.975 2.668l.107 7.685c0 1.174.747 2.241 1.814 2.668C6.03 22.84 9.445 23 11.313 23h.587c.534 0 1.014-.16 1.441-.48l.64-.48c.427-.32.961-.48 1.495-.48h2.027c.534 0 1.068.16 1.495.48l.64.48c.427.32.907.48 1.44.48h.588c1.921 0 5.336-.16 8.111-1.334a2.908 2.908 0 0 0 1.815-2.668l.106-7.685c0-1.227-.8-2.295-1.974-2.668-1.868-.587-5.817-1.334-13.128-1.334z" fill="#FFF"/><path d="M30.471 16.916V15.85c-.267.053-.374.053-.64.107v.587h-.054v.586c-.053 0-.107 0-.16.053v-2.615c-.32.054-.48.107-.8.16v1.601a.405.405 0 0 0-.214.107v-2.668c-.213-.213-.373-.32-.587-.48l-.693.693v2.135c-.107 0-.214.053-.267.053v-4.215c-.16 0-.214.053-.374.053V11.9c.107 0 .16 0 .32-.053.054 0 .054-.053.107-.053v-.054c-.053 0-.053-.053-.053-.053-.16 0-.214 0-.32.053 0-.907-.054-.587-.054-1.494 0 .96-.053.587-.053 1.494-.16 0-.214.053-.374.053-.053 0-.053.054-.053.054v.107c.053 0 .053 0 .107.053.16 0 .213-.053.32-.053v.053c-.16.053-.267.053-.48.053v4.003c-.054-.054-.107-.054-.16-.107-.107.16-.16.213-.267.32v.374h-.107v.907h-.107v.373h-.16v-2.08h-.213v-.641c-.16 0-.214.053-.374.053v.64h-.053v.588c-.214.053-.374.053-.587.053v.107h-.107v.053h-.053v-.427h-.107v-.213c-.32.053-.427.053-.747.053v.96h-.267v.801h-.16v-.16h-.214v-.107h-.106v-.16h-.16v.374h-.107v-.694a6.963 6.963 0 0 0-.214-1.12c-.053.48-.106.693-.213 1.173v.64h-.053v-2.08c-.374.053-.587.053-.961.053v.427h-.16v.854h-.053c-.054-.107-.054-.214-.054-.32-.053.16-.053.213-.107.32h-.266v-.748h-.214v.16h-.533v-.106h-.267v.16h-.214v-.16h-.213v.694h-.214v.426h-.16v.48h-.107v-.746c-.053-.107-.106-.16-.16-.267l-.16.32v.534h-.106v-1.868h-.694v.32h-.053v.64h-.267v-.907h-.427v-.747h-.587v.374h-.534v1.44h-.053v.588l-.054.053V13.18h-.106v-.747h-.107v-.32h-.107v-.107h-.107v-.16h-.106v-.107h-.054v-.854c0-.16-.16-.16-.16-.16v-.373h-.053v.373c-.16 0-.214.16-.214.16v.96h-.16v.16h-.106v.161h-.107v.267H13.5v.747h-.053v3.789c-.054 0-.054.053-.107.053v.267h-.107v-2.135c-.213 0-.373 0-.587-.053v2.295l-.267-.267v-1.868h-.16v-.16c-.16 0-.266 0-.48-.053V13.98c-.16 0-.267 0-.427-.053v2.241c-.16 0-.213 0-.373-.053v-1.868c-.214 0-.32 0-.48-.053v2.881h-.107v-.16h-.214v-.427h-.213v-.16h-.054v-1.28c-.266 0-.427-.054-.693-.054v1.174h-.107v-1.174c-.267-.053-.374-.053-.587-.053v.96h-.213v.374c-.054 0-.054-.053-.054-.053l-.107.106v.16h-.106v.854h-.16v-2.721l-.054-.054v-.32l-.107-.106v-.694l-.16-.16v-.427l-.053-.054v-.213h-.053v-.374l-.054-.053v-.107c0-.053-.053-.053-.053-.106V10.94v1.014h-.053v.213c-.054.053-.054.107-.107.16v.16l-.107.107v.213H6.99v.214s-.054 0-.054.053v.16l-.053.054v.213H6.83v.64h-.107v.16h-.107v2.882H6.51v-.16h-.053v-1.44a9.843 9.843 0 0 1-1.227-.214v1.814c-.107 0-.214-.053-.214-.053v.267s-.053 0-.053.053v-.907c-.16 0-.214-.053-.32-.053v.907c-.054 0-.107 0-.16-.054V16.17c-.32-.053-.48-.106-.8-.16v1.601c-.108 0-.108 0-.214-.053v-.8c-.32-.054-.48-.107-.8-.16v2.134a71.414 71.414 0 0 0 27.749 0c.053-.587.053-1.014.053-1.815z" fill="#FFF"/><path d="M2.135 19.905V18.09s14.034 3.256 28.816 0c0 0 1.12 3.31-3.095 3.523-4.216.213-5.763.693-5.763.693l-3.469-1.014h-4.482L11.9 22.573l-6.083-.587-3.309-1.067-.373-1.014z" fill="#FFF"/></g></svg>