<svg xmlns="http://www.w3.org/2000/svg" baseProfile="tiny" version="1.2" viewBox="0 0 375 225"><path fill="none" d="M113.4 107.1h-5.5v10.2h5.5c3 0 4.5-1.8 4.5-5.3 0-1.7-.4-2.9-1.1-3.7s-1.8-1.2-3.4-1.2zm44.6 5.7c-.6 0-1.3.1-2 .3-.7.2-1.3.4-1.7.6l-.6.3v10.6c1.5.2 2.6.3 3.4.3 1.7 0 2.9-.5 3.6-1.4.7-1 1-2.5 1-4.7s-.3-3.7-.9-4.7c-.7-.8-1.6-1.3-2.8-1.3zm15.8-.1c-1.4 0-2.4.4-3.1 1.3-.7.8-1.1 2.2-1.1 4h8.2c0-1.9-.3-3.3-.9-4.1-.7-.8-1.7-1.2-3.1-1.2zm77.8 9.4c0 1.4.6 2.2 1.9 2.2 1 0 2.2-.2 3.3-.5l.6-.2v-4.2l-3.7.3c-1.4.2-2.1 1-2.1 2.4zm-110.9-9.4c-1.6 0-2.8.4-3.4 1.3-.6.9-.9 2.5-.9 4.8s.3 3.9.8 4.8c.6.9 1.7 1.4 3.5 1.4s2.9-.5 3.5-1.4c.5-.9.8-2.5.8-4.8s-.3-3.9-.9-4.8c-.6-.8-1.7-1.3-3.4-1.3z"/><path fill="none" d="M0-1v225h375V-1H0zm113.5 120.4H108v7.3h-2.4V105h8c2.4 0 4.1.6 5.3 1.7 1.1 1.2 1.7 2.9 1.7 5.3-.2 4.9-2.5 7.4-7.1 7.4zm18.4-6.4c-.9.2-1.8.4-2.8.8-1 .4-1.7.7-2.2.9l-.8.4v11.6h-2.4V111h2.3v2.1c1.8-1.3 3.7-2.1 5.8-2.5v2.4zm14.1 12.1c-1 1.3-2.7 2-5.3 2s-4.3-.7-5.3-2-1.4-3.4-1.4-6.3.5-5 1.5-6.2c1-1.3 2.8-1.9 5.2-1.9s4.2.6 5.2 1.9c1 1.3 1.5 3.4 1.5 6.2s-.4 5-1.4 6.3zm16.5.1c-1.1 1.3-2.8 1.9-5.3 1.9-1.3 0-2.5-.1-3.5-.3v7h-2.4V111h2.3v1.1c1.6-1 3.2-1.4 4.7-1.4 2 0 3.4.6 4.3 1.9s1.4 3.4 1.4 6.3-.5 5-1.5 6.3zm17.5-5.3h-10.4c0 1.7.3 3 .9 3.9.6.8 1.7 1.3 3.3 1.3s3.2-.1 4.8-.2l.9-.1.1 1.9c-2.4.3-4.4.5-6.1.5-2.3 0-3.9-.7-4.8-2-.9-1.3-1.4-3.4-1.4-6.1 0-5.5 2.2-8.3 6.6-8.3 2.1 0 3.7.6 4.8 1.8 1 1.2 1.6 3.1 1.6 5.6l-.3 1.7zm11.9-6.9c-.9.2-1.8.4-2.8.8-1 .4-1.7.7-2.2.9l-.8.4v11.6h-2.4V111h2.3v2.1c1.8-1.3 3.7-2.1 5.8-2.5v2.4zm8 14.1c-1.6 0-2.8-.4-3.4-1.2-.6-.8-.9-2.3-.9-4.6V113h-2.2v-2h2.2v-4.8h2.3v4.8h5v2h-5v7.5c0 1.8.1 3 .4 3.6.3.6.9.9 1.9.9l2.8-.2.2 2c-1.5.2-2.6.3-3.3.3zm11.5 6.6H209l2-7h-2.3l-4.5-15.8h2.4l3.9 13.7h1l4-13.7h2.4l-6.5 22.8zm21.2-8.3c-1.3 1.1-3.1 1.7-5.3 1.7-1.8 0-3.8-.2-5.9-.6l-1.1-.2.3-2.8c2.8.4 5 .6 6.5.6 2.6 0 3.9-1.2 3.9-3.5 0-.9-.3-1.6-.9-2-.6-.4-1.9-.9-4-1.4-2.1-.5-3.6-1.2-4.6-2.1-1-.9-1.5-2.3-1.5-4.3s.6-3.4 1.9-4.4c1.3-1 3-1.5 5.3-1.5 1.6 0 3.5.2 5.7.6l1.1.2-.3 2.8c-2.9-.3-5-.5-6.2-.5-2.7 0-4 .9-4 2.8 0 1 .3 1.7.9 2.1.6.4 2 .9 4.2 1.5s3.7 1.3 4.6 2.1c.9.8 1.3 2.1 1.3 3.9 0 2.2-.6 3.9-1.9 5zm10.7 1.7c-1.8 0-3-.4-3.7-1.2-.7-.8-1-2.4-1-4.6V114h-2v-3h2v-4.6h3.4v4.6h4.3v2.9H242v6.9c0 1.3.1 2.1.3 2.6.2.4.7.6 1.4.6l2.6-.1.2 2.7c-1.4.4-2.5.5-3.2.5zm18.8 0c-1.8 0-3.2-.4-4.2-1.2-1.7.8-3.4 1.2-5.1 1.2-3.1 0-4.7-1.7-4.7-5 0-1.6.4-2.8 1.3-3.5s2.2-1.1 3.9-1.3l4.1-.3v-1.1c0-.8-.2-1.4-.6-1.8s-.9-.5-1.6-.5c-1.3 0-3 .1-5 .3l-1 .1-.1-2.4c2.3-.5 4.4-.8 6.3-.8 1.9 0 3.3.4 4.2 1.2s1.3 2.1 1.3 4v7.2c0 .5.1.8.4 1 .2.2.6.4 1 .4l-.2 2.5zm11.8-13c-1.8.4-3.3.8-4.6 1.4l-.7.3v11h-3.4V111h3.4v1.9c1.8-1.2 3.6-1.9 5.4-2.2v3.4zm8 13c-1.8 0-3-.4-3.7-1.2-.7-.8-1-2.4-1-4.6V114h-2v-3h2v-4.6h3.4v4.6h4.3v2.9h-4.3v6.9c0 1.3.1 2.1.3 2.6.2.4.7.6 1.4.6l2.6-.1.2 2.7c-1.4.4-2.5.5-3.2.5zm54.6 5.3h-48v-32.2h48v32.2z"/><path fill="#384770" d="M113.5 105h-8v21.8h2.4v-7.3h5.5c4.6 0 7-2.5 7-7.4 0-2.4-.6-4.1-1.7-5.3-1.1-1.3-2.9-1.8-5.2-1.8zm-.1 12.3h-5.5v-10.2h5.5c1.6 0 2.7.4 3.4 1.2s1.1 2 1.1 3.7c0 3.5-1.5 5.3-4.5 5.3zm12.7-6.3h-2.3v15.8h2.4v-11.6l.8-.4c.5-.3 1.2-.6 2.2-.9 1-.4 1.9-.6 2.8-.8v-2.4c-2 .4-3.9 1.2-5.8 2.5V111zm14.6-.3c-2.4 0-4.2.6-5.2 1.9-1 1.3-1.5 3.4-1.5 6.2s.5 5 1.4 6.3c1 1.3 2.7 2 5.3 2s4.3-.7 5.3-2 1.4-3.4 1.4-6.3-.5-5-1.5-6.2c-1-1.3-2.7-1.9-5.2-1.9zm3.5 12.9c-.5.9-1.7 1.4-3.5 1.4s-2.9-.5-3.5-1.4c-.6-.9-.8-2.5-.8-4.8s.3-3.9.9-4.8c.6-.9 1.8-1.3 3.4-1.3s2.8.4 3.4 1.3c.6.9.9 2.5.9 4.8s-.2 3.9-.8 4.8zm14.2-12.9c-1.6 0-3.1.5-4.7 1.4V111h-2.3v22.7h2.4v-7c1.1.2 2.2.3 3.5.3 2.5 0 4.2-.6 5.3-1.9s1.6-3.4 1.6-6.3-.5-5-1.4-6.3-2.4-1.8-4.4-1.8zm2.2 12.9c-.7 1-1.9 1.4-3.6 1.4-.8 0-1.9-.1-3.4-.3v-10.6l.6-.3c.4-.2 1-.4 1.7-.6.7-.2 1.4-.3 2-.3 1.2 0 2.1.5 2.7 1.4.6.9.9 2.5.9 4.7.2 2-.2 3.6-.9 4.6zm13.2-12.9c-4.4 0-6.6 2.8-6.6 8.3 0 2.8.5 4.8 1.4 6.1.9 1.3 2.6 2 4.8 2 1.7 0 3.7-.2 6.1-.5l-.1-1.9-.9.1c-1.6.1-3.2.2-4.8.2s-2.7-.4-3.3-1.3c-.6-.8-.9-2.1-.9-3.9H180l.1-1.8c0-2.5-.5-4.4-1.6-5.6-1-1.1-2.6-1.7-4.7-1.7zm-4.2 7.3c0-1.8.4-3.2 1.1-4 .7-.8 1.8-1.3 3.1-1.3 1.4 0 2.4.4 3 1.2.6.8.9 2.2.9 4.1h-8.1zm16.5-7h-2.3v15.8h2.4v-11.6l.8-.4c.5-.3 1.2-.6 2.2-.9 1-.4 1.9-.6 2.8-.8v-2.4c-2 .4-3.9 1.2-5.8 2.5V111zm14 14c-1 0-1.6-.3-1.9-.9-.3-.6-.4-1.8-.4-3.6V113h5v-2h-5v-4.8h-2.3v4.8h-2.2v2h2.2v8.3c0 2.2.3 3.8.9 4.6.6.8 1.8 1.2 3.4 1.2.7 0 1.8-.1 3.2-.3l-.2-2-2.7.2zm11.5-.3h-1l-3.9-13.7h-2.4l4.5 15.8h2.3l-2.1 6.9h2.4L218 111h-2.4z"/><path d="M228.7 114.3c-2.2-.6-3.5-1.1-4.2-1.5-.6-.4-.9-1.1-.9-2.1 0-1.9 1.3-2.8 4-2.8 1.2 0 3.3.2 6.2.5l.3-2.8-1.1-.2c-2.2-.4-4.1-.6-5.7-.6-2.2 0-4 .5-5.3 1.5-1.3 1-1.9 2.5-1.9 4.4 0 2 .5 3.4 1.5 4.3 1 .9 2.5 1.6 4.6 2.1 2.1.5 3.4 1 4 1.4.6.4.9 1.1.9 2 0 2.3-1.3 3.5-3.9 3.5-1.5 0-3.7-.2-6.5-.6l-.3 2.8 1.1.2c2.2.4 4.1.6 5.9.6 2.2 0 4-.6 5.3-1.7 1.3-1.1 1.9-2.8 1.9-5.1 0-1.8-.4-3.1-1.3-3.9-1-.7-2.5-1.4-4.6-2zm15.1 9.7c-.8 0-1.3-.2-1.4-.6-.2-.4-.3-1.3-.3-2.6v-6.9h4.3V111H242v-4.6h-3.4v4.6h-2v2.9h2v7.3c0 2.3.3 3.8 1 4.6.7.8 1.9 1.2 3.7 1.2.7 0 1.8-.1 3.2-.4l-.2-2.7-2.5.1zm17-1v-7.2c0-1.8-.4-3.1-1.3-4s-2.2-1.2-4.2-1.2c-1.9 0-4 .3-6.3.8l.1 2.4 1-.1c2-.2 3.7-.3 5-.3.7 0 1.3.2 1.6.5s.6.9.6 1.8v1.1l-4.1.3c-1.8.1-3.1.6-3.9 1.3s-1.3 1.9-1.3 3.5c0 3.3 1.6 5 4.7 5 1.7 0 3.4-.4 5.1-1.2 1 .8 2.4 1.2 4.2 1.2l.1-2.6c-.5-.1-.8-.2-1-.4-.1-.1-.3-.4-.3-.9zm-3.4.6l-.6.2c-1.2.3-2.3.5-3.3.5-1.3 0-1.9-.7-1.9-2.2 0-1.4.7-2.2 2.2-2.4l3.7-.3v4.2zm11.1-12.6h-3.4v15.8h3.4v-11l.7-.3c1.3-.6 2.8-1 4.6-1.4v-3.4c-1.8.3-3.6 1.1-5.4 2.2V111zm13.9 13c-.8 0-1.3-.2-1.4-.6-.2-.4-.3-1.3-.3-2.6v-6.9h4.3V111h-4.3v-4.6h-3.4v4.6h-2v2.9h2v7.3c0 2.3.3 3.8 1 4.6.7.8 1.9 1.2 3.7 1.2.7 0 1.8-.1 3.2-.4l-.2-2.7-2.6.1z"/><path fill="#384770" d="M288.5 132.4h48v-32.2h-48v32.2zm25.9-24.1h11c1.3 0 2.4.2 3.3.7.9.5 1.6 1.2 2.1 2s.7 1.8.7 2.8c0 1.1-.3 2.1-.9 3-.6.9-1.5 1.5-2.6 2l4 7.6h-6.5l-3.2-6.6h-2.2v6.6h-5.8v-18.1zm-15.7 0l3.6 12.1h.1l3.6-12.1h5.9l-6.4 18h-6.7l-6.4-18h6.3z"/><path fill="#384770" d="M325.2 115.2c.3-.3.5-.7.5-1.2s-.2-.9-.5-1.2c-.3-.3-.7-.5-1.2-.5h-3.8v3.3h3.8c.5.1.9-.1 1.2-.4z"/><path fill="#FFF" d="M305.6 126.3l6.4-18h-5.9l-3.7 12h-.1l-3.6-12h-6.2l6.4 18zm14.6-6.6h2.2l3.2 6.6h6.5l-4-7.6c1.1-.4 2-1.1 2.6-2 .6-.9.9-1.9.9-3 0-1-.2-1.9-.7-2.8-.5-.8-1.2-1.5-2.1-2-.9-.5-2-.7-3.3-.7h-11v18h5.8v-6.5zm0-7.3h3.8c.5 0 .8.2 1.2.5.3.3.5.7.5 1.2s-.2.9-.5 1.2-.7.5-1.2.5h-3.8v-3.4z"/><path d="M65.9 96.1c1.6 0 3.1 0 4.5.1-.2-6.7-1.1-8.9-1.1-8.9h-6.8s-.9 2.2-1.1 8.9c1.4 0 2.9-.1 4.5-.1z"/><path fill="#1E4E70" d="M36.3 109.6l-.5.4c-.6.4-1 1.1-1 1.9v7.2c0 .8.4 1.5 1 1.9l.7.5-.2-11.9zm29.6-9.5c11 0 18 .9 22.4 1.8-.1-.1-.2-.1-.3-.2-3.4-2.1-10-4.7-22.1-4.7s-18.7 2.6-22.1 4.8c-.1.1-.2.1-.3.2 4.4-1 11.4-1.9 22.4-1.9zM96 110l-.5-.4-.2 11.9.7-.5c.6-.4 1-1.1 1-1.9v-7.2c0-.7-.4-1.5-1-1.9z"/><path d="M65.9 103.3c13.4 0 20.7 1.3 24.4 2.4 1.2.4 2.1 1.5 2.1 2.7l-.2 14.4c0 1.3-.8 2.5-2 3-4.9 2.1-11.1 2.4-14.4 2.4h-1.1c-.5 0-1-.2-1.4-.5l-1.2-.9c-1.2-.9-2.6-1.3-4.1-1.3h-4c-1.5 0-2.9.5-4.1 1.3l-1.2.9c-.4.3-.9.5-1.4.5h-1.1c-3.2 0-9.4-.3-14.4-2.4-1.2-.5-2-1.7-2-3l-.2-14.4c0-1.3.8-2.4 2.1-2.8 3.6-1 10.8-2.3 24.2-2.3m0-2.3c-13.7 0-21.1 1.3-25 2.5-2.2.6-3.7 2.7-3.7 5l.2 14.4c0 2.2 1.4 4.2 3.4 5 5.3 2.2 11.7 2.5 15.2 2.5h1.1c1 0 1.9-.3 2.7-.9l1.2-.9c.8-.6 1.8-.9 2.8-.9h3.8c1 0 2 .3 2.8.9l1.2.9c.8.6 1.7.9 2.7.9h1.1c3.6 0 10-.3 15.2-2.5 2-.8 3.4-2.8 3.4-5l.2-14.4c0-2.3-1.5-4.3-3.7-5-3.5-1.1-10.9-2.5-24.6-2.5z"/><path d="M91.9 119v-2c-.5.1-.7.1-1.2.2v1.1h-.1v1.1c-.1 0-.2 0-.3.1v-4.9c-.6.1-.9.2-1.5.3v3c-.1 0-.3.1-.4.2v-5c-.4-.4-.7-.6-1.1-.9l-1.3 1.3v4c-.2 0-.4.1-.5.1v-7.9c-.3 0-.4.1-.7.1v-.2c.2 0 .3 0 .6-.1.1 0 .1-.1.2-.1v-.1c-.1 0-.1-.1-.1-.1-.3 0-.4 0-.6.1 0-1.7-.1-1.1-.1-2.8 0 1.8-.1 1.1-.1 2.8-.3 0-.4.1-.7.1-.1 0-.1.1-.1.1v.2c.1 0 .1 0 .2.1.3 0 .4-.1.6-.1v.1c-.3.1-.5.1-.9.1v7.5c-.1-.1-.2-.1-.3-.2-.2.3-.3.4-.5.6v.7h-.2v1.7h-.2v.7h-.3V117h-.4v-1.2c-.3 0-.4.1-.7.1v1.2h-.1v1.1c-.4.1-.7.1-1.1.1v.2h-.2v.1h-.1v-.8h-.2v-.4c-.6.1-.8.1-1.4.1v1.8h-.5v1.5h-.3v-.3h-.4v-.2h-.2v-.3h-.3v.7h-.2v-1.3c-.1-.9-.2-1.3-.4-2.1-.1.9-.2 1.3-.4 2.2v1.2h-.1v-3.9c-.7.1-1.1.1-1.8.1v.8h-.3v1.6h-.1c-.1-.2-.1-.4-.1-.6-.1.3-.1.4-.2.6h-.5v-1.4h-.4v.3h-1v-.2h-.5v.3H70v-.3h-.4v1.3h-.4v.8h-.3v.9h-.2v-1.4c-.1-.2-.2-.3-.3-.5l-.3.6v1h-.2v-3.5h-1.3v.6h-.1v1.2H66v-1.7h-.8v-1.4h-1.1v.7h-1v2.7H63v1.1l-.1.1V112h-.2v-1.4h-.2v-.6h-.2v-.2h-.2v-.3h-.2v-.2h-.1v-1.6c0-.3-.3-.3-.3-.3v-.7h-.1v.7c-.3 0-.4.3-.4.3v1.8h-.3v.3h-.2v.3h-.2v.5h-.2v1.4H60v7.1c-.1 0-.1.1-.2.1v.5h-.2v-4c-.4 0-.7 0-1.1-.1v4.3l-.5-.5v-3.5h-.3v-.3c-.3 0-.5 0-.9-.1v-2c-.3 0-.5 0-.8-.1v4.2c-.3 0-.4 0-.7-.1V114c-.4 0-.6 0-.9-.1v5.4h-.2v-.3h-.4v-.8h-.4v-.3h-.1v-2.4c-.5 0-.8-.1-1.3-.1v2.2h-.2v-2.2c-.5-.1-.7-.1-1.1-.1v1.8h-.4v.7c-.1 0-.1-.1-.1-.1l-.2.2v.3h-.2v1.6h-.3v-5.1l-.1-.1v-.6l-.2-.2v-1.3l-.3-.3v-.8l-.1-.1v-.4h-.1v-.7l-.1-.1v-.2c0-.1-.1-.1-.1-.2v-1.9 1.9h-.1v.4c-.1.1-.1.2-.2.3v.3l-.2.2v.4h-.1v.4s-.1 0-.1.1v.3l-.1.1v.4h-.1v1.2h-.2v.3h-.2v5.4H47v-.3h-.1v-2.7c-.9-.1-1.4-.2-2.3-.4v3.4c-.2 0-.4-.1-.4-.1v.5s-.1 0-.1.1v-1.7c-.3 0-.4-.1-.6-.1v1.7c-.1 0-.2 0-.3-.1v-2.2c-.6-.1-.9-.2-1.5-.3v3c-.2 0-.2 0-.4-.1v-1.5c-.6-.1-.9-.2-1.5-.3v4c17.3 3.4 34.7 3.4 52 0 .1-1.1.1-1.9.1-3.4z"/><path d="M38.8 124.6v-3.4s26.3 6.1 54 0c0 0 2.1 6.2-5.8 6.6s-10.8 1.3-10.8 1.3l-6.5-1.9h-8.4l-4.2 2.4-11.4-1.1-6.2-2-.7-1.9z"/></svg>