<svg xmlns="http://www.w3.org/2000/svg" width="232" height="36"><g fill="none" fill-rule="evenodd"><path fill="#384770" d="M60.443 14H54v16h1.933v-5.358h4.43c3.704 0 5.637-1.835 5.637-5.431 0-1.761-.483-3.01-1.37-3.89-.885-.954-2.335-1.321-4.187-1.321zm-.08 9.028h-4.43V15.54h4.43c1.288 0 2.174.294 2.738.881.564.587.886 1.468.886 2.716 0 2.568-1.209 3.89-3.625 3.89zm9.32-4.786H68V31h1.756v-9.366l.586-.323c.365-.243.877-.485 1.61-.727.73-.323 1.39-.485 2.048-.646V18c-1.463.323-2.854.969-4.244 2.019v-1.777h-.073zM81 18c-1.791 0-3.134.476-3.88 1.506-.747 1.03-1.12 2.695-1.12 4.915s.373 3.963 1.045 4.994C77.79 30.445 79.06 31 81 31s3.209-.555 3.955-1.585C85.701 28.384 86 26.719 86 24.42s-.373-3.964-1.12-4.915C84.135 18.476 82.867 18 81 18zm2.612 10.226c-.373.713-1.269 1.11-2.612 1.11-1.343 0-2.164-.397-2.612-1.11-.448-.714-.597-1.982-.597-3.805 0-1.824.224-3.092.672-3.805.447-.713 1.343-1.03 2.537-1.03s2.09.317 2.537 1.03c.448.713.672 1.981.672 3.805 0 1.823-.15 3.091-.597 3.805zM94.469 18c-1.25 0-2.422.391-3.672 1.096v-.861H89V36h1.875v-5.478c.86.156 1.719.235 2.734.235 1.953 0 3.282-.47 4.14-1.487.86-1.018 1.251-2.661 1.251-4.93 0-2.27-.39-3.914-1.094-4.931C97.203 18.39 96.031 18 94.47 18zm1.719 10.096c-.547.782-1.485 1.095-2.813 1.095-.625 0-1.484-.078-2.656-.234V20.66l.468-.235c.313-.156.782-.313 1.329-.47a5.828 5.828 0 0 1 1.562-.234c.938 0 1.64.391 2.11 1.095.468.705.703 1.957.703 3.679.156 1.565-.157 2.817-.703 3.6zM107.116 18c-3.41 0-5.116 2.22-5.116 6.58 0 2.219.388 3.804 1.085 4.835.698 1.03 2.016 1.585 3.721 1.585 1.318 0 2.868-.159 4.729-.396l-.078-1.507-.697.08c-1.24.079-2.48.158-3.721.158-1.24 0-2.093-.317-2.558-1.03-.465-.634-.698-1.665-.698-3.092h8.14l.077-1.426c0-1.982-.388-3.488-1.24-4.44-.776-.871-2.016-1.347-3.644-1.347zm-3.256 5.787c0-1.427.31-2.537.853-3.171.543-.634 1.396-1.03 2.403-1.03 1.085 0 1.86.317 2.326.95.465.635.697 1.745.697 3.25h-6.279zm12.823-5.545H115V31h1.756v-9.366l.585-.323c.366-.243.879-.485 1.61-.727.732-.323 1.39-.485 2.049-.646V18c-1.463.323-2.854.969-4.244 2.019v-1.777h-.073zm9.925 10.15c-.825 0-1.32-.23-1.567-.689-.247-.46-.33-1.378-.33-2.756v-5.741h4.124v-1.531h-4.124V14h-1.897v3.675H121v1.53h1.814v6.355c0 1.684.248 2.909.743 3.521.494.613 1.484.919 2.804.919.577 0 1.484-.077 2.639-.23l-.165-1.53-2.227.152zm8.72-.132h-.73L131.753 18H130l3.285 11.833h1.679L133.43 35h1.752L140 18h-1.752z"/><path fill="#000" d="M149.524 20.275c-1.67-.46-2.655-.843-3.186-1.149-.455-.306-.683-.842-.683-1.608 0-1.455.986-2.144 3.034-2.144.911 0 2.503.153 4.704.383l.227-2.144-.834-.154c-1.669-.306-3.11-.459-4.324-.459-1.67 0-3.034.383-4.02 1.149-.987.765-1.442 1.914-1.442 3.369 0 1.532.38 2.604 1.138 3.293.758.69 1.897 1.225 3.49 1.608 1.593.383 2.58.766 3.034 1.072.455.306.683.842.683 1.532 0 1.76-.987 2.68-2.959 2.68-1.138 0-2.807-.154-4.93-.46l-.228 2.144.834.154c1.669.306 3.11.459 4.476.459 1.67 0 3.034-.46 4.02-1.302.987-.842 1.442-2.144 1.442-3.905 0-1.379-.304-2.374-.987-2.987-.759-.536-1.896-1.072-3.49-1.531zm11.294 8.395c-.647 0-1.05-.156-1.131-.466-.162-.31-.243-1.01-.243-2.02v-5.359h3.476v-2.252h-3.556V15h-2.748v3.573H155v2.252h1.616v5.67c0 1.786.242 2.952.808 3.573.567.621 1.536.932 2.991.932.565 0 1.454-.078 2.585-.31l-.162-2.098-2.02.078zm13.167-.78v-5.743c0-1.435-.311-2.472-1.013-3.19-.703-.718-1.718-.957-3.278-.957-1.482 0-3.12.24-4.915.638l.08 1.914.778-.08c1.562-.16 2.888-.239 3.901-.239.547 0 1.015.16 1.249.399.233.24.467.718.467 1.435v.878l-3.197.239c-1.405.08-2.42.479-3.044 1.037-.624.558-1.013 1.515-1.013 2.791 0 2.632 1.247 3.988 3.667 3.988 1.326 0 2.652-.319 3.978-.957.78.638 1.873.957 3.278.957l.077-2.074c-.39-.08-.624-.16-.78-.319-.078-.08-.235-.319-.235-.717zm-2.652.478l-.468.16c-.937.239-1.795.398-2.574.398-1.015 0-1.483-.558-1.483-1.754 0-1.117.546-1.755 1.717-1.914l2.886-.24v3.35h-.078zm8.402-10.126H177V31h2.735v-8.882l.564-.242c1.046-.485 2.252-.808 3.701-1.13V18c-1.449.242-2.898.888-4.345 1.776v-1.534h.08zm11.003 10.428c-.647 0-1.051-.156-1.132-.466-.162-.31-.242-1.01-.242-2.02v-5.359h3.474v-2.252h-3.474V15h-2.748v3.573H185v2.252h1.616v5.67c0 1.786.242 2.952.808 3.573.567.621 1.536.932 2.99.932.566 0 1.455-.078 2.586-.31l-.162-2.098-2.1.078z"/><path fill="#384770" d="M195 34h37V9h-37v25zm19.964-18.711h8.48c1.002 0 1.85.155 2.544.543a4.468 4.468 0 0 1 1.618 1.553c.386.621.54 1.398.54 2.174a4.13 4.13 0 0 1-.693 2.33c-.464.698-1.157 1.164-2.005 1.552l3.084 5.9h-5.01l-2.468-5.124h-1.696v5.125h-4.47V15.289h.076zm-12.102 0l2.775 9.394h.078l2.775-9.394h4.547l-4.933 13.975h-5.164l-4.934-13.975h4.856z"/><path fill="#384770" d="M222.636 21.744c.218-.18.364-.421.364-.722 0-.3-.146-.54-.364-.721a1.34 1.34 0 0 0-.873-.301H219v1.984h2.763c.363.06.655-.06.873-.24z"/><path fill="#FFF" d="M208.076 30L213 16h-4.54l-2.845 9.333h-.078L202.768 16H198l4.923 14zm12.134-5.105h1.626L224.198 30H229l-2.955-5.878a3.904 3.904 0 0 0 1.921-1.547c.443-.697.664-1.47.664-2.32 0-.774-.148-1.47-.516-2.167a4.365 4.365 0 0 0-1.552-1.546c-.664-.387-1.476-.542-2.437-.542H216v13.923h4.284v-5.028h-.073zm0-5.646h2.806c.37 0 .591.154.888.386.221.232.37.542.37.929 0 .386-.149.696-.37.928a1.198 1.198 0 0 1-.888.386h-2.805v-2.63z"/><path fill="#000" d="M23.5 6.921c1.244 0 2.411 0 3.5.079-.156-5.27-.856-7-.856-7h-5.288s-.7 1.73-.856 7c1.089 0 2.256-.079 3.5-.079z"/><path fill="#1E4E70" d="M1.694 17l-.534.303c-.64.302-1.067.831-1.067 1.437v5.445c0 .605.427 1.134 1.067 1.437l.747.378-.213-9zM24 9.48c8.348 0 13.66.72 17 1.44-.076-.08-.152-.08-.228-.16C38.192 9.08 33.183 7 24 7 14.817 7 9.808 9.08 7.228 10.84c-.076.08-.152.08-.228.16 3.34-.8 8.652-1.52 17-1.52zm22.84 7.823L46.306 17l-.213 9 .747-.378c.64-.303 1.067-.832 1.067-1.437V18.74c0-.53-.427-1.135-1.067-1.437z"/><path fill="#000" d="M24.154 11.8c10.344 0 15.98 1.016 18.835 1.877.927.313 1.621 1.173 1.621 2.112l-.154 11.265a2.563 2.563 0 0 1-1.544 2.347c-3.782 1.643-8.568 1.878-11.115 1.878h-.85c-.386 0-.772-.157-1.08-.391l-.927-.704c-.926-.704-2.007-1.017-3.165-1.017h-3.087c-1.158 0-2.239.39-3.165 1.017l-.926.704c-.31.234-.695.39-1.081.39h-.85c-2.47 0-7.255-.234-11.115-1.877a2.563 2.563 0 0 1-1.544-2.347L3.853 15.79c0-1.017.617-1.877 1.62-2.19 2.78-.783 8.338-1.8 18.681-1.8zm0-1.8C13.58 10 7.867 11.017 4.856 11.956 3.158 12.426 2 14.068 2 15.867l.154 11.266c0 1.72 1.081 3.285 2.625 3.911C8.87 32.765 13.811 33 16.512 33h.85c.771 0 1.466-.235 2.084-.704l.926-.704a3.579 3.579 0 0 1 2.161-.704h2.934c.772 0 1.544.234 2.161.704l.926.704c.618.47 1.313.704 2.085.704h.849c2.779 0 7.719-.235 11.733-1.956a4.263 4.263 0 0 0 2.625-3.911L46 15.867a4.101 4.101 0 0 0-2.856-3.911C40.442 11.096 34.73 10 24.154 10z"/><path fill="#000" d="M44 24.485v-1.517c-.384.075-.537.075-.921.151v.835h-.077v.835c-.077 0-.154 0-.23.076v-3.719c-.461.076-.691.152-1.152.228v2.276c-.077 0-.23.076-.307.152v-3.794c-.307-.303-.538-.455-.845-.683l-.998.987v3.035c-.153 0-.307.076-.384.076v-5.995c-.23 0-.307.076-.537.076v-.152c.154 0 .23 0 .46-.076.077 0 .077-.075.154-.075v-.076c-.077 0-.077-.076-.077-.076-.23 0-.307 0-.46.076 0-1.29-.077-.835-.077-2.125 0 1.366-.077.835-.077 2.125-.23 0-.307.076-.537.076-.077 0-.077.075-.077.075v.152c.077 0 .077 0 .154.076.23 0 .307-.076.46-.076v.076c-.23.076-.384.076-.69.076v5.691c-.078-.076-.154-.076-.231-.152-.154.228-.23.304-.384.456v.53h-.154v1.29h-.153v.532h-.23v-2.96h-.308v-.91c-.23 0-.307.076-.537.076v.91h-.077v.835c-.307.076-.537.076-.844.076v.152h-.154v.076h-.077v-.607h-.153v-.304c-.46.076-.614.076-1.075.076v1.366h-.384v1.138h-.23v-.228h-.307v-.151h-.154v-.228h-.23v.531h-.154v-.986c-.077-.683-.153-.987-.307-1.594-.077.683-.153.987-.307 1.67v.91h-.077v-2.96c-.537.077-.844.077-1.382.077v.607h-.23v1.214h-.077c-.076-.152-.076-.304-.076-.455-.077.227-.077.303-.154.455h-.384V23.65h-.307v.228h-.768v-.152h-.384v.228h-.307v-.228h-.307v.987h-.307v.607h-.23v.683h-.154V24.94c-.077-.151-.153-.227-.23-.379l-.23.455v.759h-.154v-2.656h-.998v.456h-.077v.91h-.384v-1.29h-.614v-1.062h-.845v.531h-.767v2.049h-.077v.835l-.077.075v-6.45h-.153v-1.062h-.154v-.455h-.153v-.152h-.154v-.228h-.154v-.151h-.076V15.91c0-.228-.23-.228-.23-.228v-.531h-.077v.531c-.23 0-.308.228-.308.228v1.365h-.23v.228h-.154v.228h-.153v.38h-.154v1.062h-.076v5.387c-.077 0-.077.076-.154.076v.379h-.154V21.98c-.307 0-.537 0-.844-.076v3.263l-.384-.38v-2.655h-.23v-.228c-.23 0-.384 0-.691-.076v-1.517c-.23 0-.384 0-.614-.076v3.187c-.23 0-.307 0-.538-.076V20.69c-.307 0-.46 0-.69-.076v4.098h-.154v-.228h-.307v-.607h-.307v-.228h-.077v-1.82c-.384 0-.614-.077-.998-.077v1.67h-.154v-1.67c-.384-.075-.537-.075-.844-.075v1.365h-.308v.532c-.076 0-.076-.076-.076-.076l-.154.151v.228h-.153v1.214h-.23v-3.87l-.078-.076v-.455l-.153-.152v-.986l-.23-.228v-.607l-.077-.076v-.303h-.077v-.531l-.077-.076v-.152c0-.076-.077-.076-.077-.152v-1.441 1.441h-.076v.304c-.077.076-.077.152-.154.227v.228l-.153.152v.303h-.077v.304s-.077 0-.077.076v.227l-.077.076v.304h-.077v.91h-.153v.228h-.154v4.098h-.153v-.228H9.45v-2.049a14.313 14.313 0 0 1-1.766-.303v2.58c-.153 0-.307-.076-.307-.076v.379s-.077 0-.077.076v-1.29c-.23 0-.307-.076-.46-.076v1.29c-.077 0-.154 0-.23-.076v-1.67c-.461-.075-.692-.151-1.152-.227v2.277c-.154 0-.154 0-.307-.076v-1.138c-.461-.076-.691-.152-1.152-.228v3.035c13.282 2.58 26.641 2.58 39.923 0 .077-.835.077-1.442.077-2.58z"/><path fill="#000" d="M3 28.429V26s20.36 4.357 41.804 0c0 0 1.626 4.429-4.49 4.714-6.116.286-8.36.929-8.36.929l-5.033-1.357h-6.503L17.167 32l-8.825-.786-4.8-1.428L3 28.429z"/></g></svg>