<svg xmlns="http://www.w3.org/2000/svg" width="17" height="17"><path fill="#293B5F" fill-rule="evenodd" d="M14.297 10.635c-.614-.607-1.381-.607-1.992 0-.466.462-.931.923-1.39 1.393-.124.129-.23.156-.383.07-.3-.164-.622-.297-.911-.477-1.35-.85-2.481-1.941-3.483-3.17-.497-.61-.94-1.264-1.248-2-.063-.148-.051-.246.07-.367.466-.45.92-.912 1.377-1.374.638-.642.638-1.393-.003-2.039-.364-.368-.728-.728-1.092-1.095C4.866 1.2 4.494.82 4.115.449c-.615-.6-1.382-.6-1.992.004-.47.461-.92.935-1.397 1.389-.442.418-.665.931-.712 1.53-.075.974.164 1.894.5 2.79.69 1.855 1.738 3.502 3.01 5.013A18.622 18.622 0 0 0 9.69 16c1.08.524 2.2.927 3.416.994.838.047 1.566-.165 2.149-.818.399-.446.849-.853 1.272-1.28.626-.634.63-1.4.007-2.027-.743-.747-1.49-1.49-2.238-2.234z"/></svg>