<svg xmlns="http://www.w3.org/2000/svg" width="136" height="48" viewBox="0 0 136 48"><defs><clipPath id="a"><path d="M44 .04h33.362v47.957H44z"/></clipPath></defs><path d="M34.905 32.2c-.198.526-.549 1.008-1.054 1.445-.505.438-1.22.657-2.142.657-.68 0-1.235-.24-1.664-.722-.428-.482-.642-1.16-.642-2.036 0-.569.115-1.04.346-1.412.23-.372.543-.667.939-.886a4.276 4.276 0 0 1 1.35-.46 9.052 9.052 0 0 1 1.55-.13 13.246 13.246 0 0 1 1.317.065zm-6.359-9.564c.482-.285 1.084-.52 1.807-.707a8.068 8.068 0 0 1 2.005-.28c.985 0 1.664.253 2.037.757.372.505.558 1.382.558 2.631 0 .527-.033 1.13-.098 1.81a7.627 7.627 0 0 0-.69-.034h-.657c-.986 0-1.879.083-2.678.247-.8.164-1.49.444-2.07.839-.58.394-1.03.91-1.348 1.545-.317.636-.476 1.426-.476 2.368 0 1.448.378 2.582 1.134 3.404.755.823 1.725 1.234 2.908 1.234 1.073 0 1.927-.209 2.562-.625.636-.417 1.118-.91 1.446-1.48h.132l.558 1.94h1.807a12.808 12.808 0 0 1-.312-2.022 30.376 30.376 0 0 1-.082-2.319c0-1.118.027-2.302.082-3.552.055-1.25.082-2.532.082-3.848 0-.658-.049-1.288-.148-1.891a4 4 0 0 0-.624-1.612 3.295 3.295 0 0 0-1.314-1.118c-.559-.274-1.298-.411-2.218-.411-1.008 0-1.966.11-2.875.329-.91.22-1.681.526-2.317.92zm-7.35-6.643c.297.307.686.46 1.168.46.483 0 .883-.148 1.2-.444.319-.296.478-.707.478-1.233 0-.548-.16-.981-.477-1.3-.318-.317-.718-.476-1.2-.476-.483 0-.872.164-1.168.493-.296.33-.444.757-.444 1.283 0 .504.148.91.444 1.217zM21.18 36.22h2.368V19.775H21.18zm-6.906 0h2.466V13.197h-2.17L9.308 24.478l-.79 2.73h-.066l-.822-2.697-5.558-11.314H0V36.22h2.368V21.09l-.46-3.486h.131l1.02 3.256 4.867 9.999h.822l4.638-9.999 1.052-3.256h.132l-.296 3.487zm118.65-7.302a13.228 13.228 0 0 0-1.313-.066c-.526 0-1.04.044-1.544.132a4.246 4.246 0 0 0-1.346.46c-.394.22-.706.516-.936.888-.23.373-.345.845-.345 1.415 0 .877.214 1.556.64 2.039.428.482.98.723 1.659.723.92 0 1.63-.219 2.134-.657.504-.439.854-.921 1.05-1.448zm-7.13-7.959c.635-.395 1.407-.702 2.315-.92.908-.22 1.866-.33 2.873-.33.92 0 1.658.137 2.216.411.558.275.996.647 1.313 1.119.318.471.526 1.008.624 1.611.099.603.148 1.234.148 1.891a88 88 0 0 1-.082 3.848 81.372 81.372 0 0 0-.082 3.552c0 .834.027 1.606.082 2.319.054.713.158 1.387.312 2.023h-1.806l-.558-1.94h-.132c-.328.57-.81 1.063-1.444 1.48-.635.416-1.489.624-2.561.624-1.182 0-2.15-.411-2.906-1.233-.755-.822-1.133-1.957-1.133-3.404 0-.943.16-1.732.476-2.368a3.996 3.996 0 0 1 1.347-1.546c.58-.395 1.27-.674 2.068-.839.799-.164 1.69-.246 2.676-.246h.657c.218 0 .448.01.69.033.065-.68.098-1.283.098-1.81 0-1.25-.186-2.126-.559-2.63-.372-.505-1.05-.757-2.035-.757-.613 0-1.28.093-2.003.28-.722.186-1.324.422-1.806.707zm-3.791-.984v16.452h-2.367V22.114h-5.094v14.313h-2.367V22.114h-2.004v-2.139h2.004v-.92c0-2.063.417-3.56 1.25-4.492.832-.932 2.048-1.399 3.648-1.399 1.073 0 2.01.105 2.81.313.8.208 1.451.444 1.955.707l-.755 1.975a5.724 5.724 0 0 0-1.759-.658 10.11 10.11 0 0 0-2.021-.198c-.614 0-1.101.104-1.463.313a2.08 2.08 0 0 0-.838.921c-.197.406-.323.9-.378 1.48a21.035 21.035 0 0 0-.082 1.958zM99.118 28.19c0 .964.06 1.84.18 2.629.121.788.319 1.468.593 2.037.274.57.63 1.014 1.069 1.331.439.318.965.477 1.579.477 1.14 0 1.996-.51 2.566-1.528.57-1.02.855-2.668.855-4.946 0-.942-.06-1.813-.18-2.613-.122-.8-.319-1.484-.593-2.054-.274-.57-.63-1.013-1.07-1.33-.438-.319-.964-.477-1.578-.477-1.119 0-1.968.514-2.55 1.544-.58 1.03-.871 2.673-.871 4.93zm-2.467.005c0-2.96.51-5.136 1.528-6.529 1.019-1.392 2.47-2.088 4.355-2.088 2.016 0 3.5.712 4.453 2.138.954 1.425 1.43 3.584 1.43 6.479 0 2.982-.515 5.163-1.545 6.545-1.03 1.38-2.476 2.072-4.338 2.072-2.016 0-3.5-.713-4.454-2.138-.953-1.425-1.43-3.585-1.43-6.48zm-13.356 5.163c.416.285 1.002.554 1.758.806s1.616.378 2.58.378c1.227 0 2.224-.301 2.99-.904.768-.603 1.151-1.551 1.151-2.845 0-.855-.219-1.6-.657-2.237a8.532 8.532 0 0 0-1.643-1.76 30.453 30.453 0 0 0-2.12-1.578 16.823 16.823 0 0 1-2.12-1.71 8.572 8.572 0 0 1-1.644-2.154c-.438-.811-.657-1.787-.657-2.927 0-1.842.553-3.207 1.66-4.095C85.699 13.444 87.14 13 88.915 13c1.095 0 2.07.099 2.925.296.855.197 1.545.45 2.07.756l-.788 2.171c-.395-.241-.959-.46-1.693-.658-.734-.197-1.583-.296-2.547-.296-1.183 0-2.06.29-2.63.872-.57.58-.854 1.31-.854 2.187 0 .767.22 1.447.657 2.04a9.102 9.102 0 0 0 1.644 1.676 46.419 46.419 0 0 0 2.12 1.596 16.523 16.523 0 0 1 2.12 1.792 9.208 9.208 0 0 1 1.643 2.236c.438.834.657 1.82.657 2.96 0 1.93-.57 3.443-1.709 4.54-1.14 1.095-2.75 1.644-4.831 1.644-1.315 0-2.394-.121-3.238-.362-.843-.241-1.517-.515-2.021-.822z"/><path fill="#196da8" d="M58.18 44.042h5.296V37.38H58.18z"/><path fill="#e9e53c" d="M65.177 36.685l-8.727.7 1.166-7.129 4.996-.566 2.565 6.995"/><g clip-path="url(#a)"><path fill="#e5da9e" d="M74.25 16.926c.252 5.342-5.116 9.477-11.597 10.842-.299.063-1.966 4.272-2.271 4.286-.252.013-2.588-4.112-2.84-4.125-6.692-.336-9.55-3.724-10.032-9.209-.05-.575-3.25-1.16-3.25-1.78 0-1.599 3.225-1.063 3.322-1.574a8.997 8.997 0 0 1 .932-2.599c.564-1.046 3.332-.913 4.265-1.764.821-.75.583-2.485 1.632-3.031 2.09-1.089 3.764-1.752 6.432-1.752 6.016 0 10.885 2.344 12.68 7.06.185.486 3.107-.51 3.364.812.175.9-2.671 2.09-2.636 2.834"/></g><g clip-path="url(#a)"><path fill="#1a1919" d="M77.352 14.78c-.01.101-.032.161-.094.32-.246.635-.736.93-1.542.93h-.033l-.05.001c-.722.004-.85.229-.87.902l-.008.24c-.025.919-.051 1.87-.447 2.739a1.386 1.386 0 0 0-.09.278c-.134.625-.426 1.216-.946 1.917-.312.422-.655.865-1.04 1.253a7.016 7.016 0 0 1-1.164.945 31.88 31.88 0 0 1-2.323 1.375c-.366.194-.764.348-1.148.497-.17.065-.345.133-.515.203l-.353.146c-.471.194-.959.396-1.44.59a7.003 7.003 0 0 1-.39.14l-.24.081c-.074.027-.148.051-.222.076a3.83 3.83 0 0 0-.556.217c-.262.135-.338.302-.356.418-.018.116.004.298.213.506.277.274.54.5.805.69l.05.037c.465.334.945.678 1.452.961.49.273 1.02.477 1.489.657.654.251 1.327.485 1.977.71l.203.071c.132.046.268.08.4.111.078.019.155.037.231.059.142.039.283.08.424.122a19.29 19.29 0 0 0 2.468.56c.381.055.746-.197.909-.628.251-.664.441-1.176.615-1.66.09-.25.246-.377.493-.402.111-.011.195.006.248.052.052.044.082.121.088.229a.373.373 0 0 1-.015.156c-.205.451-.419.908-.625 1.35l-.065.137a1.536 1.536 0 0 1-.056.106 1.072 1.072 0 0 0-.1.218c-.056.19-.043.335.039.43.082.098.226.135.428.11.146-.017.247-.002.307.046.051.04.082.11.094.217.016.133-.007.239-.067.313-.057.071-.148.113-.27.125-.343.032-.542.123-.628.285-.086.164-.046.386.126.698.259.467.49.962.713 1.44l.03.066a.455.455 0 0 1 .023.36.292.292 0 0 1-.167.167c-.224.085-.498-.058-.597-.312-.165-.424-.328-.857-.486-1.276l-.054-.144c-.05-.134-.204-.542-.631-.42a.682.682 0 0 0-.36.258c-.358.538-.901.88-1.426 1.21-.176.11-.323.1-.438-.03a.334.334 0 0 1-.065-.237.415.415 0 0 1 .128-.283c.167-.147.35-.284.527-.417.11-.083.225-.168.335-.256l.05-.04c.14-.111.287-.227.406-.367.145-.173.202-.334.169-.48-.033-.141-.15-.258-.347-.347-.245-.11-.505-.186-.757-.26l-.078-.024c-.34-.1-.686-.197-1.02-.291l-.463-.13-.027-.01a.45.45 0 0 0-.043-.016l-2.244-.658a1.365 1.365 0 0 0-.046-.012.543.543 0 0 1-.086-.028c-.216-.098-.433-.193-.65-.289-.83-.363-1.687-.74-2.437-1.282-.11-.08-.222-.166-.329-.248a8.48 8.48 0 0 0-.536-.392c-.118-.078-.356-.157-.488-.08-.116.068-.147.244-.173.399l-.008.046a.573.573 0 0 0 .045.318l.078-.034.915 2.545-.077.035c.085.19.18.38.272.563l.01.02c.017.035.038.067.058.099.02.031.04.061.054.091l.136.285c.12.25.244.51.346.771.173.444.342.92.547 1.545.055.17.067.362.071.493.013.42-.141.586-.57.608l-.213.009a6.7 6.7 0 0 0-.565.038c-.391.05-.544.213-.546.582-.002.515.021.973.071 1.401.094.798.214 1.671.366 2.67.08.52.182 1.067.32 1.72.056.264.032.471-.073.616-.102.141-.284.227-.54.255-.13.014-.26.012-.398.01a6.097 6.097 0 0 0-.245 0c-.243.008-.425.079-.54.212-.116.132-.162.319-.137.556.045.419.096.907.141 1.387.044.465.216.627.683.644.05.002.1-.001.15-.004.083-.005.16-.01.225.01.156.05.265.13.272.164.015.077-.021.197-.104.336l-.006.01c-.01.025-.113.041-.146.047a2.102 2.102 0 0 1-.417.045l-.052.002c-.183 0-.238-.002-.294-.003-.057 0-.113-.002-.297-.002h-.013c-.304 0-.345-.123-.379-.223l-.007-.02c-.035-.102-.064-.172-.087-.228a1.457 1.457 0 0 1-.106-.357 23.718 23.718 0 0 1-.176-1.154 38.41 38.41 0 0 0-.102-.719c-.053-.344-.211-.532-.47-.558a21.827 21.827 0 0 0-1.598-.103.566.566 0 0 0-.42.15c-.1.101-.15.24-.144.402.01.267.072.534.133.79l.018.077c.042.182.092.364.14.54.063.232.128.472.177.71.048.233.006.536-.167.664-.062.047-.29.053-.364.055l-.043.001c-.216 0-.285 0-.353-.002-.068 0-.137-.002-.348-.002h-.006c-.225-.004-.34-.009-.472-.08-.257-.139-.214-.3-.2-.352.036-.137.132-.188.355-.19h.032c.1 0 .203 0 .305-.018.158-.027.273-.091.342-.191a.44.44 0 0 0 .054-.348 20.756 20.756 0 0 0-.282-1.169l-.025-.093c-.047-.181-.1-.363-.151-.54a24.19 24.19 0 0 1-.132-.467 3.99 3.99 0 0 1-.057-.254 2.455 2.455 0 0 0-.113-.432c-.172-.436-.248-.882-.329-1.353l-.043-.253c-.236-1.323-.228-2.335.026-3.279.043-.16.056-.348.039-.574-.013-.174-.086-.309-.205-.38-.121-.072-.28-.072-.445.002-.066.03-.128.065-.187.1-.05.03-.096.057-.144.08-.221.107-.424.115-.572.022-.141-.087-.22-.26-.22-.487l-.002-.144c-.004-.531-.009-1.081.064-1.608.08-.577.212-1.159.34-1.721a74 74 0 0 0 .11-.494c.053-.238.119-.479.183-.712l.093-.344c.017-.069.032-.139.047-.209.03-.144.058-.28.114-.401.237-.51.277-1.054.316-1.581l.004-.057c.01-.131-.05-.364-.187-.44-.157-.088-.429.063-.46.08-.227.13-.454.269-.674.403-.226.138-.46.281-.693.414-.351.2-.73.407-1.122.576-.47.203-.867.359-1.288.524l-.525.206a1.73 1.73 0 0 1-.436.097c-.252.019-.49.039-.721.058-.555.045-1.08.089-1.688.115-.334.015-.54.086-.668.23-.124.141-.17.352-.144.663.008.105.014.21.02.316.023.407.047.827.224 1.23a.291.291 0 0 1 .005.243.384.384 0 0 1-.237.196c-.185.06-.338-.034-.41-.251a2.905 2.905 0 0 1-.097-.427l-.012-.073c-.02-.108-.036-.218-.052-.327-.018-.12-.036-.242-.058-.364-.048-.263-.178-.401-.386-.41h-.017c-.29 0-.358.285-.384.394a2.595 2.595 0 0 0-.046.291 3.826 3.826 0 0 1-.025.183l-.01.065a1.03 1.03 0 0 1-.06.253c-.054.121-.144.196-.242.202-.087.003-.17-.05-.226-.148a.886.886 0 0 1-.088-.532c.028-.19.092-.374.16-.568.03-.085.06-.17.086-.255.077-.25.017-.386-.046-.456s-.19-.143-.44-.093a1.394 1.394 0 0 0-.36.144l-.028.014c-.264.134-.479.099-.59-.097-.108-.19-.022-.408.218-.559.372-.232.724-.452 1.167-.503.155-.018.271-.09.33-.201.06-.117.048-.261-.033-.407-.06-.107-.15-.19-.238-.27a2.026 2.026 0 0 1-.124-.12 5.42 5.42 0 0 0-.16-.164c-.134-.133-.26-.259-.342-.407-.053-.095-.055-.19-.007-.265.052-.083.157-.128.281-.12.14.008.282.06.356.13.27.252.581.557.85.894.376.473.835.915 1.648.953 1.455.068 2.735-.139 3.913-.634.888-.373 1.763-.874 2.674-1.53.063-.046.127-.09.19-.135.209-.146.423-.297.613-.472.128-.117.234-.362.186-.514-.037-.119-.178-.221-.43-.313a9.885 9.885 0 0 0-.68-.21 21.424 21.424 0 0 1-.275-.08c-.038-.01-.077-.024-.115-.037-.09-.03-.182-.061-.28-.075-.48-.071-.928-.266-1.363-.454a9.515 9.515 0 0 0-.8-.319.164.164 0 0 1-.04-.022 79.777 79.777 0 0 1-.415-.231c-.282-.156-.573-.318-.864-.469a7.65 7.65 0 0 1-1.826-1.33c-.385-.375-.876-.88-1.264-1.45l-.146-.21c-.262-.372-.533-.758-.645-1.214a1.26 1.26 0 0 0-.125-.291c-.027-.052-.054-.101-.075-.152a6.793 6.793 0 0 0-.066-.146c-.064-.142-.126-.276-.16-.417a67.16 67.16 0 0 1-.321-1.349l-.172-.739c-.12-.503-.314-.645-.829-.608-.901.065-1.498-.262-1.824-.997a1.349 1.349 0 0 1-.125-.436 8.98 8.98 0 0 0-.007-.258c-.004-.1-.005-.135.006-.388a.98.98 0 0 1 .13-.433c.109-.195.245-.438.428-.576.548-.41 1.15-.561 1.793-.452.12.02.272.037.392-.014.183-.076.362-.167.43-.31.189-.408.372-.864.576-1.437.19-.535.1-.675-.338-.994-.783-.571-1.196-1.245-1.262-2.06a10.15 10.15 0 0 1 .004-1.484c.083-1.282.677-2.222 1.766-2.794.111-.058.196-.164.27-.257l.034-.042a6.33 6.33 0 0 0 .224-.297c.14-.194.274-.378.44-.525l.047-.04c.432-.38.878-.774 1.481-.837.507-.053.945-.289 1.338-.721a.606.606 0 0 1 .262-.185c.523-.143 1.073-.28 1.634-.407.1-.022.205-.024.317-.027.063 0 .128-.002.193-.008l.142-.01c.516-.04 1.05-.082 1.511-.446a.643.643 0 0 1 .774-.034c.495.318.752.063.993-.251.051-.067.097-.139.141-.208.064-.1.124-.195.199-.274.393-.415.79-.63 1.179-.639.372-.009.761.175 1.145.545.234.226.433.501.625.767l.034.047c.113.156.18.304.197.428.073.56.088 1.21-.353 1.767-.08.102-.167.203-.25.301-.102.12-.207.243-.305.371-.016.021-.157.212-.11.359.038.117.207.222.32.226.33.01.712.017 1.083-.025.163-.02.276-.072.345-.162.1-.132.088-.322.065-.472l-.01-.063c-.058-.381-.117-.776-.07-1.145.055-.438.215-.876.37-1.3l.006-.019c.305-.834.813-1.48 1.51-1.917.114-.073.41-.244.66-.268l.218-.022c.324-.033.337-.034.662.01.166.022.323.155.402.233.29.285.48.627.6 1.077.083.313.29.438.632.38a2.03 2.03 0 0 0 .397-.118c.247-.095.491-.09.767.014.776.293 1.174.905 1.121 1.724 0 .015-.002.03-.004.045-.005.056-.011.12.006.182.022.08.055.157.087.23l.038.089.039.097.086-.059c.025-.017.052-.032.078-.048a.662.662 0 0 0 .188-.14c.349-.42.775-.88 1.417-1.045.255-.066.456-.059.65.024.538.227.841.565.955 1.063.096.425.266.562.726.587.041.002.083.001.125 0a.756.756 0 0 1 .184.01l.068.015c.14.031.286.063.394.133.316.206.509.51.544.856.035.346-.1.698-.37.965-.103.101-.214.2-.32.296-.119.107-.242.217-.356.332-.072.072-.15.231-.112.342.043.124.232.183.29.197a.746.746 0 0 0 .235.013l.085-.002c.422 0 .768.206 1.058.632a.593.593 0 0 1 .066.407c-.079.362-.265.618-.57.781-.205.11-.393.253-.575.39l-.07.054c-.066.049-.162.184-.122.28.037.087.144.17.243.188.111.02.224.03.334.039.079.006.16.013.24.024l.042.006c.128.017.26.035.374.081.12.049.193.115.204.187.012.072-.037.159-.136.243-.222.188-.463.253-.716.193a8.694 8.694 0 0 1-.36-.1 6.477 6.477 0 0 0-.41-.112l-.06-.014c-.213-.05-.504-.12-.675.143-.161.25-.006.47.12.646l.054.078c.046.07.1.137.15.2.075.093.144.18.195.276.36.686.424.707 1.15.385.484-.215.943-.196 1.33.056.662.431 1.042.905 1.196 1.49.016.064.028.105.038.138a.905.905 0 0 1 .038.171l.008.057c.017.125.02.144.005.295zm-30.788 1.17c-.102-.11-.262-.161-.502-.161h-.004c-.446.01-.78.121-1.05.35a.804.804 0 0 0-.298.645c.01.234.132.451.336.596.223.158.525.337.901.337h.05c.39-.017.58-.183.63-.556.024-.18.036-.363.049-.54l.011-.16c.018-.239-.02-.402-.123-.511zm26.641-7.574c-.148.03-.33.248-.324.39.006.143.158.264.28.361l.02.016c.059.047.136.055.204.06l.036.004.048.08.069-.035c.063-.031.129-.06.194-.09a2.15 2.15 0 0 0 .445-.24c.12-.09.177-.224.146-.347-.03-.122-.136-.208-.282-.23a2.474 2.474 0 0 0-.836.03zM72.057 6.21c.05.124.19.191.325.256.053.025.103.05.146.075l.029.018.032-.007a5.73 5.73 0 0 1 .31-.051c.356-.053.692-.102.976-.382.167-.164.372-.421.218-.755a.583.583 0 0 0-.737-.308c-.354.132-.723.33-1.098.586-.154.105-.263.413-.2.568zm.585 1.36c-.027-.094-.113-.16-.255-.198a4.582 4.582 0 0 0-.476-.091 8.117 8.117 0 0 1-.172-.028l-.012-.001c-.172-.005-.304.04-.386.132-.05.058-.107.162-.082.336a.697.697 0 0 0 .63.597c.137 0 .272-.065.408-.198l.054-.052c.059-.057.12-.116.177-.179.105-.114.143-.22.114-.317zm-2.534-2.85l.001.011c.013.064.023.13.033.194.023.149.047.303.102.446.087.224.232.367.41.402a.443.443 0 0 0 .087.008c.156 0 .316-.08.461-.232l.202-.21c.173-.178.352-.362.518-.554a.86.86 0 0 0 .204-.408c.063-.396-.12-.768-.453-.926-.398-.19-.76-.128-1.076.182-.242.237-.517.575-.49 1.086zm-.671 2.424c-.15.06-.251.173-.272.302a.31.31 0 0 0 .116.291c.298.254.603.468.907.636.059.033.12.05.18.05a.306.306 0 0 0 .155-.043c.116-.067.185-.203.187-.364.003-.285-.157-.565-.427-.749-.269-.183-.585-.23-.846-.123zm-1.453-1.697c-.11.122-.197.321.005.583.274.355.667.408.978.415h.006a1.85 1.85 0 0 1 .106-.003c.083-.001.168-.003.253-.02.18-.038.309-.133.363-.266.05-.124.026-.268-.067-.404-.188-.277-.298-.59-.345-.986-.009-.069-.072-.274-.195-.289-.113-.014-.248.056-.323.131-.273.278-.535.567-.78.84zm-1.381-.845c.121.21.28.335.458.363a.49.49 0 0 0 .075.005.658.658 0 0 0 .435-.191l.06-.054c.162-.146.33-.296.455-.479.163-.24.367-.561.497-.911a.66.66 0 0 0-.066-.624c-.167-.239-.49-.376-.888-.376h-.017c-.296.022-.664.048-.892.397-.429.655-.467 1.267-.117 1.87zm-.833-.381c-.086-.237-.198-.369-.343-.402-.141-.033-.296.034-.47.204l-.169.163c-.273.265-.555.538-.811.828-.11.124-.2.357-.161.533.034.15.267.275.423.306.253.052.51.08.759.107.097.01.192.021.286.033h.014l.146-.006c.097-.003.188-.006.28-.016.24-.025.414-.115.504-.262.09-.146.093-.342.007-.565-.026-.07-.063-.134-.098-.196a2.291 2.291 0 0 1-.055-.098 7.98 7.98 0 0 0-.1-.19 3.15 3.15 0 0 1-.212-.439zm-3.131-.533c0 .067-.002.134-.004.2-.005.156-.01.317.01.476.025.204.098.332.217.382.034.013.069.02.106.02.097 0 .206-.047.326-.14.137-.107.271-.22.401-.33.176-.148.358-.302.545-.439.505-.37.937-.863 1.36-1.55.06-.097.1-.227.112-.366.064-.683-.16-1.13-.686-1.364-.151-.068-.37-.12-.53-.061-.604.221-1.05.615-1.292 1.138-.04.087-.082.174-.123.26-.262.546-.533 1.11-.442 1.774zm-4.997.123v.005l.008.144c.006.132.013.282.04.431.04.23.162.425.342.548.137.092.298.14.47.14a.966.966 0 0 0 .192-.02c.342-.07.623-.226.858-.477.47-.504.77-1.098.917-1.818.102-.503-.132-.889-.38-1.241-.103-.146-.31-.197-.467-.214-.303-.033-.722.034-.935.228-.713.647-1.054 1.39-1.045 2.274zm-1.949.418l.016.038c.03.076.058.152.085.225.06.168.118.326.21.468a.4.4 0 0 0 .33.192h.006c.14 0 .278-.079.371-.211.225-.32.162-.84-.126-1.05-.144-.105-.384-.188-.566-.143-.113.028-.17.156-.23.292a1.984 1.984 0 0 1-.075.153zm-2.654-.592c.008.056.041.136.156.204.208.121.38.207.541.27a.523.523 0 0 0 .19.037c.09 0 .177-.025.25-.077a.5.5 0 0 0 .198-.43c-.004-.265-.19-.5-.422-.536a.873.873 0 0 0-.813.277c-.079.085-.113.17-.1.255zM51.777 4.99c.003.143.036.298.097.462.075.202.158.416.278.605.305.478.729.971 1.565 1.005h.011l.011-.002.086-.017c.092-.018.217-.041.335-.085.29-.108.478-.283.543-.505.066-.226-.001-.478-.193-.73a5.526 5.526 0 0 1-.125-.175 3.816 3.816 0 0 0-.169-.231c-.425-.528-1.02-.758-1.642-.965a.36.36 0 0 0-.149-.009l-.031.002c-.39.02-.626.268-.617.645zm2.042 3.437a.29.29 0 0 0-.142-.205c-.28-.154-.49.165-.603.335a4.967 4.967 0 0 1-.693.845c-.338.324-.779.504-1.205.677-.152.062-.308.126-.459.195a3.03 3.03 0 0 0-1.138.926c-.083.108-.157.34-.088.472.052.1.166.15.277.199.044.02.089.04.128.062l.036.02.038-.016.187-.074c.135-.053.263-.103.388-.161a3.77 3.77 0 0 0 .47-.257c.114-.075.235-.148.352-.218.303-.183.616-.372.868-.621.406-.404.77-.861 1.121-1.303.1-.126.2-.252.302-.377.13-.16.19-.348.161-.5zm-3.947-3.306c.025.113.15.174.261.227a.923.923 0 0 1 .086.045l.028.018.033-.006.173-.032a1.61 1.61 0 0 0 .27-.062.465.465 0 0 0 .292-.566c-.066-.227-.256-.33-.51-.278-.126.026-.3.082-.415.194-.097.095-.252.299-.218.46zM48.697 7.05c.226.57.535.99.946 1.286.094.068.19.133.286.198.102.07.207.14.307.213.173.127.362.19.546.19.16 0 .317-.047.458-.142.243-.163.484-.33.719-.495.214-.152.35-.355.381-.572a.733.733 0 0 0-.164-.566c-.53-.673-1.268-1.062-2.394-1.261l-.022-.004-.021.007c-.052.019-.11.037-.17.057a4.092 4.092 0 0 0-.478.179c-.392.184-.543.533-.394.91zm-.525 4.657c.179 0 .337-.094.5-.288.101-.121.2-.244.3-.366.205-.252.417-.513.64-.752.238-.253.38-.451.36-.659-.016-.174-.141-.33-.432-.542-.7-.508-1.15-1.056-1.415-1.724-.06-.15-.269-.301-.423-.306-.152-.004-.369.127-.444.272-.347.667-.628 1.28-.54 2.025-.082.475.11.896.296 1.302l.082.183c.137.31.361.55.687.733.143.081.27.122.389.122zM59.617 42.77v-.022a7.227 7.227 0 0 0-.02-.403 11.082 11.082 0 0 1-.014-.247 60.019 60.019 0 0 1-.03-.739 55.278 55.278 0 0 0-.078-1.606 11.228 11.228 0 0 0-.18-1.27c-.018-.092-.083-.162-.147-.23a1.021 1.021 0 0 1-.068-.078l-.087-.115-.057.132a1.617 1.617 0 0 1-.041.084.756.756 0 0 0-.087.23 2.388 2.388 0 0 0-.02.325c0 .06-.001.12-.005.18-.047.795-.096 1.59-.145 2.386l-.04.644h-.002l-.008.168h.007c.002.085.006.17.011.252.005.09.01.18.012.27a.89.89 0 0 0 .302.682.44.44 0 0 0 .289.114.382.382 0 0 0 .368-.286c.043-.153.042-.315.04-.472zm3.735.023l-.042-.18c-.047-.2-.096-.408-.12-.613-.086-.754-.168-1.522-.247-2.264-.056-.515-.11-1.03-.167-1.545-.046-.412-.314-.489-.528-.484-.454.013-.856.039-1.227.077-.181.019-.31.083-.386.19-.079.113-.093.269-.043.462.034.13.064.308.074.444.047.598.073 1.194.098 1.77.023.53.046 1.08.086 1.63l.085-.005.056.823h-.084c.001.148.016.313.121.415.08.077.196.11.387.11h.027c.235-.003.473-.013.704-.023.195-.009.398-.017.596-.022.314-.007.48-.06.575-.18.095-.12.105-.295.035-.605zm-.183-10.12c-.237-.545-.482-1.109-.572-1.712-.018-.117-.152-.342-.288-.342h-.001c-.142 0-.304.128-.372.245-.076.13-.13.272-.182.41a4.044 4.044 0 0 1-.086.216c-.32.738-.702 1.33-1.165 1.81-.141.146-.309.214-.474.193-.16-.02-.3-.124-.396-.292a9.515 9.515 0 0 1-.57-1.173 7.217 7.217 0 0 1-.226-.69 10.568 10.568 0 0 0-.17-.542c-.033-.094-.121-.344-.314-.344h-.006c-.17.005-.287.162-.317.317-.016.048-.022.11-.028.17-.003.03-.006.058-.01.08-.015.086-.03.172-.043.258a8.286 8.286 0 0 1-.092.5c-.106.464-.213.927-.321 1.39-.133.573-.271 1.165-.402 1.748-.086.385-.16.765-.23 1.133-.031.157-.06.31-.09.455l-.001.015c-.005.278.04.443.15.534a.333.333 0 0 0 .222.073.65.65 0 0 0 .126-.013c.174-.033.347-.069.52-.104.501-.103 1.019-.21 1.531-.257 1.194-.11 2.411-.194 3.589-.274l1.137-.079c.238-.016.397-.091.474-.221.074-.126.064-.291-.03-.492-.082-.179-.166-.358-.25-.537-.324-.69-.659-1.402-.958-2.115-.05-.12-.103-.24-.155-.36zm-4.21-3.571l.004.022.008.03c.014.05.038.136.08.215.293.565.593 1.172.754 1.844.034.143.206.36.353.36.154 0 .386-.115.466-.269.306-.588.592-1.197.87-1.786l.108-.231c.052-.111.091-.243.113-.38.026-.173-.003-.305-.087-.394-.084-.087-.213-.122-.384-.102-.11.012-.218.035-.323.058a2.93 2.93 0 0 1-.335.058c-.25.024-.507.04-.755.055-.169.01-.337.02-.505.033-.262.02-.386.183-.368.487zM73.75 15.359a9.073 9.073 0 0 0-1.213-3.342c-.607-1.004-1.403-1.909-2.433-2.765-1.063-.884-2.25-1.758-3.737-2.169-.394-.109-.911-.211-1.424-.039-.594.2-1.151.087-1.756-.354-.373-.272-.77-.379-1.254-.336l-.09.008c-.107.01-.219.02-.327.024-1.264.029-2.758.101-4.259.415-.582.122-1.08.261-1.52.427-.247.093-.45.34-.547.523-.538 1.006-1.13 2.063-1.94 2.961-1.12 1.243-2.412 1.904-3.952 2.018-.317.024-.537.162-.673.422a9.59 9.59 0 0 0-.887 2.457c-.174.824-.23 1.702-.172 2.684.084 1.414.516 2.784 1.284 4.073.58.972 1.35 1.864 2.293 2.653a10.726 10.726 0 0 0 3.068 1.798 11.435 11.435 0 0 0 4.233.75c2.388-.004 4.08-.394 5.886-.98a30.726 30.726 0 0 0 4.297-1.78c1.2-.6 2.17-1.257 2.967-2.008 1.035-.975 1.725-2.107 2.051-3.364.313-1.202.346-2.497.105-4.076zm2.7-1.073a1.165 1.165 0 0 0-.545-.737 1.163 1.163 0 0 0-.906-.13c-.382.107-.55.365-.486.746.023.133.059.264.093.39.02.073.04.146.058.22.108.454.276.583.772.583h.036l.028-.002c.045-.002.119-.005.192-.019a.981.981 0 0 0 .62-.427.826.826 0 0 0 .138-.624z"/></g><path fill="#1a1919" d="M51.903 20.98a8.217 8.217 0 0 0 3.388 2.87c1.42.656 2.994 1.017 4.68 1.072h.003c.14 0 .282.002.425.005.143.002.285.005.428.005.195 0 .356-.005.507-.015 1.265-.086 2.401-.332 3.473-.752.944-.37 1.725-.818 2.387-1.372a6.441 6.441 0 0 0 2.078-3.165c.266-.898.297-1.77.092-2.593-.067-.268-.223-.525-.375-.773l-.017-.03a.465.465 0 0 0-.403-.202.505.505 0 0 0-.187.035c-.194.078-.196.234-.176.464.006.075.023.15.04.23.01.043.019.086.027.13.26 1.442-.024 2.784-.847 3.987-.808 1.182-2.018 2.03-3.7 2.59-1.098.365-2.26.551-3.45.551-.44 0-.894-.025-1.346-.076-1.935-.215-3.49-.812-4.757-1.823-1.183-.944-1.917-2.135-2.183-3.542a9.356 9.356 0 0 1-.09-.655 8.143 8.143 0 0 0-.107-.726 2.152 2.152 0 0 0-.312-.737c-.053-.079-.121-.122-.193-.122-.075 0-.151.05-.207.136-.12.183-.196.4-.203.578-.065 1.537.27 2.822 1.025 3.93m8.907-8.92h-.014c-.212.006-.328.128-.326.345.003.265.173.473.388.473h.007c.21-.005.361-.18.358-.416-.003-.24-.169-.402-.412-.402m-5.524-.39a.296.296 0 0 0-.217.085.446.446 0 0 0-.11.32c.001.263.132.436.333.441h.009a.306.306 0 0 0 .223-.093.444.444 0 0 0 .115-.325c-.005-.25-.15-.427-.353-.428"/></svg>